%
M48
M72
T01C0.03150
T02C0.03200
T03C0.03937
T04C0.04000
T05C0.06500
T06C0.07087
%
T01
X49365Y256000
X59365Y256000
X69365Y256000
X79365Y256000
T02
X49365Y211000
X89365Y211000
T03
X54365Y116000
X64365Y116000
X74365Y116000
X84365Y116000
X94365Y116000
X104365Y116000
X114365Y116000
X124365Y116000
X134365Y116000
X144365Y116000
X154365Y116000
X164365Y116000
X174365Y116000
X184365Y116000
X194365Y116000
X204365Y136000
X194365Y136000
X194365Y146000
X204365Y146000
X204365Y156000
X194365Y156000
X194365Y176000
X184365Y176000
X174365Y176000
X164365Y176000
X154365Y176000
X144365Y176000
X134365Y176000
X124365Y176000
X114365Y176000
X104365Y176000
X94365Y176000
X84365Y176000
X74365Y176000
X64365Y176000
X54365Y176000
X169365Y226000
X169365Y236000
X179365Y236000
X179365Y226000
X179365Y246000
X169365Y246000
X169365Y256000
X179365Y256000
X234365Y86000
X234365Y76000
X234365Y66000
T04
X29365Y16000
X39365Y16000
X49365Y16000
X59365Y16000
X69365Y16000
X109365Y16000
X119365Y16000
X129365Y16000
X139365Y16000
X149365Y16000
X194365Y16000
X204365Y16000
X254365Y161000
X254365Y171000
X29365Y96000
X29365Y86000
X29365Y76000
X29365Y66000
T05
X44365Y116000
X44365Y176000
X204365Y176000
X204365Y116000
T06
X274365Y131512
X274365Y20488
M30
