G75*
%MOIN*%
%OFA0B0*%
%FSLAX25Y25*%
%IPPOS*%
%LPD*%
%AMOC8*
5,1,8,0,0,1.08239X$1,22.5*
%
%ADD10C,0.00000*%
%ADD11C,0.00300*%
%ADD12C,0.00400*%
%ADD13C,0.00600*%
%ADD14C,0.02100*%
%ADD15C,0.00500*%
%ADD16R,0.03400X0.02400*%
%ADD17C,0.00700*%
D10*
X0001000Y0001500D02*
X0001000Y0276461D01*
X0269701Y0276461D01*
X0269701Y0001500D01*
X0001000Y0001500D01*
X0005488Y0011500D02*
X0005490Y0011648D01*
X0005496Y0011796D01*
X0005506Y0011944D01*
X0005520Y0012091D01*
X0005538Y0012238D01*
X0005559Y0012384D01*
X0005585Y0012530D01*
X0005615Y0012675D01*
X0005648Y0012819D01*
X0005686Y0012962D01*
X0005727Y0013104D01*
X0005772Y0013245D01*
X0005820Y0013385D01*
X0005873Y0013524D01*
X0005929Y0013661D01*
X0005989Y0013796D01*
X0006052Y0013930D01*
X0006119Y0014062D01*
X0006190Y0014192D01*
X0006264Y0014320D01*
X0006341Y0014446D01*
X0006422Y0014570D01*
X0006506Y0014692D01*
X0006593Y0014811D01*
X0006684Y0014928D01*
X0006778Y0015043D01*
X0006874Y0015155D01*
X0006974Y0015265D01*
X0007076Y0015371D01*
X0007182Y0015475D01*
X0007290Y0015576D01*
X0007401Y0015674D01*
X0007514Y0015770D01*
X0007630Y0015862D01*
X0007748Y0015951D01*
X0007869Y0016036D01*
X0007992Y0016119D01*
X0008117Y0016198D01*
X0008244Y0016274D01*
X0008373Y0016346D01*
X0008504Y0016415D01*
X0008637Y0016480D01*
X0008772Y0016541D01*
X0008908Y0016599D01*
X0009045Y0016654D01*
X0009184Y0016704D01*
X0009325Y0016751D01*
X0009466Y0016794D01*
X0009609Y0016834D01*
X0009753Y0016869D01*
X0009897Y0016901D01*
X0010043Y0016928D01*
X0010189Y0016952D01*
X0010336Y0016972D01*
X0010483Y0016988D01*
X0010630Y0017000D01*
X0010778Y0017008D01*
X0010926Y0017012D01*
X0011074Y0017012D01*
X0011222Y0017008D01*
X0011370Y0017000D01*
X0011517Y0016988D01*
X0011664Y0016972D01*
X0011811Y0016952D01*
X0011957Y0016928D01*
X0012103Y0016901D01*
X0012247Y0016869D01*
X0012391Y0016834D01*
X0012534Y0016794D01*
X0012675Y0016751D01*
X0012816Y0016704D01*
X0012955Y0016654D01*
X0013092Y0016599D01*
X0013228Y0016541D01*
X0013363Y0016480D01*
X0013496Y0016415D01*
X0013627Y0016346D01*
X0013756Y0016274D01*
X0013883Y0016198D01*
X0014008Y0016119D01*
X0014131Y0016036D01*
X0014252Y0015951D01*
X0014370Y0015862D01*
X0014486Y0015770D01*
X0014599Y0015674D01*
X0014710Y0015576D01*
X0014818Y0015475D01*
X0014924Y0015371D01*
X0015026Y0015265D01*
X0015126Y0015155D01*
X0015222Y0015043D01*
X0015316Y0014928D01*
X0015407Y0014811D01*
X0015494Y0014692D01*
X0015578Y0014570D01*
X0015659Y0014446D01*
X0015736Y0014320D01*
X0015810Y0014192D01*
X0015881Y0014062D01*
X0015948Y0013930D01*
X0016011Y0013796D01*
X0016071Y0013661D01*
X0016127Y0013524D01*
X0016180Y0013385D01*
X0016228Y0013245D01*
X0016273Y0013104D01*
X0016314Y0012962D01*
X0016352Y0012819D01*
X0016385Y0012675D01*
X0016415Y0012530D01*
X0016441Y0012384D01*
X0016462Y0012238D01*
X0016480Y0012091D01*
X0016494Y0011944D01*
X0016504Y0011796D01*
X0016510Y0011648D01*
X0016512Y0011500D01*
X0016510Y0011352D01*
X0016504Y0011204D01*
X0016494Y0011056D01*
X0016480Y0010909D01*
X0016462Y0010762D01*
X0016441Y0010616D01*
X0016415Y0010470D01*
X0016385Y0010325D01*
X0016352Y0010181D01*
X0016314Y0010038D01*
X0016273Y0009896D01*
X0016228Y0009755D01*
X0016180Y0009615D01*
X0016127Y0009476D01*
X0016071Y0009339D01*
X0016011Y0009204D01*
X0015948Y0009070D01*
X0015881Y0008938D01*
X0015810Y0008808D01*
X0015736Y0008680D01*
X0015659Y0008554D01*
X0015578Y0008430D01*
X0015494Y0008308D01*
X0015407Y0008189D01*
X0015316Y0008072D01*
X0015222Y0007957D01*
X0015126Y0007845D01*
X0015026Y0007735D01*
X0014924Y0007629D01*
X0014818Y0007525D01*
X0014710Y0007424D01*
X0014599Y0007326D01*
X0014486Y0007230D01*
X0014370Y0007138D01*
X0014252Y0007049D01*
X0014131Y0006964D01*
X0014008Y0006881D01*
X0013883Y0006802D01*
X0013756Y0006726D01*
X0013627Y0006654D01*
X0013496Y0006585D01*
X0013363Y0006520D01*
X0013228Y0006459D01*
X0013092Y0006401D01*
X0012955Y0006346D01*
X0012816Y0006296D01*
X0012675Y0006249D01*
X0012534Y0006206D01*
X0012391Y0006166D01*
X0012247Y0006131D01*
X0012103Y0006099D01*
X0011957Y0006072D01*
X0011811Y0006048D01*
X0011664Y0006028D01*
X0011517Y0006012D01*
X0011370Y0006000D01*
X0011222Y0005992D01*
X0011074Y0005988D01*
X0010926Y0005988D01*
X0010778Y0005992D01*
X0010630Y0006000D01*
X0010483Y0006012D01*
X0010336Y0006028D01*
X0010189Y0006048D01*
X0010043Y0006072D01*
X0009897Y0006099D01*
X0009753Y0006131D01*
X0009609Y0006166D01*
X0009466Y0006206D01*
X0009325Y0006249D01*
X0009184Y0006296D01*
X0009045Y0006346D01*
X0008908Y0006401D01*
X0008772Y0006459D01*
X0008637Y0006520D01*
X0008504Y0006585D01*
X0008373Y0006654D01*
X0008244Y0006726D01*
X0008117Y0006802D01*
X0007992Y0006881D01*
X0007869Y0006964D01*
X0007748Y0007049D01*
X0007630Y0007138D01*
X0007514Y0007230D01*
X0007401Y0007326D01*
X0007290Y0007424D01*
X0007182Y0007525D01*
X0007076Y0007629D01*
X0006974Y0007735D01*
X0006874Y0007845D01*
X0006778Y0007957D01*
X0006684Y0008072D01*
X0006593Y0008189D01*
X0006506Y0008308D01*
X0006422Y0008430D01*
X0006341Y0008554D01*
X0006264Y0008680D01*
X0006190Y0008808D01*
X0006119Y0008938D01*
X0006052Y0009070D01*
X0005989Y0009204D01*
X0005929Y0009339D01*
X0005873Y0009476D01*
X0005820Y0009615D01*
X0005772Y0009755D01*
X0005727Y0009896D01*
X0005686Y0010038D01*
X0005648Y0010181D01*
X0005615Y0010325D01*
X0005585Y0010470D01*
X0005559Y0010616D01*
X0005538Y0010762D01*
X0005520Y0010909D01*
X0005506Y0011056D01*
X0005496Y0011204D01*
X0005490Y0011352D01*
X0005488Y0011500D01*
X0027750Y0111500D02*
X0027752Y0111613D01*
X0027758Y0111727D01*
X0027768Y0111840D01*
X0027782Y0111952D01*
X0027799Y0112064D01*
X0027821Y0112176D01*
X0027847Y0112286D01*
X0027876Y0112396D01*
X0027909Y0112504D01*
X0027946Y0112612D01*
X0027987Y0112717D01*
X0028031Y0112822D01*
X0028079Y0112925D01*
X0028130Y0113026D01*
X0028185Y0113125D01*
X0028244Y0113222D01*
X0028306Y0113317D01*
X0028371Y0113410D01*
X0028439Y0113501D01*
X0028510Y0113589D01*
X0028585Y0113675D01*
X0028662Y0113758D01*
X0028742Y0113838D01*
X0028825Y0113915D01*
X0028911Y0113990D01*
X0028999Y0114061D01*
X0029090Y0114129D01*
X0029183Y0114194D01*
X0029278Y0114256D01*
X0029375Y0114315D01*
X0029474Y0114370D01*
X0029575Y0114421D01*
X0029678Y0114469D01*
X0029783Y0114513D01*
X0029888Y0114554D01*
X0029996Y0114591D01*
X0030104Y0114624D01*
X0030214Y0114653D01*
X0030324Y0114679D01*
X0030436Y0114701D01*
X0030548Y0114718D01*
X0030660Y0114732D01*
X0030773Y0114742D01*
X0030887Y0114748D01*
X0031000Y0114750D01*
X0031113Y0114748D01*
X0031227Y0114742D01*
X0031340Y0114732D01*
X0031452Y0114718D01*
X0031564Y0114701D01*
X0031676Y0114679D01*
X0031786Y0114653D01*
X0031896Y0114624D01*
X0032004Y0114591D01*
X0032112Y0114554D01*
X0032217Y0114513D01*
X0032322Y0114469D01*
X0032425Y0114421D01*
X0032526Y0114370D01*
X0032625Y0114315D01*
X0032722Y0114256D01*
X0032817Y0114194D01*
X0032910Y0114129D01*
X0033001Y0114061D01*
X0033089Y0113990D01*
X0033175Y0113915D01*
X0033258Y0113838D01*
X0033338Y0113758D01*
X0033415Y0113675D01*
X0033490Y0113589D01*
X0033561Y0113501D01*
X0033629Y0113410D01*
X0033694Y0113317D01*
X0033756Y0113222D01*
X0033815Y0113125D01*
X0033870Y0113026D01*
X0033921Y0112925D01*
X0033969Y0112822D01*
X0034013Y0112717D01*
X0034054Y0112612D01*
X0034091Y0112504D01*
X0034124Y0112396D01*
X0034153Y0112286D01*
X0034179Y0112176D01*
X0034201Y0112064D01*
X0034218Y0111952D01*
X0034232Y0111840D01*
X0034242Y0111727D01*
X0034248Y0111613D01*
X0034250Y0111500D01*
X0034248Y0111387D01*
X0034242Y0111273D01*
X0034232Y0111160D01*
X0034218Y0111048D01*
X0034201Y0110936D01*
X0034179Y0110824D01*
X0034153Y0110714D01*
X0034124Y0110604D01*
X0034091Y0110496D01*
X0034054Y0110388D01*
X0034013Y0110283D01*
X0033969Y0110178D01*
X0033921Y0110075D01*
X0033870Y0109974D01*
X0033815Y0109875D01*
X0033756Y0109778D01*
X0033694Y0109683D01*
X0033629Y0109590D01*
X0033561Y0109499D01*
X0033490Y0109411D01*
X0033415Y0109325D01*
X0033338Y0109242D01*
X0033258Y0109162D01*
X0033175Y0109085D01*
X0033089Y0109010D01*
X0033001Y0108939D01*
X0032910Y0108871D01*
X0032817Y0108806D01*
X0032722Y0108744D01*
X0032625Y0108685D01*
X0032526Y0108630D01*
X0032425Y0108579D01*
X0032322Y0108531D01*
X0032217Y0108487D01*
X0032112Y0108446D01*
X0032004Y0108409D01*
X0031896Y0108376D01*
X0031786Y0108347D01*
X0031676Y0108321D01*
X0031564Y0108299D01*
X0031452Y0108282D01*
X0031340Y0108268D01*
X0031227Y0108258D01*
X0031113Y0108252D01*
X0031000Y0108250D01*
X0030887Y0108252D01*
X0030773Y0108258D01*
X0030660Y0108268D01*
X0030548Y0108282D01*
X0030436Y0108299D01*
X0030324Y0108321D01*
X0030214Y0108347D01*
X0030104Y0108376D01*
X0029996Y0108409D01*
X0029888Y0108446D01*
X0029783Y0108487D01*
X0029678Y0108531D01*
X0029575Y0108579D01*
X0029474Y0108630D01*
X0029375Y0108685D01*
X0029278Y0108744D01*
X0029183Y0108806D01*
X0029090Y0108871D01*
X0028999Y0108939D01*
X0028911Y0109010D01*
X0028825Y0109085D01*
X0028742Y0109162D01*
X0028662Y0109242D01*
X0028585Y0109325D01*
X0028510Y0109411D01*
X0028439Y0109499D01*
X0028371Y0109590D01*
X0028306Y0109683D01*
X0028244Y0109778D01*
X0028185Y0109875D01*
X0028130Y0109974D01*
X0028079Y0110075D01*
X0028031Y0110178D01*
X0027987Y0110283D01*
X0027946Y0110388D01*
X0027909Y0110496D01*
X0027876Y0110604D01*
X0027847Y0110714D01*
X0027821Y0110824D01*
X0027799Y0110936D01*
X0027782Y0111048D01*
X0027768Y0111160D01*
X0027758Y0111273D01*
X0027752Y0111387D01*
X0027750Y0111500D01*
X0027750Y0171500D02*
X0027752Y0171613D01*
X0027758Y0171727D01*
X0027768Y0171840D01*
X0027782Y0171952D01*
X0027799Y0172064D01*
X0027821Y0172176D01*
X0027847Y0172286D01*
X0027876Y0172396D01*
X0027909Y0172504D01*
X0027946Y0172612D01*
X0027987Y0172717D01*
X0028031Y0172822D01*
X0028079Y0172925D01*
X0028130Y0173026D01*
X0028185Y0173125D01*
X0028244Y0173222D01*
X0028306Y0173317D01*
X0028371Y0173410D01*
X0028439Y0173501D01*
X0028510Y0173589D01*
X0028585Y0173675D01*
X0028662Y0173758D01*
X0028742Y0173838D01*
X0028825Y0173915D01*
X0028911Y0173990D01*
X0028999Y0174061D01*
X0029090Y0174129D01*
X0029183Y0174194D01*
X0029278Y0174256D01*
X0029375Y0174315D01*
X0029474Y0174370D01*
X0029575Y0174421D01*
X0029678Y0174469D01*
X0029783Y0174513D01*
X0029888Y0174554D01*
X0029996Y0174591D01*
X0030104Y0174624D01*
X0030214Y0174653D01*
X0030324Y0174679D01*
X0030436Y0174701D01*
X0030548Y0174718D01*
X0030660Y0174732D01*
X0030773Y0174742D01*
X0030887Y0174748D01*
X0031000Y0174750D01*
X0031113Y0174748D01*
X0031227Y0174742D01*
X0031340Y0174732D01*
X0031452Y0174718D01*
X0031564Y0174701D01*
X0031676Y0174679D01*
X0031786Y0174653D01*
X0031896Y0174624D01*
X0032004Y0174591D01*
X0032112Y0174554D01*
X0032217Y0174513D01*
X0032322Y0174469D01*
X0032425Y0174421D01*
X0032526Y0174370D01*
X0032625Y0174315D01*
X0032722Y0174256D01*
X0032817Y0174194D01*
X0032910Y0174129D01*
X0033001Y0174061D01*
X0033089Y0173990D01*
X0033175Y0173915D01*
X0033258Y0173838D01*
X0033338Y0173758D01*
X0033415Y0173675D01*
X0033490Y0173589D01*
X0033561Y0173501D01*
X0033629Y0173410D01*
X0033694Y0173317D01*
X0033756Y0173222D01*
X0033815Y0173125D01*
X0033870Y0173026D01*
X0033921Y0172925D01*
X0033969Y0172822D01*
X0034013Y0172717D01*
X0034054Y0172612D01*
X0034091Y0172504D01*
X0034124Y0172396D01*
X0034153Y0172286D01*
X0034179Y0172176D01*
X0034201Y0172064D01*
X0034218Y0171952D01*
X0034232Y0171840D01*
X0034242Y0171727D01*
X0034248Y0171613D01*
X0034250Y0171500D01*
X0034248Y0171387D01*
X0034242Y0171273D01*
X0034232Y0171160D01*
X0034218Y0171048D01*
X0034201Y0170936D01*
X0034179Y0170824D01*
X0034153Y0170714D01*
X0034124Y0170604D01*
X0034091Y0170496D01*
X0034054Y0170388D01*
X0034013Y0170283D01*
X0033969Y0170178D01*
X0033921Y0170075D01*
X0033870Y0169974D01*
X0033815Y0169875D01*
X0033756Y0169778D01*
X0033694Y0169683D01*
X0033629Y0169590D01*
X0033561Y0169499D01*
X0033490Y0169411D01*
X0033415Y0169325D01*
X0033338Y0169242D01*
X0033258Y0169162D01*
X0033175Y0169085D01*
X0033089Y0169010D01*
X0033001Y0168939D01*
X0032910Y0168871D01*
X0032817Y0168806D01*
X0032722Y0168744D01*
X0032625Y0168685D01*
X0032526Y0168630D01*
X0032425Y0168579D01*
X0032322Y0168531D01*
X0032217Y0168487D01*
X0032112Y0168446D01*
X0032004Y0168409D01*
X0031896Y0168376D01*
X0031786Y0168347D01*
X0031676Y0168321D01*
X0031564Y0168299D01*
X0031452Y0168282D01*
X0031340Y0168268D01*
X0031227Y0168258D01*
X0031113Y0168252D01*
X0031000Y0168250D01*
X0030887Y0168252D01*
X0030773Y0168258D01*
X0030660Y0168268D01*
X0030548Y0168282D01*
X0030436Y0168299D01*
X0030324Y0168321D01*
X0030214Y0168347D01*
X0030104Y0168376D01*
X0029996Y0168409D01*
X0029888Y0168446D01*
X0029783Y0168487D01*
X0029678Y0168531D01*
X0029575Y0168579D01*
X0029474Y0168630D01*
X0029375Y0168685D01*
X0029278Y0168744D01*
X0029183Y0168806D01*
X0029090Y0168871D01*
X0028999Y0168939D01*
X0028911Y0169010D01*
X0028825Y0169085D01*
X0028742Y0169162D01*
X0028662Y0169242D01*
X0028585Y0169325D01*
X0028510Y0169411D01*
X0028439Y0169499D01*
X0028371Y0169590D01*
X0028306Y0169683D01*
X0028244Y0169778D01*
X0028185Y0169875D01*
X0028130Y0169974D01*
X0028079Y0170075D01*
X0028031Y0170178D01*
X0027987Y0170283D01*
X0027946Y0170388D01*
X0027909Y0170496D01*
X0027876Y0170604D01*
X0027847Y0170714D01*
X0027821Y0170824D01*
X0027799Y0170936D01*
X0027782Y0171048D01*
X0027768Y0171160D01*
X0027758Y0171273D01*
X0027752Y0171387D01*
X0027750Y0171500D01*
X0005488Y0266500D02*
X0005490Y0266648D01*
X0005496Y0266796D01*
X0005506Y0266944D01*
X0005520Y0267091D01*
X0005538Y0267238D01*
X0005559Y0267384D01*
X0005585Y0267530D01*
X0005615Y0267675D01*
X0005648Y0267819D01*
X0005686Y0267962D01*
X0005727Y0268104D01*
X0005772Y0268245D01*
X0005820Y0268385D01*
X0005873Y0268524D01*
X0005929Y0268661D01*
X0005989Y0268796D01*
X0006052Y0268930D01*
X0006119Y0269062D01*
X0006190Y0269192D01*
X0006264Y0269320D01*
X0006341Y0269446D01*
X0006422Y0269570D01*
X0006506Y0269692D01*
X0006593Y0269811D01*
X0006684Y0269928D01*
X0006778Y0270043D01*
X0006874Y0270155D01*
X0006974Y0270265D01*
X0007076Y0270371D01*
X0007182Y0270475D01*
X0007290Y0270576D01*
X0007401Y0270674D01*
X0007514Y0270770D01*
X0007630Y0270862D01*
X0007748Y0270951D01*
X0007869Y0271036D01*
X0007992Y0271119D01*
X0008117Y0271198D01*
X0008244Y0271274D01*
X0008373Y0271346D01*
X0008504Y0271415D01*
X0008637Y0271480D01*
X0008772Y0271541D01*
X0008908Y0271599D01*
X0009045Y0271654D01*
X0009184Y0271704D01*
X0009325Y0271751D01*
X0009466Y0271794D01*
X0009609Y0271834D01*
X0009753Y0271869D01*
X0009897Y0271901D01*
X0010043Y0271928D01*
X0010189Y0271952D01*
X0010336Y0271972D01*
X0010483Y0271988D01*
X0010630Y0272000D01*
X0010778Y0272008D01*
X0010926Y0272012D01*
X0011074Y0272012D01*
X0011222Y0272008D01*
X0011370Y0272000D01*
X0011517Y0271988D01*
X0011664Y0271972D01*
X0011811Y0271952D01*
X0011957Y0271928D01*
X0012103Y0271901D01*
X0012247Y0271869D01*
X0012391Y0271834D01*
X0012534Y0271794D01*
X0012675Y0271751D01*
X0012816Y0271704D01*
X0012955Y0271654D01*
X0013092Y0271599D01*
X0013228Y0271541D01*
X0013363Y0271480D01*
X0013496Y0271415D01*
X0013627Y0271346D01*
X0013756Y0271274D01*
X0013883Y0271198D01*
X0014008Y0271119D01*
X0014131Y0271036D01*
X0014252Y0270951D01*
X0014370Y0270862D01*
X0014486Y0270770D01*
X0014599Y0270674D01*
X0014710Y0270576D01*
X0014818Y0270475D01*
X0014924Y0270371D01*
X0015026Y0270265D01*
X0015126Y0270155D01*
X0015222Y0270043D01*
X0015316Y0269928D01*
X0015407Y0269811D01*
X0015494Y0269692D01*
X0015578Y0269570D01*
X0015659Y0269446D01*
X0015736Y0269320D01*
X0015810Y0269192D01*
X0015881Y0269062D01*
X0015948Y0268930D01*
X0016011Y0268796D01*
X0016071Y0268661D01*
X0016127Y0268524D01*
X0016180Y0268385D01*
X0016228Y0268245D01*
X0016273Y0268104D01*
X0016314Y0267962D01*
X0016352Y0267819D01*
X0016385Y0267675D01*
X0016415Y0267530D01*
X0016441Y0267384D01*
X0016462Y0267238D01*
X0016480Y0267091D01*
X0016494Y0266944D01*
X0016504Y0266796D01*
X0016510Y0266648D01*
X0016512Y0266500D01*
X0016510Y0266352D01*
X0016504Y0266204D01*
X0016494Y0266056D01*
X0016480Y0265909D01*
X0016462Y0265762D01*
X0016441Y0265616D01*
X0016415Y0265470D01*
X0016385Y0265325D01*
X0016352Y0265181D01*
X0016314Y0265038D01*
X0016273Y0264896D01*
X0016228Y0264755D01*
X0016180Y0264615D01*
X0016127Y0264476D01*
X0016071Y0264339D01*
X0016011Y0264204D01*
X0015948Y0264070D01*
X0015881Y0263938D01*
X0015810Y0263808D01*
X0015736Y0263680D01*
X0015659Y0263554D01*
X0015578Y0263430D01*
X0015494Y0263308D01*
X0015407Y0263189D01*
X0015316Y0263072D01*
X0015222Y0262957D01*
X0015126Y0262845D01*
X0015026Y0262735D01*
X0014924Y0262629D01*
X0014818Y0262525D01*
X0014710Y0262424D01*
X0014599Y0262326D01*
X0014486Y0262230D01*
X0014370Y0262138D01*
X0014252Y0262049D01*
X0014131Y0261964D01*
X0014008Y0261881D01*
X0013883Y0261802D01*
X0013756Y0261726D01*
X0013627Y0261654D01*
X0013496Y0261585D01*
X0013363Y0261520D01*
X0013228Y0261459D01*
X0013092Y0261401D01*
X0012955Y0261346D01*
X0012816Y0261296D01*
X0012675Y0261249D01*
X0012534Y0261206D01*
X0012391Y0261166D01*
X0012247Y0261131D01*
X0012103Y0261099D01*
X0011957Y0261072D01*
X0011811Y0261048D01*
X0011664Y0261028D01*
X0011517Y0261012D01*
X0011370Y0261000D01*
X0011222Y0260992D01*
X0011074Y0260988D01*
X0010926Y0260988D01*
X0010778Y0260992D01*
X0010630Y0261000D01*
X0010483Y0261012D01*
X0010336Y0261028D01*
X0010189Y0261048D01*
X0010043Y0261072D01*
X0009897Y0261099D01*
X0009753Y0261131D01*
X0009609Y0261166D01*
X0009466Y0261206D01*
X0009325Y0261249D01*
X0009184Y0261296D01*
X0009045Y0261346D01*
X0008908Y0261401D01*
X0008772Y0261459D01*
X0008637Y0261520D01*
X0008504Y0261585D01*
X0008373Y0261654D01*
X0008244Y0261726D01*
X0008117Y0261802D01*
X0007992Y0261881D01*
X0007869Y0261964D01*
X0007748Y0262049D01*
X0007630Y0262138D01*
X0007514Y0262230D01*
X0007401Y0262326D01*
X0007290Y0262424D01*
X0007182Y0262525D01*
X0007076Y0262629D01*
X0006974Y0262735D01*
X0006874Y0262845D01*
X0006778Y0262957D01*
X0006684Y0263072D01*
X0006593Y0263189D01*
X0006506Y0263308D01*
X0006422Y0263430D01*
X0006341Y0263554D01*
X0006264Y0263680D01*
X0006190Y0263808D01*
X0006119Y0263938D01*
X0006052Y0264070D01*
X0005989Y0264204D01*
X0005929Y0264339D01*
X0005873Y0264476D01*
X0005820Y0264615D01*
X0005772Y0264755D01*
X0005727Y0264896D01*
X0005686Y0265038D01*
X0005648Y0265181D01*
X0005615Y0265325D01*
X0005585Y0265470D01*
X0005559Y0265616D01*
X0005538Y0265762D01*
X0005520Y0265909D01*
X0005506Y0266056D01*
X0005496Y0266204D01*
X0005490Y0266352D01*
X0005488Y0266500D01*
X0187750Y0171500D02*
X0187752Y0171613D01*
X0187758Y0171727D01*
X0187768Y0171840D01*
X0187782Y0171952D01*
X0187799Y0172064D01*
X0187821Y0172176D01*
X0187847Y0172286D01*
X0187876Y0172396D01*
X0187909Y0172504D01*
X0187946Y0172612D01*
X0187987Y0172717D01*
X0188031Y0172822D01*
X0188079Y0172925D01*
X0188130Y0173026D01*
X0188185Y0173125D01*
X0188244Y0173222D01*
X0188306Y0173317D01*
X0188371Y0173410D01*
X0188439Y0173501D01*
X0188510Y0173589D01*
X0188585Y0173675D01*
X0188662Y0173758D01*
X0188742Y0173838D01*
X0188825Y0173915D01*
X0188911Y0173990D01*
X0188999Y0174061D01*
X0189090Y0174129D01*
X0189183Y0174194D01*
X0189278Y0174256D01*
X0189375Y0174315D01*
X0189474Y0174370D01*
X0189575Y0174421D01*
X0189678Y0174469D01*
X0189783Y0174513D01*
X0189888Y0174554D01*
X0189996Y0174591D01*
X0190104Y0174624D01*
X0190214Y0174653D01*
X0190324Y0174679D01*
X0190436Y0174701D01*
X0190548Y0174718D01*
X0190660Y0174732D01*
X0190773Y0174742D01*
X0190887Y0174748D01*
X0191000Y0174750D01*
X0191113Y0174748D01*
X0191227Y0174742D01*
X0191340Y0174732D01*
X0191452Y0174718D01*
X0191564Y0174701D01*
X0191676Y0174679D01*
X0191786Y0174653D01*
X0191896Y0174624D01*
X0192004Y0174591D01*
X0192112Y0174554D01*
X0192217Y0174513D01*
X0192322Y0174469D01*
X0192425Y0174421D01*
X0192526Y0174370D01*
X0192625Y0174315D01*
X0192722Y0174256D01*
X0192817Y0174194D01*
X0192910Y0174129D01*
X0193001Y0174061D01*
X0193089Y0173990D01*
X0193175Y0173915D01*
X0193258Y0173838D01*
X0193338Y0173758D01*
X0193415Y0173675D01*
X0193490Y0173589D01*
X0193561Y0173501D01*
X0193629Y0173410D01*
X0193694Y0173317D01*
X0193756Y0173222D01*
X0193815Y0173125D01*
X0193870Y0173026D01*
X0193921Y0172925D01*
X0193969Y0172822D01*
X0194013Y0172717D01*
X0194054Y0172612D01*
X0194091Y0172504D01*
X0194124Y0172396D01*
X0194153Y0172286D01*
X0194179Y0172176D01*
X0194201Y0172064D01*
X0194218Y0171952D01*
X0194232Y0171840D01*
X0194242Y0171727D01*
X0194248Y0171613D01*
X0194250Y0171500D01*
X0194248Y0171387D01*
X0194242Y0171273D01*
X0194232Y0171160D01*
X0194218Y0171048D01*
X0194201Y0170936D01*
X0194179Y0170824D01*
X0194153Y0170714D01*
X0194124Y0170604D01*
X0194091Y0170496D01*
X0194054Y0170388D01*
X0194013Y0170283D01*
X0193969Y0170178D01*
X0193921Y0170075D01*
X0193870Y0169974D01*
X0193815Y0169875D01*
X0193756Y0169778D01*
X0193694Y0169683D01*
X0193629Y0169590D01*
X0193561Y0169499D01*
X0193490Y0169411D01*
X0193415Y0169325D01*
X0193338Y0169242D01*
X0193258Y0169162D01*
X0193175Y0169085D01*
X0193089Y0169010D01*
X0193001Y0168939D01*
X0192910Y0168871D01*
X0192817Y0168806D01*
X0192722Y0168744D01*
X0192625Y0168685D01*
X0192526Y0168630D01*
X0192425Y0168579D01*
X0192322Y0168531D01*
X0192217Y0168487D01*
X0192112Y0168446D01*
X0192004Y0168409D01*
X0191896Y0168376D01*
X0191786Y0168347D01*
X0191676Y0168321D01*
X0191564Y0168299D01*
X0191452Y0168282D01*
X0191340Y0168268D01*
X0191227Y0168258D01*
X0191113Y0168252D01*
X0191000Y0168250D01*
X0190887Y0168252D01*
X0190773Y0168258D01*
X0190660Y0168268D01*
X0190548Y0168282D01*
X0190436Y0168299D01*
X0190324Y0168321D01*
X0190214Y0168347D01*
X0190104Y0168376D01*
X0189996Y0168409D01*
X0189888Y0168446D01*
X0189783Y0168487D01*
X0189678Y0168531D01*
X0189575Y0168579D01*
X0189474Y0168630D01*
X0189375Y0168685D01*
X0189278Y0168744D01*
X0189183Y0168806D01*
X0189090Y0168871D01*
X0188999Y0168939D01*
X0188911Y0169010D01*
X0188825Y0169085D01*
X0188742Y0169162D01*
X0188662Y0169242D01*
X0188585Y0169325D01*
X0188510Y0169411D01*
X0188439Y0169499D01*
X0188371Y0169590D01*
X0188306Y0169683D01*
X0188244Y0169778D01*
X0188185Y0169875D01*
X0188130Y0169974D01*
X0188079Y0170075D01*
X0188031Y0170178D01*
X0187987Y0170283D01*
X0187946Y0170388D01*
X0187909Y0170496D01*
X0187876Y0170604D01*
X0187847Y0170714D01*
X0187821Y0170824D01*
X0187799Y0170936D01*
X0187782Y0171048D01*
X0187768Y0171160D01*
X0187758Y0171273D01*
X0187752Y0171387D01*
X0187750Y0171500D01*
X0187750Y0111500D02*
X0187752Y0111613D01*
X0187758Y0111727D01*
X0187768Y0111840D01*
X0187782Y0111952D01*
X0187799Y0112064D01*
X0187821Y0112176D01*
X0187847Y0112286D01*
X0187876Y0112396D01*
X0187909Y0112504D01*
X0187946Y0112612D01*
X0187987Y0112717D01*
X0188031Y0112822D01*
X0188079Y0112925D01*
X0188130Y0113026D01*
X0188185Y0113125D01*
X0188244Y0113222D01*
X0188306Y0113317D01*
X0188371Y0113410D01*
X0188439Y0113501D01*
X0188510Y0113589D01*
X0188585Y0113675D01*
X0188662Y0113758D01*
X0188742Y0113838D01*
X0188825Y0113915D01*
X0188911Y0113990D01*
X0188999Y0114061D01*
X0189090Y0114129D01*
X0189183Y0114194D01*
X0189278Y0114256D01*
X0189375Y0114315D01*
X0189474Y0114370D01*
X0189575Y0114421D01*
X0189678Y0114469D01*
X0189783Y0114513D01*
X0189888Y0114554D01*
X0189996Y0114591D01*
X0190104Y0114624D01*
X0190214Y0114653D01*
X0190324Y0114679D01*
X0190436Y0114701D01*
X0190548Y0114718D01*
X0190660Y0114732D01*
X0190773Y0114742D01*
X0190887Y0114748D01*
X0191000Y0114750D01*
X0191113Y0114748D01*
X0191227Y0114742D01*
X0191340Y0114732D01*
X0191452Y0114718D01*
X0191564Y0114701D01*
X0191676Y0114679D01*
X0191786Y0114653D01*
X0191896Y0114624D01*
X0192004Y0114591D01*
X0192112Y0114554D01*
X0192217Y0114513D01*
X0192322Y0114469D01*
X0192425Y0114421D01*
X0192526Y0114370D01*
X0192625Y0114315D01*
X0192722Y0114256D01*
X0192817Y0114194D01*
X0192910Y0114129D01*
X0193001Y0114061D01*
X0193089Y0113990D01*
X0193175Y0113915D01*
X0193258Y0113838D01*
X0193338Y0113758D01*
X0193415Y0113675D01*
X0193490Y0113589D01*
X0193561Y0113501D01*
X0193629Y0113410D01*
X0193694Y0113317D01*
X0193756Y0113222D01*
X0193815Y0113125D01*
X0193870Y0113026D01*
X0193921Y0112925D01*
X0193969Y0112822D01*
X0194013Y0112717D01*
X0194054Y0112612D01*
X0194091Y0112504D01*
X0194124Y0112396D01*
X0194153Y0112286D01*
X0194179Y0112176D01*
X0194201Y0112064D01*
X0194218Y0111952D01*
X0194232Y0111840D01*
X0194242Y0111727D01*
X0194248Y0111613D01*
X0194250Y0111500D01*
X0194248Y0111387D01*
X0194242Y0111273D01*
X0194232Y0111160D01*
X0194218Y0111048D01*
X0194201Y0110936D01*
X0194179Y0110824D01*
X0194153Y0110714D01*
X0194124Y0110604D01*
X0194091Y0110496D01*
X0194054Y0110388D01*
X0194013Y0110283D01*
X0193969Y0110178D01*
X0193921Y0110075D01*
X0193870Y0109974D01*
X0193815Y0109875D01*
X0193756Y0109778D01*
X0193694Y0109683D01*
X0193629Y0109590D01*
X0193561Y0109499D01*
X0193490Y0109411D01*
X0193415Y0109325D01*
X0193338Y0109242D01*
X0193258Y0109162D01*
X0193175Y0109085D01*
X0193089Y0109010D01*
X0193001Y0108939D01*
X0192910Y0108871D01*
X0192817Y0108806D01*
X0192722Y0108744D01*
X0192625Y0108685D01*
X0192526Y0108630D01*
X0192425Y0108579D01*
X0192322Y0108531D01*
X0192217Y0108487D01*
X0192112Y0108446D01*
X0192004Y0108409D01*
X0191896Y0108376D01*
X0191786Y0108347D01*
X0191676Y0108321D01*
X0191564Y0108299D01*
X0191452Y0108282D01*
X0191340Y0108268D01*
X0191227Y0108258D01*
X0191113Y0108252D01*
X0191000Y0108250D01*
X0190887Y0108252D01*
X0190773Y0108258D01*
X0190660Y0108268D01*
X0190548Y0108282D01*
X0190436Y0108299D01*
X0190324Y0108321D01*
X0190214Y0108347D01*
X0190104Y0108376D01*
X0189996Y0108409D01*
X0189888Y0108446D01*
X0189783Y0108487D01*
X0189678Y0108531D01*
X0189575Y0108579D01*
X0189474Y0108630D01*
X0189375Y0108685D01*
X0189278Y0108744D01*
X0189183Y0108806D01*
X0189090Y0108871D01*
X0188999Y0108939D01*
X0188911Y0109010D01*
X0188825Y0109085D01*
X0188742Y0109162D01*
X0188662Y0109242D01*
X0188585Y0109325D01*
X0188510Y0109411D01*
X0188439Y0109499D01*
X0188371Y0109590D01*
X0188306Y0109683D01*
X0188244Y0109778D01*
X0188185Y0109875D01*
X0188130Y0109974D01*
X0188079Y0110075D01*
X0188031Y0110178D01*
X0187987Y0110283D01*
X0187946Y0110388D01*
X0187909Y0110496D01*
X0187876Y0110604D01*
X0187847Y0110714D01*
X0187821Y0110824D01*
X0187799Y0110936D01*
X0187782Y0111048D01*
X0187768Y0111160D01*
X0187758Y0111273D01*
X0187752Y0111387D01*
X0187750Y0111500D01*
X0257457Y0122012D02*
X0257459Y0122130D01*
X0257465Y0122249D01*
X0257475Y0122367D01*
X0257489Y0122484D01*
X0257506Y0122601D01*
X0257528Y0122718D01*
X0257554Y0122833D01*
X0257583Y0122948D01*
X0257616Y0123062D01*
X0257653Y0123174D01*
X0257694Y0123285D01*
X0257738Y0123395D01*
X0257786Y0123503D01*
X0257838Y0123610D01*
X0257893Y0123715D01*
X0257952Y0123818D01*
X0258014Y0123918D01*
X0258079Y0124017D01*
X0258148Y0124114D01*
X0258219Y0124208D01*
X0258294Y0124299D01*
X0258372Y0124389D01*
X0258453Y0124475D01*
X0258537Y0124559D01*
X0258623Y0124640D01*
X0258713Y0124718D01*
X0258804Y0124793D01*
X0258898Y0124864D01*
X0258995Y0124933D01*
X0259094Y0124998D01*
X0259194Y0125060D01*
X0259297Y0125119D01*
X0259402Y0125174D01*
X0259509Y0125226D01*
X0259617Y0125274D01*
X0259727Y0125318D01*
X0259838Y0125359D01*
X0259950Y0125396D01*
X0260064Y0125429D01*
X0260179Y0125458D01*
X0260294Y0125484D01*
X0260411Y0125506D01*
X0260528Y0125523D01*
X0260645Y0125537D01*
X0260763Y0125547D01*
X0260882Y0125553D01*
X0261000Y0125555D01*
X0261118Y0125553D01*
X0261237Y0125547D01*
X0261355Y0125537D01*
X0261472Y0125523D01*
X0261589Y0125506D01*
X0261706Y0125484D01*
X0261821Y0125458D01*
X0261936Y0125429D01*
X0262050Y0125396D01*
X0262162Y0125359D01*
X0262273Y0125318D01*
X0262383Y0125274D01*
X0262491Y0125226D01*
X0262598Y0125174D01*
X0262703Y0125119D01*
X0262806Y0125060D01*
X0262906Y0124998D01*
X0263005Y0124933D01*
X0263102Y0124864D01*
X0263196Y0124793D01*
X0263287Y0124718D01*
X0263377Y0124640D01*
X0263463Y0124559D01*
X0263547Y0124475D01*
X0263628Y0124389D01*
X0263706Y0124299D01*
X0263781Y0124208D01*
X0263852Y0124114D01*
X0263921Y0124017D01*
X0263986Y0123918D01*
X0264048Y0123818D01*
X0264107Y0123715D01*
X0264162Y0123610D01*
X0264214Y0123503D01*
X0264262Y0123395D01*
X0264306Y0123285D01*
X0264347Y0123174D01*
X0264384Y0123062D01*
X0264417Y0122948D01*
X0264446Y0122833D01*
X0264472Y0122718D01*
X0264494Y0122601D01*
X0264511Y0122484D01*
X0264525Y0122367D01*
X0264535Y0122249D01*
X0264541Y0122130D01*
X0264543Y0122012D01*
X0264541Y0121894D01*
X0264535Y0121775D01*
X0264525Y0121657D01*
X0264511Y0121540D01*
X0264494Y0121423D01*
X0264472Y0121306D01*
X0264446Y0121191D01*
X0264417Y0121076D01*
X0264384Y0120962D01*
X0264347Y0120850D01*
X0264306Y0120739D01*
X0264262Y0120629D01*
X0264214Y0120521D01*
X0264162Y0120414D01*
X0264107Y0120309D01*
X0264048Y0120206D01*
X0263986Y0120106D01*
X0263921Y0120007D01*
X0263852Y0119910D01*
X0263781Y0119816D01*
X0263706Y0119725D01*
X0263628Y0119635D01*
X0263547Y0119549D01*
X0263463Y0119465D01*
X0263377Y0119384D01*
X0263287Y0119306D01*
X0263196Y0119231D01*
X0263102Y0119160D01*
X0263005Y0119091D01*
X0262906Y0119026D01*
X0262806Y0118964D01*
X0262703Y0118905D01*
X0262598Y0118850D01*
X0262491Y0118798D01*
X0262383Y0118750D01*
X0262273Y0118706D01*
X0262162Y0118665D01*
X0262050Y0118628D01*
X0261936Y0118595D01*
X0261821Y0118566D01*
X0261706Y0118540D01*
X0261589Y0118518D01*
X0261472Y0118501D01*
X0261355Y0118487D01*
X0261237Y0118477D01*
X0261118Y0118471D01*
X0261000Y0118469D01*
X0260882Y0118471D01*
X0260763Y0118477D01*
X0260645Y0118487D01*
X0260528Y0118501D01*
X0260411Y0118518D01*
X0260294Y0118540D01*
X0260179Y0118566D01*
X0260064Y0118595D01*
X0259950Y0118628D01*
X0259838Y0118665D01*
X0259727Y0118706D01*
X0259617Y0118750D01*
X0259509Y0118798D01*
X0259402Y0118850D01*
X0259297Y0118905D01*
X0259194Y0118964D01*
X0259094Y0119026D01*
X0258995Y0119091D01*
X0258898Y0119160D01*
X0258804Y0119231D01*
X0258713Y0119306D01*
X0258623Y0119384D01*
X0258537Y0119465D01*
X0258453Y0119549D01*
X0258372Y0119635D01*
X0258294Y0119725D01*
X0258219Y0119816D01*
X0258148Y0119910D01*
X0258079Y0120007D01*
X0258014Y0120106D01*
X0257952Y0120206D01*
X0257893Y0120309D01*
X0257838Y0120414D01*
X0257786Y0120521D01*
X0257738Y0120629D01*
X0257694Y0120739D01*
X0257653Y0120850D01*
X0257616Y0120962D01*
X0257583Y0121076D01*
X0257554Y0121191D01*
X0257528Y0121306D01*
X0257506Y0121423D01*
X0257489Y0121540D01*
X0257475Y0121657D01*
X0257465Y0121775D01*
X0257459Y0121894D01*
X0257457Y0122012D01*
X0255488Y0011500D02*
X0255490Y0011648D01*
X0255496Y0011796D01*
X0255506Y0011944D01*
X0255520Y0012091D01*
X0255538Y0012238D01*
X0255559Y0012384D01*
X0255585Y0012530D01*
X0255615Y0012675D01*
X0255648Y0012819D01*
X0255686Y0012962D01*
X0255727Y0013104D01*
X0255772Y0013245D01*
X0255820Y0013385D01*
X0255873Y0013524D01*
X0255929Y0013661D01*
X0255989Y0013796D01*
X0256052Y0013930D01*
X0256119Y0014062D01*
X0256190Y0014192D01*
X0256264Y0014320D01*
X0256341Y0014446D01*
X0256422Y0014570D01*
X0256506Y0014692D01*
X0256593Y0014811D01*
X0256684Y0014928D01*
X0256778Y0015043D01*
X0256874Y0015155D01*
X0256974Y0015265D01*
X0257076Y0015371D01*
X0257182Y0015475D01*
X0257290Y0015576D01*
X0257401Y0015674D01*
X0257514Y0015770D01*
X0257630Y0015862D01*
X0257748Y0015951D01*
X0257869Y0016036D01*
X0257992Y0016119D01*
X0258117Y0016198D01*
X0258244Y0016274D01*
X0258373Y0016346D01*
X0258504Y0016415D01*
X0258637Y0016480D01*
X0258772Y0016541D01*
X0258908Y0016599D01*
X0259045Y0016654D01*
X0259184Y0016704D01*
X0259325Y0016751D01*
X0259466Y0016794D01*
X0259609Y0016834D01*
X0259753Y0016869D01*
X0259897Y0016901D01*
X0260043Y0016928D01*
X0260189Y0016952D01*
X0260336Y0016972D01*
X0260483Y0016988D01*
X0260630Y0017000D01*
X0260778Y0017008D01*
X0260926Y0017012D01*
X0261074Y0017012D01*
X0261222Y0017008D01*
X0261370Y0017000D01*
X0261517Y0016988D01*
X0261664Y0016972D01*
X0261811Y0016952D01*
X0261957Y0016928D01*
X0262103Y0016901D01*
X0262247Y0016869D01*
X0262391Y0016834D01*
X0262534Y0016794D01*
X0262675Y0016751D01*
X0262816Y0016704D01*
X0262955Y0016654D01*
X0263092Y0016599D01*
X0263228Y0016541D01*
X0263363Y0016480D01*
X0263496Y0016415D01*
X0263627Y0016346D01*
X0263756Y0016274D01*
X0263883Y0016198D01*
X0264008Y0016119D01*
X0264131Y0016036D01*
X0264252Y0015951D01*
X0264370Y0015862D01*
X0264486Y0015770D01*
X0264599Y0015674D01*
X0264710Y0015576D01*
X0264818Y0015475D01*
X0264924Y0015371D01*
X0265026Y0015265D01*
X0265126Y0015155D01*
X0265222Y0015043D01*
X0265316Y0014928D01*
X0265407Y0014811D01*
X0265494Y0014692D01*
X0265578Y0014570D01*
X0265659Y0014446D01*
X0265736Y0014320D01*
X0265810Y0014192D01*
X0265881Y0014062D01*
X0265948Y0013930D01*
X0266011Y0013796D01*
X0266071Y0013661D01*
X0266127Y0013524D01*
X0266180Y0013385D01*
X0266228Y0013245D01*
X0266273Y0013104D01*
X0266314Y0012962D01*
X0266352Y0012819D01*
X0266385Y0012675D01*
X0266415Y0012530D01*
X0266441Y0012384D01*
X0266462Y0012238D01*
X0266480Y0012091D01*
X0266494Y0011944D01*
X0266504Y0011796D01*
X0266510Y0011648D01*
X0266512Y0011500D01*
X0266510Y0011352D01*
X0266504Y0011204D01*
X0266494Y0011056D01*
X0266480Y0010909D01*
X0266462Y0010762D01*
X0266441Y0010616D01*
X0266415Y0010470D01*
X0266385Y0010325D01*
X0266352Y0010181D01*
X0266314Y0010038D01*
X0266273Y0009896D01*
X0266228Y0009755D01*
X0266180Y0009615D01*
X0266127Y0009476D01*
X0266071Y0009339D01*
X0266011Y0009204D01*
X0265948Y0009070D01*
X0265881Y0008938D01*
X0265810Y0008808D01*
X0265736Y0008680D01*
X0265659Y0008554D01*
X0265578Y0008430D01*
X0265494Y0008308D01*
X0265407Y0008189D01*
X0265316Y0008072D01*
X0265222Y0007957D01*
X0265126Y0007845D01*
X0265026Y0007735D01*
X0264924Y0007629D01*
X0264818Y0007525D01*
X0264710Y0007424D01*
X0264599Y0007326D01*
X0264486Y0007230D01*
X0264370Y0007138D01*
X0264252Y0007049D01*
X0264131Y0006964D01*
X0264008Y0006881D01*
X0263883Y0006802D01*
X0263756Y0006726D01*
X0263627Y0006654D01*
X0263496Y0006585D01*
X0263363Y0006520D01*
X0263228Y0006459D01*
X0263092Y0006401D01*
X0262955Y0006346D01*
X0262816Y0006296D01*
X0262675Y0006249D01*
X0262534Y0006206D01*
X0262391Y0006166D01*
X0262247Y0006131D01*
X0262103Y0006099D01*
X0261957Y0006072D01*
X0261811Y0006048D01*
X0261664Y0006028D01*
X0261517Y0006012D01*
X0261370Y0006000D01*
X0261222Y0005992D01*
X0261074Y0005988D01*
X0260926Y0005988D01*
X0260778Y0005992D01*
X0260630Y0006000D01*
X0260483Y0006012D01*
X0260336Y0006028D01*
X0260189Y0006048D01*
X0260043Y0006072D01*
X0259897Y0006099D01*
X0259753Y0006131D01*
X0259609Y0006166D01*
X0259466Y0006206D01*
X0259325Y0006249D01*
X0259184Y0006296D01*
X0259045Y0006346D01*
X0258908Y0006401D01*
X0258772Y0006459D01*
X0258637Y0006520D01*
X0258504Y0006585D01*
X0258373Y0006654D01*
X0258244Y0006726D01*
X0258117Y0006802D01*
X0257992Y0006881D01*
X0257869Y0006964D01*
X0257748Y0007049D01*
X0257630Y0007138D01*
X0257514Y0007230D01*
X0257401Y0007326D01*
X0257290Y0007424D01*
X0257182Y0007525D01*
X0257076Y0007629D01*
X0256974Y0007735D01*
X0256874Y0007845D01*
X0256778Y0007957D01*
X0256684Y0008072D01*
X0256593Y0008189D01*
X0256506Y0008308D01*
X0256422Y0008430D01*
X0256341Y0008554D01*
X0256264Y0008680D01*
X0256190Y0008808D01*
X0256119Y0008938D01*
X0256052Y0009070D01*
X0255989Y0009204D01*
X0255929Y0009339D01*
X0255873Y0009476D01*
X0255820Y0009615D01*
X0255772Y0009755D01*
X0255727Y0009896D01*
X0255686Y0010038D01*
X0255648Y0010181D01*
X0255615Y0010325D01*
X0255585Y0010470D01*
X0255559Y0010616D01*
X0255538Y0010762D01*
X0255520Y0010909D01*
X0255506Y0011056D01*
X0255496Y0011204D01*
X0255490Y0011352D01*
X0255488Y0011500D01*
X0257457Y0010988D02*
X0257459Y0011106D01*
X0257465Y0011225D01*
X0257475Y0011343D01*
X0257489Y0011460D01*
X0257506Y0011577D01*
X0257528Y0011694D01*
X0257554Y0011809D01*
X0257583Y0011924D01*
X0257616Y0012038D01*
X0257653Y0012150D01*
X0257694Y0012261D01*
X0257738Y0012371D01*
X0257786Y0012479D01*
X0257838Y0012586D01*
X0257893Y0012691D01*
X0257952Y0012794D01*
X0258014Y0012894D01*
X0258079Y0012993D01*
X0258148Y0013090D01*
X0258219Y0013184D01*
X0258294Y0013275D01*
X0258372Y0013365D01*
X0258453Y0013451D01*
X0258537Y0013535D01*
X0258623Y0013616D01*
X0258713Y0013694D01*
X0258804Y0013769D01*
X0258898Y0013840D01*
X0258995Y0013909D01*
X0259094Y0013974D01*
X0259194Y0014036D01*
X0259297Y0014095D01*
X0259402Y0014150D01*
X0259509Y0014202D01*
X0259617Y0014250D01*
X0259727Y0014294D01*
X0259838Y0014335D01*
X0259950Y0014372D01*
X0260064Y0014405D01*
X0260179Y0014434D01*
X0260294Y0014460D01*
X0260411Y0014482D01*
X0260528Y0014499D01*
X0260645Y0014513D01*
X0260763Y0014523D01*
X0260882Y0014529D01*
X0261000Y0014531D01*
X0261118Y0014529D01*
X0261237Y0014523D01*
X0261355Y0014513D01*
X0261472Y0014499D01*
X0261589Y0014482D01*
X0261706Y0014460D01*
X0261821Y0014434D01*
X0261936Y0014405D01*
X0262050Y0014372D01*
X0262162Y0014335D01*
X0262273Y0014294D01*
X0262383Y0014250D01*
X0262491Y0014202D01*
X0262598Y0014150D01*
X0262703Y0014095D01*
X0262806Y0014036D01*
X0262906Y0013974D01*
X0263005Y0013909D01*
X0263102Y0013840D01*
X0263196Y0013769D01*
X0263287Y0013694D01*
X0263377Y0013616D01*
X0263463Y0013535D01*
X0263547Y0013451D01*
X0263628Y0013365D01*
X0263706Y0013275D01*
X0263781Y0013184D01*
X0263852Y0013090D01*
X0263921Y0012993D01*
X0263986Y0012894D01*
X0264048Y0012794D01*
X0264107Y0012691D01*
X0264162Y0012586D01*
X0264214Y0012479D01*
X0264262Y0012371D01*
X0264306Y0012261D01*
X0264347Y0012150D01*
X0264384Y0012038D01*
X0264417Y0011924D01*
X0264446Y0011809D01*
X0264472Y0011694D01*
X0264494Y0011577D01*
X0264511Y0011460D01*
X0264525Y0011343D01*
X0264535Y0011225D01*
X0264541Y0011106D01*
X0264543Y0010988D01*
X0264541Y0010870D01*
X0264535Y0010751D01*
X0264525Y0010633D01*
X0264511Y0010516D01*
X0264494Y0010399D01*
X0264472Y0010282D01*
X0264446Y0010167D01*
X0264417Y0010052D01*
X0264384Y0009938D01*
X0264347Y0009826D01*
X0264306Y0009715D01*
X0264262Y0009605D01*
X0264214Y0009497D01*
X0264162Y0009390D01*
X0264107Y0009285D01*
X0264048Y0009182D01*
X0263986Y0009082D01*
X0263921Y0008983D01*
X0263852Y0008886D01*
X0263781Y0008792D01*
X0263706Y0008701D01*
X0263628Y0008611D01*
X0263547Y0008525D01*
X0263463Y0008441D01*
X0263377Y0008360D01*
X0263287Y0008282D01*
X0263196Y0008207D01*
X0263102Y0008136D01*
X0263005Y0008067D01*
X0262906Y0008002D01*
X0262806Y0007940D01*
X0262703Y0007881D01*
X0262598Y0007826D01*
X0262491Y0007774D01*
X0262383Y0007726D01*
X0262273Y0007682D01*
X0262162Y0007641D01*
X0262050Y0007604D01*
X0261936Y0007571D01*
X0261821Y0007542D01*
X0261706Y0007516D01*
X0261589Y0007494D01*
X0261472Y0007477D01*
X0261355Y0007463D01*
X0261237Y0007453D01*
X0261118Y0007447D01*
X0261000Y0007445D01*
X0260882Y0007447D01*
X0260763Y0007453D01*
X0260645Y0007463D01*
X0260528Y0007477D01*
X0260411Y0007494D01*
X0260294Y0007516D01*
X0260179Y0007542D01*
X0260064Y0007571D01*
X0259950Y0007604D01*
X0259838Y0007641D01*
X0259727Y0007682D01*
X0259617Y0007726D01*
X0259509Y0007774D01*
X0259402Y0007826D01*
X0259297Y0007881D01*
X0259194Y0007940D01*
X0259094Y0008002D01*
X0258995Y0008067D01*
X0258898Y0008136D01*
X0258804Y0008207D01*
X0258713Y0008282D01*
X0258623Y0008360D01*
X0258537Y0008441D01*
X0258453Y0008525D01*
X0258372Y0008611D01*
X0258294Y0008701D01*
X0258219Y0008792D01*
X0258148Y0008886D01*
X0258079Y0008983D01*
X0258014Y0009082D01*
X0257952Y0009182D01*
X0257893Y0009285D01*
X0257838Y0009390D01*
X0257786Y0009497D01*
X0257738Y0009605D01*
X0257694Y0009715D01*
X0257653Y0009826D01*
X0257616Y0009938D01*
X0257583Y0010052D01*
X0257554Y0010167D01*
X0257528Y0010282D01*
X0257506Y0010399D01*
X0257489Y0010516D01*
X0257475Y0010633D01*
X0257465Y0010751D01*
X0257459Y0010870D01*
X0257457Y0010988D01*
X0255488Y0266500D02*
X0255490Y0266648D01*
X0255496Y0266796D01*
X0255506Y0266944D01*
X0255520Y0267091D01*
X0255538Y0267238D01*
X0255559Y0267384D01*
X0255585Y0267530D01*
X0255615Y0267675D01*
X0255648Y0267819D01*
X0255686Y0267962D01*
X0255727Y0268104D01*
X0255772Y0268245D01*
X0255820Y0268385D01*
X0255873Y0268524D01*
X0255929Y0268661D01*
X0255989Y0268796D01*
X0256052Y0268930D01*
X0256119Y0269062D01*
X0256190Y0269192D01*
X0256264Y0269320D01*
X0256341Y0269446D01*
X0256422Y0269570D01*
X0256506Y0269692D01*
X0256593Y0269811D01*
X0256684Y0269928D01*
X0256778Y0270043D01*
X0256874Y0270155D01*
X0256974Y0270265D01*
X0257076Y0270371D01*
X0257182Y0270475D01*
X0257290Y0270576D01*
X0257401Y0270674D01*
X0257514Y0270770D01*
X0257630Y0270862D01*
X0257748Y0270951D01*
X0257869Y0271036D01*
X0257992Y0271119D01*
X0258117Y0271198D01*
X0258244Y0271274D01*
X0258373Y0271346D01*
X0258504Y0271415D01*
X0258637Y0271480D01*
X0258772Y0271541D01*
X0258908Y0271599D01*
X0259045Y0271654D01*
X0259184Y0271704D01*
X0259325Y0271751D01*
X0259466Y0271794D01*
X0259609Y0271834D01*
X0259753Y0271869D01*
X0259897Y0271901D01*
X0260043Y0271928D01*
X0260189Y0271952D01*
X0260336Y0271972D01*
X0260483Y0271988D01*
X0260630Y0272000D01*
X0260778Y0272008D01*
X0260926Y0272012D01*
X0261074Y0272012D01*
X0261222Y0272008D01*
X0261370Y0272000D01*
X0261517Y0271988D01*
X0261664Y0271972D01*
X0261811Y0271952D01*
X0261957Y0271928D01*
X0262103Y0271901D01*
X0262247Y0271869D01*
X0262391Y0271834D01*
X0262534Y0271794D01*
X0262675Y0271751D01*
X0262816Y0271704D01*
X0262955Y0271654D01*
X0263092Y0271599D01*
X0263228Y0271541D01*
X0263363Y0271480D01*
X0263496Y0271415D01*
X0263627Y0271346D01*
X0263756Y0271274D01*
X0263883Y0271198D01*
X0264008Y0271119D01*
X0264131Y0271036D01*
X0264252Y0270951D01*
X0264370Y0270862D01*
X0264486Y0270770D01*
X0264599Y0270674D01*
X0264710Y0270576D01*
X0264818Y0270475D01*
X0264924Y0270371D01*
X0265026Y0270265D01*
X0265126Y0270155D01*
X0265222Y0270043D01*
X0265316Y0269928D01*
X0265407Y0269811D01*
X0265494Y0269692D01*
X0265578Y0269570D01*
X0265659Y0269446D01*
X0265736Y0269320D01*
X0265810Y0269192D01*
X0265881Y0269062D01*
X0265948Y0268930D01*
X0266011Y0268796D01*
X0266071Y0268661D01*
X0266127Y0268524D01*
X0266180Y0268385D01*
X0266228Y0268245D01*
X0266273Y0268104D01*
X0266314Y0267962D01*
X0266352Y0267819D01*
X0266385Y0267675D01*
X0266415Y0267530D01*
X0266441Y0267384D01*
X0266462Y0267238D01*
X0266480Y0267091D01*
X0266494Y0266944D01*
X0266504Y0266796D01*
X0266510Y0266648D01*
X0266512Y0266500D01*
X0266510Y0266352D01*
X0266504Y0266204D01*
X0266494Y0266056D01*
X0266480Y0265909D01*
X0266462Y0265762D01*
X0266441Y0265616D01*
X0266415Y0265470D01*
X0266385Y0265325D01*
X0266352Y0265181D01*
X0266314Y0265038D01*
X0266273Y0264896D01*
X0266228Y0264755D01*
X0266180Y0264615D01*
X0266127Y0264476D01*
X0266071Y0264339D01*
X0266011Y0264204D01*
X0265948Y0264070D01*
X0265881Y0263938D01*
X0265810Y0263808D01*
X0265736Y0263680D01*
X0265659Y0263554D01*
X0265578Y0263430D01*
X0265494Y0263308D01*
X0265407Y0263189D01*
X0265316Y0263072D01*
X0265222Y0262957D01*
X0265126Y0262845D01*
X0265026Y0262735D01*
X0264924Y0262629D01*
X0264818Y0262525D01*
X0264710Y0262424D01*
X0264599Y0262326D01*
X0264486Y0262230D01*
X0264370Y0262138D01*
X0264252Y0262049D01*
X0264131Y0261964D01*
X0264008Y0261881D01*
X0263883Y0261802D01*
X0263756Y0261726D01*
X0263627Y0261654D01*
X0263496Y0261585D01*
X0263363Y0261520D01*
X0263228Y0261459D01*
X0263092Y0261401D01*
X0262955Y0261346D01*
X0262816Y0261296D01*
X0262675Y0261249D01*
X0262534Y0261206D01*
X0262391Y0261166D01*
X0262247Y0261131D01*
X0262103Y0261099D01*
X0261957Y0261072D01*
X0261811Y0261048D01*
X0261664Y0261028D01*
X0261517Y0261012D01*
X0261370Y0261000D01*
X0261222Y0260992D01*
X0261074Y0260988D01*
X0260926Y0260988D01*
X0260778Y0260992D01*
X0260630Y0261000D01*
X0260483Y0261012D01*
X0260336Y0261028D01*
X0260189Y0261048D01*
X0260043Y0261072D01*
X0259897Y0261099D01*
X0259753Y0261131D01*
X0259609Y0261166D01*
X0259466Y0261206D01*
X0259325Y0261249D01*
X0259184Y0261296D01*
X0259045Y0261346D01*
X0258908Y0261401D01*
X0258772Y0261459D01*
X0258637Y0261520D01*
X0258504Y0261585D01*
X0258373Y0261654D01*
X0258244Y0261726D01*
X0258117Y0261802D01*
X0257992Y0261881D01*
X0257869Y0261964D01*
X0257748Y0262049D01*
X0257630Y0262138D01*
X0257514Y0262230D01*
X0257401Y0262326D01*
X0257290Y0262424D01*
X0257182Y0262525D01*
X0257076Y0262629D01*
X0256974Y0262735D01*
X0256874Y0262845D01*
X0256778Y0262957D01*
X0256684Y0263072D01*
X0256593Y0263189D01*
X0256506Y0263308D01*
X0256422Y0263430D01*
X0256341Y0263554D01*
X0256264Y0263680D01*
X0256190Y0263808D01*
X0256119Y0263938D01*
X0256052Y0264070D01*
X0255989Y0264204D01*
X0255929Y0264339D01*
X0255873Y0264476D01*
X0255820Y0264615D01*
X0255772Y0264755D01*
X0255727Y0264896D01*
X0255686Y0265038D01*
X0255648Y0265181D01*
X0255615Y0265325D01*
X0255585Y0265470D01*
X0255559Y0265616D01*
X0255538Y0265762D01*
X0255520Y0265909D01*
X0255506Y0266056D01*
X0255496Y0266204D01*
X0255490Y0266352D01*
X0255488Y0266500D01*
D11*
X0192827Y0258353D02*
X0192827Y0255884D01*
X0191592Y0254650D01*
X0190358Y0255884D01*
X0190358Y0258353D01*
X0189143Y0257736D02*
X0189143Y0257119D01*
X0188526Y0256502D01*
X0189143Y0255884D01*
X0189143Y0255267D01*
X0188526Y0254650D01*
X0187292Y0254650D01*
X0186675Y0255267D01*
X0185450Y0255267D02*
X0185450Y0254650D01*
X0184833Y0254650D01*
X0184833Y0255267D01*
X0185450Y0255267D01*
X0183619Y0255267D02*
X0183002Y0254650D01*
X0181767Y0254650D01*
X0181150Y0255267D01*
X0182384Y0256502D02*
X0183002Y0256502D01*
X0183619Y0255884D01*
X0183619Y0255267D01*
X0183002Y0256502D02*
X0183619Y0257119D01*
X0183619Y0257736D01*
X0183002Y0258353D01*
X0181767Y0258353D01*
X0181150Y0257736D01*
X0186675Y0257736D02*
X0187292Y0258353D01*
X0188526Y0258353D01*
X0189143Y0257736D01*
X0188526Y0256502D02*
X0187909Y0256502D01*
X0188516Y0248353D02*
X0190985Y0244650D01*
X0190985Y0248353D01*
X0188516Y0248353D02*
X0188516Y0244650D01*
X0187302Y0245267D02*
X0186685Y0244650D01*
X0185450Y0244650D01*
X0184833Y0245267D01*
X0183619Y0245267D02*
X0183002Y0244650D01*
X0181767Y0244650D01*
X0181150Y0245267D01*
X0181150Y0247736D01*
X0181767Y0248353D01*
X0183002Y0248353D01*
X0183619Y0247736D01*
X0184833Y0247736D02*
X0184833Y0247119D01*
X0185450Y0246502D01*
X0186685Y0246502D01*
X0187302Y0245884D01*
X0187302Y0245267D01*
X0187302Y0247736D02*
X0186685Y0248353D01*
X0185450Y0248353D01*
X0184833Y0247736D01*
X0185450Y0238353D02*
X0184833Y0237736D01*
X0184833Y0235267D01*
X0185450Y0234650D01*
X0186685Y0234650D01*
X0187302Y0235267D01*
X0187302Y0237736D01*
X0186685Y0238353D01*
X0185450Y0238353D01*
X0183619Y0238353D02*
X0183619Y0234650D01*
X0181150Y0234650D02*
X0181150Y0238353D01*
X0182384Y0237119D01*
X0183619Y0238353D01*
X0188516Y0237736D02*
X0188516Y0237119D01*
X0189133Y0236502D01*
X0190368Y0236502D01*
X0190985Y0235884D01*
X0190985Y0235267D01*
X0190368Y0234650D01*
X0189133Y0234650D01*
X0188516Y0235267D01*
X0188516Y0237736D02*
X0189133Y0238353D01*
X0190368Y0238353D01*
X0190985Y0237736D01*
X0192199Y0238353D02*
X0193434Y0238353D01*
X0192817Y0238353D02*
X0192817Y0234650D01*
X0193434Y0234650D02*
X0192199Y0234650D01*
X0149936Y0234650D02*
X0148084Y0236502D01*
X0147467Y0235884D02*
X0149936Y0238353D01*
X0147467Y0238353D02*
X0147467Y0234650D01*
X0146252Y0235267D02*
X0145635Y0234650D01*
X0144401Y0234650D01*
X0143784Y0235267D01*
X0143784Y0237736D01*
X0144401Y0238353D01*
X0145635Y0238353D01*
X0146252Y0237736D01*
X0142569Y0237736D02*
X0141952Y0238353D01*
X0140718Y0238353D01*
X0140101Y0237736D01*
X0140101Y0237119D01*
X0140718Y0236502D01*
X0141952Y0236502D01*
X0142569Y0235884D01*
X0142569Y0235267D01*
X0141952Y0234650D01*
X0140718Y0234650D01*
X0140101Y0235267D01*
X0140114Y0228353D02*
X0140114Y0224650D01*
X0141328Y0224650D02*
X0142563Y0224650D01*
X0141945Y0224650D02*
X0141945Y0228353D01*
X0141328Y0228353D02*
X0142563Y0228353D01*
X0143784Y0227736D02*
X0143784Y0227119D01*
X0144401Y0226502D01*
X0145635Y0226502D01*
X0146252Y0225884D01*
X0146252Y0225267D01*
X0145635Y0224650D01*
X0144401Y0224650D01*
X0143784Y0225267D01*
X0143784Y0227736D02*
X0144401Y0228353D01*
X0145635Y0228353D01*
X0146252Y0227736D01*
X0147467Y0227736D02*
X0147467Y0225267D01*
X0148084Y0224650D01*
X0149318Y0224650D01*
X0149936Y0225267D01*
X0149936Y0227736D01*
X0149318Y0228353D01*
X0148084Y0228353D01*
X0147467Y0227736D01*
X0140114Y0228353D02*
X0138880Y0227119D01*
X0137645Y0228353D01*
X0137645Y0224650D01*
X0132850Y0231917D02*
X0129147Y0231917D01*
X0129147Y0233769D01*
X0129764Y0234386D01*
X0132233Y0234386D01*
X0132850Y0233769D01*
X0132850Y0231917D01*
X0132850Y0235601D02*
X0130381Y0235601D01*
X0129147Y0236835D01*
X0130381Y0238069D01*
X0132850Y0238069D01*
X0130998Y0238069D02*
X0130998Y0235601D01*
X0129147Y0239284D02*
X0129147Y0241752D01*
X0129147Y0240518D02*
X0132850Y0240518D01*
X0132850Y0242967D02*
X0130381Y0242967D01*
X0129147Y0244201D01*
X0130381Y0245436D01*
X0132850Y0245436D01*
X0130998Y0245436D02*
X0130998Y0242967D01*
X0122850Y0244201D02*
X0121616Y0245436D01*
X0119147Y0245436D01*
X0119147Y0242967D02*
X0121616Y0242967D01*
X0122850Y0244201D01*
X0122233Y0241752D02*
X0122850Y0241135D01*
X0122850Y0239901D01*
X0122233Y0239284D01*
X0122233Y0238059D02*
X0122850Y0238059D01*
X0122850Y0237442D01*
X0122233Y0237442D01*
X0122233Y0238059D01*
X0122233Y0236228D02*
X0122850Y0235611D01*
X0122850Y0234376D01*
X0122233Y0233759D01*
X0120998Y0234993D02*
X0120998Y0235611D01*
X0121616Y0236228D01*
X0122233Y0236228D01*
X0120998Y0235611D02*
X0120381Y0236228D01*
X0119764Y0236228D01*
X0119147Y0235611D01*
X0119147Y0234376D01*
X0119764Y0233759D01*
X0119764Y0239284D02*
X0119147Y0239901D01*
X0119147Y0241135D01*
X0119764Y0241752D01*
X0120381Y0241752D01*
X0120998Y0241135D01*
X0121616Y0241752D01*
X0122233Y0241752D01*
X0120998Y0241135D02*
X0120998Y0240518D01*
X0140101Y0255267D02*
X0140101Y0257736D01*
X0140718Y0258353D01*
X0141952Y0258353D01*
X0142569Y0257736D01*
X0142569Y0256502D02*
X0141335Y0256502D01*
X0142569Y0256502D02*
X0142569Y0255267D01*
X0141952Y0254650D01*
X0140718Y0254650D01*
X0140101Y0255267D01*
X0143784Y0254650D02*
X0143784Y0258353D01*
X0146252Y0254650D01*
X0146252Y0258353D01*
X0147467Y0258353D02*
X0149318Y0258353D01*
X0149936Y0257736D01*
X0149936Y0255267D01*
X0149318Y0254650D01*
X0147467Y0254650D01*
X0147467Y0258353D01*
X0147467Y0248353D02*
X0147467Y0244650D01*
X0149936Y0244650D01*
X0148701Y0246502D02*
X0147467Y0246502D01*
X0146252Y0247736D02*
X0145635Y0248353D01*
X0144401Y0248353D01*
X0143784Y0247736D01*
X0143784Y0245267D01*
X0144401Y0244650D01*
X0145635Y0244650D01*
X0146252Y0245267D01*
X0147467Y0248353D02*
X0149936Y0248353D01*
X0097850Y0244818D02*
X0097233Y0245436D01*
X0094764Y0245436D01*
X0094147Y0244818D01*
X0094147Y0242967D01*
X0097850Y0242967D01*
X0097850Y0244818D01*
X0097850Y0241752D02*
X0094147Y0241752D01*
X0094147Y0239284D02*
X0097850Y0241752D01*
X0097850Y0239284D02*
X0094147Y0239284D01*
X0094764Y0238069D02*
X0094147Y0237452D01*
X0094147Y0236218D01*
X0094764Y0235601D01*
X0097233Y0235601D01*
X0097850Y0236218D01*
X0097850Y0237452D01*
X0097233Y0238069D01*
X0095998Y0238069D01*
X0095998Y0236835D01*
X0087850Y0238063D02*
X0086616Y0239297D01*
X0084147Y0239297D01*
X0084147Y0240511D02*
X0084147Y0241746D01*
X0084147Y0241129D02*
X0087850Y0241129D01*
X0087850Y0241746D02*
X0087850Y0240511D01*
X0087850Y0238063D02*
X0086616Y0236828D01*
X0084147Y0236828D01*
X0084147Y0242967D02*
X0087850Y0245436D01*
X0084147Y0245436D01*
X0084147Y0242967D02*
X0087850Y0242967D01*
X0062850Y0244201D02*
X0061616Y0245436D01*
X0059147Y0245436D01*
X0059147Y0242967D02*
X0061616Y0242967D01*
X0062850Y0244201D01*
X0062233Y0241752D02*
X0061616Y0241752D01*
X0060998Y0241135D01*
X0060998Y0240518D01*
X0060998Y0241135D02*
X0060381Y0241752D01*
X0059764Y0241752D01*
X0059147Y0241135D01*
X0059147Y0239901D01*
X0059764Y0239284D01*
X0062233Y0239284D02*
X0062850Y0239901D01*
X0062850Y0241135D01*
X0062233Y0241752D01*
X0062233Y0238059D02*
X0062850Y0238059D01*
X0062850Y0237442D01*
X0062233Y0237442D01*
X0062233Y0238059D01*
X0062233Y0236228D02*
X0061616Y0236228D01*
X0060998Y0235611D01*
X0060998Y0234993D01*
X0060998Y0235611D02*
X0060381Y0236228D01*
X0059764Y0236228D01*
X0059147Y0235611D01*
X0059147Y0234376D01*
X0059764Y0233759D01*
X0062233Y0233759D02*
X0062850Y0234376D01*
X0062850Y0235611D01*
X0062233Y0236228D01*
X0052850Y0235601D02*
X0050381Y0235601D01*
X0049147Y0236835D01*
X0050381Y0238069D01*
X0052850Y0238069D01*
X0050998Y0238069D02*
X0050998Y0235601D01*
X0049764Y0234386D02*
X0049147Y0233769D01*
X0049147Y0231917D01*
X0052850Y0231917D01*
X0052850Y0233769D01*
X0052233Y0234386D01*
X0049764Y0234386D01*
X0049147Y0239284D02*
X0049147Y0241752D01*
X0049147Y0240518D02*
X0052850Y0240518D01*
X0052850Y0242967D02*
X0050381Y0242967D01*
X0049147Y0244201D01*
X0050381Y0245436D01*
X0052850Y0245436D01*
X0050998Y0245436D02*
X0050998Y0242967D01*
X0042850Y0242967D02*
X0042850Y0245436D01*
X0042850Y0242967D02*
X0039147Y0242967D01*
X0039147Y0239284D02*
X0042850Y0239284D01*
X0042850Y0241752D01*
X0042233Y0238069D02*
X0039147Y0238069D01*
X0039147Y0235601D02*
X0042233Y0235601D01*
X0042850Y0236218D01*
X0042850Y0237452D01*
X0042233Y0238069D01*
X0042850Y0234386D02*
X0039147Y0234386D01*
X0039147Y0231917D02*
X0042850Y0234386D01*
X0042850Y0231917D02*
X0039147Y0231917D01*
X0032850Y0236218D02*
X0032850Y0237452D01*
X0032233Y0238069D01*
X0030998Y0238069D01*
X0030998Y0236835D01*
X0029764Y0238069D02*
X0029147Y0237452D01*
X0029147Y0236218D01*
X0029764Y0235601D01*
X0032233Y0235601D01*
X0032850Y0236218D01*
X0032850Y0239284D02*
X0029147Y0239284D01*
X0032850Y0241752D01*
X0029147Y0241752D01*
X0029147Y0242967D02*
X0029147Y0244818D01*
X0029764Y0245436D01*
X0032233Y0245436D01*
X0032850Y0244818D01*
X0032850Y0242967D01*
X0029147Y0242967D01*
X0028002Y0218353D02*
X0026767Y0218353D01*
X0026150Y0217736D01*
X0027384Y0216502D02*
X0028002Y0216502D01*
X0028619Y0215884D01*
X0028619Y0215267D01*
X0028002Y0214650D01*
X0026767Y0214650D01*
X0026150Y0215267D01*
X0028002Y0216502D02*
X0028619Y0217119D01*
X0028619Y0217736D01*
X0028002Y0218353D01*
X0029833Y0215267D02*
X0030450Y0215267D01*
X0030450Y0214650D01*
X0029833Y0214650D01*
X0029833Y0215267D01*
X0031675Y0215267D02*
X0032292Y0214650D01*
X0033526Y0214650D01*
X0034143Y0215267D01*
X0034143Y0215884D01*
X0033526Y0216502D01*
X0032909Y0216502D01*
X0033526Y0216502D02*
X0034143Y0217119D01*
X0034143Y0217736D01*
X0033526Y0218353D01*
X0032292Y0218353D01*
X0031675Y0217736D01*
X0035358Y0218353D02*
X0035358Y0215884D01*
X0036592Y0214650D01*
X0037827Y0215884D01*
X0037827Y0218353D01*
X0038434Y0208353D02*
X0037199Y0207119D01*
X0037199Y0204650D01*
X0037199Y0206502D02*
X0039668Y0206502D01*
X0039668Y0207119D02*
X0039668Y0204650D01*
X0039668Y0207119D02*
X0038434Y0208353D01*
X0035985Y0208353D02*
X0033516Y0208353D01*
X0034751Y0208353D02*
X0034751Y0204650D01*
X0032302Y0204650D02*
X0032302Y0207119D01*
X0031068Y0208353D01*
X0029833Y0207119D01*
X0029833Y0204650D01*
X0028619Y0205267D02*
X0028619Y0207736D01*
X0028002Y0208353D01*
X0026150Y0208353D01*
X0026150Y0204650D01*
X0028002Y0204650D01*
X0028619Y0205267D01*
X0029833Y0206502D02*
X0032302Y0206502D01*
X0032302Y0198353D02*
X0032302Y0194650D01*
X0029833Y0198353D01*
X0029833Y0194650D01*
X0028619Y0195267D02*
X0028002Y0194650D01*
X0026767Y0194650D01*
X0026150Y0195267D01*
X0026150Y0197736D01*
X0026767Y0198353D01*
X0028002Y0198353D01*
X0028619Y0197736D01*
X0028619Y0196502D02*
X0027384Y0196502D01*
X0028619Y0196502D02*
X0028619Y0195267D01*
X0033516Y0194650D02*
X0035368Y0194650D01*
X0035985Y0195267D01*
X0035985Y0197736D01*
X0035368Y0198353D01*
X0033516Y0198353D01*
X0033516Y0194650D01*
X0129147Y0147143D02*
X0129147Y0144675D01*
X0129147Y0143460D02*
X0129147Y0140992D01*
X0132850Y0140992D01*
X0132850Y0143460D01*
X0130998Y0142226D02*
X0130998Y0140992D01*
X0131616Y0139777D02*
X0132233Y0139777D01*
X0132850Y0139160D01*
X0132850Y0137926D01*
X0132233Y0137308D01*
X0132850Y0136094D02*
X0132850Y0133625D01*
X0129147Y0133625D01*
X0129147Y0136094D01*
X0129764Y0137308D02*
X0130381Y0137308D01*
X0130998Y0137926D01*
X0130998Y0139160D01*
X0131616Y0139777D01*
X0129764Y0139777D02*
X0129147Y0139160D01*
X0129147Y0137926D01*
X0129764Y0137308D01*
X0130998Y0134860D02*
X0130998Y0133625D01*
X0130998Y0132411D02*
X0129764Y0132411D01*
X0129147Y0131794D01*
X0129147Y0129942D01*
X0132850Y0129942D01*
X0131616Y0129942D02*
X0131616Y0131794D01*
X0130998Y0132411D01*
X0131616Y0131177D02*
X0132850Y0132411D01*
X0132850Y0145909D02*
X0129147Y0145909D01*
X0200101Y0077736D02*
X0200718Y0078353D01*
X0201952Y0078353D01*
X0202569Y0077736D01*
X0202569Y0076502D02*
X0201335Y0076502D01*
X0202569Y0076502D02*
X0202569Y0075267D01*
X0201952Y0074650D01*
X0200718Y0074650D01*
X0200101Y0075267D01*
X0200101Y0077736D01*
X0203784Y0078353D02*
X0203784Y0074650D01*
X0206252Y0074650D02*
X0206252Y0078353D01*
X0207467Y0078353D02*
X0209318Y0078353D01*
X0209936Y0077736D01*
X0209936Y0075267D01*
X0209318Y0074650D01*
X0207467Y0074650D01*
X0207467Y0078353D01*
X0203784Y0078353D02*
X0206252Y0074650D01*
X0206252Y0068353D02*
X0203784Y0068353D01*
X0205018Y0068353D02*
X0205018Y0064650D01*
X0202569Y0064650D02*
X0202569Y0067119D01*
X0201335Y0068353D01*
X0200101Y0067119D01*
X0200101Y0064650D01*
X0198886Y0065267D02*
X0198886Y0067736D01*
X0198269Y0068353D01*
X0196417Y0068353D01*
X0196417Y0064650D01*
X0198269Y0064650D01*
X0198886Y0065267D01*
X0200101Y0066502D02*
X0202569Y0066502D01*
X0207467Y0066502D02*
X0209936Y0066502D01*
X0209936Y0067119D02*
X0209936Y0064650D01*
X0209936Y0067119D02*
X0208701Y0068353D01*
X0207467Y0067119D01*
X0207467Y0064650D01*
X0207467Y0058353D02*
X0207467Y0055884D01*
X0208701Y0054650D01*
X0209936Y0055884D01*
X0209936Y0058353D01*
X0206252Y0058353D02*
X0203784Y0058353D01*
X0203784Y0056502D01*
X0205018Y0057119D01*
X0205635Y0057119D01*
X0206252Y0056502D01*
X0206252Y0055267D01*
X0205635Y0054650D01*
X0204401Y0054650D01*
X0203784Y0055267D01*
X0192850Y0040168D02*
X0190381Y0040168D01*
X0189147Y0038934D01*
X0190381Y0037699D01*
X0192850Y0037699D01*
X0190998Y0037699D02*
X0190998Y0040168D01*
X0189147Y0036485D02*
X0189147Y0034016D01*
X0189147Y0035251D02*
X0192850Y0035251D01*
X0192850Y0032802D02*
X0190381Y0032802D01*
X0189147Y0031568D01*
X0190381Y0030333D01*
X0192850Y0030333D01*
X0192233Y0029119D02*
X0192850Y0028502D01*
X0192850Y0026650D01*
X0189147Y0026650D01*
X0189147Y0028502D01*
X0189764Y0029119D01*
X0192233Y0029119D01*
X0190998Y0030333D02*
X0190998Y0032802D01*
X0199147Y0032792D02*
X0199147Y0034026D01*
X0199764Y0034643D01*
X0200381Y0034643D01*
X0200998Y0034026D01*
X0201616Y0034643D01*
X0202233Y0034643D01*
X0202850Y0034026D01*
X0202850Y0032792D01*
X0202233Y0032175D01*
X0202233Y0030950D02*
X0202850Y0030950D01*
X0202850Y0030333D01*
X0202233Y0030333D01*
X0202233Y0030950D01*
X0202233Y0029119D02*
X0201616Y0029119D01*
X0200998Y0028502D01*
X0200998Y0027884D01*
X0200998Y0028502D02*
X0200381Y0029119D01*
X0199764Y0029119D01*
X0199147Y0028502D01*
X0199147Y0027267D01*
X0199764Y0026650D01*
X0202233Y0026650D02*
X0202850Y0027267D01*
X0202850Y0028502D01*
X0202233Y0029119D01*
X0199764Y0032175D02*
X0199147Y0032792D01*
X0200998Y0033409D02*
X0200998Y0034026D01*
X0201616Y0035858D02*
X0202850Y0037092D01*
X0201616Y0038327D01*
X0199147Y0038327D01*
X0199147Y0035858D02*
X0201616Y0035858D01*
X0142850Y0035868D02*
X0142233Y0036485D01*
X0139764Y0036485D01*
X0139147Y0035868D01*
X0139147Y0034016D01*
X0142850Y0034016D01*
X0142850Y0035868D01*
X0142233Y0032802D02*
X0139764Y0032802D01*
X0139147Y0032185D01*
X0139147Y0030333D01*
X0142850Y0030333D01*
X0142850Y0032185D01*
X0142233Y0032802D01*
X0142850Y0029119D02*
X0140381Y0029119D01*
X0139147Y0027884D01*
X0140381Y0026650D01*
X0142850Y0026650D01*
X0140998Y0026650D02*
X0140998Y0029119D01*
X0132850Y0028502D02*
X0132850Y0027267D01*
X0132233Y0026650D01*
X0130998Y0027267D02*
X0130998Y0028502D01*
X0131616Y0029119D01*
X0132233Y0029119D01*
X0132850Y0028502D01*
X0132850Y0030333D02*
X0132850Y0032185D01*
X0132233Y0032802D01*
X0129764Y0032802D01*
X0129147Y0032185D01*
X0129147Y0030333D01*
X0132850Y0030333D01*
X0129764Y0029119D02*
X0129147Y0028502D01*
X0129147Y0027267D01*
X0129764Y0026650D01*
X0130381Y0026650D01*
X0130998Y0027267D01*
X0130998Y0034016D02*
X0130998Y0036485D01*
X0130381Y0036485D02*
X0132850Y0036485D01*
X0132850Y0034016D02*
X0130381Y0034016D01*
X0129147Y0035251D01*
X0130381Y0036485D01*
X0122850Y0036485D02*
X0122850Y0034016D01*
X0119147Y0034016D01*
X0119764Y0032802D02*
X0119147Y0032185D01*
X0119147Y0030950D01*
X0119764Y0030333D01*
X0122233Y0030333D01*
X0122850Y0030950D01*
X0122850Y0032185D01*
X0122233Y0032802D01*
X0122233Y0029119D02*
X0122850Y0028502D01*
X0122850Y0027267D01*
X0122233Y0026650D01*
X0120998Y0027267D02*
X0120998Y0028502D01*
X0121616Y0029119D01*
X0122233Y0029119D01*
X0120998Y0027267D02*
X0120381Y0026650D01*
X0119764Y0026650D01*
X0119147Y0027267D01*
X0119147Y0028502D01*
X0119764Y0029119D01*
X0112850Y0028502D02*
X0112850Y0027267D01*
X0112233Y0026650D01*
X0109764Y0026650D01*
X0109147Y0027267D01*
X0109147Y0028502D01*
X0109764Y0029119D01*
X0110998Y0029119D02*
X0110998Y0027884D01*
X0110998Y0029119D02*
X0112233Y0029119D01*
X0112850Y0028502D01*
X0112850Y0030333D02*
X0109147Y0030333D01*
X0112850Y0032802D01*
X0109147Y0032802D01*
X0109147Y0034016D02*
X0109147Y0035868D01*
X0109764Y0036485D01*
X0112233Y0036485D01*
X0112850Y0035868D01*
X0112850Y0034016D01*
X0109147Y0034016D01*
X0102850Y0034026D02*
X0102850Y0032792D01*
X0102233Y0032175D01*
X0102233Y0030950D02*
X0102850Y0030950D01*
X0102850Y0030333D01*
X0102233Y0030333D01*
X0102233Y0030950D01*
X0102233Y0029119D02*
X0102850Y0028502D01*
X0102850Y0027267D01*
X0102233Y0026650D01*
X0100998Y0027884D02*
X0100998Y0028502D01*
X0101616Y0029119D01*
X0102233Y0029119D01*
X0100998Y0028502D02*
X0100381Y0029119D01*
X0099764Y0029119D01*
X0099147Y0028502D01*
X0099147Y0027267D01*
X0099764Y0026650D01*
X0099764Y0032175D02*
X0099147Y0032792D01*
X0099147Y0034026D01*
X0099764Y0034643D01*
X0100381Y0034643D01*
X0100998Y0034026D01*
X0101616Y0034643D01*
X0102233Y0034643D01*
X0102850Y0034026D01*
X0100998Y0034026D02*
X0100998Y0033409D01*
X0101616Y0035858D02*
X0102850Y0037092D01*
X0101616Y0038327D01*
X0099147Y0038327D01*
X0099147Y0035858D02*
X0101616Y0035858D01*
X0067850Y0035868D02*
X0067233Y0036485D01*
X0064764Y0036485D01*
X0064147Y0035868D01*
X0064147Y0034016D01*
X0067850Y0034016D01*
X0067850Y0035868D01*
X0067233Y0032802D02*
X0064764Y0032802D01*
X0064147Y0032185D01*
X0064147Y0030333D01*
X0067850Y0030333D01*
X0067850Y0032185D01*
X0067233Y0032802D01*
X0067850Y0029119D02*
X0065381Y0029119D01*
X0064147Y0027884D01*
X0065381Y0026650D01*
X0067850Y0026650D01*
X0065998Y0026650D02*
X0065998Y0029119D01*
X0057850Y0028502D02*
X0057850Y0027267D01*
X0057233Y0026650D01*
X0055998Y0027267D02*
X0055998Y0028502D01*
X0056616Y0029119D01*
X0057233Y0029119D01*
X0057850Y0028502D01*
X0057850Y0030333D02*
X0057850Y0032185D01*
X0057233Y0032802D01*
X0054764Y0032802D01*
X0054147Y0032185D01*
X0054147Y0030333D01*
X0057850Y0030333D01*
X0054764Y0029119D02*
X0054147Y0028502D01*
X0054147Y0027267D01*
X0054764Y0026650D01*
X0055381Y0026650D01*
X0055998Y0027267D01*
X0055998Y0034016D02*
X0055998Y0036485D01*
X0055381Y0036485D02*
X0057850Y0036485D01*
X0057850Y0034016D02*
X0055381Y0034016D01*
X0054147Y0035251D01*
X0055381Y0036485D01*
X0047850Y0036485D02*
X0047850Y0034016D01*
X0044147Y0034016D01*
X0044764Y0032802D02*
X0044147Y0032185D01*
X0044147Y0030950D01*
X0044764Y0030333D01*
X0047233Y0030333D01*
X0047850Y0030950D01*
X0047850Y0032185D01*
X0047233Y0032802D01*
X0047233Y0029119D02*
X0047850Y0028502D01*
X0047850Y0027267D01*
X0047233Y0026650D01*
X0045998Y0027267D02*
X0045998Y0028502D01*
X0046616Y0029119D01*
X0047233Y0029119D01*
X0045998Y0027267D02*
X0045381Y0026650D01*
X0044764Y0026650D01*
X0044147Y0027267D01*
X0044147Y0028502D01*
X0044764Y0029119D01*
X0037850Y0028502D02*
X0037850Y0027267D01*
X0037233Y0026650D01*
X0034764Y0026650D01*
X0034147Y0027267D01*
X0034147Y0028502D01*
X0034764Y0029119D01*
X0035998Y0029119D02*
X0035998Y0027884D01*
X0035998Y0029119D02*
X0037233Y0029119D01*
X0037850Y0028502D01*
X0037850Y0030333D02*
X0034147Y0030333D01*
X0037850Y0032802D01*
X0034147Y0032802D01*
X0034147Y0034016D02*
X0034147Y0035868D01*
X0034764Y0036485D01*
X0037233Y0036485D01*
X0037850Y0035868D01*
X0037850Y0034016D01*
X0034147Y0034016D01*
X0027850Y0034026D02*
X0027850Y0032792D01*
X0027233Y0032175D01*
X0027233Y0030950D02*
X0027850Y0030950D01*
X0027850Y0030333D01*
X0027233Y0030333D01*
X0027233Y0030950D01*
X0027233Y0029119D02*
X0027850Y0028502D01*
X0027850Y0027267D01*
X0027233Y0026650D01*
X0025998Y0027884D02*
X0025998Y0028502D01*
X0026616Y0029119D01*
X0027233Y0029119D01*
X0025998Y0028502D02*
X0025381Y0029119D01*
X0024764Y0029119D01*
X0024147Y0028502D01*
X0024147Y0027267D01*
X0024764Y0026650D01*
X0024764Y0032175D02*
X0024147Y0032792D01*
X0024147Y0034026D01*
X0024764Y0034643D01*
X0025381Y0034643D01*
X0025998Y0034026D01*
X0026616Y0034643D01*
X0027233Y0034643D01*
X0027850Y0034026D01*
X0025998Y0034026D02*
X0025998Y0033409D01*
X0026616Y0035858D02*
X0027850Y0037092D01*
X0026616Y0038327D01*
X0024147Y0038327D01*
X0024147Y0035858D02*
X0026616Y0035858D01*
X0026150Y0064650D02*
X0026150Y0067119D01*
X0027384Y0068353D01*
X0028619Y0067119D01*
X0028619Y0064650D01*
X0029833Y0065267D02*
X0030450Y0064650D01*
X0031685Y0064650D01*
X0032302Y0065267D01*
X0032302Y0067736D01*
X0031685Y0068353D01*
X0030450Y0068353D01*
X0029833Y0067736D01*
X0029833Y0065267D01*
X0028619Y0066502D02*
X0026150Y0066502D01*
X0026150Y0074650D02*
X0028002Y0074650D01*
X0028619Y0075267D01*
X0028619Y0077736D01*
X0028002Y0078353D01*
X0026150Y0078353D01*
X0026150Y0074650D01*
X0029833Y0075267D02*
X0030450Y0074650D01*
X0031685Y0074650D01*
X0032302Y0075267D01*
X0032302Y0077736D01*
X0031685Y0078353D01*
X0030450Y0078353D01*
X0029833Y0077736D01*
X0029833Y0075267D01*
X0029833Y0084650D02*
X0029833Y0088353D01*
X0032302Y0084650D01*
X0032302Y0088353D01*
X0033516Y0088353D02*
X0035368Y0088353D01*
X0035985Y0087736D01*
X0035985Y0085267D01*
X0035368Y0084650D01*
X0033516Y0084650D01*
X0033516Y0088353D01*
X0028619Y0087736D02*
X0028002Y0088353D01*
X0026767Y0088353D01*
X0026150Y0087736D01*
X0026150Y0085267D01*
X0026767Y0084650D01*
X0028002Y0084650D01*
X0028619Y0085267D01*
X0028619Y0086502D01*
X0027384Y0086502D01*
X0026767Y0094650D02*
X0026150Y0095267D01*
X0026767Y0094650D02*
X0028002Y0094650D01*
X0028619Y0095267D01*
X0028619Y0095884D01*
X0028002Y0096502D01*
X0027384Y0096502D01*
X0028002Y0096502D02*
X0028619Y0097119D01*
X0028619Y0097736D01*
X0028002Y0098353D01*
X0026767Y0098353D01*
X0026150Y0097736D01*
X0029833Y0095267D02*
X0030450Y0095267D01*
X0030450Y0094650D01*
X0029833Y0094650D01*
X0029833Y0095267D01*
X0031675Y0095267D02*
X0032292Y0094650D01*
X0033526Y0094650D01*
X0034143Y0095267D01*
X0034143Y0095884D01*
X0033526Y0096502D01*
X0032909Y0096502D01*
X0033526Y0096502D02*
X0034143Y0097119D01*
X0034143Y0097736D01*
X0033526Y0098353D01*
X0032292Y0098353D01*
X0031675Y0097736D01*
X0035358Y0098353D02*
X0035358Y0095884D01*
X0036592Y0094650D01*
X0037827Y0095884D01*
X0037827Y0098353D01*
D12*
X0084344Y0181700D02*
X0084344Y0184769D01*
X0085878Y0186304D01*
X0087413Y0184769D01*
X0087413Y0181700D01*
X0088948Y0181700D02*
X0088948Y0186304D01*
X0091250Y0186304D01*
X0092017Y0185537D01*
X0092017Y0184002D01*
X0091250Y0183235D01*
X0088948Y0183235D01*
X0090482Y0183235D02*
X0092017Y0181700D01*
X0093552Y0181700D02*
X0093552Y0186304D01*
X0095854Y0186304D01*
X0096621Y0185537D01*
X0096621Y0182467D01*
X0095854Y0181700D01*
X0093552Y0181700D01*
X0098155Y0182467D02*
X0098155Y0186304D01*
X0101225Y0186304D02*
X0101225Y0182467D01*
X0100457Y0181700D01*
X0098923Y0181700D01*
X0098155Y0182467D01*
X0102759Y0181700D02*
X0104294Y0181700D01*
X0103527Y0181700D02*
X0103527Y0186304D01*
X0104294Y0186304D02*
X0102759Y0186304D01*
X0105829Y0186304D02*
X0105829Y0181700D01*
X0108898Y0181700D02*
X0105829Y0186304D01*
X0108898Y0186304D02*
X0108898Y0181700D01*
X0110433Y0182467D02*
X0111200Y0181700D01*
X0112735Y0181700D01*
X0113502Y0182467D01*
X0113502Y0185537D01*
X0112735Y0186304D01*
X0111200Y0186304D01*
X0110433Y0185537D01*
X0110433Y0182467D01*
X0115037Y0184002D02*
X0118106Y0184002D01*
X0119640Y0186304D02*
X0122710Y0181700D01*
X0122710Y0186304D01*
X0124244Y0184769D02*
X0124244Y0181700D01*
X0124244Y0184002D02*
X0127314Y0184002D01*
X0127314Y0184769D02*
X0127314Y0181700D01*
X0128848Y0181700D02*
X0128848Y0186304D01*
X0131918Y0181700D01*
X0131918Y0186304D01*
X0133452Y0185537D02*
X0133452Y0182467D01*
X0134220Y0181700D01*
X0135754Y0181700D01*
X0136522Y0182467D01*
X0136522Y0185537D01*
X0135754Y0186304D01*
X0134220Y0186304D01*
X0133452Y0185537D01*
X0127314Y0184769D02*
X0125779Y0186304D01*
X0124244Y0184769D01*
X0119640Y0186304D02*
X0119640Y0181700D01*
X0087413Y0184002D02*
X0084344Y0184002D01*
X0068287Y0269417D02*
X0065218Y0269417D01*
X0068287Y0272486D01*
X0068287Y0273253D01*
X0067520Y0274020D01*
X0065985Y0274020D01*
X0065218Y0273253D01*
X0063683Y0273253D02*
X0063683Y0272486D01*
X0060614Y0269417D01*
X0063683Y0269417D01*
X0063683Y0273253D02*
X0062916Y0274020D01*
X0061381Y0274020D01*
X0060614Y0273253D01*
X0059080Y0274020D02*
X0056010Y0274020D01*
X0054476Y0274020D02*
X0054476Y0269417D01*
X0054476Y0271718D02*
X0051406Y0271718D01*
X0049872Y0270184D02*
X0049872Y0273253D01*
X0049104Y0274020D01*
X0046802Y0274020D01*
X0046802Y0269417D01*
X0049104Y0269417D01*
X0049872Y0270184D01*
X0051406Y0269417D02*
X0051406Y0274020D01*
X0057545Y0274020D02*
X0057545Y0269417D01*
X0190482Y0271304D02*
X0190482Y0266700D01*
X0193552Y0266700D02*
X0193552Y0271304D01*
X0195086Y0271304D02*
X0197388Y0271304D01*
X0198155Y0270537D01*
X0198155Y0269002D01*
X0197388Y0268235D01*
X0195086Y0268235D01*
X0196621Y0268235D02*
X0198155Y0266700D01*
X0199690Y0266700D02*
X0199690Y0271304D01*
X0202759Y0271304D01*
X0204294Y0270537D02*
X0205061Y0271304D01*
X0206596Y0271304D01*
X0207363Y0270537D01*
X0207363Y0269769D01*
X0204294Y0266700D01*
X0207363Y0266700D01*
X0208898Y0269002D02*
X0211967Y0269002D01*
X0211200Y0266700D02*
X0211200Y0271304D01*
X0208898Y0269002D01*
X0213502Y0271304D02*
X0213502Y0266700D01*
X0216571Y0266700D01*
X0218106Y0267467D02*
X0221175Y0270537D01*
X0221175Y0267467D01*
X0220408Y0266700D01*
X0218873Y0266700D01*
X0218106Y0267467D01*
X0218106Y0270537D01*
X0218873Y0271304D01*
X0220408Y0271304D01*
X0221175Y0270537D01*
X0222710Y0269769D02*
X0224244Y0271304D01*
X0224244Y0266700D01*
X0222710Y0266700D02*
X0225779Y0266700D01*
X0227314Y0269002D02*
X0230383Y0269002D01*
X0228848Y0270537D02*
X0228848Y0267467D01*
X0201225Y0269002D02*
X0199690Y0269002D01*
X0195086Y0266700D02*
X0195086Y0271304D01*
X0190482Y0271304D02*
X0193552Y0266700D01*
X0229630Y0093965D02*
X0228946Y0093281D01*
X0228946Y0091229D01*
X0233050Y0091229D01*
X0231682Y0091229D02*
X0231682Y0093281D01*
X0230998Y0093965D01*
X0229630Y0093965D01*
X0231682Y0092597D02*
X0233050Y0093965D01*
X0233050Y0089835D02*
X0233050Y0088467D01*
X0233050Y0089151D02*
X0228946Y0089151D01*
X0228946Y0088467D02*
X0228946Y0089835D01*
X0229630Y0087059D02*
X0228946Y0086375D01*
X0228946Y0084324D01*
X0233050Y0084324D01*
X0231682Y0084324D02*
X0231682Y0086375D01*
X0230998Y0087059D01*
X0229630Y0087059D01*
X0230998Y0082916D02*
X0230998Y0080180D01*
X0233050Y0078772D02*
X0228946Y0078772D01*
X0228946Y0076037D02*
X0233050Y0078772D01*
X0233050Y0076037D02*
X0228946Y0076037D01*
X0229630Y0074629D02*
X0228946Y0073945D01*
X0228946Y0072577D01*
X0229630Y0071893D01*
X0232366Y0071893D01*
X0233050Y0072577D01*
X0233050Y0073945D01*
X0232366Y0074629D01*
X0229630Y0074629D01*
X0228946Y0070498D02*
X0228946Y0069131D01*
X0228946Y0069815D02*
X0233050Y0069815D01*
X0233050Y0070498D02*
X0233050Y0069131D01*
X0233050Y0066355D02*
X0228946Y0066355D01*
X0228946Y0064987D02*
X0228946Y0067723D01*
X0229630Y0063579D02*
X0228946Y0062895D01*
X0228946Y0061527D01*
X0229630Y0060844D01*
X0232366Y0060844D01*
X0233050Y0061527D01*
X0233050Y0062895D01*
X0232366Y0063579D01*
X0229630Y0063579D01*
X0228946Y0059436D02*
X0233050Y0059436D01*
X0233050Y0056700D02*
X0228946Y0056700D01*
X0230314Y0058068D01*
X0228946Y0059436D01*
D13*
X0203500Y0021500D02*
X0198500Y0021500D01*
X0196000Y0019000D01*
X0193500Y0021500D01*
X0188500Y0021500D01*
X0186000Y0019000D01*
X0186000Y0014000D01*
X0188500Y0011500D01*
X0193500Y0011500D01*
X0196000Y0014000D01*
X0196000Y0019000D01*
X0196000Y0014000D02*
X0198500Y0011500D01*
X0203500Y0011500D01*
X0206000Y0014000D01*
X0206000Y0019000D01*
X0203500Y0021500D01*
X0146000Y0019000D02*
X0146000Y0014000D01*
X0143500Y0011500D01*
X0138500Y0011500D01*
X0136000Y0014000D01*
X0133500Y0011500D01*
X0128500Y0011500D01*
X0126000Y0014000D01*
X0126000Y0019000D01*
X0128500Y0021500D01*
X0133500Y0021500D01*
X0136000Y0019000D01*
X0138500Y0021500D01*
X0143500Y0021500D01*
X0146000Y0019000D01*
X0136000Y0019000D02*
X0136000Y0014000D01*
X0126000Y0014000D02*
X0123500Y0011500D01*
X0118500Y0011500D01*
X0116000Y0014000D01*
X0113500Y0011500D01*
X0108500Y0011500D01*
X0106000Y0014000D01*
X0103500Y0011500D01*
X0098500Y0011500D01*
X0096000Y0014000D01*
X0096000Y0019000D01*
X0098500Y0021500D01*
X0103500Y0021500D01*
X0106000Y0019000D01*
X0108500Y0021500D01*
X0113500Y0021500D01*
X0116000Y0019000D01*
X0118500Y0021500D01*
X0123500Y0021500D01*
X0126000Y0019000D01*
X0116000Y0019000D02*
X0116000Y0014000D01*
X0106000Y0014000D02*
X0106000Y0019000D01*
X0071000Y0019000D02*
X0071000Y0014000D01*
X0068500Y0011500D01*
X0063500Y0011500D01*
X0061000Y0014000D01*
X0058500Y0011500D01*
X0053500Y0011500D01*
X0051000Y0014000D01*
X0051000Y0019000D01*
X0053500Y0021500D01*
X0058500Y0021500D01*
X0061000Y0019000D01*
X0063500Y0021500D01*
X0068500Y0021500D01*
X0071000Y0019000D01*
X0061000Y0019000D02*
X0061000Y0014000D01*
X0051000Y0014000D02*
X0048500Y0011500D01*
X0043500Y0011500D01*
X0041000Y0014000D01*
X0038500Y0011500D01*
X0033500Y0011500D01*
X0031000Y0014000D01*
X0028500Y0011500D01*
X0023500Y0011500D01*
X0021000Y0014000D01*
X0021000Y0019000D01*
X0023500Y0021500D01*
X0028500Y0021500D01*
X0031000Y0019000D01*
X0033500Y0021500D01*
X0038500Y0021500D01*
X0041000Y0019000D01*
X0043500Y0021500D01*
X0048500Y0021500D01*
X0051000Y0019000D01*
X0041000Y0019000D02*
X0041000Y0014000D01*
X0031000Y0014000D02*
X0031000Y0019000D01*
X0018500Y0061500D02*
X0013500Y0061500D01*
X0011000Y0064000D01*
X0011000Y0069000D01*
X0013500Y0071500D01*
X0011000Y0074000D01*
X0011000Y0079000D01*
X0013500Y0081500D01*
X0018500Y0081500D01*
X0021000Y0079000D01*
X0021000Y0074000D01*
X0018500Y0071500D01*
X0021000Y0069000D01*
X0021000Y0064000D01*
X0018500Y0061500D01*
X0018500Y0071500D02*
X0013500Y0071500D01*
X0013500Y0081500D02*
X0011000Y0084000D01*
X0011000Y0089000D01*
X0013500Y0091500D01*
X0011000Y0094000D01*
X0011000Y0099000D01*
X0013500Y0101500D01*
X0018500Y0101500D01*
X0021000Y0099000D01*
X0021000Y0094000D01*
X0018500Y0091500D01*
X0021000Y0089000D01*
X0021000Y0084000D01*
X0018500Y0081500D01*
X0018500Y0091500D02*
X0013500Y0091500D01*
X0007466Y0121899D02*
X0008200Y0122633D01*
X0008200Y0123367D01*
X0007466Y0124101D01*
X0003796Y0124101D01*
X0003796Y0123367D02*
X0003796Y0124835D01*
X0005264Y0127237D02*
X0005264Y0128705D01*
X0005998Y0129439D01*
X0008200Y0129439D01*
X0008200Y0127237D01*
X0007466Y0126503D01*
X0006732Y0127237D01*
X0006732Y0129439D01*
X0005264Y0131107D02*
X0005264Y0133309D01*
X0005998Y0134043D01*
X0008200Y0134043D01*
X0007466Y0135711D02*
X0008200Y0136445D01*
X0008200Y0137913D01*
X0007466Y0138647D01*
X0005998Y0138647D01*
X0005998Y0137179D01*
X0004530Y0138647D02*
X0003796Y0137913D01*
X0003796Y0136445D01*
X0004530Y0135711D01*
X0007466Y0135711D01*
X0008200Y0131107D02*
X0005264Y0131107D01*
X0005998Y0140315D02*
X0005264Y0141049D01*
X0005264Y0142517D01*
X0005998Y0143251D01*
X0006732Y0143251D01*
X0006732Y0140315D01*
X0007466Y0140315D02*
X0005998Y0140315D01*
X0007466Y0140315D02*
X0008200Y0141049D01*
X0008200Y0142517D01*
X0008200Y0144919D02*
X0005264Y0144919D01*
X0005264Y0146387D02*
X0005264Y0147121D01*
X0005264Y0146387D02*
X0006732Y0144919D01*
X0005264Y0148755D02*
X0005264Y0150957D01*
X0005998Y0151691D01*
X0007466Y0151691D01*
X0008200Y0150957D01*
X0008200Y0148755D01*
X0003796Y0148755D01*
X0005998Y0153359D02*
X0005264Y0154093D01*
X0005264Y0155561D01*
X0005998Y0156295D01*
X0006732Y0156295D01*
X0006732Y0153359D01*
X0007466Y0153359D02*
X0005998Y0153359D01*
X0007466Y0153359D02*
X0008200Y0154093D01*
X0008200Y0155561D01*
X0008200Y0157963D02*
X0005264Y0157963D01*
X0006732Y0157963D02*
X0005264Y0159431D01*
X0005264Y0160165D01*
X0031632Y0144705D02*
X0031632Y0139368D01*
X0032699Y0138300D01*
X0034834Y0138300D01*
X0035902Y0139368D01*
X0035902Y0144705D01*
X0038077Y0143638D02*
X0038077Y0142570D01*
X0039145Y0141503D01*
X0041280Y0141503D01*
X0042348Y0140435D01*
X0042348Y0139368D01*
X0041280Y0138300D01*
X0039145Y0138300D01*
X0038077Y0139368D01*
X0038077Y0143638D02*
X0039145Y0144705D01*
X0041280Y0144705D01*
X0042348Y0143638D01*
X0044523Y0144705D02*
X0047725Y0144705D01*
X0048793Y0143638D01*
X0048793Y0142570D01*
X0047725Y0141503D01*
X0044523Y0141503D01*
X0044523Y0144705D02*
X0044523Y0138300D01*
X0047725Y0138300D01*
X0048793Y0139368D01*
X0048793Y0140435D01*
X0047725Y0141503D01*
X0018500Y0191500D02*
X0013500Y0191500D01*
X0011000Y0194000D01*
X0011000Y0199000D01*
X0013500Y0201500D01*
X0011000Y0204000D01*
X0011000Y0209000D01*
X0013500Y0211500D01*
X0011000Y0214000D01*
X0011000Y0219000D01*
X0013500Y0221500D01*
X0018500Y0221500D01*
X0021000Y0219000D01*
X0021000Y0214000D01*
X0018500Y0211500D01*
X0021000Y0209000D01*
X0021000Y0204000D01*
X0018500Y0201500D01*
X0021000Y0199000D01*
X0021000Y0194000D01*
X0018500Y0191500D01*
X0018500Y0201500D02*
X0013500Y0201500D01*
X0013500Y0211500D02*
X0018500Y0211500D01*
X0058500Y0213000D02*
X0058500Y0220000D01*
X0058502Y0220060D01*
X0058507Y0220121D01*
X0058516Y0220180D01*
X0058529Y0220239D01*
X0058545Y0220298D01*
X0058565Y0220355D01*
X0058588Y0220410D01*
X0058615Y0220465D01*
X0058644Y0220517D01*
X0058677Y0220568D01*
X0058713Y0220617D01*
X0058751Y0220663D01*
X0058793Y0220707D01*
X0058837Y0220749D01*
X0058883Y0220787D01*
X0058932Y0220823D01*
X0058983Y0220856D01*
X0059035Y0220885D01*
X0059090Y0220912D01*
X0059145Y0220935D01*
X0059202Y0220955D01*
X0059261Y0220971D01*
X0059320Y0220984D01*
X0059379Y0220993D01*
X0059440Y0220998D01*
X0059500Y0221000D01*
X0061000Y0221000D01*
X0061500Y0220500D01*
X0080500Y0220500D01*
X0081000Y0221000D01*
X0082500Y0221000D01*
X0082560Y0220998D01*
X0082621Y0220993D01*
X0082680Y0220984D01*
X0082739Y0220971D01*
X0082798Y0220955D01*
X0082855Y0220935D01*
X0082910Y0220912D01*
X0082965Y0220885D01*
X0083017Y0220856D01*
X0083068Y0220823D01*
X0083117Y0220787D01*
X0083163Y0220749D01*
X0083207Y0220707D01*
X0083249Y0220663D01*
X0083287Y0220617D01*
X0083323Y0220568D01*
X0083356Y0220517D01*
X0083385Y0220465D01*
X0083412Y0220410D01*
X0083435Y0220355D01*
X0083455Y0220298D01*
X0083471Y0220239D01*
X0083484Y0220180D01*
X0083493Y0220121D01*
X0083498Y0220060D01*
X0083500Y0220000D01*
X0083500Y0213000D01*
X0083498Y0212940D01*
X0083493Y0212879D01*
X0083484Y0212820D01*
X0083471Y0212761D01*
X0083455Y0212702D01*
X0083435Y0212645D01*
X0083412Y0212590D01*
X0083385Y0212535D01*
X0083356Y0212483D01*
X0083323Y0212432D01*
X0083287Y0212383D01*
X0083249Y0212337D01*
X0083207Y0212293D01*
X0083163Y0212251D01*
X0083117Y0212213D01*
X0083068Y0212177D01*
X0083017Y0212144D01*
X0082965Y0212115D01*
X0082910Y0212088D01*
X0082855Y0212065D01*
X0082798Y0212045D01*
X0082739Y0212029D01*
X0082680Y0212016D01*
X0082621Y0212007D01*
X0082560Y0212002D01*
X0082500Y0212000D01*
X0081000Y0212000D01*
X0080500Y0212500D01*
X0061500Y0212500D01*
X0061000Y0212000D01*
X0059500Y0212000D01*
X0059440Y0212002D01*
X0059379Y0212007D01*
X0059320Y0212016D01*
X0059261Y0212029D01*
X0059202Y0212045D01*
X0059145Y0212065D01*
X0059090Y0212088D01*
X0059035Y0212115D01*
X0058983Y0212144D01*
X0058932Y0212177D01*
X0058883Y0212213D01*
X0058837Y0212251D01*
X0058793Y0212293D01*
X0058751Y0212337D01*
X0058713Y0212383D01*
X0058677Y0212432D01*
X0058644Y0212483D01*
X0058615Y0212535D01*
X0058588Y0212590D01*
X0058565Y0212645D01*
X0058545Y0212702D01*
X0058529Y0212761D01*
X0058516Y0212820D01*
X0058507Y0212879D01*
X0058502Y0212940D01*
X0058500Y0213000D01*
X0059500Y0201000D02*
X0061000Y0201000D01*
X0061500Y0200500D01*
X0080500Y0200500D01*
X0081000Y0201000D01*
X0082500Y0201000D01*
X0082560Y0200998D01*
X0082621Y0200993D01*
X0082680Y0200984D01*
X0082739Y0200971D01*
X0082798Y0200955D01*
X0082855Y0200935D01*
X0082910Y0200912D01*
X0082965Y0200885D01*
X0083017Y0200856D01*
X0083068Y0200823D01*
X0083117Y0200787D01*
X0083163Y0200749D01*
X0083207Y0200707D01*
X0083249Y0200663D01*
X0083287Y0200617D01*
X0083323Y0200568D01*
X0083356Y0200517D01*
X0083385Y0200465D01*
X0083412Y0200410D01*
X0083435Y0200355D01*
X0083455Y0200298D01*
X0083471Y0200239D01*
X0083484Y0200180D01*
X0083493Y0200121D01*
X0083498Y0200060D01*
X0083500Y0200000D01*
X0083500Y0193000D01*
X0083498Y0192940D01*
X0083493Y0192879D01*
X0083484Y0192820D01*
X0083471Y0192761D01*
X0083455Y0192702D01*
X0083435Y0192645D01*
X0083412Y0192590D01*
X0083385Y0192535D01*
X0083356Y0192483D01*
X0083323Y0192432D01*
X0083287Y0192383D01*
X0083249Y0192337D01*
X0083207Y0192293D01*
X0083163Y0192251D01*
X0083117Y0192213D01*
X0083068Y0192177D01*
X0083017Y0192144D01*
X0082965Y0192115D01*
X0082910Y0192088D01*
X0082855Y0192065D01*
X0082798Y0192045D01*
X0082739Y0192029D01*
X0082680Y0192016D01*
X0082621Y0192007D01*
X0082560Y0192002D01*
X0082500Y0192000D01*
X0081000Y0192000D01*
X0080500Y0192500D01*
X0061500Y0192500D01*
X0061000Y0192000D01*
X0059500Y0192000D01*
X0059440Y0192002D01*
X0059379Y0192007D01*
X0059320Y0192016D01*
X0059261Y0192029D01*
X0059202Y0192045D01*
X0059145Y0192065D01*
X0059090Y0192088D01*
X0059035Y0192115D01*
X0058983Y0192144D01*
X0058932Y0192177D01*
X0058883Y0192213D01*
X0058837Y0192251D01*
X0058793Y0192293D01*
X0058751Y0192337D01*
X0058713Y0192383D01*
X0058677Y0192432D01*
X0058644Y0192483D01*
X0058615Y0192535D01*
X0058588Y0192590D01*
X0058565Y0192645D01*
X0058545Y0192702D01*
X0058529Y0192761D01*
X0058516Y0192820D01*
X0058507Y0192879D01*
X0058502Y0192940D01*
X0058500Y0193000D01*
X0058500Y0200000D01*
X0058502Y0200060D01*
X0058507Y0200121D01*
X0058516Y0200180D01*
X0058529Y0200239D01*
X0058545Y0200298D01*
X0058565Y0200355D01*
X0058588Y0200410D01*
X0058615Y0200465D01*
X0058644Y0200517D01*
X0058677Y0200568D01*
X0058713Y0200617D01*
X0058751Y0200663D01*
X0058793Y0200707D01*
X0058837Y0200749D01*
X0058883Y0200787D01*
X0058932Y0200823D01*
X0058983Y0200856D01*
X0059035Y0200885D01*
X0059090Y0200912D01*
X0059145Y0200935D01*
X0059202Y0200955D01*
X0059261Y0200971D01*
X0059320Y0200984D01*
X0059379Y0200993D01*
X0059440Y0200998D01*
X0059500Y0201000D01*
X0083500Y0251500D02*
X0088500Y0251500D01*
X0091000Y0254000D01*
X0093500Y0251500D01*
X0098500Y0251500D01*
X0101000Y0254000D01*
X0101000Y0259000D01*
X0098500Y0261500D01*
X0093500Y0261500D01*
X0091000Y0259000D01*
X0091000Y0254000D01*
X0091000Y0259000D02*
X0088500Y0261500D01*
X0083500Y0261500D01*
X0081000Y0259000D01*
X0081000Y0254000D01*
X0083500Y0251500D01*
X0116000Y0254000D02*
X0118500Y0251500D01*
X0123500Y0251500D01*
X0126000Y0254000D01*
X0128500Y0251500D01*
X0133500Y0251500D01*
X0136000Y0254000D01*
X0136000Y0259000D01*
X0133500Y0261500D01*
X0128500Y0261500D01*
X0126000Y0259000D01*
X0126000Y0254000D01*
X0126000Y0259000D02*
X0123500Y0261500D01*
X0118500Y0261500D01*
X0116000Y0259000D01*
X0116000Y0254000D01*
X0229000Y0170500D02*
X0232200Y0172800D01*
X0232200Y0185300D01*
X0234700Y0187800D01*
X0257300Y0187800D01*
X0259800Y0185300D01*
X0259800Y0172800D01*
X0263000Y0170500D01*
X0263000Y0152500D01*
X0259800Y0150200D01*
X0259800Y0137700D01*
X0257300Y0135200D01*
X0234700Y0135200D01*
X0232200Y0137700D01*
X0232200Y0150400D01*
X0229000Y0152500D01*
X0229000Y0170500D01*
X0254430Y0211241D02*
X0252295Y0213376D01*
X0254430Y0215511D01*
X0258700Y0215511D01*
X0258700Y0217686D02*
X0252295Y0217686D01*
X0258700Y0221957D01*
X0252295Y0221957D01*
X0252295Y0224132D02*
X0252295Y0228402D01*
X0252295Y0226267D02*
X0258700Y0226267D01*
X0258700Y0230577D02*
X0258700Y0234848D01*
X0258700Y0237023D02*
X0252295Y0237023D01*
X0258700Y0241293D01*
X0252295Y0241293D01*
X0252295Y0243468D02*
X0258700Y0247739D01*
X0252295Y0247739D01*
X0254430Y0249914D02*
X0252295Y0252049D01*
X0254430Y0254184D01*
X0258700Y0254184D01*
X0255497Y0254184D02*
X0255497Y0249914D01*
X0254430Y0249914D02*
X0258700Y0249914D01*
X0258700Y0243468D02*
X0252295Y0243468D01*
X0252295Y0234848D02*
X0252295Y0230577D01*
X0258700Y0230577D01*
X0255497Y0230577D02*
X0255497Y0232712D01*
X0255497Y0215511D02*
X0255497Y0211241D01*
X0254430Y0211241D02*
X0258700Y0211241D01*
D14*
X0200211Y0055461D02*
X0191603Y0055461D01*
X0195907Y0055461D02*
X0195907Y0042550D01*
X0186399Y0044702D02*
X0186399Y0049006D01*
X0184247Y0051157D01*
X0179943Y0051157D01*
X0177792Y0049006D01*
X0177792Y0044702D01*
X0179943Y0042550D01*
X0184247Y0042550D01*
X0186399Y0044702D01*
X0172887Y0042550D02*
X0168584Y0042550D01*
X0170736Y0042550D02*
X0170736Y0055461D01*
X0172887Y0055461D02*
X0168584Y0055461D01*
X0163379Y0049006D02*
X0163379Y0042550D01*
X0163379Y0049006D02*
X0161227Y0051157D01*
X0154772Y0051157D01*
X0154772Y0042550D01*
X0149567Y0046854D02*
X0140960Y0046854D01*
X0140960Y0044702D02*
X0140960Y0049006D01*
X0143112Y0051157D01*
X0147416Y0051157D01*
X0149567Y0049006D01*
X0149567Y0046854D01*
X0147416Y0042550D02*
X0143112Y0042550D01*
X0140960Y0044702D01*
X0136056Y0042550D02*
X0133904Y0044702D01*
X0133904Y0053309D01*
X0131752Y0051157D02*
X0136056Y0051157D01*
X0126548Y0049006D02*
X0126548Y0044702D01*
X0124396Y0042550D01*
X0120092Y0042550D01*
X0117940Y0044702D01*
X0117940Y0049006D01*
X0120092Y0051157D01*
X0124396Y0051157D01*
X0126548Y0049006D01*
X0112736Y0049006D02*
X0112736Y0042550D01*
X0112736Y0049006D02*
X0110584Y0051157D01*
X0104129Y0051157D01*
X0104129Y0042550D01*
X0099074Y0042550D02*
X0092619Y0046854D01*
X0099074Y0051157D01*
X0092619Y0055461D02*
X0092619Y0042550D01*
X0087565Y0051157D02*
X0085413Y0051157D01*
X0081109Y0046854D01*
X0081109Y0051157D02*
X0081109Y0042550D01*
X0075905Y0044702D02*
X0075905Y0049006D01*
X0073753Y0051157D01*
X0069449Y0051157D01*
X0067297Y0049006D01*
X0067297Y0044702D01*
X0069449Y0042550D01*
X0073753Y0042550D01*
X0075905Y0044702D01*
X0062093Y0044702D02*
X0059941Y0046854D01*
X0055637Y0046854D01*
X0053485Y0049006D01*
X0055637Y0051157D01*
X0062093Y0051157D01*
X0062093Y0044702D02*
X0059941Y0042550D01*
X0053485Y0042550D01*
X0048281Y0042550D02*
X0048281Y0049006D01*
X0046129Y0051157D01*
X0039674Y0051157D01*
X0039674Y0042550D01*
X0034469Y0046854D02*
X0025862Y0046854D01*
X0025862Y0044702D02*
X0025862Y0049006D01*
X0028014Y0051157D01*
X0032317Y0051157D01*
X0034469Y0049006D01*
X0034469Y0046854D01*
X0032317Y0042550D02*
X0028014Y0042550D01*
X0025862Y0044702D01*
X0020657Y0044702D02*
X0018506Y0042550D01*
X0014202Y0042550D01*
X0012050Y0044702D01*
X0014202Y0049006D02*
X0018506Y0049006D01*
X0020657Y0046854D01*
X0020657Y0044702D01*
X0014202Y0049006D02*
X0012050Y0051157D01*
X0012050Y0053309D01*
X0014202Y0055461D01*
X0018506Y0055461D01*
X0020657Y0053309D01*
D15*
X0008550Y0061450D02*
X0008550Y0063452D01*
X0007883Y0064119D01*
X0007216Y0064119D01*
X0006548Y0063452D01*
X0006548Y0061450D01*
X0004547Y0061450D02*
X0008550Y0061450D01*
X0006548Y0063452D02*
X0005881Y0064119D01*
X0005214Y0064119D01*
X0004547Y0063452D01*
X0004547Y0061450D01*
X0005214Y0065594D02*
X0007883Y0065594D01*
X0008550Y0066261D01*
X0008550Y0067595D01*
X0007883Y0068262D01*
X0005214Y0068262D01*
X0004547Y0067595D01*
X0004547Y0066261D01*
X0005214Y0065594D01*
X0004547Y0069737D02*
X0004547Y0071739D01*
X0005214Y0072406D01*
X0007883Y0072406D01*
X0008550Y0071739D01*
X0008550Y0069737D01*
X0004547Y0069737D01*
X0004547Y0073881D02*
X0008550Y0073881D01*
X0008550Y0076550D01*
X0008550Y0078024D02*
X0004547Y0078024D01*
X0008550Y0080693D01*
X0004547Y0080693D01*
X0006548Y0082168D02*
X0006548Y0084837D01*
X0006548Y0086311D02*
X0006548Y0087646D01*
X0004547Y0088980D02*
X0004547Y0086311D01*
X0008550Y0086311D01*
X0008550Y0090455D02*
X0004547Y0090455D01*
X0004547Y0093124D01*
X0004547Y0094598D02*
X0007883Y0094598D01*
X0008550Y0095266D01*
X0008550Y0096600D01*
X0007883Y0097267D01*
X0004547Y0097267D01*
X0005214Y0098742D02*
X0007883Y0098742D01*
X0008550Y0099409D01*
X0008550Y0100744D01*
X0007883Y0101411D01*
X0008550Y0102885D02*
X0004547Y0102885D01*
X0005214Y0101411D02*
X0004547Y0100744D01*
X0004547Y0099409D01*
X0005214Y0098742D01*
X0006548Y0102885D02*
X0006548Y0105554D01*
X0004547Y0105554D02*
X0008550Y0105554D01*
X0008550Y0108363D02*
X0004547Y0108363D01*
X0004547Y0107029D02*
X0004547Y0109698D01*
X0008550Y0093124D02*
X0008550Y0090455D01*
X0006548Y0090455D02*
X0006548Y0091789D01*
X0004547Y0076550D02*
X0004547Y0073881D01*
X0006548Y0073881D02*
X0006548Y0075215D01*
X0026000Y0106500D02*
X0038500Y0106500D01*
X0036000Y0109000D01*
X0036000Y0114000D01*
X0038500Y0116500D01*
X0043500Y0116500D01*
X0046000Y0114000D01*
X0048500Y0116500D01*
X0053500Y0116500D01*
X0056000Y0114000D01*
X0058500Y0116500D01*
X0063500Y0116500D01*
X0066000Y0114000D01*
X0068500Y0116500D01*
X0073500Y0116500D01*
X0076000Y0114000D01*
X0078500Y0116500D01*
X0083500Y0116500D01*
X0086000Y0114000D01*
X0088500Y0116500D01*
X0093500Y0116500D01*
X0096000Y0114000D01*
X0098500Y0116500D01*
X0103500Y0116500D01*
X0106000Y0114000D01*
X0108500Y0116500D01*
X0113500Y0116500D01*
X0116000Y0114000D01*
X0118500Y0116500D01*
X0123500Y0116500D01*
X0126000Y0114000D01*
X0128500Y0116500D01*
X0133500Y0116500D01*
X0136000Y0114000D01*
X0138500Y0116500D01*
X0143500Y0116500D01*
X0146000Y0114000D01*
X0148500Y0116500D01*
X0153500Y0116500D01*
X0156000Y0114000D01*
X0158500Y0116500D01*
X0163500Y0116500D01*
X0166000Y0114000D01*
X0168500Y0116500D01*
X0173500Y0116500D01*
X0176000Y0114000D01*
X0178500Y0116500D01*
X0183500Y0116500D01*
X0186000Y0114000D01*
X0186000Y0109000D01*
X0183500Y0106500D01*
X0178500Y0106500D02*
X0196000Y0106500D01*
X0196000Y0129000D01*
X0193500Y0126500D01*
X0188500Y0126500D01*
X0186000Y0129000D01*
X0183500Y0126500D01*
X0178500Y0126500D01*
X0176000Y0129000D01*
X0176000Y0134000D01*
X0178500Y0136500D01*
X0176000Y0139000D01*
X0176000Y0144000D01*
X0178500Y0146500D01*
X0176000Y0149000D01*
X0176000Y0154000D01*
X0178500Y0156500D01*
X0183500Y0156500D01*
X0186000Y0154000D01*
X0188500Y0156500D01*
X0193500Y0156500D01*
X0196000Y0154000D01*
X0196000Y0129000D01*
X0213000Y0130500D02*
X0309000Y0130500D01*
X0309000Y0002500D01*
X0213000Y0002500D01*
X0213000Y0130500D01*
X0215724Y0111776D02*
X0306276Y0111776D01*
X0306276Y0021224D01*
X0215724Y0021224D01*
X0215724Y0111776D01*
X0218500Y0081500D02*
X0223500Y0081500D01*
X0226000Y0079000D01*
X0226000Y0074000D01*
X0223500Y0071500D01*
X0226000Y0069000D01*
X0226000Y0064000D01*
X0223500Y0061500D01*
X0226000Y0059000D01*
X0226000Y0054000D01*
X0223500Y0051500D01*
X0218500Y0051500D01*
X0216000Y0054000D01*
X0216000Y0059000D01*
X0218500Y0061500D01*
X0216000Y0064000D01*
X0216000Y0069000D01*
X0218500Y0071500D01*
X0216000Y0074000D01*
X0216000Y0079000D01*
X0218500Y0081500D01*
X0256000Y0066500D02*
X0266000Y0066500D01*
X0215724Y0066500D02*
X0215738Y0067611D01*
X0215779Y0068722D01*
X0215847Y0069831D01*
X0215942Y0070938D01*
X0216064Y0072042D01*
X0216214Y0073143D01*
X0216391Y0074240D01*
X0216594Y0075333D01*
X0216824Y0076420D01*
X0217081Y0077501D01*
X0217364Y0078576D01*
X0217674Y0079643D01*
X0218009Y0080702D01*
X0218371Y0081753D01*
X0218758Y0082795D01*
X0219170Y0083826D01*
X0219608Y0084848D01*
X0220071Y0085858D01*
X0220558Y0086857D01*
X0221070Y0087843D01*
X0221606Y0088816D01*
X0222165Y0089777D01*
X0222748Y0090723D01*
X0223354Y0091654D01*
X0223983Y0092570D01*
X0224634Y0093471D01*
X0225307Y0094355D01*
X0226001Y0095223D01*
X0226717Y0096073D01*
X0227453Y0096906D01*
X0228209Y0097720D01*
X0228985Y0098515D01*
X0229780Y0099291D01*
X0230594Y0100047D01*
X0231427Y0100783D01*
X0232277Y0101499D01*
X0233145Y0102193D01*
X0234029Y0102866D01*
X0234930Y0103517D01*
X0235846Y0104146D01*
X0236777Y0104752D01*
X0237723Y0105335D01*
X0238684Y0105894D01*
X0239657Y0106430D01*
X0240643Y0106942D01*
X0241642Y0107429D01*
X0242652Y0107892D01*
X0243674Y0108330D01*
X0244705Y0108742D01*
X0245747Y0109129D01*
X0246798Y0109491D01*
X0247857Y0109826D01*
X0248924Y0110136D01*
X0249999Y0110419D01*
X0251080Y0110676D01*
X0252167Y0110906D01*
X0253260Y0111109D01*
X0254357Y0111286D01*
X0255458Y0111436D01*
X0256562Y0111558D01*
X0257669Y0111653D01*
X0258778Y0111721D01*
X0259889Y0111762D01*
X0261000Y0111776D01*
X0262111Y0111762D01*
X0263222Y0111721D01*
X0264331Y0111653D01*
X0265438Y0111558D01*
X0266542Y0111436D01*
X0267643Y0111286D01*
X0268740Y0111109D01*
X0269833Y0110906D01*
X0270920Y0110676D01*
X0272001Y0110419D01*
X0273076Y0110136D01*
X0274143Y0109826D01*
X0275202Y0109491D01*
X0276253Y0109129D01*
X0277295Y0108742D01*
X0278326Y0108330D01*
X0279348Y0107892D01*
X0280358Y0107429D01*
X0281357Y0106942D01*
X0282343Y0106430D01*
X0283316Y0105894D01*
X0284277Y0105335D01*
X0285223Y0104752D01*
X0286154Y0104146D01*
X0287070Y0103517D01*
X0287971Y0102866D01*
X0288855Y0102193D01*
X0289723Y0101499D01*
X0290573Y0100783D01*
X0291406Y0100047D01*
X0292220Y0099291D01*
X0293015Y0098515D01*
X0293791Y0097720D01*
X0294547Y0096906D01*
X0295283Y0096073D01*
X0295999Y0095223D01*
X0296693Y0094355D01*
X0297366Y0093471D01*
X0298017Y0092570D01*
X0298646Y0091654D01*
X0299252Y0090723D01*
X0299835Y0089777D01*
X0300394Y0088816D01*
X0300930Y0087843D01*
X0301442Y0086857D01*
X0301929Y0085858D01*
X0302392Y0084848D01*
X0302830Y0083826D01*
X0303242Y0082795D01*
X0303629Y0081753D01*
X0303991Y0080702D01*
X0304326Y0079643D01*
X0304636Y0078576D01*
X0304919Y0077501D01*
X0305176Y0076420D01*
X0305406Y0075333D01*
X0305609Y0074240D01*
X0305786Y0073143D01*
X0305936Y0072042D01*
X0306058Y0070938D01*
X0306153Y0069831D01*
X0306221Y0068722D01*
X0306262Y0067611D01*
X0306276Y0066500D01*
X0306262Y0065389D01*
X0306221Y0064278D01*
X0306153Y0063169D01*
X0306058Y0062062D01*
X0305936Y0060958D01*
X0305786Y0059857D01*
X0305609Y0058760D01*
X0305406Y0057667D01*
X0305176Y0056580D01*
X0304919Y0055499D01*
X0304636Y0054424D01*
X0304326Y0053357D01*
X0303991Y0052298D01*
X0303629Y0051247D01*
X0303242Y0050205D01*
X0302830Y0049174D01*
X0302392Y0048152D01*
X0301929Y0047142D01*
X0301442Y0046143D01*
X0300930Y0045157D01*
X0300394Y0044184D01*
X0299835Y0043223D01*
X0299252Y0042277D01*
X0298646Y0041346D01*
X0298017Y0040430D01*
X0297366Y0039529D01*
X0296693Y0038645D01*
X0295999Y0037777D01*
X0295283Y0036927D01*
X0294547Y0036094D01*
X0293791Y0035280D01*
X0293015Y0034485D01*
X0292220Y0033709D01*
X0291406Y0032953D01*
X0290573Y0032217D01*
X0289723Y0031501D01*
X0288855Y0030807D01*
X0287971Y0030134D01*
X0287070Y0029483D01*
X0286154Y0028854D01*
X0285223Y0028248D01*
X0284277Y0027665D01*
X0283316Y0027106D01*
X0282343Y0026570D01*
X0281357Y0026058D01*
X0280358Y0025571D01*
X0279348Y0025108D01*
X0278326Y0024670D01*
X0277295Y0024258D01*
X0276253Y0023871D01*
X0275202Y0023509D01*
X0274143Y0023174D01*
X0273076Y0022864D01*
X0272001Y0022581D01*
X0270920Y0022324D01*
X0269833Y0022094D01*
X0268740Y0021891D01*
X0267643Y0021714D01*
X0266542Y0021564D01*
X0265438Y0021442D01*
X0264331Y0021347D01*
X0263222Y0021279D01*
X0262111Y0021238D01*
X0261000Y0021224D01*
X0259889Y0021238D01*
X0258778Y0021279D01*
X0257669Y0021347D01*
X0256562Y0021442D01*
X0255458Y0021564D01*
X0254357Y0021714D01*
X0253260Y0021891D01*
X0252167Y0022094D01*
X0251080Y0022324D01*
X0249999Y0022581D01*
X0248924Y0022864D01*
X0247857Y0023174D01*
X0246798Y0023509D01*
X0245747Y0023871D01*
X0244705Y0024258D01*
X0243674Y0024670D01*
X0242652Y0025108D01*
X0241642Y0025571D01*
X0240643Y0026058D01*
X0239657Y0026570D01*
X0238684Y0027106D01*
X0237723Y0027665D01*
X0236777Y0028248D01*
X0235846Y0028854D01*
X0234930Y0029483D01*
X0234029Y0030134D01*
X0233145Y0030807D01*
X0232277Y0031501D01*
X0231427Y0032217D01*
X0230594Y0032953D01*
X0229780Y0033709D01*
X0228985Y0034485D01*
X0228209Y0035280D01*
X0227453Y0036094D01*
X0226717Y0036927D01*
X0226001Y0037777D01*
X0225307Y0038645D01*
X0224634Y0039529D01*
X0223983Y0040430D01*
X0223354Y0041346D01*
X0222748Y0042277D01*
X0222165Y0043223D01*
X0221606Y0044184D01*
X0221070Y0045157D01*
X0220558Y0046143D01*
X0220071Y0047142D01*
X0219608Y0048152D01*
X0219170Y0049174D01*
X0218758Y0050205D01*
X0218371Y0051247D01*
X0218009Y0052298D01*
X0217674Y0053357D01*
X0217364Y0054424D01*
X0217081Y0055499D01*
X0216824Y0056580D01*
X0216594Y0057667D01*
X0216391Y0058760D01*
X0216214Y0059857D01*
X0216064Y0060958D01*
X0215942Y0062062D01*
X0215847Y0063169D01*
X0215779Y0064278D01*
X0215738Y0065389D01*
X0215724Y0066500D01*
X0261000Y0071500D02*
X0261000Y0061500D01*
X0205075Y0008386D02*
X0204408Y0009053D01*
X0202406Y0009053D01*
X0202406Y0005050D01*
X0202406Y0006384D02*
X0204408Y0006384D01*
X0205075Y0007052D01*
X0205075Y0008386D01*
X0203741Y0006384D02*
X0205075Y0005050D01*
X0200932Y0005050D02*
X0198263Y0005050D01*
X0198263Y0009053D01*
X0200932Y0009053D01*
X0199597Y0007052D02*
X0198263Y0007052D01*
X0196788Y0009053D02*
X0194119Y0009053D01*
X0195454Y0009053D02*
X0195454Y0005050D01*
X0192645Y0005050D02*
X0189976Y0005050D01*
X0189976Y0009053D01*
X0188501Y0007719D02*
X0188501Y0005050D01*
X0188501Y0007052D02*
X0185832Y0007052D01*
X0185832Y0007719D02*
X0187167Y0009053D01*
X0188501Y0007719D01*
X0185832Y0007719D02*
X0185832Y0005050D01*
X0184358Y0005050D02*
X0184358Y0009053D01*
X0184358Y0007052D02*
X0181689Y0007052D01*
X0180214Y0008386D02*
X0179547Y0009053D01*
X0178212Y0009053D01*
X0177545Y0008386D01*
X0177545Y0005717D01*
X0178212Y0005050D01*
X0179547Y0005050D01*
X0180214Y0005717D01*
X0181689Y0005050D02*
X0181689Y0009053D01*
X0176071Y0008386D02*
X0175403Y0009053D01*
X0174069Y0009053D01*
X0173402Y0008386D01*
X0173402Y0007719D01*
X0174069Y0007052D01*
X0175403Y0007052D01*
X0176071Y0006384D01*
X0176071Y0005717D01*
X0175403Y0005050D01*
X0174069Y0005050D01*
X0173402Y0005717D01*
X0171927Y0007052D02*
X0169258Y0007052D01*
X0167784Y0005717D02*
X0167784Y0008386D01*
X0167116Y0009053D01*
X0165115Y0009053D01*
X0165115Y0005050D01*
X0167116Y0005050D01*
X0167784Y0005717D01*
X0163640Y0005050D02*
X0160971Y0005050D01*
X0160971Y0009053D01*
X0163640Y0009053D01*
X0162306Y0007052D02*
X0160971Y0007052D01*
X0159496Y0009053D02*
X0156828Y0009053D01*
X0156828Y0005050D01*
X0159496Y0005050D01*
X0158162Y0007052D02*
X0156828Y0007052D01*
X0155353Y0007052D02*
X0154686Y0006384D01*
X0152684Y0006384D01*
X0152684Y0005050D02*
X0152684Y0009053D01*
X0154686Y0009053D01*
X0155353Y0008386D01*
X0155353Y0007052D01*
X0154018Y0006384D02*
X0155353Y0005050D01*
X0145075Y0005717D02*
X0144408Y0005050D01*
X0143074Y0005050D01*
X0142406Y0005717D01*
X0145075Y0008386D01*
X0145075Y0005717D01*
X0142406Y0005717D02*
X0142406Y0008386D01*
X0143074Y0009053D01*
X0144408Y0009053D01*
X0145075Y0008386D01*
X0140932Y0009053D02*
X0138263Y0009053D01*
X0138263Y0007052D01*
X0139597Y0007719D01*
X0140265Y0007719D01*
X0140932Y0007052D01*
X0140932Y0005717D01*
X0140265Y0005050D01*
X0138930Y0005050D01*
X0138263Y0005717D01*
X0136788Y0008386D02*
X0134119Y0005717D01*
X0134119Y0005050D01*
X0132645Y0005050D02*
X0129976Y0005050D01*
X0131310Y0005050D02*
X0131310Y0009053D01*
X0129976Y0007719D01*
X0128501Y0007052D02*
X0125832Y0007052D01*
X0124358Y0007719D02*
X0123690Y0007052D01*
X0121689Y0007052D01*
X0121689Y0009053D02*
X0121689Y0005050D01*
X0123690Y0005050D01*
X0124358Y0005717D01*
X0124358Y0006384D01*
X0123690Y0007052D01*
X0124358Y0007719D02*
X0124358Y0008386D01*
X0123690Y0009053D01*
X0121689Y0009053D01*
X0125832Y0009053D02*
X0125832Y0005050D01*
X0128501Y0005050D02*
X0128501Y0009053D01*
X0134119Y0009053D02*
X0136788Y0009053D01*
X0136788Y0008386D01*
X0070075Y0008386D02*
X0070075Y0005717D01*
X0069408Y0005050D01*
X0068074Y0005050D01*
X0067406Y0005717D01*
X0070075Y0008386D01*
X0069408Y0009053D01*
X0068074Y0009053D01*
X0067406Y0008386D01*
X0067406Y0005717D01*
X0065932Y0005717D02*
X0065265Y0005050D01*
X0063930Y0005050D01*
X0063263Y0005717D01*
X0063263Y0006384D01*
X0063930Y0007052D01*
X0065265Y0007052D01*
X0065932Y0006384D01*
X0065932Y0005717D01*
X0065265Y0007052D02*
X0065932Y0007719D01*
X0065932Y0008386D01*
X0065265Y0009053D01*
X0063930Y0009053D01*
X0063263Y0008386D01*
X0063263Y0007719D01*
X0063930Y0007052D01*
X0061788Y0005050D02*
X0059119Y0005050D01*
X0060454Y0005050D02*
X0060454Y0009053D01*
X0059119Y0007719D01*
X0057645Y0008386D02*
X0057645Y0007052D01*
X0056978Y0006384D01*
X0054976Y0006384D01*
X0054976Y0005050D02*
X0054976Y0009053D01*
X0056978Y0009053D01*
X0057645Y0008386D01*
X0053501Y0009053D02*
X0053501Y0005050D01*
X0050832Y0005050D02*
X0050832Y0009053D01*
X0052167Y0007719D01*
X0053501Y0009053D01*
X0049358Y0008386D02*
X0049358Y0007719D01*
X0048690Y0007052D01*
X0046689Y0007052D01*
X0046689Y0009053D02*
X0046689Y0005050D01*
X0048690Y0005050D01*
X0049358Y0005717D01*
X0049358Y0006384D01*
X0048690Y0007052D01*
X0049358Y0008386D02*
X0048690Y0009053D01*
X0046689Y0009053D01*
X0048500Y0106500D02*
X0043500Y0106500D01*
X0046000Y0109000D01*
X0048500Y0106500D01*
X0053500Y0106500D01*
X0056000Y0109000D01*
X0058500Y0106500D01*
X0063500Y0106500D01*
X0066000Y0109000D01*
X0068500Y0106500D01*
X0063500Y0106500D02*
X0073500Y0106500D01*
X0076000Y0109000D01*
X0078500Y0106500D01*
X0083500Y0106500D01*
X0086000Y0109000D01*
X0088500Y0106500D01*
X0093500Y0106500D01*
X0096000Y0109000D01*
X0098500Y0106500D01*
X0103500Y0106500D01*
X0106000Y0109000D01*
X0108500Y0106500D01*
X0113500Y0106500D01*
X0116000Y0109000D01*
X0118500Y0106500D01*
X0123500Y0106500D01*
X0126000Y0109000D01*
X0128500Y0106500D01*
X0133500Y0106500D01*
X0136000Y0109000D01*
X0138500Y0106500D01*
X0143500Y0106500D01*
X0146000Y0109000D01*
X0148500Y0106500D01*
X0153500Y0106500D01*
X0156000Y0109000D01*
X0158500Y0106500D01*
X0163500Y0106500D01*
X0166000Y0109000D01*
X0168500Y0106500D01*
X0173500Y0106500D01*
X0176000Y0109000D01*
X0178500Y0106500D01*
X0173500Y0106500D01*
X0168500Y0106500D02*
X0163500Y0106500D01*
X0158500Y0106500D02*
X0153500Y0106500D01*
X0148500Y0106500D02*
X0143500Y0106500D01*
X0138500Y0106500D02*
X0133500Y0106500D01*
X0128500Y0106500D02*
X0123500Y0106500D01*
X0118500Y0106500D02*
X0113500Y0106500D01*
X0108500Y0106500D02*
X0103500Y0106500D01*
X0098500Y0106500D02*
X0093500Y0106500D01*
X0088500Y0106500D02*
X0083500Y0106500D01*
X0078500Y0106500D02*
X0073500Y0106500D01*
X0058500Y0106500D02*
X0053500Y0106500D01*
X0043500Y0106500D02*
X0038500Y0106500D01*
X0026000Y0106500D02*
X0026000Y0129000D01*
X0021000Y0129000D01*
X0021000Y0154000D01*
X0026000Y0154000D01*
X0056000Y0154000D01*
X0056000Y0129000D01*
X0026000Y0129000D01*
X0026000Y0154000D02*
X0026000Y0176500D01*
X0038500Y0176500D01*
X0036000Y0174000D01*
X0036000Y0169000D01*
X0038500Y0166500D01*
X0043500Y0166500D01*
X0046000Y0169000D01*
X0048500Y0166500D01*
X0053500Y0166500D01*
X0056000Y0169000D01*
X0058500Y0166500D01*
X0063500Y0166500D01*
X0066000Y0169000D01*
X0068500Y0166500D01*
X0073500Y0166500D01*
X0076000Y0169000D01*
X0078500Y0166500D01*
X0083500Y0166500D01*
X0086000Y0169000D01*
X0088500Y0166500D01*
X0093500Y0166500D01*
X0096000Y0169000D01*
X0098500Y0166500D01*
X0103500Y0166500D01*
X0106000Y0169000D01*
X0108500Y0166500D01*
X0113500Y0166500D01*
X0116000Y0169000D01*
X0118500Y0166500D01*
X0123500Y0166500D01*
X0126000Y0169000D01*
X0128500Y0166500D01*
X0133500Y0166500D01*
X0136000Y0169000D01*
X0138500Y0166500D01*
X0143500Y0166500D01*
X0146000Y0169000D01*
X0148500Y0166500D01*
X0153500Y0166500D01*
X0156000Y0169000D01*
X0158500Y0166500D01*
X0163500Y0166500D01*
X0166000Y0169000D01*
X0168500Y0166500D01*
X0173500Y0166500D01*
X0176000Y0169000D01*
X0178500Y0166500D01*
X0183500Y0166500D01*
X0186000Y0169000D01*
X0186000Y0174000D01*
X0183500Y0176500D01*
X0178500Y0176500D02*
X0176000Y0174000D01*
X0173500Y0176500D01*
X0158500Y0176500D01*
X0156000Y0174000D01*
X0153500Y0176500D01*
X0148500Y0176500D02*
X0146000Y0174000D01*
X0143500Y0176500D01*
X0138500Y0176500D02*
X0136000Y0174000D01*
X0133500Y0176500D01*
X0128500Y0176500D02*
X0126000Y0174000D01*
X0123500Y0176500D01*
X0118500Y0176500D02*
X0116000Y0174000D01*
X0113500Y0176500D01*
X0108500Y0176500D02*
X0106000Y0174000D01*
X0103500Y0176500D01*
X0098500Y0176500D02*
X0096000Y0174000D01*
X0093500Y0176500D01*
X0063500Y0176500D01*
X0066000Y0174000D01*
X0068500Y0176500D01*
X0073500Y0176500D02*
X0076000Y0174000D01*
X0078500Y0176500D01*
X0083500Y0176500D02*
X0086000Y0174000D01*
X0088500Y0176500D01*
X0093500Y0176500D02*
X0158500Y0176500D01*
X0163500Y0176500D02*
X0166000Y0174000D01*
X0168500Y0176500D01*
X0173500Y0176500D02*
X0196000Y0176500D01*
X0196000Y0154000D01*
X0154400Y0204000D02*
X0154400Y0263000D01*
X0243000Y0263000D01*
X0243000Y0204000D01*
X0154400Y0204000D01*
X0158500Y0221500D02*
X0156000Y0224000D01*
X0156000Y0229000D01*
X0158500Y0231500D01*
X0156000Y0234000D01*
X0156000Y0239000D01*
X0158500Y0241500D01*
X0156000Y0244000D01*
X0156000Y0249000D01*
X0158500Y0251500D01*
X0156000Y0254000D01*
X0156000Y0259000D01*
X0158500Y0261500D01*
X0173500Y0261500D01*
X0176000Y0259000D01*
X0176000Y0254000D01*
X0173500Y0251500D01*
X0176000Y0249000D01*
X0176000Y0244000D01*
X0173500Y0241500D01*
X0176000Y0239000D01*
X0176000Y0234000D01*
X0173500Y0231500D01*
X0176000Y0229000D01*
X0176000Y0224000D01*
X0173500Y0221500D01*
X0168500Y0221500D01*
X0166000Y0224000D01*
X0163500Y0221500D01*
X0158500Y0221500D01*
X0158720Y0263950D02*
X0158720Y0267953D01*
X0160054Y0267953D02*
X0157385Y0267953D01*
X0153242Y0267953D02*
X0153242Y0263950D01*
X0155911Y0263950D01*
X0151767Y0263950D02*
X0151767Y0266619D01*
X0150433Y0267953D01*
X0149098Y0266619D01*
X0149098Y0263950D01*
X0147624Y0263950D02*
X0147624Y0267953D01*
X0147624Y0265952D02*
X0144955Y0265952D01*
X0143480Y0267286D02*
X0142813Y0267953D01*
X0141478Y0267953D01*
X0140811Y0267286D01*
X0140811Y0264617D01*
X0141478Y0263950D01*
X0142813Y0263950D01*
X0143480Y0264617D01*
X0144955Y0263950D02*
X0144955Y0267953D01*
X0149098Y0265952D02*
X0151767Y0265952D01*
X0161529Y0265952D02*
X0162863Y0265952D01*
X0161529Y0267953D02*
X0161529Y0263950D01*
X0164198Y0263950D01*
X0165672Y0263950D02*
X0165672Y0267953D01*
X0167674Y0267953D01*
X0168341Y0267286D01*
X0168341Y0265952D01*
X0167674Y0265284D01*
X0165672Y0265284D01*
X0167007Y0265284D02*
X0168341Y0263950D01*
X0169816Y0263950D02*
X0172485Y0263950D01*
X0171151Y0263950D02*
X0171151Y0267953D01*
X0169816Y0266619D01*
X0164198Y0267953D02*
X0161529Y0267953D01*
X0139337Y0267286D02*
X0138669Y0267953D01*
X0137335Y0267953D01*
X0136668Y0267286D01*
X0136668Y0266619D01*
X0137335Y0265952D01*
X0138669Y0265952D01*
X0139337Y0265284D01*
X0139337Y0264617D01*
X0138669Y0263950D01*
X0137335Y0263950D01*
X0136668Y0264617D01*
X0135193Y0265952D02*
X0132524Y0265952D01*
X0131050Y0264617D02*
X0131050Y0267286D01*
X0130382Y0267953D01*
X0128381Y0267953D01*
X0128381Y0263950D01*
X0130382Y0263950D01*
X0131050Y0264617D01*
X0126906Y0263950D02*
X0124237Y0263950D01*
X0124237Y0267953D01*
X0126906Y0267953D01*
X0125572Y0265952D02*
X0124237Y0265952D01*
X0122762Y0267953D02*
X0120094Y0267953D01*
X0120094Y0263950D01*
X0122762Y0263950D01*
X0121428Y0265952D02*
X0120094Y0265952D01*
X0118619Y0265952D02*
X0117952Y0265284D01*
X0115950Y0265284D01*
X0115950Y0263950D02*
X0115950Y0267953D01*
X0117952Y0267953D01*
X0118619Y0267286D01*
X0118619Y0265952D01*
X0117284Y0265284D02*
X0118619Y0263950D01*
X0111243Y0263950D02*
X0108574Y0263950D01*
X0108574Y0267953D01*
X0111243Y0267953D01*
X0109908Y0265952D02*
X0108574Y0265952D01*
X0107146Y0267953D02*
X0105811Y0267953D01*
X0106478Y0267953D02*
X0106478Y0263950D01*
X0105811Y0263950D02*
X0107146Y0263950D01*
X0104337Y0263950D02*
X0103002Y0265284D01*
X0103669Y0265284D02*
X0101668Y0265284D01*
X0101668Y0263950D02*
X0101668Y0267953D01*
X0103669Y0267953D01*
X0104337Y0267286D01*
X0104337Y0265952D01*
X0103669Y0265284D01*
X0100193Y0263950D02*
X0097524Y0263950D01*
X0097524Y0267953D01*
X0100193Y0267953D01*
X0098859Y0265952D02*
X0097524Y0265952D01*
X0096050Y0267953D02*
X0093381Y0267953D01*
X0094715Y0267953D02*
X0094715Y0263950D01*
X0090572Y0263950D02*
X0090572Y0267953D01*
X0091906Y0267953D02*
X0089237Y0267953D01*
X0087762Y0266619D02*
X0087762Y0263950D01*
X0087762Y0265952D02*
X0085094Y0265952D01*
X0085094Y0266619D02*
X0086428Y0267953D01*
X0087762Y0266619D01*
X0085094Y0266619D02*
X0085094Y0263950D01*
X0083619Y0264617D02*
X0082952Y0263950D01*
X0080950Y0263950D01*
X0080950Y0267953D01*
X0082952Y0267953D01*
X0083619Y0267286D01*
X0083619Y0266619D01*
X0082952Y0265952D01*
X0080950Y0265952D01*
X0082952Y0265952D02*
X0083619Y0265284D01*
X0083619Y0264617D01*
X0075724Y0253350D02*
X0016276Y0253350D01*
X0016276Y0276972D01*
X0075724Y0276972D01*
X0075724Y0253350D01*
X0075724Y0246657D01*
X0016276Y0246657D01*
X0016276Y0253350D01*
X0059250Y0227254D02*
X0059250Y0222750D01*
X0059250Y0224251D02*
X0061502Y0224251D01*
X0062253Y0225002D01*
X0062253Y0226503D01*
X0061502Y0227254D01*
X0059250Y0227254D01*
X0060751Y0224251D02*
X0062253Y0222750D01*
X0063854Y0222750D02*
X0066856Y0222750D01*
X0065355Y0222750D02*
X0065355Y0227254D01*
X0063854Y0225753D01*
X0064605Y0207254D02*
X0063854Y0206503D01*
X0064605Y0207254D02*
X0066106Y0207254D01*
X0066856Y0206503D01*
X0066856Y0205753D01*
X0063854Y0202750D01*
X0066856Y0202750D01*
X0062253Y0202750D02*
X0060751Y0204251D01*
X0061502Y0204251D02*
X0059250Y0204251D01*
X0059250Y0202750D02*
X0059250Y0207254D01*
X0061502Y0207254D01*
X0062253Y0206503D01*
X0062253Y0205002D01*
X0061502Y0204251D01*
X0063500Y0176500D02*
X0058500Y0176500D01*
X0056000Y0174000D01*
X0053500Y0176500D01*
X0048500Y0176500D01*
X0046000Y0174000D01*
X0043500Y0176500D01*
X0038500Y0176500D01*
X0043500Y0176500D02*
X0048500Y0176500D01*
X0053500Y0176500D02*
X0058500Y0176500D01*
X0008550Y0191450D02*
X0008550Y0194119D01*
X0008550Y0192784D02*
X0004547Y0192784D01*
X0005881Y0191450D01*
X0006548Y0195594D02*
X0006548Y0198262D01*
X0004547Y0199737D02*
X0008550Y0199737D01*
X0007216Y0201072D01*
X0008550Y0202406D01*
X0004547Y0202406D01*
X0004547Y0203881D02*
X0004547Y0205215D01*
X0004547Y0204548D02*
X0008550Y0204548D01*
X0008550Y0203881D02*
X0008550Y0205215D01*
X0008550Y0206643D02*
X0004547Y0206643D01*
X0004547Y0208645D01*
X0005214Y0209312D01*
X0006548Y0209312D01*
X0007216Y0208645D01*
X0007216Y0206643D01*
X0007216Y0207977D02*
X0008550Y0209312D01*
X0008550Y0210787D02*
X0008550Y0213455D01*
X0006548Y0212121D02*
X0006548Y0210787D01*
X0004547Y0210787D02*
X0008550Y0210787D01*
X0004547Y0210787D02*
X0004547Y0213455D01*
X0116000Y0146500D02*
X0116000Y0131500D01*
X0126000Y0131500D01*
X0126000Y0146500D01*
X0116000Y0146500D01*
X0118000Y0139000D02*
X0118002Y0139109D01*
X0118008Y0139218D01*
X0118018Y0139326D01*
X0118032Y0139434D01*
X0118049Y0139542D01*
X0118071Y0139649D01*
X0118096Y0139755D01*
X0118126Y0139859D01*
X0118159Y0139963D01*
X0118196Y0140066D01*
X0118236Y0140167D01*
X0118280Y0140266D01*
X0118328Y0140364D01*
X0118380Y0140461D01*
X0118434Y0140555D01*
X0118492Y0140647D01*
X0118554Y0140737D01*
X0118619Y0140824D01*
X0118686Y0140910D01*
X0118757Y0140993D01*
X0118831Y0141073D01*
X0118908Y0141150D01*
X0118987Y0141225D01*
X0119069Y0141296D01*
X0119154Y0141365D01*
X0119241Y0141430D01*
X0119330Y0141493D01*
X0119422Y0141551D01*
X0119516Y0141607D01*
X0119611Y0141659D01*
X0119709Y0141708D01*
X0119808Y0141753D01*
X0119909Y0141795D01*
X0120011Y0141832D01*
X0120114Y0141866D01*
X0120219Y0141897D01*
X0120325Y0141923D01*
X0120431Y0141946D01*
X0120539Y0141964D01*
X0120647Y0141979D01*
X0120755Y0141990D01*
X0120864Y0141997D01*
X0120973Y0142000D01*
X0121082Y0141999D01*
X0121191Y0141994D01*
X0121299Y0141985D01*
X0121407Y0141972D01*
X0121515Y0141955D01*
X0121622Y0141935D01*
X0121728Y0141910D01*
X0121833Y0141882D01*
X0121937Y0141850D01*
X0122040Y0141814D01*
X0122142Y0141774D01*
X0122242Y0141731D01*
X0122340Y0141684D01*
X0122437Y0141634D01*
X0122531Y0141580D01*
X0122624Y0141522D01*
X0122715Y0141462D01*
X0122803Y0141398D01*
X0122889Y0141331D01*
X0122972Y0141261D01*
X0123053Y0141188D01*
X0123131Y0141112D01*
X0123206Y0141033D01*
X0123279Y0140951D01*
X0123348Y0140867D01*
X0123414Y0140781D01*
X0123477Y0140692D01*
X0123537Y0140601D01*
X0123594Y0140508D01*
X0123647Y0140413D01*
X0123696Y0140316D01*
X0123742Y0140217D01*
X0123784Y0140117D01*
X0123823Y0140015D01*
X0123858Y0139911D01*
X0123889Y0139807D01*
X0123917Y0139702D01*
X0123940Y0139595D01*
X0123960Y0139488D01*
X0123976Y0139380D01*
X0123988Y0139272D01*
X0123996Y0139163D01*
X0124000Y0139054D01*
X0124000Y0138946D01*
X0123996Y0138837D01*
X0123988Y0138728D01*
X0123976Y0138620D01*
X0123960Y0138512D01*
X0123940Y0138405D01*
X0123917Y0138298D01*
X0123889Y0138193D01*
X0123858Y0138089D01*
X0123823Y0137985D01*
X0123784Y0137883D01*
X0123742Y0137783D01*
X0123696Y0137684D01*
X0123647Y0137587D01*
X0123594Y0137492D01*
X0123537Y0137399D01*
X0123477Y0137308D01*
X0123414Y0137219D01*
X0123348Y0137133D01*
X0123279Y0137049D01*
X0123206Y0136967D01*
X0123131Y0136888D01*
X0123053Y0136812D01*
X0122972Y0136739D01*
X0122889Y0136669D01*
X0122803Y0136602D01*
X0122715Y0136538D01*
X0122624Y0136478D01*
X0122531Y0136420D01*
X0122437Y0136366D01*
X0122340Y0136316D01*
X0122242Y0136269D01*
X0122142Y0136226D01*
X0122040Y0136186D01*
X0121937Y0136150D01*
X0121833Y0136118D01*
X0121728Y0136090D01*
X0121622Y0136065D01*
X0121515Y0136045D01*
X0121407Y0136028D01*
X0121299Y0136015D01*
X0121191Y0136006D01*
X0121082Y0136001D01*
X0120973Y0136000D01*
X0120864Y0136003D01*
X0120755Y0136010D01*
X0120647Y0136021D01*
X0120539Y0136036D01*
X0120431Y0136054D01*
X0120325Y0136077D01*
X0120219Y0136103D01*
X0120114Y0136134D01*
X0120011Y0136168D01*
X0119909Y0136205D01*
X0119808Y0136247D01*
X0119709Y0136292D01*
X0119611Y0136341D01*
X0119516Y0136393D01*
X0119422Y0136449D01*
X0119330Y0136507D01*
X0119241Y0136570D01*
X0119154Y0136635D01*
X0119069Y0136704D01*
X0118987Y0136775D01*
X0118908Y0136850D01*
X0118831Y0136927D01*
X0118757Y0137007D01*
X0118686Y0137090D01*
X0118619Y0137176D01*
X0118554Y0137263D01*
X0118492Y0137353D01*
X0118434Y0137445D01*
X0118380Y0137539D01*
X0118328Y0137636D01*
X0118280Y0137734D01*
X0118236Y0137833D01*
X0118196Y0137934D01*
X0118159Y0138037D01*
X0118126Y0138141D01*
X0118096Y0138245D01*
X0118071Y0138351D01*
X0118049Y0138458D01*
X0118032Y0138566D01*
X0118018Y0138674D01*
X0118008Y0138782D01*
X0118002Y0138891D01*
X0118000Y0139000D01*
X0243000Y0204000D02*
X0268600Y0204000D01*
X0268600Y0263000D01*
X0243000Y0263000D01*
D16*
X0085200Y0216500D03*
X0085200Y0196500D03*
X0056800Y0196500D03*
X0056800Y0216500D03*
D17*
X0236350Y0197104D02*
X0236350Y0196054D01*
X0237401Y0195003D01*
X0239503Y0195003D01*
X0240554Y0193952D01*
X0240554Y0192901D01*
X0239503Y0191850D01*
X0237401Y0191850D01*
X0236350Y0192901D01*
X0236350Y0197104D02*
X0237401Y0198155D01*
X0239503Y0198155D01*
X0240554Y0197104D01*
X0242795Y0196054D02*
X0244897Y0198155D01*
X0244897Y0191850D01*
X0242795Y0191850D02*
X0246999Y0191850D01*
M02*
