%
M48
M72
T01C0.03150
T02C0.03200
T03C0.03937
T04C0.04000
T05C0.06500
T06C0.07087
T07C0.07900
T08C0.11024
%
T01
X31000Y256500
X41000Y256500
X51000Y256500
X61000Y256500
T02
X51000Y216500
X51000Y196500
X91000Y196500
X91000Y216500
T03
X41000Y171500
X51000Y171500
X61000Y171500
X71000Y171500
X81000Y171500
X91000Y171500
X101000Y171500
X111000Y171500
X121000Y171500
X131000Y171500
X141000Y171500
X151000Y171500
X161000Y171500
X171000Y171500
X181000Y171500
X191000Y151500
X181000Y151500
X181000Y141500
X181000Y131500
X191000Y131500
X191000Y141500
X181000Y111500
X171000Y111500
X161000Y111500
X151000Y111500
X141000Y111500
X131000Y111500
X121000Y111500
X111000Y111500
X101000Y111500
X91000Y111500
X81000Y111500
X71000Y111500
X61000Y111500
X51000Y111500
X41000Y111500
X221000Y56500
X221000Y66500
X221000Y76500
X171000Y226500
X171000Y236500
X171000Y246500
X171000Y256500
X161000Y256500
X161000Y246500
X161000Y236500
X161000Y226500
T04
X26000Y16500
X36000Y16500
X46000Y16500
X56000Y16500
X66000Y16500
X101000Y16500
X111000Y16500
X121000Y16500
X131000Y16500
X141000Y16500
X191000Y16500
X201000Y16500
X131000Y256500
X121000Y256500
X96000Y256500
X86000Y256500
X16000Y216500
X16000Y206500
X16000Y196500
X16000Y96500
X16000Y86500
X16000Y76500
X16000Y66500
T05
X31000Y171500
X31000Y111500
X191000Y111500
X191000Y171500
T06
X261000Y122012
X261000Y10988
T07
X246000Y145700
X246000Y161500
X246000Y177300
T08
X11000Y266500
X11000Y11500
X261000Y11500
X261000Y266500
M30
