%
M48
M72
T01C0.03150
T02C0.03200
T03C0.03937
T04C0.04000
T05C0.06500
T06C0.07087
T07C0.07900
%
T01
X44365Y256000
X54365Y256000
X64365Y256000
X74365Y256000
T02
X64365Y196000
X64365Y216000
X104365Y216000
X104365Y196000
T03
X54365Y111000
X64365Y111000
X74365Y111000
X84365Y111000
X94365Y111000
X104365Y111000
X114365Y111000
X124365Y111000
X134365Y111000
X144365Y111000
X154365Y111000
X164365Y111000
X174365Y111000
X184365Y111000
X194365Y111000
X204365Y131000
X194365Y131000
X194365Y141000
X204365Y141000
X204365Y151000
X194365Y151000
X194365Y171000
X184365Y171000
X174365Y171000
X164365Y171000
X154365Y171000
X144365Y171000
X134365Y171000
X124365Y171000
X114365Y171000
X104365Y171000
X94365Y171000
X84365Y171000
X74365Y171000
X64365Y171000
X54365Y171000
X174365Y226000
X174365Y236000
X184365Y236000
X184365Y226000
X184365Y246000
X174365Y246000
X174365Y256000
X184365Y256000
X234365Y76000
X234365Y66000
X234365Y56000
T04
X39365Y16000
X49365Y16000
X59365Y16000
X69365Y16000
X79365Y16000
X114365Y16000
X124365Y16000
X134365Y16000
X144365Y16000
X154365Y16000
X204365Y16000
X214365Y16000
X144365Y256000
X134365Y256000
X109365Y256000
X99365Y256000
X29365Y216000
X29365Y206000
X29365Y196000
X29365Y96000
X29365Y86000
X29365Y76000
X29365Y66000
T05
X44365Y111000
X44365Y171000
X204365Y171000
X204365Y111000
T06
X274365Y121512
X274365Y10488
T07
X259365Y176800
X259365Y161000
X259365Y145200
M30
