G75*
%MOIN*%
%OFA0B0*%
%FSLAX25Y25*%
%IPPOS*%
%LPD*%
%AMOC8*
5,1,8,0,0,1.08239X$1,22.5*
%
%ADD10C,0.00000*%
%ADD11C,0.00300*%
%ADD12C,0.00400*%
%ADD13C,0.04700*%
%ADD14C,0.01600*%
%ADD15C,0.00600*%
%ADD16C,0.00500*%
%ADD17R,0.03400X0.02400*%
%ADD18C,0.00700*%
D10*
X0014365Y0001000D02*
X0014365Y0275961D01*
X0283066Y0275961D01*
X0283066Y0001000D01*
X0014365Y0001000D01*
X0041115Y0111000D02*
X0041117Y0111113D01*
X0041123Y0111227D01*
X0041133Y0111340D01*
X0041147Y0111452D01*
X0041164Y0111564D01*
X0041186Y0111676D01*
X0041212Y0111786D01*
X0041241Y0111896D01*
X0041274Y0112004D01*
X0041311Y0112112D01*
X0041352Y0112217D01*
X0041396Y0112322D01*
X0041444Y0112425D01*
X0041495Y0112526D01*
X0041550Y0112625D01*
X0041609Y0112722D01*
X0041671Y0112817D01*
X0041736Y0112910D01*
X0041804Y0113001D01*
X0041875Y0113089D01*
X0041950Y0113175D01*
X0042027Y0113258D01*
X0042107Y0113338D01*
X0042190Y0113415D01*
X0042276Y0113490D01*
X0042364Y0113561D01*
X0042455Y0113629D01*
X0042548Y0113694D01*
X0042643Y0113756D01*
X0042740Y0113815D01*
X0042839Y0113870D01*
X0042940Y0113921D01*
X0043043Y0113969D01*
X0043148Y0114013D01*
X0043253Y0114054D01*
X0043361Y0114091D01*
X0043469Y0114124D01*
X0043579Y0114153D01*
X0043689Y0114179D01*
X0043801Y0114201D01*
X0043913Y0114218D01*
X0044025Y0114232D01*
X0044138Y0114242D01*
X0044252Y0114248D01*
X0044365Y0114250D01*
X0044478Y0114248D01*
X0044592Y0114242D01*
X0044705Y0114232D01*
X0044817Y0114218D01*
X0044929Y0114201D01*
X0045041Y0114179D01*
X0045151Y0114153D01*
X0045261Y0114124D01*
X0045369Y0114091D01*
X0045477Y0114054D01*
X0045582Y0114013D01*
X0045687Y0113969D01*
X0045790Y0113921D01*
X0045891Y0113870D01*
X0045990Y0113815D01*
X0046087Y0113756D01*
X0046182Y0113694D01*
X0046275Y0113629D01*
X0046366Y0113561D01*
X0046454Y0113490D01*
X0046540Y0113415D01*
X0046623Y0113338D01*
X0046703Y0113258D01*
X0046780Y0113175D01*
X0046855Y0113089D01*
X0046926Y0113001D01*
X0046994Y0112910D01*
X0047059Y0112817D01*
X0047121Y0112722D01*
X0047180Y0112625D01*
X0047235Y0112526D01*
X0047286Y0112425D01*
X0047334Y0112322D01*
X0047378Y0112217D01*
X0047419Y0112112D01*
X0047456Y0112004D01*
X0047489Y0111896D01*
X0047518Y0111786D01*
X0047544Y0111676D01*
X0047566Y0111564D01*
X0047583Y0111452D01*
X0047597Y0111340D01*
X0047607Y0111227D01*
X0047613Y0111113D01*
X0047615Y0111000D01*
X0047613Y0110887D01*
X0047607Y0110773D01*
X0047597Y0110660D01*
X0047583Y0110548D01*
X0047566Y0110436D01*
X0047544Y0110324D01*
X0047518Y0110214D01*
X0047489Y0110104D01*
X0047456Y0109996D01*
X0047419Y0109888D01*
X0047378Y0109783D01*
X0047334Y0109678D01*
X0047286Y0109575D01*
X0047235Y0109474D01*
X0047180Y0109375D01*
X0047121Y0109278D01*
X0047059Y0109183D01*
X0046994Y0109090D01*
X0046926Y0108999D01*
X0046855Y0108911D01*
X0046780Y0108825D01*
X0046703Y0108742D01*
X0046623Y0108662D01*
X0046540Y0108585D01*
X0046454Y0108510D01*
X0046366Y0108439D01*
X0046275Y0108371D01*
X0046182Y0108306D01*
X0046087Y0108244D01*
X0045990Y0108185D01*
X0045891Y0108130D01*
X0045790Y0108079D01*
X0045687Y0108031D01*
X0045582Y0107987D01*
X0045477Y0107946D01*
X0045369Y0107909D01*
X0045261Y0107876D01*
X0045151Y0107847D01*
X0045041Y0107821D01*
X0044929Y0107799D01*
X0044817Y0107782D01*
X0044705Y0107768D01*
X0044592Y0107758D01*
X0044478Y0107752D01*
X0044365Y0107750D01*
X0044252Y0107752D01*
X0044138Y0107758D01*
X0044025Y0107768D01*
X0043913Y0107782D01*
X0043801Y0107799D01*
X0043689Y0107821D01*
X0043579Y0107847D01*
X0043469Y0107876D01*
X0043361Y0107909D01*
X0043253Y0107946D01*
X0043148Y0107987D01*
X0043043Y0108031D01*
X0042940Y0108079D01*
X0042839Y0108130D01*
X0042740Y0108185D01*
X0042643Y0108244D01*
X0042548Y0108306D01*
X0042455Y0108371D01*
X0042364Y0108439D01*
X0042276Y0108510D01*
X0042190Y0108585D01*
X0042107Y0108662D01*
X0042027Y0108742D01*
X0041950Y0108825D01*
X0041875Y0108911D01*
X0041804Y0108999D01*
X0041736Y0109090D01*
X0041671Y0109183D01*
X0041609Y0109278D01*
X0041550Y0109375D01*
X0041495Y0109474D01*
X0041444Y0109575D01*
X0041396Y0109678D01*
X0041352Y0109783D01*
X0041311Y0109888D01*
X0041274Y0109996D01*
X0041241Y0110104D01*
X0041212Y0110214D01*
X0041186Y0110324D01*
X0041164Y0110436D01*
X0041147Y0110548D01*
X0041133Y0110660D01*
X0041123Y0110773D01*
X0041117Y0110887D01*
X0041115Y0111000D01*
X0041115Y0171000D02*
X0041117Y0171113D01*
X0041123Y0171227D01*
X0041133Y0171340D01*
X0041147Y0171452D01*
X0041164Y0171564D01*
X0041186Y0171676D01*
X0041212Y0171786D01*
X0041241Y0171896D01*
X0041274Y0172004D01*
X0041311Y0172112D01*
X0041352Y0172217D01*
X0041396Y0172322D01*
X0041444Y0172425D01*
X0041495Y0172526D01*
X0041550Y0172625D01*
X0041609Y0172722D01*
X0041671Y0172817D01*
X0041736Y0172910D01*
X0041804Y0173001D01*
X0041875Y0173089D01*
X0041950Y0173175D01*
X0042027Y0173258D01*
X0042107Y0173338D01*
X0042190Y0173415D01*
X0042276Y0173490D01*
X0042364Y0173561D01*
X0042455Y0173629D01*
X0042548Y0173694D01*
X0042643Y0173756D01*
X0042740Y0173815D01*
X0042839Y0173870D01*
X0042940Y0173921D01*
X0043043Y0173969D01*
X0043148Y0174013D01*
X0043253Y0174054D01*
X0043361Y0174091D01*
X0043469Y0174124D01*
X0043579Y0174153D01*
X0043689Y0174179D01*
X0043801Y0174201D01*
X0043913Y0174218D01*
X0044025Y0174232D01*
X0044138Y0174242D01*
X0044252Y0174248D01*
X0044365Y0174250D01*
X0044478Y0174248D01*
X0044592Y0174242D01*
X0044705Y0174232D01*
X0044817Y0174218D01*
X0044929Y0174201D01*
X0045041Y0174179D01*
X0045151Y0174153D01*
X0045261Y0174124D01*
X0045369Y0174091D01*
X0045477Y0174054D01*
X0045582Y0174013D01*
X0045687Y0173969D01*
X0045790Y0173921D01*
X0045891Y0173870D01*
X0045990Y0173815D01*
X0046087Y0173756D01*
X0046182Y0173694D01*
X0046275Y0173629D01*
X0046366Y0173561D01*
X0046454Y0173490D01*
X0046540Y0173415D01*
X0046623Y0173338D01*
X0046703Y0173258D01*
X0046780Y0173175D01*
X0046855Y0173089D01*
X0046926Y0173001D01*
X0046994Y0172910D01*
X0047059Y0172817D01*
X0047121Y0172722D01*
X0047180Y0172625D01*
X0047235Y0172526D01*
X0047286Y0172425D01*
X0047334Y0172322D01*
X0047378Y0172217D01*
X0047419Y0172112D01*
X0047456Y0172004D01*
X0047489Y0171896D01*
X0047518Y0171786D01*
X0047544Y0171676D01*
X0047566Y0171564D01*
X0047583Y0171452D01*
X0047597Y0171340D01*
X0047607Y0171227D01*
X0047613Y0171113D01*
X0047615Y0171000D01*
X0047613Y0170887D01*
X0047607Y0170773D01*
X0047597Y0170660D01*
X0047583Y0170548D01*
X0047566Y0170436D01*
X0047544Y0170324D01*
X0047518Y0170214D01*
X0047489Y0170104D01*
X0047456Y0169996D01*
X0047419Y0169888D01*
X0047378Y0169783D01*
X0047334Y0169678D01*
X0047286Y0169575D01*
X0047235Y0169474D01*
X0047180Y0169375D01*
X0047121Y0169278D01*
X0047059Y0169183D01*
X0046994Y0169090D01*
X0046926Y0168999D01*
X0046855Y0168911D01*
X0046780Y0168825D01*
X0046703Y0168742D01*
X0046623Y0168662D01*
X0046540Y0168585D01*
X0046454Y0168510D01*
X0046366Y0168439D01*
X0046275Y0168371D01*
X0046182Y0168306D01*
X0046087Y0168244D01*
X0045990Y0168185D01*
X0045891Y0168130D01*
X0045790Y0168079D01*
X0045687Y0168031D01*
X0045582Y0167987D01*
X0045477Y0167946D01*
X0045369Y0167909D01*
X0045261Y0167876D01*
X0045151Y0167847D01*
X0045041Y0167821D01*
X0044929Y0167799D01*
X0044817Y0167782D01*
X0044705Y0167768D01*
X0044592Y0167758D01*
X0044478Y0167752D01*
X0044365Y0167750D01*
X0044252Y0167752D01*
X0044138Y0167758D01*
X0044025Y0167768D01*
X0043913Y0167782D01*
X0043801Y0167799D01*
X0043689Y0167821D01*
X0043579Y0167847D01*
X0043469Y0167876D01*
X0043361Y0167909D01*
X0043253Y0167946D01*
X0043148Y0167987D01*
X0043043Y0168031D01*
X0042940Y0168079D01*
X0042839Y0168130D01*
X0042740Y0168185D01*
X0042643Y0168244D01*
X0042548Y0168306D01*
X0042455Y0168371D01*
X0042364Y0168439D01*
X0042276Y0168510D01*
X0042190Y0168585D01*
X0042107Y0168662D01*
X0042027Y0168742D01*
X0041950Y0168825D01*
X0041875Y0168911D01*
X0041804Y0168999D01*
X0041736Y0169090D01*
X0041671Y0169183D01*
X0041609Y0169278D01*
X0041550Y0169375D01*
X0041495Y0169474D01*
X0041444Y0169575D01*
X0041396Y0169678D01*
X0041352Y0169783D01*
X0041311Y0169888D01*
X0041274Y0169996D01*
X0041241Y0170104D01*
X0041212Y0170214D01*
X0041186Y0170324D01*
X0041164Y0170436D01*
X0041147Y0170548D01*
X0041133Y0170660D01*
X0041123Y0170773D01*
X0041117Y0170887D01*
X0041115Y0171000D01*
X0201115Y0171000D02*
X0201117Y0171113D01*
X0201123Y0171227D01*
X0201133Y0171340D01*
X0201147Y0171452D01*
X0201164Y0171564D01*
X0201186Y0171676D01*
X0201212Y0171786D01*
X0201241Y0171896D01*
X0201274Y0172004D01*
X0201311Y0172112D01*
X0201352Y0172217D01*
X0201396Y0172322D01*
X0201444Y0172425D01*
X0201495Y0172526D01*
X0201550Y0172625D01*
X0201609Y0172722D01*
X0201671Y0172817D01*
X0201736Y0172910D01*
X0201804Y0173001D01*
X0201875Y0173089D01*
X0201950Y0173175D01*
X0202027Y0173258D01*
X0202107Y0173338D01*
X0202190Y0173415D01*
X0202276Y0173490D01*
X0202364Y0173561D01*
X0202455Y0173629D01*
X0202548Y0173694D01*
X0202643Y0173756D01*
X0202740Y0173815D01*
X0202839Y0173870D01*
X0202940Y0173921D01*
X0203043Y0173969D01*
X0203148Y0174013D01*
X0203253Y0174054D01*
X0203361Y0174091D01*
X0203469Y0174124D01*
X0203579Y0174153D01*
X0203689Y0174179D01*
X0203801Y0174201D01*
X0203913Y0174218D01*
X0204025Y0174232D01*
X0204138Y0174242D01*
X0204252Y0174248D01*
X0204365Y0174250D01*
X0204478Y0174248D01*
X0204592Y0174242D01*
X0204705Y0174232D01*
X0204817Y0174218D01*
X0204929Y0174201D01*
X0205041Y0174179D01*
X0205151Y0174153D01*
X0205261Y0174124D01*
X0205369Y0174091D01*
X0205477Y0174054D01*
X0205582Y0174013D01*
X0205687Y0173969D01*
X0205790Y0173921D01*
X0205891Y0173870D01*
X0205990Y0173815D01*
X0206087Y0173756D01*
X0206182Y0173694D01*
X0206275Y0173629D01*
X0206366Y0173561D01*
X0206454Y0173490D01*
X0206540Y0173415D01*
X0206623Y0173338D01*
X0206703Y0173258D01*
X0206780Y0173175D01*
X0206855Y0173089D01*
X0206926Y0173001D01*
X0206994Y0172910D01*
X0207059Y0172817D01*
X0207121Y0172722D01*
X0207180Y0172625D01*
X0207235Y0172526D01*
X0207286Y0172425D01*
X0207334Y0172322D01*
X0207378Y0172217D01*
X0207419Y0172112D01*
X0207456Y0172004D01*
X0207489Y0171896D01*
X0207518Y0171786D01*
X0207544Y0171676D01*
X0207566Y0171564D01*
X0207583Y0171452D01*
X0207597Y0171340D01*
X0207607Y0171227D01*
X0207613Y0171113D01*
X0207615Y0171000D01*
X0207613Y0170887D01*
X0207607Y0170773D01*
X0207597Y0170660D01*
X0207583Y0170548D01*
X0207566Y0170436D01*
X0207544Y0170324D01*
X0207518Y0170214D01*
X0207489Y0170104D01*
X0207456Y0169996D01*
X0207419Y0169888D01*
X0207378Y0169783D01*
X0207334Y0169678D01*
X0207286Y0169575D01*
X0207235Y0169474D01*
X0207180Y0169375D01*
X0207121Y0169278D01*
X0207059Y0169183D01*
X0206994Y0169090D01*
X0206926Y0168999D01*
X0206855Y0168911D01*
X0206780Y0168825D01*
X0206703Y0168742D01*
X0206623Y0168662D01*
X0206540Y0168585D01*
X0206454Y0168510D01*
X0206366Y0168439D01*
X0206275Y0168371D01*
X0206182Y0168306D01*
X0206087Y0168244D01*
X0205990Y0168185D01*
X0205891Y0168130D01*
X0205790Y0168079D01*
X0205687Y0168031D01*
X0205582Y0167987D01*
X0205477Y0167946D01*
X0205369Y0167909D01*
X0205261Y0167876D01*
X0205151Y0167847D01*
X0205041Y0167821D01*
X0204929Y0167799D01*
X0204817Y0167782D01*
X0204705Y0167768D01*
X0204592Y0167758D01*
X0204478Y0167752D01*
X0204365Y0167750D01*
X0204252Y0167752D01*
X0204138Y0167758D01*
X0204025Y0167768D01*
X0203913Y0167782D01*
X0203801Y0167799D01*
X0203689Y0167821D01*
X0203579Y0167847D01*
X0203469Y0167876D01*
X0203361Y0167909D01*
X0203253Y0167946D01*
X0203148Y0167987D01*
X0203043Y0168031D01*
X0202940Y0168079D01*
X0202839Y0168130D01*
X0202740Y0168185D01*
X0202643Y0168244D01*
X0202548Y0168306D01*
X0202455Y0168371D01*
X0202364Y0168439D01*
X0202276Y0168510D01*
X0202190Y0168585D01*
X0202107Y0168662D01*
X0202027Y0168742D01*
X0201950Y0168825D01*
X0201875Y0168911D01*
X0201804Y0168999D01*
X0201736Y0169090D01*
X0201671Y0169183D01*
X0201609Y0169278D01*
X0201550Y0169375D01*
X0201495Y0169474D01*
X0201444Y0169575D01*
X0201396Y0169678D01*
X0201352Y0169783D01*
X0201311Y0169888D01*
X0201274Y0169996D01*
X0201241Y0170104D01*
X0201212Y0170214D01*
X0201186Y0170324D01*
X0201164Y0170436D01*
X0201147Y0170548D01*
X0201133Y0170660D01*
X0201123Y0170773D01*
X0201117Y0170887D01*
X0201115Y0171000D01*
X0201115Y0111000D02*
X0201117Y0111113D01*
X0201123Y0111227D01*
X0201133Y0111340D01*
X0201147Y0111452D01*
X0201164Y0111564D01*
X0201186Y0111676D01*
X0201212Y0111786D01*
X0201241Y0111896D01*
X0201274Y0112004D01*
X0201311Y0112112D01*
X0201352Y0112217D01*
X0201396Y0112322D01*
X0201444Y0112425D01*
X0201495Y0112526D01*
X0201550Y0112625D01*
X0201609Y0112722D01*
X0201671Y0112817D01*
X0201736Y0112910D01*
X0201804Y0113001D01*
X0201875Y0113089D01*
X0201950Y0113175D01*
X0202027Y0113258D01*
X0202107Y0113338D01*
X0202190Y0113415D01*
X0202276Y0113490D01*
X0202364Y0113561D01*
X0202455Y0113629D01*
X0202548Y0113694D01*
X0202643Y0113756D01*
X0202740Y0113815D01*
X0202839Y0113870D01*
X0202940Y0113921D01*
X0203043Y0113969D01*
X0203148Y0114013D01*
X0203253Y0114054D01*
X0203361Y0114091D01*
X0203469Y0114124D01*
X0203579Y0114153D01*
X0203689Y0114179D01*
X0203801Y0114201D01*
X0203913Y0114218D01*
X0204025Y0114232D01*
X0204138Y0114242D01*
X0204252Y0114248D01*
X0204365Y0114250D01*
X0204478Y0114248D01*
X0204592Y0114242D01*
X0204705Y0114232D01*
X0204817Y0114218D01*
X0204929Y0114201D01*
X0205041Y0114179D01*
X0205151Y0114153D01*
X0205261Y0114124D01*
X0205369Y0114091D01*
X0205477Y0114054D01*
X0205582Y0114013D01*
X0205687Y0113969D01*
X0205790Y0113921D01*
X0205891Y0113870D01*
X0205990Y0113815D01*
X0206087Y0113756D01*
X0206182Y0113694D01*
X0206275Y0113629D01*
X0206366Y0113561D01*
X0206454Y0113490D01*
X0206540Y0113415D01*
X0206623Y0113338D01*
X0206703Y0113258D01*
X0206780Y0113175D01*
X0206855Y0113089D01*
X0206926Y0113001D01*
X0206994Y0112910D01*
X0207059Y0112817D01*
X0207121Y0112722D01*
X0207180Y0112625D01*
X0207235Y0112526D01*
X0207286Y0112425D01*
X0207334Y0112322D01*
X0207378Y0112217D01*
X0207419Y0112112D01*
X0207456Y0112004D01*
X0207489Y0111896D01*
X0207518Y0111786D01*
X0207544Y0111676D01*
X0207566Y0111564D01*
X0207583Y0111452D01*
X0207597Y0111340D01*
X0207607Y0111227D01*
X0207613Y0111113D01*
X0207615Y0111000D01*
X0207613Y0110887D01*
X0207607Y0110773D01*
X0207597Y0110660D01*
X0207583Y0110548D01*
X0207566Y0110436D01*
X0207544Y0110324D01*
X0207518Y0110214D01*
X0207489Y0110104D01*
X0207456Y0109996D01*
X0207419Y0109888D01*
X0207378Y0109783D01*
X0207334Y0109678D01*
X0207286Y0109575D01*
X0207235Y0109474D01*
X0207180Y0109375D01*
X0207121Y0109278D01*
X0207059Y0109183D01*
X0206994Y0109090D01*
X0206926Y0108999D01*
X0206855Y0108911D01*
X0206780Y0108825D01*
X0206703Y0108742D01*
X0206623Y0108662D01*
X0206540Y0108585D01*
X0206454Y0108510D01*
X0206366Y0108439D01*
X0206275Y0108371D01*
X0206182Y0108306D01*
X0206087Y0108244D01*
X0205990Y0108185D01*
X0205891Y0108130D01*
X0205790Y0108079D01*
X0205687Y0108031D01*
X0205582Y0107987D01*
X0205477Y0107946D01*
X0205369Y0107909D01*
X0205261Y0107876D01*
X0205151Y0107847D01*
X0205041Y0107821D01*
X0204929Y0107799D01*
X0204817Y0107782D01*
X0204705Y0107768D01*
X0204592Y0107758D01*
X0204478Y0107752D01*
X0204365Y0107750D01*
X0204252Y0107752D01*
X0204138Y0107758D01*
X0204025Y0107768D01*
X0203913Y0107782D01*
X0203801Y0107799D01*
X0203689Y0107821D01*
X0203579Y0107847D01*
X0203469Y0107876D01*
X0203361Y0107909D01*
X0203253Y0107946D01*
X0203148Y0107987D01*
X0203043Y0108031D01*
X0202940Y0108079D01*
X0202839Y0108130D01*
X0202740Y0108185D01*
X0202643Y0108244D01*
X0202548Y0108306D01*
X0202455Y0108371D01*
X0202364Y0108439D01*
X0202276Y0108510D01*
X0202190Y0108585D01*
X0202107Y0108662D01*
X0202027Y0108742D01*
X0201950Y0108825D01*
X0201875Y0108911D01*
X0201804Y0108999D01*
X0201736Y0109090D01*
X0201671Y0109183D01*
X0201609Y0109278D01*
X0201550Y0109375D01*
X0201495Y0109474D01*
X0201444Y0109575D01*
X0201396Y0109678D01*
X0201352Y0109783D01*
X0201311Y0109888D01*
X0201274Y0109996D01*
X0201241Y0110104D01*
X0201212Y0110214D01*
X0201186Y0110324D01*
X0201164Y0110436D01*
X0201147Y0110548D01*
X0201133Y0110660D01*
X0201123Y0110773D01*
X0201117Y0110887D01*
X0201115Y0111000D01*
X0270822Y0121512D02*
X0270824Y0121630D01*
X0270830Y0121749D01*
X0270840Y0121867D01*
X0270854Y0121984D01*
X0270871Y0122101D01*
X0270893Y0122218D01*
X0270919Y0122333D01*
X0270948Y0122448D01*
X0270981Y0122562D01*
X0271018Y0122674D01*
X0271059Y0122785D01*
X0271103Y0122895D01*
X0271151Y0123003D01*
X0271203Y0123110D01*
X0271258Y0123215D01*
X0271317Y0123318D01*
X0271379Y0123418D01*
X0271444Y0123517D01*
X0271513Y0123614D01*
X0271584Y0123708D01*
X0271659Y0123799D01*
X0271737Y0123889D01*
X0271818Y0123975D01*
X0271902Y0124059D01*
X0271988Y0124140D01*
X0272078Y0124218D01*
X0272169Y0124293D01*
X0272263Y0124364D01*
X0272360Y0124433D01*
X0272459Y0124498D01*
X0272559Y0124560D01*
X0272662Y0124619D01*
X0272767Y0124674D01*
X0272874Y0124726D01*
X0272982Y0124774D01*
X0273092Y0124818D01*
X0273203Y0124859D01*
X0273315Y0124896D01*
X0273429Y0124929D01*
X0273544Y0124958D01*
X0273659Y0124984D01*
X0273776Y0125006D01*
X0273893Y0125023D01*
X0274010Y0125037D01*
X0274128Y0125047D01*
X0274247Y0125053D01*
X0274365Y0125055D01*
X0274483Y0125053D01*
X0274602Y0125047D01*
X0274720Y0125037D01*
X0274837Y0125023D01*
X0274954Y0125006D01*
X0275071Y0124984D01*
X0275186Y0124958D01*
X0275301Y0124929D01*
X0275415Y0124896D01*
X0275527Y0124859D01*
X0275638Y0124818D01*
X0275748Y0124774D01*
X0275856Y0124726D01*
X0275963Y0124674D01*
X0276068Y0124619D01*
X0276171Y0124560D01*
X0276271Y0124498D01*
X0276370Y0124433D01*
X0276467Y0124364D01*
X0276561Y0124293D01*
X0276652Y0124218D01*
X0276742Y0124140D01*
X0276828Y0124059D01*
X0276912Y0123975D01*
X0276993Y0123889D01*
X0277071Y0123799D01*
X0277146Y0123708D01*
X0277217Y0123614D01*
X0277286Y0123517D01*
X0277351Y0123418D01*
X0277413Y0123318D01*
X0277472Y0123215D01*
X0277527Y0123110D01*
X0277579Y0123003D01*
X0277627Y0122895D01*
X0277671Y0122785D01*
X0277712Y0122674D01*
X0277749Y0122562D01*
X0277782Y0122448D01*
X0277811Y0122333D01*
X0277837Y0122218D01*
X0277859Y0122101D01*
X0277876Y0121984D01*
X0277890Y0121867D01*
X0277900Y0121749D01*
X0277906Y0121630D01*
X0277908Y0121512D01*
X0277906Y0121394D01*
X0277900Y0121275D01*
X0277890Y0121157D01*
X0277876Y0121040D01*
X0277859Y0120923D01*
X0277837Y0120806D01*
X0277811Y0120691D01*
X0277782Y0120576D01*
X0277749Y0120462D01*
X0277712Y0120350D01*
X0277671Y0120239D01*
X0277627Y0120129D01*
X0277579Y0120021D01*
X0277527Y0119914D01*
X0277472Y0119809D01*
X0277413Y0119706D01*
X0277351Y0119606D01*
X0277286Y0119507D01*
X0277217Y0119410D01*
X0277146Y0119316D01*
X0277071Y0119225D01*
X0276993Y0119135D01*
X0276912Y0119049D01*
X0276828Y0118965D01*
X0276742Y0118884D01*
X0276652Y0118806D01*
X0276561Y0118731D01*
X0276467Y0118660D01*
X0276370Y0118591D01*
X0276271Y0118526D01*
X0276171Y0118464D01*
X0276068Y0118405D01*
X0275963Y0118350D01*
X0275856Y0118298D01*
X0275748Y0118250D01*
X0275638Y0118206D01*
X0275527Y0118165D01*
X0275415Y0118128D01*
X0275301Y0118095D01*
X0275186Y0118066D01*
X0275071Y0118040D01*
X0274954Y0118018D01*
X0274837Y0118001D01*
X0274720Y0117987D01*
X0274602Y0117977D01*
X0274483Y0117971D01*
X0274365Y0117969D01*
X0274247Y0117971D01*
X0274128Y0117977D01*
X0274010Y0117987D01*
X0273893Y0118001D01*
X0273776Y0118018D01*
X0273659Y0118040D01*
X0273544Y0118066D01*
X0273429Y0118095D01*
X0273315Y0118128D01*
X0273203Y0118165D01*
X0273092Y0118206D01*
X0272982Y0118250D01*
X0272874Y0118298D01*
X0272767Y0118350D01*
X0272662Y0118405D01*
X0272559Y0118464D01*
X0272459Y0118526D01*
X0272360Y0118591D01*
X0272263Y0118660D01*
X0272169Y0118731D01*
X0272078Y0118806D01*
X0271988Y0118884D01*
X0271902Y0118965D01*
X0271818Y0119049D01*
X0271737Y0119135D01*
X0271659Y0119225D01*
X0271584Y0119316D01*
X0271513Y0119410D01*
X0271444Y0119507D01*
X0271379Y0119606D01*
X0271317Y0119706D01*
X0271258Y0119809D01*
X0271203Y0119914D01*
X0271151Y0120021D01*
X0271103Y0120129D01*
X0271059Y0120239D01*
X0271018Y0120350D01*
X0270981Y0120462D01*
X0270948Y0120576D01*
X0270919Y0120691D01*
X0270893Y0120806D01*
X0270871Y0120923D01*
X0270854Y0121040D01*
X0270840Y0121157D01*
X0270830Y0121275D01*
X0270824Y0121394D01*
X0270822Y0121512D01*
X0270822Y0010488D02*
X0270824Y0010606D01*
X0270830Y0010725D01*
X0270840Y0010843D01*
X0270854Y0010960D01*
X0270871Y0011077D01*
X0270893Y0011194D01*
X0270919Y0011309D01*
X0270948Y0011424D01*
X0270981Y0011538D01*
X0271018Y0011650D01*
X0271059Y0011761D01*
X0271103Y0011871D01*
X0271151Y0011979D01*
X0271203Y0012086D01*
X0271258Y0012191D01*
X0271317Y0012294D01*
X0271379Y0012394D01*
X0271444Y0012493D01*
X0271513Y0012590D01*
X0271584Y0012684D01*
X0271659Y0012775D01*
X0271737Y0012865D01*
X0271818Y0012951D01*
X0271902Y0013035D01*
X0271988Y0013116D01*
X0272078Y0013194D01*
X0272169Y0013269D01*
X0272263Y0013340D01*
X0272360Y0013409D01*
X0272459Y0013474D01*
X0272559Y0013536D01*
X0272662Y0013595D01*
X0272767Y0013650D01*
X0272874Y0013702D01*
X0272982Y0013750D01*
X0273092Y0013794D01*
X0273203Y0013835D01*
X0273315Y0013872D01*
X0273429Y0013905D01*
X0273544Y0013934D01*
X0273659Y0013960D01*
X0273776Y0013982D01*
X0273893Y0013999D01*
X0274010Y0014013D01*
X0274128Y0014023D01*
X0274247Y0014029D01*
X0274365Y0014031D01*
X0274483Y0014029D01*
X0274602Y0014023D01*
X0274720Y0014013D01*
X0274837Y0013999D01*
X0274954Y0013982D01*
X0275071Y0013960D01*
X0275186Y0013934D01*
X0275301Y0013905D01*
X0275415Y0013872D01*
X0275527Y0013835D01*
X0275638Y0013794D01*
X0275748Y0013750D01*
X0275856Y0013702D01*
X0275963Y0013650D01*
X0276068Y0013595D01*
X0276171Y0013536D01*
X0276271Y0013474D01*
X0276370Y0013409D01*
X0276467Y0013340D01*
X0276561Y0013269D01*
X0276652Y0013194D01*
X0276742Y0013116D01*
X0276828Y0013035D01*
X0276912Y0012951D01*
X0276993Y0012865D01*
X0277071Y0012775D01*
X0277146Y0012684D01*
X0277217Y0012590D01*
X0277286Y0012493D01*
X0277351Y0012394D01*
X0277413Y0012294D01*
X0277472Y0012191D01*
X0277527Y0012086D01*
X0277579Y0011979D01*
X0277627Y0011871D01*
X0277671Y0011761D01*
X0277712Y0011650D01*
X0277749Y0011538D01*
X0277782Y0011424D01*
X0277811Y0011309D01*
X0277837Y0011194D01*
X0277859Y0011077D01*
X0277876Y0010960D01*
X0277890Y0010843D01*
X0277900Y0010725D01*
X0277906Y0010606D01*
X0277908Y0010488D01*
X0277906Y0010370D01*
X0277900Y0010251D01*
X0277890Y0010133D01*
X0277876Y0010016D01*
X0277859Y0009899D01*
X0277837Y0009782D01*
X0277811Y0009667D01*
X0277782Y0009552D01*
X0277749Y0009438D01*
X0277712Y0009326D01*
X0277671Y0009215D01*
X0277627Y0009105D01*
X0277579Y0008997D01*
X0277527Y0008890D01*
X0277472Y0008785D01*
X0277413Y0008682D01*
X0277351Y0008582D01*
X0277286Y0008483D01*
X0277217Y0008386D01*
X0277146Y0008292D01*
X0277071Y0008201D01*
X0276993Y0008111D01*
X0276912Y0008025D01*
X0276828Y0007941D01*
X0276742Y0007860D01*
X0276652Y0007782D01*
X0276561Y0007707D01*
X0276467Y0007636D01*
X0276370Y0007567D01*
X0276271Y0007502D01*
X0276171Y0007440D01*
X0276068Y0007381D01*
X0275963Y0007326D01*
X0275856Y0007274D01*
X0275748Y0007226D01*
X0275638Y0007182D01*
X0275527Y0007141D01*
X0275415Y0007104D01*
X0275301Y0007071D01*
X0275186Y0007042D01*
X0275071Y0007016D01*
X0274954Y0006994D01*
X0274837Y0006977D01*
X0274720Y0006963D01*
X0274602Y0006953D01*
X0274483Y0006947D01*
X0274365Y0006945D01*
X0274247Y0006947D01*
X0274128Y0006953D01*
X0274010Y0006963D01*
X0273893Y0006977D01*
X0273776Y0006994D01*
X0273659Y0007016D01*
X0273544Y0007042D01*
X0273429Y0007071D01*
X0273315Y0007104D01*
X0273203Y0007141D01*
X0273092Y0007182D01*
X0272982Y0007226D01*
X0272874Y0007274D01*
X0272767Y0007326D01*
X0272662Y0007381D01*
X0272559Y0007440D01*
X0272459Y0007502D01*
X0272360Y0007567D01*
X0272263Y0007636D01*
X0272169Y0007707D01*
X0272078Y0007782D01*
X0271988Y0007860D01*
X0271902Y0007941D01*
X0271818Y0008025D01*
X0271737Y0008111D01*
X0271659Y0008201D01*
X0271584Y0008292D01*
X0271513Y0008386D01*
X0271444Y0008483D01*
X0271379Y0008582D01*
X0271317Y0008682D01*
X0271258Y0008785D01*
X0271203Y0008890D01*
X0271151Y0008997D01*
X0271103Y0009105D01*
X0271059Y0009215D01*
X0271018Y0009326D01*
X0270981Y0009438D01*
X0270948Y0009552D01*
X0270919Y0009667D01*
X0270893Y0009782D01*
X0270871Y0009899D01*
X0270854Y0010016D01*
X0270840Y0010133D01*
X0270830Y0010251D01*
X0270824Y0010370D01*
X0270822Y0010488D01*
D11*
X0216215Y0026767D02*
X0215598Y0026150D01*
X0216215Y0026767D02*
X0216215Y0028002D01*
X0215598Y0028619D01*
X0214981Y0028619D01*
X0214364Y0028002D01*
X0214364Y0027384D01*
X0214364Y0028002D02*
X0213746Y0028619D01*
X0213129Y0028619D01*
X0212512Y0028002D01*
X0212512Y0026767D01*
X0213129Y0026150D01*
X0215598Y0029833D02*
X0215598Y0030450D01*
X0216215Y0030450D01*
X0216215Y0029833D01*
X0215598Y0029833D01*
X0215598Y0031675D02*
X0216215Y0032292D01*
X0216215Y0033526D01*
X0215598Y0034143D01*
X0214981Y0034143D01*
X0214364Y0033526D01*
X0214364Y0032909D01*
X0214364Y0033526D02*
X0213746Y0034143D01*
X0213129Y0034143D01*
X0212512Y0033526D01*
X0212512Y0032292D01*
X0213129Y0031675D01*
X0206215Y0032302D02*
X0203746Y0032302D01*
X0202512Y0031068D01*
X0203746Y0029833D01*
X0206215Y0029833D01*
X0205598Y0028619D02*
X0203129Y0028619D01*
X0202512Y0028002D01*
X0202512Y0026150D01*
X0206215Y0026150D01*
X0206215Y0028002D01*
X0205598Y0028619D01*
X0204364Y0029833D02*
X0204364Y0032302D01*
X0202512Y0033516D02*
X0202512Y0035985D01*
X0202512Y0034751D02*
X0206215Y0034751D01*
X0206215Y0037199D02*
X0203746Y0037199D01*
X0202512Y0038434D01*
X0203746Y0039668D01*
X0206215Y0039668D01*
X0204364Y0039668D02*
X0204364Y0037199D01*
X0212512Y0039041D02*
X0214981Y0039041D01*
X0216215Y0040275D01*
X0214981Y0041510D01*
X0212512Y0041510D01*
X0214083Y0054150D02*
X0213466Y0054767D01*
X0214083Y0054150D02*
X0215317Y0054150D01*
X0215935Y0054767D01*
X0215935Y0056002D01*
X0215317Y0056619D01*
X0214700Y0056619D01*
X0213466Y0056002D01*
X0213466Y0057853D01*
X0215935Y0057853D01*
X0220832Y0057853D02*
X0220832Y0055384D01*
X0222067Y0054150D01*
X0223301Y0055384D01*
X0223301Y0057853D01*
X0223301Y0064150D02*
X0223301Y0066619D01*
X0222066Y0067853D01*
X0220832Y0066619D01*
X0220832Y0064150D01*
X0220832Y0066002D02*
X0223301Y0066002D01*
X0219618Y0067853D02*
X0217149Y0067853D01*
X0218383Y0067853D02*
X0218383Y0064150D01*
X0215935Y0064150D02*
X0215935Y0066619D01*
X0214700Y0067853D01*
X0213466Y0066619D01*
X0213466Y0064150D01*
X0212251Y0064767D02*
X0212251Y0067236D01*
X0211634Y0067853D01*
X0209783Y0067853D01*
X0209783Y0064150D01*
X0211634Y0064150D01*
X0212251Y0064767D01*
X0213466Y0066002D02*
X0215935Y0066002D01*
X0215317Y0074150D02*
X0214083Y0074150D01*
X0213466Y0074767D01*
X0213466Y0077236D01*
X0214083Y0077853D01*
X0215317Y0077853D01*
X0215935Y0077236D01*
X0215935Y0076002D02*
X0214700Y0076002D01*
X0215935Y0076002D02*
X0215935Y0074767D01*
X0215317Y0074150D01*
X0217149Y0074150D02*
X0217149Y0077853D01*
X0219618Y0074150D01*
X0219618Y0077853D01*
X0220832Y0077853D02*
X0222684Y0077853D01*
X0223301Y0077236D01*
X0223301Y0074767D01*
X0222684Y0074150D01*
X0220832Y0074150D01*
X0220832Y0077853D01*
X0156215Y0035368D02*
X0155598Y0035985D01*
X0153129Y0035985D01*
X0152512Y0035368D01*
X0152512Y0033516D01*
X0156215Y0033516D01*
X0156215Y0035368D01*
X0155598Y0032302D02*
X0153129Y0032302D01*
X0152512Y0031685D01*
X0152512Y0029833D01*
X0156215Y0029833D01*
X0156215Y0031685D01*
X0155598Y0032302D01*
X0156215Y0028619D02*
X0153746Y0028619D01*
X0152512Y0027384D01*
X0153746Y0026150D01*
X0156215Y0026150D01*
X0154364Y0026150D02*
X0154364Y0028619D01*
X0146215Y0028002D02*
X0146215Y0026767D01*
X0145598Y0026150D01*
X0144364Y0026767D02*
X0144364Y0028002D01*
X0144981Y0028619D01*
X0145598Y0028619D01*
X0146215Y0028002D01*
X0146215Y0029833D02*
X0146215Y0031685D01*
X0145598Y0032302D01*
X0143129Y0032302D01*
X0142512Y0031685D01*
X0142512Y0029833D01*
X0146215Y0029833D01*
X0143129Y0028619D02*
X0142512Y0028002D01*
X0142512Y0026767D01*
X0143129Y0026150D01*
X0143746Y0026150D01*
X0144364Y0026767D01*
X0144364Y0033516D02*
X0144364Y0035985D01*
X0143746Y0035985D02*
X0146215Y0035985D01*
X0143746Y0035985D02*
X0142512Y0034751D01*
X0143746Y0033516D01*
X0146215Y0033516D01*
X0136215Y0033516D02*
X0136215Y0035985D01*
X0136215Y0033516D02*
X0132512Y0033516D01*
X0133129Y0032302D02*
X0132512Y0031685D01*
X0132512Y0030450D01*
X0133129Y0029833D01*
X0135598Y0029833D01*
X0136215Y0030450D01*
X0136215Y0031685D01*
X0135598Y0032302D01*
X0135598Y0028619D02*
X0136215Y0028002D01*
X0136215Y0026767D01*
X0135598Y0026150D01*
X0134364Y0026767D02*
X0134364Y0028002D01*
X0134981Y0028619D01*
X0135598Y0028619D01*
X0134364Y0026767D02*
X0133746Y0026150D01*
X0133129Y0026150D01*
X0132512Y0026767D01*
X0132512Y0028002D01*
X0133129Y0028619D01*
X0126215Y0028002D02*
X0126215Y0026767D01*
X0125598Y0026150D01*
X0123129Y0026150D01*
X0122512Y0026767D01*
X0122512Y0028002D01*
X0123129Y0028619D01*
X0124364Y0028619D02*
X0124364Y0027384D01*
X0124364Y0028619D02*
X0125598Y0028619D01*
X0126215Y0028002D01*
X0126215Y0029833D02*
X0122512Y0029833D01*
X0126215Y0032302D01*
X0122512Y0032302D01*
X0122512Y0033516D02*
X0122512Y0035368D01*
X0123129Y0035985D01*
X0125598Y0035985D01*
X0126215Y0035368D01*
X0126215Y0033516D01*
X0122512Y0033516D01*
X0116215Y0033526D02*
X0116215Y0032292D01*
X0115598Y0031675D01*
X0115598Y0030450D02*
X0116215Y0030450D01*
X0116215Y0029833D01*
X0115598Y0029833D01*
X0115598Y0030450D01*
X0115598Y0028619D02*
X0116215Y0028002D01*
X0116215Y0026767D01*
X0115598Y0026150D01*
X0114364Y0027384D02*
X0114364Y0028002D01*
X0114981Y0028619D01*
X0115598Y0028619D01*
X0114364Y0028002D02*
X0113746Y0028619D01*
X0113129Y0028619D01*
X0112512Y0028002D01*
X0112512Y0026767D01*
X0113129Y0026150D01*
X0113129Y0031675D02*
X0112512Y0032292D01*
X0112512Y0033526D01*
X0113129Y0034143D01*
X0113746Y0034143D01*
X0114364Y0033526D01*
X0114981Y0034143D01*
X0115598Y0034143D01*
X0116215Y0033526D01*
X0114364Y0033526D02*
X0114364Y0032909D01*
X0114981Y0039041D02*
X0112512Y0039041D01*
X0112512Y0041510D02*
X0114981Y0041510D01*
X0116215Y0040275D01*
X0114981Y0039041D01*
X0081215Y0035368D02*
X0080598Y0035985D01*
X0078129Y0035985D01*
X0077512Y0035368D01*
X0077512Y0033516D01*
X0081215Y0033516D01*
X0081215Y0035368D01*
X0080598Y0032302D02*
X0078129Y0032302D01*
X0077512Y0031685D01*
X0077512Y0029833D01*
X0081215Y0029833D01*
X0081215Y0031685D01*
X0080598Y0032302D01*
X0081215Y0028619D02*
X0078746Y0028619D01*
X0077512Y0027384D01*
X0078746Y0026150D01*
X0081215Y0026150D01*
X0079364Y0026150D02*
X0079364Y0028619D01*
X0071215Y0028002D02*
X0071215Y0026767D01*
X0070598Y0026150D01*
X0069364Y0026767D02*
X0069364Y0028002D01*
X0069981Y0028619D01*
X0070598Y0028619D01*
X0071215Y0028002D01*
X0071215Y0029833D02*
X0071215Y0031685D01*
X0070598Y0032302D01*
X0068129Y0032302D01*
X0067512Y0031685D01*
X0067512Y0029833D01*
X0071215Y0029833D01*
X0068129Y0028619D02*
X0067512Y0028002D01*
X0067512Y0026767D01*
X0068129Y0026150D01*
X0068746Y0026150D01*
X0069364Y0026767D01*
X0061215Y0026767D02*
X0060598Y0026150D01*
X0061215Y0026767D02*
X0061215Y0028002D01*
X0060598Y0028619D01*
X0059981Y0028619D01*
X0059364Y0028002D01*
X0059364Y0026767D01*
X0058746Y0026150D01*
X0058129Y0026150D01*
X0057512Y0026767D01*
X0057512Y0028002D01*
X0058129Y0028619D01*
X0058129Y0029833D02*
X0060598Y0029833D01*
X0061215Y0030450D01*
X0061215Y0031685D01*
X0060598Y0032302D01*
X0061215Y0033516D02*
X0057512Y0033516D01*
X0058129Y0032302D02*
X0057512Y0031685D01*
X0057512Y0030450D01*
X0058129Y0029833D01*
X0061215Y0033516D02*
X0061215Y0035985D01*
X0067512Y0034751D02*
X0068746Y0035985D01*
X0071215Y0035985D01*
X0069364Y0035985D02*
X0069364Y0033516D01*
X0068746Y0033516D02*
X0067512Y0034751D01*
X0068746Y0033516D02*
X0071215Y0033516D01*
X0051215Y0033516D02*
X0051215Y0035368D01*
X0050598Y0035985D01*
X0048129Y0035985D01*
X0047512Y0035368D01*
X0047512Y0033516D01*
X0051215Y0033516D01*
X0051215Y0032302D02*
X0047512Y0032302D01*
X0047512Y0029833D02*
X0051215Y0032302D01*
X0051215Y0029833D02*
X0047512Y0029833D01*
X0048129Y0028619D02*
X0047512Y0028002D01*
X0047512Y0026767D01*
X0048129Y0026150D01*
X0050598Y0026150D01*
X0051215Y0026767D01*
X0051215Y0028002D01*
X0050598Y0028619D01*
X0049364Y0028619D01*
X0049364Y0027384D01*
X0041215Y0026767D02*
X0040598Y0026150D01*
X0041215Y0026767D02*
X0041215Y0028002D01*
X0040598Y0028619D01*
X0039981Y0028619D01*
X0039364Y0028002D01*
X0039364Y0027384D01*
X0039364Y0028002D02*
X0038746Y0028619D01*
X0038129Y0028619D01*
X0037512Y0028002D01*
X0037512Y0026767D01*
X0038129Y0026150D01*
X0040598Y0029833D02*
X0040598Y0030450D01*
X0041215Y0030450D01*
X0041215Y0029833D01*
X0040598Y0029833D01*
X0040598Y0031675D02*
X0041215Y0032292D01*
X0041215Y0033526D01*
X0040598Y0034143D01*
X0039981Y0034143D01*
X0039364Y0033526D01*
X0039364Y0032909D01*
X0039364Y0033526D02*
X0038746Y0034143D01*
X0038129Y0034143D01*
X0037512Y0033526D01*
X0037512Y0032292D01*
X0038129Y0031675D01*
X0037512Y0039041D02*
X0039981Y0039041D01*
X0041215Y0040275D01*
X0039981Y0041510D01*
X0037512Y0041510D01*
X0039515Y0064150D02*
X0039515Y0066619D01*
X0040750Y0067853D01*
X0041984Y0066619D01*
X0041984Y0064150D01*
X0043198Y0064767D02*
X0043816Y0064150D01*
X0045050Y0064150D01*
X0045667Y0064767D01*
X0045667Y0067236D01*
X0045050Y0067853D01*
X0043816Y0067853D01*
X0043198Y0067236D01*
X0043198Y0064767D01*
X0041984Y0066002D02*
X0039515Y0066002D01*
X0039515Y0074150D02*
X0041367Y0074150D01*
X0041984Y0074767D01*
X0041984Y0077236D01*
X0041367Y0077853D01*
X0039515Y0077853D01*
X0039515Y0074150D01*
X0043198Y0074767D02*
X0043198Y0077236D01*
X0043816Y0077853D01*
X0045050Y0077853D01*
X0045667Y0077236D01*
X0045667Y0074767D01*
X0045050Y0074150D01*
X0043816Y0074150D01*
X0043198Y0074767D01*
X0043198Y0084150D02*
X0043198Y0087853D01*
X0045667Y0084150D01*
X0045667Y0087853D01*
X0046882Y0087853D02*
X0046882Y0084150D01*
X0048733Y0084150D01*
X0049350Y0084767D01*
X0049350Y0087236D01*
X0048733Y0087853D01*
X0046882Y0087853D01*
X0041984Y0087236D02*
X0041367Y0087853D01*
X0040132Y0087853D01*
X0039515Y0087236D01*
X0039515Y0084767D01*
X0040132Y0084150D01*
X0041367Y0084150D01*
X0041984Y0084767D01*
X0041984Y0086002D01*
X0040750Y0086002D01*
X0041367Y0094150D02*
X0040132Y0094150D01*
X0039515Y0094767D01*
X0040750Y0096002D02*
X0041367Y0096002D01*
X0041984Y0095384D01*
X0041984Y0094767D01*
X0041367Y0094150D01*
X0043198Y0094150D02*
X0043816Y0094150D01*
X0043816Y0094767D01*
X0043198Y0094767D01*
X0043198Y0094150D01*
X0045040Y0094767D02*
X0045657Y0094150D01*
X0046892Y0094150D01*
X0047509Y0094767D01*
X0047509Y0095384D01*
X0046892Y0096002D01*
X0046274Y0096002D01*
X0046892Y0096002D02*
X0047509Y0096619D01*
X0047509Y0097236D01*
X0046892Y0097853D01*
X0045657Y0097853D01*
X0045040Y0097236D01*
X0041984Y0097236D02*
X0041984Y0096619D01*
X0041367Y0096002D01*
X0041984Y0097236D02*
X0041367Y0097853D01*
X0040132Y0097853D01*
X0039515Y0097236D01*
X0052406Y0097853D02*
X0052406Y0095384D01*
X0053641Y0094150D01*
X0054875Y0095384D01*
X0054875Y0097853D01*
X0142512Y0129442D02*
X0142512Y0131294D01*
X0143129Y0131911D01*
X0144364Y0131911D01*
X0144981Y0131294D01*
X0144981Y0129442D01*
X0146215Y0129442D02*
X0142512Y0129442D01*
X0144981Y0130677D02*
X0146215Y0131911D01*
X0146215Y0133125D02*
X0146215Y0135594D01*
X0145598Y0136808D02*
X0146215Y0137426D01*
X0146215Y0138660D01*
X0145598Y0139277D01*
X0144981Y0139277D01*
X0144364Y0138660D01*
X0144364Y0137426D01*
X0143746Y0136808D01*
X0143129Y0136808D01*
X0142512Y0137426D01*
X0142512Y0138660D01*
X0143129Y0139277D01*
X0142512Y0140492D02*
X0146215Y0140492D01*
X0146215Y0142960D01*
X0144364Y0141726D02*
X0144364Y0140492D01*
X0142512Y0140492D02*
X0142512Y0142960D01*
X0142512Y0144175D02*
X0142512Y0146643D01*
X0142512Y0145409D02*
X0146215Y0145409D01*
X0142512Y0135594D02*
X0142512Y0133125D01*
X0146215Y0133125D01*
X0144364Y0133125D02*
X0144364Y0134360D01*
X0053033Y0204150D02*
X0053033Y0206619D01*
X0051799Y0207853D01*
X0050565Y0206619D01*
X0050565Y0204150D01*
X0050565Y0206002D02*
X0053033Y0206002D01*
X0049350Y0207853D02*
X0046882Y0207853D01*
X0048116Y0207853D02*
X0048116Y0204150D01*
X0045667Y0204150D02*
X0045667Y0206619D01*
X0044433Y0207853D01*
X0043198Y0206619D01*
X0043198Y0204150D01*
X0041984Y0204767D02*
X0041984Y0207236D01*
X0041367Y0207853D01*
X0039515Y0207853D01*
X0039515Y0204150D01*
X0041367Y0204150D01*
X0041984Y0204767D01*
X0043198Y0206002D02*
X0045667Y0206002D01*
X0045657Y0214150D02*
X0045040Y0214767D01*
X0045657Y0214150D02*
X0046892Y0214150D01*
X0047509Y0214767D01*
X0047509Y0215384D01*
X0046892Y0216002D01*
X0046274Y0216002D01*
X0046892Y0216002D02*
X0047509Y0216619D01*
X0047509Y0217236D01*
X0046892Y0217853D01*
X0045657Y0217853D01*
X0045040Y0217236D01*
X0043816Y0214767D02*
X0043198Y0214767D01*
X0043198Y0214150D01*
X0043816Y0214150D01*
X0043816Y0214767D01*
X0041984Y0214767D02*
X0041367Y0214150D01*
X0040132Y0214150D01*
X0039515Y0214767D01*
X0040750Y0216002D02*
X0041367Y0216002D01*
X0041984Y0215384D01*
X0041984Y0214767D01*
X0041367Y0216002D02*
X0041984Y0216619D01*
X0041984Y0217236D01*
X0041367Y0217853D01*
X0040132Y0217853D01*
X0039515Y0217236D01*
X0052406Y0217853D02*
X0052406Y0215384D01*
X0053641Y0214150D01*
X0054875Y0215384D01*
X0054875Y0217853D01*
X0056215Y0231417D02*
X0052512Y0231417D01*
X0056215Y0233886D01*
X0052512Y0233886D01*
X0052512Y0235101D02*
X0055598Y0235101D01*
X0056215Y0235718D01*
X0056215Y0236952D01*
X0055598Y0237569D01*
X0052512Y0237569D01*
X0052512Y0238784D02*
X0056215Y0238784D01*
X0056215Y0241252D01*
X0056215Y0242467D02*
X0052512Y0242467D01*
X0056215Y0242467D02*
X0056215Y0244936D01*
X0062512Y0243701D02*
X0063746Y0244936D01*
X0066215Y0244936D01*
X0064364Y0244936D02*
X0064364Y0242467D01*
X0063746Y0242467D02*
X0062512Y0243701D01*
X0063746Y0242467D02*
X0066215Y0242467D01*
X0066215Y0240018D02*
X0062512Y0240018D01*
X0062512Y0238784D02*
X0062512Y0241252D01*
X0063746Y0237569D02*
X0062512Y0236335D01*
X0063746Y0235101D01*
X0066215Y0235101D01*
X0065598Y0233886D02*
X0063129Y0233886D01*
X0062512Y0233269D01*
X0062512Y0231417D01*
X0066215Y0231417D01*
X0066215Y0233269D01*
X0065598Y0233886D01*
X0064364Y0235101D02*
X0064364Y0237569D01*
X0063746Y0237569D02*
X0066215Y0237569D01*
X0072512Y0236952D02*
X0072512Y0235718D01*
X0073129Y0235101D01*
X0074364Y0236335D02*
X0074364Y0236952D01*
X0074981Y0237569D01*
X0075598Y0237569D01*
X0076215Y0236952D01*
X0076215Y0235718D01*
X0075598Y0235101D01*
X0075598Y0233876D02*
X0076215Y0233876D01*
X0076215Y0233259D01*
X0075598Y0233259D01*
X0075598Y0233876D01*
X0075598Y0232045D02*
X0076215Y0231427D01*
X0076215Y0230193D01*
X0075598Y0229576D01*
X0074364Y0230810D02*
X0074364Y0231427D01*
X0074981Y0232045D01*
X0075598Y0232045D01*
X0074364Y0231427D02*
X0073746Y0232045D01*
X0073129Y0232045D01*
X0072512Y0231427D01*
X0072512Y0230193D01*
X0073129Y0229576D01*
X0072512Y0236952D02*
X0073129Y0237569D01*
X0073746Y0237569D01*
X0074364Y0236952D01*
X0074981Y0242467D02*
X0072512Y0242467D01*
X0072512Y0244936D02*
X0074981Y0244936D01*
X0076215Y0243701D01*
X0074981Y0242467D01*
X0097512Y0242467D02*
X0101215Y0244936D01*
X0097512Y0244936D01*
X0097512Y0242467D02*
X0101215Y0242467D01*
X0101215Y0241246D02*
X0101215Y0240011D01*
X0101215Y0240629D02*
X0097512Y0240629D01*
X0097512Y0241246D02*
X0097512Y0240011D01*
X0097512Y0238797D02*
X0099981Y0238797D01*
X0101215Y0237563D01*
X0099981Y0236328D01*
X0097512Y0236328D01*
X0107512Y0235718D02*
X0108129Y0235101D01*
X0110598Y0235101D01*
X0111215Y0235718D01*
X0111215Y0236952D01*
X0110598Y0237569D01*
X0109364Y0237569D01*
X0109364Y0236335D01*
X0108129Y0237569D02*
X0107512Y0236952D01*
X0107512Y0235718D01*
X0107512Y0238784D02*
X0111215Y0241252D01*
X0107512Y0241252D01*
X0107512Y0242467D02*
X0107512Y0244318D01*
X0108129Y0244936D01*
X0110598Y0244936D01*
X0111215Y0244318D01*
X0111215Y0242467D01*
X0107512Y0242467D01*
X0107512Y0238784D02*
X0111215Y0238784D01*
X0132512Y0236952D02*
X0132512Y0235718D01*
X0133129Y0235101D01*
X0134364Y0236335D02*
X0134364Y0236952D01*
X0134981Y0237569D01*
X0135598Y0237569D01*
X0136215Y0236952D01*
X0136215Y0235718D01*
X0135598Y0235101D01*
X0135598Y0233876D02*
X0136215Y0233876D01*
X0136215Y0233259D01*
X0135598Y0233259D01*
X0135598Y0233876D01*
X0135598Y0232045D02*
X0136215Y0231427D01*
X0136215Y0230193D01*
X0135598Y0229576D01*
X0134364Y0230810D02*
X0134364Y0231427D01*
X0134981Y0232045D01*
X0135598Y0232045D01*
X0134364Y0231427D02*
X0133746Y0232045D01*
X0133129Y0232045D01*
X0132512Y0231427D01*
X0132512Y0230193D01*
X0133129Y0229576D01*
X0132512Y0236952D02*
X0133129Y0237569D01*
X0133746Y0237569D01*
X0134364Y0236952D01*
X0134981Y0242467D02*
X0132512Y0242467D01*
X0132512Y0244936D02*
X0134981Y0244936D01*
X0136215Y0243701D01*
X0134981Y0242467D01*
X0142512Y0241252D02*
X0142512Y0238784D01*
X0142512Y0240018D02*
X0146215Y0240018D01*
X0146215Y0237569D02*
X0143746Y0237569D01*
X0142512Y0236335D01*
X0143746Y0235101D01*
X0146215Y0235101D01*
X0145598Y0233886D02*
X0143129Y0233886D01*
X0142512Y0233269D01*
X0142512Y0231417D01*
X0146215Y0231417D01*
X0146215Y0233269D01*
X0145598Y0233886D01*
X0144364Y0235101D02*
X0144364Y0237569D01*
X0144364Y0242467D02*
X0144364Y0244936D01*
X0143746Y0244936D02*
X0146215Y0244936D01*
X0143746Y0244936D02*
X0142512Y0243701D01*
X0143746Y0242467D01*
X0146215Y0242467D01*
X0153466Y0237236D02*
X0153466Y0236619D01*
X0154083Y0236002D01*
X0155317Y0236002D01*
X0155935Y0235384D01*
X0155935Y0234767D01*
X0155317Y0234150D01*
X0154083Y0234150D01*
X0153466Y0234767D01*
X0153466Y0237236D02*
X0154083Y0237853D01*
X0155317Y0237853D01*
X0155935Y0237236D01*
X0157149Y0237236D02*
X0157149Y0234767D01*
X0157766Y0234150D01*
X0159001Y0234150D01*
X0159618Y0234767D01*
X0160832Y0234150D02*
X0160832Y0237853D01*
X0159618Y0237236D02*
X0159001Y0237853D01*
X0157766Y0237853D01*
X0157149Y0237236D01*
X0160832Y0235384D02*
X0163301Y0237853D01*
X0161449Y0236002D02*
X0163301Y0234150D01*
X0162684Y0227853D02*
X0163301Y0227236D01*
X0163301Y0224767D01*
X0162684Y0224150D01*
X0161449Y0224150D01*
X0160832Y0224767D01*
X0160832Y0227236D01*
X0161449Y0227853D01*
X0162684Y0227853D01*
X0159618Y0227236D02*
X0159001Y0227853D01*
X0157766Y0227853D01*
X0157149Y0227236D01*
X0157149Y0226619D01*
X0157766Y0226002D01*
X0159001Y0226002D01*
X0159618Y0225384D01*
X0159618Y0224767D01*
X0159001Y0224150D01*
X0157766Y0224150D01*
X0157149Y0224767D01*
X0155928Y0224150D02*
X0154694Y0224150D01*
X0155311Y0224150D02*
X0155311Y0227853D01*
X0154694Y0227853D02*
X0155928Y0227853D01*
X0153479Y0227853D02*
X0152245Y0226619D01*
X0151010Y0227853D01*
X0151010Y0224150D01*
X0153479Y0224150D02*
X0153479Y0227853D01*
X0157766Y0244150D02*
X0159001Y0244150D01*
X0159618Y0244767D01*
X0160832Y0244150D02*
X0163301Y0244150D01*
X0162067Y0246002D02*
X0160832Y0246002D01*
X0159618Y0247236D02*
X0159001Y0247853D01*
X0157766Y0247853D01*
X0157149Y0247236D01*
X0157149Y0244767D01*
X0157766Y0244150D01*
X0160832Y0244150D02*
X0160832Y0247853D01*
X0163301Y0247853D01*
X0162684Y0254150D02*
X0163301Y0254767D01*
X0163301Y0257236D01*
X0162684Y0257853D01*
X0160832Y0257853D01*
X0160832Y0254150D01*
X0162684Y0254150D01*
X0159618Y0254150D02*
X0159618Y0257853D01*
X0157149Y0257853D02*
X0157149Y0254150D01*
X0155935Y0254767D02*
X0155935Y0256002D01*
X0154700Y0256002D01*
X0153466Y0257236D02*
X0154083Y0257853D01*
X0155317Y0257853D01*
X0155935Y0257236D01*
X0157149Y0257853D02*
X0159618Y0254150D01*
X0155935Y0254767D02*
X0155317Y0254150D01*
X0154083Y0254150D01*
X0153466Y0254767D01*
X0153466Y0257236D01*
X0194515Y0257236D02*
X0195132Y0257853D01*
X0196367Y0257853D01*
X0196984Y0257236D01*
X0196984Y0256619D01*
X0196367Y0256002D01*
X0196984Y0255384D01*
X0196984Y0254767D01*
X0196367Y0254150D01*
X0195132Y0254150D01*
X0194515Y0254767D01*
X0195750Y0256002D02*
X0196367Y0256002D01*
X0198198Y0254767D02*
X0198816Y0254767D01*
X0198816Y0254150D01*
X0198198Y0254150D01*
X0198198Y0254767D01*
X0200040Y0254767D02*
X0200657Y0254150D01*
X0201892Y0254150D01*
X0202509Y0254767D01*
X0202509Y0255384D01*
X0201892Y0256002D01*
X0201274Y0256002D01*
X0201892Y0256002D02*
X0202509Y0256619D01*
X0202509Y0257236D01*
X0201892Y0257853D01*
X0200657Y0257853D01*
X0200040Y0257236D01*
X0207406Y0257853D02*
X0207406Y0255384D01*
X0208641Y0254150D01*
X0209875Y0255384D01*
X0209875Y0257853D01*
X0204350Y0247853D02*
X0204350Y0244150D01*
X0201882Y0247853D01*
X0201882Y0244150D01*
X0200667Y0244767D02*
X0200050Y0244150D01*
X0198816Y0244150D01*
X0198198Y0244767D01*
X0196984Y0244767D02*
X0196367Y0244150D01*
X0195132Y0244150D01*
X0194515Y0244767D01*
X0194515Y0247236D01*
X0195132Y0247853D01*
X0196367Y0247853D01*
X0196984Y0247236D01*
X0198198Y0247236D02*
X0198198Y0246619D01*
X0198816Y0246002D01*
X0200050Y0246002D01*
X0200667Y0245384D01*
X0200667Y0244767D01*
X0200667Y0247236D02*
X0200050Y0247853D01*
X0198816Y0247853D01*
X0198198Y0247236D01*
X0198816Y0237853D02*
X0198198Y0237236D01*
X0198198Y0234767D01*
X0198816Y0234150D01*
X0200050Y0234150D01*
X0200667Y0234767D01*
X0200667Y0237236D01*
X0200050Y0237853D01*
X0198816Y0237853D01*
X0196984Y0237853D02*
X0196984Y0234150D01*
X0194515Y0234150D02*
X0194515Y0237853D01*
X0195750Y0236619D01*
X0196984Y0237853D01*
X0201882Y0237236D02*
X0201882Y0236619D01*
X0202499Y0236002D01*
X0203733Y0236002D01*
X0204350Y0235384D01*
X0204350Y0234767D01*
X0203733Y0234150D01*
X0202499Y0234150D01*
X0201882Y0234767D01*
X0201882Y0237236D02*
X0202499Y0237853D01*
X0203733Y0237853D01*
X0204350Y0237236D01*
X0205565Y0237853D02*
X0206799Y0237853D01*
X0206182Y0237853D02*
X0206182Y0234150D01*
X0205565Y0234150D02*
X0206799Y0234150D01*
X0049350Y0197236D02*
X0049350Y0194767D01*
X0048733Y0194150D01*
X0046882Y0194150D01*
X0046882Y0197853D01*
X0048733Y0197853D01*
X0049350Y0197236D01*
X0045667Y0197853D02*
X0045667Y0194150D01*
X0043198Y0197853D01*
X0043198Y0194150D01*
X0041984Y0194767D02*
X0041367Y0194150D01*
X0040132Y0194150D01*
X0039515Y0194767D01*
X0039515Y0197236D01*
X0040132Y0197853D01*
X0041367Y0197853D01*
X0041984Y0197236D01*
X0041984Y0196002D02*
X0040750Y0196002D01*
X0041984Y0196002D02*
X0041984Y0194767D01*
X0043129Y0235101D02*
X0045598Y0235101D01*
X0046215Y0235718D01*
X0046215Y0236952D01*
X0045598Y0237569D01*
X0044364Y0237569D01*
X0044364Y0236335D01*
X0043129Y0237569D02*
X0042512Y0236952D01*
X0042512Y0235718D01*
X0043129Y0235101D01*
X0042512Y0238784D02*
X0046215Y0241252D01*
X0042512Y0241252D01*
X0042512Y0242467D02*
X0042512Y0244318D01*
X0043129Y0244936D01*
X0045598Y0244936D01*
X0046215Y0244318D01*
X0046215Y0242467D01*
X0042512Y0242467D01*
X0042512Y0238784D02*
X0046215Y0238784D01*
D12*
X0060168Y0268917D02*
X0062470Y0268917D01*
X0063237Y0269684D01*
X0063237Y0272753D01*
X0062470Y0273520D01*
X0060168Y0273520D01*
X0060168Y0268917D01*
X0064772Y0268917D02*
X0064772Y0273520D01*
X0064772Y0271218D02*
X0067841Y0271218D01*
X0067841Y0268917D02*
X0067841Y0273520D01*
X0069375Y0273520D02*
X0072445Y0273520D01*
X0070910Y0273520D02*
X0070910Y0268917D01*
X0073979Y0268917D02*
X0077049Y0271986D01*
X0077049Y0272753D01*
X0076281Y0273520D01*
X0074747Y0273520D01*
X0073979Y0272753D01*
X0078583Y0272753D02*
X0079351Y0273520D01*
X0080885Y0273520D01*
X0081653Y0272753D01*
X0081653Y0271986D01*
X0078583Y0268917D01*
X0081653Y0268917D01*
X0077049Y0268917D02*
X0073979Y0268917D01*
X0099244Y0185804D02*
X0100778Y0184269D01*
X0100778Y0181200D01*
X0102313Y0181200D02*
X0102313Y0185804D01*
X0104615Y0185804D01*
X0105382Y0185037D01*
X0105382Y0183502D01*
X0104615Y0182735D01*
X0102313Y0182735D01*
X0103848Y0182735D02*
X0105382Y0181200D01*
X0106917Y0181200D02*
X0109219Y0181200D01*
X0109986Y0181967D01*
X0109986Y0185037D01*
X0109219Y0185804D01*
X0106917Y0185804D01*
X0106917Y0181200D01*
X0100778Y0183502D02*
X0097709Y0183502D01*
X0097709Y0184269D02*
X0099244Y0185804D01*
X0097709Y0184269D02*
X0097709Y0181200D01*
X0111521Y0181967D02*
X0112288Y0181200D01*
X0113823Y0181200D01*
X0114590Y0181967D01*
X0114590Y0185804D01*
X0116125Y0185804D02*
X0117659Y0185804D01*
X0116892Y0185804D02*
X0116892Y0181200D01*
X0116125Y0181200D02*
X0117659Y0181200D01*
X0119194Y0181200D02*
X0119194Y0185804D01*
X0122263Y0181200D01*
X0122263Y0185804D01*
X0123798Y0185037D02*
X0123798Y0181967D01*
X0124565Y0181200D01*
X0126100Y0181200D01*
X0126867Y0181967D01*
X0126867Y0185037D01*
X0126100Y0185804D01*
X0124565Y0185804D01*
X0123798Y0185037D01*
X0128402Y0183502D02*
X0131471Y0183502D01*
X0133006Y0185804D02*
X0136075Y0181200D01*
X0136075Y0185804D01*
X0137610Y0184269D02*
X0137610Y0181200D01*
X0137610Y0183502D02*
X0140679Y0183502D01*
X0140679Y0184269D02*
X0140679Y0181200D01*
X0142214Y0181200D02*
X0142214Y0185804D01*
X0145283Y0181200D01*
X0145283Y0185804D01*
X0146818Y0185037D02*
X0146818Y0181967D01*
X0147585Y0181200D01*
X0149119Y0181200D01*
X0149887Y0181967D01*
X0149887Y0185037D01*
X0149119Y0185804D01*
X0147585Y0185804D01*
X0146818Y0185037D01*
X0140679Y0184269D02*
X0139144Y0185804D01*
X0137610Y0184269D01*
X0133006Y0185804D02*
X0133006Y0181200D01*
X0111521Y0181967D02*
X0111521Y0185804D01*
X0203848Y0266200D02*
X0203848Y0270804D01*
X0206917Y0266200D01*
X0206917Y0270804D01*
X0208451Y0270804D02*
X0210753Y0270804D01*
X0211521Y0270037D01*
X0211521Y0268502D01*
X0210753Y0267735D01*
X0208451Y0267735D01*
X0208451Y0266200D02*
X0208451Y0270804D01*
X0209986Y0267735D02*
X0211521Y0266200D01*
X0213055Y0266200D02*
X0213055Y0270804D01*
X0216125Y0270804D01*
X0217659Y0270037D02*
X0218427Y0270804D01*
X0219961Y0270804D01*
X0220729Y0270037D01*
X0220729Y0269269D01*
X0217659Y0266200D01*
X0220729Y0266200D01*
X0222263Y0268502D02*
X0225333Y0268502D01*
X0224565Y0266200D02*
X0224565Y0270804D01*
X0222263Y0268502D01*
X0226867Y0270804D02*
X0226867Y0266200D01*
X0229936Y0266200D01*
X0231471Y0266967D02*
X0234540Y0270037D01*
X0234540Y0266967D01*
X0233773Y0266200D01*
X0232238Y0266200D01*
X0231471Y0266967D01*
X0231471Y0270037D01*
X0232238Y0270804D01*
X0233773Y0270804D01*
X0234540Y0270037D01*
X0236075Y0269269D02*
X0237610Y0270804D01*
X0237610Y0266200D01*
X0239144Y0266200D02*
X0236075Y0266200D01*
X0240679Y0268502D02*
X0243748Y0268502D01*
X0242214Y0270037D02*
X0242214Y0266967D01*
X0214590Y0268502D02*
X0213055Y0268502D01*
X0242829Y0097635D02*
X0244363Y0097635D01*
X0245131Y0096868D01*
X0245131Y0094566D01*
X0246665Y0094566D02*
X0242061Y0094566D01*
X0242061Y0096868D01*
X0242829Y0097635D01*
X0245131Y0096101D02*
X0246665Y0097635D01*
X0246665Y0093031D02*
X0246665Y0091497D01*
X0246665Y0092264D02*
X0242061Y0092264D01*
X0242061Y0091497D02*
X0242061Y0093031D01*
X0242829Y0089962D02*
X0244363Y0089962D01*
X0245131Y0089195D01*
X0245131Y0086893D01*
X0246665Y0086893D02*
X0242061Y0086893D01*
X0242061Y0089195D01*
X0242829Y0089962D01*
X0244363Y0085358D02*
X0244363Y0082289D01*
X0246665Y0080754D02*
X0242061Y0080754D01*
X0242061Y0077685D02*
X0246665Y0080754D01*
X0246665Y0077685D02*
X0242061Y0077685D01*
X0242829Y0076150D02*
X0242061Y0075383D01*
X0242061Y0073848D01*
X0242829Y0073081D01*
X0245898Y0073081D01*
X0246665Y0073848D01*
X0246665Y0075383D01*
X0245898Y0076150D01*
X0242829Y0076150D01*
X0242061Y0071546D02*
X0242061Y0070012D01*
X0242061Y0070779D02*
X0246665Y0070779D01*
X0246665Y0070012D02*
X0246665Y0071546D01*
X0246665Y0066942D02*
X0242061Y0066942D01*
X0242061Y0065408D02*
X0242061Y0068477D01*
X0242829Y0063873D02*
X0242061Y0063106D01*
X0242061Y0061571D01*
X0242829Y0060804D01*
X0245898Y0060804D01*
X0246665Y0061571D01*
X0246665Y0063106D01*
X0245898Y0063873D01*
X0242829Y0063873D01*
X0242061Y0059269D02*
X0246665Y0059269D01*
X0246665Y0056200D02*
X0242061Y0056200D01*
X0243596Y0057735D01*
X0242061Y0059269D01*
X0327061Y0059294D02*
X0331665Y0059294D01*
X0331665Y0058527D02*
X0331665Y0060061D01*
X0330898Y0061596D02*
X0331665Y0062363D01*
X0331665Y0063898D01*
X0330898Y0064665D01*
X0327829Y0064665D01*
X0327061Y0063898D01*
X0327061Y0062363D01*
X0327829Y0061596D01*
X0330898Y0061596D01*
X0327061Y0060061D02*
X0327061Y0058527D01*
X0327061Y0056992D02*
X0327061Y0053923D01*
X0327061Y0055457D02*
X0331665Y0055457D01*
X0330898Y0052388D02*
X0327829Y0052388D01*
X0327061Y0051621D01*
X0327061Y0050086D01*
X0327829Y0049319D01*
X0330898Y0049319D01*
X0331665Y0050086D01*
X0331665Y0051621D01*
X0330898Y0052388D01*
X0331665Y0047784D02*
X0327061Y0047784D01*
X0328596Y0046250D01*
X0327061Y0044715D01*
X0331665Y0044715D01*
X0331665Y0066200D02*
X0327061Y0066200D01*
X0331665Y0069269D01*
X0327061Y0069269D01*
X0329363Y0070804D02*
X0329363Y0073873D01*
X0330131Y0075408D02*
X0330131Y0077710D01*
X0329363Y0078477D01*
X0327829Y0078477D01*
X0327061Y0077710D01*
X0327061Y0075408D01*
X0331665Y0075408D01*
X0331665Y0080012D02*
X0331665Y0081546D01*
X0331665Y0080779D02*
X0327061Y0080779D01*
X0327061Y0080012D02*
X0327061Y0081546D01*
X0327061Y0083081D02*
X0327061Y0085383D01*
X0327829Y0086150D01*
X0329363Y0086150D01*
X0330131Y0085383D01*
X0330131Y0083081D01*
X0331665Y0083081D02*
X0327061Y0083081D01*
X0330131Y0084616D02*
X0331665Y0086150D01*
D13*
X0233141Y0056159D02*
X0226269Y0056159D01*
X0229705Y0056159D02*
X0229705Y0045850D01*
X0219329Y0047568D02*
X0217611Y0045850D01*
X0214175Y0045850D01*
X0212457Y0047568D01*
X0212457Y0051004D01*
X0214175Y0052723D01*
X0217611Y0052723D01*
X0219329Y0051004D01*
X0219329Y0047568D01*
X0206685Y0045850D02*
X0203249Y0045850D01*
X0204967Y0045850D02*
X0204967Y0056159D01*
X0203249Y0056159D02*
X0206685Y0056159D01*
X0196310Y0051004D02*
X0196310Y0045850D01*
X0196310Y0051004D02*
X0194592Y0052723D01*
X0189437Y0052723D01*
X0189437Y0045850D01*
X0182498Y0049286D02*
X0182498Y0051004D01*
X0180780Y0052723D01*
X0177344Y0052723D01*
X0175625Y0051004D01*
X0175625Y0047568D01*
X0177344Y0045850D01*
X0180780Y0045850D01*
X0182498Y0049286D02*
X0175625Y0049286D01*
X0169854Y0045850D02*
X0168136Y0047568D01*
X0168136Y0054441D01*
X0166418Y0052723D02*
X0169854Y0052723D01*
X0159478Y0051004D02*
X0159478Y0047568D01*
X0157760Y0045850D01*
X0154324Y0045850D01*
X0152606Y0047568D01*
X0152606Y0051004D01*
X0154324Y0052723D01*
X0157760Y0052723D01*
X0159478Y0051004D01*
X0145666Y0051004D02*
X0145666Y0045850D01*
X0145666Y0051004D02*
X0143948Y0052723D01*
X0138794Y0052723D01*
X0138794Y0045850D01*
X0132438Y0045850D02*
X0127284Y0049286D01*
X0132438Y0052723D01*
X0127284Y0056159D02*
X0127284Y0045850D01*
X0120929Y0052723D02*
X0119211Y0052723D01*
X0115774Y0049286D01*
X0115774Y0045850D02*
X0115774Y0052723D01*
X0108835Y0051004D02*
X0108835Y0047568D01*
X0107117Y0045850D01*
X0103681Y0045850D01*
X0101962Y0047568D01*
X0101962Y0051004D01*
X0103681Y0052723D01*
X0107117Y0052723D01*
X0108835Y0051004D01*
X0095023Y0052723D02*
X0089869Y0052723D01*
X0088151Y0051004D01*
X0089869Y0049286D01*
X0093305Y0049286D01*
X0095023Y0047568D01*
X0093305Y0045850D01*
X0088151Y0045850D01*
X0081211Y0045850D02*
X0081211Y0051004D01*
X0079493Y0052723D01*
X0074339Y0052723D01*
X0074339Y0045850D01*
X0067400Y0049286D02*
X0067400Y0051004D01*
X0065681Y0052723D01*
X0062245Y0052723D01*
X0060527Y0051004D01*
X0060527Y0047568D01*
X0062245Y0045850D01*
X0065681Y0045850D01*
X0067400Y0049286D02*
X0060527Y0049286D01*
X0053588Y0049286D02*
X0053588Y0047568D01*
X0051870Y0045850D01*
X0048433Y0045850D01*
X0046715Y0047568D01*
X0048433Y0051004D02*
X0046715Y0052723D01*
X0046715Y0054441D01*
X0048433Y0056159D01*
X0051870Y0056159D01*
X0053588Y0054441D01*
X0051870Y0051004D02*
X0053588Y0049286D01*
X0051870Y0051004D02*
X0048433Y0051004D01*
D14*
X0024931Y0218830D02*
X0024931Y0219964D01*
X0024364Y0219964D02*
X0026632Y0219964D01*
X0025498Y0221899D02*
X0026065Y0222466D01*
X0026065Y0223034D01*
X0025498Y0223601D01*
X0022662Y0223601D01*
X0022662Y0223034D02*
X0022662Y0224168D01*
X0023797Y0227070D02*
X0023797Y0228205D01*
X0024364Y0228772D01*
X0026065Y0228772D01*
X0026065Y0227070D01*
X0025498Y0226503D01*
X0024931Y0227070D01*
X0024931Y0228772D01*
X0026065Y0231107D02*
X0023797Y0231107D01*
X0023797Y0232809D01*
X0024364Y0233376D01*
X0026065Y0233376D01*
X0025498Y0235711D02*
X0026065Y0236278D01*
X0026065Y0237412D01*
X0025498Y0237980D01*
X0024364Y0237980D01*
X0024364Y0236845D01*
X0023230Y0235711D02*
X0025498Y0235711D01*
X0023230Y0235711D02*
X0022662Y0236278D01*
X0022662Y0237412D01*
X0023230Y0237980D01*
X0024364Y0240315D02*
X0023797Y0240882D01*
X0023797Y0242016D01*
X0024364Y0242584D01*
X0024931Y0242584D01*
X0024931Y0240315D01*
X0025498Y0240315D02*
X0024364Y0240315D01*
X0025498Y0240315D02*
X0026065Y0240882D01*
X0026065Y0242016D01*
X0026065Y0244919D02*
X0023797Y0244919D01*
X0024931Y0244919D02*
X0023797Y0246053D01*
X0023797Y0246620D01*
X0023797Y0248755D02*
X0023797Y0250457D01*
X0024364Y0251024D01*
X0025498Y0251024D01*
X0026065Y0250457D01*
X0026065Y0248755D01*
X0022662Y0248755D01*
X0024364Y0253359D02*
X0023797Y0253927D01*
X0023797Y0255061D01*
X0024364Y0255628D01*
X0024931Y0255628D01*
X0024931Y0253359D01*
X0025498Y0253359D02*
X0024364Y0253359D01*
X0025498Y0253359D02*
X0026065Y0253927D01*
X0026065Y0255061D01*
X0026065Y0257963D02*
X0023797Y0257963D01*
X0024931Y0257963D02*
X0023797Y0259098D01*
X0023797Y0259665D01*
X0024364Y0219964D02*
X0024364Y0218830D01*
D15*
X0024365Y0218500D02*
X0026865Y0221000D01*
X0031865Y0221000D01*
X0034365Y0218500D01*
X0034365Y0213500D01*
X0031865Y0211000D01*
X0034365Y0208500D01*
X0034365Y0203500D01*
X0031865Y0201000D01*
X0034365Y0198500D01*
X0034365Y0193500D01*
X0031865Y0191000D01*
X0026865Y0191000D01*
X0024365Y0193500D01*
X0024365Y0198500D01*
X0026865Y0201000D01*
X0024365Y0203500D01*
X0024365Y0208500D01*
X0026865Y0211000D01*
X0024365Y0213500D01*
X0024365Y0218500D01*
X0026865Y0211000D02*
X0031865Y0211000D01*
X0031865Y0201000D02*
X0026865Y0201000D01*
X0071865Y0199500D02*
X0071865Y0192500D01*
X0071867Y0192440D01*
X0071872Y0192379D01*
X0071881Y0192320D01*
X0071894Y0192261D01*
X0071910Y0192202D01*
X0071930Y0192145D01*
X0071953Y0192090D01*
X0071980Y0192035D01*
X0072009Y0191983D01*
X0072042Y0191932D01*
X0072078Y0191883D01*
X0072116Y0191837D01*
X0072158Y0191793D01*
X0072202Y0191751D01*
X0072248Y0191713D01*
X0072297Y0191677D01*
X0072348Y0191644D01*
X0072400Y0191615D01*
X0072455Y0191588D01*
X0072510Y0191565D01*
X0072567Y0191545D01*
X0072626Y0191529D01*
X0072685Y0191516D01*
X0072744Y0191507D01*
X0072805Y0191502D01*
X0072865Y0191500D01*
X0074365Y0191500D01*
X0074865Y0192000D01*
X0093865Y0192000D01*
X0094365Y0191500D01*
X0095865Y0191500D01*
X0095925Y0191502D01*
X0095986Y0191507D01*
X0096045Y0191516D01*
X0096104Y0191529D01*
X0096163Y0191545D01*
X0096220Y0191565D01*
X0096275Y0191588D01*
X0096330Y0191615D01*
X0096382Y0191644D01*
X0096433Y0191677D01*
X0096482Y0191713D01*
X0096528Y0191751D01*
X0096572Y0191793D01*
X0096614Y0191837D01*
X0096652Y0191883D01*
X0096688Y0191932D01*
X0096721Y0191983D01*
X0096750Y0192035D01*
X0096777Y0192090D01*
X0096800Y0192145D01*
X0096820Y0192202D01*
X0096836Y0192261D01*
X0096849Y0192320D01*
X0096858Y0192379D01*
X0096863Y0192440D01*
X0096865Y0192500D01*
X0096865Y0199500D01*
X0096863Y0199560D01*
X0096858Y0199621D01*
X0096849Y0199680D01*
X0096836Y0199739D01*
X0096820Y0199798D01*
X0096800Y0199855D01*
X0096777Y0199910D01*
X0096750Y0199965D01*
X0096721Y0200017D01*
X0096688Y0200068D01*
X0096652Y0200117D01*
X0096614Y0200163D01*
X0096572Y0200207D01*
X0096528Y0200249D01*
X0096482Y0200287D01*
X0096433Y0200323D01*
X0096382Y0200356D01*
X0096330Y0200385D01*
X0096275Y0200412D01*
X0096220Y0200435D01*
X0096163Y0200455D01*
X0096104Y0200471D01*
X0096045Y0200484D01*
X0095986Y0200493D01*
X0095925Y0200498D01*
X0095865Y0200500D01*
X0094365Y0200500D01*
X0093865Y0200000D01*
X0074865Y0200000D01*
X0074365Y0200500D01*
X0072865Y0200500D01*
X0072805Y0200498D01*
X0072744Y0200493D01*
X0072685Y0200484D01*
X0072626Y0200471D01*
X0072567Y0200455D01*
X0072510Y0200435D01*
X0072455Y0200412D01*
X0072400Y0200385D01*
X0072348Y0200356D01*
X0072297Y0200323D01*
X0072248Y0200287D01*
X0072202Y0200249D01*
X0072158Y0200207D01*
X0072116Y0200163D01*
X0072078Y0200117D01*
X0072042Y0200068D01*
X0072009Y0200017D01*
X0071980Y0199965D01*
X0071953Y0199910D01*
X0071930Y0199855D01*
X0071910Y0199798D01*
X0071894Y0199739D01*
X0071881Y0199680D01*
X0071872Y0199621D01*
X0071867Y0199560D01*
X0071865Y0199500D01*
X0072865Y0211500D02*
X0074365Y0211500D01*
X0074865Y0212000D01*
X0093865Y0212000D01*
X0094365Y0211500D01*
X0095865Y0211500D01*
X0095925Y0211502D01*
X0095986Y0211507D01*
X0096045Y0211516D01*
X0096104Y0211529D01*
X0096163Y0211545D01*
X0096220Y0211565D01*
X0096275Y0211588D01*
X0096330Y0211615D01*
X0096382Y0211644D01*
X0096433Y0211677D01*
X0096482Y0211713D01*
X0096528Y0211751D01*
X0096572Y0211793D01*
X0096614Y0211837D01*
X0096652Y0211883D01*
X0096688Y0211932D01*
X0096721Y0211983D01*
X0096750Y0212035D01*
X0096777Y0212090D01*
X0096800Y0212145D01*
X0096820Y0212202D01*
X0096836Y0212261D01*
X0096849Y0212320D01*
X0096858Y0212379D01*
X0096863Y0212440D01*
X0096865Y0212500D01*
X0096865Y0219500D01*
X0096863Y0219560D01*
X0096858Y0219621D01*
X0096849Y0219680D01*
X0096836Y0219739D01*
X0096820Y0219798D01*
X0096800Y0219855D01*
X0096777Y0219910D01*
X0096750Y0219965D01*
X0096721Y0220017D01*
X0096688Y0220068D01*
X0096652Y0220117D01*
X0096614Y0220163D01*
X0096572Y0220207D01*
X0096528Y0220249D01*
X0096482Y0220287D01*
X0096433Y0220323D01*
X0096382Y0220356D01*
X0096330Y0220385D01*
X0096275Y0220412D01*
X0096220Y0220435D01*
X0096163Y0220455D01*
X0096104Y0220471D01*
X0096045Y0220484D01*
X0095986Y0220493D01*
X0095925Y0220498D01*
X0095865Y0220500D01*
X0094365Y0220500D01*
X0093865Y0220000D01*
X0074865Y0220000D01*
X0074365Y0220500D01*
X0072865Y0220500D01*
X0072805Y0220498D01*
X0072744Y0220493D01*
X0072685Y0220484D01*
X0072626Y0220471D01*
X0072567Y0220455D01*
X0072510Y0220435D01*
X0072455Y0220412D01*
X0072400Y0220385D01*
X0072348Y0220356D01*
X0072297Y0220323D01*
X0072248Y0220287D01*
X0072202Y0220249D01*
X0072158Y0220207D01*
X0072116Y0220163D01*
X0072078Y0220117D01*
X0072042Y0220068D01*
X0072009Y0220017D01*
X0071980Y0219965D01*
X0071953Y0219910D01*
X0071930Y0219855D01*
X0071910Y0219798D01*
X0071894Y0219739D01*
X0071881Y0219680D01*
X0071872Y0219621D01*
X0071867Y0219560D01*
X0071865Y0219500D01*
X0071865Y0212500D01*
X0071867Y0212440D01*
X0071872Y0212379D01*
X0071881Y0212320D01*
X0071894Y0212261D01*
X0071910Y0212202D01*
X0071930Y0212145D01*
X0071953Y0212090D01*
X0071980Y0212035D01*
X0072009Y0211983D01*
X0072042Y0211932D01*
X0072078Y0211883D01*
X0072116Y0211837D01*
X0072158Y0211793D01*
X0072202Y0211751D01*
X0072248Y0211713D01*
X0072297Y0211677D01*
X0072348Y0211644D01*
X0072400Y0211615D01*
X0072455Y0211588D01*
X0072510Y0211565D01*
X0072567Y0211545D01*
X0072626Y0211529D01*
X0072685Y0211516D01*
X0072744Y0211507D01*
X0072805Y0211502D01*
X0072865Y0211500D01*
X0096865Y0251000D02*
X0101865Y0251000D01*
X0104365Y0253500D01*
X0106865Y0251000D01*
X0111865Y0251000D01*
X0114365Y0253500D01*
X0114365Y0258500D01*
X0111865Y0261000D01*
X0106865Y0261000D01*
X0104365Y0258500D01*
X0104365Y0253500D01*
X0104365Y0258500D02*
X0101865Y0261000D01*
X0096865Y0261000D01*
X0094365Y0258500D01*
X0094365Y0253500D01*
X0096865Y0251000D01*
X0129365Y0253500D02*
X0131865Y0251000D01*
X0136865Y0251000D01*
X0139365Y0253500D01*
X0141865Y0251000D01*
X0146865Y0251000D01*
X0149365Y0253500D01*
X0149365Y0258500D01*
X0146865Y0261000D01*
X0141865Y0261000D01*
X0139365Y0258500D01*
X0139365Y0253500D01*
X0139365Y0258500D02*
X0136865Y0261000D01*
X0131865Y0261000D01*
X0129365Y0258500D01*
X0129365Y0253500D01*
X0242365Y0170000D02*
X0245565Y0172300D01*
X0245565Y0184800D01*
X0248065Y0187300D01*
X0270665Y0187300D01*
X0273165Y0184800D01*
X0273165Y0172300D01*
X0276365Y0170000D01*
X0276365Y0152000D01*
X0273165Y0149700D01*
X0273165Y0137200D01*
X0270665Y0134700D01*
X0248065Y0134700D01*
X0245565Y0137200D01*
X0245565Y0149900D01*
X0242365Y0152000D01*
X0242365Y0170000D01*
X0267795Y0210741D02*
X0265660Y0212876D01*
X0267795Y0215011D01*
X0272065Y0215011D01*
X0272065Y0217186D02*
X0265660Y0217186D01*
X0272065Y0221457D01*
X0265660Y0221457D01*
X0265660Y0223632D02*
X0265660Y0227902D01*
X0265660Y0225767D02*
X0272065Y0225767D01*
X0272065Y0230077D02*
X0272065Y0234348D01*
X0272065Y0236523D02*
X0265660Y0236523D01*
X0272065Y0240793D01*
X0265660Y0240793D01*
X0265660Y0242968D02*
X0272065Y0247239D01*
X0265660Y0247239D01*
X0267795Y0249414D02*
X0265660Y0251549D01*
X0267795Y0253684D01*
X0272065Y0253684D01*
X0268863Y0253684D02*
X0268863Y0249414D01*
X0267795Y0249414D02*
X0272065Y0249414D01*
X0272065Y0242968D02*
X0265660Y0242968D01*
X0265660Y0234348D02*
X0265660Y0230077D01*
X0272065Y0230077D01*
X0268863Y0230077D02*
X0268863Y0232212D01*
X0268863Y0215011D02*
X0268863Y0210741D01*
X0267795Y0210741D02*
X0272065Y0210741D01*
X0062158Y0143138D02*
X0062158Y0142070D01*
X0061091Y0141003D01*
X0057888Y0141003D01*
X0055713Y0139935D02*
X0055713Y0138868D01*
X0054645Y0137800D01*
X0052510Y0137800D01*
X0051443Y0138868D01*
X0049267Y0138868D02*
X0048200Y0137800D01*
X0046065Y0137800D01*
X0044997Y0138868D01*
X0044997Y0144205D01*
X0049267Y0144205D02*
X0049267Y0138868D01*
X0051443Y0142070D02*
X0052510Y0141003D01*
X0054645Y0141003D01*
X0055713Y0139935D01*
X0057888Y0137800D02*
X0061091Y0137800D01*
X0062158Y0138868D01*
X0062158Y0139935D01*
X0061091Y0141003D01*
X0062158Y0143138D02*
X0061091Y0144205D01*
X0057888Y0144205D01*
X0057888Y0137800D01*
X0055713Y0143138D02*
X0054645Y0144205D01*
X0052510Y0144205D01*
X0051443Y0143138D01*
X0051443Y0142070D01*
X0031865Y0101000D02*
X0026865Y0101000D01*
X0024365Y0098500D01*
X0024365Y0093500D01*
X0026865Y0091000D01*
X0031865Y0091000D01*
X0034365Y0093500D01*
X0034365Y0098500D01*
X0031865Y0101000D01*
X0031865Y0091000D02*
X0034365Y0088500D01*
X0034365Y0083500D01*
X0031865Y0081000D01*
X0034365Y0078500D01*
X0034365Y0073500D01*
X0031865Y0071000D01*
X0034365Y0068500D01*
X0034365Y0063500D01*
X0031865Y0061000D01*
X0026865Y0061000D01*
X0024365Y0063500D01*
X0024365Y0068500D01*
X0026865Y0071000D01*
X0024365Y0073500D01*
X0024365Y0078500D01*
X0026865Y0081000D01*
X0031865Y0081000D01*
X0026865Y0081000D02*
X0024365Y0083500D01*
X0024365Y0088500D01*
X0026865Y0091000D01*
X0026865Y0071000D02*
X0031865Y0071000D01*
X0036865Y0021000D02*
X0041865Y0021000D01*
X0044365Y0018500D01*
X0046865Y0021000D01*
X0051865Y0021000D01*
X0054365Y0018500D01*
X0056865Y0021000D01*
X0061865Y0021000D01*
X0064365Y0018500D01*
X0066865Y0021000D01*
X0071865Y0021000D01*
X0074365Y0018500D01*
X0076865Y0021000D01*
X0081865Y0021000D01*
X0084365Y0018500D01*
X0084365Y0013500D01*
X0081865Y0011000D01*
X0076865Y0011000D01*
X0074365Y0013500D01*
X0071865Y0011000D01*
X0066865Y0011000D01*
X0064365Y0013500D01*
X0064365Y0018500D01*
X0064365Y0013500D02*
X0061865Y0011000D01*
X0056865Y0011000D01*
X0054365Y0013500D01*
X0051865Y0011000D01*
X0046865Y0011000D01*
X0044365Y0013500D01*
X0041865Y0011000D01*
X0036865Y0011000D01*
X0034365Y0013500D01*
X0034365Y0018500D01*
X0036865Y0021000D01*
X0044365Y0018500D02*
X0044365Y0013500D01*
X0054365Y0013500D02*
X0054365Y0018500D01*
X0074365Y0018500D02*
X0074365Y0013500D01*
X0109365Y0013500D02*
X0109365Y0018500D01*
X0111865Y0021000D01*
X0116865Y0021000D01*
X0119365Y0018500D01*
X0121865Y0021000D01*
X0126865Y0021000D01*
X0129365Y0018500D01*
X0131865Y0021000D01*
X0136865Y0021000D01*
X0139365Y0018500D01*
X0141865Y0021000D01*
X0146865Y0021000D01*
X0149365Y0018500D01*
X0151865Y0021000D01*
X0156865Y0021000D01*
X0159365Y0018500D01*
X0159365Y0013500D01*
X0156865Y0011000D01*
X0151865Y0011000D01*
X0149365Y0013500D01*
X0146865Y0011000D01*
X0141865Y0011000D01*
X0139365Y0013500D01*
X0139365Y0018500D01*
X0139365Y0013500D02*
X0136865Y0011000D01*
X0131865Y0011000D01*
X0129365Y0013500D01*
X0126865Y0011000D01*
X0121865Y0011000D01*
X0119365Y0013500D01*
X0116865Y0011000D01*
X0111865Y0011000D01*
X0109365Y0013500D01*
X0119365Y0013500D02*
X0119365Y0018500D01*
X0129365Y0018500D02*
X0129365Y0013500D01*
X0149365Y0013500D02*
X0149365Y0018500D01*
X0199365Y0018500D02*
X0199365Y0013500D01*
X0201865Y0011000D01*
X0206865Y0011000D01*
X0209365Y0013500D01*
X0209365Y0018500D01*
X0206865Y0021000D01*
X0201865Y0021000D01*
X0199365Y0018500D01*
X0209365Y0018500D02*
X0211865Y0021000D01*
X0216865Y0021000D01*
X0219365Y0018500D01*
X0219365Y0013500D01*
X0216865Y0011000D01*
X0211865Y0011000D01*
X0209365Y0013500D01*
D16*
X0209106Y0008554D02*
X0206103Y0008554D01*
X0207605Y0008554D02*
X0207605Y0004050D01*
X0210707Y0004050D02*
X0213710Y0004050D01*
X0215311Y0004050D02*
X0215311Y0008554D01*
X0217563Y0008554D01*
X0218314Y0007803D01*
X0218314Y0006302D01*
X0217563Y0005551D01*
X0215311Y0005551D01*
X0216812Y0005551D02*
X0218314Y0004050D01*
X0213710Y0008554D02*
X0210707Y0008554D01*
X0210707Y0004050D01*
X0210707Y0006302D02*
X0212209Y0006302D01*
X0204502Y0004050D02*
X0201499Y0004050D01*
X0201499Y0008554D01*
X0199898Y0007053D02*
X0199898Y0004050D01*
X0199898Y0006302D02*
X0196896Y0006302D01*
X0196896Y0007053D02*
X0198397Y0008554D01*
X0199898Y0007053D01*
X0196896Y0007053D02*
X0196896Y0004050D01*
X0195294Y0004050D02*
X0195294Y0008554D01*
X0195294Y0006302D02*
X0192292Y0006302D01*
X0190690Y0007803D02*
X0189940Y0008554D01*
X0188438Y0008554D01*
X0187688Y0007803D01*
X0187688Y0004801D01*
X0188438Y0004050D01*
X0189940Y0004050D01*
X0190690Y0004801D01*
X0192292Y0004050D02*
X0192292Y0008554D01*
X0186086Y0007803D02*
X0185336Y0008554D01*
X0183834Y0008554D01*
X0183084Y0007803D01*
X0183084Y0007053D01*
X0183834Y0006302D01*
X0185336Y0006302D01*
X0186086Y0005551D01*
X0186086Y0004801D01*
X0185336Y0004050D01*
X0183834Y0004050D01*
X0183084Y0004801D01*
X0181482Y0006302D02*
X0178480Y0006302D01*
X0176878Y0004801D02*
X0176878Y0007803D01*
X0176128Y0008554D01*
X0173876Y0008554D01*
X0173876Y0004050D01*
X0176128Y0004050D01*
X0176878Y0004801D01*
X0172275Y0004050D02*
X0169272Y0004050D01*
X0169272Y0008554D01*
X0172275Y0008554D01*
X0170773Y0006302D02*
X0169272Y0006302D01*
X0167671Y0008554D02*
X0164668Y0008554D01*
X0164668Y0004050D01*
X0167671Y0004050D01*
X0166169Y0006302D02*
X0164668Y0006302D01*
X0163067Y0006302D02*
X0162316Y0005551D01*
X0160064Y0005551D01*
X0160064Y0004050D02*
X0160064Y0008554D01*
X0162316Y0008554D01*
X0163067Y0007803D01*
X0163067Y0006302D01*
X0161565Y0005551D02*
X0163067Y0004050D01*
X0158314Y0004801D02*
X0158314Y0007803D01*
X0155311Y0004801D01*
X0156062Y0004050D01*
X0157563Y0004050D01*
X0158314Y0004801D01*
X0158314Y0007803D02*
X0157563Y0008554D01*
X0156062Y0008554D01*
X0155311Y0007803D01*
X0155311Y0004801D01*
X0153710Y0004801D02*
X0153710Y0006302D01*
X0152959Y0007053D01*
X0152209Y0007053D01*
X0150707Y0006302D01*
X0150707Y0008554D01*
X0153710Y0008554D01*
X0149106Y0008554D02*
X0149106Y0007803D01*
X0146103Y0004801D01*
X0146103Y0004050D01*
X0144502Y0004050D02*
X0141500Y0004050D01*
X0143001Y0004050D02*
X0143001Y0008554D01*
X0141500Y0007053D01*
X0139898Y0006302D02*
X0136896Y0006302D01*
X0135294Y0007053D02*
X0134544Y0006302D01*
X0132292Y0006302D01*
X0134544Y0006302D02*
X0135294Y0005551D01*
X0135294Y0004801D01*
X0134544Y0004050D01*
X0132292Y0004050D01*
X0132292Y0008554D01*
X0134544Y0008554D01*
X0135294Y0007803D01*
X0135294Y0007053D01*
X0136896Y0008554D02*
X0136896Y0004050D01*
X0139898Y0004050D02*
X0139898Y0008554D01*
X0146103Y0008554D02*
X0149106Y0008554D01*
X0150707Y0004801D02*
X0151458Y0004050D01*
X0152959Y0004050D01*
X0153710Y0004801D01*
X0083314Y0004801D02*
X0082563Y0004050D01*
X0081062Y0004050D01*
X0080311Y0004801D01*
X0083314Y0007803D01*
X0083314Y0004801D01*
X0083314Y0007803D02*
X0082563Y0008554D01*
X0081062Y0008554D01*
X0080311Y0007803D01*
X0080311Y0004801D01*
X0078710Y0004801D02*
X0077959Y0004050D01*
X0076458Y0004050D01*
X0075707Y0004801D01*
X0075707Y0005551D01*
X0076458Y0006302D01*
X0077959Y0006302D01*
X0078710Y0005551D01*
X0078710Y0004801D01*
X0077959Y0006302D02*
X0078710Y0007053D01*
X0078710Y0007803D01*
X0077959Y0008554D01*
X0076458Y0008554D01*
X0075707Y0007803D01*
X0075707Y0007053D01*
X0076458Y0006302D01*
X0074106Y0004050D02*
X0071103Y0004050D01*
X0072605Y0004050D02*
X0072605Y0008554D01*
X0071103Y0007053D01*
X0069502Y0007803D02*
X0068751Y0008554D01*
X0066500Y0008554D01*
X0066500Y0004050D01*
X0066500Y0005551D02*
X0068751Y0005551D01*
X0069502Y0006302D01*
X0069502Y0007803D01*
X0064898Y0008554D02*
X0064898Y0004050D01*
X0061896Y0004050D02*
X0061896Y0008554D01*
X0063397Y0007053D01*
X0064898Y0008554D01*
X0060294Y0007803D02*
X0060294Y0007053D01*
X0059544Y0006302D01*
X0057292Y0006302D01*
X0059544Y0006302D02*
X0060294Y0005551D01*
X0060294Y0004801D01*
X0059544Y0004050D01*
X0057292Y0004050D01*
X0057292Y0008554D01*
X0059544Y0008554D01*
X0060294Y0007803D01*
X0021915Y0060950D02*
X0017411Y0060950D01*
X0017411Y0063202D01*
X0018162Y0063953D01*
X0018913Y0063953D01*
X0019663Y0063202D01*
X0019663Y0060950D01*
X0019663Y0063202D02*
X0020414Y0063953D01*
X0021165Y0063953D01*
X0021915Y0063202D01*
X0021915Y0060950D01*
X0021165Y0065554D02*
X0018162Y0065554D01*
X0017411Y0066305D01*
X0017411Y0067806D01*
X0018162Y0068556D01*
X0021165Y0068556D01*
X0021915Y0067806D01*
X0021915Y0066305D01*
X0021165Y0065554D01*
X0021915Y0070158D02*
X0017411Y0070158D01*
X0017411Y0072410D01*
X0018162Y0073160D01*
X0021165Y0073160D01*
X0021915Y0072410D01*
X0021915Y0070158D01*
X0021915Y0074762D02*
X0017411Y0074762D01*
X0017411Y0077764D01*
X0017411Y0079366D02*
X0021915Y0082368D01*
X0017411Y0082368D01*
X0019663Y0083970D02*
X0019663Y0086972D01*
X0019663Y0088574D02*
X0019663Y0090075D01*
X0017411Y0088574D02*
X0017411Y0091576D01*
X0017411Y0093177D02*
X0021915Y0093177D01*
X0021915Y0096180D01*
X0021165Y0097781D02*
X0017411Y0097781D01*
X0017411Y0096180D02*
X0017411Y0093177D01*
X0019663Y0093177D02*
X0019663Y0094679D01*
X0021165Y0097781D02*
X0021915Y0098532D01*
X0021915Y0100033D01*
X0021165Y0100784D01*
X0017411Y0100784D01*
X0018162Y0102385D02*
X0021165Y0102385D01*
X0021915Y0103136D01*
X0021915Y0104637D01*
X0021165Y0105388D01*
X0021915Y0106989D02*
X0017411Y0106989D01*
X0018162Y0105388D02*
X0017411Y0104637D01*
X0017411Y0103136D01*
X0018162Y0102385D01*
X0019663Y0106989D02*
X0019663Y0109992D01*
X0017411Y0109992D02*
X0021915Y0109992D01*
X0021915Y0113094D02*
X0017411Y0113094D01*
X0017411Y0111593D02*
X0017411Y0114596D01*
X0034365Y0128500D02*
X0039365Y0128500D01*
X0069365Y0128500D01*
X0069365Y0153500D01*
X0039365Y0153500D01*
X0034365Y0153500D01*
X0034365Y0128500D01*
X0039365Y0128500D02*
X0039365Y0106000D01*
X0051865Y0106000D01*
X0049365Y0108500D01*
X0049365Y0113500D01*
X0051865Y0116000D01*
X0056865Y0116000D01*
X0059365Y0113500D01*
X0061865Y0116000D01*
X0066865Y0116000D01*
X0069365Y0113500D01*
X0071865Y0116000D01*
X0076865Y0116000D01*
X0079365Y0113500D01*
X0081865Y0116000D01*
X0086865Y0116000D01*
X0089365Y0113500D01*
X0091865Y0116000D01*
X0096865Y0116000D01*
X0099365Y0113500D01*
X0101865Y0116000D01*
X0106865Y0116000D01*
X0109365Y0113500D01*
X0111865Y0116000D01*
X0116865Y0116000D01*
X0119365Y0113500D01*
X0121865Y0116000D01*
X0126865Y0116000D01*
X0129365Y0113500D01*
X0131865Y0116000D01*
X0136865Y0116000D01*
X0139365Y0113500D01*
X0141865Y0116000D01*
X0146865Y0116000D01*
X0149365Y0113500D01*
X0151865Y0116000D01*
X0156865Y0116000D01*
X0159365Y0113500D01*
X0161865Y0116000D01*
X0166865Y0116000D01*
X0169365Y0113500D01*
X0171865Y0116000D01*
X0176865Y0116000D01*
X0179365Y0113500D01*
X0181865Y0116000D01*
X0186865Y0116000D01*
X0189365Y0113500D01*
X0191865Y0116000D01*
X0196865Y0116000D01*
X0199365Y0113500D01*
X0199365Y0108500D01*
X0196865Y0106000D01*
X0191865Y0106000D02*
X0209365Y0106000D01*
X0209365Y0128500D01*
X0206865Y0126000D01*
X0201865Y0126000D01*
X0199365Y0128500D01*
X0196865Y0126000D01*
X0191865Y0126000D01*
X0189365Y0128500D01*
X0189365Y0133500D01*
X0191865Y0136000D01*
X0189365Y0138500D01*
X0189365Y0143500D01*
X0191865Y0146000D01*
X0189365Y0148500D01*
X0189365Y0153500D01*
X0191865Y0156000D01*
X0196865Y0156000D01*
X0199365Y0153500D01*
X0201865Y0156000D01*
X0206865Y0156000D01*
X0209365Y0153500D01*
X0209365Y0128500D01*
X0226365Y0130000D02*
X0322365Y0130000D01*
X0322365Y0002000D01*
X0226365Y0002000D01*
X0226365Y0130000D01*
X0229090Y0111276D02*
X0319641Y0111276D01*
X0319641Y0020724D01*
X0229090Y0020724D01*
X0229090Y0111276D01*
X0231865Y0081000D02*
X0236865Y0081000D01*
X0239365Y0078500D01*
X0239365Y0073500D01*
X0236865Y0071000D01*
X0239365Y0068500D01*
X0239365Y0063500D01*
X0236865Y0061000D01*
X0239365Y0058500D01*
X0239365Y0053500D01*
X0236865Y0051000D01*
X0231865Y0051000D01*
X0229365Y0053500D01*
X0229365Y0058500D01*
X0231865Y0061000D01*
X0229365Y0063500D01*
X0229365Y0068500D01*
X0231865Y0071000D01*
X0229365Y0073500D01*
X0229365Y0078500D01*
X0231865Y0081000D01*
X0269365Y0066000D02*
X0279365Y0066000D01*
X0229089Y0066000D02*
X0229103Y0067111D01*
X0229144Y0068222D01*
X0229212Y0069331D01*
X0229307Y0070438D01*
X0229429Y0071542D01*
X0229579Y0072643D01*
X0229756Y0073740D01*
X0229959Y0074833D01*
X0230189Y0075920D01*
X0230446Y0077001D01*
X0230729Y0078076D01*
X0231039Y0079143D01*
X0231374Y0080202D01*
X0231736Y0081253D01*
X0232123Y0082295D01*
X0232535Y0083326D01*
X0232973Y0084348D01*
X0233436Y0085358D01*
X0233923Y0086357D01*
X0234435Y0087343D01*
X0234971Y0088316D01*
X0235530Y0089277D01*
X0236113Y0090223D01*
X0236719Y0091154D01*
X0237348Y0092070D01*
X0237999Y0092971D01*
X0238672Y0093855D01*
X0239366Y0094723D01*
X0240082Y0095573D01*
X0240818Y0096406D01*
X0241574Y0097220D01*
X0242350Y0098015D01*
X0243145Y0098791D01*
X0243959Y0099547D01*
X0244792Y0100283D01*
X0245642Y0100999D01*
X0246510Y0101693D01*
X0247394Y0102366D01*
X0248295Y0103017D01*
X0249211Y0103646D01*
X0250142Y0104252D01*
X0251088Y0104835D01*
X0252049Y0105394D01*
X0253022Y0105930D01*
X0254008Y0106442D01*
X0255007Y0106929D01*
X0256017Y0107392D01*
X0257039Y0107830D01*
X0258070Y0108242D01*
X0259112Y0108629D01*
X0260163Y0108991D01*
X0261222Y0109326D01*
X0262289Y0109636D01*
X0263364Y0109919D01*
X0264445Y0110176D01*
X0265532Y0110406D01*
X0266625Y0110609D01*
X0267722Y0110786D01*
X0268823Y0110936D01*
X0269927Y0111058D01*
X0271034Y0111153D01*
X0272143Y0111221D01*
X0273254Y0111262D01*
X0274365Y0111276D01*
X0275476Y0111262D01*
X0276587Y0111221D01*
X0277696Y0111153D01*
X0278803Y0111058D01*
X0279907Y0110936D01*
X0281008Y0110786D01*
X0282105Y0110609D01*
X0283198Y0110406D01*
X0284285Y0110176D01*
X0285366Y0109919D01*
X0286441Y0109636D01*
X0287508Y0109326D01*
X0288567Y0108991D01*
X0289618Y0108629D01*
X0290660Y0108242D01*
X0291691Y0107830D01*
X0292713Y0107392D01*
X0293723Y0106929D01*
X0294722Y0106442D01*
X0295708Y0105930D01*
X0296681Y0105394D01*
X0297642Y0104835D01*
X0298588Y0104252D01*
X0299519Y0103646D01*
X0300435Y0103017D01*
X0301336Y0102366D01*
X0302220Y0101693D01*
X0303088Y0100999D01*
X0303938Y0100283D01*
X0304771Y0099547D01*
X0305585Y0098791D01*
X0306380Y0098015D01*
X0307156Y0097220D01*
X0307912Y0096406D01*
X0308648Y0095573D01*
X0309364Y0094723D01*
X0310058Y0093855D01*
X0310731Y0092971D01*
X0311382Y0092070D01*
X0312011Y0091154D01*
X0312617Y0090223D01*
X0313200Y0089277D01*
X0313759Y0088316D01*
X0314295Y0087343D01*
X0314807Y0086357D01*
X0315294Y0085358D01*
X0315757Y0084348D01*
X0316195Y0083326D01*
X0316607Y0082295D01*
X0316994Y0081253D01*
X0317356Y0080202D01*
X0317691Y0079143D01*
X0318001Y0078076D01*
X0318284Y0077001D01*
X0318541Y0075920D01*
X0318771Y0074833D01*
X0318974Y0073740D01*
X0319151Y0072643D01*
X0319301Y0071542D01*
X0319423Y0070438D01*
X0319518Y0069331D01*
X0319586Y0068222D01*
X0319627Y0067111D01*
X0319641Y0066000D01*
X0319627Y0064889D01*
X0319586Y0063778D01*
X0319518Y0062669D01*
X0319423Y0061562D01*
X0319301Y0060458D01*
X0319151Y0059357D01*
X0318974Y0058260D01*
X0318771Y0057167D01*
X0318541Y0056080D01*
X0318284Y0054999D01*
X0318001Y0053924D01*
X0317691Y0052857D01*
X0317356Y0051798D01*
X0316994Y0050747D01*
X0316607Y0049705D01*
X0316195Y0048674D01*
X0315757Y0047652D01*
X0315294Y0046642D01*
X0314807Y0045643D01*
X0314295Y0044657D01*
X0313759Y0043684D01*
X0313200Y0042723D01*
X0312617Y0041777D01*
X0312011Y0040846D01*
X0311382Y0039930D01*
X0310731Y0039029D01*
X0310058Y0038145D01*
X0309364Y0037277D01*
X0308648Y0036427D01*
X0307912Y0035594D01*
X0307156Y0034780D01*
X0306380Y0033985D01*
X0305585Y0033209D01*
X0304771Y0032453D01*
X0303938Y0031717D01*
X0303088Y0031001D01*
X0302220Y0030307D01*
X0301336Y0029634D01*
X0300435Y0028983D01*
X0299519Y0028354D01*
X0298588Y0027748D01*
X0297642Y0027165D01*
X0296681Y0026606D01*
X0295708Y0026070D01*
X0294722Y0025558D01*
X0293723Y0025071D01*
X0292713Y0024608D01*
X0291691Y0024170D01*
X0290660Y0023758D01*
X0289618Y0023371D01*
X0288567Y0023009D01*
X0287508Y0022674D01*
X0286441Y0022364D01*
X0285366Y0022081D01*
X0284285Y0021824D01*
X0283198Y0021594D01*
X0282105Y0021391D01*
X0281008Y0021214D01*
X0279907Y0021064D01*
X0278803Y0020942D01*
X0277696Y0020847D01*
X0276587Y0020779D01*
X0275476Y0020738D01*
X0274365Y0020724D01*
X0273254Y0020738D01*
X0272143Y0020779D01*
X0271034Y0020847D01*
X0269927Y0020942D01*
X0268823Y0021064D01*
X0267722Y0021214D01*
X0266625Y0021391D01*
X0265532Y0021594D01*
X0264445Y0021824D01*
X0263364Y0022081D01*
X0262289Y0022364D01*
X0261222Y0022674D01*
X0260163Y0023009D01*
X0259112Y0023371D01*
X0258070Y0023758D01*
X0257039Y0024170D01*
X0256017Y0024608D01*
X0255007Y0025071D01*
X0254008Y0025558D01*
X0253022Y0026070D01*
X0252049Y0026606D01*
X0251088Y0027165D01*
X0250142Y0027748D01*
X0249211Y0028354D01*
X0248295Y0028983D01*
X0247394Y0029634D01*
X0246510Y0030307D01*
X0245642Y0031001D01*
X0244792Y0031717D01*
X0243959Y0032453D01*
X0243145Y0033209D01*
X0242350Y0033985D01*
X0241574Y0034780D01*
X0240818Y0035594D01*
X0240082Y0036427D01*
X0239366Y0037277D01*
X0238672Y0038145D01*
X0237999Y0039029D01*
X0237348Y0039930D01*
X0236719Y0040846D01*
X0236113Y0041777D01*
X0235530Y0042723D01*
X0234971Y0043684D01*
X0234435Y0044657D01*
X0233923Y0045643D01*
X0233436Y0046642D01*
X0232973Y0047652D01*
X0232535Y0048674D01*
X0232123Y0049705D01*
X0231736Y0050747D01*
X0231374Y0051798D01*
X0231039Y0052857D01*
X0230729Y0053924D01*
X0230446Y0054999D01*
X0230189Y0056080D01*
X0229959Y0057167D01*
X0229756Y0058260D01*
X0229579Y0059357D01*
X0229429Y0060458D01*
X0229307Y0061562D01*
X0229212Y0062669D01*
X0229144Y0063778D01*
X0229103Y0064889D01*
X0229089Y0066000D01*
X0274365Y0071000D02*
X0274365Y0061000D01*
X0191865Y0106000D02*
X0189365Y0108500D01*
X0186865Y0106000D01*
X0191865Y0106000D01*
X0186865Y0106000D02*
X0181865Y0106000D01*
X0179365Y0108500D01*
X0176865Y0106000D01*
X0181865Y0106000D01*
X0176865Y0106000D02*
X0171865Y0106000D01*
X0169365Y0108500D01*
X0166865Y0106000D01*
X0171865Y0106000D01*
X0166865Y0106000D02*
X0161865Y0106000D01*
X0159365Y0108500D01*
X0156865Y0106000D01*
X0161865Y0106000D01*
X0156865Y0106000D02*
X0151865Y0106000D01*
X0149365Y0108500D01*
X0146865Y0106000D01*
X0151865Y0106000D01*
X0146865Y0106000D02*
X0141865Y0106000D01*
X0139365Y0108500D01*
X0136865Y0106000D01*
X0141865Y0106000D01*
X0136865Y0106000D02*
X0131865Y0106000D01*
X0129365Y0108500D01*
X0126865Y0106000D01*
X0131865Y0106000D01*
X0126865Y0106000D02*
X0121865Y0106000D01*
X0119365Y0108500D01*
X0116865Y0106000D01*
X0121865Y0106000D01*
X0116865Y0106000D02*
X0111865Y0106000D01*
X0109365Y0108500D01*
X0106865Y0106000D01*
X0111865Y0106000D01*
X0106865Y0106000D02*
X0101865Y0106000D01*
X0099365Y0108500D01*
X0096865Y0106000D01*
X0101865Y0106000D01*
X0096865Y0106000D02*
X0091865Y0106000D01*
X0089365Y0108500D01*
X0086865Y0106000D01*
X0076865Y0106000D01*
X0079365Y0108500D01*
X0081865Y0106000D01*
X0086865Y0106000D02*
X0091865Y0106000D01*
X0076865Y0106000D02*
X0071865Y0106000D01*
X0069365Y0108500D01*
X0066865Y0106000D01*
X0071865Y0106000D01*
X0066865Y0106000D02*
X0061865Y0106000D01*
X0059365Y0108500D01*
X0056865Y0106000D01*
X0061865Y0106000D01*
X0056865Y0106000D02*
X0051865Y0106000D01*
X0021915Y0088574D02*
X0017411Y0088574D01*
X0017411Y0079366D02*
X0021915Y0079366D01*
X0021915Y0077764D02*
X0021915Y0074762D01*
X0019663Y0074762D02*
X0019663Y0076263D01*
X0039365Y0153500D02*
X0039365Y0176000D01*
X0051865Y0176000D01*
X0049365Y0173500D01*
X0049365Y0168500D01*
X0051865Y0166000D01*
X0056865Y0166000D01*
X0059365Y0168500D01*
X0061865Y0166000D01*
X0066865Y0166000D01*
X0069365Y0168500D01*
X0071865Y0166000D01*
X0076865Y0166000D01*
X0079365Y0168500D01*
X0081865Y0166000D01*
X0086865Y0166000D01*
X0089365Y0168500D01*
X0091865Y0166000D01*
X0096865Y0166000D01*
X0099365Y0168500D01*
X0101865Y0166000D01*
X0106865Y0166000D01*
X0109365Y0168500D01*
X0111865Y0166000D01*
X0116865Y0166000D01*
X0119365Y0168500D01*
X0121865Y0166000D01*
X0126865Y0166000D01*
X0129365Y0168500D01*
X0131865Y0166000D01*
X0136865Y0166000D01*
X0139365Y0168500D01*
X0141865Y0166000D01*
X0146865Y0166000D01*
X0149365Y0168500D01*
X0151865Y0166000D01*
X0156865Y0166000D01*
X0159365Y0168500D01*
X0161865Y0166000D01*
X0166865Y0166000D01*
X0169365Y0168500D01*
X0171865Y0166000D01*
X0176865Y0166000D01*
X0179365Y0168500D01*
X0181865Y0166000D01*
X0186865Y0166000D01*
X0189365Y0168500D01*
X0191865Y0166000D01*
X0196865Y0166000D01*
X0199365Y0168500D01*
X0199365Y0173500D01*
X0196865Y0176000D01*
X0191865Y0176000D02*
X0189365Y0173500D01*
X0186865Y0176000D01*
X0171865Y0176000D01*
X0169365Y0173500D01*
X0166865Y0176000D01*
X0161865Y0176000D02*
X0159365Y0173500D01*
X0156865Y0176000D01*
X0151865Y0176000D02*
X0149365Y0173500D01*
X0146865Y0176000D01*
X0141865Y0176000D02*
X0139365Y0173500D01*
X0136865Y0176000D01*
X0131865Y0176000D02*
X0129365Y0173500D01*
X0126865Y0176000D01*
X0121865Y0176000D02*
X0119365Y0173500D01*
X0116865Y0176000D01*
X0111865Y0176000D02*
X0109365Y0173500D01*
X0106865Y0176000D01*
X0076865Y0176000D01*
X0079365Y0173500D01*
X0081865Y0176000D01*
X0086865Y0176000D02*
X0089365Y0173500D01*
X0091865Y0176000D01*
X0096865Y0176000D02*
X0099365Y0173500D01*
X0101865Y0176000D01*
X0106865Y0176000D02*
X0171865Y0176000D01*
X0176865Y0176000D02*
X0179365Y0173500D01*
X0181865Y0176000D01*
X0186865Y0176000D02*
X0209365Y0176000D01*
X0209365Y0153500D01*
X0167765Y0203500D02*
X0167765Y0262500D01*
X0256365Y0262500D01*
X0256365Y0203500D01*
X0167765Y0203500D01*
X0171865Y0221000D02*
X0169365Y0223500D01*
X0169365Y0228500D01*
X0171865Y0231000D01*
X0169365Y0233500D01*
X0169365Y0238500D01*
X0171865Y0241000D01*
X0169365Y0243500D01*
X0169365Y0248500D01*
X0171865Y0251000D01*
X0169365Y0253500D01*
X0169365Y0258500D01*
X0171865Y0261000D01*
X0186865Y0261000D01*
X0189365Y0258500D01*
X0189365Y0253500D01*
X0186865Y0251000D01*
X0189365Y0248500D01*
X0189365Y0243500D01*
X0186865Y0241000D01*
X0189365Y0238500D01*
X0189365Y0233500D01*
X0186865Y0231000D01*
X0189365Y0228500D01*
X0189365Y0223500D01*
X0186865Y0221000D01*
X0181865Y0221000D01*
X0179365Y0223500D01*
X0176865Y0221000D01*
X0171865Y0221000D01*
X0170751Y0263450D02*
X0173753Y0263450D01*
X0170751Y0263450D02*
X0170751Y0267954D01*
X0169149Y0266453D02*
X0169149Y0263450D01*
X0169149Y0265702D02*
X0166147Y0265702D01*
X0166147Y0266453D02*
X0167648Y0267954D01*
X0169149Y0266453D01*
X0166147Y0266453D02*
X0166147Y0263450D01*
X0164545Y0263450D02*
X0164545Y0267954D01*
X0164545Y0265702D02*
X0161543Y0265702D01*
X0159941Y0267203D02*
X0159191Y0267954D01*
X0157689Y0267954D01*
X0156939Y0267203D01*
X0156939Y0264201D01*
X0157689Y0263450D01*
X0159191Y0263450D01*
X0159941Y0264201D01*
X0161543Y0263450D02*
X0161543Y0267954D01*
X0155337Y0267203D02*
X0154587Y0267954D01*
X0153086Y0267954D01*
X0152335Y0267203D01*
X0152335Y0266453D01*
X0153086Y0265702D01*
X0154587Y0265702D01*
X0155337Y0264951D01*
X0155337Y0264201D01*
X0154587Y0263450D01*
X0153086Y0263450D01*
X0152335Y0264201D01*
X0150734Y0265702D02*
X0147731Y0265702D01*
X0146130Y0267203D02*
X0145379Y0267954D01*
X0143127Y0267954D01*
X0143127Y0263450D01*
X0145379Y0263450D01*
X0146130Y0264201D01*
X0146130Y0267203D01*
X0141526Y0267954D02*
X0138523Y0267954D01*
X0138523Y0263450D01*
X0141526Y0263450D01*
X0140024Y0265702D02*
X0138523Y0265702D01*
X0136922Y0267954D02*
X0133919Y0267954D01*
X0133919Y0263450D01*
X0136922Y0263450D01*
X0135420Y0265702D02*
X0133919Y0265702D01*
X0132318Y0265702D02*
X0132318Y0267203D01*
X0131567Y0267954D01*
X0129315Y0267954D01*
X0129315Y0263450D01*
X0128011Y0263450D02*
X0125008Y0263450D01*
X0125008Y0267954D01*
X0128011Y0267954D01*
X0126509Y0265702D02*
X0125008Y0265702D01*
X0123440Y0267954D02*
X0121939Y0267954D01*
X0122689Y0267954D02*
X0122689Y0263450D01*
X0121939Y0263450D02*
X0123440Y0263450D01*
X0120337Y0263450D02*
X0118836Y0264951D01*
X0119587Y0264951D02*
X0117335Y0264951D01*
X0117335Y0263450D02*
X0117335Y0267954D01*
X0119587Y0267954D01*
X0120337Y0267203D01*
X0120337Y0265702D01*
X0119587Y0264951D01*
X0115734Y0263450D02*
X0112731Y0263450D01*
X0112731Y0267954D01*
X0115734Y0267954D01*
X0114232Y0265702D02*
X0112731Y0265702D01*
X0111130Y0267954D02*
X0108127Y0267954D01*
X0109628Y0267954D02*
X0109628Y0263450D01*
X0105024Y0263450D02*
X0105024Y0267954D01*
X0103523Y0267954D02*
X0106526Y0267954D01*
X0101922Y0266453D02*
X0101922Y0263450D01*
X0101922Y0265702D02*
X0098919Y0265702D01*
X0098919Y0266453D02*
X0100420Y0267954D01*
X0101922Y0266453D01*
X0098919Y0266453D02*
X0098919Y0263450D01*
X0097318Y0264201D02*
X0096567Y0263450D01*
X0094315Y0263450D01*
X0094315Y0267954D01*
X0096567Y0267954D01*
X0097318Y0267203D01*
X0097318Y0266453D01*
X0096567Y0265702D01*
X0094315Y0265702D01*
X0096567Y0265702D02*
X0097318Y0264951D01*
X0097318Y0264201D01*
X0089090Y0252850D02*
X0029641Y0252850D01*
X0029641Y0276472D01*
X0089090Y0276472D01*
X0089090Y0252850D01*
X0089090Y0246157D01*
X0029641Y0246157D01*
X0029641Y0252850D01*
X0072615Y0226754D02*
X0072615Y0222250D01*
X0072615Y0223751D02*
X0074867Y0223751D01*
X0075618Y0224502D01*
X0075618Y0226003D01*
X0074867Y0226754D01*
X0072615Y0226754D01*
X0074117Y0223751D02*
X0075618Y0222250D01*
X0077219Y0222250D02*
X0080222Y0222250D01*
X0078720Y0222250D02*
X0078720Y0226754D01*
X0077219Y0225253D01*
X0077970Y0206754D02*
X0077219Y0206003D01*
X0077970Y0206754D02*
X0079471Y0206754D01*
X0080222Y0206003D01*
X0080222Y0205253D01*
X0077219Y0202250D01*
X0080222Y0202250D01*
X0075618Y0202250D02*
X0074117Y0203751D01*
X0074867Y0203751D02*
X0072615Y0203751D01*
X0072615Y0202250D02*
X0072615Y0206754D01*
X0074867Y0206754D01*
X0075618Y0206003D01*
X0075618Y0204502D01*
X0074867Y0203751D01*
X0076865Y0176000D02*
X0071865Y0176000D01*
X0069365Y0173500D01*
X0066865Y0176000D01*
X0061865Y0176000D01*
X0059365Y0173500D01*
X0056865Y0176000D01*
X0051865Y0176000D01*
X0056865Y0176000D02*
X0061865Y0176000D01*
X0066865Y0176000D02*
X0071865Y0176000D01*
X0021915Y0190950D02*
X0021915Y0193953D01*
X0021915Y0192451D02*
X0017411Y0192451D01*
X0018913Y0190950D01*
X0019663Y0195554D02*
X0019663Y0198556D01*
X0017411Y0200158D02*
X0021915Y0200158D01*
X0020414Y0201659D01*
X0021915Y0203160D01*
X0017411Y0203160D01*
X0017411Y0204762D02*
X0017411Y0206263D01*
X0017411Y0205512D02*
X0021915Y0205512D01*
X0021915Y0204762D02*
X0021915Y0206263D01*
X0021915Y0207831D02*
X0017411Y0207831D01*
X0017411Y0210083D01*
X0018162Y0210834D01*
X0019663Y0210834D01*
X0020414Y0210083D01*
X0020414Y0207831D01*
X0020414Y0209332D02*
X0021915Y0210834D01*
X0021915Y0212435D02*
X0017411Y0212435D01*
X0017411Y0215438D01*
X0019663Y0213936D02*
X0019663Y0212435D01*
X0021915Y0212435D02*
X0021915Y0215438D01*
X0129315Y0264951D02*
X0131567Y0264951D01*
X0132318Y0265702D01*
X0130817Y0264951D02*
X0132318Y0263450D01*
X0175355Y0267954D02*
X0178357Y0267954D01*
X0176856Y0267954D02*
X0176856Y0263450D01*
X0179958Y0263450D02*
X0182961Y0263450D01*
X0184562Y0263450D02*
X0184562Y0267954D01*
X0186814Y0267954D01*
X0187565Y0267203D01*
X0187565Y0265702D01*
X0186814Y0264951D01*
X0184562Y0264951D01*
X0186064Y0264951D02*
X0187565Y0263450D01*
X0189166Y0263450D02*
X0192169Y0263450D01*
X0190668Y0263450D02*
X0190668Y0267954D01*
X0189166Y0266453D01*
X0182961Y0267954D02*
X0179958Y0267954D01*
X0179958Y0263450D01*
X0179958Y0265702D02*
X0181460Y0265702D01*
X0256365Y0262500D02*
X0281965Y0262500D01*
X0281965Y0203500D01*
X0256365Y0203500D01*
X0139365Y0146000D02*
X0139365Y0131000D01*
X0129365Y0131000D01*
X0129365Y0146000D01*
X0139365Y0146000D01*
X0131365Y0138500D02*
X0131367Y0138609D01*
X0131373Y0138718D01*
X0131383Y0138826D01*
X0131397Y0138934D01*
X0131414Y0139042D01*
X0131436Y0139149D01*
X0131461Y0139255D01*
X0131491Y0139359D01*
X0131524Y0139463D01*
X0131561Y0139566D01*
X0131601Y0139667D01*
X0131645Y0139766D01*
X0131693Y0139864D01*
X0131745Y0139961D01*
X0131799Y0140055D01*
X0131857Y0140147D01*
X0131919Y0140237D01*
X0131984Y0140324D01*
X0132051Y0140410D01*
X0132122Y0140493D01*
X0132196Y0140573D01*
X0132273Y0140650D01*
X0132352Y0140725D01*
X0132434Y0140796D01*
X0132519Y0140865D01*
X0132606Y0140930D01*
X0132695Y0140993D01*
X0132787Y0141051D01*
X0132881Y0141107D01*
X0132976Y0141159D01*
X0133074Y0141208D01*
X0133173Y0141253D01*
X0133274Y0141295D01*
X0133376Y0141332D01*
X0133479Y0141366D01*
X0133584Y0141397D01*
X0133690Y0141423D01*
X0133796Y0141446D01*
X0133904Y0141464D01*
X0134012Y0141479D01*
X0134120Y0141490D01*
X0134229Y0141497D01*
X0134338Y0141500D01*
X0134447Y0141499D01*
X0134556Y0141494D01*
X0134664Y0141485D01*
X0134772Y0141472D01*
X0134880Y0141455D01*
X0134987Y0141435D01*
X0135093Y0141410D01*
X0135198Y0141382D01*
X0135302Y0141350D01*
X0135405Y0141314D01*
X0135507Y0141274D01*
X0135607Y0141231D01*
X0135705Y0141184D01*
X0135802Y0141134D01*
X0135896Y0141080D01*
X0135989Y0141022D01*
X0136080Y0140962D01*
X0136168Y0140898D01*
X0136254Y0140831D01*
X0136337Y0140761D01*
X0136418Y0140688D01*
X0136496Y0140612D01*
X0136571Y0140533D01*
X0136644Y0140451D01*
X0136713Y0140367D01*
X0136779Y0140281D01*
X0136842Y0140192D01*
X0136902Y0140101D01*
X0136959Y0140008D01*
X0137012Y0139913D01*
X0137061Y0139816D01*
X0137107Y0139717D01*
X0137149Y0139617D01*
X0137188Y0139515D01*
X0137223Y0139411D01*
X0137254Y0139307D01*
X0137282Y0139202D01*
X0137305Y0139095D01*
X0137325Y0138988D01*
X0137341Y0138880D01*
X0137353Y0138772D01*
X0137361Y0138663D01*
X0137365Y0138554D01*
X0137365Y0138446D01*
X0137361Y0138337D01*
X0137353Y0138228D01*
X0137341Y0138120D01*
X0137325Y0138012D01*
X0137305Y0137905D01*
X0137282Y0137798D01*
X0137254Y0137693D01*
X0137223Y0137589D01*
X0137188Y0137485D01*
X0137149Y0137383D01*
X0137107Y0137283D01*
X0137061Y0137184D01*
X0137012Y0137087D01*
X0136959Y0136992D01*
X0136902Y0136899D01*
X0136842Y0136808D01*
X0136779Y0136719D01*
X0136713Y0136633D01*
X0136644Y0136549D01*
X0136571Y0136467D01*
X0136496Y0136388D01*
X0136418Y0136312D01*
X0136337Y0136239D01*
X0136254Y0136169D01*
X0136168Y0136102D01*
X0136080Y0136038D01*
X0135989Y0135978D01*
X0135896Y0135920D01*
X0135802Y0135866D01*
X0135705Y0135816D01*
X0135607Y0135769D01*
X0135507Y0135726D01*
X0135405Y0135686D01*
X0135302Y0135650D01*
X0135198Y0135618D01*
X0135093Y0135590D01*
X0134987Y0135565D01*
X0134880Y0135545D01*
X0134772Y0135528D01*
X0134664Y0135515D01*
X0134556Y0135506D01*
X0134447Y0135501D01*
X0134338Y0135500D01*
X0134229Y0135503D01*
X0134120Y0135510D01*
X0134012Y0135521D01*
X0133904Y0135536D01*
X0133796Y0135554D01*
X0133690Y0135577D01*
X0133584Y0135603D01*
X0133479Y0135634D01*
X0133376Y0135668D01*
X0133274Y0135705D01*
X0133173Y0135747D01*
X0133074Y0135792D01*
X0132976Y0135841D01*
X0132881Y0135893D01*
X0132787Y0135949D01*
X0132695Y0136007D01*
X0132606Y0136070D01*
X0132519Y0136135D01*
X0132434Y0136204D01*
X0132352Y0136275D01*
X0132273Y0136350D01*
X0132196Y0136427D01*
X0132122Y0136507D01*
X0132051Y0136590D01*
X0131984Y0136676D01*
X0131919Y0136763D01*
X0131857Y0136853D01*
X0131799Y0136945D01*
X0131745Y0137039D01*
X0131693Y0137136D01*
X0131645Y0137234D01*
X0131601Y0137333D01*
X0131561Y0137434D01*
X0131524Y0137537D01*
X0131491Y0137641D01*
X0131461Y0137745D01*
X0131436Y0137851D01*
X0131414Y0137958D01*
X0131397Y0138066D01*
X0131383Y0138174D01*
X0131373Y0138282D01*
X0131367Y0138391D01*
X0131365Y0138500D01*
D17*
X0098565Y0196000D03*
X0098565Y0216000D03*
X0070165Y0216000D03*
X0070165Y0196000D03*
D18*
X0249715Y0195554D02*
X0250766Y0194503D01*
X0252868Y0194503D01*
X0253919Y0193452D01*
X0253919Y0192401D01*
X0252868Y0191350D01*
X0250766Y0191350D01*
X0249715Y0192401D01*
X0249715Y0195554D02*
X0249715Y0196604D01*
X0250766Y0197655D01*
X0252868Y0197655D01*
X0253919Y0196604D01*
X0256161Y0195554D02*
X0258263Y0197655D01*
X0258263Y0191350D01*
X0260364Y0191350D02*
X0256161Y0191350D01*
M02*
