G75*
%MOIN*%
%OFA0B0*%
%FSLAX25Y25*%
%IPPOS*%
%LPD*%
%AMOC8*
5,1,8,0,0,1.08239X$1,22.5*
%
%ADD10C,0.00000*%
%ADD11C,0.00300*%
%ADD12C,0.00400*%
%ADD13C,0.04700*%
%ADD14C,0.01600*%
%ADD15C,0.00600*%
%ADD16C,0.00500*%
%ADD17R,0.03400X0.02400*%
D10*
X0014365Y0001000D02*
X0014365Y0275961D01*
X0283066Y0275961D01*
X0283066Y0001000D01*
X0014365Y0001000D01*
X0270822Y0020488D02*
X0270824Y0020606D01*
X0270830Y0020725D01*
X0270840Y0020843D01*
X0270854Y0020960D01*
X0270871Y0021077D01*
X0270893Y0021194D01*
X0270919Y0021309D01*
X0270948Y0021424D01*
X0270981Y0021538D01*
X0271018Y0021650D01*
X0271059Y0021761D01*
X0271103Y0021871D01*
X0271151Y0021979D01*
X0271203Y0022086D01*
X0271258Y0022191D01*
X0271317Y0022294D01*
X0271379Y0022394D01*
X0271444Y0022493D01*
X0271513Y0022590D01*
X0271584Y0022684D01*
X0271659Y0022775D01*
X0271737Y0022865D01*
X0271818Y0022951D01*
X0271902Y0023035D01*
X0271988Y0023116D01*
X0272078Y0023194D01*
X0272169Y0023269D01*
X0272263Y0023340D01*
X0272360Y0023409D01*
X0272459Y0023474D01*
X0272559Y0023536D01*
X0272662Y0023595D01*
X0272767Y0023650D01*
X0272874Y0023702D01*
X0272982Y0023750D01*
X0273092Y0023794D01*
X0273203Y0023835D01*
X0273315Y0023872D01*
X0273429Y0023905D01*
X0273544Y0023934D01*
X0273659Y0023960D01*
X0273776Y0023982D01*
X0273893Y0023999D01*
X0274010Y0024013D01*
X0274128Y0024023D01*
X0274247Y0024029D01*
X0274365Y0024031D01*
X0274483Y0024029D01*
X0274602Y0024023D01*
X0274720Y0024013D01*
X0274837Y0023999D01*
X0274954Y0023982D01*
X0275071Y0023960D01*
X0275186Y0023934D01*
X0275301Y0023905D01*
X0275415Y0023872D01*
X0275527Y0023835D01*
X0275638Y0023794D01*
X0275748Y0023750D01*
X0275856Y0023702D01*
X0275963Y0023650D01*
X0276068Y0023595D01*
X0276171Y0023536D01*
X0276271Y0023474D01*
X0276370Y0023409D01*
X0276467Y0023340D01*
X0276561Y0023269D01*
X0276652Y0023194D01*
X0276742Y0023116D01*
X0276828Y0023035D01*
X0276912Y0022951D01*
X0276993Y0022865D01*
X0277071Y0022775D01*
X0277146Y0022684D01*
X0277217Y0022590D01*
X0277286Y0022493D01*
X0277351Y0022394D01*
X0277413Y0022294D01*
X0277472Y0022191D01*
X0277527Y0022086D01*
X0277579Y0021979D01*
X0277627Y0021871D01*
X0277671Y0021761D01*
X0277712Y0021650D01*
X0277749Y0021538D01*
X0277782Y0021424D01*
X0277811Y0021309D01*
X0277837Y0021194D01*
X0277859Y0021077D01*
X0277876Y0020960D01*
X0277890Y0020843D01*
X0277900Y0020725D01*
X0277906Y0020606D01*
X0277908Y0020488D01*
X0277906Y0020370D01*
X0277900Y0020251D01*
X0277890Y0020133D01*
X0277876Y0020016D01*
X0277859Y0019899D01*
X0277837Y0019782D01*
X0277811Y0019667D01*
X0277782Y0019552D01*
X0277749Y0019438D01*
X0277712Y0019326D01*
X0277671Y0019215D01*
X0277627Y0019105D01*
X0277579Y0018997D01*
X0277527Y0018890D01*
X0277472Y0018785D01*
X0277413Y0018682D01*
X0277351Y0018582D01*
X0277286Y0018483D01*
X0277217Y0018386D01*
X0277146Y0018292D01*
X0277071Y0018201D01*
X0276993Y0018111D01*
X0276912Y0018025D01*
X0276828Y0017941D01*
X0276742Y0017860D01*
X0276652Y0017782D01*
X0276561Y0017707D01*
X0276467Y0017636D01*
X0276370Y0017567D01*
X0276271Y0017502D01*
X0276171Y0017440D01*
X0276068Y0017381D01*
X0275963Y0017326D01*
X0275856Y0017274D01*
X0275748Y0017226D01*
X0275638Y0017182D01*
X0275527Y0017141D01*
X0275415Y0017104D01*
X0275301Y0017071D01*
X0275186Y0017042D01*
X0275071Y0017016D01*
X0274954Y0016994D01*
X0274837Y0016977D01*
X0274720Y0016963D01*
X0274602Y0016953D01*
X0274483Y0016947D01*
X0274365Y0016945D01*
X0274247Y0016947D01*
X0274128Y0016953D01*
X0274010Y0016963D01*
X0273893Y0016977D01*
X0273776Y0016994D01*
X0273659Y0017016D01*
X0273544Y0017042D01*
X0273429Y0017071D01*
X0273315Y0017104D01*
X0273203Y0017141D01*
X0273092Y0017182D01*
X0272982Y0017226D01*
X0272874Y0017274D01*
X0272767Y0017326D01*
X0272662Y0017381D01*
X0272559Y0017440D01*
X0272459Y0017502D01*
X0272360Y0017567D01*
X0272263Y0017636D01*
X0272169Y0017707D01*
X0272078Y0017782D01*
X0271988Y0017860D01*
X0271902Y0017941D01*
X0271818Y0018025D01*
X0271737Y0018111D01*
X0271659Y0018201D01*
X0271584Y0018292D01*
X0271513Y0018386D01*
X0271444Y0018483D01*
X0271379Y0018582D01*
X0271317Y0018682D01*
X0271258Y0018785D01*
X0271203Y0018890D01*
X0271151Y0018997D01*
X0271103Y0019105D01*
X0271059Y0019215D01*
X0271018Y0019326D01*
X0270981Y0019438D01*
X0270948Y0019552D01*
X0270919Y0019667D01*
X0270893Y0019782D01*
X0270871Y0019899D01*
X0270854Y0020016D01*
X0270840Y0020133D01*
X0270830Y0020251D01*
X0270824Y0020370D01*
X0270822Y0020488D01*
X0270822Y0131512D02*
X0270824Y0131630D01*
X0270830Y0131749D01*
X0270840Y0131867D01*
X0270854Y0131984D01*
X0270871Y0132101D01*
X0270893Y0132218D01*
X0270919Y0132333D01*
X0270948Y0132448D01*
X0270981Y0132562D01*
X0271018Y0132674D01*
X0271059Y0132785D01*
X0271103Y0132895D01*
X0271151Y0133003D01*
X0271203Y0133110D01*
X0271258Y0133215D01*
X0271317Y0133318D01*
X0271379Y0133418D01*
X0271444Y0133517D01*
X0271513Y0133614D01*
X0271584Y0133708D01*
X0271659Y0133799D01*
X0271737Y0133889D01*
X0271818Y0133975D01*
X0271902Y0134059D01*
X0271988Y0134140D01*
X0272078Y0134218D01*
X0272169Y0134293D01*
X0272263Y0134364D01*
X0272360Y0134433D01*
X0272459Y0134498D01*
X0272559Y0134560D01*
X0272662Y0134619D01*
X0272767Y0134674D01*
X0272874Y0134726D01*
X0272982Y0134774D01*
X0273092Y0134818D01*
X0273203Y0134859D01*
X0273315Y0134896D01*
X0273429Y0134929D01*
X0273544Y0134958D01*
X0273659Y0134984D01*
X0273776Y0135006D01*
X0273893Y0135023D01*
X0274010Y0135037D01*
X0274128Y0135047D01*
X0274247Y0135053D01*
X0274365Y0135055D01*
X0274483Y0135053D01*
X0274602Y0135047D01*
X0274720Y0135037D01*
X0274837Y0135023D01*
X0274954Y0135006D01*
X0275071Y0134984D01*
X0275186Y0134958D01*
X0275301Y0134929D01*
X0275415Y0134896D01*
X0275527Y0134859D01*
X0275638Y0134818D01*
X0275748Y0134774D01*
X0275856Y0134726D01*
X0275963Y0134674D01*
X0276068Y0134619D01*
X0276171Y0134560D01*
X0276271Y0134498D01*
X0276370Y0134433D01*
X0276467Y0134364D01*
X0276561Y0134293D01*
X0276652Y0134218D01*
X0276742Y0134140D01*
X0276828Y0134059D01*
X0276912Y0133975D01*
X0276993Y0133889D01*
X0277071Y0133799D01*
X0277146Y0133708D01*
X0277217Y0133614D01*
X0277286Y0133517D01*
X0277351Y0133418D01*
X0277413Y0133318D01*
X0277472Y0133215D01*
X0277527Y0133110D01*
X0277579Y0133003D01*
X0277627Y0132895D01*
X0277671Y0132785D01*
X0277712Y0132674D01*
X0277749Y0132562D01*
X0277782Y0132448D01*
X0277811Y0132333D01*
X0277837Y0132218D01*
X0277859Y0132101D01*
X0277876Y0131984D01*
X0277890Y0131867D01*
X0277900Y0131749D01*
X0277906Y0131630D01*
X0277908Y0131512D01*
X0277906Y0131394D01*
X0277900Y0131275D01*
X0277890Y0131157D01*
X0277876Y0131040D01*
X0277859Y0130923D01*
X0277837Y0130806D01*
X0277811Y0130691D01*
X0277782Y0130576D01*
X0277749Y0130462D01*
X0277712Y0130350D01*
X0277671Y0130239D01*
X0277627Y0130129D01*
X0277579Y0130021D01*
X0277527Y0129914D01*
X0277472Y0129809D01*
X0277413Y0129706D01*
X0277351Y0129606D01*
X0277286Y0129507D01*
X0277217Y0129410D01*
X0277146Y0129316D01*
X0277071Y0129225D01*
X0276993Y0129135D01*
X0276912Y0129049D01*
X0276828Y0128965D01*
X0276742Y0128884D01*
X0276652Y0128806D01*
X0276561Y0128731D01*
X0276467Y0128660D01*
X0276370Y0128591D01*
X0276271Y0128526D01*
X0276171Y0128464D01*
X0276068Y0128405D01*
X0275963Y0128350D01*
X0275856Y0128298D01*
X0275748Y0128250D01*
X0275638Y0128206D01*
X0275527Y0128165D01*
X0275415Y0128128D01*
X0275301Y0128095D01*
X0275186Y0128066D01*
X0275071Y0128040D01*
X0274954Y0128018D01*
X0274837Y0128001D01*
X0274720Y0127987D01*
X0274602Y0127977D01*
X0274483Y0127971D01*
X0274365Y0127969D01*
X0274247Y0127971D01*
X0274128Y0127977D01*
X0274010Y0127987D01*
X0273893Y0128001D01*
X0273776Y0128018D01*
X0273659Y0128040D01*
X0273544Y0128066D01*
X0273429Y0128095D01*
X0273315Y0128128D01*
X0273203Y0128165D01*
X0273092Y0128206D01*
X0272982Y0128250D01*
X0272874Y0128298D01*
X0272767Y0128350D01*
X0272662Y0128405D01*
X0272559Y0128464D01*
X0272459Y0128526D01*
X0272360Y0128591D01*
X0272263Y0128660D01*
X0272169Y0128731D01*
X0272078Y0128806D01*
X0271988Y0128884D01*
X0271902Y0128965D01*
X0271818Y0129049D01*
X0271737Y0129135D01*
X0271659Y0129225D01*
X0271584Y0129316D01*
X0271513Y0129410D01*
X0271444Y0129507D01*
X0271379Y0129606D01*
X0271317Y0129706D01*
X0271258Y0129809D01*
X0271203Y0129914D01*
X0271151Y0130021D01*
X0271103Y0130129D01*
X0271059Y0130239D01*
X0271018Y0130350D01*
X0270981Y0130462D01*
X0270948Y0130576D01*
X0270919Y0130691D01*
X0270893Y0130806D01*
X0270871Y0130923D01*
X0270854Y0131040D01*
X0270840Y0131157D01*
X0270830Y0131275D01*
X0270824Y0131394D01*
X0270822Y0131512D01*
D11*
X0270654Y0159150D02*
X0270654Y0162853D01*
X0273123Y0159150D01*
X0273123Y0162853D01*
X0269433Y0162853D02*
X0268198Y0162853D01*
X0268816Y0162853D02*
X0268816Y0159150D01*
X0269433Y0159150D02*
X0268198Y0159150D01*
X0266984Y0160384D02*
X0266984Y0162853D01*
X0266984Y0160384D02*
X0265750Y0159150D01*
X0264515Y0160384D01*
X0264515Y0162853D01*
X0265132Y0169150D02*
X0266367Y0169150D01*
X0266984Y0169767D01*
X0266984Y0171002D01*
X0265750Y0171002D01*
X0266984Y0172236D02*
X0266367Y0172853D01*
X0265132Y0172853D01*
X0264515Y0172236D01*
X0264515Y0169767D01*
X0265132Y0169150D01*
X0268198Y0169150D02*
X0268198Y0172853D01*
X0270667Y0169150D01*
X0270667Y0172853D01*
X0271882Y0172853D02*
X0273733Y0172853D01*
X0274350Y0172236D01*
X0274350Y0169767D01*
X0273733Y0169150D01*
X0271882Y0169150D01*
X0271882Y0172853D01*
X0214350Y0184767D02*
X0214350Y0187236D01*
X0213733Y0187853D01*
X0211882Y0187853D01*
X0211882Y0184150D01*
X0213733Y0184150D01*
X0214350Y0184767D01*
X0210667Y0184150D02*
X0210667Y0187853D01*
X0208198Y0187853D02*
X0210667Y0184150D01*
X0208198Y0184150D02*
X0208198Y0187853D01*
X0206984Y0187236D02*
X0206367Y0187853D01*
X0205132Y0187853D01*
X0204515Y0187236D01*
X0204515Y0184767D01*
X0205132Y0184150D01*
X0206367Y0184150D01*
X0206984Y0184767D01*
X0206984Y0186002D01*
X0205750Y0186002D01*
X0173123Y0184150D02*
X0173123Y0187853D01*
X0170654Y0187853D02*
X0173123Y0184150D01*
X0170654Y0184150D02*
X0170654Y0187853D01*
X0169433Y0187853D02*
X0168198Y0187853D01*
X0168816Y0187853D02*
X0168816Y0184150D01*
X0169433Y0184150D02*
X0168198Y0184150D01*
X0166984Y0185384D02*
X0166984Y0187853D01*
X0166984Y0185384D02*
X0165750Y0184150D01*
X0164515Y0185384D01*
X0164515Y0187853D01*
X0156189Y0224150D02*
X0156806Y0224767D01*
X0156806Y0227236D01*
X0156189Y0227853D01*
X0154954Y0227853D01*
X0154337Y0227236D01*
X0154337Y0224767D01*
X0154954Y0224150D01*
X0156189Y0224150D01*
X0153123Y0224767D02*
X0153123Y0225384D01*
X0152505Y0226002D01*
X0151271Y0226002D01*
X0150654Y0226619D01*
X0150654Y0227236D01*
X0151271Y0227853D01*
X0152505Y0227853D01*
X0153123Y0227236D01*
X0153123Y0224767D02*
X0152505Y0224150D01*
X0151271Y0224150D01*
X0150654Y0224767D01*
X0149433Y0224150D02*
X0148198Y0224150D01*
X0148816Y0224150D02*
X0148816Y0227853D01*
X0149433Y0227853D02*
X0148198Y0227853D01*
X0146984Y0227853D02*
X0145750Y0226619D01*
X0144515Y0227853D01*
X0144515Y0224150D01*
X0146984Y0224150D02*
X0146984Y0227853D01*
X0146367Y0234150D02*
X0145132Y0234150D01*
X0144515Y0234767D01*
X0145132Y0236002D02*
X0146367Y0236002D01*
X0146984Y0235384D01*
X0146984Y0234767D01*
X0146367Y0234150D01*
X0148198Y0234767D02*
X0148198Y0237236D01*
X0148816Y0237853D01*
X0150050Y0237853D01*
X0150667Y0237236D01*
X0151882Y0237853D02*
X0151882Y0234150D01*
X0151882Y0235384D02*
X0154350Y0237853D01*
X0152499Y0236002D02*
X0154350Y0234150D01*
X0150667Y0234767D02*
X0150050Y0234150D01*
X0148816Y0234150D01*
X0148198Y0234767D01*
X0146984Y0237236D02*
X0146367Y0237853D01*
X0145132Y0237853D01*
X0144515Y0237236D01*
X0144515Y0236619D01*
X0145132Y0236002D01*
X0145132Y0244150D02*
X0146367Y0244150D01*
X0146984Y0244767D01*
X0148198Y0244150D02*
X0150667Y0244150D01*
X0149433Y0246002D02*
X0148198Y0246002D01*
X0146984Y0247236D02*
X0146367Y0247853D01*
X0145132Y0247853D01*
X0144515Y0247236D01*
X0144515Y0244767D01*
X0145132Y0244150D01*
X0148198Y0244150D02*
X0148198Y0247853D01*
X0150667Y0247853D01*
X0150667Y0254150D02*
X0150667Y0257853D01*
X0151882Y0257853D02*
X0153733Y0257853D01*
X0154350Y0257236D01*
X0154350Y0254767D01*
X0153733Y0254150D01*
X0151882Y0254150D01*
X0151882Y0257853D01*
X0148198Y0257853D02*
X0148198Y0254150D01*
X0146984Y0254767D02*
X0146984Y0256002D01*
X0145750Y0256002D01*
X0146984Y0257236D02*
X0146367Y0257853D01*
X0145132Y0257853D01*
X0144515Y0257236D01*
X0144515Y0254767D01*
X0145132Y0254150D01*
X0146367Y0254150D01*
X0146984Y0254767D01*
X0148198Y0257853D02*
X0150667Y0254150D01*
X0189515Y0254767D02*
X0190132Y0254150D01*
X0191367Y0254150D01*
X0191984Y0254767D01*
X0191984Y0255384D01*
X0191367Y0256002D01*
X0190750Y0256002D01*
X0191367Y0256002D02*
X0191984Y0256619D01*
X0191984Y0257236D01*
X0191367Y0257853D01*
X0190132Y0257853D01*
X0189515Y0257236D01*
X0193198Y0254767D02*
X0193816Y0254767D01*
X0193816Y0254150D01*
X0193198Y0254150D01*
X0193198Y0254767D01*
X0195040Y0254767D02*
X0195657Y0254150D01*
X0196892Y0254150D01*
X0197509Y0254767D01*
X0197509Y0255384D01*
X0196892Y0256002D01*
X0196274Y0256002D01*
X0196892Y0256002D02*
X0197509Y0256619D01*
X0197509Y0257236D01*
X0196892Y0257853D01*
X0195657Y0257853D01*
X0195040Y0257236D01*
X0202406Y0257853D02*
X0202406Y0255384D01*
X0203641Y0254150D01*
X0204875Y0255384D01*
X0204875Y0257853D01*
X0199350Y0247853D02*
X0199350Y0244150D01*
X0196882Y0247853D01*
X0196882Y0244150D01*
X0195667Y0244767D02*
X0195050Y0244150D01*
X0193816Y0244150D01*
X0193198Y0244767D01*
X0191984Y0244767D02*
X0191367Y0244150D01*
X0190132Y0244150D01*
X0189515Y0244767D01*
X0189515Y0247236D01*
X0190132Y0247853D01*
X0191367Y0247853D01*
X0191984Y0247236D01*
X0193198Y0247236D02*
X0193198Y0246619D01*
X0193816Y0246002D01*
X0195050Y0246002D01*
X0195667Y0245384D01*
X0195667Y0244767D01*
X0195667Y0247236D02*
X0195050Y0247853D01*
X0193816Y0247853D01*
X0193198Y0247236D01*
X0193816Y0237853D02*
X0193198Y0237236D01*
X0193198Y0234767D01*
X0193816Y0234150D01*
X0195050Y0234150D01*
X0195667Y0234767D01*
X0195667Y0237236D01*
X0195050Y0237853D01*
X0193816Y0237853D01*
X0191984Y0237853D02*
X0191984Y0234150D01*
X0189515Y0234150D02*
X0189515Y0237853D01*
X0190750Y0236619D01*
X0191984Y0237853D01*
X0196882Y0237236D02*
X0196882Y0236619D01*
X0197499Y0236002D01*
X0198733Y0236002D01*
X0199350Y0235384D01*
X0199350Y0234767D01*
X0198733Y0234150D01*
X0197499Y0234150D01*
X0196882Y0234767D01*
X0196882Y0237236D02*
X0197499Y0237853D01*
X0198733Y0237853D01*
X0199350Y0237236D01*
X0200565Y0237853D02*
X0201799Y0237853D01*
X0201182Y0237853D02*
X0201182Y0234150D01*
X0200565Y0234150D02*
X0201799Y0234150D01*
X0081215Y0233876D02*
X0081215Y0233259D01*
X0080598Y0233259D01*
X0080598Y0233876D01*
X0081215Y0233876D01*
X0080598Y0235101D02*
X0081215Y0235718D01*
X0081215Y0236952D01*
X0080598Y0237569D01*
X0079981Y0237569D01*
X0079364Y0236952D01*
X0079364Y0236335D01*
X0079364Y0236952D02*
X0078746Y0237569D01*
X0078129Y0237569D01*
X0077512Y0236952D01*
X0077512Y0235718D01*
X0078129Y0235101D01*
X0078129Y0232045D02*
X0078746Y0232045D01*
X0079364Y0231427D01*
X0079981Y0232045D01*
X0080598Y0232045D01*
X0081215Y0231427D01*
X0081215Y0230193D01*
X0080598Y0229576D01*
X0079364Y0230810D02*
X0079364Y0231427D01*
X0078129Y0232045D02*
X0077512Y0231427D01*
X0077512Y0230193D01*
X0078129Y0229576D01*
X0071215Y0231417D02*
X0071215Y0233269D01*
X0070598Y0233886D01*
X0068129Y0233886D01*
X0067512Y0233269D01*
X0067512Y0231417D01*
X0071215Y0231417D01*
X0071215Y0235101D02*
X0068746Y0235101D01*
X0067512Y0236335D01*
X0068746Y0237569D01*
X0071215Y0237569D01*
X0069364Y0237569D02*
X0069364Y0235101D01*
X0067512Y0238784D02*
X0067512Y0241252D01*
X0067512Y0240018D02*
X0071215Y0240018D01*
X0071215Y0242467D02*
X0068746Y0242467D01*
X0067512Y0243701D01*
X0068746Y0244936D01*
X0071215Y0244936D01*
X0069364Y0244936D02*
X0069364Y0242467D01*
X0061215Y0242467D02*
X0061215Y0244936D01*
X0061215Y0242467D02*
X0057512Y0242467D01*
X0061215Y0241252D02*
X0061215Y0238784D01*
X0057512Y0238784D01*
X0057512Y0237569D02*
X0060598Y0237569D01*
X0061215Y0236952D01*
X0061215Y0235718D01*
X0060598Y0235101D01*
X0057512Y0235101D01*
X0057512Y0233886D02*
X0061215Y0233886D01*
X0057512Y0231417D01*
X0061215Y0231417D01*
X0051215Y0235718D02*
X0051215Y0236952D01*
X0050598Y0237569D01*
X0049364Y0237569D01*
X0049364Y0236335D01*
X0048129Y0235101D02*
X0050598Y0235101D01*
X0051215Y0235718D01*
X0051215Y0238784D02*
X0047512Y0238784D01*
X0051215Y0241252D01*
X0047512Y0241252D01*
X0047512Y0242467D02*
X0047512Y0244318D01*
X0048129Y0244936D01*
X0050598Y0244936D01*
X0051215Y0244318D01*
X0051215Y0242467D01*
X0047512Y0242467D01*
X0048129Y0237569D02*
X0047512Y0236952D01*
X0047512Y0235718D01*
X0048129Y0235101D01*
X0077512Y0242467D02*
X0079981Y0242467D01*
X0081215Y0243701D01*
X0079981Y0244936D01*
X0077512Y0244936D01*
X0164515Y0107853D02*
X0164515Y0105384D01*
X0165750Y0104150D01*
X0166984Y0105384D01*
X0166984Y0107853D01*
X0168198Y0107236D02*
X0168198Y0104767D01*
X0168816Y0104150D01*
X0170050Y0104150D01*
X0170667Y0104767D01*
X0170667Y0107236D01*
X0170050Y0107853D01*
X0168816Y0107853D01*
X0168198Y0107236D01*
X0171882Y0107853D02*
X0171882Y0104767D01*
X0172499Y0104150D01*
X0173733Y0104150D01*
X0174350Y0104767D01*
X0174350Y0107853D01*
X0175565Y0107853D02*
X0178033Y0107853D01*
X0176799Y0107853D02*
X0176799Y0104150D01*
X0204515Y0104767D02*
X0205132Y0104150D01*
X0206367Y0104150D01*
X0206984Y0104767D01*
X0206984Y0106002D01*
X0205750Y0106002D01*
X0206984Y0107236D02*
X0206367Y0107853D01*
X0205132Y0107853D01*
X0204515Y0107236D01*
X0204515Y0104767D01*
X0208198Y0104150D02*
X0208198Y0107853D01*
X0210667Y0104150D01*
X0210667Y0107853D01*
X0211882Y0107853D02*
X0211882Y0104150D01*
X0213733Y0104150D01*
X0214350Y0104767D01*
X0214350Y0107236D01*
X0213733Y0107853D01*
X0211882Y0107853D01*
X0211367Y0087853D02*
X0210132Y0087853D01*
X0209515Y0087236D01*
X0209515Y0084767D01*
X0210132Y0084150D01*
X0211367Y0084150D01*
X0211984Y0084767D01*
X0211984Y0086002D01*
X0210750Y0086002D01*
X0211984Y0087236D02*
X0211367Y0087853D01*
X0213198Y0087853D02*
X0215667Y0084150D01*
X0215667Y0087853D01*
X0216882Y0087853D02*
X0218733Y0087853D01*
X0219350Y0087236D01*
X0219350Y0084767D01*
X0218733Y0084150D01*
X0216882Y0084150D01*
X0216882Y0087853D01*
X0213198Y0087853D02*
X0213198Y0084150D01*
X0214433Y0077853D02*
X0215667Y0076619D01*
X0215667Y0074150D01*
X0215667Y0076002D02*
X0213198Y0076002D01*
X0213198Y0076619D02*
X0214433Y0077853D01*
X0213198Y0076619D02*
X0213198Y0074150D01*
X0211984Y0074767D02*
X0211984Y0077236D01*
X0211367Y0077853D01*
X0209515Y0077853D01*
X0209515Y0074150D01*
X0211367Y0074150D01*
X0211984Y0074767D01*
X0216882Y0077853D02*
X0219350Y0077853D01*
X0218116Y0077853D02*
X0218116Y0074150D01*
X0220565Y0074150D02*
X0220565Y0076619D01*
X0221799Y0077853D01*
X0223033Y0076619D01*
X0223033Y0074150D01*
X0223033Y0076002D02*
X0220565Y0076002D01*
X0219350Y0067853D02*
X0219350Y0065384D01*
X0218116Y0064150D01*
X0216882Y0065384D01*
X0216882Y0067853D01*
X0211984Y0067853D02*
X0209515Y0067853D01*
X0209515Y0066002D01*
X0210750Y0066619D01*
X0211367Y0066619D01*
X0211984Y0066002D01*
X0211984Y0064767D01*
X0211367Y0064150D01*
X0210132Y0064150D01*
X0209515Y0064767D01*
X0204981Y0041510D02*
X0202512Y0041510D01*
X0204981Y0041510D02*
X0206215Y0040275D01*
X0204981Y0039041D01*
X0202512Y0039041D01*
X0203129Y0034143D02*
X0203746Y0034143D01*
X0204364Y0033526D01*
X0204981Y0034143D01*
X0205598Y0034143D01*
X0206215Y0033526D01*
X0206215Y0032292D01*
X0205598Y0031675D01*
X0205598Y0030450D02*
X0206215Y0030450D01*
X0206215Y0029833D01*
X0205598Y0029833D01*
X0205598Y0030450D01*
X0205598Y0028619D02*
X0206215Y0028002D01*
X0206215Y0026767D01*
X0205598Y0026150D01*
X0204364Y0027384D02*
X0204364Y0028002D01*
X0204981Y0028619D01*
X0205598Y0028619D01*
X0204364Y0028002D02*
X0203746Y0028619D01*
X0203129Y0028619D01*
X0202512Y0028002D01*
X0202512Y0026767D01*
X0203129Y0026150D01*
X0203129Y0031675D02*
X0202512Y0032292D01*
X0202512Y0033526D01*
X0203129Y0034143D01*
X0204364Y0033526D02*
X0204364Y0032909D01*
X0196215Y0032302D02*
X0193746Y0032302D01*
X0192512Y0031068D01*
X0193746Y0029833D01*
X0196215Y0029833D01*
X0195598Y0028619D02*
X0193129Y0028619D01*
X0192512Y0028002D01*
X0192512Y0026150D01*
X0196215Y0026150D01*
X0196215Y0028002D01*
X0195598Y0028619D01*
X0194364Y0029833D02*
X0194364Y0032302D01*
X0192512Y0033516D02*
X0192512Y0035985D01*
X0192512Y0034751D02*
X0196215Y0034751D01*
X0196215Y0037199D02*
X0193746Y0037199D01*
X0192512Y0038434D01*
X0193746Y0039668D01*
X0196215Y0039668D01*
X0194364Y0039668D02*
X0194364Y0037199D01*
X0151215Y0035368D02*
X0150598Y0035985D01*
X0148129Y0035985D01*
X0147512Y0035368D01*
X0147512Y0033516D01*
X0151215Y0033516D01*
X0151215Y0035368D01*
X0150598Y0032302D02*
X0148129Y0032302D01*
X0147512Y0031685D01*
X0147512Y0029833D01*
X0151215Y0029833D01*
X0151215Y0031685D01*
X0150598Y0032302D01*
X0151215Y0028619D02*
X0148746Y0028619D01*
X0147512Y0027384D01*
X0148746Y0026150D01*
X0151215Y0026150D01*
X0149364Y0026150D02*
X0149364Y0028619D01*
X0141215Y0028002D02*
X0141215Y0026767D01*
X0140598Y0026150D01*
X0139364Y0026767D02*
X0139364Y0028002D01*
X0139981Y0028619D01*
X0140598Y0028619D01*
X0141215Y0028002D01*
X0141215Y0029833D02*
X0141215Y0031685D01*
X0140598Y0032302D01*
X0138129Y0032302D01*
X0137512Y0031685D01*
X0137512Y0029833D01*
X0141215Y0029833D01*
X0138129Y0028619D02*
X0137512Y0028002D01*
X0137512Y0026767D01*
X0138129Y0026150D01*
X0138746Y0026150D01*
X0139364Y0026767D01*
X0131215Y0026767D02*
X0130598Y0026150D01*
X0131215Y0026767D02*
X0131215Y0028002D01*
X0130598Y0028619D01*
X0129981Y0028619D01*
X0129364Y0028002D01*
X0129364Y0026767D01*
X0128746Y0026150D01*
X0128129Y0026150D01*
X0127512Y0026767D01*
X0127512Y0028002D01*
X0128129Y0028619D01*
X0128129Y0029833D02*
X0130598Y0029833D01*
X0131215Y0030450D01*
X0131215Y0031685D01*
X0130598Y0032302D01*
X0131215Y0033516D02*
X0127512Y0033516D01*
X0128129Y0032302D02*
X0127512Y0031685D01*
X0127512Y0030450D01*
X0128129Y0029833D01*
X0131215Y0033516D02*
X0131215Y0035985D01*
X0137512Y0034751D02*
X0138746Y0035985D01*
X0141215Y0035985D01*
X0139364Y0035985D02*
X0139364Y0033516D01*
X0138746Y0033516D02*
X0137512Y0034751D01*
X0138746Y0033516D02*
X0141215Y0033516D01*
X0121215Y0033516D02*
X0121215Y0035368D01*
X0120598Y0035985D01*
X0118129Y0035985D01*
X0117512Y0035368D01*
X0117512Y0033516D01*
X0121215Y0033516D01*
X0121215Y0032302D02*
X0117512Y0032302D01*
X0117512Y0029833D02*
X0121215Y0032302D01*
X0121215Y0029833D02*
X0117512Y0029833D01*
X0118129Y0028619D02*
X0117512Y0028002D01*
X0117512Y0026767D01*
X0118129Y0026150D01*
X0120598Y0026150D01*
X0121215Y0026767D01*
X0121215Y0028002D01*
X0120598Y0028619D01*
X0119364Y0028619D01*
X0119364Y0027384D01*
X0111215Y0026767D02*
X0110598Y0026150D01*
X0111215Y0026767D02*
X0111215Y0028002D01*
X0110598Y0028619D01*
X0109981Y0028619D01*
X0109364Y0028002D01*
X0109364Y0027384D01*
X0109364Y0028002D02*
X0108746Y0028619D01*
X0108129Y0028619D01*
X0107512Y0028002D01*
X0107512Y0026767D01*
X0108129Y0026150D01*
X0110598Y0029833D02*
X0110598Y0030450D01*
X0111215Y0030450D01*
X0111215Y0029833D01*
X0110598Y0029833D01*
X0110598Y0031675D02*
X0111215Y0032292D01*
X0111215Y0033526D01*
X0110598Y0034143D01*
X0109981Y0034143D01*
X0109364Y0033526D01*
X0109364Y0032909D01*
X0109364Y0033526D02*
X0108746Y0034143D01*
X0108129Y0034143D01*
X0107512Y0033526D01*
X0107512Y0032292D01*
X0108129Y0031675D01*
X0107512Y0039041D02*
X0109981Y0039041D01*
X0111215Y0040275D01*
X0109981Y0041510D01*
X0107512Y0041510D01*
X0071215Y0035368D02*
X0070598Y0035985D01*
X0068129Y0035985D01*
X0067512Y0035368D01*
X0067512Y0033516D01*
X0071215Y0033516D01*
X0071215Y0035368D01*
X0070598Y0032302D02*
X0068129Y0032302D01*
X0067512Y0031685D01*
X0067512Y0029833D01*
X0071215Y0029833D01*
X0071215Y0031685D01*
X0070598Y0032302D01*
X0071215Y0028619D02*
X0068746Y0028619D01*
X0067512Y0027384D01*
X0068746Y0026150D01*
X0071215Y0026150D01*
X0069364Y0026150D02*
X0069364Y0028619D01*
X0061215Y0028002D02*
X0061215Y0026767D01*
X0060598Y0026150D01*
X0059364Y0026767D02*
X0059364Y0028002D01*
X0059981Y0028619D01*
X0060598Y0028619D01*
X0061215Y0028002D01*
X0061215Y0029833D02*
X0061215Y0031685D01*
X0060598Y0032302D01*
X0058129Y0032302D01*
X0057512Y0031685D01*
X0057512Y0029833D01*
X0061215Y0029833D01*
X0058129Y0028619D02*
X0057512Y0028002D01*
X0057512Y0026767D01*
X0058129Y0026150D01*
X0058746Y0026150D01*
X0059364Y0026767D01*
X0051215Y0026767D02*
X0050598Y0026150D01*
X0051215Y0026767D02*
X0051215Y0028002D01*
X0050598Y0028619D01*
X0049981Y0028619D01*
X0049364Y0028002D01*
X0049364Y0026767D01*
X0048746Y0026150D01*
X0048129Y0026150D01*
X0047512Y0026767D01*
X0047512Y0028002D01*
X0048129Y0028619D01*
X0048129Y0029833D02*
X0050598Y0029833D01*
X0051215Y0030450D01*
X0051215Y0031685D01*
X0050598Y0032302D01*
X0051215Y0033516D02*
X0047512Y0033516D01*
X0048129Y0032302D02*
X0047512Y0031685D01*
X0047512Y0030450D01*
X0048129Y0029833D01*
X0051215Y0033516D02*
X0051215Y0035985D01*
X0057512Y0034751D02*
X0058746Y0035985D01*
X0061215Y0035985D01*
X0059364Y0035985D02*
X0059364Y0033516D01*
X0058746Y0033516D02*
X0057512Y0034751D01*
X0058746Y0033516D02*
X0061215Y0033516D01*
X0041215Y0033516D02*
X0041215Y0035368D01*
X0040598Y0035985D01*
X0038129Y0035985D01*
X0037512Y0035368D01*
X0037512Y0033516D01*
X0041215Y0033516D01*
X0041215Y0032302D02*
X0037512Y0032302D01*
X0037512Y0029833D02*
X0041215Y0032302D01*
X0041215Y0029833D02*
X0037512Y0029833D01*
X0038129Y0028619D02*
X0037512Y0028002D01*
X0037512Y0026767D01*
X0038129Y0026150D01*
X0040598Y0026150D01*
X0041215Y0026767D01*
X0041215Y0028002D01*
X0040598Y0028619D01*
X0039364Y0028619D01*
X0039364Y0027384D01*
X0031215Y0026767D02*
X0030598Y0026150D01*
X0031215Y0026767D02*
X0031215Y0028002D01*
X0030598Y0028619D01*
X0029981Y0028619D01*
X0029364Y0028002D01*
X0029364Y0027384D01*
X0029364Y0028002D02*
X0028746Y0028619D01*
X0028129Y0028619D01*
X0027512Y0028002D01*
X0027512Y0026767D01*
X0028129Y0026150D01*
X0030598Y0029833D02*
X0030598Y0030450D01*
X0031215Y0030450D01*
X0031215Y0029833D01*
X0030598Y0029833D01*
X0030598Y0031675D02*
X0031215Y0032292D01*
X0031215Y0033526D01*
X0030598Y0034143D01*
X0029981Y0034143D01*
X0029364Y0033526D01*
X0029364Y0032909D01*
X0029364Y0033526D02*
X0028746Y0034143D01*
X0028129Y0034143D01*
X0027512Y0033526D01*
X0027512Y0032292D01*
X0028129Y0031675D01*
X0027512Y0039041D02*
X0029981Y0039041D01*
X0031215Y0040275D01*
X0029981Y0041510D01*
X0027512Y0041510D01*
X0039515Y0064150D02*
X0039515Y0066619D01*
X0040750Y0067853D01*
X0041984Y0066619D01*
X0041984Y0064150D01*
X0043198Y0064767D02*
X0043816Y0064150D01*
X0045050Y0064150D01*
X0045667Y0064767D01*
X0045667Y0067236D01*
X0045050Y0067853D01*
X0043816Y0067853D01*
X0043198Y0067236D01*
X0043198Y0064767D01*
X0041984Y0066002D02*
X0039515Y0066002D01*
X0039515Y0074150D02*
X0041367Y0074150D01*
X0041984Y0074767D01*
X0041984Y0077236D01*
X0041367Y0077853D01*
X0039515Y0077853D01*
X0039515Y0074150D01*
X0043198Y0074767D02*
X0043198Y0077236D01*
X0043816Y0077853D01*
X0045050Y0077853D01*
X0045667Y0077236D01*
X0045667Y0074767D01*
X0045050Y0074150D01*
X0043816Y0074150D01*
X0043198Y0074767D01*
X0043198Y0084150D02*
X0043198Y0087853D01*
X0045667Y0084150D01*
X0045667Y0087853D01*
X0046882Y0087853D02*
X0046882Y0084150D01*
X0048733Y0084150D01*
X0049350Y0084767D01*
X0049350Y0087236D01*
X0048733Y0087853D01*
X0046882Y0087853D01*
X0041984Y0087236D02*
X0041367Y0087853D01*
X0040132Y0087853D01*
X0039515Y0087236D01*
X0039515Y0084767D01*
X0040132Y0084150D01*
X0041367Y0084150D01*
X0041984Y0084767D01*
X0041984Y0086002D01*
X0040750Y0086002D01*
X0041367Y0094150D02*
X0040132Y0094150D01*
X0039515Y0094767D01*
X0040750Y0096002D02*
X0041367Y0096002D01*
X0041984Y0095384D01*
X0041984Y0094767D01*
X0041367Y0094150D01*
X0043198Y0094150D02*
X0043816Y0094150D01*
X0043816Y0094767D01*
X0043198Y0094767D01*
X0043198Y0094150D01*
X0045040Y0094767D02*
X0045657Y0094150D01*
X0046892Y0094150D01*
X0047509Y0094767D01*
X0047509Y0095384D01*
X0046892Y0096002D01*
X0046274Y0096002D01*
X0046892Y0096002D02*
X0047509Y0096619D01*
X0047509Y0097236D01*
X0046892Y0097853D01*
X0045657Y0097853D01*
X0045040Y0097236D01*
X0041984Y0097236D02*
X0041984Y0096619D01*
X0041367Y0096002D01*
X0041984Y0097236D02*
X0041367Y0097853D01*
X0040132Y0097853D01*
X0039515Y0097236D01*
X0052406Y0097853D02*
X0052406Y0095384D01*
X0053641Y0094150D01*
X0054875Y0095384D01*
X0054875Y0097853D01*
D12*
X0055036Y0196200D02*
X0055036Y0199269D01*
X0056570Y0200804D01*
X0058105Y0199269D01*
X0058105Y0196200D01*
X0059640Y0196200D02*
X0059640Y0200804D01*
X0061942Y0200804D01*
X0062709Y0200037D01*
X0062709Y0198502D01*
X0061942Y0197735D01*
X0059640Y0197735D01*
X0061174Y0197735D02*
X0062709Y0196200D01*
X0064244Y0196200D02*
X0066546Y0196200D01*
X0067313Y0196967D01*
X0067313Y0200037D01*
X0066546Y0200804D01*
X0064244Y0200804D01*
X0064244Y0196200D01*
X0068848Y0196967D02*
X0069615Y0196200D01*
X0071149Y0196200D01*
X0071917Y0196967D01*
X0071917Y0200804D01*
X0073451Y0200804D02*
X0074986Y0200804D01*
X0074219Y0200804D02*
X0074219Y0196200D01*
X0074986Y0196200D02*
X0073451Y0196200D01*
X0076521Y0196200D02*
X0076521Y0200804D01*
X0079590Y0196200D01*
X0079590Y0200804D01*
X0081125Y0200037D02*
X0081125Y0196967D01*
X0081892Y0196200D01*
X0083427Y0196200D01*
X0084194Y0196967D01*
X0084194Y0200037D01*
X0083427Y0200804D01*
X0081892Y0200804D01*
X0081125Y0200037D01*
X0085729Y0198502D02*
X0088798Y0198502D01*
X0090333Y0197735D02*
X0092634Y0197735D01*
X0093402Y0198502D01*
X0093402Y0200037D01*
X0092634Y0200804D01*
X0090333Y0200804D01*
X0090333Y0196200D01*
X0094936Y0196200D02*
X0094936Y0200804D01*
X0097238Y0200804D01*
X0098006Y0200037D01*
X0098006Y0198502D01*
X0097238Y0197735D01*
X0094936Y0197735D01*
X0096471Y0197735D02*
X0098006Y0196200D01*
X0099540Y0196967D02*
X0100308Y0196200D01*
X0101842Y0196200D01*
X0102610Y0196967D01*
X0102610Y0200037D01*
X0101842Y0200804D01*
X0100308Y0200804D01*
X0099540Y0200037D01*
X0099540Y0196967D01*
X0104144Y0198502D02*
X0107214Y0198502D01*
X0108748Y0200804D02*
X0110283Y0199269D01*
X0111817Y0200804D01*
X0111817Y0196200D01*
X0113352Y0196200D02*
X0114887Y0196200D01*
X0114119Y0196200D02*
X0114119Y0200804D01*
X0113352Y0200804D02*
X0114887Y0200804D01*
X0116421Y0200804D02*
X0119491Y0196200D01*
X0119491Y0200804D01*
X0121025Y0200804D02*
X0122560Y0200804D01*
X0121793Y0200804D02*
X0121793Y0196200D01*
X0122560Y0196200D02*
X0121025Y0196200D01*
X0116421Y0196200D02*
X0116421Y0200804D01*
X0108748Y0200804D02*
X0108748Y0196200D01*
X0068848Y0196967D02*
X0068848Y0200804D01*
X0058105Y0198502D02*
X0055036Y0198502D01*
X0065168Y0268917D02*
X0067470Y0268917D01*
X0068237Y0269684D01*
X0068237Y0272753D01*
X0067470Y0273520D01*
X0065168Y0273520D01*
X0065168Y0268917D01*
X0069772Y0268917D02*
X0069772Y0273520D01*
X0069772Y0271218D02*
X0072841Y0271218D01*
X0072841Y0268917D02*
X0072841Y0273520D01*
X0074375Y0273520D02*
X0077445Y0273520D01*
X0075910Y0273520D02*
X0075910Y0268917D01*
X0078979Y0268917D02*
X0082049Y0271986D01*
X0082049Y0272753D01*
X0081281Y0273520D01*
X0079747Y0273520D01*
X0078979Y0272753D01*
X0083583Y0272753D02*
X0084351Y0273520D01*
X0085885Y0273520D01*
X0086653Y0272753D01*
X0086653Y0271986D01*
X0083583Y0268917D01*
X0086653Y0268917D01*
X0082049Y0268917D02*
X0078979Y0268917D01*
X0182061Y0172239D02*
X0182829Y0173007D01*
X0183596Y0173007D01*
X0184363Y0172239D01*
X0185131Y0173007D01*
X0185898Y0173007D01*
X0186665Y0172239D01*
X0186665Y0170705D01*
X0185898Y0169937D01*
X0185898Y0168403D02*
X0186665Y0168403D01*
X0186665Y0167635D01*
X0185898Y0167635D01*
X0185898Y0168403D01*
X0185898Y0166101D02*
X0186665Y0165333D01*
X0186665Y0163799D01*
X0185898Y0163031D01*
X0184363Y0161497D02*
X0184363Y0158427D01*
X0182829Y0156893D02*
X0185898Y0153824D01*
X0186665Y0153824D01*
X0186665Y0152289D02*
X0186665Y0149220D01*
X0186665Y0150754D02*
X0182061Y0150754D01*
X0183596Y0149220D01*
X0186665Y0147685D02*
X0186665Y0144616D01*
X0186665Y0146150D02*
X0182061Y0146150D01*
X0183596Y0144616D01*
X0186665Y0143081D02*
X0186665Y0140012D01*
X0186665Y0141546D02*
X0182061Y0141546D01*
X0183596Y0140012D01*
X0182829Y0138477D02*
X0182061Y0137710D01*
X0182061Y0136175D01*
X0182829Y0135408D01*
X0183596Y0135408D01*
X0184363Y0136175D01*
X0184363Y0137710D01*
X0185131Y0138477D01*
X0185898Y0138477D01*
X0186665Y0137710D01*
X0186665Y0136175D01*
X0185898Y0135408D01*
X0186665Y0133873D02*
X0182061Y0133873D01*
X0183596Y0132339D01*
X0182061Y0130804D01*
X0186665Y0130804D01*
X0186665Y0129269D02*
X0183596Y0129269D01*
X0182061Y0127735D01*
X0183596Y0126200D01*
X0186665Y0126200D01*
X0184363Y0126200D02*
X0184363Y0129269D01*
X0182061Y0153824D02*
X0182061Y0156893D01*
X0182829Y0156893D01*
X0182829Y0163031D02*
X0182061Y0163799D01*
X0182061Y0165333D01*
X0182829Y0166101D01*
X0183596Y0166101D01*
X0184363Y0165333D01*
X0185131Y0166101D01*
X0185898Y0166101D01*
X0184363Y0165333D02*
X0184363Y0164566D01*
X0182829Y0169937D02*
X0182061Y0170705D01*
X0182061Y0172239D01*
X0184363Y0172239D02*
X0184363Y0171472D01*
X0242829Y0097635D02*
X0244363Y0097635D01*
X0245131Y0096868D01*
X0245131Y0094566D01*
X0246665Y0094566D02*
X0242061Y0094566D01*
X0242061Y0096868D01*
X0242829Y0097635D01*
X0245131Y0096101D02*
X0246665Y0097635D01*
X0246665Y0093031D02*
X0246665Y0091497D01*
X0246665Y0092264D02*
X0242061Y0092264D01*
X0242061Y0091497D02*
X0242061Y0093031D01*
X0242829Y0089962D02*
X0244363Y0089962D01*
X0245131Y0089195D01*
X0245131Y0086893D01*
X0246665Y0086893D02*
X0242061Y0086893D01*
X0242061Y0089195D01*
X0242829Y0089962D01*
X0244363Y0085358D02*
X0244363Y0082289D01*
X0246665Y0080754D02*
X0242061Y0080754D01*
X0242061Y0077685D02*
X0246665Y0080754D01*
X0246665Y0077685D02*
X0242061Y0077685D01*
X0242829Y0076150D02*
X0242061Y0075383D01*
X0242061Y0073848D01*
X0242829Y0073081D01*
X0245898Y0073081D01*
X0246665Y0073848D01*
X0246665Y0075383D01*
X0245898Y0076150D01*
X0242829Y0076150D01*
X0242061Y0071546D02*
X0242061Y0070012D01*
X0242061Y0070779D02*
X0246665Y0070779D01*
X0246665Y0070012D02*
X0246665Y0071546D01*
X0246665Y0066942D02*
X0242061Y0066942D01*
X0242061Y0065408D02*
X0242061Y0068477D01*
X0242829Y0063873D02*
X0242061Y0063106D01*
X0242061Y0061571D01*
X0242829Y0060804D01*
X0245898Y0060804D01*
X0246665Y0061571D01*
X0246665Y0063106D01*
X0245898Y0063873D01*
X0242829Y0063873D01*
X0242061Y0059269D02*
X0246665Y0059269D01*
X0246665Y0056200D02*
X0242061Y0056200D01*
X0243596Y0057735D01*
X0242061Y0059269D01*
X0327061Y0060086D02*
X0327829Y0059319D01*
X0330898Y0059319D01*
X0331665Y0060086D01*
X0331665Y0061621D01*
X0330898Y0062388D01*
X0327829Y0062388D01*
X0327061Y0061621D01*
X0327061Y0060086D01*
X0327061Y0057784D02*
X0331665Y0057784D01*
X0331665Y0054715D02*
X0327061Y0054715D01*
X0328596Y0056250D01*
X0327061Y0057784D01*
X0327061Y0063923D02*
X0327061Y0066992D01*
X0327061Y0065457D02*
X0331665Y0065457D01*
X0331665Y0068527D02*
X0331665Y0070061D01*
X0331665Y0069294D02*
X0327061Y0069294D01*
X0327061Y0068527D02*
X0327061Y0070061D01*
X0327829Y0071596D02*
X0330898Y0071596D01*
X0331665Y0072363D01*
X0331665Y0073898D01*
X0330898Y0074665D01*
X0327829Y0074665D01*
X0327061Y0073898D01*
X0327061Y0072363D01*
X0327829Y0071596D01*
X0327061Y0076200D02*
X0331665Y0079269D01*
X0327061Y0079269D01*
X0329363Y0080804D02*
X0329363Y0083873D01*
X0330131Y0085408D02*
X0330131Y0087710D01*
X0329363Y0088477D01*
X0327829Y0088477D01*
X0327061Y0087710D01*
X0327061Y0085408D01*
X0331665Y0085408D01*
X0331665Y0090012D02*
X0331665Y0091546D01*
X0331665Y0090779D02*
X0327061Y0090779D01*
X0327061Y0090012D02*
X0327061Y0091546D01*
X0327061Y0093081D02*
X0327061Y0095383D01*
X0327829Y0096150D01*
X0329363Y0096150D01*
X0330131Y0095383D01*
X0330131Y0093081D01*
X0331665Y0093081D02*
X0327061Y0093081D01*
X0330131Y0094616D02*
X0331665Y0096150D01*
X0331665Y0076200D02*
X0327061Y0076200D01*
X0234144Y0266200D02*
X0231075Y0266200D01*
X0232610Y0266200D02*
X0232610Y0270804D01*
X0231075Y0269269D01*
X0229540Y0270037D02*
X0226471Y0266967D01*
X0227238Y0266200D01*
X0228773Y0266200D01*
X0229540Y0266967D01*
X0229540Y0270037D01*
X0228773Y0270804D01*
X0227238Y0270804D01*
X0226471Y0270037D01*
X0226471Y0266967D01*
X0224936Y0266200D02*
X0221867Y0266200D01*
X0221867Y0270804D01*
X0219565Y0270804D02*
X0217263Y0268502D01*
X0220333Y0268502D01*
X0219565Y0266200D02*
X0219565Y0270804D01*
X0215729Y0270037D02*
X0215729Y0269269D01*
X0212659Y0266200D01*
X0215729Y0266200D01*
X0215729Y0270037D02*
X0214961Y0270804D01*
X0213427Y0270804D01*
X0212659Y0270037D01*
X0211125Y0270804D02*
X0208055Y0270804D01*
X0208055Y0266200D01*
X0206521Y0266200D02*
X0204986Y0267735D01*
X0205753Y0267735D02*
X0203451Y0267735D01*
X0203451Y0266200D02*
X0203451Y0270804D01*
X0205753Y0270804D01*
X0206521Y0270037D01*
X0206521Y0268502D01*
X0205753Y0267735D01*
X0208055Y0268502D02*
X0209590Y0268502D01*
X0201917Y0266200D02*
X0201917Y0270804D01*
X0198848Y0270804D02*
X0201917Y0266200D01*
X0198848Y0266200D02*
X0198848Y0270804D01*
X0235679Y0268502D02*
X0238748Y0268502D01*
X0237214Y0270037D02*
X0237214Y0266967D01*
D13*
X0233141Y0056159D02*
X0226269Y0056159D01*
X0229705Y0056159D02*
X0229705Y0045850D01*
X0219329Y0047568D02*
X0217611Y0045850D01*
X0214175Y0045850D01*
X0212457Y0047568D01*
X0212457Y0051004D01*
X0214175Y0052723D01*
X0217611Y0052723D01*
X0219329Y0051004D01*
X0219329Y0047568D01*
X0206685Y0045850D02*
X0203249Y0045850D01*
X0204967Y0045850D02*
X0204967Y0056159D01*
X0203249Y0056159D02*
X0206685Y0056159D01*
X0196310Y0051004D02*
X0196310Y0045850D01*
X0196310Y0051004D02*
X0194592Y0052723D01*
X0189437Y0052723D01*
X0189437Y0045850D01*
X0182498Y0049286D02*
X0182498Y0051004D01*
X0180780Y0052723D01*
X0177344Y0052723D01*
X0175625Y0051004D01*
X0175625Y0047568D01*
X0177344Y0045850D01*
X0180780Y0045850D01*
X0182498Y0049286D02*
X0175625Y0049286D01*
X0169854Y0045850D02*
X0168136Y0047568D01*
X0168136Y0054441D01*
X0166418Y0052723D02*
X0169854Y0052723D01*
X0159478Y0051004D02*
X0159478Y0047568D01*
X0157760Y0045850D01*
X0154324Y0045850D01*
X0152606Y0047568D01*
X0152606Y0051004D01*
X0154324Y0052723D01*
X0157760Y0052723D01*
X0159478Y0051004D01*
X0145666Y0051004D02*
X0145666Y0045850D01*
X0145666Y0051004D02*
X0143948Y0052723D01*
X0138794Y0052723D01*
X0138794Y0045850D01*
X0132438Y0045850D02*
X0127284Y0049286D01*
X0132438Y0052723D01*
X0127284Y0056159D02*
X0127284Y0045850D01*
X0120929Y0052723D02*
X0119211Y0052723D01*
X0115774Y0049286D01*
X0115774Y0045850D02*
X0115774Y0052723D01*
X0108835Y0051004D02*
X0108835Y0047568D01*
X0107117Y0045850D01*
X0103681Y0045850D01*
X0101962Y0047568D01*
X0101962Y0051004D01*
X0103681Y0052723D01*
X0107117Y0052723D01*
X0108835Y0051004D01*
X0095023Y0052723D02*
X0089869Y0052723D01*
X0088151Y0051004D01*
X0089869Y0049286D01*
X0093305Y0049286D01*
X0095023Y0047568D01*
X0093305Y0045850D01*
X0088151Y0045850D01*
X0081211Y0045850D02*
X0081211Y0051004D01*
X0079493Y0052723D01*
X0074339Y0052723D01*
X0074339Y0045850D01*
X0067400Y0049286D02*
X0067400Y0051004D01*
X0065681Y0052723D01*
X0062245Y0052723D01*
X0060527Y0051004D01*
X0060527Y0047568D01*
X0062245Y0045850D01*
X0065681Y0045850D01*
X0067400Y0049286D02*
X0060527Y0049286D01*
X0053588Y0049286D02*
X0053588Y0047568D01*
X0051870Y0045850D01*
X0048433Y0045850D01*
X0046715Y0047568D01*
X0048433Y0051004D02*
X0046715Y0052723D01*
X0046715Y0054441D01*
X0048433Y0056159D01*
X0051870Y0056159D01*
X0053588Y0054441D01*
X0051870Y0051004D02*
X0053588Y0049286D01*
X0051870Y0051004D02*
X0048433Y0051004D01*
D14*
X0024931Y0218830D02*
X0024931Y0219964D01*
X0024364Y0219964D02*
X0026632Y0219964D01*
X0025498Y0221899D02*
X0026065Y0222466D01*
X0026065Y0223034D01*
X0025498Y0223601D01*
X0022662Y0223601D01*
X0022662Y0223034D02*
X0022662Y0224168D01*
X0023797Y0227070D02*
X0023797Y0228205D01*
X0024364Y0228772D01*
X0026065Y0228772D01*
X0026065Y0227070D01*
X0025498Y0226503D01*
X0024931Y0227070D01*
X0024931Y0228772D01*
X0026065Y0231107D02*
X0023797Y0231107D01*
X0023797Y0232809D01*
X0024364Y0233376D01*
X0026065Y0233376D01*
X0025498Y0235711D02*
X0026065Y0236278D01*
X0026065Y0237412D01*
X0025498Y0237980D01*
X0024364Y0237980D01*
X0024364Y0236845D01*
X0023230Y0235711D02*
X0025498Y0235711D01*
X0023230Y0235711D02*
X0022662Y0236278D01*
X0022662Y0237412D01*
X0023230Y0237980D01*
X0024364Y0240315D02*
X0023797Y0240882D01*
X0023797Y0242016D01*
X0024364Y0242584D01*
X0024931Y0242584D01*
X0024931Y0240315D01*
X0025498Y0240315D02*
X0024364Y0240315D01*
X0025498Y0240315D02*
X0026065Y0240882D01*
X0026065Y0242016D01*
X0026065Y0244919D02*
X0023797Y0244919D01*
X0024931Y0244919D02*
X0023797Y0246053D01*
X0023797Y0246620D01*
X0023797Y0248755D02*
X0023797Y0250457D01*
X0024364Y0251024D01*
X0025498Y0251024D01*
X0026065Y0250457D01*
X0026065Y0248755D01*
X0022662Y0248755D01*
X0024364Y0253359D02*
X0023797Y0253927D01*
X0023797Y0255061D01*
X0024364Y0255628D01*
X0024931Y0255628D01*
X0024931Y0253359D01*
X0025498Y0253359D02*
X0024364Y0253359D01*
X0025498Y0253359D02*
X0026065Y0253927D01*
X0026065Y0255061D01*
X0026065Y0257963D02*
X0023797Y0257963D01*
X0024931Y0257963D02*
X0023797Y0259098D01*
X0023797Y0259665D01*
X0024364Y0219964D02*
X0024364Y0218830D01*
D15*
X0056865Y0214500D02*
X0056865Y0207500D01*
X0056867Y0207440D01*
X0056872Y0207379D01*
X0056881Y0207320D01*
X0056894Y0207261D01*
X0056910Y0207202D01*
X0056930Y0207145D01*
X0056953Y0207090D01*
X0056980Y0207035D01*
X0057009Y0206983D01*
X0057042Y0206932D01*
X0057078Y0206883D01*
X0057116Y0206837D01*
X0057158Y0206793D01*
X0057202Y0206751D01*
X0057248Y0206713D01*
X0057297Y0206677D01*
X0057348Y0206644D01*
X0057400Y0206615D01*
X0057455Y0206588D01*
X0057510Y0206565D01*
X0057567Y0206545D01*
X0057626Y0206529D01*
X0057685Y0206516D01*
X0057744Y0206507D01*
X0057805Y0206502D01*
X0057865Y0206500D01*
X0059365Y0206500D01*
X0059865Y0207000D01*
X0078865Y0207000D01*
X0079365Y0206500D01*
X0080865Y0206500D01*
X0080925Y0206502D01*
X0080986Y0206507D01*
X0081045Y0206516D01*
X0081104Y0206529D01*
X0081163Y0206545D01*
X0081220Y0206565D01*
X0081275Y0206588D01*
X0081330Y0206615D01*
X0081382Y0206644D01*
X0081433Y0206677D01*
X0081482Y0206713D01*
X0081528Y0206751D01*
X0081572Y0206793D01*
X0081614Y0206837D01*
X0081652Y0206883D01*
X0081688Y0206932D01*
X0081721Y0206983D01*
X0081750Y0207035D01*
X0081777Y0207090D01*
X0081800Y0207145D01*
X0081820Y0207202D01*
X0081836Y0207261D01*
X0081849Y0207320D01*
X0081858Y0207379D01*
X0081863Y0207440D01*
X0081865Y0207500D01*
X0081865Y0214500D01*
X0081863Y0214560D01*
X0081858Y0214621D01*
X0081849Y0214680D01*
X0081836Y0214739D01*
X0081820Y0214798D01*
X0081800Y0214855D01*
X0081777Y0214910D01*
X0081750Y0214965D01*
X0081721Y0215017D01*
X0081688Y0215068D01*
X0081652Y0215117D01*
X0081614Y0215163D01*
X0081572Y0215207D01*
X0081528Y0215249D01*
X0081482Y0215287D01*
X0081433Y0215323D01*
X0081382Y0215356D01*
X0081330Y0215385D01*
X0081275Y0215412D01*
X0081220Y0215435D01*
X0081163Y0215455D01*
X0081104Y0215471D01*
X0081045Y0215484D01*
X0080986Y0215493D01*
X0080925Y0215498D01*
X0080865Y0215500D01*
X0079365Y0215500D01*
X0078865Y0215000D01*
X0059865Y0215000D01*
X0059365Y0215500D01*
X0057865Y0215500D01*
X0057805Y0215498D01*
X0057744Y0215493D01*
X0057685Y0215484D01*
X0057626Y0215471D01*
X0057567Y0215455D01*
X0057510Y0215435D01*
X0057455Y0215412D01*
X0057400Y0215385D01*
X0057348Y0215356D01*
X0057297Y0215323D01*
X0057248Y0215287D01*
X0057202Y0215249D01*
X0057158Y0215207D01*
X0057116Y0215163D01*
X0057078Y0215117D01*
X0057042Y0215068D01*
X0057009Y0215017D01*
X0056980Y0214965D01*
X0056953Y0214910D01*
X0056930Y0214855D01*
X0056910Y0214798D01*
X0056894Y0214739D01*
X0056881Y0214680D01*
X0056872Y0214621D01*
X0056867Y0214560D01*
X0056865Y0214500D01*
X0179365Y0188500D02*
X0179365Y0183500D01*
X0181865Y0181000D01*
X0186865Y0181000D01*
X0189365Y0183500D01*
X0191865Y0181000D01*
X0196865Y0181000D01*
X0199365Y0183500D01*
X0199365Y0188500D01*
X0196865Y0191000D01*
X0191865Y0191000D01*
X0189365Y0188500D01*
X0189365Y0183500D01*
X0189365Y0188500D02*
X0186865Y0191000D01*
X0181865Y0191000D01*
X0179365Y0188500D01*
X0249365Y0173500D02*
X0249365Y0168500D01*
X0251865Y0166000D01*
X0256865Y0166000D01*
X0259365Y0168500D01*
X0259365Y0173500D01*
X0256865Y0176000D01*
X0251865Y0176000D01*
X0249365Y0173500D01*
X0251865Y0166000D02*
X0249365Y0163500D01*
X0249365Y0158500D01*
X0251865Y0156000D01*
X0256865Y0156000D01*
X0259365Y0158500D01*
X0259365Y0163500D01*
X0256865Y0166000D01*
X0262795Y0210741D02*
X0260660Y0212876D01*
X0262795Y0215011D01*
X0267065Y0215011D01*
X0267065Y0217186D02*
X0260660Y0217186D01*
X0267065Y0221457D01*
X0260660Y0221457D01*
X0260660Y0223632D02*
X0260660Y0227902D01*
X0260660Y0225767D02*
X0267065Y0225767D01*
X0267065Y0230077D02*
X0267065Y0234348D01*
X0267065Y0236523D02*
X0260660Y0236523D01*
X0267065Y0240793D01*
X0260660Y0240793D01*
X0260660Y0242968D02*
X0267065Y0247239D01*
X0260660Y0247239D01*
X0262795Y0249414D02*
X0260660Y0251549D01*
X0262795Y0253684D01*
X0267065Y0253684D01*
X0263863Y0253684D02*
X0263863Y0249414D01*
X0262795Y0249414D02*
X0267065Y0249414D01*
X0267065Y0242968D02*
X0260660Y0242968D01*
X0260660Y0234348D02*
X0260660Y0230077D01*
X0267065Y0230077D01*
X0263863Y0230077D02*
X0263863Y0232212D01*
X0263863Y0215011D02*
X0263863Y0210741D01*
X0262795Y0210741D02*
X0267065Y0210741D01*
X0196865Y0111000D02*
X0191865Y0111000D01*
X0189365Y0108500D01*
X0186865Y0111000D01*
X0181865Y0111000D01*
X0179365Y0108500D01*
X0179365Y0103500D01*
X0181865Y0101000D01*
X0186865Y0101000D01*
X0189365Y0103500D01*
X0189365Y0108500D01*
X0189365Y0103500D02*
X0191865Y0101000D01*
X0196865Y0101000D01*
X0199365Y0103500D01*
X0199365Y0108500D01*
X0196865Y0111000D01*
X0196865Y0021000D02*
X0191865Y0021000D01*
X0189365Y0018500D01*
X0189365Y0013500D01*
X0191865Y0011000D01*
X0196865Y0011000D01*
X0199365Y0013500D01*
X0199365Y0018500D01*
X0196865Y0021000D01*
X0199365Y0018500D02*
X0201865Y0021000D01*
X0206865Y0021000D01*
X0209365Y0018500D01*
X0209365Y0013500D01*
X0206865Y0011000D01*
X0201865Y0011000D01*
X0199365Y0013500D01*
X0154365Y0013500D02*
X0151865Y0011000D01*
X0146865Y0011000D01*
X0144365Y0013500D01*
X0141865Y0011000D01*
X0136865Y0011000D01*
X0134365Y0013500D01*
X0134365Y0018500D01*
X0136865Y0021000D01*
X0141865Y0021000D01*
X0144365Y0018500D01*
X0146865Y0021000D01*
X0151865Y0021000D01*
X0154365Y0018500D01*
X0154365Y0013500D01*
X0144365Y0013500D02*
X0144365Y0018500D01*
X0134365Y0018500D02*
X0131865Y0021000D01*
X0126865Y0021000D01*
X0124365Y0018500D01*
X0121865Y0021000D01*
X0116865Y0021000D01*
X0114365Y0018500D01*
X0111865Y0021000D01*
X0106865Y0021000D01*
X0104365Y0018500D01*
X0104365Y0013500D01*
X0106865Y0011000D01*
X0111865Y0011000D01*
X0114365Y0013500D01*
X0114365Y0018500D01*
X0114365Y0013500D02*
X0116865Y0011000D01*
X0121865Y0011000D01*
X0124365Y0013500D01*
X0124365Y0018500D01*
X0124365Y0013500D02*
X0126865Y0011000D01*
X0131865Y0011000D01*
X0134365Y0013500D01*
X0074365Y0013500D02*
X0071865Y0011000D01*
X0066865Y0011000D01*
X0064365Y0013500D01*
X0061865Y0011000D01*
X0056865Y0011000D01*
X0054365Y0013500D01*
X0054365Y0018500D01*
X0056865Y0021000D01*
X0061865Y0021000D01*
X0064365Y0018500D01*
X0066865Y0021000D01*
X0071865Y0021000D01*
X0074365Y0018500D01*
X0074365Y0013500D01*
X0064365Y0013500D02*
X0064365Y0018500D01*
X0054365Y0018500D02*
X0051865Y0021000D01*
X0046865Y0021000D01*
X0044365Y0018500D01*
X0041865Y0021000D01*
X0036865Y0021000D01*
X0034365Y0018500D01*
X0031865Y0021000D01*
X0026865Y0021000D01*
X0024365Y0018500D01*
X0024365Y0013500D01*
X0026865Y0011000D01*
X0031865Y0011000D01*
X0034365Y0013500D01*
X0034365Y0018500D01*
X0034365Y0013500D02*
X0036865Y0011000D01*
X0041865Y0011000D01*
X0044365Y0013500D01*
X0044365Y0018500D01*
X0044365Y0013500D02*
X0046865Y0011000D01*
X0051865Y0011000D01*
X0054365Y0013500D01*
X0031865Y0061000D02*
X0026865Y0061000D01*
X0024365Y0063500D01*
X0024365Y0068500D01*
X0026865Y0071000D01*
X0024365Y0073500D01*
X0024365Y0078500D01*
X0026865Y0081000D01*
X0031865Y0081000D01*
X0034365Y0078500D01*
X0034365Y0073500D01*
X0031865Y0071000D01*
X0034365Y0068500D01*
X0034365Y0063500D01*
X0031865Y0061000D01*
X0031865Y0071000D02*
X0026865Y0071000D01*
X0026865Y0081000D02*
X0024365Y0083500D01*
X0024365Y0088500D01*
X0026865Y0091000D01*
X0024365Y0093500D01*
X0024365Y0098500D01*
X0026865Y0101000D01*
X0031865Y0101000D01*
X0034365Y0098500D01*
X0034365Y0093500D01*
X0031865Y0091000D01*
X0034365Y0088500D01*
X0034365Y0083500D01*
X0031865Y0081000D01*
X0031865Y0091000D02*
X0026865Y0091000D01*
D16*
X0021915Y0093177D02*
X0021915Y0096180D01*
X0021165Y0097781D02*
X0017411Y0097781D01*
X0017411Y0096180D02*
X0017411Y0093177D01*
X0021915Y0093177D01*
X0019663Y0093177D02*
X0019663Y0094679D01*
X0021165Y0097781D02*
X0021915Y0098532D01*
X0021915Y0100033D01*
X0021165Y0100784D01*
X0017411Y0100784D01*
X0018162Y0102385D02*
X0021165Y0102385D01*
X0021915Y0103136D01*
X0021915Y0104637D01*
X0021165Y0105388D01*
X0021915Y0106989D02*
X0017411Y0106989D01*
X0018162Y0105388D02*
X0017411Y0104637D01*
X0017411Y0103136D01*
X0018162Y0102385D01*
X0019663Y0106989D02*
X0019663Y0109992D01*
X0017411Y0109992D02*
X0021915Y0109992D01*
X0021915Y0113094D02*
X0017411Y0113094D01*
X0017411Y0111593D02*
X0017411Y0114596D01*
X0024365Y0121000D02*
X0024365Y0126000D01*
X0024365Y0179000D01*
X0024365Y0183000D01*
X0024365Y0186000D01*
X0024365Y0191000D01*
X0061865Y0191000D01*
X0064365Y0188500D01*
X0066865Y0191000D01*
X0061865Y0191000D02*
X0126865Y0191000D01*
X0124365Y0188500D01*
X0121865Y0191000D01*
X0126865Y0191000D02*
X0141865Y0191000D01*
X0144365Y0188500D01*
X0146865Y0191000D01*
X0141865Y0191000D02*
X0154365Y0191000D01*
X0154365Y0121000D01*
X0146865Y0121000D01*
X0144365Y0123500D01*
X0141865Y0121000D01*
X0146865Y0121000D01*
X0141865Y0121000D02*
X0136865Y0121000D01*
X0134365Y0123500D01*
X0131865Y0121000D01*
X0136865Y0121000D01*
X0131865Y0121000D02*
X0126865Y0121000D01*
X0124365Y0123500D01*
X0121865Y0121000D01*
X0126865Y0121000D01*
X0121865Y0121000D02*
X0116865Y0121000D01*
X0114365Y0123500D01*
X0111865Y0121000D01*
X0116865Y0121000D01*
X0111865Y0121000D02*
X0106865Y0121000D01*
X0104365Y0123500D01*
X0101865Y0121000D01*
X0106865Y0121000D01*
X0101865Y0121000D02*
X0096865Y0121000D01*
X0094365Y0123500D01*
X0091865Y0121000D01*
X0096865Y0121000D01*
X0091865Y0121000D02*
X0086865Y0121000D01*
X0084365Y0123500D01*
X0081865Y0121000D01*
X0086865Y0121000D01*
X0081865Y0121000D02*
X0076865Y0121000D01*
X0074365Y0123500D01*
X0071865Y0121000D01*
X0076865Y0121000D01*
X0071865Y0121000D02*
X0066865Y0121000D01*
X0064365Y0123500D01*
X0061865Y0121000D01*
X0066865Y0121000D01*
X0061865Y0121000D02*
X0056865Y0121000D01*
X0054365Y0123500D01*
X0051865Y0121000D01*
X0056865Y0121000D01*
X0051865Y0121000D02*
X0046865Y0121000D01*
X0044365Y0123500D01*
X0041865Y0121000D01*
X0046865Y0121000D01*
X0041865Y0121000D02*
X0024365Y0121000D01*
X0034365Y0123500D02*
X0034365Y0128500D01*
X0036865Y0131000D01*
X0041865Y0131000D01*
X0044365Y0128500D01*
X0046865Y0131000D01*
X0051865Y0131000D01*
X0054365Y0128500D01*
X0056865Y0131000D01*
X0061865Y0131000D01*
X0064365Y0128500D01*
X0066865Y0131000D01*
X0071865Y0131000D01*
X0074365Y0128500D01*
X0076865Y0131000D01*
X0081865Y0131000D01*
X0084365Y0128500D01*
X0086865Y0131000D01*
X0091865Y0131000D01*
X0094365Y0128500D01*
X0096865Y0131000D01*
X0101865Y0131000D01*
X0104365Y0128500D01*
X0106865Y0131000D01*
X0111865Y0131000D01*
X0114365Y0128500D01*
X0116865Y0131000D01*
X0121865Y0131000D01*
X0124365Y0128500D01*
X0126865Y0131000D01*
X0131865Y0131000D01*
X0134365Y0128500D01*
X0136865Y0131000D01*
X0141865Y0131000D01*
X0144365Y0128500D01*
X0146865Y0131000D01*
X0151865Y0131000D01*
X0154365Y0128500D01*
X0154365Y0123500D02*
X0151865Y0121000D01*
X0186103Y0097803D02*
X0186103Y0094801D01*
X0186854Y0094050D01*
X0188355Y0094050D01*
X0189106Y0094801D01*
X0189106Y0097803D01*
X0188355Y0098554D01*
X0186854Y0098554D01*
X0186103Y0097803D01*
X0190707Y0098554D02*
X0190707Y0094801D01*
X0191458Y0094050D01*
X0192959Y0094050D01*
X0193710Y0094801D01*
X0193710Y0098554D01*
X0195311Y0098554D02*
X0198314Y0098554D01*
X0196813Y0098554D02*
X0196813Y0094050D01*
X0229365Y0088500D02*
X0229365Y0083500D01*
X0231865Y0081000D01*
X0229365Y0078500D01*
X0229365Y0073500D01*
X0231865Y0071000D01*
X0229365Y0068500D01*
X0229365Y0063500D01*
X0231865Y0061000D01*
X0236865Y0061000D01*
X0239365Y0063500D01*
X0239365Y0068500D01*
X0236865Y0071000D01*
X0239365Y0073500D01*
X0239365Y0078500D01*
X0236865Y0081000D01*
X0239365Y0083500D01*
X0239365Y0088500D01*
X0236865Y0091000D01*
X0231865Y0091000D01*
X0229365Y0088500D01*
X0229090Y0121276D02*
X0319641Y0121276D01*
X0319641Y0030724D01*
X0229090Y0030724D01*
X0229090Y0121276D01*
X0226365Y0140000D02*
X0322365Y0140000D01*
X0322365Y0012000D01*
X0226365Y0012000D01*
X0226365Y0140000D01*
X0242411Y0155950D02*
X0242411Y0158202D01*
X0243162Y0158953D01*
X0243913Y0158953D01*
X0244663Y0158202D01*
X0244663Y0155950D01*
X0246915Y0155950D02*
X0242411Y0155950D01*
X0244663Y0158202D02*
X0245414Y0158953D01*
X0246165Y0158953D01*
X0246915Y0158202D01*
X0246915Y0155950D01*
X0246915Y0160554D02*
X0243913Y0160554D01*
X0242411Y0162055D01*
X0243913Y0163556D01*
X0246915Y0163556D01*
X0244663Y0163556D02*
X0244663Y0160554D01*
X0242411Y0165158D02*
X0242411Y0168160D01*
X0242411Y0166659D02*
X0246915Y0166659D01*
X0246915Y0171263D02*
X0242411Y0171263D01*
X0242411Y0169762D02*
X0242411Y0172764D01*
X0242411Y0174366D02*
X0246915Y0174366D01*
X0246915Y0177368D01*
X0246915Y0178970D02*
X0242411Y0178970D01*
X0242411Y0181222D01*
X0243162Y0181972D01*
X0244663Y0181972D01*
X0245414Y0181222D01*
X0245414Y0178970D01*
X0245414Y0180471D02*
X0246915Y0181972D01*
X0246915Y0183574D02*
X0246915Y0185075D01*
X0246915Y0184324D02*
X0242411Y0184324D01*
X0242411Y0183574D02*
X0242411Y0185075D01*
X0242411Y0186643D02*
X0246915Y0186643D01*
X0246915Y0189645D01*
X0244663Y0188144D02*
X0244663Y0186643D01*
X0242411Y0186643D02*
X0242411Y0189645D01*
X0242411Y0177368D02*
X0242411Y0174366D01*
X0244663Y0174366D02*
X0244663Y0175867D01*
X0251365Y0203500D02*
X0251365Y0262500D01*
X0276965Y0262500D01*
X0276965Y0203500D01*
X0251365Y0203500D01*
X0162765Y0203500D01*
X0162765Y0262500D01*
X0251365Y0262500D01*
X0184365Y0258500D02*
X0184365Y0253500D01*
X0181865Y0251000D01*
X0184365Y0248500D01*
X0184365Y0243500D01*
X0181865Y0241000D01*
X0184365Y0238500D01*
X0184365Y0233500D01*
X0181865Y0231000D01*
X0184365Y0228500D01*
X0184365Y0223500D01*
X0181865Y0221000D01*
X0176865Y0221000D01*
X0174365Y0223500D01*
X0171865Y0221000D01*
X0166865Y0221000D01*
X0164365Y0223500D01*
X0164365Y0228500D01*
X0166865Y0231000D01*
X0164365Y0233500D01*
X0164365Y0238500D01*
X0166865Y0241000D01*
X0164365Y0243500D01*
X0164365Y0248500D01*
X0166865Y0251000D01*
X0164365Y0253500D01*
X0164365Y0258500D01*
X0166865Y0261000D01*
X0181865Y0261000D01*
X0184365Y0258500D01*
X0185387Y0197954D02*
X0185387Y0193450D01*
X0182385Y0197954D01*
X0182385Y0193450D01*
X0180817Y0193450D02*
X0179315Y0193450D01*
X0180066Y0193450D02*
X0180066Y0197954D01*
X0179315Y0197954D02*
X0180817Y0197954D01*
X0154365Y0188500D02*
X0151865Y0191000D01*
X0154365Y0183500D02*
X0151865Y0181000D01*
X0154365Y0178500D01*
X0151865Y0181000D02*
X0146865Y0181000D01*
X0144365Y0178500D01*
X0144365Y0173500D01*
X0146865Y0171000D01*
X0144365Y0168500D01*
X0144365Y0163500D01*
X0146865Y0161000D01*
X0144365Y0158500D01*
X0144365Y0153500D01*
X0146865Y0151000D01*
X0151865Y0151000D01*
X0154365Y0153500D01*
X0154365Y0158500D02*
X0151865Y0161000D01*
X0154365Y0163500D01*
X0154365Y0168500D02*
X0151865Y0171000D01*
X0154365Y0173500D01*
X0146865Y0181000D02*
X0144365Y0183500D01*
X0141865Y0181000D01*
X0136865Y0181000D01*
X0134365Y0183500D01*
X0131865Y0181000D01*
X0126865Y0181000D01*
X0124365Y0183500D01*
X0121865Y0181000D01*
X0116865Y0181000D01*
X0114365Y0183500D01*
X0111865Y0181000D01*
X0106865Y0181000D01*
X0104365Y0183500D01*
X0101865Y0181000D01*
X0096865Y0181000D01*
X0094365Y0183500D01*
X0091865Y0181000D01*
X0086865Y0181000D01*
X0089365Y0178500D01*
X0089365Y0173500D01*
X0086865Y0171000D01*
X0081865Y0171000D01*
X0079365Y0173500D01*
X0076865Y0171000D01*
X0071865Y0171000D01*
X0069365Y0173500D01*
X0069365Y0178500D01*
X0071865Y0181000D01*
X0076865Y0181000D01*
X0079365Y0178500D01*
X0081865Y0181000D01*
X0086865Y0181000D01*
X0084365Y0183500D01*
X0081865Y0181000D01*
X0076865Y0181000D01*
X0074365Y0183500D01*
X0071865Y0181000D01*
X0066865Y0181000D01*
X0064365Y0183500D01*
X0061865Y0181000D01*
X0056865Y0181000D01*
X0054365Y0183500D01*
X0051865Y0181000D01*
X0046865Y0181000D01*
X0044365Y0183500D01*
X0041865Y0181000D01*
X0036865Y0181000D01*
X0034365Y0183500D01*
X0034365Y0188500D01*
X0036865Y0191000D01*
X0041865Y0191000D02*
X0044365Y0188500D01*
X0046865Y0191000D01*
X0051865Y0191000D02*
X0054365Y0188500D01*
X0056865Y0191000D01*
X0071865Y0191000D02*
X0074365Y0188500D01*
X0076865Y0191000D01*
X0081865Y0191000D02*
X0084365Y0188500D01*
X0086865Y0191000D01*
X0091865Y0191000D02*
X0094365Y0188500D01*
X0096865Y0191000D01*
X0101865Y0191000D02*
X0104365Y0188500D01*
X0106865Y0191000D01*
X0111865Y0191000D02*
X0114365Y0188500D01*
X0116865Y0191000D01*
X0131865Y0191000D02*
X0134365Y0188500D01*
X0136865Y0191000D01*
X0094090Y0246157D02*
X0094090Y0252850D01*
X0034641Y0252850D01*
X0034641Y0276472D01*
X0094090Y0276472D01*
X0094090Y0252850D01*
X0094090Y0246157D02*
X0034641Y0246157D01*
X0034641Y0252850D01*
X0057615Y0221754D02*
X0059867Y0221754D01*
X0060618Y0221003D01*
X0060618Y0219502D01*
X0059867Y0218751D01*
X0057615Y0218751D01*
X0057615Y0217250D02*
X0057615Y0221754D01*
X0059117Y0218751D02*
X0060618Y0217250D01*
X0062219Y0217250D02*
X0065222Y0217250D01*
X0063720Y0217250D02*
X0063720Y0221754D01*
X0062219Y0220253D01*
X0034365Y0123500D02*
X0036865Y0121000D01*
X0017411Y0091576D02*
X0017411Y0088574D01*
X0021915Y0088574D01*
X0019663Y0088574D02*
X0019663Y0090075D01*
X0019663Y0086972D02*
X0019663Y0083970D01*
X0021915Y0082368D02*
X0017411Y0082368D01*
X0017411Y0079366D02*
X0021915Y0082368D01*
X0021915Y0079366D02*
X0017411Y0079366D01*
X0017411Y0077764D02*
X0017411Y0074762D01*
X0021915Y0074762D01*
X0021915Y0077764D01*
X0019663Y0076263D02*
X0019663Y0074762D01*
X0018162Y0073160D02*
X0017411Y0072410D01*
X0017411Y0070158D01*
X0021915Y0070158D01*
X0021915Y0072410D01*
X0021165Y0073160D01*
X0018162Y0073160D01*
X0018162Y0068556D02*
X0017411Y0067806D01*
X0017411Y0066305D01*
X0018162Y0065554D01*
X0021165Y0065554D01*
X0021915Y0066305D01*
X0021915Y0067806D01*
X0021165Y0068556D01*
X0018162Y0068556D01*
X0018162Y0063953D02*
X0018913Y0063953D01*
X0019663Y0063202D01*
X0019663Y0060950D01*
X0017411Y0060950D02*
X0017411Y0063202D01*
X0018162Y0063953D01*
X0019663Y0063202D02*
X0020414Y0063953D01*
X0021165Y0063953D01*
X0021915Y0063202D01*
X0021915Y0060950D01*
X0017411Y0060950D01*
X0047292Y0008554D02*
X0049544Y0008554D01*
X0050294Y0007803D01*
X0050294Y0007053D01*
X0049544Y0006302D01*
X0047292Y0006302D01*
X0049544Y0006302D02*
X0050294Y0005551D01*
X0050294Y0004801D01*
X0049544Y0004050D01*
X0047292Y0004050D01*
X0047292Y0008554D01*
X0051896Y0008554D02*
X0053397Y0007053D01*
X0054898Y0008554D01*
X0054898Y0004050D01*
X0056500Y0004050D02*
X0056500Y0008554D01*
X0058751Y0008554D01*
X0059502Y0007803D01*
X0059502Y0006302D01*
X0058751Y0005551D01*
X0056500Y0005551D01*
X0051896Y0004050D02*
X0051896Y0008554D01*
X0061103Y0007053D02*
X0062605Y0008554D01*
X0062605Y0004050D01*
X0064106Y0004050D02*
X0061103Y0004050D01*
X0065707Y0004801D02*
X0065707Y0005551D01*
X0066458Y0006302D01*
X0067959Y0006302D01*
X0068710Y0005551D01*
X0068710Y0004801D01*
X0067959Y0004050D01*
X0066458Y0004050D01*
X0065707Y0004801D01*
X0066458Y0006302D02*
X0065707Y0007053D01*
X0065707Y0007803D01*
X0066458Y0008554D01*
X0067959Y0008554D01*
X0068710Y0007803D01*
X0068710Y0007053D01*
X0067959Y0006302D01*
X0070311Y0004801D02*
X0070311Y0007803D01*
X0071062Y0008554D01*
X0072563Y0008554D01*
X0073314Y0007803D01*
X0070311Y0004801D01*
X0071062Y0004050D01*
X0072563Y0004050D01*
X0073314Y0004801D01*
X0073314Y0007803D01*
X0127292Y0008554D02*
X0127292Y0004050D01*
X0129544Y0004050D01*
X0130294Y0004801D01*
X0130294Y0005551D01*
X0129544Y0006302D01*
X0127292Y0006302D01*
X0129544Y0006302D02*
X0130294Y0007053D01*
X0130294Y0007803D01*
X0129544Y0008554D01*
X0127292Y0008554D01*
X0131896Y0008554D02*
X0131896Y0004050D01*
X0131896Y0006302D02*
X0134898Y0006302D01*
X0136500Y0007053D02*
X0138001Y0008554D01*
X0138001Y0004050D01*
X0136500Y0004050D02*
X0139502Y0004050D01*
X0141103Y0004050D02*
X0141103Y0004801D01*
X0144106Y0007803D01*
X0144106Y0008554D01*
X0141103Y0008554D01*
X0145707Y0008554D02*
X0145707Y0006302D01*
X0147209Y0007053D01*
X0147959Y0007053D01*
X0148710Y0006302D01*
X0148710Y0004801D01*
X0147959Y0004050D01*
X0146458Y0004050D01*
X0145707Y0004801D01*
X0150064Y0005551D02*
X0152316Y0005551D01*
X0153067Y0006302D01*
X0153067Y0007803D01*
X0152316Y0008554D01*
X0150064Y0008554D01*
X0150064Y0004050D01*
X0150311Y0004801D02*
X0153314Y0007803D01*
X0153314Y0004801D01*
X0152563Y0004050D01*
X0151062Y0004050D01*
X0150311Y0004801D01*
X0150311Y0007803D01*
X0151062Y0008554D01*
X0152563Y0008554D01*
X0153314Y0007803D01*
X0154668Y0008554D02*
X0154668Y0004050D01*
X0157671Y0004050D01*
X0159272Y0004050D02*
X0162275Y0004050D01*
X0163876Y0004050D02*
X0166128Y0004050D01*
X0166878Y0004801D01*
X0166878Y0007803D01*
X0166128Y0008554D01*
X0163876Y0008554D01*
X0163876Y0004050D01*
X0160773Y0006302D02*
X0159272Y0006302D01*
X0159272Y0008554D02*
X0159272Y0004050D01*
X0156169Y0006302D02*
X0154668Y0006302D01*
X0154668Y0008554D02*
X0157671Y0008554D01*
X0159272Y0008554D02*
X0162275Y0008554D01*
X0168480Y0006302D02*
X0171482Y0006302D01*
X0173084Y0007053D02*
X0173834Y0006302D01*
X0175336Y0006302D01*
X0176086Y0005551D01*
X0176086Y0004801D01*
X0175336Y0004050D01*
X0173834Y0004050D01*
X0173084Y0004801D01*
X0173084Y0007053D02*
X0173084Y0007803D01*
X0173834Y0008554D01*
X0175336Y0008554D01*
X0176086Y0007803D01*
X0177688Y0007803D02*
X0177688Y0004801D01*
X0178438Y0004050D01*
X0179940Y0004050D01*
X0180690Y0004801D01*
X0182292Y0004050D02*
X0182292Y0008554D01*
X0180690Y0007803D02*
X0179940Y0008554D01*
X0178438Y0008554D01*
X0177688Y0007803D01*
X0182292Y0006302D02*
X0185294Y0006302D01*
X0186896Y0006302D02*
X0189898Y0006302D01*
X0189898Y0007053D02*
X0189898Y0004050D01*
X0191499Y0004050D02*
X0194502Y0004050D01*
X0191499Y0004050D02*
X0191499Y0008554D01*
X0189898Y0007053D02*
X0188397Y0008554D01*
X0186896Y0007053D01*
X0186896Y0004050D01*
X0185294Y0004050D02*
X0185294Y0008554D01*
X0196103Y0008554D02*
X0199106Y0008554D01*
X0197605Y0008554D02*
X0197605Y0004050D01*
X0200707Y0004050D02*
X0203710Y0004050D01*
X0205311Y0004050D02*
X0205311Y0008554D01*
X0207563Y0008554D01*
X0208314Y0007803D01*
X0208314Y0006302D01*
X0207563Y0005551D01*
X0205311Y0005551D01*
X0206812Y0005551D02*
X0208314Y0004050D01*
X0203710Y0008554D02*
X0200707Y0008554D01*
X0200707Y0004050D01*
X0200707Y0006302D02*
X0202209Y0006302D01*
X0153067Y0004050D02*
X0151565Y0005551D01*
X0148710Y0008554D02*
X0145707Y0008554D01*
X0134898Y0008554D02*
X0134898Y0004050D01*
X0269365Y0076000D02*
X0279365Y0076000D01*
X0229089Y0076000D02*
X0229103Y0077111D01*
X0229144Y0078222D01*
X0229212Y0079331D01*
X0229307Y0080438D01*
X0229429Y0081542D01*
X0229579Y0082643D01*
X0229756Y0083740D01*
X0229959Y0084833D01*
X0230189Y0085920D01*
X0230446Y0087001D01*
X0230729Y0088076D01*
X0231039Y0089143D01*
X0231374Y0090202D01*
X0231736Y0091253D01*
X0232123Y0092295D01*
X0232535Y0093326D01*
X0232973Y0094348D01*
X0233436Y0095358D01*
X0233923Y0096357D01*
X0234435Y0097343D01*
X0234971Y0098316D01*
X0235530Y0099277D01*
X0236113Y0100223D01*
X0236719Y0101154D01*
X0237348Y0102070D01*
X0237999Y0102971D01*
X0238672Y0103855D01*
X0239366Y0104723D01*
X0240082Y0105573D01*
X0240818Y0106406D01*
X0241574Y0107220D01*
X0242350Y0108015D01*
X0243145Y0108791D01*
X0243959Y0109547D01*
X0244792Y0110283D01*
X0245642Y0110999D01*
X0246510Y0111693D01*
X0247394Y0112366D01*
X0248295Y0113017D01*
X0249211Y0113646D01*
X0250142Y0114252D01*
X0251088Y0114835D01*
X0252049Y0115394D01*
X0253022Y0115930D01*
X0254008Y0116442D01*
X0255007Y0116929D01*
X0256017Y0117392D01*
X0257039Y0117830D01*
X0258070Y0118242D01*
X0259112Y0118629D01*
X0260163Y0118991D01*
X0261222Y0119326D01*
X0262289Y0119636D01*
X0263364Y0119919D01*
X0264445Y0120176D01*
X0265532Y0120406D01*
X0266625Y0120609D01*
X0267722Y0120786D01*
X0268823Y0120936D01*
X0269927Y0121058D01*
X0271034Y0121153D01*
X0272143Y0121221D01*
X0273254Y0121262D01*
X0274365Y0121276D01*
X0275476Y0121262D01*
X0276587Y0121221D01*
X0277696Y0121153D01*
X0278803Y0121058D01*
X0279907Y0120936D01*
X0281008Y0120786D01*
X0282105Y0120609D01*
X0283198Y0120406D01*
X0284285Y0120176D01*
X0285366Y0119919D01*
X0286441Y0119636D01*
X0287508Y0119326D01*
X0288567Y0118991D01*
X0289618Y0118629D01*
X0290660Y0118242D01*
X0291691Y0117830D01*
X0292713Y0117392D01*
X0293723Y0116929D01*
X0294722Y0116442D01*
X0295708Y0115930D01*
X0296681Y0115394D01*
X0297642Y0114835D01*
X0298588Y0114252D01*
X0299519Y0113646D01*
X0300435Y0113017D01*
X0301336Y0112366D01*
X0302220Y0111693D01*
X0303088Y0110999D01*
X0303938Y0110283D01*
X0304771Y0109547D01*
X0305585Y0108791D01*
X0306380Y0108015D01*
X0307156Y0107220D01*
X0307912Y0106406D01*
X0308648Y0105573D01*
X0309364Y0104723D01*
X0310058Y0103855D01*
X0310731Y0102971D01*
X0311382Y0102070D01*
X0312011Y0101154D01*
X0312617Y0100223D01*
X0313200Y0099277D01*
X0313759Y0098316D01*
X0314295Y0097343D01*
X0314807Y0096357D01*
X0315294Y0095358D01*
X0315757Y0094348D01*
X0316195Y0093326D01*
X0316607Y0092295D01*
X0316994Y0091253D01*
X0317356Y0090202D01*
X0317691Y0089143D01*
X0318001Y0088076D01*
X0318284Y0087001D01*
X0318541Y0085920D01*
X0318771Y0084833D01*
X0318974Y0083740D01*
X0319151Y0082643D01*
X0319301Y0081542D01*
X0319423Y0080438D01*
X0319518Y0079331D01*
X0319586Y0078222D01*
X0319627Y0077111D01*
X0319641Y0076000D01*
X0319627Y0074889D01*
X0319586Y0073778D01*
X0319518Y0072669D01*
X0319423Y0071562D01*
X0319301Y0070458D01*
X0319151Y0069357D01*
X0318974Y0068260D01*
X0318771Y0067167D01*
X0318541Y0066080D01*
X0318284Y0064999D01*
X0318001Y0063924D01*
X0317691Y0062857D01*
X0317356Y0061798D01*
X0316994Y0060747D01*
X0316607Y0059705D01*
X0316195Y0058674D01*
X0315757Y0057652D01*
X0315294Y0056642D01*
X0314807Y0055643D01*
X0314295Y0054657D01*
X0313759Y0053684D01*
X0313200Y0052723D01*
X0312617Y0051777D01*
X0312011Y0050846D01*
X0311382Y0049930D01*
X0310731Y0049029D01*
X0310058Y0048145D01*
X0309364Y0047277D01*
X0308648Y0046427D01*
X0307912Y0045594D01*
X0307156Y0044780D01*
X0306380Y0043985D01*
X0305585Y0043209D01*
X0304771Y0042453D01*
X0303938Y0041717D01*
X0303088Y0041001D01*
X0302220Y0040307D01*
X0301336Y0039634D01*
X0300435Y0038983D01*
X0299519Y0038354D01*
X0298588Y0037748D01*
X0297642Y0037165D01*
X0296681Y0036606D01*
X0295708Y0036070D01*
X0294722Y0035558D01*
X0293723Y0035071D01*
X0292713Y0034608D01*
X0291691Y0034170D01*
X0290660Y0033758D01*
X0289618Y0033371D01*
X0288567Y0033009D01*
X0287508Y0032674D01*
X0286441Y0032364D01*
X0285366Y0032081D01*
X0284285Y0031824D01*
X0283198Y0031594D01*
X0282105Y0031391D01*
X0281008Y0031214D01*
X0279907Y0031064D01*
X0278803Y0030942D01*
X0277696Y0030847D01*
X0276587Y0030779D01*
X0275476Y0030738D01*
X0274365Y0030724D01*
X0273254Y0030738D01*
X0272143Y0030779D01*
X0271034Y0030847D01*
X0269927Y0030942D01*
X0268823Y0031064D01*
X0267722Y0031214D01*
X0266625Y0031391D01*
X0265532Y0031594D01*
X0264445Y0031824D01*
X0263364Y0032081D01*
X0262289Y0032364D01*
X0261222Y0032674D01*
X0260163Y0033009D01*
X0259112Y0033371D01*
X0258070Y0033758D01*
X0257039Y0034170D01*
X0256017Y0034608D01*
X0255007Y0035071D01*
X0254008Y0035558D01*
X0253022Y0036070D01*
X0252049Y0036606D01*
X0251088Y0037165D01*
X0250142Y0037748D01*
X0249211Y0038354D01*
X0248295Y0038983D01*
X0247394Y0039634D01*
X0246510Y0040307D01*
X0245642Y0041001D01*
X0244792Y0041717D01*
X0243959Y0042453D01*
X0243145Y0043209D01*
X0242350Y0043985D01*
X0241574Y0044780D01*
X0240818Y0045594D01*
X0240082Y0046427D01*
X0239366Y0047277D01*
X0238672Y0048145D01*
X0237999Y0049029D01*
X0237348Y0049930D01*
X0236719Y0050846D01*
X0236113Y0051777D01*
X0235530Y0052723D01*
X0234971Y0053684D01*
X0234435Y0054657D01*
X0233923Y0055643D01*
X0233436Y0056642D01*
X0232973Y0057652D01*
X0232535Y0058674D01*
X0232123Y0059705D01*
X0231736Y0060747D01*
X0231374Y0061798D01*
X0231039Y0062857D01*
X0230729Y0063924D01*
X0230446Y0064999D01*
X0230189Y0066080D01*
X0229959Y0067167D01*
X0229756Y0068260D01*
X0229579Y0069357D01*
X0229429Y0070458D01*
X0229307Y0071562D01*
X0229212Y0072669D01*
X0229144Y0073778D01*
X0229103Y0074889D01*
X0229089Y0076000D01*
X0274365Y0081000D02*
X0274365Y0071000D01*
D17*
X0083565Y0211000D03*
X0055165Y0211000D03*
M02*
