G75*
%MOIN*%
%OFA0B0*%
%FSLAX25Y25*%
%IPPOS*%
%LPD*%
%AMOC8*
5,1,8,0,0,1.08239X$1,22.5*
%
%ADD10C,0.00000*%
%ADD11C,0.04700*%
%ADD12C,0.02000*%
D10*
X0014365Y0001000D02*
X0014365Y0275961D01*
X0283066Y0275961D01*
X0283066Y0001000D01*
X0014365Y0001000D01*
X0270822Y0020488D02*
X0270824Y0020606D01*
X0270830Y0020725D01*
X0270840Y0020843D01*
X0270854Y0020960D01*
X0270871Y0021077D01*
X0270893Y0021194D01*
X0270919Y0021309D01*
X0270948Y0021424D01*
X0270981Y0021538D01*
X0271018Y0021650D01*
X0271059Y0021761D01*
X0271103Y0021871D01*
X0271151Y0021979D01*
X0271203Y0022086D01*
X0271258Y0022191D01*
X0271317Y0022294D01*
X0271379Y0022394D01*
X0271444Y0022493D01*
X0271513Y0022590D01*
X0271584Y0022684D01*
X0271659Y0022775D01*
X0271737Y0022865D01*
X0271818Y0022951D01*
X0271902Y0023035D01*
X0271988Y0023116D01*
X0272078Y0023194D01*
X0272169Y0023269D01*
X0272263Y0023340D01*
X0272360Y0023409D01*
X0272459Y0023474D01*
X0272559Y0023536D01*
X0272662Y0023595D01*
X0272767Y0023650D01*
X0272874Y0023702D01*
X0272982Y0023750D01*
X0273092Y0023794D01*
X0273203Y0023835D01*
X0273315Y0023872D01*
X0273429Y0023905D01*
X0273544Y0023934D01*
X0273659Y0023960D01*
X0273776Y0023982D01*
X0273893Y0023999D01*
X0274010Y0024013D01*
X0274128Y0024023D01*
X0274247Y0024029D01*
X0274365Y0024031D01*
X0274483Y0024029D01*
X0274602Y0024023D01*
X0274720Y0024013D01*
X0274837Y0023999D01*
X0274954Y0023982D01*
X0275071Y0023960D01*
X0275186Y0023934D01*
X0275301Y0023905D01*
X0275415Y0023872D01*
X0275527Y0023835D01*
X0275638Y0023794D01*
X0275748Y0023750D01*
X0275856Y0023702D01*
X0275963Y0023650D01*
X0276068Y0023595D01*
X0276171Y0023536D01*
X0276271Y0023474D01*
X0276370Y0023409D01*
X0276467Y0023340D01*
X0276561Y0023269D01*
X0276652Y0023194D01*
X0276742Y0023116D01*
X0276828Y0023035D01*
X0276912Y0022951D01*
X0276993Y0022865D01*
X0277071Y0022775D01*
X0277146Y0022684D01*
X0277217Y0022590D01*
X0277286Y0022493D01*
X0277351Y0022394D01*
X0277413Y0022294D01*
X0277472Y0022191D01*
X0277527Y0022086D01*
X0277579Y0021979D01*
X0277627Y0021871D01*
X0277671Y0021761D01*
X0277712Y0021650D01*
X0277749Y0021538D01*
X0277782Y0021424D01*
X0277811Y0021309D01*
X0277837Y0021194D01*
X0277859Y0021077D01*
X0277876Y0020960D01*
X0277890Y0020843D01*
X0277900Y0020725D01*
X0277906Y0020606D01*
X0277908Y0020488D01*
X0277906Y0020370D01*
X0277900Y0020251D01*
X0277890Y0020133D01*
X0277876Y0020016D01*
X0277859Y0019899D01*
X0277837Y0019782D01*
X0277811Y0019667D01*
X0277782Y0019552D01*
X0277749Y0019438D01*
X0277712Y0019326D01*
X0277671Y0019215D01*
X0277627Y0019105D01*
X0277579Y0018997D01*
X0277527Y0018890D01*
X0277472Y0018785D01*
X0277413Y0018682D01*
X0277351Y0018582D01*
X0277286Y0018483D01*
X0277217Y0018386D01*
X0277146Y0018292D01*
X0277071Y0018201D01*
X0276993Y0018111D01*
X0276912Y0018025D01*
X0276828Y0017941D01*
X0276742Y0017860D01*
X0276652Y0017782D01*
X0276561Y0017707D01*
X0276467Y0017636D01*
X0276370Y0017567D01*
X0276271Y0017502D01*
X0276171Y0017440D01*
X0276068Y0017381D01*
X0275963Y0017326D01*
X0275856Y0017274D01*
X0275748Y0017226D01*
X0275638Y0017182D01*
X0275527Y0017141D01*
X0275415Y0017104D01*
X0275301Y0017071D01*
X0275186Y0017042D01*
X0275071Y0017016D01*
X0274954Y0016994D01*
X0274837Y0016977D01*
X0274720Y0016963D01*
X0274602Y0016953D01*
X0274483Y0016947D01*
X0274365Y0016945D01*
X0274247Y0016947D01*
X0274128Y0016953D01*
X0274010Y0016963D01*
X0273893Y0016977D01*
X0273776Y0016994D01*
X0273659Y0017016D01*
X0273544Y0017042D01*
X0273429Y0017071D01*
X0273315Y0017104D01*
X0273203Y0017141D01*
X0273092Y0017182D01*
X0272982Y0017226D01*
X0272874Y0017274D01*
X0272767Y0017326D01*
X0272662Y0017381D01*
X0272559Y0017440D01*
X0272459Y0017502D01*
X0272360Y0017567D01*
X0272263Y0017636D01*
X0272169Y0017707D01*
X0272078Y0017782D01*
X0271988Y0017860D01*
X0271902Y0017941D01*
X0271818Y0018025D01*
X0271737Y0018111D01*
X0271659Y0018201D01*
X0271584Y0018292D01*
X0271513Y0018386D01*
X0271444Y0018483D01*
X0271379Y0018582D01*
X0271317Y0018682D01*
X0271258Y0018785D01*
X0271203Y0018890D01*
X0271151Y0018997D01*
X0271103Y0019105D01*
X0271059Y0019215D01*
X0271018Y0019326D01*
X0270981Y0019438D01*
X0270948Y0019552D01*
X0270919Y0019667D01*
X0270893Y0019782D01*
X0270871Y0019899D01*
X0270854Y0020016D01*
X0270840Y0020133D01*
X0270830Y0020251D01*
X0270824Y0020370D01*
X0270822Y0020488D01*
X0270822Y0131512D02*
X0270824Y0131630D01*
X0270830Y0131749D01*
X0270840Y0131867D01*
X0270854Y0131984D01*
X0270871Y0132101D01*
X0270893Y0132218D01*
X0270919Y0132333D01*
X0270948Y0132448D01*
X0270981Y0132562D01*
X0271018Y0132674D01*
X0271059Y0132785D01*
X0271103Y0132895D01*
X0271151Y0133003D01*
X0271203Y0133110D01*
X0271258Y0133215D01*
X0271317Y0133318D01*
X0271379Y0133418D01*
X0271444Y0133517D01*
X0271513Y0133614D01*
X0271584Y0133708D01*
X0271659Y0133799D01*
X0271737Y0133889D01*
X0271818Y0133975D01*
X0271902Y0134059D01*
X0271988Y0134140D01*
X0272078Y0134218D01*
X0272169Y0134293D01*
X0272263Y0134364D01*
X0272360Y0134433D01*
X0272459Y0134498D01*
X0272559Y0134560D01*
X0272662Y0134619D01*
X0272767Y0134674D01*
X0272874Y0134726D01*
X0272982Y0134774D01*
X0273092Y0134818D01*
X0273203Y0134859D01*
X0273315Y0134896D01*
X0273429Y0134929D01*
X0273544Y0134958D01*
X0273659Y0134984D01*
X0273776Y0135006D01*
X0273893Y0135023D01*
X0274010Y0135037D01*
X0274128Y0135047D01*
X0274247Y0135053D01*
X0274365Y0135055D01*
X0274483Y0135053D01*
X0274602Y0135047D01*
X0274720Y0135037D01*
X0274837Y0135023D01*
X0274954Y0135006D01*
X0275071Y0134984D01*
X0275186Y0134958D01*
X0275301Y0134929D01*
X0275415Y0134896D01*
X0275527Y0134859D01*
X0275638Y0134818D01*
X0275748Y0134774D01*
X0275856Y0134726D01*
X0275963Y0134674D01*
X0276068Y0134619D01*
X0276171Y0134560D01*
X0276271Y0134498D01*
X0276370Y0134433D01*
X0276467Y0134364D01*
X0276561Y0134293D01*
X0276652Y0134218D01*
X0276742Y0134140D01*
X0276828Y0134059D01*
X0276912Y0133975D01*
X0276993Y0133889D01*
X0277071Y0133799D01*
X0277146Y0133708D01*
X0277217Y0133614D01*
X0277286Y0133517D01*
X0277351Y0133418D01*
X0277413Y0133318D01*
X0277472Y0133215D01*
X0277527Y0133110D01*
X0277579Y0133003D01*
X0277627Y0132895D01*
X0277671Y0132785D01*
X0277712Y0132674D01*
X0277749Y0132562D01*
X0277782Y0132448D01*
X0277811Y0132333D01*
X0277837Y0132218D01*
X0277859Y0132101D01*
X0277876Y0131984D01*
X0277890Y0131867D01*
X0277900Y0131749D01*
X0277906Y0131630D01*
X0277908Y0131512D01*
X0277906Y0131394D01*
X0277900Y0131275D01*
X0277890Y0131157D01*
X0277876Y0131040D01*
X0277859Y0130923D01*
X0277837Y0130806D01*
X0277811Y0130691D01*
X0277782Y0130576D01*
X0277749Y0130462D01*
X0277712Y0130350D01*
X0277671Y0130239D01*
X0277627Y0130129D01*
X0277579Y0130021D01*
X0277527Y0129914D01*
X0277472Y0129809D01*
X0277413Y0129706D01*
X0277351Y0129606D01*
X0277286Y0129507D01*
X0277217Y0129410D01*
X0277146Y0129316D01*
X0277071Y0129225D01*
X0276993Y0129135D01*
X0276912Y0129049D01*
X0276828Y0128965D01*
X0276742Y0128884D01*
X0276652Y0128806D01*
X0276561Y0128731D01*
X0276467Y0128660D01*
X0276370Y0128591D01*
X0276271Y0128526D01*
X0276171Y0128464D01*
X0276068Y0128405D01*
X0275963Y0128350D01*
X0275856Y0128298D01*
X0275748Y0128250D01*
X0275638Y0128206D01*
X0275527Y0128165D01*
X0275415Y0128128D01*
X0275301Y0128095D01*
X0275186Y0128066D01*
X0275071Y0128040D01*
X0274954Y0128018D01*
X0274837Y0128001D01*
X0274720Y0127987D01*
X0274602Y0127977D01*
X0274483Y0127971D01*
X0274365Y0127969D01*
X0274247Y0127971D01*
X0274128Y0127977D01*
X0274010Y0127987D01*
X0273893Y0128001D01*
X0273776Y0128018D01*
X0273659Y0128040D01*
X0273544Y0128066D01*
X0273429Y0128095D01*
X0273315Y0128128D01*
X0273203Y0128165D01*
X0273092Y0128206D01*
X0272982Y0128250D01*
X0272874Y0128298D01*
X0272767Y0128350D01*
X0272662Y0128405D01*
X0272559Y0128464D01*
X0272459Y0128526D01*
X0272360Y0128591D01*
X0272263Y0128660D01*
X0272169Y0128731D01*
X0272078Y0128806D01*
X0271988Y0128884D01*
X0271902Y0128965D01*
X0271818Y0129049D01*
X0271737Y0129135D01*
X0271659Y0129225D01*
X0271584Y0129316D01*
X0271513Y0129410D01*
X0271444Y0129507D01*
X0271379Y0129606D01*
X0271317Y0129706D01*
X0271258Y0129809D01*
X0271203Y0129914D01*
X0271151Y0130021D01*
X0271103Y0130129D01*
X0271059Y0130239D01*
X0271018Y0130350D01*
X0270981Y0130462D01*
X0270948Y0130576D01*
X0270919Y0130691D01*
X0270893Y0130806D01*
X0270871Y0130923D01*
X0270854Y0131040D01*
X0270840Y0131157D01*
X0270830Y0131275D01*
X0270824Y0131394D01*
X0270822Y0131512D01*
D11*
X0195297Y0056159D02*
X0191861Y0056159D01*
X0190143Y0054441D01*
X0191861Y0051004D02*
X0190143Y0049286D01*
X0190143Y0047568D01*
X0191861Y0045850D01*
X0195297Y0045850D01*
X0197015Y0047568D01*
X0195297Y0051004D02*
X0191861Y0051004D01*
X0195297Y0051004D02*
X0197015Y0052723D01*
X0197015Y0054441D01*
X0195297Y0056159D01*
X0183203Y0051004D02*
X0183203Y0047568D01*
X0181485Y0045850D01*
X0178049Y0045850D01*
X0176331Y0049286D02*
X0183203Y0049286D01*
X0183203Y0051004D02*
X0181485Y0052723D01*
X0178049Y0052723D01*
X0176331Y0051004D01*
X0176331Y0049286D01*
X0169392Y0045850D02*
X0169392Y0052723D01*
X0164237Y0052723D01*
X0162519Y0051004D01*
X0162519Y0045850D01*
X0155580Y0045850D02*
X0150425Y0045850D01*
X0148707Y0047568D01*
X0150425Y0049286D01*
X0153862Y0049286D01*
X0155580Y0051004D01*
X0153862Y0052723D01*
X0148707Y0052723D01*
X0141768Y0051004D02*
X0141768Y0047568D01*
X0140050Y0045850D01*
X0136614Y0045850D01*
X0134896Y0047568D01*
X0134896Y0051004D01*
X0136614Y0052723D01*
X0140050Y0052723D01*
X0141768Y0051004D01*
X0127956Y0049286D02*
X0124520Y0052723D01*
X0122802Y0052723D01*
X0127956Y0052723D02*
X0127956Y0045850D01*
X0116446Y0045850D02*
X0116446Y0056159D01*
X0111292Y0052723D02*
X0116446Y0049286D01*
X0111292Y0045850D01*
X0104937Y0045850D02*
X0104937Y0052723D01*
X0099782Y0052723D01*
X0098064Y0051004D01*
X0098064Y0045850D01*
X0091125Y0047568D02*
X0091125Y0051004D01*
X0089407Y0052723D01*
X0085970Y0052723D01*
X0084252Y0051004D01*
X0084252Y0047568D01*
X0085970Y0045850D01*
X0089407Y0045850D01*
X0091125Y0047568D01*
X0077313Y0052723D02*
X0073877Y0052723D01*
X0075595Y0054441D02*
X0075595Y0047568D01*
X0073877Y0045850D01*
X0068105Y0047568D02*
X0068105Y0051004D01*
X0066387Y0052723D01*
X0062951Y0052723D01*
X0061233Y0051004D01*
X0061233Y0049286D01*
X0068105Y0049286D01*
X0068105Y0047568D02*
X0066387Y0045850D01*
X0062951Y0045850D01*
X0054293Y0045850D02*
X0054293Y0052723D01*
X0049139Y0052723D01*
X0047421Y0051004D01*
X0047421Y0045850D01*
X0040482Y0045850D02*
X0037045Y0045850D01*
X0038763Y0045850D02*
X0038763Y0056159D01*
X0037045Y0056159D02*
X0040482Y0056159D01*
X0031274Y0051004D02*
X0031274Y0047568D01*
X0029556Y0045850D01*
X0026119Y0045850D01*
X0024401Y0047568D01*
X0024401Y0051004D01*
X0026119Y0052723D01*
X0029556Y0052723D01*
X0031274Y0051004D01*
X0017462Y0056159D02*
X0010589Y0056159D01*
X0014026Y0056159D02*
X0014026Y0045850D01*
D12*
X0219407Y0011769D02*
X0220175Y0011769D01*
X0221709Y0010235D01*
X0221709Y0011769D02*
X0221709Y0008700D01*
X0224717Y0010235D02*
X0227786Y0010235D01*
X0227786Y0011002D02*
X0227019Y0011769D01*
X0225484Y0011769D01*
X0224717Y0011002D01*
X0224717Y0010235D01*
X0225484Y0008700D02*
X0227019Y0008700D01*
X0227786Y0009467D01*
X0227786Y0011002D01*
X0230794Y0011002D02*
X0231562Y0011769D01*
X0233864Y0011769D01*
X0233864Y0013304D02*
X0233864Y0008700D01*
X0231562Y0008700D01*
X0230794Y0009467D01*
X0230794Y0011002D01*
X0236626Y0011769D02*
X0237393Y0011769D01*
X0238928Y0010235D01*
X0238928Y0011769D02*
X0238928Y0008700D01*
X0241936Y0010235D02*
X0245005Y0010235D01*
X0245005Y0011002D02*
X0244238Y0011769D01*
X0242703Y0011769D01*
X0241936Y0011002D01*
X0241936Y0010235D01*
X0242703Y0008700D02*
X0244238Y0008700D01*
X0245005Y0009467D01*
X0245005Y0011002D01*
X0248013Y0011002D02*
X0249548Y0011002D01*
X0248013Y0011002D02*
X0248013Y0009467D01*
X0248780Y0008700D01*
X0250315Y0008700D01*
X0251082Y0009467D01*
X0251082Y0012537D01*
X0250315Y0013304D01*
X0248780Y0013304D01*
X0248013Y0012537D01*
X0254090Y0011002D02*
X0254090Y0008700D01*
X0254090Y0011002D02*
X0254857Y0011769D01*
X0257159Y0011769D01*
X0257159Y0008700D01*
X0260167Y0008700D02*
X0262469Y0008700D01*
X0263237Y0009467D01*
X0262469Y0010235D01*
X0260167Y0010235D01*
X0260167Y0011002D02*
X0260167Y0008700D01*
X0260167Y0011002D02*
X0260935Y0011769D01*
X0262469Y0011769D01*
X0266245Y0013304D02*
X0267779Y0013304D01*
X0267012Y0013304D02*
X0267012Y0009467D01*
X0267779Y0008700D01*
X0268547Y0008700D01*
X0269314Y0009467D01*
X0271831Y0010235D02*
X0273365Y0010235D01*
X0273365Y0011002D02*
X0271831Y0011002D01*
X0271831Y0007933D01*
M02*
