%
M48
M72
T01C0.03150
T02C0.03200
T03C0.03937
T04C0.04000
T05C0.07087
%
T01
X79365Y256000
X69365Y256000
X59365Y256000
X49365Y256000
T02
X49365Y211000
X89365Y211000
T03
X39365Y126000
X49365Y126000
X59365Y126000
X69365Y126000
X79365Y126000
X89365Y126000
X99365Y126000
X109365Y126000
X119365Y126000
X129365Y126000
X139365Y126000
X149365Y126000
X149365Y156000
X149365Y166000
X149365Y176000
X149365Y186000
X139365Y186000
X129365Y186000
X119365Y186000
X109365Y186000
X99365Y186000
X89365Y186000
X79365Y186000
X69365Y186000
X59365Y186000
X49365Y186000
X39365Y186000
X74365Y176000
X84365Y176000
X169365Y226000
X169365Y236000
X179365Y236000
X179365Y226000
X179365Y246000
X169365Y246000
X169365Y256000
X179365Y256000
X234365Y86000
X234365Y76000
X234365Y66000
T04
X29365Y16000
X39365Y16000
X49365Y16000
X59365Y16000
X69365Y16000
X109365Y16000
X119365Y16000
X129365Y16000
X139365Y16000
X149365Y16000
X194365Y16000
X204365Y16000
X194365Y106000
X184365Y106000
X254365Y161000
X254365Y171000
X194365Y186000
X184365Y186000
X29365Y96000
X29365Y86000
X29365Y76000
X29365Y66000
T05
X274365Y20488
X274365Y131512
M30
