G75*
%MOIN*%
%OFA0B0*%
%FSLAX25Y25*%
%IPPOS*%
%LPD*%
%AMOC8*
5,1,8,0,0,1.08239X$1,22.5*
%
%ADD10C,0.00000*%
%ADD11C,0.02400*%
%ADD12C,0.00500*%
D10*
X0001000Y0001500D02*
X0001000Y0276461D01*
X0269701Y0276461D01*
X0269701Y0001500D01*
X0001000Y0001500D01*
X0005488Y0011500D02*
X0005490Y0011648D01*
X0005496Y0011796D01*
X0005506Y0011944D01*
X0005520Y0012091D01*
X0005538Y0012238D01*
X0005559Y0012384D01*
X0005585Y0012530D01*
X0005615Y0012675D01*
X0005648Y0012819D01*
X0005686Y0012962D01*
X0005727Y0013104D01*
X0005772Y0013245D01*
X0005820Y0013385D01*
X0005873Y0013524D01*
X0005929Y0013661D01*
X0005989Y0013796D01*
X0006052Y0013930D01*
X0006119Y0014062D01*
X0006190Y0014192D01*
X0006264Y0014320D01*
X0006341Y0014446D01*
X0006422Y0014570D01*
X0006506Y0014692D01*
X0006593Y0014811D01*
X0006684Y0014928D01*
X0006778Y0015043D01*
X0006874Y0015155D01*
X0006974Y0015265D01*
X0007076Y0015371D01*
X0007182Y0015475D01*
X0007290Y0015576D01*
X0007401Y0015674D01*
X0007514Y0015770D01*
X0007630Y0015862D01*
X0007748Y0015951D01*
X0007869Y0016036D01*
X0007992Y0016119D01*
X0008117Y0016198D01*
X0008244Y0016274D01*
X0008373Y0016346D01*
X0008504Y0016415D01*
X0008637Y0016480D01*
X0008772Y0016541D01*
X0008908Y0016599D01*
X0009045Y0016654D01*
X0009184Y0016704D01*
X0009325Y0016751D01*
X0009466Y0016794D01*
X0009609Y0016834D01*
X0009753Y0016869D01*
X0009897Y0016901D01*
X0010043Y0016928D01*
X0010189Y0016952D01*
X0010336Y0016972D01*
X0010483Y0016988D01*
X0010630Y0017000D01*
X0010778Y0017008D01*
X0010926Y0017012D01*
X0011074Y0017012D01*
X0011222Y0017008D01*
X0011370Y0017000D01*
X0011517Y0016988D01*
X0011664Y0016972D01*
X0011811Y0016952D01*
X0011957Y0016928D01*
X0012103Y0016901D01*
X0012247Y0016869D01*
X0012391Y0016834D01*
X0012534Y0016794D01*
X0012675Y0016751D01*
X0012816Y0016704D01*
X0012955Y0016654D01*
X0013092Y0016599D01*
X0013228Y0016541D01*
X0013363Y0016480D01*
X0013496Y0016415D01*
X0013627Y0016346D01*
X0013756Y0016274D01*
X0013883Y0016198D01*
X0014008Y0016119D01*
X0014131Y0016036D01*
X0014252Y0015951D01*
X0014370Y0015862D01*
X0014486Y0015770D01*
X0014599Y0015674D01*
X0014710Y0015576D01*
X0014818Y0015475D01*
X0014924Y0015371D01*
X0015026Y0015265D01*
X0015126Y0015155D01*
X0015222Y0015043D01*
X0015316Y0014928D01*
X0015407Y0014811D01*
X0015494Y0014692D01*
X0015578Y0014570D01*
X0015659Y0014446D01*
X0015736Y0014320D01*
X0015810Y0014192D01*
X0015881Y0014062D01*
X0015948Y0013930D01*
X0016011Y0013796D01*
X0016071Y0013661D01*
X0016127Y0013524D01*
X0016180Y0013385D01*
X0016228Y0013245D01*
X0016273Y0013104D01*
X0016314Y0012962D01*
X0016352Y0012819D01*
X0016385Y0012675D01*
X0016415Y0012530D01*
X0016441Y0012384D01*
X0016462Y0012238D01*
X0016480Y0012091D01*
X0016494Y0011944D01*
X0016504Y0011796D01*
X0016510Y0011648D01*
X0016512Y0011500D01*
X0016510Y0011352D01*
X0016504Y0011204D01*
X0016494Y0011056D01*
X0016480Y0010909D01*
X0016462Y0010762D01*
X0016441Y0010616D01*
X0016415Y0010470D01*
X0016385Y0010325D01*
X0016352Y0010181D01*
X0016314Y0010038D01*
X0016273Y0009896D01*
X0016228Y0009755D01*
X0016180Y0009615D01*
X0016127Y0009476D01*
X0016071Y0009339D01*
X0016011Y0009204D01*
X0015948Y0009070D01*
X0015881Y0008938D01*
X0015810Y0008808D01*
X0015736Y0008680D01*
X0015659Y0008554D01*
X0015578Y0008430D01*
X0015494Y0008308D01*
X0015407Y0008189D01*
X0015316Y0008072D01*
X0015222Y0007957D01*
X0015126Y0007845D01*
X0015026Y0007735D01*
X0014924Y0007629D01*
X0014818Y0007525D01*
X0014710Y0007424D01*
X0014599Y0007326D01*
X0014486Y0007230D01*
X0014370Y0007138D01*
X0014252Y0007049D01*
X0014131Y0006964D01*
X0014008Y0006881D01*
X0013883Y0006802D01*
X0013756Y0006726D01*
X0013627Y0006654D01*
X0013496Y0006585D01*
X0013363Y0006520D01*
X0013228Y0006459D01*
X0013092Y0006401D01*
X0012955Y0006346D01*
X0012816Y0006296D01*
X0012675Y0006249D01*
X0012534Y0006206D01*
X0012391Y0006166D01*
X0012247Y0006131D01*
X0012103Y0006099D01*
X0011957Y0006072D01*
X0011811Y0006048D01*
X0011664Y0006028D01*
X0011517Y0006012D01*
X0011370Y0006000D01*
X0011222Y0005992D01*
X0011074Y0005988D01*
X0010926Y0005988D01*
X0010778Y0005992D01*
X0010630Y0006000D01*
X0010483Y0006012D01*
X0010336Y0006028D01*
X0010189Y0006048D01*
X0010043Y0006072D01*
X0009897Y0006099D01*
X0009753Y0006131D01*
X0009609Y0006166D01*
X0009466Y0006206D01*
X0009325Y0006249D01*
X0009184Y0006296D01*
X0009045Y0006346D01*
X0008908Y0006401D01*
X0008772Y0006459D01*
X0008637Y0006520D01*
X0008504Y0006585D01*
X0008373Y0006654D01*
X0008244Y0006726D01*
X0008117Y0006802D01*
X0007992Y0006881D01*
X0007869Y0006964D01*
X0007748Y0007049D01*
X0007630Y0007138D01*
X0007514Y0007230D01*
X0007401Y0007326D01*
X0007290Y0007424D01*
X0007182Y0007525D01*
X0007076Y0007629D01*
X0006974Y0007735D01*
X0006874Y0007845D01*
X0006778Y0007957D01*
X0006684Y0008072D01*
X0006593Y0008189D01*
X0006506Y0008308D01*
X0006422Y0008430D01*
X0006341Y0008554D01*
X0006264Y0008680D01*
X0006190Y0008808D01*
X0006119Y0008938D01*
X0006052Y0009070D01*
X0005989Y0009204D01*
X0005929Y0009339D01*
X0005873Y0009476D01*
X0005820Y0009615D01*
X0005772Y0009755D01*
X0005727Y0009896D01*
X0005686Y0010038D01*
X0005648Y0010181D01*
X0005615Y0010325D01*
X0005585Y0010470D01*
X0005559Y0010616D01*
X0005538Y0010762D01*
X0005520Y0010909D01*
X0005506Y0011056D01*
X0005496Y0011204D01*
X0005490Y0011352D01*
X0005488Y0011500D01*
X0255488Y0011500D02*
X0255490Y0011648D01*
X0255496Y0011796D01*
X0255506Y0011944D01*
X0255520Y0012091D01*
X0255538Y0012238D01*
X0255559Y0012384D01*
X0255585Y0012530D01*
X0255615Y0012675D01*
X0255648Y0012819D01*
X0255686Y0012962D01*
X0255727Y0013104D01*
X0255772Y0013245D01*
X0255820Y0013385D01*
X0255873Y0013524D01*
X0255929Y0013661D01*
X0255989Y0013796D01*
X0256052Y0013930D01*
X0256119Y0014062D01*
X0256190Y0014192D01*
X0256264Y0014320D01*
X0256341Y0014446D01*
X0256422Y0014570D01*
X0256506Y0014692D01*
X0256593Y0014811D01*
X0256684Y0014928D01*
X0256778Y0015043D01*
X0256874Y0015155D01*
X0256974Y0015265D01*
X0257076Y0015371D01*
X0257182Y0015475D01*
X0257290Y0015576D01*
X0257401Y0015674D01*
X0257514Y0015770D01*
X0257630Y0015862D01*
X0257748Y0015951D01*
X0257869Y0016036D01*
X0257992Y0016119D01*
X0258117Y0016198D01*
X0258244Y0016274D01*
X0258373Y0016346D01*
X0258504Y0016415D01*
X0258637Y0016480D01*
X0258772Y0016541D01*
X0258908Y0016599D01*
X0259045Y0016654D01*
X0259184Y0016704D01*
X0259325Y0016751D01*
X0259466Y0016794D01*
X0259609Y0016834D01*
X0259753Y0016869D01*
X0259897Y0016901D01*
X0260043Y0016928D01*
X0260189Y0016952D01*
X0260336Y0016972D01*
X0260483Y0016988D01*
X0260630Y0017000D01*
X0260778Y0017008D01*
X0260926Y0017012D01*
X0261074Y0017012D01*
X0261222Y0017008D01*
X0261370Y0017000D01*
X0261517Y0016988D01*
X0261664Y0016972D01*
X0261811Y0016952D01*
X0261957Y0016928D01*
X0262103Y0016901D01*
X0262247Y0016869D01*
X0262391Y0016834D01*
X0262534Y0016794D01*
X0262675Y0016751D01*
X0262816Y0016704D01*
X0262955Y0016654D01*
X0263092Y0016599D01*
X0263228Y0016541D01*
X0263363Y0016480D01*
X0263496Y0016415D01*
X0263627Y0016346D01*
X0263756Y0016274D01*
X0263883Y0016198D01*
X0264008Y0016119D01*
X0264131Y0016036D01*
X0264252Y0015951D01*
X0264370Y0015862D01*
X0264486Y0015770D01*
X0264599Y0015674D01*
X0264710Y0015576D01*
X0264818Y0015475D01*
X0264924Y0015371D01*
X0265026Y0015265D01*
X0265126Y0015155D01*
X0265222Y0015043D01*
X0265316Y0014928D01*
X0265407Y0014811D01*
X0265494Y0014692D01*
X0265578Y0014570D01*
X0265659Y0014446D01*
X0265736Y0014320D01*
X0265810Y0014192D01*
X0265881Y0014062D01*
X0265948Y0013930D01*
X0266011Y0013796D01*
X0266071Y0013661D01*
X0266127Y0013524D01*
X0266180Y0013385D01*
X0266228Y0013245D01*
X0266273Y0013104D01*
X0266314Y0012962D01*
X0266352Y0012819D01*
X0266385Y0012675D01*
X0266415Y0012530D01*
X0266441Y0012384D01*
X0266462Y0012238D01*
X0266480Y0012091D01*
X0266494Y0011944D01*
X0266504Y0011796D01*
X0266510Y0011648D01*
X0266512Y0011500D01*
X0266510Y0011352D01*
X0266504Y0011204D01*
X0266494Y0011056D01*
X0266480Y0010909D01*
X0266462Y0010762D01*
X0266441Y0010616D01*
X0266415Y0010470D01*
X0266385Y0010325D01*
X0266352Y0010181D01*
X0266314Y0010038D01*
X0266273Y0009896D01*
X0266228Y0009755D01*
X0266180Y0009615D01*
X0266127Y0009476D01*
X0266071Y0009339D01*
X0266011Y0009204D01*
X0265948Y0009070D01*
X0265881Y0008938D01*
X0265810Y0008808D01*
X0265736Y0008680D01*
X0265659Y0008554D01*
X0265578Y0008430D01*
X0265494Y0008308D01*
X0265407Y0008189D01*
X0265316Y0008072D01*
X0265222Y0007957D01*
X0265126Y0007845D01*
X0265026Y0007735D01*
X0264924Y0007629D01*
X0264818Y0007525D01*
X0264710Y0007424D01*
X0264599Y0007326D01*
X0264486Y0007230D01*
X0264370Y0007138D01*
X0264252Y0007049D01*
X0264131Y0006964D01*
X0264008Y0006881D01*
X0263883Y0006802D01*
X0263756Y0006726D01*
X0263627Y0006654D01*
X0263496Y0006585D01*
X0263363Y0006520D01*
X0263228Y0006459D01*
X0263092Y0006401D01*
X0262955Y0006346D01*
X0262816Y0006296D01*
X0262675Y0006249D01*
X0262534Y0006206D01*
X0262391Y0006166D01*
X0262247Y0006131D01*
X0262103Y0006099D01*
X0261957Y0006072D01*
X0261811Y0006048D01*
X0261664Y0006028D01*
X0261517Y0006012D01*
X0261370Y0006000D01*
X0261222Y0005992D01*
X0261074Y0005988D01*
X0260926Y0005988D01*
X0260778Y0005992D01*
X0260630Y0006000D01*
X0260483Y0006012D01*
X0260336Y0006028D01*
X0260189Y0006048D01*
X0260043Y0006072D01*
X0259897Y0006099D01*
X0259753Y0006131D01*
X0259609Y0006166D01*
X0259466Y0006206D01*
X0259325Y0006249D01*
X0259184Y0006296D01*
X0259045Y0006346D01*
X0258908Y0006401D01*
X0258772Y0006459D01*
X0258637Y0006520D01*
X0258504Y0006585D01*
X0258373Y0006654D01*
X0258244Y0006726D01*
X0258117Y0006802D01*
X0257992Y0006881D01*
X0257869Y0006964D01*
X0257748Y0007049D01*
X0257630Y0007138D01*
X0257514Y0007230D01*
X0257401Y0007326D01*
X0257290Y0007424D01*
X0257182Y0007525D01*
X0257076Y0007629D01*
X0256974Y0007735D01*
X0256874Y0007845D01*
X0256778Y0007957D01*
X0256684Y0008072D01*
X0256593Y0008189D01*
X0256506Y0008308D01*
X0256422Y0008430D01*
X0256341Y0008554D01*
X0256264Y0008680D01*
X0256190Y0008808D01*
X0256119Y0008938D01*
X0256052Y0009070D01*
X0255989Y0009204D01*
X0255929Y0009339D01*
X0255873Y0009476D01*
X0255820Y0009615D01*
X0255772Y0009755D01*
X0255727Y0009896D01*
X0255686Y0010038D01*
X0255648Y0010181D01*
X0255615Y0010325D01*
X0255585Y0010470D01*
X0255559Y0010616D01*
X0255538Y0010762D01*
X0255520Y0010909D01*
X0255506Y0011056D01*
X0255496Y0011204D01*
X0255490Y0011352D01*
X0255488Y0011500D01*
X0257457Y0010988D02*
X0257459Y0011106D01*
X0257465Y0011225D01*
X0257475Y0011343D01*
X0257489Y0011460D01*
X0257506Y0011577D01*
X0257528Y0011694D01*
X0257554Y0011809D01*
X0257583Y0011924D01*
X0257616Y0012038D01*
X0257653Y0012150D01*
X0257694Y0012261D01*
X0257738Y0012371D01*
X0257786Y0012479D01*
X0257838Y0012586D01*
X0257893Y0012691D01*
X0257952Y0012794D01*
X0258014Y0012894D01*
X0258079Y0012993D01*
X0258148Y0013090D01*
X0258219Y0013184D01*
X0258294Y0013275D01*
X0258372Y0013365D01*
X0258453Y0013451D01*
X0258537Y0013535D01*
X0258623Y0013616D01*
X0258713Y0013694D01*
X0258804Y0013769D01*
X0258898Y0013840D01*
X0258995Y0013909D01*
X0259094Y0013974D01*
X0259194Y0014036D01*
X0259297Y0014095D01*
X0259402Y0014150D01*
X0259509Y0014202D01*
X0259617Y0014250D01*
X0259727Y0014294D01*
X0259838Y0014335D01*
X0259950Y0014372D01*
X0260064Y0014405D01*
X0260179Y0014434D01*
X0260294Y0014460D01*
X0260411Y0014482D01*
X0260528Y0014499D01*
X0260645Y0014513D01*
X0260763Y0014523D01*
X0260882Y0014529D01*
X0261000Y0014531D01*
X0261118Y0014529D01*
X0261237Y0014523D01*
X0261355Y0014513D01*
X0261472Y0014499D01*
X0261589Y0014482D01*
X0261706Y0014460D01*
X0261821Y0014434D01*
X0261936Y0014405D01*
X0262050Y0014372D01*
X0262162Y0014335D01*
X0262273Y0014294D01*
X0262383Y0014250D01*
X0262491Y0014202D01*
X0262598Y0014150D01*
X0262703Y0014095D01*
X0262806Y0014036D01*
X0262906Y0013974D01*
X0263005Y0013909D01*
X0263102Y0013840D01*
X0263196Y0013769D01*
X0263287Y0013694D01*
X0263377Y0013616D01*
X0263463Y0013535D01*
X0263547Y0013451D01*
X0263628Y0013365D01*
X0263706Y0013275D01*
X0263781Y0013184D01*
X0263852Y0013090D01*
X0263921Y0012993D01*
X0263986Y0012894D01*
X0264048Y0012794D01*
X0264107Y0012691D01*
X0264162Y0012586D01*
X0264214Y0012479D01*
X0264262Y0012371D01*
X0264306Y0012261D01*
X0264347Y0012150D01*
X0264384Y0012038D01*
X0264417Y0011924D01*
X0264446Y0011809D01*
X0264472Y0011694D01*
X0264494Y0011577D01*
X0264511Y0011460D01*
X0264525Y0011343D01*
X0264535Y0011225D01*
X0264541Y0011106D01*
X0264543Y0010988D01*
X0264541Y0010870D01*
X0264535Y0010751D01*
X0264525Y0010633D01*
X0264511Y0010516D01*
X0264494Y0010399D01*
X0264472Y0010282D01*
X0264446Y0010167D01*
X0264417Y0010052D01*
X0264384Y0009938D01*
X0264347Y0009826D01*
X0264306Y0009715D01*
X0264262Y0009605D01*
X0264214Y0009497D01*
X0264162Y0009390D01*
X0264107Y0009285D01*
X0264048Y0009182D01*
X0263986Y0009082D01*
X0263921Y0008983D01*
X0263852Y0008886D01*
X0263781Y0008792D01*
X0263706Y0008701D01*
X0263628Y0008611D01*
X0263547Y0008525D01*
X0263463Y0008441D01*
X0263377Y0008360D01*
X0263287Y0008282D01*
X0263196Y0008207D01*
X0263102Y0008136D01*
X0263005Y0008067D01*
X0262906Y0008002D01*
X0262806Y0007940D01*
X0262703Y0007881D01*
X0262598Y0007826D01*
X0262491Y0007774D01*
X0262383Y0007726D01*
X0262273Y0007682D01*
X0262162Y0007641D01*
X0262050Y0007604D01*
X0261936Y0007571D01*
X0261821Y0007542D01*
X0261706Y0007516D01*
X0261589Y0007494D01*
X0261472Y0007477D01*
X0261355Y0007463D01*
X0261237Y0007453D01*
X0261118Y0007447D01*
X0261000Y0007445D01*
X0260882Y0007447D01*
X0260763Y0007453D01*
X0260645Y0007463D01*
X0260528Y0007477D01*
X0260411Y0007494D01*
X0260294Y0007516D01*
X0260179Y0007542D01*
X0260064Y0007571D01*
X0259950Y0007604D01*
X0259838Y0007641D01*
X0259727Y0007682D01*
X0259617Y0007726D01*
X0259509Y0007774D01*
X0259402Y0007826D01*
X0259297Y0007881D01*
X0259194Y0007940D01*
X0259094Y0008002D01*
X0258995Y0008067D01*
X0258898Y0008136D01*
X0258804Y0008207D01*
X0258713Y0008282D01*
X0258623Y0008360D01*
X0258537Y0008441D01*
X0258453Y0008525D01*
X0258372Y0008611D01*
X0258294Y0008701D01*
X0258219Y0008792D01*
X0258148Y0008886D01*
X0258079Y0008983D01*
X0258014Y0009082D01*
X0257952Y0009182D01*
X0257893Y0009285D01*
X0257838Y0009390D01*
X0257786Y0009497D01*
X0257738Y0009605D01*
X0257694Y0009715D01*
X0257653Y0009826D01*
X0257616Y0009938D01*
X0257583Y0010052D01*
X0257554Y0010167D01*
X0257528Y0010282D01*
X0257506Y0010399D01*
X0257489Y0010516D01*
X0257475Y0010633D01*
X0257465Y0010751D01*
X0257459Y0010870D01*
X0257457Y0010988D01*
X0257457Y0122012D02*
X0257459Y0122130D01*
X0257465Y0122249D01*
X0257475Y0122367D01*
X0257489Y0122484D01*
X0257506Y0122601D01*
X0257528Y0122718D01*
X0257554Y0122833D01*
X0257583Y0122948D01*
X0257616Y0123062D01*
X0257653Y0123174D01*
X0257694Y0123285D01*
X0257738Y0123395D01*
X0257786Y0123503D01*
X0257838Y0123610D01*
X0257893Y0123715D01*
X0257952Y0123818D01*
X0258014Y0123918D01*
X0258079Y0124017D01*
X0258148Y0124114D01*
X0258219Y0124208D01*
X0258294Y0124299D01*
X0258372Y0124389D01*
X0258453Y0124475D01*
X0258537Y0124559D01*
X0258623Y0124640D01*
X0258713Y0124718D01*
X0258804Y0124793D01*
X0258898Y0124864D01*
X0258995Y0124933D01*
X0259094Y0124998D01*
X0259194Y0125060D01*
X0259297Y0125119D01*
X0259402Y0125174D01*
X0259509Y0125226D01*
X0259617Y0125274D01*
X0259727Y0125318D01*
X0259838Y0125359D01*
X0259950Y0125396D01*
X0260064Y0125429D01*
X0260179Y0125458D01*
X0260294Y0125484D01*
X0260411Y0125506D01*
X0260528Y0125523D01*
X0260645Y0125537D01*
X0260763Y0125547D01*
X0260882Y0125553D01*
X0261000Y0125555D01*
X0261118Y0125553D01*
X0261237Y0125547D01*
X0261355Y0125537D01*
X0261472Y0125523D01*
X0261589Y0125506D01*
X0261706Y0125484D01*
X0261821Y0125458D01*
X0261936Y0125429D01*
X0262050Y0125396D01*
X0262162Y0125359D01*
X0262273Y0125318D01*
X0262383Y0125274D01*
X0262491Y0125226D01*
X0262598Y0125174D01*
X0262703Y0125119D01*
X0262806Y0125060D01*
X0262906Y0124998D01*
X0263005Y0124933D01*
X0263102Y0124864D01*
X0263196Y0124793D01*
X0263287Y0124718D01*
X0263377Y0124640D01*
X0263463Y0124559D01*
X0263547Y0124475D01*
X0263628Y0124389D01*
X0263706Y0124299D01*
X0263781Y0124208D01*
X0263852Y0124114D01*
X0263921Y0124017D01*
X0263986Y0123918D01*
X0264048Y0123818D01*
X0264107Y0123715D01*
X0264162Y0123610D01*
X0264214Y0123503D01*
X0264262Y0123395D01*
X0264306Y0123285D01*
X0264347Y0123174D01*
X0264384Y0123062D01*
X0264417Y0122948D01*
X0264446Y0122833D01*
X0264472Y0122718D01*
X0264494Y0122601D01*
X0264511Y0122484D01*
X0264525Y0122367D01*
X0264535Y0122249D01*
X0264541Y0122130D01*
X0264543Y0122012D01*
X0264541Y0121894D01*
X0264535Y0121775D01*
X0264525Y0121657D01*
X0264511Y0121540D01*
X0264494Y0121423D01*
X0264472Y0121306D01*
X0264446Y0121191D01*
X0264417Y0121076D01*
X0264384Y0120962D01*
X0264347Y0120850D01*
X0264306Y0120739D01*
X0264262Y0120629D01*
X0264214Y0120521D01*
X0264162Y0120414D01*
X0264107Y0120309D01*
X0264048Y0120206D01*
X0263986Y0120106D01*
X0263921Y0120007D01*
X0263852Y0119910D01*
X0263781Y0119816D01*
X0263706Y0119725D01*
X0263628Y0119635D01*
X0263547Y0119549D01*
X0263463Y0119465D01*
X0263377Y0119384D01*
X0263287Y0119306D01*
X0263196Y0119231D01*
X0263102Y0119160D01*
X0263005Y0119091D01*
X0262906Y0119026D01*
X0262806Y0118964D01*
X0262703Y0118905D01*
X0262598Y0118850D01*
X0262491Y0118798D01*
X0262383Y0118750D01*
X0262273Y0118706D01*
X0262162Y0118665D01*
X0262050Y0118628D01*
X0261936Y0118595D01*
X0261821Y0118566D01*
X0261706Y0118540D01*
X0261589Y0118518D01*
X0261472Y0118501D01*
X0261355Y0118487D01*
X0261237Y0118477D01*
X0261118Y0118471D01*
X0261000Y0118469D01*
X0260882Y0118471D01*
X0260763Y0118477D01*
X0260645Y0118487D01*
X0260528Y0118501D01*
X0260411Y0118518D01*
X0260294Y0118540D01*
X0260179Y0118566D01*
X0260064Y0118595D01*
X0259950Y0118628D01*
X0259838Y0118665D01*
X0259727Y0118706D01*
X0259617Y0118750D01*
X0259509Y0118798D01*
X0259402Y0118850D01*
X0259297Y0118905D01*
X0259194Y0118964D01*
X0259094Y0119026D01*
X0258995Y0119091D01*
X0258898Y0119160D01*
X0258804Y0119231D01*
X0258713Y0119306D01*
X0258623Y0119384D01*
X0258537Y0119465D01*
X0258453Y0119549D01*
X0258372Y0119635D01*
X0258294Y0119725D01*
X0258219Y0119816D01*
X0258148Y0119910D01*
X0258079Y0120007D01*
X0258014Y0120106D01*
X0257952Y0120206D01*
X0257893Y0120309D01*
X0257838Y0120414D01*
X0257786Y0120521D01*
X0257738Y0120629D01*
X0257694Y0120739D01*
X0257653Y0120850D01*
X0257616Y0120962D01*
X0257583Y0121076D01*
X0257554Y0121191D01*
X0257528Y0121306D01*
X0257506Y0121423D01*
X0257489Y0121540D01*
X0257475Y0121657D01*
X0257465Y0121775D01*
X0257459Y0121894D01*
X0257457Y0122012D01*
X0255488Y0266500D02*
X0255490Y0266648D01*
X0255496Y0266796D01*
X0255506Y0266944D01*
X0255520Y0267091D01*
X0255538Y0267238D01*
X0255559Y0267384D01*
X0255585Y0267530D01*
X0255615Y0267675D01*
X0255648Y0267819D01*
X0255686Y0267962D01*
X0255727Y0268104D01*
X0255772Y0268245D01*
X0255820Y0268385D01*
X0255873Y0268524D01*
X0255929Y0268661D01*
X0255989Y0268796D01*
X0256052Y0268930D01*
X0256119Y0269062D01*
X0256190Y0269192D01*
X0256264Y0269320D01*
X0256341Y0269446D01*
X0256422Y0269570D01*
X0256506Y0269692D01*
X0256593Y0269811D01*
X0256684Y0269928D01*
X0256778Y0270043D01*
X0256874Y0270155D01*
X0256974Y0270265D01*
X0257076Y0270371D01*
X0257182Y0270475D01*
X0257290Y0270576D01*
X0257401Y0270674D01*
X0257514Y0270770D01*
X0257630Y0270862D01*
X0257748Y0270951D01*
X0257869Y0271036D01*
X0257992Y0271119D01*
X0258117Y0271198D01*
X0258244Y0271274D01*
X0258373Y0271346D01*
X0258504Y0271415D01*
X0258637Y0271480D01*
X0258772Y0271541D01*
X0258908Y0271599D01*
X0259045Y0271654D01*
X0259184Y0271704D01*
X0259325Y0271751D01*
X0259466Y0271794D01*
X0259609Y0271834D01*
X0259753Y0271869D01*
X0259897Y0271901D01*
X0260043Y0271928D01*
X0260189Y0271952D01*
X0260336Y0271972D01*
X0260483Y0271988D01*
X0260630Y0272000D01*
X0260778Y0272008D01*
X0260926Y0272012D01*
X0261074Y0272012D01*
X0261222Y0272008D01*
X0261370Y0272000D01*
X0261517Y0271988D01*
X0261664Y0271972D01*
X0261811Y0271952D01*
X0261957Y0271928D01*
X0262103Y0271901D01*
X0262247Y0271869D01*
X0262391Y0271834D01*
X0262534Y0271794D01*
X0262675Y0271751D01*
X0262816Y0271704D01*
X0262955Y0271654D01*
X0263092Y0271599D01*
X0263228Y0271541D01*
X0263363Y0271480D01*
X0263496Y0271415D01*
X0263627Y0271346D01*
X0263756Y0271274D01*
X0263883Y0271198D01*
X0264008Y0271119D01*
X0264131Y0271036D01*
X0264252Y0270951D01*
X0264370Y0270862D01*
X0264486Y0270770D01*
X0264599Y0270674D01*
X0264710Y0270576D01*
X0264818Y0270475D01*
X0264924Y0270371D01*
X0265026Y0270265D01*
X0265126Y0270155D01*
X0265222Y0270043D01*
X0265316Y0269928D01*
X0265407Y0269811D01*
X0265494Y0269692D01*
X0265578Y0269570D01*
X0265659Y0269446D01*
X0265736Y0269320D01*
X0265810Y0269192D01*
X0265881Y0269062D01*
X0265948Y0268930D01*
X0266011Y0268796D01*
X0266071Y0268661D01*
X0266127Y0268524D01*
X0266180Y0268385D01*
X0266228Y0268245D01*
X0266273Y0268104D01*
X0266314Y0267962D01*
X0266352Y0267819D01*
X0266385Y0267675D01*
X0266415Y0267530D01*
X0266441Y0267384D01*
X0266462Y0267238D01*
X0266480Y0267091D01*
X0266494Y0266944D01*
X0266504Y0266796D01*
X0266510Y0266648D01*
X0266512Y0266500D01*
X0266510Y0266352D01*
X0266504Y0266204D01*
X0266494Y0266056D01*
X0266480Y0265909D01*
X0266462Y0265762D01*
X0266441Y0265616D01*
X0266415Y0265470D01*
X0266385Y0265325D01*
X0266352Y0265181D01*
X0266314Y0265038D01*
X0266273Y0264896D01*
X0266228Y0264755D01*
X0266180Y0264615D01*
X0266127Y0264476D01*
X0266071Y0264339D01*
X0266011Y0264204D01*
X0265948Y0264070D01*
X0265881Y0263938D01*
X0265810Y0263808D01*
X0265736Y0263680D01*
X0265659Y0263554D01*
X0265578Y0263430D01*
X0265494Y0263308D01*
X0265407Y0263189D01*
X0265316Y0263072D01*
X0265222Y0262957D01*
X0265126Y0262845D01*
X0265026Y0262735D01*
X0264924Y0262629D01*
X0264818Y0262525D01*
X0264710Y0262424D01*
X0264599Y0262326D01*
X0264486Y0262230D01*
X0264370Y0262138D01*
X0264252Y0262049D01*
X0264131Y0261964D01*
X0264008Y0261881D01*
X0263883Y0261802D01*
X0263756Y0261726D01*
X0263627Y0261654D01*
X0263496Y0261585D01*
X0263363Y0261520D01*
X0263228Y0261459D01*
X0263092Y0261401D01*
X0262955Y0261346D01*
X0262816Y0261296D01*
X0262675Y0261249D01*
X0262534Y0261206D01*
X0262391Y0261166D01*
X0262247Y0261131D01*
X0262103Y0261099D01*
X0261957Y0261072D01*
X0261811Y0261048D01*
X0261664Y0261028D01*
X0261517Y0261012D01*
X0261370Y0261000D01*
X0261222Y0260992D01*
X0261074Y0260988D01*
X0260926Y0260988D01*
X0260778Y0260992D01*
X0260630Y0261000D01*
X0260483Y0261012D01*
X0260336Y0261028D01*
X0260189Y0261048D01*
X0260043Y0261072D01*
X0259897Y0261099D01*
X0259753Y0261131D01*
X0259609Y0261166D01*
X0259466Y0261206D01*
X0259325Y0261249D01*
X0259184Y0261296D01*
X0259045Y0261346D01*
X0258908Y0261401D01*
X0258772Y0261459D01*
X0258637Y0261520D01*
X0258504Y0261585D01*
X0258373Y0261654D01*
X0258244Y0261726D01*
X0258117Y0261802D01*
X0257992Y0261881D01*
X0257869Y0261964D01*
X0257748Y0262049D01*
X0257630Y0262138D01*
X0257514Y0262230D01*
X0257401Y0262326D01*
X0257290Y0262424D01*
X0257182Y0262525D01*
X0257076Y0262629D01*
X0256974Y0262735D01*
X0256874Y0262845D01*
X0256778Y0262957D01*
X0256684Y0263072D01*
X0256593Y0263189D01*
X0256506Y0263308D01*
X0256422Y0263430D01*
X0256341Y0263554D01*
X0256264Y0263680D01*
X0256190Y0263808D01*
X0256119Y0263938D01*
X0256052Y0264070D01*
X0255989Y0264204D01*
X0255929Y0264339D01*
X0255873Y0264476D01*
X0255820Y0264615D01*
X0255772Y0264755D01*
X0255727Y0264896D01*
X0255686Y0265038D01*
X0255648Y0265181D01*
X0255615Y0265325D01*
X0255585Y0265470D01*
X0255559Y0265616D01*
X0255538Y0265762D01*
X0255520Y0265909D01*
X0255506Y0266056D01*
X0255496Y0266204D01*
X0255490Y0266352D01*
X0255488Y0266500D01*
X0005488Y0266500D02*
X0005490Y0266648D01*
X0005496Y0266796D01*
X0005506Y0266944D01*
X0005520Y0267091D01*
X0005538Y0267238D01*
X0005559Y0267384D01*
X0005585Y0267530D01*
X0005615Y0267675D01*
X0005648Y0267819D01*
X0005686Y0267962D01*
X0005727Y0268104D01*
X0005772Y0268245D01*
X0005820Y0268385D01*
X0005873Y0268524D01*
X0005929Y0268661D01*
X0005989Y0268796D01*
X0006052Y0268930D01*
X0006119Y0269062D01*
X0006190Y0269192D01*
X0006264Y0269320D01*
X0006341Y0269446D01*
X0006422Y0269570D01*
X0006506Y0269692D01*
X0006593Y0269811D01*
X0006684Y0269928D01*
X0006778Y0270043D01*
X0006874Y0270155D01*
X0006974Y0270265D01*
X0007076Y0270371D01*
X0007182Y0270475D01*
X0007290Y0270576D01*
X0007401Y0270674D01*
X0007514Y0270770D01*
X0007630Y0270862D01*
X0007748Y0270951D01*
X0007869Y0271036D01*
X0007992Y0271119D01*
X0008117Y0271198D01*
X0008244Y0271274D01*
X0008373Y0271346D01*
X0008504Y0271415D01*
X0008637Y0271480D01*
X0008772Y0271541D01*
X0008908Y0271599D01*
X0009045Y0271654D01*
X0009184Y0271704D01*
X0009325Y0271751D01*
X0009466Y0271794D01*
X0009609Y0271834D01*
X0009753Y0271869D01*
X0009897Y0271901D01*
X0010043Y0271928D01*
X0010189Y0271952D01*
X0010336Y0271972D01*
X0010483Y0271988D01*
X0010630Y0272000D01*
X0010778Y0272008D01*
X0010926Y0272012D01*
X0011074Y0272012D01*
X0011222Y0272008D01*
X0011370Y0272000D01*
X0011517Y0271988D01*
X0011664Y0271972D01*
X0011811Y0271952D01*
X0011957Y0271928D01*
X0012103Y0271901D01*
X0012247Y0271869D01*
X0012391Y0271834D01*
X0012534Y0271794D01*
X0012675Y0271751D01*
X0012816Y0271704D01*
X0012955Y0271654D01*
X0013092Y0271599D01*
X0013228Y0271541D01*
X0013363Y0271480D01*
X0013496Y0271415D01*
X0013627Y0271346D01*
X0013756Y0271274D01*
X0013883Y0271198D01*
X0014008Y0271119D01*
X0014131Y0271036D01*
X0014252Y0270951D01*
X0014370Y0270862D01*
X0014486Y0270770D01*
X0014599Y0270674D01*
X0014710Y0270576D01*
X0014818Y0270475D01*
X0014924Y0270371D01*
X0015026Y0270265D01*
X0015126Y0270155D01*
X0015222Y0270043D01*
X0015316Y0269928D01*
X0015407Y0269811D01*
X0015494Y0269692D01*
X0015578Y0269570D01*
X0015659Y0269446D01*
X0015736Y0269320D01*
X0015810Y0269192D01*
X0015881Y0269062D01*
X0015948Y0268930D01*
X0016011Y0268796D01*
X0016071Y0268661D01*
X0016127Y0268524D01*
X0016180Y0268385D01*
X0016228Y0268245D01*
X0016273Y0268104D01*
X0016314Y0267962D01*
X0016352Y0267819D01*
X0016385Y0267675D01*
X0016415Y0267530D01*
X0016441Y0267384D01*
X0016462Y0267238D01*
X0016480Y0267091D01*
X0016494Y0266944D01*
X0016504Y0266796D01*
X0016510Y0266648D01*
X0016512Y0266500D01*
X0016510Y0266352D01*
X0016504Y0266204D01*
X0016494Y0266056D01*
X0016480Y0265909D01*
X0016462Y0265762D01*
X0016441Y0265616D01*
X0016415Y0265470D01*
X0016385Y0265325D01*
X0016352Y0265181D01*
X0016314Y0265038D01*
X0016273Y0264896D01*
X0016228Y0264755D01*
X0016180Y0264615D01*
X0016127Y0264476D01*
X0016071Y0264339D01*
X0016011Y0264204D01*
X0015948Y0264070D01*
X0015881Y0263938D01*
X0015810Y0263808D01*
X0015736Y0263680D01*
X0015659Y0263554D01*
X0015578Y0263430D01*
X0015494Y0263308D01*
X0015407Y0263189D01*
X0015316Y0263072D01*
X0015222Y0262957D01*
X0015126Y0262845D01*
X0015026Y0262735D01*
X0014924Y0262629D01*
X0014818Y0262525D01*
X0014710Y0262424D01*
X0014599Y0262326D01*
X0014486Y0262230D01*
X0014370Y0262138D01*
X0014252Y0262049D01*
X0014131Y0261964D01*
X0014008Y0261881D01*
X0013883Y0261802D01*
X0013756Y0261726D01*
X0013627Y0261654D01*
X0013496Y0261585D01*
X0013363Y0261520D01*
X0013228Y0261459D01*
X0013092Y0261401D01*
X0012955Y0261346D01*
X0012816Y0261296D01*
X0012675Y0261249D01*
X0012534Y0261206D01*
X0012391Y0261166D01*
X0012247Y0261131D01*
X0012103Y0261099D01*
X0011957Y0261072D01*
X0011811Y0261048D01*
X0011664Y0261028D01*
X0011517Y0261012D01*
X0011370Y0261000D01*
X0011222Y0260992D01*
X0011074Y0260988D01*
X0010926Y0260988D01*
X0010778Y0260992D01*
X0010630Y0261000D01*
X0010483Y0261012D01*
X0010336Y0261028D01*
X0010189Y0261048D01*
X0010043Y0261072D01*
X0009897Y0261099D01*
X0009753Y0261131D01*
X0009609Y0261166D01*
X0009466Y0261206D01*
X0009325Y0261249D01*
X0009184Y0261296D01*
X0009045Y0261346D01*
X0008908Y0261401D01*
X0008772Y0261459D01*
X0008637Y0261520D01*
X0008504Y0261585D01*
X0008373Y0261654D01*
X0008244Y0261726D01*
X0008117Y0261802D01*
X0007992Y0261881D01*
X0007869Y0261964D01*
X0007748Y0262049D01*
X0007630Y0262138D01*
X0007514Y0262230D01*
X0007401Y0262326D01*
X0007290Y0262424D01*
X0007182Y0262525D01*
X0007076Y0262629D01*
X0006974Y0262735D01*
X0006874Y0262845D01*
X0006778Y0262957D01*
X0006684Y0263072D01*
X0006593Y0263189D01*
X0006506Y0263308D01*
X0006422Y0263430D01*
X0006341Y0263554D01*
X0006264Y0263680D01*
X0006190Y0263808D01*
X0006119Y0263938D01*
X0006052Y0264070D01*
X0005989Y0264204D01*
X0005929Y0264339D01*
X0005873Y0264476D01*
X0005820Y0264615D01*
X0005772Y0264755D01*
X0005727Y0264896D01*
X0005686Y0265038D01*
X0005648Y0265181D01*
X0005615Y0265325D01*
X0005585Y0265470D01*
X0005559Y0265616D01*
X0005538Y0265762D01*
X0005520Y0265909D01*
X0005506Y0266056D01*
X0005496Y0266204D01*
X0005490Y0266352D01*
X0005488Y0266500D01*
D11*
X0019477Y0057310D02*
X0027217Y0057310D01*
X0023347Y0057310D02*
X0023347Y0045700D01*
X0032368Y0047635D02*
X0032368Y0051505D01*
X0034303Y0053440D01*
X0038173Y0053440D01*
X0040108Y0051505D01*
X0040108Y0047635D01*
X0038173Y0045700D01*
X0034303Y0045700D01*
X0032368Y0047635D01*
X0044832Y0045700D02*
X0048702Y0045700D01*
X0046767Y0045700D02*
X0046767Y0057310D01*
X0048702Y0057310D02*
X0044832Y0057310D01*
X0053853Y0051505D02*
X0053853Y0045700D01*
X0053853Y0051505D02*
X0055788Y0053440D01*
X0061593Y0053440D01*
X0061593Y0045700D01*
X0066744Y0049570D02*
X0066744Y0051505D01*
X0068679Y0053440D01*
X0072549Y0053440D01*
X0074484Y0051505D01*
X0074484Y0047635D01*
X0072549Y0045700D01*
X0068679Y0045700D01*
X0066744Y0049570D02*
X0074484Y0049570D01*
X0079208Y0045700D02*
X0081143Y0047635D01*
X0081143Y0055375D01*
X0083078Y0053440D02*
X0079208Y0053440D01*
X0088229Y0051505D02*
X0088229Y0047635D01*
X0090164Y0045700D01*
X0094034Y0045700D01*
X0095969Y0047635D01*
X0095969Y0051505D01*
X0094034Y0053440D01*
X0090164Y0053440D01*
X0088229Y0051505D01*
X0101120Y0051505D02*
X0101120Y0045700D01*
X0101120Y0051505D02*
X0103055Y0053440D01*
X0108860Y0053440D01*
X0108860Y0045700D01*
X0113798Y0045700D02*
X0119602Y0049570D01*
X0113798Y0053440D01*
X0119602Y0057310D02*
X0119602Y0045700D01*
X0124540Y0053440D02*
X0126475Y0053440D01*
X0130345Y0049570D01*
X0130345Y0045700D02*
X0130345Y0053440D01*
X0135496Y0051505D02*
X0137431Y0053440D01*
X0141301Y0053440D01*
X0143236Y0051505D01*
X0143236Y0047635D01*
X0141301Y0045700D01*
X0137431Y0045700D01*
X0135496Y0047635D01*
X0135496Y0051505D01*
X0148387Y0053440D02*
X0154192Y0053440D01*
X0156127Y0051505D01*
X0154192Y0049570D01*
X0150322Y0049570D01*
X0148387Y0047635D01*
X0150322Y0045700D01*
X0156127Y0045700D01*
X0161278Y0045700D02*
X0161278Y0051505D01*
X0163213Y0053440D01*
X0169018Y0053440D01*
X0169018Y0045700D01*
X0174169Y0049570D02*
X0174169Y0051505D01*
X0176104Y0053440D01*
X0179974Y0053440D01*
X0181909Y0051505D01*
X0181909Y0047635D01*
X0179974Y0045700D01*
X0176104Y0045700D01*
X0174169Y0049570D02*
X0181909Y0049570D01*
X0187060Y0049570D02*
X0187060Y0047635D01*
X0188995Y0045700D01*
X0192865Y0045700D01*
X0194800Y0047635D01*
X0192865Y0051505D02*
X0188995Y0051505D01*
X0187060Y0049570D01*
X0187060Y0055375D02*
X0188995Y0057310D01*
X0192865Y0057310D01*
X0194800Y0055375D01*
X0194800Y0053440D01*
X0192865Y0051505D01*
D12*
X0130750Y0004468D02*
X0129732Y0003450D01*
X0128715Y0003450D01*
X0127697Y0004468D01*
X0127697Y0009555D01*
X0126680Y0009555D02*
X0128715Y0009555D01*
X0123655Y0007520D02*
X0121620Y0007520D01*
X0120603Y0006503D01*
X0120603Y0003450D01*
X0123655Y0003450D01*
X0124673Y0004468D01*
X0123655Y0005485D01*
X0120603Y0005485D01*
X0118596Y0003450D02*
X0118596Y0007520D01*
X0115543Y0007520D01*
X0114525Y0006503D01*
X0114525Y0003450D01*
X0112518Y0004468D02*
X0111501Y0003450D01*
X0109466Y0003450D01*
X0108448Y0004468D01*
X0108448Y0006503D01*
X0110483Y0006503D01*
X0108448Y0008538D02*
X0109466Y0009555D01*
X0111501Y0009555D01*
X0112518Y0008538D01*
X0112518Y0004468D01*
X0106441Y0004468D02*
X0106441Y0006503D01*
X0105424Y0007520D01*
X0103389Y0007520D01*
X0102371Y0006503D01*
X0102371Y0005485D01*
X0106441Y0005485D01*
X0106441Y0004468D02*
X0105424Y0003450D01*
X0103389Y0003450D01*
X0100364Y0003450D02*
X0100364Y0007520D01*
X0100364Y0005485D02*
X0098329Y0007520D01*
X0097311Y0007520D01*
X0095300Y0007520D02*
X0092247Y0007520D01*
X0091230Y0006503D01*
X0091230Y0004468D01*
X0092247Y0003450D01*
X0095300Y0003450D01*
X0095300Y0009555D01*
X0089223Y0006503D02*
X0089223Y0004468D01*
X0088205Y0003450D01*
X0086170Y0003450D01*
X0085152Y0005485D02*
X0089223Y0005485D01*
X0089223Y0006503D02*
X0088205Y0007520D01*
X0086170Y0007520D01*
X0085152Y0006503D01*
X0085152Y0005485D01*
X0083145Y0005485D02*
X0081110Y0007520D01*
X0080093Y0007520D01*
X0083145Y0007520D02*
X0083145Y0003450D01*
M02*
