G75*
%MOIN*%
%OFA0B0*%
%FSLAX25Y25*%
%IPPOS*%
%LPD*%
%AMOC8*
5,1,8,0,0,1.08239X$1,22.5*
%
%ADD10C,0.00000*%
%ADD11C,0.00300*%
%ADD12C,0.00400*%
%ADD13C,0.02600*%
%ADD14C,0.00700*%
%ADD15C,0.00600*%
%ADD16C,0.00500*%
%ADD17R,0.03400X0.02400*%
D10*
X0001800Y0001800D02*
X0001800Y0276761D01*
X0270501Y0276761D01*
X0270501Y0001800D01*
X0001800Y0001800D01*
X0006288Y0011800D02*
X0006290Y0011948D01*
X0006296Y0012096D01*
X0006306Y0012244D01*
X0006320Y0012391D01*
X0006338Y0012538D01*
X0006359Y0012684D01*
X0006385Y0012830D01*
X0006415Y0012975D01*
X0006448Y0013119D01*
X0006486Y0013262D01*
X0006527Y0013404D01*
X0006572Y0013545D01*
X0006620Y0013685D01*
X0006673Y0013824D01*
X0006729Y0013961D01*
X0006789Y0014096D01*
X0006852Y0014230D01*
X0006919Y0014362D01*
X0006990Y0014492D01*
X0007064Y0014620D01*
X0007141Y0014746D01*
X0007222Y0014870D01*
X0007306Y0014992D01*
X0007393Y0015111D01*
X0007484Y0015228D01*
X0007578Y0015343D01*
X0007674Y0015455D01*
X0007774Y0015565D01*
X0007876Y0015671D01*
X0007982Y0015775D01*
X0008090Y0015876D01*
X0008201Y0015974D01*
X0008314Y0016070D01*
X0008430Y0016162D01*
X0008548Y0016251D01*
X0008669Y0016336D01*
X0008792Y0016419D01*
X0008917Y0016498D01*
X0009044Y0016574D01*
X0009173Y0016646D01*
X0009304Y0016715D01*
X0009437Y0016780D01*
X0009572Y0016841D01*
X0009708Y0016899D01*
X0009845Y0016954D01*
X0009984Y0017004D01*
X0010125Y0017051D01*
X0010266Y0017094D01*
X0010409Y0017134D01*
X0010553Y0017169D01*
X0010697Y0017201D01*
X0010843Y0017228D01*
X0010989Y0017252D01*
X0011136Y0017272D01*
X0011283Y0017288D01*
X0011430Y0017300D01*
X0011578Y0017308D01*
X0011726Y0017312D01*
X0011874Y0017312D01*
X0012022Y0017308D01*
X0012170Y0017300D01*
X0012317Y0017288D01*
X0012464Y0017272D01*
X0012611Y0017252D01*
X0012757Y0017228D01*
X0012903Y0017201D01*
X0013047Y0017169D01*
X0013191Y0017134D01*
X0013334Y0017094D01*
X0013475Y0017051D01*
X0013616Y0017004D01*
X0013755Y0016954D01*
X0013892Y0016899D01*
X0014028Y0016841D01*
X0014163Y0016780D01*
X0014296Y0016715D01*
X0014427Y0016646D01*
X0014556Y0016574D01*
X0014683Y0016498D01*
X0014808Y0016419D01*
X0014931Y0016336D01*
X0015052Y0016251D01*
X0015170Y0016162D01*
X0015286Y0016070D01*
X0015399Y0015974D01*
X0015510Y0015876D01*
X0015618Y0015775D01*
X0015724Y0015671D01*
X0015826Y0015565D01*
X0015926Y0015455D01*
X0016022Y0015343D01*
X0016116Y0015228D01*
X0016207Y0015111D01*
X0016294Y0014992D01*
X0016378Y0014870D01*
X0016459Y0014746D01*
X0016536Y0014620D01*
X0016610Y0014492D01*
X0016681Y0014362D01*
X0016748Y0014230D01*
X0016811Y0014096D01*
X0016871Y0013961D01*
X0016927Y0013824D01*
X0016980Y0013685D01*
X0017028Y0013545D01*
X0017073Y0013404D01*
X0017114Y0013262D01*
X0017152Y0013119D01*
X0017185Y0012975D01*
X0017215Y0012830D01*
X0017241Y0012684D01*
X0017262Y0012538D01*
X0017280Y0012391D01*
X0017294Y0012244D01*
X0017304Y0012096D01*
X0017310Y0011948D01*
X0017312Y0011800D01*
X0017310Y0011652D01*
X0017304Y0011504D01*
X0017294Y0011356D01*
X0017280Y0011209D01*
X0017262Y0011062D01*
X0017241Y0010916D01*
X0017215Y0010770D01*
X0017185Y0010625D01*
X0017152Y0010481D01*
X0017114Y0010338D01*
X0017073Y0010196D01*
X0017028Y0010055D01*
X0016980Y0009915D01*
X0016927Y0009776D01*
X0016871Y0009639D01*
X0016811Y0009504D01*
X0016748Y0009370D01*
X0016681Y0009238D01*
X0016610Y0009108D01*
X0016536Y0008980D01*
X0016459Y0008854D01*
X0016378Y0008730D01*
X0016294Y0008608D01*
X0016207Y0008489D01*
X0016116Y0008372D01*
X0016022Y0008257D01*
X0015926Y0008145D01*
X0015826Y0008035D01*
X0015724Y0007929D01*
X0015618Y0007825D01*
X0015510Y0007724D01*
X0015399Y0007626D01*
X0015286Y0007530D01*
X0015170Y0007438D01*
X0015052Y0007349D01*
X0014931Y0007264D01*
X0014808Y0007181D01*
X0014683Y0007102D01*
X0014556Y0007026D01*
X0014427Y0006954D01*
X0014296Y0006885D01*
X0014163Y0006820D01*
X0014028Y0006759D01*
X0013892Y0006701D01*
X0013755Y0006646D01*
X0013616Y0006596D01*
X0013475Y0006549D01*
X0013334Y0006506D01*
X0013191Y0006466D01*
X0013047Y0006431D01*
X0012903Y0006399D01*
X0012757Y0006372D01*
X0012611Y0006348D01*
X0012464Y0006328D01*
X0012317Y0006312D01*
X0012170Y0006300D01*
X0012022Y0006292D01*
X0011874Y0006288D01*
X0011726Y0006288D01*
X0011578Y0006292D01*
X0011430Y0006300D01*
X0011283Y0006312D01*
X0011136Y0006328D01*
X0010989Y0006348D01*
X0010843Y0006372D01*
X0010697Y0006399D01*
X0010553Y0006431D01*
X0010409Y0006466D01*
X0010266Y0006506D01*
X0010125Y0006549D01*
X0009984Y0006596D01*
X0009845Y0006646D01*
X0009708Y0006701D01*
X0009572Y0006759D01*
X0009437Y0006820D01*
X0009304Y0006885D01*
X0009173Y0006954D01*
X0009044Y0007026D01*
X0008917Y0007102D01*
X0008792Y0007181D01*
X0008669Y0007264D01*
X0008548Y0007349D01*
X0008430Y0007438D01*
X0008314Y0007530D01*
X0008201Y0007626D01*
X0008090Y0007724D01*
X0007982Y0007825D01*
X0007876Y0007929D01*
X0007774Y0008035D01*
X0007674Y0008145D01*
X0007578Y0008257D01*
X0007484Y0008372D01*
X0007393Y0008489D01*
X0007306Y0008608D01*
X0007222Y0008730D01*
X0007141Y0008854D01*
X0007064Y0008980D01*
X0006990Y0009108D01*
X0006919Y0009238D01*
X0006852Y0009370D01*
X0006789Y0009504D01*
X0006729Y0009639D01*
X0006673Y0009776D01*
X0006620Y0009915D01*
X0006572Y0010055D01*
X0006527Y0010196D01*
X0006486Y0010338D01*
X0006448Y0010481D01*
X0006415Y0010625D01*
X0006385Y0010770D01*
X0006359Y0010916D01*
X0006338Y0011062D01*
X0006320Y0011209D01*
X0006306Y0011356D01*
X0006296Y0011504D01*
X0006290Y0011652D01*
X0006288Y0011800D01*
X0256288Y0011800D02*
X0256290Y0011948D01*
X0256296Y0012096D01*
X0256306Y0012244D01*
X0256320Y0012391D01*
X0256338Y0012538D01*
X0256359Y0012684D01*
X0256385Y0012830D01*
X0256415Y0012975D01*
X0256448Y0013119D01*
X0256486Y0013262D01*
X0256527Y0013404D01*
X0256572Y0013545D01*
X0256620Y0013685D01*
X0256673Y0013824D01*
X0256729Y0013961D01*
X0256789Y0014096D01*
X0256852Y0014230D01*
X0256919Y0014362D01*
X0256990Y0014492D01*
X0257064Y0014620D01*
X0257141Y0014746D01*
X0257222Y0014870D01*
X0257306Y0014992D01*
X0257393Y0015111D01*
X0257484Y0015228D01*
X0257578Y0015343D01*
X0257674Y0015455D01*
X0257774Y0015565D01*
X0257876Y0015671D01*
X0257982Y0015775D01*
X0258090Y0015876D01*
X0258201Y0015974D01*
X0258314Y0016070D01*
X0258430Y0016162D01*
X0258548Y0016251D01*
X0258669Y0016336D01*
X0258792Y0016419D01*
X0258917Y0016498D01*
X0259044Y0016574D01*
X0259173Y0016646D01*
X0259304Y0016715D01*
X0259437Y0016780D01*
X0259572Y0016841D01*
X0259708Y0016899D01*
X0259845Y0016954D01*
X0259984Y0017004D01*
X0260125Y0017051D01*
X0260266Y0017094D01*
X0260409Y0017134D01*
X0260553Y0017169D01*
X0260697Y0017201D01*
X0260843Y0017228D01*
X0260989Y0017252D01*
X0261136Y0017272D01*
X0261283Y0017288D01*
X0261430Y0017300D01*
X0261578Y0017308D01*
X0261726Y0017312D01*
X0261874Y0017312D01*
X0262022Y0017308D01*
X0262170Y0017300D01*
X0262317Y0017288D01*
X0262464Y0017272D01*
X0262611Y0017252D01*
X0262757Y0017228D01*
X0262903Y0017201D01*
X0263047Y0017169D01*
X0263191Y0017134D01*
X0263334Y0017094D01*
X0263475Y0017051D01*
X0263616Y0017004D01*
X0263755Y0016954D01*
X0263892Y0016899D01*
X0264028Y0016841D01*
X0264163Y0016780D01*
X0264296Y0016715D01*
X0264427Y0016646D01*
X0264556Y0016574D01*
X0264683Y0016498D01*
X0264808Y0016419D01*
X0264931Y0016336D01*
X0265052Y0016251D01*
X0265170Y0016162D01*
X0265286Y0016070D01*
X0265399Y0015974D01*
X0265510Y0015876D01*
X0265618Y0015775D01*
X0265724Y0015671D01*
X0265826Y0015565D01*
X0265926Y0015455D01*
X0266022Y0015343D01*
X0266116Y0015228D01*
X0266207Y0015111D01*
X0266294Y0014992D01*
X0266378Y0014870D01*
X0266459Y0014746D01*
X0266536Y0014620D01*
X0266610Y0014492D01*
X0266681Y0014362D01*
X0266748Y0014230D01*
X0266811Y0014096D01*
X0266871Y0013961D01*
X0266927Y0013824D01*
X0266980Y0013685D01*
X0267028Y0013545D01*
X0267073Y0013404D01*
X0267114Y0013262D01*
X0267152Y0013119D01*
X0267185Y0012975D01*
X0267215Y0012830D01*
X0267241Y0012684D01*
X0267262Y0012538D01*
X0267280Y0012391D01*
X0267294Y0012244D01*
X0267304Y0012096D01*
X0267310Y0011948D01*
X0267312Y0011800D01*
X0267310Y0011652D01*
X0267304Y0011504D01*
X0267294Y0011356D01*
X0267280Y0011209D01*
X0267262Y0011062D01*
X0267241Y0010916D01*
X0267215Y0010770D01*
X0267185Y0010625D01*
X0267152Y0010481D01*
X0267114Y0010338D01*
X0267073Y0010196D01*
X0267028Y0010055D01*
X0266980Y0009915D01*
X0266927Y0009776D01*
X0266871Y0009639D01*
X0266811Y0009504D01*
X0266748Y0009370D01*
X0266681Y0009238D01*
X0266610Y0009108D01*
X0266536Y0008980D01*
X0266459Y0008854D01*
X0266378Y0008730D01*
X0266294Y0008608D01*
X0266207Y0008489D01*
X0266116Y0008372D01*
X0266022Y0008257D01*
X0265926Y0008145D01*
X0265826Y0008035D01*
X0265724Y0007929D01*
X0265618Y0007825D01*
X0265510Y0007724D01*
X0265399Y0007626D01*
X0265286Y0007530D01*
X0265170Y0007438D01*
X0265052Y0007349D01*
X0264931Y0007264D01*
X0264808Y0007181D01*
X0264683Y0007102D01*
X0264556Y0007026D01*
X0264427Y0006954D01*
X0264296Y0006885D01*
X0264163Y0006820D01*
X0264028Y0006759D01*
X0263892Y0006701D01*
X0263755Y0006646D01*
X0263616Y0006596D01*
X0263475Y0006549D01*
X0263334Y0006506D01*
X0263191Y0006466D01*
X0263047Y0006431D01*
X0262903Y0006399D01*
X0262757Y0006372D01*
X0262611Y0006348D01*
X0262464Y0006328D01*
X0262317Y0006312D01*
X0262170Y0006300D01*
X0262022Y0006292D01*
X0261874Y0006288D01*
X0261726Y0006288D01*
X0261578Y0006292D01*
X0261430Y0006300D01*
X0261283Y0006312D01*
X0261136Y0006328D01*
X0260989Y0006348D01*
X0260843Y0006372D01*
X0260697Y0006399D01*
X0260553Y0006431D01*
X0260409Y0006466D01*
X0260266Y0006506D01*
X0260125Y0006549D01*
X0259984Y0006596D01*
X0259845Y0006646D01*
X0259708Y0006701D01*
X0259572Y0006759D01*
X0259437Y0006820D01*
X0259304Y0006885D01*
X0259173Y0006954D01*
X0259044Y0007026D01*
X0258917Y0007102D01*
X0258792Y0007181D01*
X0258669Y0007264D01*
X0258548Y0007349D01*
X0258430Y0007438D01*
X0258314Y0007530D01*
X0258201Y0007626D01*
X0258090Y0007724D01*
X0257982Y0007825D01*
X0257876Y0007929D01*
X0257774Y0008035D01*
X0257674Y0008145D01*
X0257578Y0008257D01*
X0257484Y0008372D01*
X0257393Y0008489D01*
X0257306Y0008608D01*
X0257222Y0008730D01*
X0257141Y0008854D01*
X0257064Y0008980D01*
X0256990Y0009108D01*
X0256919Y0009238D01*
X0256852Y0009370D01*
X0256789Y0009504D01*
X0256729Y0009639D01*
X0256673Y0009776D01*
X0256620Y0009915D01*
X0256572Y0010055D01*
X0256527Y0010196D01*
X0256486Y0010338D01*
X0256448Y0010481D01*
X0256415Y0010625D01*
X0256385Y0010770D01*
X0256359Y0010916D01*
X0256338Y0011062D01*
X0256320Y0011209D01*
X0256306Y0011356D01*
X0256296Y0011504D01*
X0256290Y0011652D01*
X0256288Y0011800D01*
X0258257Y0011288D02*
X0258259Y0011406D01*
X0258265Y0011525D01*
X0258275Y0011643D01*
X0258289Y0011760D01*
X0258306Y0011877D01*
X0258328Y0011994D01*
X0258354Y0012109D01*
X0258383Y0012224D01*
X0258416Y0012338D01*
X0258453Y0012450D01*
X0258494Y0012561D01*
X0258538Y0012671D01*
X0258586Y0012779D01*
X0258638Y0012886D01*
X0258693Y0012991D01*
X0258752Y0013094D01*
X0258814Y0013194D01*
X0258879Y0013293D01*
X0258948Y0013390D01*
X0259019Y0013484D01*
X0259094Y0013575D01*
X0259172Y0013665D01*
X0259253Y0013751D01*
X0259337Y0013835D01*
X0259423Y0013916D01*
X0259513Y0013994D01*
X0259604Y0014069D01*
X0259698Y0014140D01*
X0259795Y0014209D01*
X0259894Y0014274D01*
X0259994Y0014336D01*
X0260097Y0014395D01*
X0260202Y0014450D01*
X0260309Y0014502D01*
X0260417Y0014550D01*
X0260527Y0014594D01*
X0260638Y0014635D01*
X0260750Y0014672D01*
X0260864Y0014705D01*
X0260979Y0014734D01*
X0261094Y0014760D01*
X0261211Y0014782D01*
X0261328Y0014799D01*
X0261445Y0014813D01*
X0261563Y0014823D01*
X0261682Y0014829D01*
X0261800Y0014831D01*
X0261918Y0014829D01*
X0262037Y0014823D01*
X0262155Y0014813D01*
X0262272Y0014799D01*
X0262389Y0014782D01*
X0262506Y0014760D01*
X0262621Y0014734D01*
X0262736Y0014705D01*
X0262850Y0014672D01*
X0262962Y0014635D01*
X0263073Y0014594D01*
X0263183Y0014550D01*
X0263291Y0014502D01*
X0263398Y0014450D01*
X0263503Y0014395D01*
X0263606Y0014336D01*
X0263706Y0014274D01*
X0263805Y0014209D01*
X0263902Y0014140D01*
X0263996Y0014069D01*
X0264087Y0013994D01*
X0264177Y0013916D01*
X0264263Y0013835D01*
X0264347Y0013751D01*
X0264428Y0013665D01*
X0264506Y0013575D01*
X0264581Y0013484D01*
X0264652Y0013390D01*
X0264721Y0013293D01*
X0264786Y0013194D01*
X0264848Y0013094D01*
X0264907Y0012991D01*
X0264962Y0012886D01*
X0265014Y0012779D01*
X0265062Y0012671D01*
X0265106Y0012561D01*
X0265147Y0012450D01*
X0265184Y0012338D01*
X0265217Y0012224D01*
X0265246Y0012109D01*
X0265272Y0011994D01*
X0265294Y0011877D01*
X0265311Y0011760D01*
X0265325Y0011643D01*
X0265335Y0011525D01*
X0265341Y0011406D01*
X0265343Y0011288D01*
X0265341Y0011170D01*
X0265335Y0011051D01*
X0265325Y0010933D01*
X0265311Y0010816D01*
X0265294Y0010699D01*
X0265272Y0010582D01*
X0265246Y0010467D01*
X0265217Y0010352D01*
X0265184Y0010238D01*
X0265147Y0010126D01*
X0265106Y0010015D01*
X0265062Y0009905D01*
X0265014Y0009797D01*
X0264962Y0009690D01*
X0264907Y0009585D01*
X0264848Y0009482D01*
X0264786Y0009382D01*
X0264721Y0009283D01*
X0264652Y0009186D01*
X0264581Y0009092D01*
X0264506Y0009001D01*
X0264428Y0008911D01*
X0264347Y0008825D01*
X0264263Y0008741D01*
X0264177Y0008660D01*
X0264087Y0008582D01*
X0263996Y0008507D01*
X0263902Y0008436D01*
X0263805Y0008367D01*
X0263706Y0008302D01*
X0263606Y0008240D01*
X0263503Y0008181D01*
X0263398Y0008126D01*
X0263291Y0008074D01*
X0263183Y0008026D01*
X0263073Y0007982D01*
X0262962Y0007941D01*
X0262850Y0007904D01*
X0262736Y0007871D01*
X0262621Y0007842D01*
X0262506Y0007816D01*
X0262389Y0007794D01*
X0262272Y0007777D01*
X0262155Y0007763D01*
X0262037Y0007753D01*
X0261918Y0007747D01*
X0261800Y0007745D01*
X0261682Y0007747D01*
X0261563Y0007753D01*
X0261445Y0007763D01*
X0261328Y0007777D01*
X0261211Y0007794D01*
X0261094Y0007816D01*
X0260979Y0007842D01*
X0260864Y0007871D01*
X0260750Y0007904D01*
X0260638Y0007941D01*
X0260527Y0007982D01*
X0260417Y0008026D01*
X0260309Y0008074D01*
X0260202Y0008126D01*
X0260097Y0008181D01*
X0259994Y0008240D01*
X0259894Y0008302D01*
X0259795Y0008367D01*
X0259698Y0008436D01*
X0259604Y0008507D01*
X0259513Y0008582D01*
X0259423Y0008660D01*
X0259337Y0008741D01*
X0259253Y0008825D01*
X0259172Y0008911D01*
X0259094Y0009001D01*
X0259019Y0009092D01*
X0258948Y0009186D01*
X0258879Y0009283D01*
X0258814Y0009382D01*
X0258752Y0009482D01*
X0258693Y0009585D01*
X0258638Y0009690D01*
X0258586Y0009797D01*
X0258538Y0009905D01*
X0258494Y0010015D01*
X0258453Y0010126D01*
X0258416Y0010238D01*
X0258383Y0010352D01*
X0258354Y0010467D01*
X0258328Y0010582D01*
X0258306Y0010699D01*
X0258289Y0010816D01*
X0258275Y0010933D01*
X0258265Y0011051D01*
X0258259Y0011170D01*
X0258257Y0011288D01*
X0258257Y0122312D02*
X0258259Y0122430D01*
X0258265Y0122549D01*
X0258275Y0122667D01*
X0258289Y0122784D01*
X0258306Y0122901D01*
X0258328Y0123018D01*
X0258354Y0123133D01*
X0258383Y0123248D01*
X0258416Y0123362D01*
X0258453Y0123474D01*
X0258494Y0123585D01*
X0258538Y0123695D01*
X0258586Y0123803D01*
X0258638Y0123910D01*
X0258693Y0124015D01*
X0258752Y0124118D01*
X0258814Y0124218D01*
X0258879Y0124317D01*
X0258948Y0124414D01*
X0259019Y0124508D01*
X0259094Y0124599D01*
X0259172Y0124689D01*
X0259253Y0124775D01*
X0259337Y0124859D01*
X0259423Y0124940D01*
X0259513Y0125018D01*
X0259604Y0125093D01*
X0259698Y0125164D01*
X0259795Y0125233D01*
X0259894Y0125298D01*
X0259994Y0125360D01*
X0260097Y0125419D01*
X0260202Y0125474D01*
X0260309Y0125526D01*
X0260417Y0125574D01*
X0260527Y0125618D01*
X0260638Y0125659D01*
X0260750Y0125696D01*
X0260864Y0125729D01*
X0260979Y0125758D01*
X0261094Y0125784D01*
X0261211Y0125806D01*
X0261328Y0125823D01*
X0261445Y0125837D01*
X0261563Y0125847D01*
X0261682Y0125853D01*
X0261800Y0125855D01*
X0261918Y0125853D01*
X0262037Y0125847D01*
X0262155Y0125837D01*
X0262272Y0125823D01*
X0262389Y0125806D01*
X0262506Y0125784D01*
X0262621Y0125758D01*
X0262736Y0125729D01*
X0262850Y0125696D01*
X0262962Y0125659D01*
X0263073Y0125618D01*
X0263183Y0125574D01*
X0263291Y0125526D01*
X0263398Y0125474D01*
X0263503Y0125419D01*
X0263606Y0125360D01*
X0263706Y0125298D01*
X0263805Y0125233D01*
X0263902Y0125164D01*
X0263996Y0125093D01*
X0264087Y0125018D01*
X0264177Y0124940D01*
X0264263Y0124859D01*
X0264347Y0124775D01*
X0264428Y0124689D01*
X0264506Y0124599D01*
X0264581Y0124508D01*
X0264652Y0124414D01*
X0264721Y0124317D01*
X0264786Y0124218D01*
X0264848Y0124118D01*
X0264907Y0124015D01*
X0264962Y0123910D01*
X0265014Y0123803D01*
X0265062Y0123695D01*
X0265106Y0123585D01*
X0265147Y0123474D01*
X0265184Y0123362D01*
X0265217Y0123248D01*
X0265246Y0123133D01*
X0265272Y0123018D01*
X0265294Y0122901D01*
X0265311Y0122784D01*
X0265325Y0122667D01*
X0265335Y0122549D01*
X0265341Y0122430D01*
X0265343Y0122312D01*
X0265341Y0122194D01*
X0265335Y0122075D01*
X0265325Y0121957D01*
X0265311Y0121840D01*
X0265294Y0121723D01*
X0265272Y0121606D01*
X0265246Y0121491D01*
X0265217Y0121376D01*
X0265184Y0121262D01*
X0265147Y0121150D01*
X0265106Y0121039D01*
X0265062Y0120929D01*
X0265014Y0120821D01*
X0264962Y0120714D01*
X0264907Y0120609D01*
X0264848Y0120506D01*
X0264786Y0120406D01*
X0264721Y0120307D01*
X0264652Y0120210D01*
X0264581Y0120116D01*
X0264506Y0120025D01*
X0264428Y0119935D01*
X0264347Y0119849D01*
X0264263Y0119765D01*
X0264177Y0119684D01*
X0264087Y0119606D01*
X0263996Y0119531D01*
X0263902Y0119460D01*
X0263805Y0119391D01*
X0263706Y0119326D01*
X0263606Y0119264D01*
X0263503Y0119205D01*
X0263398Y0119150D01*
X0263291Y0119098D01*
X0263183Y0119050D01*
X0263073Y0119006D01*
X0262962Y0118965D01*
X0262850Y0118928D01*
X0262736Y0118895D01*
X0262621Y0118866D01*
X0262506Y0118840D01*
X0262389Y0118818D01*
X0262272Y0118801D01*
X0262155Y0118787D01*
X0262037Y0118777D01*
X0261918Y0118771D01*
X0261800Y0118769D01*
X0261682Y0118771D01*
X0261563Y0118777D01*
X0261445Y0118787D01*
X0261328Y0118801D01*
X0261211Y0118818D01*
X0261094Y0118840D01*
X0260979Y0118866D01*
X0260864Y0118895D01*
X0260750Y0118928D01*
X0260638Y0118965D01*
X0260527Y0119006D01*
X0260417Y0119050D01*
X0260309Y0119098D01*
X0260202Y0119150D01*
X0260097Y0119205D01*
X0259994Y0119264D01*
X0259894Y0119326D01*
X0259795Y0119391D01*
X0259698Y0119460D01*
X0259604Y0119531D01*
X0259513Y0119606D01*
X0259423Y0119684D01*
X0259337Y0119765D01*
X0259253Y0119849D01*
X0259172Y0119935D01*
X0259094Y0120025D01*
X0259019Y0120116D01*
X0258948Y0120210D01*
X0258879Y0120307D01*
X0258814Y0120406D01*
X0258752Y0120506D01*
X0258693Y0120609D01*
X0258638Y0120714D01*
X0258586Y0120821D01*
X0258538Y0120929D01*
X0258494Y0121039D01*
X0258453Y0121150D01*
X0258416Y0121262D01*
X0258383Y0121376D01*
X0258354Y0121491D01*
X0258328Y0121606D01*
X0258306Y0121723D01*
X0258289Y0121840D01*
X0258275Y0121957D01*
X0258265Y0122075D01*
X0258259Y0122194D01*
X0258257Y0122312D01*
X0256288Y0266800D02*
X0256290Y0266948D01*
X0256296Y0267096D01*
X0256306Y0267244D01*
X0256320Y0267391D01*
X0256338Y0267538D01*
X0256359Y0267684D01*
X0256385Y0267830D01*
X0256415Y0267975D01*
X0256448Y0268119D01*
X0256486Y0268262D01*
X0256527Y0268404D01*
X0256572Y0268545D01*
X0256620Y0268685D01*
X0256673Y0268824D01*
X0256729Y0268961D01*
X0256789Y0269096D01*
X0256852Y0269230D01*
X0256919Y0269362D01*
X0256990Y0269492D01*
X0257064Y0269620D01*
X0257141Y0269746D01*
X0257222Y0269870D01*
X0257306Y0269992D01*
X0257393Y0270111D01*
X0257484Y0270228D01*
X0257578Y0270343D01*
X0257674Y0270455D01*
X0257774Y0270565D01*
X0257876Y0270671D01*
X0257982Y0270775D01*
X0258090Y0270876D01*
X0258201Y0270974D01*
X0258314Y0271070D01*
X0258430Y0271162D01*
X0258548Y0271251D01*
X0258669Y0271336D01*
X0258792Y0271419D01*
X0258917Y0271498D01*
X0259044Y0271574D01*
X0259173Y0271646D01*
X0259304Y0271715D01*
X0259437Y0271780D01*
X0259572Y0271841D01*
X0259708Y0271899D01*
X0259845Y0271954D01*
X0259984Y0272004D01*
X0260125Y0272051D01*
X0260266Y0272094D01*
X0260409Y0272134D01*
X0260553Y0272169D01*
X0260697Y0272201D01*
X0260843Y0272228D01*
X0260989Y0272252D01*
X0261136Y0272272D01*
X0261283Y0272288D01*
X0261430Y0272300D01*
X0261578Y0272308D01*
X0261726Y0272312D01*
X0261874Y0272312D01*
X0262022Y0272308D01*
X0262170Y0272300D01*
X0262317Y0272288D01*
X0262464Y0272272D01*
X0262611Y0272252D01*
X0262757Y0272228D01*
X0262903Y0272201D01*
X0263047Y0272169D01*
X0263191Y0272134D01*
X0263334Y0272094D01*
X0263475Y0272051D01*
X0263616Y0272004D01*
X0263755Y0271954D01*
X0263892Y0271899D01*
X0264028Y0271841D01*
X0264163Y0271780D01*
X0264296Y0271715D01*
X0264427Y0271646D01*
X0264556Y0271574D01*
X0264683Y0271498D01*
X0264808Y0271419D01*
X0264931Y0271336D01*
X0265052Y0271251D01*
X0265170Y0271162D01*
X0265286Y0271070D01*
X0265399Y0270974D01*
X0265510Y0270876D01*
X0265618Y0270775D01*
X0265724Y0270671D01*
X0265826Y0270565D01*
X0265926Y0270455D01*
X0266022Y0270343D01*
X0266116Y0270228D01*
X0266207Y0270111D01*
X0266294Y0269992D01*
X0266378Y0269870D01*
X0266459Y0269746D01*
X0266536Y0269620D01*
X0266610Y0269492D01*
X0266681Y0269362D01*
X0266748Y0269230D01*
X0266811Y0269096D01*
X0266871Y0268961D01*
X0266927Y0268824D01*
X0266980Y0268685D01*
X0267028Y0268545D01*
X0267073Y0268404D01*
X0267114Y0268262D01*
X0267152Y0268119D01*
X0267185Y0267975D01*
X0267215Y0267830D01*
X0267241Y0267684D01*
X0267262Y0267538D01*
X0267280Y0267391D01*
X0267294Y0267244D01*
X0267304Y0267096D01*
X0267310Y0266948D01*
X0267312Y0266800D01*
X0267310Y0266652D01*
X0267304Y0266504D01*
X0267294Y0266356D01*
X0267280Y0266209D01*
X0267262Y0266062D01*
X0267241Y0265916D01*
X0267215Y0265770D01*
X0267185Y0265625D01*
X0267152Y0265481D01*
X0267114Y0265338D01*
X0267073Y0265196D01*
X0267028Y0265055D01*
X0266980Y0264915D01*
X0266927Y0264776D01*
X0266871Y0264639D01*
X0266811Y0264504D01*
X0266748Y0264370D01*
X0266681Y0264238D01*
X0266610Y0264108D01*
X0266536Y0263980D01*
X0266459Y0263854D01*
X0266378Y0263730D01*
X0266294Y0263608D01*
X0266207Y0263489D01*
X0266116Y0263372D01*
X0266022Y0263257D01*
X0265926Y0263145D01*
X0265826Y0263035D01*
X0265724Y0262929D01*
X0265618Y0262825D01*
X0265510Y0262724D01*
X0265399Y0262626D01*
X0265286Y0262530D01*
X0265170Y0262438D01*
X0265052Y0262349D01*
X0264931Y0262264D01*
X0264808Y0262181D01*
X0264683Y0262102D01*
X0264556Y0262026D01*
X0264427Y0261954D01*
X0264296Y0261885D01*
X0264163Y0261820D01*
X0264028Y0261759D01*
X0263892Y0261701D01*
X0263755Y0261646D01*
X0263616Y0261596D01*
X0263475Y0261549D01*
X0263334Y0261506D01*
X0263191Y0261466D01*
X0263047Y0261431D01*
X0262903Y0261399D01*
X0262757Y0261372D01*
X0262611Y0261348D01*
X0262464Y0261328D01*
X0262317Y0261312D01*
X0262170Y0261300D01*
X0262022Y0261292D01*
X0261874Y0261288D01*
X0261726Y0261288D01*
X0261578Y0261292D01*
X0261430Y0261300D01*
X0261283Y0261312D01*
X0261136Y0261328D01*
X0260989Y0261348D01*
X0260843Y0261372D01*
X0260697Y0261399D01*
X0260553Y0261431D01*
X0260409Y0261466D01*
X0260266Y0261506D01*
X0260125Y0261549D01*
X0259984Y0261596D01*
X0259845Y0261646D01*
X0259708Y0261701D01*
X0259572Y0261759D01*
X0259437Y0261820D01*
X0259304Y0261885D01*
X0259173Y0261954D01*
X0259044Y0262026D01*
X0258917Y0262102D01*
X0258792Y0262181D01*
X0258669Y0262264D01*
X0258548Y0262349D01*
X0258430Y0262438D01*
X0258314Y0262530D01*
X0258201Y0262626D01*
X0258090Y0262724D01*
X0257982Y0262825D01*
X0257876Y0262929D01*
X0257774Y0263035D01*
X0257674Y0263145D01*
X0257578Y0263257D01*
X0257484Y0263372D01*
X0257393Y0263489D01*
X0257306Y0263608D01*
X0257222Y0263730D01*
X0257141Y0263854D01*
X0257064Y0263980D01*
X0256990Y0264108D01*
X0256919Y0264238D01*
X0256852Y0264370D01*
X0256789Y0264504D01*
X0256729Y0264639D01*
X0256673Y0264776D01*
X0256620Y0264915D01*
X0256572Y0265055D01*
X0256527Y0265196D01*
X0256486Y0265338D01*
X0256448Y0265481D01*
X0256415Y0265625D01*
X0256385Y0265770D01*
X0256359Y0265916D01*
X0256338Y0266062D01*
X0256320Y0266209D01*
X0256306Y0266356D01*
X0256296Y0266504D01*
X0256290Y0266652D01*
X0256288Y0266800D01*
X0006288Y0266800D02*
X0006290Y0266948D01*
X0006296Y0267096D01*
X0006306Y0267244D01*
X0006320Y0267391D01*
X0006338Y0267538D01*
X0006359Y0267684D01*
X0006385Y0267830D01*
X0006415Y0267975D01*
X0006448Y0268119D01*
X0006486Y0268262D01*
X0006527Y0268404D01*
X0006572Y0268545D01*
X0006620Y0268685D01*
X0006673Y0268824D01*
X0006729Y0268961D01*
X0006789Y0269096D01*
X0006852Y0269230D01*
X0006919Y0269362D01*
X0006990Y0269492D01*
X0007064Y0269620D01*
X0007141Y0269746D01*
X0007222Y0269870D01*
X0007306Y0269992D01*
X0007393Y0270111D01*
X0007484Y0270228D01*
X0007578Y0270343D01*
X0007674Y0270455D01*
X0007774Y0270565D01*
X0007876Y0270671D01*
X0007982Y0270775D01*
X0008090Y0270876D01*
X0008201Y0270974D01*
X0008314Y0271070D01*
X0008430Y0271162D01*
X0008548Y0271251D01*
X0008669Y0271336D01*
X0008792Y0271419D01*
X0008917Y0271498D01*
X0009044Y0271574D01*
X0009173Y0271646D01*
X0009304Y0271715D01*
X0009437Y0271780D01*
X0009572Y0271841D01*
X0009708Y0271899D01*
X0009845Y0271954D01*
X0009984Y0272004D01*
X0010125Y0272051D01*
X0010266Y0272094D01*
X0010409Y0272134D01*
X0010553Y0272169D01*
X0010697Y0272201D01*
X0010843Y0272228D01*
X0010989Y0272252D01*
X0011136Y0272272D01*
X0011283Y0272288D01*
X0011430Y0272300D01*
X0011578Y0272308D01*
X0011726Y0272312D01*
X0011874Y0272312D01*
X0012022Y0272308D01*
X0012170Y0272300D01*
X0012317Y0272288D01*
X0012464Y0272272D01*
X0012611Y0272252D01*
X0012757Y0272228D01*
X0012903Y0272201D01*
X0013047Y0272169D01*
X0013191Y0272134D01*
X0013334Y0272094D01*
X0013475Y0272051D01*
X0013616Y0272004D01*
X0013755Y0271954D01*
X0013892Y0271899D01*
X0014028Y0271841D01*
X0014163Y0271780D01*
X0014296Y0271715D01*
X0014427Y0271646D01*
X0014556Y0271574D01*
X0014683Y0271498D01*
X0014808Y0271419D01*
X0014931Y0271336D01*
X0015052Y0271251D01*
X0015170Y0271162D01*
X0015286Y0271070D01*
X0015399Y0270974D01*
X0015510Y0270876D01*
X0015618Y0270775D01*
X0015724Y0270671D01*
X0015826Y0270565D01*
X0015926Y0270455D01*
X0016022Y0270343D01*
X0016116Y0270228D01*
X0016207Y0270111D01*
X0016294Y0269992D01*
X0016378Y0269870D01*
X0016459Y0269746D01*
X0016536Y0269620D01*
X0016610Y0269492D01*
X0016681Y0269362D01*
X0016748Y0269230D01*
X0016811Y0269096D01*
X0016871Y0268961D01*
X0016927Y0268824D01*
X0016980Y0268685D01*
X0017028Y0268545D01*
X0017073Y0268404D01*
X0017114Y0268262D01*
X0017152Y0268119D01*
X0017185Y0267975D01*
X0017215Y0267830D01*
X0017241Y0267684D01*
X0017262Y0267538D01*
X0017280Y0267391D01*
X0017294Y0267244D01*
X0017304Y0267096D01*
X0017310Y0266948D01*
X0017312Y0266800D01*
X0017310Y0266652D01*
X0017304Y0266504D01*
X0017294Y0266356D01*
X0017280Y0266209D01*
X0017262Y0266062D01*
X0017241Y0265916D01*
X0017215Y0265770D01*
X0017185Y0265625D01*
X0017152Y0265481D01*
X0017114Y0265338D01*
X0017073Y0265196D01*
X0017028Y0265055D01*
X0016980Y0264915D01*
X0016927Y0264776D01*
X0016871Y0264639D01*
X0016811Y0264504D01*
X0016748Y0264370D01*
X0016681Y0264238D01*
X0016610Y0264108D01*
X0016536Y0263980D01*
X0016459Y0263854D01*
X0016378Y0263730D01*
X0016294Y0263608D01*
X0016207Y0263489D01*
X0016116Y0263372D01*
X0016022Y0263257D01*
X0015926Y0263145D01*
X0015826Y0263035D01*
X0015724Y0262929D01*
X0015618Y0262825D01*
X0015510Y0262724D01*
X0015399Y0262626D01*
X0015286Y0262530D01*
X0015170Y0262438D01*
X0015052Y0262349D01*
X0014931Y0262264D01*
X0014808Y0262181D01*
X0014683Y0262102D01*
X0014556Y0262026D01*
X0014427Y0261954D01*
X0014296Y0261885D01*
X0014163Y0261820D01*
X0014028Y0261759D01*
X0013892Y0261701D01*
X0013755Y0261646D01*
X0013616Y0261596D01*
X0013475Y0261549D01*
X0013334Y0261506D01*
X0013191Y0261466D01*
X0013047Y0261431D01*
X0012903Y0261399D01*
X0012757Y0261372D01*
X0012611Y0261348D01*
X0012464Y0261328D01*
X0012317Y0261312D01*
X0012170Y0261300D01*
X0012022Y0261292D01*
X0011874Y0261288D01*
X0011726Y0261288D01*
X0011578Y0261292D01*
X0011430Y0261300D01*
X0011283Y0261312D01*
X0011136Y0261328D01*
X0010989Y0261348D01*
X0010843Y0261372D01*
X0010697Y0261399D01*
X0010553Y0261431D01*
X0010409Y0261466D01*
X0010266Y0261506D01*
X0010125Y0261549D01*
X0009984Y0261596D01*
X0009845Y0261646D01*
X0009708Y0261701D01*
X0009572Y0261759D01*
X0009437Y0261820D01*
X0009304Y0261885D01*
X0009173Y0261954D01*
X0009044Y0262026D01*
X0008917Y0262102D01*
X0008792Y0262181D01*
X0008669Y0262264D01*
X0008548Y0262349D01*
X0008430Y0262438D01*
X0008314Y0262530D01*
X0008201Y0262626D01*
X0008090Y0262724D01*
X0007982Y0262825D01*
X0007876Y0262929D01*
X0007774Y0263035D01*
X0007674Y0263145D01*
X0007578Y0263257D01*
X0007484Y0263372D01*
X0007393Y0263489D01*
X0007306Y0263608D01*
X0007222Y0263730D01*
X0007141Y0263854D01*
X0007064Y0263980D01*
X0006990Y0264108D01*
X0006919Y0264238D01*
X0006852Y0264370D01*
X0006789Y0264504D01*
X0006729Y0264639D01*
X0006673Y0264776D01*
X0006620Y0264915D01*
X0006572Y0265055D01*
X0006527Y0265196D01*
X0006486Y0265338D01*
X0006448Y0265481D01*
X0006415Y0265625D01*
X0006385Y0265770D01*
X0006359Y0265916D01*
X0006338Y0266062D01*
X0006320Y0266209D01*
X0006306Y0266356D01*
X0006296Y0266504D01*
X0006290Y0266652D01*
X0006288Y0266800D01*
D11*
X0029947Y0245118D02*
X0030564Y0245736D01*
X0033033Y0245736D01*
X0033650Y0245118D01*
X0033650Y0243267D01*
X0029947Y0243267D01*
X0029947Y0245118D01*
X0029947Y0242052D02*
X0033650Y0242052D01*
X0029947Y0239584D01*
X0033650Y0239584D01*
X0033033Y0238369D02*
X0031798Y0238369D01*
X0031798Y0237135D01*
X0030564Y0238369D02*
X0029947Y0237752D01*
X0029947Y0236518D01*
X0030564Y0235901D01*
X0033033Y0235901D01*
X0033650Y0236518D01*
X0033650Y0237752D01*
X0033033Y0238369D01*
X0039947Y0238369D02*
X0043033Y0238369D01*
X0043650Y0237752D01*
X0043650Y0236518D01*
X0043033Y0235901D01*
X0039947Y0235901D01*
X0039947Y0234686D02*
X0043650Y0234686D01*
X0039947Y0232217D01*
X0043650Y0232217D01*
X0049947Y0232217D02*
X0049947Y0234069D01*
X0050564Y0234686D01*
X0053033Y0234686D01*
X0053650Y0234069D01*
X0053650Y0232217D01*
X0049947Y0232217D01*
X0051181Y0235901D02*
X0049947Y0237135D01*
X0051181Y0238369D01*
X0053650Y0238369D01*
X0051798Y0238369D02*
X0051798Y0235901D01*
X0051181Y0235901D02*
X0053650Y0235901D01*
X0049947Y0239584D02*
X0049947Y0242052D01*
X0049947Y0240818D02*
X0053650Y0240818D01*
X0053650Y0243267D02*
X0051181Y0243267D01*
X0049947Y0244501D01*
X0051181Y0245736D01*
X0053650Y0245736D01*
X0051798Y0245736D02*
X0051798Y0243267D01*
X0043650Y0243267D02*
X0043650Y0245736D01*
X0043650Y0243267D02*
X0039947Y0243267D01*
X0039947Y0239584D02*
X0043650Y0239584D01*
X0043650Y0242052D01*
X0064947Y0241435D02*
X0065564Y0242052D01*
X0066181Y0242052D01*
X0066798Y0241435D01*
X0067416Y0242052D01*
X0068033Y0242052D01*
X0068650Y0241435D01*
X0068650Y0240201D01*
X0068033Y0239584D01*
X0068033Y0238359D02*
X0068650Y0238359D01*
X0068650Y0237742D01*
X0068033Y0237742D01*
X0068033Y0238359D01*
X0068033Y0236528D02*
X0068650Y0235911D01*
X0068650Y0234676D01*
X0068033Y0234059D01*
X0066798Y0235293D02*
X0066798Y0235911D01*
X0067416Y0236528D01*
X0068033Y0236528D01*
X0066798Y0235911D02*
X0066181Y0236528D01*
X0065564Y0236528D01*
X0064947Y0235911D01*
X0064947Y0234676D01*
X0065564Y0234059D01*
X0065564Y0239584D02*
X0064947Y0240201D01*
X0064947Y0241435D01*
X0064947Y0243267D02*
X0067416Y0243267D01*
X0068650Y0244501D01*
X0067416Y0245736D01*
X0064947Y0245736D01*
X0066798Y0241435D02*
X0066798Y0240818D01*
X0084947Y0240811D02*
X0084947Y0242046D01*
X0084947Y0241429D02*
X0088650Y0241429D01*
X0088650Y0242046D02*
X0088650Y0240811D01*
X0087416Y0239597D02*
X0084947Y0239597D01*
X0087416Y0239597D02*
X0088650Y0238363D01*
X0087416Y0237128D01*
X0084947Y0237128D01*
X0084947Y0243267D02*
X0088650Y0245736D01*
X0084947Y0245736D01*
X0084947Y0243267D02*
X0088650Y0243267D01*
X0094947Y0243267D02*
X0094947Y0245118D01*
X0095564Y0245736D01*
X0098033Y0245736D01*
X0098650Y0245118D01*
X0098650Y0243267D01*
X0094947Y0243267D01*
X0094947Y0242052D02*
X0098650Y0242052D01*
X0094947Y0239584D01*
X0098650Y0239584D01*
X0098033Y0238369D02*
X0096798Y0238369D01*
X0096798Y0237135D01*
X0095564Y0238369D02*
X0094947Y0237752D01*
X0094947Y0236518D01*
X0095564Y0235901D01*
X0098033Y0235901D01*
X0098650Y0236518D01*
X0098650Y0237752D01*
X0098033Y0238369D01*
X0119947Y0240201D02*
X0120564Y0239584D01*
X0119947Y0240201D01*
X0119947Y0241435D01*
X0120564Y0242052D01*
X0121181Y0242052D01*
X0121798Y0241435D01*
X0122416Y0242052D01*
X0123033Y0242052D01*
X0123650Y0241435D01*
X0123650Y0240201D01*
X0123033Y0239584D01*
X0123650Y0240201D01*
X0123650Y0241435D01*
X0123033Y0242052D01*
X0122416Y0242052D01*
X0121798Y0241435D01*
X0121798Y0240818D01*
X0121798Y0241435D01*
X0121181Y0242052D01*
X0120564Y0242052D01*
X0119947Y0241435D01*
X0119947Y0240201D01*
X0119947Y0241435D01*
X0120564Y0242052D01*
X0121181Y0242052D01*
X0121798Y0241435D01*
X0122416Y0242052D01*
X0123033Y0242052D01*
X0123650Y0241435D01*
X0123650Y0240201D01*
X0123033Y0239584D01*
X0123033Y0238359D02*
X0123650Y0238359D01*
X0123650Y0237742D01*
X0123033Y0237742D01*
X0123033Y0238359D01*
X0123650Y0238359D01*
X0123650Y0237742D01*
X0123033Y0237742D01*
X0123033Y0238359D01*
X0123650Y0238359D01*
X0123650Y0237742D01*
X0123033Y0237742D01*
X0123033Y0238359D01*
X0123033Y0236528D02*
X0123650Y0235911D01*
X0123650Y0234676D01*
X0123033Y0234059D01*
X0123650Y0234676D01*
X0123650Y0235911D01*
X0123033Y0236528D01*
X0122416Y0236528D01*
X0121798Y0235911D01*
X0121798Y0235293D01*
X0121798Y0235911D01*
X0121181Y0236528D01*
X0120564Y0236528D01*
X0119947Y0235911D01*
X0119947Y0234676D01*
X0120564Y0234059D01*
X0119947Y0234676D01*
X0119947Y0235911D01*
X0120564Y0236528D01*
X0121181Y0236528D01*
X0121798Y0235911D01*
X0122416Y0236528D01*
X0123033Y0236528D01*
X0123650Y0235911D01*
X0123650Y0234676D01*
X0123033Y0234059D01*
X0121798Y0235293D02*
X0121798Y0235911D01*
X0122416Y0236528D01*
X0123033Y0236528D01*
X0121798Y0235911D02*
X0121181Y0236528D01*
X0120564Y0236528D01*
X0119947Y0235911D01*
X0119947Y0234676D01*
X0120564Y0234059D01*
X0120564Y0239584D02*
X0119947Y0240201D01*
X0121798Y0240818D02*
X0121798Y0241435D01*
X0122416Y0243267D02*
X0119947Y0243267D01*
X0122416Y0243267D01*
X0123650Y0244501D01*
X0122416Y0245736D01*
X0119947Y0245736D01*
X0122416Y0245736D01*
X0123650Y0244501D01*
X0122416Y0243267D01*
X0123650Y0244501D01*
X0122416Y0245736D01*
X0119947Y0245736D01*
X0119947Y0243267D02*
X0122416Y0243267D01*
X0129947Y0242052D02*
X0129947Y0239584D01*
X0129947Y0240818D02*
X0133650Y0240818D01*
X0133650Y0238369D02*
X0131181Y0238369D01*
X0129947Y0237135D01*
X0131181Y0235901D01*
X0133650Y0235901D01*
X0133033Y0234686D02*
X0130564Y0234686D01*
X0129947Y0234069D01*
X0129947Y0232217D01*
X0133650Y0232217D01*
X0133650Y0234069D01*
X0133033Y0234686D01*
X0131798Y0235901D02*
X0131798Y0238369D01*
X0131798Y0243267D02*
X0131798Y0245736D01*
X0131181Y0245736D02*
X0133650Y0245736D01*
X0131181Y0245736D02*
X0129947Y0244501D01*
X0131181Y0243267D01*
X0133650Y0243267D01*
X0140901Y0238036D02*
X0140901Y0237419D01*
X0141518Y0236802D01*
X0142752Y0236802D01*
X0143369Y0236184D01*
X0143369Y0235567D01*
X0142752Y0234950D01*
X0141518Y0234950D01*
X0140901Y0235567D01*
X0140901Y0238036D02*
X0141518Y0238653D01*
X0142752Y0238653D01*
X0143369Y0238036D01*
X0144584Y0238036D02*
X0144584Y0235567D01*
X0145201Y0234950D01*
X0146435Y0234950D01*
X0147052Y0235567D01*
X0148267Y0234950D02*
X0148267Y0238653D01*
X0147052Y0238036D02*
X0146435Y0238653D01*
X0145201Y0238653D01*
X0144584Y0238036D01*
X0148267Y0236184D02*
X0150736Y0238653D01*
X0148884Y0236802D02*
X0150736Y0234950D01*
X0150118Y0228653D02*
X0148884Y0228653D01*
X0148267Y0228036D01*
X0148267Y0225567D01*
X0148884Y0224950D01*
X0150118Y0224950D01*
X0150736Y0225567D01*
X0150736Y0228036D01*
X0150118Y0228653D01*
X0147052Y0228036D02*
X0146435Y0228653D01*
X0145201Y0228653D01*
X0144584Y0228036D01*
X0144584Y0227419D01*
X0145201Y0226802D01*
X0146435Y0226802D01*
X0147052Y0226184D01*
X0147052Y0225567D01*
X0146435Y0224950D01*
X0145201Y0224950D01*
X0144584Y0225567D01*
X0143363Y0224950D02*
X0142128Y0224950D01*
X0142745Y0224950D02*
X0142745Y0228653D01*
X0142128Y0228653D02*
X0143363Y0228653D01*
X0140914Y0228653D02*
X0140914Y0224950D01*
X0138445Y0224950D02*
X0138445Y0228653D01*
X0139680Y0227419D01*
X0140914Y0228653D01*
X0145201Y0244950D02*
X0146435Y0244950D01*
X0147052Y0245567D01*
X0148267Y0244950D02*
X0150736Y0244950D01*
X0149501Y0246802D02*
X0148267Y0246802D01*
X0147052Y0248036D02*
X0146435Y0248653D01*
X0145201Y0248653D01*
X0144584Y0248036D01*
X0144584Y0245567D01*
X0145201Y0244950D01*
X0148267Y0244950D02*
X0148267Y0248653D01*
X0150736Y0248653D01*
X0150118Y0254950D02*
X0148267Y0254950D01*
X0148267Y0258653D01*
X0150118Y0258653D01*
X0150736Y0258036D01*
X0150736Y0255567D01*
X0150118Y0254950D01*
X0147052Y0254950D02*
X0147052Y0258653D01*
X0144584Y0258653D02*
X0144584Y0254950D01*
X0143369Y0255567D02*
X0143369Y0256802D01*
X0142135Y0256802D01*
X0143369Y0258036D02*
X0142752Y0258653D01*
X0141518Y0258653D01*
X0140901Y0258036D01*
X0140901Y0255567D01*
X0141518Y0254950D01*
X0142752Y0254950D01*
X0143369Y0255567D01*
X0144584Y0258653D02*
X0147052Y0254950D01*
X0181950Y0255567D02*
X0182567Y0254950D01*
X0183802Y0254950D01*
X0184419Y0255567D01*
X0184419Y0256184D01*
X0183802Y0256802D01*
X0183184Y0256802D01*
X0183802Y0256802D02*
X0184419Y0257419D01*
X0184419Y0258036D01*
X0183802Y0258653D01*
X0182567Y0258653D01*
X0181950Y0258036D01*
X0185633Y0255567D02*
X0186250Y0255567D01*
X0186250Y0254950D01*
X0185633Y0254950D01*
X0185633Y0255567D01*
X0187475Y0255567D02*
X0188092Y0254950D01*
X0189326Y0254950D01*
X0189943Y0255567D01*
X0189943Y0256184D01*
X0189326Y0256802D01*
X0188709Y0256802D01*
X0189326Y0256802D02*
X0189943Y0257419D01*
X0189943Y0258036D01*
X0189326Y0258653D01*
X0188092Y0258653D01*
X0187475Y0258036D01*
X0191158Y0258653D02*
X0191158Y0256184D01*
X0192392Y0254950D01*
X0193627Y0256184D01*
X0193627Y0258653D01*
X0191785Y0248653D02*
X0191785Y0244950D01*
X0189316Y0248653D01*
X0189316Y0244950D01*
X0188102Y0245567D02*
X0187485Y0244950D01*
X0186250Y0244950D01*
X0185633Y0245567D01*
X0184419Y0245567D02*
X0183802Y0244950D01*
X0182567Y0244950D01*
X0181950Y0245567D01*
X0181950Y0248036D01*
X0182567Y0248653D01*
X0183802Y0248653D01*
X0184419Y0248036D01*
X0185633Y0248036D02*
X0185633Y0247419D01*
X0186250Y0246802D01*
X0187485Y0246802D01*
X0188102Y0246184D01*
X0188102Y0245567D01*
X0188102Y0248036D02*
X0187485Y0248653D01*
X0186250Y0248653D01*
X0185633Y0248036D01*
X0186250Y0238653D02*
X0185633Y0238036D01*
X0185633Y0235567D01*
X0186250Y0234950D01*
X0187485Y0234950D01*
X0188102Y0235567D01*
X0188102Y0238036D01*
X0187485Y0238653D01*
X0186250Y0238653D01*
X0184419Y0238653D02*
X0184419Y0234950D01*
X0181950Y0234950D02*
X0181950Y0238653D01*
X0183184Y0237419D01*
X0184419Y0238653D01*
X0189316Y0238036D02*
X0189316Y0237419D01*
X0189933Y0236802D01*
X0191168Y0236802D01*
X0191785Y0236184D01*
X0191785Y0235567D01*
X0191168Y0234950D01*
X0189933Y0234950D01*
X0189316Y0235567D01*
X0189316Y0238036D02*
X0189933Y0238653D01*
X0191168Y0238653D01*
X0191785Y0238036D01*
X0192999Y0238653D02*
X0194234Y0238653D01*
X0193617Y0238653D02*
X0193617Y0234950D01*
X0194234Y0234950D02*
X0192999Y0234950D01*
X0193033Y0160736D02*
X0190564Y0160736D01*
X0189947Y0160118D01*
X0189947Y0158267D01*
X0193650Y0158267D01*
X0193650Y0160118D01*
X0193033Y0160736D01*
X0193650Y0157052D02*
X0189947Y0157052D01*
X0189947Y0154584D02*
X0193650Y0157052D01*
X0193650Y0154584D02*
X0189947Y0154584D01*
X0190564Y0153369D02*
X0189947Y0152752D01*
X0189947Y0151518D01*
X0190564Y0150901D01*
X0193033Y0150901D01*
X0193650Y0151518D01*
X0193650Y0152752D01*
X0193033Y0153369D01*
X0191798Y0153369D01*
X0191798Y0152135D01*
X0183650Y0155201D02*
X0183650Y0156435D01*
X0183033Y0157052D01*
X0181798Y0157052D01*
X0181181Y0156435D01*
X0181181Y0155818D01*
X0181798Y0154584D01*
X0179947Y0154584D01*
X0179947Y0157052D01*
X0179947Y0158267D02*
X0182416Y0158267D01*
X0183650Y0159501D01*
X0182416Y0160736D01*
X0179947Y0160736D01*
X0183650Y0155201D02*
X0183033Y0154584D01*
X0182416Y0118627D02*
X0179947Y0118627D01*
X0182416Y0118627D02*
X0183650Y0117392D01*
X0182416Y0116158D01*
X0179947Y0116158D01*
X0180564Y0114943D02*
X0179947Y0114326D01*
X0179947Y0113092D01*
X0180564Y0112475D01*
X0181798Y0113709D02*
X0181798Y0114326D01*
X0182416Y0114943D01*
X0183033Y0114943D01*
X0183650Y0114326D01*
X0183650Y0113092D01*
X0183033Y0112475D01*
X0183033Y0111250D02*
X0183650Y0111250D01*
X0183650Y0110633D01*
X0183033Y0110633D01*
X0183033Y0111250D01*
X0183033Y0109419D02*
X0183650Y0108802D01*
X0183650Y0107567D01*
X0183033Y0106950D01*
X0181798Y0108184D02*
X0181798Y0108802D01*
X0182416Y0109419D01*
X0183033Y0109419D01*
X0181798Y0108802D02*
X0181181Y0109419D01*
X0180564Y0109419D01*
X0179947Y0108802D01*
X0179947Y0107567D01*
X0180564Y0106950D01*
X0181798Y0114326D02*
X0181181Y0114943D01*
X0180564Y0114943D01*
X0189947Y0114316D02*
X0189947Y0116168D01*
X0190564Y0116785D01*
X0193033Y0116785D01*
X0193650Y0116168D01*
X0193650Y0114316D01*
X0189947Y0114316D01*
X0189947Y0113102D02*
X0193650Y0113102D01*
X0189947Y0110633D01*
X0193650Y0110633D01*
X0193033Y0109419D02*
X0191798Y0109419D01*
X0191798Y0108184D01*
X0190564Y0106950D02*
X0193033Y0106950D01*
X0193650Y0107567D01*
X0193650Y0108802D01*
X0193033Y0109419D01*
X0190564Y0109419D02*
X0189947Y0108802D01*
X0189947Y0107567D01*
X0190564Y0106950D01*
X0201518Y0078653D02*
X0200901Y0078036D01*
X0200901Y0075567D01*
X0201518Y0074950D01*
X0202752Y0074950D01*
X0203369Y0075567D01*
X0203369Y0076802D01*
X0202135Y0076802D01*
X0203369Y0078036D02*
X0202752Y0078653D01*
X0201518Y0078653D01*
X0204584Y0078653D02*
X0207052Y0074950D01*
X0207052Y0078653D01*
X0208267Y0078653D02*
X0210118Y0078653D01*
X0210736Y0078036D01*
X0210736Y0075567D01*
X0210118Y0074950D01*
X0208267Y0074950D01*
X0208267Y0078653D01*
X0204584Y0078653D02*
X0204584Y0074950D01*
X0204584Y0068653D02*
X0207052Y0068653D01*
X0205818Y0068653D02*
X0205818Y0064950D01*
X0203369Y0064950D02*
X0203369Y0067419D01*
X0202135Y0068653D01*
X0200901Y0067419D01*
X0200901Y0064950D01*
X0199686Y0065567D02*
X0199686Y0068036D01*
X0199069Y0068653D01*
X0197217Y0068653D01*
X0197217Y0064950D01*
X0199069Y0064950D01*
X0199686Y0065567D01*
X0200901Y0066802D02*
X0203369Y0066802D01*
X0208267Y0066802D02*
X0210736Y0066802D01*
X0210736Y0067419D02*
X0210736Y0064950D01*
X0210736Y0067419D02*
X0209501Y0068653D01*
X0208267Y0067419D01*
X0208267Y0064950D01*
X0208267Y0058653D02*
X0208267Y0056184D01*
X0209501Y0054950D01*
X0210736Y0056184D01*
X0210736Y0058653D01*
X0203369Y0058653D02*
X0200901Y0058653D01*
X0200901Y0056802D01*
X0202135Y0057419D01*
X0202752Y0057419D01*
X0203369Y0056802D01*
X0203369Y0055567D01*
X0202752Y0054950D01*
X0201518Y0054950D01*
X0200901Y0055567D01*
X0193650Y0040468D02*
X0191181Y0040468D01*
X0189947Y0039234D01*
X0191181Y0037999D01*
X0193650Y0037999D01*
X0191798Y0037999D02*
X0191798Y0040468D01*
X0189947Y0036785D02*
X0189947Y0034316D01*
X0189947Y0035551D02*
X0193650Y0035551D01*
X0193650Y0033102D02*
X0191181Y0033102D01*
X0189947Y0031868D01*
X0191181Y0030633D01*
X0193650Y0030633D01*
X0193033Y0029419D02*
X0190564Y0029419D01*
X0189947Y0028802D01*
X0189947Y0026950D01*
X0193650Y0026950D01*
X0193650Y0028802D01*
X0193033Y0029419D01*
X0191798Y0030633D02*
X0191798Y0033102D01*
X0199947Y0033092D02*
X0199947Y0034326D01*
X0200564Y0034943D01*
X0201181Y0034943D01*
X0201798Y0034326D01*
X0202416Y0034943D01*
X0203033Y0034943D01*
X0203650Y0034326D01*
X0203650Y0033092D01*
X0203033Y0032475D01*
X0203033Y0031250D02*
X0203650Y0031250D01*
X0203650Y0030633D01*
X0203033Y0030633D01*
X0203033Y0031250D01*
X0203033Y0029419D02*
X0203650Y0028802D01*
X0203650Y0027567D01*
X0203033Y0026950D01*
X0201798Y0028184D02*
X0201798Y0028802D01*
X0202416Y0029419D01*
X0203033Y0029419D01*
X0201798Y0028802D02*
X0201181Y0029419D01*
X0200564Y0029419D01*
X0199947Y0028802D01*
X0199947Y0027567D01*
X0200564Y0026950D01*
X0200564Y0032475D02*
X0199947Y0033092D01*
X0201798Y0033709D02*
X0201798Y0034326D01*
X0202416Y0036158D02*
X0199947Y0036158D01*
X0202416Y0036158D02*
X0203650Y0037392D01*
X0202416Y0038627D01*
X0199947Y0038627D01*
X0143650Y0036168D02*
X0143033Y0036785D01*
X0140564Y0036785D01*
X0139947Y0036168D01*
X0139947Y0034316D01*
X0143650Y0034316D01*
X0143650Y0036168D01*
X0143033Y0033102D02*
X0140564Y0033102D01*
X0139947Y0032485D01*
X0139947Y0030633D01*
X0143650Y0030633D01*
X0143650Y0032485D01*
X0143033Y0033102D01*
X0143650Y0029419D02*
X0141181Y0029419D01*
X0139947Y0028184D01*
X0141181Y0026950D01*
X0143650Y0026950D01*
X0141798Y0026950D02*
X0141798Y0029419D01*
X0133650Y0028802D02*
X0133650Y0027567D01*
X0133033Y0026950D01*
X0131798Y0027567D02*
X0131798Y0028802D01*
X0132416Y0029419D01*
X0133033Y0029419D01*
X0133650Y0028802D01*
X0133650Y0030633D02*
X0133650Y0032485D01*
X0133033Y0033102D01*
X0130564Y0033102D01*
X0129947Y0032485D01*
X0129947Y0030633D01*
X0133650Y0030633D01*
X0130564Y0029419D02*
X0129947Y0028802D01*
X0129947Y0027567D01*
X0130564Y0026950D01*
X0131181Y0026950D01*
X0131798Y0027567D01*
X0131798Y0034316D02*
X0131798Y0036785D01*
X0131181Y0036785D02*
X0133650Y0036785D01*
X0133650Y0034316D02*
X0131181Y0034316D01*
X0129947Y0035551D01*
X0131181Y0036785D01*
X0123650Y0036785D02*
X0123650Y0034316D01*
X0119947Y0034316D01*
X0120564Y0033102D02*
X0119947Y0032485D01*
X0119947Y0031250D01*
X0120564Y0030633D01*
X0123033Y0030633D01*
X0123650Y0031250D01*
X0123650Y0032485D01*
X0123033Y0033102D01*
X0123033Y0029419D02*
X0123650Y0028802D01*
X0123650Y0027567D01*
X0123033Y0026950D01*
X0121798Y0027567D02*
X0121798Y0028802D01*
X0122416Y0029419D01*
X0123033Y0029419D01*
X0121798Y0027567D02*
X0121181Y0026950D01*
X0120564Y0026950D01*
X0119947Y0027567D01*
X0119947Y0028802D01*
X0120564Y0029419D01*
X0113650Y0028802D02*
X0113650Y0027567D01*
X0113033Y0026950D01*
X0110564Y0026950D01*
X0109947Y0027567D01*
X0109947Y0028802D01*
X0110564Y0029419D01*
X0111798Y0029419D02*
X0111798Y0028184D01*
X0111798Y0029419D02*
X0113033Y0029419D01*
X0113650Y0028802D01*
X0113650Y0030633D02*
X0109947Y0030633D01*
X0113650Y0033102D01*
X0109947Y0033102D01*
X0109947Y0034316D02*
X0109947Y0036168D01*
X0110564Y0036785D01*
X0113033Y0036785D01*
X0113650Y0036168D01*
X0113650Y0034316D01*
X0109947Y0034316D01*
X0103650Y0034326D02*
X0103650Y0033092D01*
X0103033Y0032475D01*
X0103650Y0033092D01*
X0103650Y0034326D01*
X0103033Y0034943D01*
X0102416Y0034943D01*
X0101798Y0034326D01*
X0101798Y0033709D01*
X0101798Y0034326D01*
X0101181Y0034943D01*
X0100564Y0034943D01*
X0099947Y0034326D01*
X0099947Y0033092D01*
X0100564Y0032475D01*
X0099947Y0033092D01*
X0099947Y0034326D01*
X0100564Y0034943D01*
X0101181Y0034943D01*
X0101798Y0034326D01*
X0102416Y0034943D01*
X0103033Y0034943D01*
X0103650Y0034326D01*
X0102416Y0036158D02*
X0103650Y0037392D01*
X0102416Y0038627D01*
X0099947Y0038627D01*
X0102416Y0038627D01*
X0103650Y0037392D01*
X0102416Y0036158D01*
X0099947Y0036158D01*
X0102416Y0036158D01*
X0103033Y0031250D02*
X0103650Y0031250D01*
X0103650Y0030633D01*
X0103033Y0030633D01*
X0103033Y0031250D01*
X0103650Y0031250D01*
X0103650Y0030633D01*
X0103033Y0030633D01*
X0103033Y0031250D01*
X0103033Y0029419D02*
X0102416Y0029419D01*
X0101798Y0028802D01*
X0101798Y0028184D01*
X0101798Y0028802D01*
X0101181Y0029419D01*
X0100564Y0029419D01*
X0099947Y0028802D01*
X0099947Y0027567D01*
X0100564Y0026950D01*
X0099947Y0027567D01*
X0099947Y0028802D01*
X0100564Y0029419D01*
X0101181Y0029419D01*
X0101798Y0028802D01*
X0102416Y0029419D01*
X0103033Y0029419D01*
X0103650Y0028802D01*
X0103650Y0027567D01*
X0103033Y0026950D01*
X0103650Y0027567D01*
X0103650Y0028802D01*
X0103033Y0029419D01*
X0068650Y0029419D02*
X0066181Y0029419D01*
X0064947Y0028184D01*
X0066181Y0026950D01*
X0068650Y0026950D01*
X0066798Y0026950D02*
X0066798Y0029419D01*
X0064947Y0030633D02*
X0064947Y0032485D01*
X0065564Y0033102D01*
X0068033Y0033102D01*
X0068650Y0032485D01*
X0068650Y0030633D01*
X0064947Y0030633D01*
X0064947Y0034316D02*
X0064947Y0036168D01*
X0065564Y0036785D01*
X0068033Y0036785D01*
X0068650Y0036168D01*
X0068650Y0034316D01*
X0064947Y0034316D01*
X0058650Y0034316D02*
X0056181Y0034316D01*
X0054947Y0035551D01*
X0056181Y0036785D01*
X0058650Y0036785D01*
X0056798Y0036785D02*
X0056798Y0034316D01*
X0055564Y0033102D02*
X0054947Y0032485D01*
X0054947Y0030633D01*
X0058650Y0030633D01*
X0058650Y0032485D01*
X0058033Y0033102D01*
X0055564Y0033102D01*
X0055564Y0029419D02*
X0054947Y0028802D01*
X0054947Y0027567D01*
X0055564Y0026950D01*
X0056181Y0026950D01*
X0056798Y0027567D01*
X0056798Y0028802D01*
X0057416Y0029419D01*
X0058033Y0029419D01*
X0058650Y0028802D01*
X0058650Y0027567D01*
X0058033Y0026950D01*
X0048650Y0027567D02*
X0048033Y0026950D01*
X0048650Y0027567D02*
X0048650Y0028802D01*
X0048033Y0029419D01*
X0047416Y0029419D01*
X0046798Y0028802D01*
X0046798Y0027567D01*
X0046181Y0026950D01*
X0045564Y0026950D01*
X0044947Y0027567D01*
X0044947Y0028802D01*
X0045564Y0029419D01*
X0045564Y0030633D02*
X0048033Y0030633D01*
X0048650Y0031250D01*
X0048650Y0032485D01*
X0048033Y0033102D01*
X0048650Y0034316D02*
X0044947Y0034316D01*
X0045564Y0033102D02*
X0044947Y0032485D01*
X0044947Y0031250D01*
X0045564Y0030633D01*
X0048650Y0034316D02*
X0048650Y0036785D01*
X0038650Y0036168D02*
X0038033Y0036785D01*
X0035564Y0036785D01*
X0034947Y0036168D01*
X0034947Y0034316D01*
X0038650Y0034316D01*
X0038650Y0036168D01*
X0038650Y0033102D02*
X0034947Y0033102D01*
X0034947Y0030633D02*
X0038650Y0033102D01*
X0038650Y0030633D02*
X0034947Y0030633D01*
X0035564Y0029419D02*
X0034947Y0028802D01*
X0034947Y0027567D01*
X0035564Y0026950D01*
X0038033Y0026950D01*
X0038650Y0027567D01*
X0038650Y0028802D01*
X0038033Y0029419D01*
X0036798Y0029419D01*
X0036798Y0028184D01*
X0028650Y0027567D02*
X0028033Y0026950D01*
X0028650Y0027567D02*
X0028650Y0028802D01*
X0028033Y0029419D01*
X0027416Y0029419D01*
X0026798Y0028802D01*
X0026798Y0028184D01*
X0026798Y0028802D02*
X0026181Y0029419D01*
X0025564Y0029419D01*
X0024947Y0028802D01*
X0024947Y0027567D01*
X0025564Y0026950D01*
X0028033Y0030633D02*
X0028033Y0031250D01*
X0028650Y0031250D01*
X0028650Y0030633D01*
X0028033Y0030633D01*
X0028033Y0032475D02*
X0028650Y0033092D01*
X0028650Y0034326D01*
X0028033Y0034943D01*
X0027416Y0034943D01*
X0026798Y0034326D01*
X0026798Y0033709D01*
X0026798Y0034326D02*
X0026181Y0034943D01*
X0025564Y0034943D01*
X0024947Y0034326D01*
X0024947Y0033092D01*
X0025564Y0032475D01*
X0024947Y0036158D02*
X0027416Y0036158D01*
X0028650Y0037392D01*
X0027416Y0038627D01*
X0024947Y0038627D01*
X0026950Y0064950D02*
X0026950Y0067419D01*
X0028184Y0068653D01*
X0029419Y0067419D01*
X0029419Y0064950D01*
X0030633Y0065567D02*
X0031250Y0064950D01*
X0032485Y0064950D01*
X0033102Y0065567D01*
X0033102Y0068036D01*
X0032485Y0068653D01*
X0031250Y0068653D01*
X0030633Y0068036D01*
X0030633Y0065567D01*
X0029419Y0066802D02*
X0026950Y0066802D01*
X0026950Y0074950D02*
X0028802Y0074950D01*
X0029419Y0075567D01*
X0029419Y0078036D01*
X0028802Y0078653D01*
X0026950Y0078653D01*
X0026950Y0074950D01*
X0030633Y0075567D02*
X0031250Y0074950D01*
X0032485Y0074950D01*
X0033102Y0075567D01*
X0033102Y0078036D01*
X0032485Y0078653D01*
X0031250Y0078653D01*
X0030633Y0078036D01*
X0030633Y0075567D01*
X0030633Y0084950D02*
X0030633Y0088653D01*
X0033102Y0084950D01*
X0033102Y0088653D01*
X0034316Y0088653D02*
X0034316Y0084950D01*
X0036168Y0084950D01*
X0036785Y0085567D01*
X0036785Y0088036D01*
X0036168Y0088653D01*
X0034316Y0088653D01*
X0029419Y0088036D02*
X0028802Y0088653D01*
X0027567Y0088653D01*
X0026950Y0088036D01*
X0026950Y0085567D01*
X0027567Y0084950D01*
X0028802Y0084950D01*
X0029419Y0085567D01*
X0029419Y0086802D01*
X0028184Y0086802D01*
X0027567Y0094950D02*
X0026950Y0095567D01*
X0027567Y0094950D01*
X0028802Y0094950D01*
X0029419Y0095567D01*
X0029419Y0096184D01*
X0028802Y0096802D01*
X0028184Y0096802D01*
X0028802Y0096802D01*
X0029419Y0097419D01*
X0029419Y0098036D01*
X0028802Y0098653D01*
X0027567Y0098653D01*
X0026950Y0098036D01*
X0027567Y0098653D01*
X0028802Y0098653D01*
X0029419Y0098036D01*
X0029419Y0097419D01*
X0028802Y0096802D01*
X0029419Y0096184D01*
X0029419Y0095567D01*
X0028802Y0094950D01*
X0027567Y0094950D01*
X0030633Y0094950D02*
X0031250Y0094950D01*
X0031250Y0095567D01*
X0030633Y0095567D01*
X0030633Y0094950D01*
X0031250Y0094950D01*
X0031250Y0095567D01*
X0030633Y0095567D01*
X0030633Y0094950D01*
X0032475Y0095567D02*
X0033092Y0094950D01*
X0034326Y0094950D01*
X0034943Y0095567D01*
X0034943Y0096184D01*
X0034326Y0096802D01*
X0033709Y0096802D01*
X0034326Y0096802D01*
X0034943Y0097419D01*
X0034943Y0098036D01*
X0034326Y0098653D01*
X0033092Y0098653D01*
X0032475Y0098036D01*
X0033092Y0098653D01*
X0034326Y0098653D01*
X0034943Y0098036D01*
X0034943Y0097419D01*
X0034326Y0096802D01*
X0034943Y0096184D01*
X0034943Y0095567D01*
X0034326Y0094950D01*
X0033092Y0094950D01*
X0032475Y0095567D01*
X0036158Y0096184D02*
X0036158Y0098653D01*
X0036158Y0096184D01*
X0037392Y0094950D01*
X0038627Y0096184D01*
X0038627Y0098653D01*
X0038627Y0096184D01*
X0037392Y0094950D01*
X0036158Y0096184D01*
X0036168Y0194950D02*
X0036785Y0195567D01*
X0036785Y0198036D01*
X0036168Y0198653D01*
X0034316Y0198653D01*
X0034316Y0194950D01*
X0036168Y0194950D01*
X0033102Y0194950D02*
X0033102Y0198653D01*
X0030633Y0198653D02*
X0033102Y0194950D01*
X0030633Y0194950D02*
X0030633Y0198653D01*
X0029419Y0198036D02*
X0028802Y0198653D01*
X0027567Y0198653D01*
X0026950Y0198036D01*
X0026950Y0195567D01*
X0027567Y0194950D01*
X0028802Y0194950D01*
X0029419Y0195567D01*
X0029419Y0196802D01*
X0028184Y0196802D01*
X0028802Y0204950D02*
X0026950Y0204950D01*
X0026950Y0208653D01*
X0028802Y0208653D01*
X0029419Y0208036D01*
X0029419Y0205567D01*
X0028802Y0204950D01*
X0030633Y0204950D02*
X0030633Y0207419D01*
X0031868Y0208653D01*
X0033102Y0207419D01*
X0033102Y0204950D01*
X0033102Y0206802D02*
X0030633Y0206802D01*
X0034316Y0208653D02*
X0036785Y0208653D01*
X0035551Y0208653D02*
X0035551Y0204950D01*
X0037999Y0204950D02*
X0037999Y0207419D01*
X0039234Y0208653D01*
X0040468Y0207419D01*
X0040468Y0204950D01*
X0040468Y0206802D02*
X0037999Y0206802D01*
X0031868Y0214950D02*
X0030633Y0216184D01*
X0030633Y0218653D01*
X0029419Y0218653D02*
X0026950Y0218653D01*
X0026950Y0216802D01*
X0028184Y0217419D01*
X0028802Y0217419D01*
X0029419Y0216802D01*
X0029419Y0215567D01*
X0028802Y0214950D01*
X0027567Y0214950D01*
X0026950Y0215567D01*
X0031868Y0214950D02*
X0033102Y0216184D01*
X0033102Y0218653D01*
D12*
X0059005Y0186604D02*
X0060540Y0185069D01*
X0060540Y0182000D01*
X0062074Y0182000D02*
X0062074Y0186604D01*
X0064376Y0186604D01*
X0065144Y0185837D01*
X0065144Y0184302D01*
X0064376Y0183535D01*
X0062074Y0183535D01*
X0063609Y0183535D02*
X0065144Y0182000D01*
X0066678Y0182000D02*
X0066678Y0186604D01*
X0068980Y0186604D01*
X0069748Y0185837D01*
X0069748Y0182767D01*
X0068980Y0182000D01*
X0066678Y0182000D01*
X0071282Y0182767D02*
X0071282Y0186604D01*
X0074352Y0186604D02*
X0074352Y0182767D01*
X0073584Y0182000D01*
X0072050Y0182000D01*
X0071282Y0182767D01*
X0075886Y0182000D02*
X0077421Y0182000D01*
X0076654Y0182000D02*
X0076654Y0186604D01*
X0077421Y0186604D02*
X0075886Y0186604D01*
X0078955Y0186604D02*
X0078955Y0182000D01*
X0082025Y0182000D02*
X0078955Y0186604D01*
X0082025Y0186604D02*
X0082025Y0182000D01*
X0083559Y0182767D02*
X0084327Y0182000D01*
X0085861Y0182000D01*
X0086629Y0182767D01*
X0086629Y0185837D01*
X0085861Y0186604D01*
X0084327Y0186604D01*
X0083559Y0185837D01*
X0083559Y0182767D01*
X0088163Y0184302D02*
X0091233Y0184302D01*
X0092767Y0183535D02*
X0095069Y0183535D01*
X0095837Y0184302D01*
X0095837Y0185837D01*
X0095069Y0186604D01*
X0092767Y0186604D01*
X0092767Y0182000D01*
X0097371Y0182000D02*
X0097371Y0186604D01*
X0099673Y0186604D01*
X0100440Y0185837D01*
X0100440Y0184302D01*
X0099673Y0183535D01*
X0097371Y0183535D01*
X0098906Y0183535D02*
X0100440Y0182000D01*
X0101975Y0182767D02*
X0102742Y0182000D01*
X0104277Y0182000D01*
X0105044Y0182767D01*
X0105044Y0185837D01*
X0104277Y0186604D01*
X0102742Y0186604D01*
X0101975Y0185837D01*
X0101975Y0182767D01*
X0106579Y0184302D02*
X0109648Y0184302D01*
X0111183Y0186604D02*
X0112718Y0185069D01*
X0114252Y0186604D01*
X0114252Y0182000D01*
X0115787Y0182000D02*
X0117322Y0182000D01*
X0116554Y0182000D02*
X0116554Y0186604D01*
X0115787Y0186604D02*
X0117322Y0186604D01*
X0118856Y0186604D02*
X0118856Y0182000D01*
X0121925Y0182000D02*
X0118856Y0186604D01*
X0121925Y0186604D02*
X0121925Y0182000D01*
X0123460Y0182000D02*
X0124995Y0182000D01*
X0124227Y0182000D02*
X0124227Y0186604D01*
X0123460Y0186604D02*
X0124995Y0186604D01*
X0111183Y0186604D02*
X0111183Y0182000D01*
X0060540Y0184302D02*
X0057470Y0184302D01*
X0057470Y0185069D02*
X0059005Y0186604D01*
X0057470Y0185069D02*
X0057470Y0182000D01*
X0058345Y0269717D02*
X0058345Y0274320D01*
X0056810Y0274320D02*
X0059880Y0274320D01*
X0061414Y0273553D02*
X0062181Y0274320D01*
X0063716Y0274320D01*
X0064483Y0273553D01*
X0064483Y0272786D01*
X0061414Y0269717D01*
X0064483Y0269717D01*
X0066018Y0269717D02*
X0069087Y0272786D01*
X0069087Y0273553D01*
X0068320Y0274320D01*
X0066785Y0274320D01*
X0066018Y0273553D01*
X0066018Y0269717D02*
X0069087Y0269717D01*
X0055276Y0269717D02*
X0055276Y0274320D01*
X0055276Y0272018D02*
X0052206Y0272018D01*
X0050672Y0270484D02*
X0050672Y0273553D01*
X0049904Y0274320D01*
X0047602Y0274320D01*
X0047602Y0269717D01*
X0049904Y0269717D01*
X0050672Y0270484D01*
X0052206Y0269717D02*
X0052206Y0274320D01*
X0191282Y0271604D02*
X0191282Y0267000D01*
X0194352Y0267000D02*
X0194352Y0271604D01*
X0195886Y0271604D02*
X0198188Y0271604D01*
X0198955Y0270837D01*
X0198955Y0269302D01*
X0198188Y0268535D01*
X0195886Y0268535D01*
X0197421Y0268535D02*
X0198955Y0267000D01*
X0200490Y0267000D02*
X0200490Y0271604D01*
X0203559Y0271604D01*
X0205094Y0270837D02*
X0205861Y0271604D01*
X0207396Y0271604D01*
X0208163Y0270837D01*
X0208163Y0270069D01*
X0205094Y0267000D01*
X0208163Y0267000D01*
X0209698Y0269302D02*
X0212767Y0269302D01*
X0212000Y0267000D02*
X0212000Y0271604D01*
X0209698Y0269302D01*
X0214302Y0271604D02*
X0214302Y0267000D01*
X0217371Y0267000D01*
X0218906Y0267767D02*
X0221975Y0270837D01*
X0221975Y0267767D01*
X0221208Y0267000D01*
X0219673Y0267000D01*
X0218906Y0267767D01*
X0218906Y0270837D01*
X0219673Y0271604D01*
X0221208Y0271604D01*
X0221975Y0270837D01*
X0223510Y0270069D02*
X0225044Y0271604D01*
X0225044Y0267000D01*
X0223510Y0267000D02*
X0226579Y0267000D01*
X0228114Y0269302D02*
X0231183Y0269302D01*
X0229648Y0270837D02*
X0229648Y0267767D01*
X0202025Y0269302D02*
X0200490Y0269302D01*
X0195886Y0267000D02*
X0195886Y0271604D01*
X0191282Y0271604D02*
X0194352Y0267000D01*
X0230263Y0088435D02*
X0229496Y0087668D01*
X0229496Y0085366D01*
X0234100Y0085366D01*
X0234100Y0083831D02*
X0234100Y0082297D01*
X0234100Y0083064D02*
X0229496Y0083064D01*
X0229496Y0082297D02*
X0229496Y0083831D01*
X0232565Y0085366D02*
X0232565Y0087668D01*
X0231798Y0088435D01*
X0230263Y0088435D01*
X0232565Y0086901D02*
X0234100Y0088435D01*
X0231798Y0080762D02*
X0232565Y0079995D01*
X0232565Y0077693D01*
X0234100Y0077693D02*
X0229496Y0077693D01*
X0229496Y0079995D01*
X0230263Y0080762D01*
X0231798Y0080762D01*
X0231798Y0076158D02*
X0231798Y0073089D01*
X0234100Y0071554D02*
X0229496Y0071554D01*
X0229496Y0068485D02*
X0234100Y0071554D01*
X0234100Y0068485D02*
X0229496Y0068485D01*
X0230263Y0066950D02*
X0229496Y0066183D01*
X0229496Y0064648D01*
X0230263Y0063881D01*
X0233333Y0063881D01*
X0234100Y0064648D01*
X0234100Y0066183D01*
X0233333Y0066950D01*
X0230263Y0066950D01*
X0229496Y0062346D02*
X0229496Y0060812D01*
X0229496Y0061579D02*
X0234100Y0061579D01*
X0234100Y0060812D02*
X0234100Y0062346D01*
X0234100Y0057742D02*
X0229496Y0057742D01*
X0229496Y0056208D02*
X0229496Y0059277D01*
X0230263Y0054673D02*
X0229496Y0053906D01*
X0229496Y0052371D01*
X0230263Y0051604D01*
X0233333Y0051604D01*
X0234100Y0052371D01*
X0234100Y0053906D01*
X0233333Y0054673D01*
X0230263Y0054673D01*
X0229496Y0050069D02*
X0234100Y0050069D01*
X0234100Y0047000D02*
X0229496Y0047000D01*
X0231031Y0048535D01*
X0229496Y0050069D01*
D13*
X0197081Y0057660D02*
X0189274Y0057660D01*
X0193178Y0057660D02*
X0193178Y0045950D01*
X0183914Y0047902D02*
X0183914Y0051805D01*
X0181962Y0053757D01*
X0178059Y0053757D01*
X0176107Y0051805D01*
X0176107Y0047902D01*
X0178059Y0045950D01*
X0181962Y0045950D01*
X0183914Y0047902D01*
X0171232Y0045950D02*
X0167329Y0045950D01*
X0169280Y0045950D02*
X0169280Y0057660D01*
X0167329Y0057660D02*
X0171232Y0057660D01*
X0161968Y0051805D02*
X0161968Y0045950D01*
X0161968Y0051805D02*
X0160017Y0053757D01*
X0154162Y0053757D01*
X0154162Y0045950D01*
X0148801Y0049853D02*
X0148801Y0051805D01*
X0146849Y0053757D01*
X0142946Y0053757D01*
X0140994Y0051805D01*
X0140994Y0047902D01*
X0142946Y0045950D01*
X0146849Y0045950D01*
X0148801Y0049853D02*
X0140994Y0049853D01*
X0136120Y0045950D02*
X0134168Y0047902D01*
X0134168Y0055708D01*
X0132216Y0053757D02*
X0136120Y0053757D01*
X0126856Y0051805D02*
X0126856Y0047902D01*
X0124904Y0045950D01*
X0121001Y0045950D01*
X0119049Y0047902D01*
X0119049Y0051805D01*
X0121001Y0053757D01*
X0124904Y0053757D01*
X0126856Y0051805D01*
X0113688Y0051805D02*
X0113688Y0045950D01*
X0113688Y0051805D02*
X0111737Y0053757D01*
X0105882Y0053757D01*
X0105882Y0045950D01*
X0100764Y0045950D02*
X0094909Y0049853D01*
X0100764Y0053757D01*
X0094909Y0057660D02*
X0094909Y0045950D01*
X0089791Y0053757D02*
X0087840Y0053757D01*
X0083936Y0049853D01*
X0083936Y0045950D02*
X0083936Y0053757D01*
X0078576Y0051805D02*
X0076624Y0053757D01*
X0072721Y0053757D01*
X0070769Y0051805D01*
X0070769Y0047902D01*
X0072721Y0045950D01*
X0076624Y0045950D01*
X0078576Y0047902D01*
X0078576Y0051805D01*
X0065408Y0053757D02*
X0059553Y0053757D01*
X0057602Y0051805D01*
X0059553Y0049853D01*
X0063457Y0049853D01*
X0065408Y0047902D01*
X0063457Y0045950D01*
X0057602Y0045950D01*
X0052241Y0045950D02*
X0052241Y0051805D01*
X0050289Y0053757D01*
X0044434Y0053757D01*
X0044434Y0045950D01*
X0039074Y0049853D02*
X0039074Y0051805D01*
X0037122Y0053757D01*
X0033219Y0053757D01*
X0031267Y0051805D01*
X0031267Y0047902D01*
X0033219Y0045950D01*
X0037122Y0045950D01*
X0039074Y0049853D02*
X0031267Y0049853D01*
X0025907Y0049853D02*
X0025907Y0047902D01*
X0023955Y0045950D01*
X0020052Y0045950D01*
X0018100Y0047902D01*
X0020052Y0051805D02*
X0023955Y0051805D01*
X0025907Y0049853D01*
X0025907Y0055708D02*
X0023955Y0057660D01*
X0020052Y0057660D01*
X0018100Y0055708D01*
X0018100Y0053757D01*
X0020052Y0051805D01*
D14*
X0013233Y0137249D02*
X0013950Y0137967D01*
X0013950Y0138684D01*
X0013233Y0139401D01*
X0009646Y0139401D01*
X0009646Y0138684D02*
X0009646Y0140118D01*
X0011081Y0142570D02*
X0011081Y0144005D01*
X0011798Y0144722D01*
X0013950Y0144722D01*
X0013950Y0142570D01*
X0013233Y0141853D01*
X0012515Y0142570D01*
X0012515Y0144722D01*
X0011081Y0146457D02*
X0011081Y0148609D01*
X0011798Y0149326D01*
X0013950Y0149326D01*
X0013233Y0151061D02*
X0010364Y0151061D01*
X0009646Y0151778D01*
X0009646Y0153213D01*
X0010364Y0153930D01*
X0011798Y0153930D02*
X0011798Y0152496D01*
X0011798Y0153930D02*
X0013233Y0153930D01*
X0013950Y0153213D01*
X0013950Y0151778D01*
X0013233Y0151061D01*
X0013233Y0155665D02*
X0011798Y0155665D01*
X0011081Y0156382D01*
X0011081Y0157817D01*
X0011798Y0158534D01*
X0012515Y0158534D01*
X0012515Y0155665D01*
X0013233Y0155665D02*
X0013950Y0156382D01*
X0013950Y0157817D01*
X0013950Y0160269D02*
X0011081Y0160269D01*
X0011081Y0161703D02*
X0011081Y0162421D01*
X0011081Y0161703D02*
X0012515Y0160269D01*
X0011081Y0164105D02*
X0011081Y0166257D01*
X0011798Y0166975D01*
X0013233Y0166975D01*
X0013950Y0166257D01*
X0013950Y0164105D01*
X0009646Y0164105D01*
X0011798Y0168709D02*
X0011081Y0169427D01*
X0011081Y0170861D01*
X0011798Y0171578D01*
X0012515Y0171578D01*
X0012515Y0168709D01*
X0011798Y0168709D02*
X0013233Y0168709D01*
X0013950Y0169427D01*
X0013950Y0170861D01*
X0013950Y0173313D02*
X0011081Y0173313D01*
X0012515Y0173313D02*
X0011081Y0174748D01*
X0011081Y0175465D01*
X0011081Y0146457D02*
X0013950Y0146457D01*
X0237150Y0193201D02*
X0238201Y0192150D01*
X0240303Y0192150D01*
X0241354Y0193201D01*
X0241354Y0194252D01*
X0240303Y0195303D01*
X0238201Y0195303D01*
X0237150Y0196354D01*
X0237150Y0197404D01*
X0238201Y0198455D01*
X0240303Y0198455D01*
X0241354Y0197404D01*
X0243595Y0196354D02*
X0245697Y0198455D01*
X0245697Y0192150D01*
X0243595Y0192150D02*
X0247799Y0192150D01*
D15*
X0258100Y0188100D02*
X0260600Y0185600D01*
X0260600Y0173100D01*
X0263800Y0170800D01*
X0263800Y0152800D01*
X0260600Y0150500D01*
X0260600Y0138000D01*
X0258100Y0135500D01*
X0235500Y0135500D01*
X0233000Y0138000D01*
X0233000Y0150700D01*
X0229800Y0152800D01*
X0229800Y0170800D01*
X0233000Y0173100D01*
X0233000Y0185600D01*
X0235500Y0188100D01*
X0258100Y0188100D01*
X0259500Y0211541D02*
X0255230Y0211541D01*
X0253095Y0213676D01*
X0255230Y0215811D01*
X0259500Y0215811D01*
X0259500Y0217986D02*
X0253095Y0217986D01*
X0259500Y0222257D01*
X0253095Y0222257D01*
X0253095Y0224432D02*
X0253095Y0228702D01*
X0253095Y0226567D02*
X0259500Y0226567D01*
X0259500Y0230877D02*
X0259500Y0235148D01*
X0259500Y0237323D02*
X0253095Y0237323D01*
X0259500Y0241593D01*
X0253095Y0241593D01*
X0253095Y0243768D02*
X0259500Y0248039D01*
X0253095Y0248039D01*
X0255230Y0250214D02*
X0253095Y0252349D01*
X0255230Y0254484D01*
X0259500Y0254484D01*
X0256297Y0254484D02*
X0256297Y0250214D01*
X0255230Y0250214D02*
X0259500Y0250214D01*
X0259500Y0243768D02*
X0253095Y0243768D01*
X0253095Y0235148D02*
X0253095Y0230877D01*
X0259500Y0230877D01*
X0256297Y0230877D02*
X0256297Y0233012D01*
X0256297Y0215811D02*
X0256297Y0211541D01*
X0196800Y0174300D02*
X0196800Y0169300D01*
X0194300Y0166800D01*
X0189300Y0166800D01*
X0186800Y0169300D01*
X0184300Y0166800D01*
X0179300Y0166800D01*
X0176800Y0169300D01*
X0176800Y0174300D01*
X0179300Y0176800D01*
X0184300Y0176800D01*
X0186800Y0174300D01*
X0189300Y0176800D01*
X0194300Y0176800D01*
X0196800Y0174300D01*
X0186800Y0174300D02*
X0186800Y0169300D01*
X0184300Y0101800D02*
X0179300Y0101800D01*
X0176800Y0099300D01*
X0176800Y0094300D01*
X0179300Y0091800D01*
X0184300Y0091800D01*
X0186800Y0094300D01*
X0186800Y0099300D01*
X0184300Y0101800D01*
X0186800Y0099300D02*
X0189300Y0101800D01*
X0194300Y0101800D01*
X0196800Y0099300D01*
X0196800Y0094300D01*
X0194300Y0091800D01*
X0189300Y0091800D01*
X0186800Y0094300D01*
X0189300Y0021800D02*
X0194300Y0021800D01*
X0196800Y0019300D01*
X0199300Y0021800D01*
X0204300Y0021800D01*
X0206800Y0019300D01*
X0206800Y0014300D01*
X0204300Y0011800D01*
X0199300Y0011800D01*
X0196800Y0014300D01*
X0194300Y0011800D01*
X0189300Y0011800D01*
X0186800Y0014300D01*
X0186800Y0019300D01*
X0189300Y0021800D01*
X0196800Y0019300D02*
X0196800Y0014300D01*
X0146800Y0014300D02*
X0144300Y0011800D01*
X0139300Y0011800D01*
X0136800Y0014300D01*
X0134300Y0011800D01*
X0129300Y0011800D01*
X0126800Y0014300D01*
X0126800Y0019300D01*
X0129300Y0021800D01*
X0134300Y0021800D01*
X0136800Y0019300D01*
X0139300Y0021800D01*
X0144300Y0021800D01*
X0146800Y0019300D01*
X0146800Y0014300D01*
X0136800Y0014300D02*
X0136800Y0019300D01*
X0126800Y0019300D02*
X0124300Y0021800D01*
X0119300Y0021800D01*
X0116800Y0019300D01*
X0114300Y0021800D01*
X0109300Y0021800D01*
X0106800Y0019300D01*
X0104300Y0021800D01*
X0099300Y0021800D01*
X0096800Y0019300D01*
X0096800Y0014300D01*
X0099300Y0011800D01*
X0104300Y0011800D01*
X0106800Y0014300D01*
X0106800Y0019300D01*
X0106800Y0014300D02*
X0109300Y0011800D01*
X0114300Y0011800D01*
X0116800Y0014300D01*
X0116800Y0019300D01*
X0116800Y0014300D02*
X0119300Y0011800D01*
X0124300Y0011800D01*
X0126800Y0014300D01*
X0071800Y0014300D02*
X0069300Y0011800D01*
X0064300Y0011800D01*
X0061800Y0014300D01*
X0059300Y0011800D01*
X0054300Y0011800D01*
X0051800Y0014300D01*
X0051800Y0019300D01*
X0054300Y0021800D01*
X0059300Y0021800D01*
X0061800Y0019300D01*
X0064300Y0021800D01*
X0069300Y0021800D01*
X0071800Y0019300D01*
X0071800Y0014300D01*
X0061800Y0014300D02*
X0061800Y0019300D01*
X0051800Y0019300D02*
X0049300Y0021800D01*
X0044300Y0021800D01*
X0041800Y0019300D01*
X0039300Y0021800D01*
X0034300Y0021800D01*
X0031800Y0019300D01*
X0029300Y0021800D01*
X0024300Y0021800D01*
X0021800Y0019300D01*
X0021800Y0014300D01*
X0024300Y0011800D01*
X0029300Y0011800D01*
X0031800Y0014300D01*
X0031800Y0019300D01*
X0031800Y0014300D02*
X0034300Y0011800D01*
X0039300Y0011800D01*
X0041800Y0014300D01*
X0041800Y0019300D01*
X0041800Y0014300D02*
X0044300Y0011800D01*
X0049300Y0011800D01*
X0051800Y0014300D01*
X0019300Y0061800D02*
X0014300Y0061800D01*
X0011800Y0064300D01*
X0011800Y0069300D01*
X0014300Y0071800D01*
X0011800Y0074300D01*
X0011800Y0079300D01*
X0014300Y0081800D01*
X0019300Y0081800D01*
X0021800Y0079300D01*
X0021800Y0074300D01*
X0019300Y0071800D01*
X0021800Y0069300D01*
X0021800Y0064300D01*
X0019300Y0061800D01*
X0019300Y0071800D02*
X0014300Y0071800D01*
X0014300Y0081800D02*
X0011800Y0084300D01*
X0011800Y0089300D01*
X0014300Y0091800D01*
X0011800Y0094300D01*
X0011800Y0099300D01*
X0014300Y0101800D01*
X0019300Y0101800D01*
X0021800Y0099300D01*
X0021800Y0094300D01*
X0019300Y0091800D01*
X0021800Y0089300D01*
X0021800Y0084300D01*
X0019300Y0081800D01*
X0019300Y0091800D02*
X0014300Y0091800D01*
X0014300Y0191800D02*
X0011800Y0194300D01*
X0011800Y0199300D01*
X0014300Y0201800D01*
X0011800Y0204300D01*
X0011800Y0209300D01*
X0014300Y0211800D01*
X0011800Y0214300D01*
X0011800Y0219300D01*
X0014300Y0221800D01*
X0019300Y0221800D01*
X0021800Y0219300D01*
X0021800Y0214300D01*
X0019300Y0211800D01*
X0021800Y0209300D01*
X0021800Y0204300D01*
X0019300Y0201800D01*
X0021800Y0199300D01*
X0021800Y0194300D01*
X0019300Y0191800D01*
X0014300Y0191800D01*
X0014300Y0201800D02*
X0019300Y0201800D01*
X0019300Y0211800D02*
X0014300Y0211800D01*
X0059300Y0213300D02*
X0059300Y0220300D01*
X0059302Y0220360D01*
X0059307Y0220421D01*
X0059316Y0220480D01*
X0059329Y0220539D01*
X0059345Y0220598D01*
X0059365Y0220655D01*
X0059388Y0220710D01*
X0059415Y0220765D01*
X0059444Y0220817D01*
X0059477Y0220868D01*
X0059513Y0220917D01*
X0059551Y0220963D01*
X0059593Y0221007D01*
X0059637Y0221049D01*
X0059683Y0221087D01*
X0059732Y0221123D01*
X0059783Y0221156D01*
X0059835Y0221185D01*
X0059890Y0221212D01*
X0059945Y0221235D01*
X0060002Y0221255D01*
X0060061Y0221271D01*
X0060120Y0221284D01*
X0060179Y0221293D01*
X0060240Y0221298D01*
X0060300Y0221300D01*
X0061800Y0221300D01*
X0062300Y0220800D01*
X0081300Y0220800D01*
X0081800Y0221300D01*
X0083300Y0221300D01*
X0083360Y0221298D01*
X0083421Y0221293D01*
X0083480Y0221284D01*
X0083539Y0221271D01*
X0083598Y0221255D01*
X0083655Y0221235D01*
X0083710Y0221212D01*
X0083765Y0221185D01*
X0083817Y0221156D01*
X0083868Y0221123D01*
X0083917Y0221087D01*
X0083963Y0221049D01*
X0084007Y0221007D01*
X0084049Y0220963D01*
X0084087Y0220917D01*
X0084123Y0220868D01*
X0084156Y0220817D01*
X0084185Y0220765D01*
X0084212Y0220710D01*
X0084235Y0220655D01*
X0084255Y0220598D01*
X0084271Y0220539D01*
X0084284Y0220480D01*
X0084293Y0220421D01*
X0084298Y0220360D01*
X0084300Y0220300D01*
X0084300Y0213300D01*
X0084298Y0213240D01*
X0084293Y0213179D01*
X0084284Y0213120D01*
X0084271Y0213061D01*
X0084255Y0213002D01*
X0084235Y0212945D01*
X0084212Y0212890D01*
X0084185Y0212835D01*
X0084156Y0212783D01*
X0084123Y0212732D01*
X0084087Y0212683D01*
X0084049Y0212637D01*
X0084007Y0212593D01*
X0083963Y0212551D01*
X0083917Y0212513D01*
X0083868Y0212477D01*
X0083817Y0212444D01*
X0083765Y0212415D01*
X0083710Y0212388D01*
X0083655Y0212365D01*
X0083598Y0212345D01*
X0083539Y0212329D01*
X0083480Y0212316D01*
X0083421Y0212307D01*
X0083360Y0212302D01*
X0083300Y0212300D01*
X0081800Y0212300D01*
X0081300Y0212800D01*
X0062300Y0212800D01*
X0061800Y0212300D01*
X0060300Y0212300D01*
X0060240Y0212302D01*
X0060179Y0212307D01*
X0060120Y0212316D01*
X0060061Y0212329D01*
X0060002Y0212345D01*
X0059945Y0212365D01*
X0059890Y0212388D01*
X0059835Y0212415D01*
X0059783Y0212444D01*
X0059732Y0212477D01*
X0059683Y0212513D01*
X0059637Y0212551D01*
X0059593Y0212593D01*
X0059551Y0212637D01*
X0059513Y0212683D01*
X0059477Y0212732D01*
X0059444Y0212783D01*
X0059415Y0212835D01*
X0059388Y0212890D01*
X0059365Y0212945D01*
X0059345Y0213002D01*
X0059329Y0213061D01*
X0059316Y0213120D01*
X0059307Y0213179D01*
X0059302Y0213240D01*
X0059300Y0213300D01*
X0060300Y0201300D02*
X0061800Y0201300D01*
X0062300Y0200800D01*
X0081300Y0200800D01*
X0081800Y0201300D01*
X0083300Y0201300D01*
X0083360Y0201298D01*
X0083421Y0201293D01*
X0083480Y0201284D01*
X0083539Y0201271D01*
X0083598Y0201255D01*
X0083655Y0201235D01*
X0083710Y0201212D01*
X0083765Y0201185D01*
X0083817Y0201156D01*
X0083868Y0201123D01*
X0083917Y0201087D01*
X0083963Y0201049D01*
X0084007Y0201007D01*
X0084049Y0200963D01*
X0084087Y0200917D01*
X0084123Y0200868D01*
X0084156Y0200817D01*
X0084185Y0200765D01*
X0084212Y0200710D01*
X0084235Y0200655D01*
X0084255Y0200598D01*
X0084271Y0200539D01*
X0084284Y0200480D01*
X0084293Y0200421D01*
X0084298Y0200360D01*
X0084300Y0200300D01*
X0084300Y0193300D01*
X0084298Y0193240D01*
X0084293Y0193179D01*
X0084284Y0193120D01*
X0084271Y0193061D01*
X0084255Y0193002D01*
X0084235Y0192945D01*
X0084212Y0192890D01*
X0084185Y0192835D01*
X0084156Y0192783D01*
X0084123Y0192732D01*
X0084087Y0192683D01*
X0084049Y0192637D01*
X0084007Y0192593D01*
X0083963Y0192551D01*
X0083917Y0192513D01*
X0083868Y0192477D01*
X0083817Y0192444D01*
X0083765Y0192415D01*
X0083710Y0192388D01*
X0083655Y0192365D01*
X0083598Y0192345D01*
X0083539Y0192329D01*
X0083480Y0192316D01*
X0083421Y0192307D01*
X0083360Y0192302D01*
X0083300Y0192300D01*
X0081800Y0192300D01*
X0081300Y0192800D01*
X0062300Y0192800D01*
X0061800Y0192300D01*
X0060300Y0192300D01*
X0060240Y0192302D01*
X0060179Y0192307D01*
X0060120Y0192316D01*
X0060061Y0192329D01*
X0060002Y0192345D01*
X0059945Y0192365D01*
X0059890Y0192388D01*
X0059835Y0192415D01*
X0059783Y0192444D01*
X0059732Y0192477D01*
X0059683Y0192513D01*
X0059637Y0192551D01*
X0059593Y0192593D01*
X0059551Y0192637D01*
X0059513Y0192683D01*
X0059477Y0192732D01*
X0059444Y0192783D01*
X0059415Y0192835D01*
X0059388Y0192890D01*
X0059365Y0192945D01*
X0059345Y0193002D01*
X0059329Y0193061D01*
X0059316Y0193120D01*
X0059307Y0193179D01*
X0059302Y0193240D01*
X0059300Y0193300D01*
X0059300Y0200300D01*
X0059302Y0200360D01*
X0059307Y0200421D01*
X0059316Y0200480D01*
X0059329Y0200539D01*
X0059345Y0200598D01*
X0059365Y0200655D01*
X0059388Y0200710D01*
X0059415Y0200765D01*
X0059444Y0200817D01*
X0059477Y0200868D01*
X0059513Y0200917D01*
X0059551Y0200963D01*
X0059593Y0201007D01*
X0059637Y0201049D01*
X0059683Y0201087D01*
X0059732Y0201123D01*
X0059783Y0201156D01*
X0059835Y0201185D01*
X0059890Y0201212D01*
X0059945Y0201235D01*
X0060002Y0201255D01*
X0060061Y0201271D01*
X0060120Y0201284D01*
X0060179Y0201293D01*
X0060240Y0201298D01*
X0060300Y0201300D01*
X0084300Y0251800D02*
X0089300Y0251800D01*
X0091800Y0254300D01*
X0094300Y0251800D01*
X0099300Y0251800D01*
X0101800Y0254300D01*
X0101800Y0259300D01*
X0099300Y0261800D01*
X0094300Y0261800D01*
X0091800Y0259300D01*
X0091800Y0254300D01*
X0091800Y0259300D02*
X0089300Y0261800D01*
X0084300Y0261800D01*
X0081800Y0259300D01*
X0081800Y0254300D01*
X0084300Y0251800D01*
X0116800Y0254300D02*
X0119300Y0251800D01*
X0124300Y0251800D01*
X0126800Y0254300D01*
X0129300Y0251800D01*
X0134300Y0251800D01*
X0136800Y0254300D01*
X0136800Y0259300D01*
X0134300Y0261800D01*
X0129300Y0261800D01*
X0126800Y0259300D01*
X0126800Y0254300D01*
X0126800Y0259300D02*
X0124300Y0261800D01*
X0119300Y0261800D01*
X0116800Y0259300D01*
X0116800Y0254300D01*
D16*
X0116750Y0264250D02*
X0116750Y0268754D01*
X0119002Y0268754D01*
X0119753Y0268003D01*
X0119753Y0266502D01*
X0119002Y0265751D01*
X0116750Y0265751D01*
X0118251Y0265751D02*
X0119753Y0264250D01*
X0121354Y0264250D02*
X0124356Y0264250D01*
X0125958Y0264250D02*
X0128960Y0264250D01*
X0130562Y0264250D02*
X0132814Y0264250D01*
X0133564Y0265001D01*
X0133564Y0268003D01*
X0132814Y0268754D01*
X0130562Y0268754D01*
X0130562Y0264250D01*
X0127459Y0266502D02*
X0125958Y0266502D01*
X0125958Y0268754D02*
X0125958Y0264250D01*
X0122855Y0266502D02*
X0121354Y0266502D01*
X0121354Y0268754D02*
X0121354Y0264250D01*
X0121354Y0268754D02*
X0124356Y0268754D01*
X0125958Y0268754D02*
X0128960Y0268754D01*
X0135166Y0266502D02*
X0138168Y0266502D01*
X0139770Y0267253D02*
X0140520Y0266502D01*
X0142022Y0266502D01*
X0142772Y0265751D01*
X0142772Y0265001D01*
X0142022Y0264250D01*
X0140520Y0264250D01*
X0139770Y0265001D01*
X0139770Y0267253D02*
X0139770Y0268003D01*
X0140520Y0268754D01*
X0142022Y0268754D01*
X0142772Y0268003D01*
X0144374Y0268003D02*
X0144374Y0265001D01*
X0145124Y0264250D01*
X0146625Y0264250D01*
X0147376Y0265001D01*
X0148977Y0264250D02*
X0148977Y0268754D01*
X0147376Y0268003D02*
X0146625Y0268754D01*
X0145124Y0268754D01*
X0144374Y0268003D01*
X0148977Y0266502D02*
X0151980Y0266502D01*
X0153581Y0266502D02*
X0156584Y0266502D01*
X0156584Y0267253D02*
X0156584Y0264250D01*
X0158185Y0264250D02*
X0161188Y0264250D01*
X0158185Y0264250D02*
X0158185Y0268754D01*
X0156584Y0267253D02*
X0155083Y0268754D01*
X0153581Y0267253D01*
X0153581Y0264250D01*
X0151980Y0264250D02*
X0151980Y0268754D01*
X0155200Y0263300D02*
X0155200Y0204300D01*
X0243800Y0204300D01*
X0243800Y0263300D01*
X0269400Y0263300D01*
X0269400Y0204300D01*
X0243800Y0204300D01*
X0196634Y0183754D02*
X0196634Y0180751D01*
X0195132Y0179250D01*
X0193631Y0180751D01*
X0193631Y0183754D01*
X0192030Y0183754D02*
X0189027Y0183754D01*
X0189027Y0181502D01*
X0190528Y0182253D01*
X0191279Y0182253D01*
X0192030Y0181502D01*
X0192030Y0180001D01*
X0191279Y0179250D01*
X0189778Y0179250D01*
X0189027Y0180001D01*
X0187426Y0181502D02*
X0184423Y0181502D01*
X0182822Y0179250D02*
X0182822Y0183754D01*
X0179819Y0183754D02*
X0179819Y0179250D01*
X0178251Y0179250D02*
X0176750Y0179250D01*
X0177501Y0179250D02*
X0177501Y0183754D01*
X0178251Y0183754D02*
X0176750Y0183754D01*
X0179819Y0183754D02*
X0182822Y0179250D01*
X0156800Y0176800D02*
X0156800Y0106800D01*
X0149300Y0106800D01*
X0146800Y0109300D01*
X0144300Y0106800D01*
X0149300Y0106800D01*
X0144300Y0106800D02*
X0139300Y0106800D01*
X0136800Y0109300D01*
X0134300Y0106800D01*
X0139300Y0106800D01*
X0134300Y0106800D02*
X0129300Y0106800D01*
X0126800Y0109300D01*
X0124300Y0106800D01*
X0129300Y0106800D01*
X0124300Y0106800D02*
X0119300Y0106800D01*
X0116800Y0109300D01*
X0114300Y0106800D01*
X0119300Y0106800D01*
X0114300Y0106800D02*
X0109300Y0106800D01*
X0106800Y0109300D01*
X0104300Y0106800D01*
X0109300Y0106800D01*
X0104300Y0106800D02*
X0099300Y0106800D01*
X0096800Y0109300D01*
X0094300Y0106800D01*
X0099300Y0106800D01*
X0094300Y0106800D02*
X0089300Y0106800D01*
X0086800Y0109300D01*
X0084300Y0106800D01*
X0089300Y0106800D01*
X0084300Y0106800D02*
X0079300Y0106800D01*
X0076800Y0109300D01*
X0074300Y0106800D01*
X0079300Y0106800D01*
X0074300Y0106800D02*
X0069300Y0106800D01*
X0066800Y0109300D01*
X0064300Y0106800D01*
X0069300Y0106800D01*
X0064300Y0106800D02*
X0059300Y0106800D01*
X0056800Y0109300D01*
X0054300Y0106800D01*
X0059300Y0106800D01*
X0054300Y0106800D02*
X0049300Y0106800D01*
X0046800Y0109300D01*
X0044300Y0106800D01*
X0049300Y0106800D01*
X0044300Y0106800D02*
X0026800Y0106800D01*
X0026800Y0111800D01*
X0026800Y0164800D01*
X0026800Y0168800D01*
X0026800Y0171800D01*
X0026800Y0176800D01*
X0064300Y0176800D01*
X0066800Y0174300D01*
X0069300Y0176800D01*
X0074300Y0176800D02*
X0076800Y0174300D01*
X0079300Y0176800D01*
X0084300Y0176800D02*
X0086800Y0174300D01*
X0089300Y0176800D01*
X0094300Y0176800D02*
X0096800Y0174300D01*
X0099300Y0176800D01*
X0104300Y0176800D02*
X0106800Y0174300D01*
X0109300Y0176800D01*
X0114300Y0176800D02*
X0116800Y0174300D01*
X0119300Y0176800D01*
X0124300Y0176800D02*
X0126800Y0174300D01*
X0129300Y0176800D01*
X0064300Y0176800D01*
X0059300Y0176800D02*
X0056800Y0174300D01*
X0054300Y0176800D01*
X0049300Y0176800D02*
X0046800Y0174300D01*
X0044300Y0176800D01*
X0039300Y0176800D02*
X0036800Y0174300D01*
X0036800Y0169300D01*
X0039300Y0166800D01*
X0044300Y0166800D01*
X0046800Y0169300D01*
X0049300Y0166800D01*
X0054300Y0166800D01*
X0056800Y0169300D01*
X0059300Y0166800D01*
X0064300Y0166800D01*
X0066800Y0169300D01*
X0069300Y0166800D01*
X0074300Y0166800D01*
X0079300Y0166800D01*
X0081800Y0164300D01*
X0084300Y0166800D01*
X0089300Y0166800D01*
X0091800Y0164300D01*
X0091800Y0159300D01*
X0089300Y0156800D01*
X0084300Y0156800D01*
X0081800Y0159300D01*
X0079300Y0156800D01*
X0074300Y0156800D01*
X0071800Y0159300D01*
X0071800Y0164300D01*
X0074300Y0166800D01*
X0076800Y0169300D01*
X0079300Y0166800D01*
X0084300Y0166800D01*
X0086800Y0169300D01*
X0089300Y0166800D01*
X0094300Y0166800D01*
X0096800Y0169300D01*
X0099300Y0166800D01*
X0104300Y0166800D01*
X0106800Y0169300D01*
X0109300Y0166800D01*
X0114300Y0166800D01*
X0116800Y0169300D01*
X0119300Y0166800D01*
X0124300Y0166800D01*
X0126800Y0169300D01*
X0129300Y0166800D01*
X0134300Y0166800D01*
X0136800Y0169300D01*
X0139300Y0166800D01*
X0144300Y0166800D01*
X0146800Y0169300D01*
X0149300Y0166800D01*
X0146800Y0164300D01*
X0146800Y0159300D01*
X0149300Y0156800D01*
X0146800Y0154300D01*
X0146800Y0149300D01*
X0149300Y0146800D01*
X0146800Y0144300D01*
X0146800Y0139300D01*
X0149300Y0136800D01*
X0154300Y0136800D01*
X0156800Y0139300D01*
X0156800Y0144300D02*
X0154300Y0146800D01*
X0156800Y0149300D01*
X0156800Y0154300D02*
X0154300Y0156800D01*
X0156800Y0159300D01*
X0156800Y0164300D02*
X0154300Y0166800D01*
X0156800Y0169300D01*
X0154300Y0166800D02*
X0149300Y0166800D01*
X0146800Y0174300D02*
X0144300Y0176800D01*
X0129300Y0176800D01*
X0134300Y0176800D02*
X0136800Y0174300D01*
X0139300Y0176800D01*
X0144300Y0176800D02*
X0156800Y0176800D01*
X0156800Y0174300D02*
X0154300Y0176800D01*
X0149300Y0176800D02*
X0146800Y0174300D01*
X0159300Y0221800D02*
X0156800Y0224300D01*
X0156800Y0229300D01*
X0159300Y0231800D01*
X0156800Y0234300D01*
X0156800Y0239300D01*
X0159300Y0241800D01*
X0156800Y0244300D01*
X0156800Y0249300D01*
X0159300Y0251800D01*
X0156800Y0254300D01*
X0156800Y0259300D01*
X0159300Y0261800D01*
X0174300Y0261800D01*
X0176800Y0259300D01*
X0176800Y0254300D01*
X0174300Y0251800D01*
X0176800Y0249300D01*
X0176800Y0244300D01*
X0174300Y0241800D01*
X0176800Y0239300D01*
X0176800Y0234300D01*
X0174300Y0231800D01*
X0176800Y0229300D01*
X0176800Y0224300D01*
X0174300Y0221800D01*
X0169300Y0221800D01*
X0166800Y0224300D01*
X0164300Y0221800D01*
X0159300Y0221800D01*
X0155200Y0263300D02*
X0243800Y0263300D01*
X0179604Y0264250D02*
X0176601Y0264250D01*
X0178102Y0264250D02*
X0178102Y0268754D01*
X0176601Y0267253D01*
X0175000Y0268003D02*
X0175000Y0266502D01*
X0174249Y0265751D01*
X0171997Y0265751D01*
X0171997Y0264250D02*
X0171997Y0268754D01*
X0174249Y0268754D01*
X0175000Y0268003D01*
X0173498Y0265751D02*
X0175000Y0264250D01*
X0170396Y0264250D02*
X0167393Y0264250D01*
X0167393Y0268754D01*
X0170396Y0268754D01*
X0168894Y0266502D02*
X0167393Y0266502D01*
X0165792Y0268754D02*
X0162789Y0268754D01*
X0164291Y0268754D02*
X0164291Y0264250D01*
X0115445Y0264250D02*
X0112443Y0264250D01*
X0112443Y0268754D01*
X0115445Y0268754D01*
X0113944Y0266502D02*
X0112443Y0266502D01*
X0110875Y0268754D02*
X0109374Y0268754D01*
X0110124Y0268754D02*
X0110124Y0264250D01*
X0109374Y0264250D02*
X0110875Y0264250D01*
X0107772Y0264250D02*
X0106271Y0265751D01*
X0107022Y0265751D02*
X0104770Y0265751D01*
X0104770Y0264250D02*
X0104770Y0268754D01*
X0107022Y0268754D01*
X0107772Y0268003D01*
X0107772Y0266502D01*
X0107022Y0265751D01*
X0103168Y0264250D02*
X0100166Y0264250D01*
X0100166Y0268754D01*
X0103168Y0268754D01*
X0101667Y0266502D02*
X0100166Y0266502D01*
X0098564Y0268754D02*
X0095562Y0268754D01*
X0097063Y0268754D02*
X0097063Y0264250D01*
X0092459Y0264250D02*
X0092459Y0268754D01*
X0090958Y0268754D02*
X0093960Y0268754D01*
X0089356Y0267253D02*
X0089356Y0264250D01*
X0089356Y0266502D02*
X0086354Y0266502D01*
X0086354Y0267253D02*
X0087855Y0268754D01*
X0089356Y0267253D01*
X0086354Y0267253D02*
X0086354Y0264250D01*
X0084753Y0265001D02*
X0084002Y0264250D01*
X0081750Y0264250D01*
X0081750Y0268754D01*
X0084002Y0268754D01*
X0084753Y0268003D01*
X0084753Y0267253D01*
X0084002Y0266502D01*
X0081750Y0266502D01*
X0084002Y0266502D02*
X0084753Y0265751D01*
X0084753Y0265001D01*
X0076524Y0253650D02*
X0017076Y0253650D01*
X0017076Y0277272D01*
X0076524Y0277272D01*
X0076524Y0253650D01*
X0076524Y0246957D01*
X0017076Y0246957D01*
X0017076Y0253650D01*
X0009350Y0216238D02*
X0009350Y0213235D01*
X0004846Y0213235D01*
X0004846Y0216238D01*
X0007098Y0214736D02*
X0007098Y0213235D01*
X0007098Y0211634D02*
X0005597Y0211634D01*
X0004846Y0210883D01*
X0004846Y0208631D01*
X0009350Y0208631D01*
X0007849Y0208631D02*
X0007849Y0210883D01*
X0007098Y0211634D01*
X0007849Y0210132D02*
X0009350Y0211634D01*
X0009350Y0207063D02*
X0009350Y0205562D01*
X0009350Y0206312D02*
X0004846Y0206312D01*
X0004846Y0205562D02*
X0004846Y0207063D01*
X0004846Y0203960D02*
X0009350Y0203960D01*
X0007849Y0202459D01*
X0009350Y0200958D01*
X0004846Y0200958D01*
X0007098Y0199356D02*
X0007098Y0196354D01*
X0009350Y0194753D02*
X0009350Y0191750D01*
X0009350Y0193251D02*
X0004846Y0193251D01*
X0006347Y0191750D01*
X0060050Y0203050D02*
X0060050Y0207554D01*
X0062302Y0207554D01*
X0063053Y0206803D01*
X0063053Y0205302D01*
X0062302Y0204551D01*
X0060050Y0204551D01*
X0061551Y0204551D02*
X0063053Y0203050D01*
X0064654Y0203050D02*
X0067656Y0206053D01*
X0067656Y0206803D01*
X0066906Y0207554D01*
X0065405Y0207554D01*
X0064654Y0206803D01*
X0064654Y0203050D02*
X0067656Y0203050D01*
X0067656Y0223050D02*
X0064654Y0223050D01*
X0066155Y0223050D02*
X0066155Y0227554D01*
X0064654Y0226053D01*
X0063053Y0226803D02*
X0063053Y0225302D01*
X0062302Y0224551D01*
X0060050Y0224551D01*
X0060050Y0223050D02*
X0060050Y0227554D01*
X0062302Y0227554D01*
X0063053Y0226803D01*
X0061551Y0224551D02*
X0063053Y0223050D01*
X0064300Y0116800D02*
X0059300Y0116800D01*
X0056800Y0114300D01*
X0054300Y0116800D01*
X0049300Y0116800D01*
X0046800Y0114300D01*
X0044300Y0116800D01*
X0039300Y0116800D01*
X0036800Y0114300D01*
X0036800Y0109300D01*
X0039300Y0106800D01*
X0064300Y0116800D02*
X0066800Y0114300D01*
X0069300Y0116800D01*
X0074300Y0116800D01*
X0076800Y0114300D01*
X0079300Y0116800D01*
X0084300Y0116800D01*
X0086800Y0114300D01*
X0089300Y0116800D01*
X0094300Y0116800D01*
X0096800Y0114300D01*
X0099300Y0116800D01*
X0104300Y0116800D01*
X0106800Y0114300D01*
X0109300Y0116800D01*
X0114300Y0116800D01*
X0116800Y0114300D01*
X0119300Y0116800D01*
X0124300Y0116800D01*
X0126800Y0114300D01*
X0129300Y0116800D01*
X0134300Y0116800D01*
X0136800Y0114300D01*
X0139300Y0116800D01*
X0144300Y0116800D01*
X0146800Y0114300D01*
X0149300Y0116800D01*
X0154300Y0116800D01*
X0156800Y0114300D01*
X0156800Y0109300D02*
X0154300Y0106800D01*
X0163571Y0089354D02*
X0162820Y0088603D01*
X0162820Y0085601D01*
X0163571Y0084850D01*
X0165072Y0084850D01*
X0165823Y0085601D01*
X0165823Y0088603D01*
X0165072Y0089354D01*
X0163571Y0089354D01*
X0167424Y0089354D02*
X0167424Y0085601D01*
X0168175Y0084850D01*
X0169676Y0084850D01*
X0170427Y0085601D01*
X0170427Y0089354D01*
X0172028Y0089354D02*
X0175031Y0089354D01*
X0173530Y0089354D02*
X0173530Y0084850D01*
X0176632Y0087102D02*
X0179635Y0087102D01*
X0181236Y0088603D02*
X0181987Y0089354D01*
X0183488Y0089354D01*
X0184239Y0088603D01*
X0184239Y0087853D01*
X0183488Y0087102D01*
X0184239Y0086351D01*
X0184239Y0085601D01*
X0183488Y0084850D01*
X0181987Y0084850D01*
X0181236Y0085601D01*
X0182737Y0087102D02*
X0183488Y0087102D01*
X0185840Y0085601D02*
X0186591Y0085601D01*
X0186591Y0084850D01*
X0185840Y0084850D01*
X0185840Y0085601D01*
X0188142Y0085601D02*
X0188893Y0084850D01*
X0190394Y0084850D01*
X0191145Y0085601D01*
X0191145Y0086351D01*
X0190394Y0087102D01*
X0189643Y0087102D01*
X0190394Y0087102D02*
X0191145Y0087853D01*
X0191145Y0088603D01*
X0190394Y0089354D01*
X0188893Y0089354D01*
X0188142Y0088603D01*
X0192746Y0089354D02*
X0192746Y0086351D01*
X0194247Y0084850D01*
X0195749Y0086351D01*
X0195749Y0089354D01*
X0216800Y0079300D02*
X0216800Y0074300D01*
X0219300Y0071800D01*
X0216800Y0069300D01*
X0216800Y0064300D01*
X0219300Y0061800D01*
X0216800Y0059300D01*
X0216800Y0054300D01*
X0219300Y0051800D01*
X0224300Y0051800D01*
X0226800Y0054300D01*
X0226800Y0059300D01*
X0224300Y0061800D01*
X0226800Y0064300D01*
X0226800Y0069300D01*
X0224300Y0071800D01*
X0226800Y0074300D01*
X0226800Y0079300D01*
X0224300Y0081800D01*
X0219300Y0081800D01*
X0216800Y0079300D01*
X0216524Y0112076D02*
X0307076Y0112076D01*
X0307076Y0021524D01*
X0216524Y0021524D01*
X0216524Y0112076D01*
X0213800Y0130800D02*
X0309800Y0130800D01*
X0309800Y0002800D01*
X0213800Y0002800D01*
X0213800Y0130800D01*
X0261800Y0071800D02*
X0261800Y0061800D01*
X0216524Y0066800D02*
X0216538Y0067911D01*
X0216579Y0069022D01*
X0216647Y0070131D01*
X0216742Y0071238D01*
X0216864Y0072342D01*
X0217014Y0073443D01*
X0217191Y0074540D01*
X0217394Y0075633D01*
X0217624Y0076720D01*
X0217881Y0077801D01*
X0218164Y0078876D01*
X0218474Y0079943D01*
X0218809Y0081002D01*
X0219171Y0082053D01*
X0219558Y0083095D01*
X0219970Y0084126D01*
X0220408Y0085148D01*
X0220871Y0086158D01*
X0221358Y0087157D01*
X0221870Y0088143D01*
X0222406Y0089116D01*
X0222965Y0090077D01*
X0223548Y0091023D01*
X0224154Y0091954D01*
X0224783Y0092870D01*
X0225434Y0093771D01*
X0226107Y0094655D01*
X0226801Y0095523D01*
X0227517Y0096373D01*
X0228253Y0097206D01*
X0229009Y0098020D01*
X0229785Y0098815D01*
X0230580Y0099591D01*
X0231394Y0100347D01*
X0232227Y0101083D01*
X0233077Y0101799D01*
X0233945Y0102493D01*
X0234829Y0103166D01*
X0235730Y0103817D01*
X0236646Y0104446D01*
X0237577Y0105052D01*
X0238523Y0105635D01*
X0239484Y0106194D01*
X0240457Y0106730D01*
X0241443Y0107242D01*
X0242442Y0107729D01*
X0243452Y0108192D01*
X0244474Y0108630D01*
X0245505Y0109042D01*
X0246547Y0109429D01*
X0247598Y0109791D01*
X0248657Y0110126D01*
X0249724Y0110436D01*
X0250799Y0110719D01*
X0251880Y0110976D01*
X0252967Y0111206D01*
X0254060Y0111409D01*
X0255157Y0111586D01*
X0256258Y0111736D01*
X0257362Y0111858D01*
X0258469Y0111953D01*
X0259578Y0112021D01*
X0260689Y0112062D01*
X0261800Y0112076D01*
X0262911Y0112062D01*
X0264022Y0112021D01*
X0265131Y0111953D01*
X0266238Y0111858D01*
X0267342Y0111736D01*
X0268443Y0111586D01*
X0269540Y0111409D01*
X0270633Y0111206D01*
X0271720Y0110976D01*
X0272801Y0110719D01*
X0273876Y0110436D01*
X0274943Y0110126D01*
X0276002Y0109791D01*
X0277053Y0109429D01*
X0278095Y0109042D01*
X0279126Y0108630D01*
X0280148Y0108192D01*
X0281158Y0107729D01*
X0282157Y0107242D01*
X0283143Y0106730D01*
X0284116Y0106194D01*
X0285077Y0105635D01*
X0286023Y0105052D01*
X0286954Y0104446D01*
X0287870Y0103817D01*
X0288771Y0103166D01*
X0289655Y0102493D01*
X0290523Y0101799D01*
X0291373Y0101083D01*
X0292206Y0100347D01*
X0293020Y0099591D01*
X0293815Y0098815D01*
X0294591Y0098020D01*
X0295347Y0097206D01*
X0296083Y0096373D01*
X0296799Y0095523D01*
X0297493Y0094655D01*
X0298166Y0093771D01*
X0298817Y0092870D01*
X0299446Y0091954D01*
X0300052Y0091023D01*
X0300635Y0090077D01*
X0301194Y0089116D01*
X0301730Y0088143D01*
X0302242Y0087157D01*
X0302729Y0086158D01*
X0303192Y0085148D01*
X0303630Y0084126D01*
X0304042Y0083095D01*
X0304429Y0082053D01*
X0304791Y0081002D01*
X0305126Y0079943D01*
X0305436Y0078876D01*
X0305719Y0077801D01*
X0305976Y0076720D01*
X0306206Y0075633D01*
X0306409Y0074540D01*
X0306586Y0073443D01*
X0306736Y0072342D01*
X0306858Y0071238D01*
X0306953Y0070131D01*
X0307021Y0069022D01*
X0307062Y0067911D01*
X0307076Y0066800D01*
X0307062Y0065689D01*
X0307021Y0064578D01*
X0306953Y0063469D01*
X0306858Y0062362D01*
X0306736Y0061258D01*
X0306586Y0060157D01*
X0306409Y0059060D01*
X0306206Y0057967D01*
X0305976Y0056880D01*
X0305719Y0055799D01*
X0305436Y0054724D01*
X0305126Y0053657D01*
X0304791Y0052598D01*
X0304429Y0051547D01*
X0304042Y0050505D01*
X0303630Y0049474D01*
X0303192Y0048452D01*
X0302729Y0047442D01*
X0302242Y0046443D01*
X0301730Y0045457D01*
X0301194Y0044484D01*
X0300635Y0043523D01*
X0300052Y0042577D01*
X0299446Y0041646D01*
X0298817Y0040730D01*
X0298166Y0039829D01*
X0297493Y0038945D01*
X0296799Y0038077D01*
X0296083Y0037227D01*
X0295347Y0036394D01*
X0294591Y0035580D01*
X0293815Y0034785D01*
X0293020Y0034009D01*
X0292206Y0033253D01*
X0291373Y0032517D01*
X0290523Y0031801D01*
X0289655Y0031107D01*
X0288771Y0030434D01*
X0287870Y0029783D01*
X0286954Y0029154D01*
X0286023Y0028548D01*
X0285077Y0027965D01*
X0284116Y0027406D01*
X0283143Y0026870D01*
X0282157Y0026358D01*
X0281158Y0025871D01*
X0280148Y0025408D01*
X0279126Y0024970D01*
X0278095Y0024558D01*
X0277053Y0024171D01*
X0276002Y0023809D01*
X0274943Y0023474D01*
X0273876Y0023164D01*
X0272801Y0022881D01*
X0271720Y0022624D01*
X0270633Y0022394D01*
X0269540Y0022191D01*
X0268443Y0022014D01*
X0267342Y0021864D01*
X0266238Y0021742D01*
X0265131Y0021647D01*
X0264022Y0021579D01*
X0262911Y0021538D01*
X0261800Y0021524D01*
X0260689Y0021538D01*
X0259578Y0021579D01*
X0258469Y0021647D01*
X0257362Y0021742D01*
X0256258Y0021864D01*
X0255157Y0022014D01*
X0254060Y0022191D01*
X0252967Y0022394D01*
X0251880Y0022624D01*
X0250799Y0022881D01*
X0249724Y0023164D01*
X0248657Y0023474D01*
X0247598Y0023809D01*
X0246547Y0024171D01*
X0245505Y0024558D01*
X0244474Y0024970D01*
X0243452Y0025408D01*
X0242442Y0025871D01*
X0241443Y0026358D01*
X0240457Y0026870D01*
X0239484Y0027406D01*
X0238523Y0027965D01*
X0237577Y0028548D01*
X0236646Y0029154D01*
X0235730Y0029783D01*
X0234829Y0030434D01*
X0233945Y0031107D01*
X0233077Y0031801D01*
X0232227Y0032517D01*
X0231394Y0033253D01*
X0230580Y0034009D01*
X0229785Y0034785D01*
X0229009Y0035580D01*
X0228253Y0036394D01*
X0227517Y0037227D01*
X0226801Y0038077D01*
X0226107Y0038945D01*
X0225434Y0039829D01*
X0224783Y0040730D01*
X0224154Y0041646D01*
X0223548Y0042577D01*
X0222965Y0043523D01*
X0222406Y0044484D01*
X0221870Y0045457D01*
X0221358Y0046443D01*
X0220871Y0047442D01*
X0220408Y0048452D01*
X0219970Y0049474D01*
X0219558Y0050505D01*
X0219171Y0051547D01*
X0218809Y0052598D01*
X0218474Y0053657D01*
X0218164Y0054724D01*
X0217881Y0055799D01*
X0217624Y0056880D01*
X0217394Y0057967D01*
X0217191Y0059060D01*
X0217014Y0060157D01*
X0216864Y0061258D01*
X0216742Y0062362D01*
X0216647Y0063469D01*
X0216579Y0064578D01*
X0216538Y0065689D01*
X0216524Y0066800D01*
X0256800Y0066800D02*
X0266800Y0066800D01*
X0205749Y0008603D02*
X0204998Y0009354D01*
X0202746Y0009354D01*
X0202746Y0004850D01*
X0202746Y0006351D02*
X0204998Y0006351D01*
X0205749Y0007102D01*
X0205749Y0008603D01*
X0204247Y0006351D02*
X0205749Y0004850D01*
X0201145Y0004850D02*
X0198142Y0004850D01*
X0198142Y0009354D01*
X0201145Y0009354D01*
X0199643Y0007102D02*
X0198142Y0007102D01*
X0196541Y0009354D02*
X0193538Y0009354D01*
X0195039Y0009354D02*
X0195039Y0004850D01*
X0191937Y0004850D02*
X0188934Y0004850D01*
X0188934Y0009354D01*
X0187333Y0007853D02*
X0187333Y0004850D01*
X0187333Y0007102D02*
X0184330Y0007102D01*
X0184330Y0007853D02*
X0185832Y0009354D01*
X0187333Y0007853D01*
X0184330Y0007853D02*
X0184330Y0004850D01*
X0182729Y0004850D02*
X0182729Y0009354D01*
X0182729Y0007102D02*
X0179726Y0007102D01*
X0178125Y0008603D02*
X0177374Y0009354D01*
X0175873Y0009354D01*
X0175122Y0008603D01*
X0175122Y0005601D01*
X0175873Y0004850D01*
X0177374Y0004850D01*
X0178125Y0005601D01*
X0179726Y0004850D02*
X0179726Y0009354D01*
X0173521Y0008603D02*
X0172770Y0009354D01*
X0171269Y0009354D01*
X0170518Y0008603D01*
X0170518Y0007853D01*
X0171269Y0007102D01*
X0172770Y0007102D01*
X0173521Y0006351D01*
X0173521Y0005601D01*
X0172770Y0004850D01*
X0171269Y0004850D01*
X0170518Y0005601D01*
X0168917Y0007102D02*
X0165915Y0007102D01*
X0164313Y0008603D02*
X0163563Y0009354D01*
X0161311Y0009354D01*
X0161311Y0004850D01*
X0163563Y0004850D01*
X0164313Y0005601D01*
X0164313Y0008603D01*
X0159709Y0009354D02*
X0156707Y0009354D01*
X0156707Y0004850D01*
X0159709Y0004850D01*
X0158208Y0007102D02*
X0156707Y0007102D01*
X0155105Y0009354D02*
X0152103Y0009354D01*
X0152103Y0004850D01*
X0155105Y0004850D01*
X0153604Y0007102D02*
X0152103Y0007102D01*
X0150501Y0007102D02*
X0149751Y0006351D01*
X0147499Y0006351D01*
X0147499Y0004850D02*
X0147499Y0009354D01*
X0149751Y0009354D01*
X0150501Y0008603D01*
X0150501Y0007102D01*
X0149000Y0006351D02*
X0150501Y0004850D01*
X0145749Y0005601D02*
X0145749Y0008603D01*
X0142746Y0005601D01*
X0143497Y0004850D01*
X0144998Y0004850D01*
X0145749Y0005601D01*
X0145749Y0008603D02*
X0144998Y0009354D01*
X0143497Y0009354D01*
X0142746Y0008603D01*
X0142746Y0005601D01*
X0141145Y0005601D02*
X0140394Y0004850D01*
X0138893Y0004850D01*
X0138142Y0005601D01*
X0138142Y0007102D02*
X0139643Y0007853D01*
X0140394Y0007853D01*
X0141145Y0007102D01*
X0141145Y0005601D01*
X0138142Y0007102D02*
X0138142Y0009354D01*
X0141145Y0009354D01*
X0136541Y0009354D02*
X0136541Y0008603D01*
X0133538Y0005601D01*
X0133538Y0004850D01*
X0131937Y0004850D02*
X0128934Y0004850D01*
X0130436Y0004850D02*
X0130436Y0009354D01*
X0128934Y0007853D01*
X0127333Y0007102D02*
X0124330Y0007102D01*
X0122729Y0007853D02*
X0121978Y0007102D01*
X0119726Y0007102D01*
X0119726Y0004850D02*
X0119726Y0009354D01*
X0121978Y0009354D01*
X0122729Y0008603D01*
X0122729Y0007853D01*
X0121978Y0007102D02*
X0122729Y0006351D01*
X0122729Y0005601D01*
X0121978Y0004850D01*
X0119726Y0004850D01*
X0124330Y0004850D02*
X0124330Y0009354D01*
X0127333Y0009354D02*
X0127333Y0004850D01*
X0133538Y0009354D02*
X0136541Y0009354D01*
X0070749Y0008603D02*
X0070749Y0005601D01*
X0069998Y0004850D01*
X0068497Y0004850D01*
X0067746Y0005601D01*
X0070749Y0008603D01*
X0069998Y0009354D01*
X0068497Y0009354D01*
X0067746Y0008603D01*
X0067746Y0005601D01*
X0066145Y0005601D02*
X0065394Y0004850D01*
X0063893Y0004850D01*
X0063142Y0005601D01*
X0063142Y0006351D01*
X0063893Y0007102D01*
X0065394Y0007102D01*
X0066145Y0006351D01*
X0066145Y0005601D01*
X0065394Y0007102D02*
X0066145Y0007853D01*
X0066145Y0008603D01*
X0065394Y0009354D01*
X0063893Y0009354D01*
X0063142Y0008603D01*
X0063142Y0007853D01*
X0063893Y0007102D01*
X0061541Y0004850D02*
X0058538Y0004850D01*
X0060039Y0004850D02*
X0060039Y0009354D01*
X0058538Y0007853D01*
X0056937Y0008603D02*
X0056937Y0007102D01*
X0056186Y0006351D01*
X0053934Y0006351D01*
X0053934Y0004850D02*
X0053934Y0009354D01*
X0056186Y0009354D01*
X0056937Y0008603D01*
X0052333Y0009354D02*
X0052333Y0004850D01*
X0049330Y0004850D02*
X0049330Y0009354D01*
X0050832Y0007853D01*
X0052333Y0009354D01*
X0047729Y0008603D02*
X0047729Y0007853D01*
X0046978Y0007102D01*
X0044726Y0007102D01*
X0044726Y0004850D02*
X0044726Y0009354D01*
X0046978Y0009354D01*
X0047729Y0008603D01*
X0046978Y0007102D02*
X0047729Y0006351D01*
X0047729Y0005601D01*
X0046978Y0004850D01*
X0044726Y0004850D01*
X0009350Y0061750D02*
X0004846Y0061750D01*
X0004846Y0064002D01*
X0005597Y0064753D01*
X0006347Y0064753D01*
X0007098Y0064002D01*
X0007098Y0061750D01*
X0007098Y0064002D02*
X0007849Y0064753D01*
X0008599Y0064753D01*
X0009350Y0064002D01*
X0009350Y0061750D01*
X0008599Y0066354D02*
X0009350Y0067105D01*
X0009350Y0068606D01*
X0008599Y0069356D01*
X0005597Y0069356D01*
X0004846Y0068606D01*
X0004846Y0067105D01*
X0005597Y0066354D01*
X0008599Y0066354D01*
X0009350Y0070958D02*
X0004846Y0070958D01*
X0004846Y0073210D01*
X0005597Y0073960D01*
X0008599Y0073960D01*
X0009350Y0073210D01*
X0009350Y0070958D01*
X0009350Y0075562D02*
X0004846Y0075562D01*
X0004846Y0078564D01*
X0004846Y0080166D02*
X0009350Y0083168D01*
X0004846Y0083168D01*
X0007098Y0084770D02*
X0007098Y0087772D01*
X0007098Y0089374D02*
X0007098Y0090875D01*
X0004846Y0089374D02*
X0004846Y0092376D01*
X0004846Y0093977D02*
X0009350Y0093977D01*
X0009350Y0096980D01*
X0008599Y0098581D02*
X0009350Y0099332D01*
X0009350Y0100833D01*
X0008599Y0101584D01*
X0004846Y0101584D01*
X0005597Y0103185D02*
X0008599Y0103185D01*
X0009350Y0103936D01*
X0009350Y0105437D01*
X0008599Y0106188D01*
X0009350Y0107789D02*
X0004846Y0107789D01*
X0005597Y0106188D02*
X0004846Y0105437D01*
X0004846Y0103936D01*
X0005597Y0103185D01*
X0007098Y0107789D02*
X0007098Y0110792D01*
X0004846Y0110792D02*
X0009350Y0110792D01*
X0009350Y0113894D02*
X0004846Y0113894D01*
X0004846Y0112393D02*
X0004846Y0115396D01*
X0004846Y0098581D02*
X0008599Y0098581D01*
X0007098Y0095479D02*
X0007098Y0093977D01*
X0004846Y0093977D02*
X0004846Y0096980D01*
X0004846Y0089374D02*
X0009350Y0089374D01*
X0009350Y0080166D02*
X0004846Y0080166D01*
X0007098Y0077063D02*
X0007098Y0075562D01*
X0009350Y0075562D02*
X0009350Y0078564D01*
D17*
X0057600Y0196800D03*
X0057600Y0216800D03*
X0086000Y0216800D03*
X0086000Y0196800D03*
M02*
