%
M48
M72
T01C0.01200
T02C0.03150
T03C0.03200
T04C0.03937
T05C0.04000
T06C0.07087
T07C0.07900
T08C0.11024
%
T01
X174600Y135000
T02
X31800Y256800
X41800Y256800
X51800Y256800
X61800Y256800
T03
X51800Y196800
X51800Y216800
X91800Y216800
X91800Y196800
T04
X41800Y111800
X51800Y111800
X61800Y111800
X71800Y111800
X81800Y111800
X91800Y111800
X101800Y111800
X111800Y111800
X121800Y111800
X131800Y111800
X141800Y111800
X151800Y111800
X151800Y141800
X151800Y151800
X151800Y161800
X151800Y171800
X141800Y171800
X131800Y171800
X121800Y171800
X111800Y171800
X101800Y171800
X91800Y171800
X81800Y171800
X71800Y171800
X76800Y161800
X86800Y161800
X61800Y171800
X51800Y171800
X41800Y171800
X161800Y256800
X171800Y256800
X171800Y246800
X161800Y246800
X161800Y236800
X161800Y226800
X171800Y226800
X171800Y236800
X221800Y76800
X221800Y66800
X221800Y56800
T05
X26800Y16800
X36800Y16800
X46800Y16800
X56800Y16800
X66800Y16800
X101800Y16800
X111800Y16800
X121800Y16800
X131800Y16800
X141800Y16800
X191800Y16800
X201800Y16800
X191800Y96800
X181800Y96800
X191800Y171800
X181800Y171800
X131800Y256800
X121800Y256800
X96800Y256800
X86800Y256800
X16800Y216800
X16800Y206800
X16800Y196800
X16800Y96800
X16800Y86800
X16800Y76800
X16800Y66800
T06
X261800Y122312
X261800Y11288
T07
X246800Y146000
X246800Y161800
X246800Y177600
T08
X11800Y266800
X261800Y266800
X261800Y11800
X11800Y11800
M30
