G75*
%MOIN*%
%OFA0B0*%
%FSLAX25Y25*%
%IPPOS*%
%LPD*%
%AMOC8*
5,1,8,0,0,1.08239X$1,22.5*
%
%ADD10C,0.00000*%
D10*
X0001800Y0001800D02*
X0001800Y0276761D01*
X0270501Y0276761D01*
X0270501Y0001800D01*
X0001800Y0001800D01*
X0006288Y0011800D02*
X0006290Y0011948D01*
X0006296Y0012096D01*
X0006306Y0012244D01*
X0006320Y0012391D01*
X0006338Y0012538D01*
X0006359Y0012684D01*
X0006385Y0012830D01*
X0006415Y0012975D01*
X0006448Y0013119D01*
X0006486Y0013262D01*
X0006527Y0013404D01*
X0006572Y0013545D01*
X0006620Y0013685D01*
X0006673Y0013824D01*
X0006729Y0013961D01*
X0006789Y0014096D01*
X0006852Y0014230D01*
X0006919Y0014362D01*
X0006990Y0014492D01*
X0007064Y0014620D01*
X0007141Y0014746D01*
X0007222Y0014870D01*
X0007306Y0014992D01*
X0007393Y0015111D01*
X0007484Y0015228D01*
X0007578Y0015343D01*
X0007674Y0015455D01*
X0007774Y0015565D01*
X0007876Y0015671D01*
X0007982Y0015775D01*
X0008090Y0015876D01*
X0008201Y0015974D01*
X0008314Y0016070D01*
X0008430Y0016162D01*
X0008548Y0016251D01*
X0008669Y0016336D01*
X0008792Y0016419D01*
X0008917Y0016498D01*
X0009044Y0016574D01*
X0009173Y0016646D01*
X0009304Y0016715D01*
X0009437Y0016780D01*
X0009572Y0016841D01*
X0009708Y0016899D01*
X0009845Y0016954D01*
X0009984Y0017004D01*
X0010125Y0017051D01*
X0010266Y0017094D01*
X0010409Y0017134D01*
X0010553Y0017169D01*
X0010697Y0017201D01*
X0010843Y0017228D01*
X0010989Y0017252D01*
X0011136Y0017272D01*
X0011283Y0017288D01*
X0011430Y0017300D01*
X0011578Y0017308D01*
X0011726Y0017312D01*
X0011874Y0017312D01*
X0012022Y0017308D01*
X0012170Y0017300D01*
X0012317Y0017288D01*
X0012464Y0017272D01*
X0012611Y0017252D01*
X0012757Y0017228D01*
X0012903Y0017201D01*
X0013047Y0017169D01*
X0013191Y0017134D01*
X0013334Y0017094D01*
X0013475Y0017051D01*
X0013616Y0017004D01*
X0013755Y0016954D01*
X0013892Y0016899D01*
X0014028Y0016841D01*
X0014163Y0016780D01*
X0014296Y0016715D01*
X0014427Y0016646D01*
X0014556Y0016574D01*
X0014683Y0016498D01*
X0014808Y0016419D01*
X0014931Y0016336D01*
X0015052Y0016251D01*
X0015170Y0016162D01*
X0015286Y0016070D01*
X0015399Y0015974D01*
X0015510Y0015876D01*
X0015618Y0015775D01*
X0015724Y0015671D01*
X0015826Y0015565D01*
X0015926Y0015455D01*
X0016022Y0015343D01*
X0016116Y0015228D01*
X0016207Y0015111D01*
X0016294Y0014992D01*
X0016378Y0014870D01*
X0016459Y0014746D01*
X0016536Y0014620D01*
X0016610Y0014492D01*
X0016681Y0014362D01*
X0016748Y0014230D01*
X0016811Y0014096D01*
X0016871Y0013961D01*
X0016927Y0013824D01*
X0016980Y0013685D01*
X0017028Y0013545D01*
X0017073Y0013404D01*
X0017114Y0013262D01*
X0017152Y0013119D01*
X0017185Y0012975D01*
X0017215Y0012830D01*
X0017241Y0012684D01*
X0017262Y0012538D01*
X0017280Y0012391D01*
X0017294Y0012244D01*
X0017304Y0012096D01*
X0017310Y0011948D01*
X0017312Y0011800D01*
X0017310Y0011652D01*
X0017304Y0011504D01*
X0017294Y0011356D01*
X0017280Y0011209D01*
X0017262Y0011062D01*
X0017241Y0010916D01*
X0017215Y0010770D01*
X0017185Y0010625D01*
X0017152Y0010481D01*
X0017114Y0010338D01*
X0017073Y0010196D01*
X0017028Y0010055D01*
X0016980Y0009915D01*
X0016927Y0009776D01*
X0016871Y0009639D01*
X0016811Y0009504D01*
X0016748Y0009370D01*
X0016681Y0009238D01*
X0016610Y0009108D01*
X0016536Y0008980D01*
X0016459Y0008854D01*
X0016378Y0008730D01*
X0016294Y0008608D01*
X0016207Y0008489D01*
X0016116Y0008372D01*
X0016022Y0008257D01*
X0015926Y0008145D01*
X0015826Y0008035D01*
X0015724Y0007929D01*
X0015618Y0007825D01*
X0015510Y0007724D01*
X0015399Y0007626D01*
X0015286Y0007530D01*
X0015170Y0007438D01*
X0015052Y0007349D01*
X0014931Y0007264D01*
X0014808Y0007181D01*
X0014683Y0007102D01*
X0014556Y0007026D01*
X0014427Y0006954D01*
X0014296Y0006885D01*
X0014163Y0006820D01*
X0014028Y0006759D01*
X0013892Y0006701D01*
X0013755Y0006646D01*
X0013616Y0006596D01*
X0013475Y0006549D01*
X0013334Y0006506D01*
X0013191Y0006466D01*
X0013047Y0006431D01*
X0012903Y0006399D01*
X0012757Y0006372D01*
X0012611Y0006348D01*
X0012464Y0006328D01*
X0012317Y0006312D01*
X0012170Y0006300D01*
X0012022Y0006292D01*
X0011874Y0006288D01*
X0011726Y0006288D01*
X0011578Y0006292D01*
X0011430Y0006300D01*
X0011283Y0006312D01*
X0011136Y0006328D01*
X0010989Y0006348D01*
X0010843Y0006372D01*
X0010697Y0006399D01*
X0010553Y0006431D01*
X0010409Y0006466D01*
X0010266Y0006506D01*
X0010125Y0006549D01*
X0009984Y0006596D01*
X0009845Y0006646D01*
X0009708Y0006701D01*
X0009572Y0006759D01*
X0009437Y0006820D01*
X0009304Y0006885D01*
X0009173Y0006954D01*
X0009044Y0007026D01*
X0008917Y0007102D01*
X0008792Y0007181D01*
X0008669Y0007264D01*
X0008548Y0007349D01*
X0008430Y0007438D01*
X0008314Y0007530D01*
X0008201Y0007626D01*
X0008090Y0007724D01*
X0007982Y0007825D01*
X0007876Y0007929D01*
X0007774Y0008035D01*
X0007674Y0008145D01*
X0007578Y0008257D01*
X0007484Y0008372D01*
X0007393Y0008489D01*
X0007306Y0008608D01*
X0007222Y0008730D01*
X0007141Y0008854D01*
X0007064Y0008980D01*
X0006990Y0009108D01*
X0006919Y0009238D01*
X0006852Y0009370D01*
X0006789Y0009504D01*
X0006729Y0009639D01*
X0006673Y0009776D01*
X0006620Y0009915D01*
X0006572Y0010055D01*
X0006527Y0010196D01*
X0006486Y0010338D01*
X0006448Y0010481D01*
X0006415Y0010625D01*
X0006385Y0010770D01*
X0006359Y0010916D01*
X0006338Y0011062D01*
X0006320Y0011209D01*
X0006306Y0011356D01*
X0006296Y0011504D01*
X0006290Y0011652D01*
X0006288Y0011800D01*
X0256288Y0011800D02*
X0256290Y0011948D01*
X0256296Y0012096D01*
X0256306Y0012244D01*
X0256320Y0012391D01*
X0256338Y0012538D01*
X0256359Y0012684D01*
X0256385Y0012830D01*
X0256415Y0012975D01*
X0256448Y0013119D01*
X0256486Y0013262D01*
X0256527Y0013404D01*
X0256572Y0013545D01*
X0256620Y0013685D01*
X0256673Y0013824D01*
X0256729Y0013961D01*
X0256789Y0014096D01*
X0256852Y0014230D01*
X0256919Y0014362D01*
X0256990Y0014492D01*
X0257064Y0014620D01*
X0257141Y0014746D01*
X0257222Y0014870D01*
X0257306Y0014992D01*
X0257393Y0015111D01*
X0257484Y0015228D01*
X0257578Y0015343D01*
X0257674Y0015455D01*
X0257774Y0015565D01*
X0257876Y0015671D01*
X0257982Y0015775D01*
X0258090Y0015876D01*
X0258201Y0015974D01*
X0258314Y0016070D01*
X0258430Y0016162D01*
X0258548Y0016251D01*
X0258669Y0016336D01*
X0258792Y0016419D01*
X0258917Y0016498D01*
X0259044Y0016574D01*
X0259173Y0016646D01*
X0259304Y0016715D01*
X0259437Y0016780D01*
X0259572Y0016841D01*
X0259708Y0016899D01*
X0259845Y0016954D01*
X0259984Y0017004D01*
X0260125Y0017051D01*
X0260266Y0017094D01*
X0260409Y0017134D01*
X0260553Y0017169D01*
X0260697Y0017201D01*
X0260843Y0017228D01*
X0260989Y0017252D01*
X0261136Y0017272D01*
X0261283Y0017288D01*
X0261430Y0017300D01*
X0261578Y0017308D01*
X0261726Y0017312D01*
X0261874Y0017312D01*
X0262022Y0017308D01*
X0262170Y0017300D01*
X0262317Y0017288D01*
X0262464Y0017272D01*
X0262611Y0017252D01*
X0262757Y0017228D01*
X0262903Y0017201D01*
X0263047Y0017169D01*
X0263191Y0017134D01*
X0263334Y0017094D01*
X0263475Y0017051D01*
X0263616Y0017004D01*
X0263755Y0016954D01*
X0263892Y0016899D01*
X0264028Y0016841D01*
X0264163Y0016780D01*
X0264296Y0016715D01*
X0264427Y0016646D01*
X0264556Y0016574D01*
X0264683Y0016498D01*
X0264808Y0016419D01*
X0264931Y0016336D01*
X0265052Y0016251D01*
X0265170Y0016162D01*
X0265286Y0016070D01*
X0265399Y0015974D01*
X0265510Y0015876D01*
X0265618Y0015775D01*
X0265724Y0015671D01*
X0265826Y0015565D01*
X0265926Y0015455D01*
X0266022Y0015343D01*
X0266116Y0015228D01*
X0266207Y0015111D01*
X0266294Y0014992D01*
X0266378Y0014870D01*
X0266459Y0014746D01*
X0266536Y0014620D01*
X0266610Y0014492D01*
X0266681Y0014362D01*
X0266748Y0014230D01*
X0266811Y0014096D01*
X0266871Y0013961D01*
X0266927Y0013824D01*
X0266980Y0013685D01*
X0267028Y0013545D01*
X0267073Y0013404D01*
X0267114Y0013262D01*
X0267152Y0013119D01*
X0267185Y0012975D01*
X0267215Y0012830D01*
X0267241Y0012684D01*
X0267262Y0012538D01*
X0267280Y0012391D01*
X0267294Y0012244D01*
X0267304Y0012096D01*
X0267310Y0011948D01*
X0267312Y0011800D01*
X0267310Y0011652D01*
X0267304Y0011504D01*
X0267294Y0011356D01*
X0267280Y0011209D01*
X0267262Y0011062D01*
X0267241Y0010916D01*
X0267215Y0010770D01*
X0267185Y0010625D01*
X0267152Y0010481D01*
X0267114Y0010338D01*
X0267073Y0010196D01*
X0267028Y0010055D01*
X0266980Y0009915D01*
X0266927Y0009776D01*
X0266871Y0009639D01*
X0266811Y0009504D01*
X0266748Y0009370D01*
X0266681Y0009238D01*
X0266610Y0009108D01*
X0266536Y0008980D01*
X0266459Y0008854D01*
X0266378Y0008730D01*
X0266294Y0008608D01*
X0266207Y0008489D01*
X0266116Y0008372D01*
X0266022Y0008257D01*
X0265926Y0008145D01*
X0265826Y0008035D01*
X0265724Y0007929D01*
X0265618Y0007825D01*
X0265510Y0007724D01*
X0265399Y0007626D01*
X0265286Y0007530D01*
X0265170Y0007438D01*
X0265052Y0007349D01*
X0264931Y0007264D01*
X0264808Y0007181D01*
X0264683Y0007102D01*
X0264556Y0007026D01*
X0264427Y0006954D01*
X0264296Y0006885D01*
X0264163Y0006820D01*
X0264028Y0006759D01*
X0263892Y0006701D01*
X0263755Y0006646D01*
X0263616Y0006596D01*
X0263475Y0006549D01*
X0263334Y0006506D01*
X0263191Y0006466D01*
X0263047Y0006431D01*
X0262903Y0006399D01*
X0262757Y0006372D01*
X0262611Y0006348D01*
X0262464Y0006328D01*
X0262317Y0006312D01*
X0262170Y0006300D01*
X0262022Y0006292D01*
X0261874Y0006288D01*
X0261726Y0006288D01*
X0261578Y0006292D01*
X0261430Y0006300D01*
X0261283Y0006312D01*
X0261136Y0006328D01*
X0260989Y0006348D01*
X0260843Y0006372D01*
X0260697Y0006399D01*
X0260553Y0006431D01*
X0260409Y0006466D01*
X0260266Y0006506D01*
X0260125Y0006549D01*
X0259984Y0006596D01*
X0259845Y0006646D01*
X0259708Y0006701D01*
X0259572Y0006759D01*
X0259437Y0006820D01*
X0259304Y0006885D01*
X0259173Y0006954D01*
X0259044Y0007026D01*
X0258917Y0007102D01*
X0258792Y0007181D01*
X0258669Y0007264D01*
X0258548Y0007349D01*
X0258430Y0007438D01*
X0258314Y0007530D01*
X0258201Y0007626D01*
X0258090Y0007724D01*
X0257982Y0007825D01*
X0257876Y0007929D01*
X0257774Y0008035D01*
X0257674Y0008145D01*
X0257578Y0008257D01*
X0257484Y0008372D01*
X0257393Y0008489D01*
X0257306Y0008608D01*
X0257222Y0008730D01*
X0257141Y0008854D01*
X0257064Y0008980D01*
X0256990Y0009108D01*
X0256919Y0009238D01*
X0256852Y0009370D01*
X0256789Y0009504D01*
X0256729Y0009639D01*
X0256673Y0009776D01*
X0256620Y0009915D01*
X0256572Y0010055D01*
X0256527Y0010196D01*
X0256486Y0010338D01*
X0256448Y0010481D01*
X0256415Y0010625D01*
X0256385Y0010770D01*
X0256359Y0010916D01*
X0256338Y0011062D01*
X0256320Y0011209D01*
X0256306Y0011356D01*
X0256296Y0011504D01*
X0256290Y0011652D01*
X0256288Y0011800D01*
X0258257Y0011288D02*
X0258259Y0011406D01*
X0258265Y0011525D01*
X0258275Y0011643D01*
X0258289Y0011760D01*
X0258306Y0011877D01*
X0258328Y0011994D01*
X0258354Y0012109D01*
X0258383Y0012224D01*
X0258416Y0012338D01*
X0258453Y0012450D01*
X0258494Y0012561D01*
X0258538Y0012671D01*
X0258586Y0012779D01*
X0258638Y0012886D01*
X0258693Y0012991D01*
X0258752Y0013094D01*
X0258814Y0013194D01*
X0258879Y0013293D01*
X0258948Y0013390D01*
X0259019Y0013484D01*
X0259094Y0013575D01*
X0259172Y0013665D01*
X0259253Y0013751D01*
X0259337Y0013835D01*
X0259423Y0013916D01*
X0259513Y0013994D01*
X0259604Y0014069D01*
X0259698Y0014140D01*
X0259795Y0014209D01*
X0259894Y0014274D01*
X0259994Y0014336D01*
X0260097Y0014395D01*
X0260202Y0014450D01*
X0260309Y0014502D01*
X0260417Y0014550D01*
X0260527Y0014594D01*
X0260638Y0014635D01*
X0260750Y0014672D01*
X0260864Y0014705D01*
X0260979Y0014734D01*
X0261094Y0014760D01*
X0261211Y0014782D01*
X0261328Y0014799D01*
X0261445Y0014813D01*
X0261563Y0014823D01*
X0261682Y0014829D01*
X0261800Y0014831D01*
X0261918Y0014829D01*
X0262037Y0014823D01*
X0262155Y0014813D01*
X0262272Y0014799D01*
X0262389Y0014782D01*
X0262506Y0014760D01*
X0262621Y0014734D01*
X0262736Y0014705D01*
X0262850Y0014672D01*
X0262962Y0014635D01*
X0263073Y0014594D01*
X0263183Y0014550D01*
X0263291Y0014502D01*
X0263398Y0014450D01*
X0263503Y0014395D01*
X0263606Y0014336D01*
X0263706Y0014274D01*
X0263805Y0014209D01*
X0263902Y0014140D01*
X0263996Y0014069D01*
X0264087Y0013994D01*
X0264177Y0013916D01*
X0264263Y0013835D01*
X0264347Y0013751D01*
X0264428Y0013665D01*
X0264506Y0013575D01*
X0264581Y0013484D01*
X0264652Y0013390D01*
X0264721Y0013293D01*
X0264786Y0013194D01*
X0264848Y0013094D01*
X0264907Y0012991D01*
X0264962Y0012886D01*
X0265014Y0012779D01*
X0265062Y0012671D01*
X0265106Y0012561D01*
X0265147Y0012450D01*
X0265184Y0012338D01*
X0265217Y0012224D01*
X0265246Y0012109D01*
X0265272Y0011994D01*
X0265294Y0011877D01*
X0265311Y0011760D01*
X0265325Y0011643D01*
X0265335Y0011525D01*
X0265341Y0011406D01*
X0265343Y0011288D01*
X0265341Y0011170D01*
X0265335Y0011051D01*
X0265325Y0010933D01*
X0265311Y0010816D01*
X0265294Y0010699D01*
X0265272Y0010582D01*
X0265246Y0010467D01*
X0265217Y0010352D01*
X0265184Y0010238D01*
X0265147Y0010126D01*
X0265106Y0010015D01*
X0265062Y0009905D01*
X0265014Y0009797D01*
X0264962Y0009690D01*
X0264907Y0009585D01*
X0264848Y0009482D01*
X0264786Y0009382D01*
X0264721Y0009283D01*
X0264652Y0009186D01*
X0264581Y0009092D01*
X0264506Y0009001D01*
X0264428Y0008911D01*
X0264347Y0008825D01*
X0264263Y0008741D01*
X0264177Y0008660D01*
X0264087Y0008582D01*
X0263996Y0008507D01*
X0263902Y0008436D01*
X0263805Y0008367D01*
X0263706Y0008302D01*
X0263606Y0008240D01*
X0263503Y0008181D01*
X0263398Y0008126D01*
X0263291Y0008074D01*
X0263183Y0008026D01*
X0263073Y0007982D01*
X0262962Y0007941D01*
X0262850Y0007904D01*
X0262736Y0007871D01*
X0262621Y0007842D01*
X0262506Y0007816D01*
X0262389Y0007794D01*
X0262272Y0007777D01*
X0262155Y0007763D01*
X0262037Y0007753D01*
X0261918Y0007747D01*
X0261800Y0007745D01*
X0261682Y0007747D01*
X0261563Y0007753D01*
X0261445Y0007763D01*
X0261328Y0007777D01*
X0261211Y0007794D01*
X0261094Y0007816D01*
X0260979Y0007842D01*
X0260864Y0007871D01*
X0260750Y0007904D01*
X0260638Y0007941D01*
X0260527Y0007982D01*
X0260417Y0008026D01*
X0260309Y0008074D01*
X0260202Y0008126D01*
X0260097Y0008181D01*
X0259994Y0008240D01*
X0259894Y0008302D01*
X0259795Y0008367D01*
X0259698Y0008436D01*
X0259604Y0008507D01*
X0259513Y0008582D01*
X0259423Y0008660D01*
X0259337Y0008741D01*
X0259253Y0008825D01*
X0259172Y0008911D01*
X0259094Y0009001D01*
X0259019Y0009092D01*
X0258948Y0009186D01*
X0258879Y0009283D01*
X0258814Y0009382D01*
X0258752Y0009482D01*
X0258693Y0009585D01*
X0258638Y0009690D01*
X0258586Y0009797D01*
X0258538Y0009905D01*
X0258494Y0010015D01*
X0258453Y0010126D01*
X0258416Y0010238D01*
X0258383Y0010352D01*
X0258354Y0010467D01*
X0258328Y0010582D01*
X0258306Y0010699D01*
X0258289Y0010816D01*
X0258275Y0010933D01*
X0258265Y0011051D01*
X0258259Y0011170D01*
X0258257Y0011288D01*
X0258257Y0122312D02*
X0258259Y0122430D01*
X0258265Y0122549D01*
X0258275Y0122667D01*
X0258289Y0122784D01*
X0258306Y0122901D01*
X0258328Y0123018D01*
X0258354Y0123133D01*
X0258383Y0123248D01*
X0258416Y0123362D01*
X0258453Y0123474D01*
X0258494Y0123585D01*
X0258538Y0123695D01*
X0258586Y0123803D01*
X0258638Y0123910D01*
X0258693Y0124015D01*
X0258752Y0124118D01*
X0258814Y0124218D01*
X0258879Y0124317D01*
X0258948Y0124414D01*
X0259019Y0124508D01*
X0259094Y0124599D01*
X0259172Y0124689D01*
X0259253Y0124775D01*
X0259337Y0124859D01*
X0259423Y0124940D01*
X0259513Y0125018D01*
X0259604Y0125093D01*
X0259698Y0125164D01*
X0259795Y0125233D01*
X0259894Y0125298D01*
X0259994Y0125360D01*
X0260097Y0125419D01*
X0260202Y0125474D01*
X0260309Y0125526D01*
X0260417Y0125574D01*
X0260527Y0125618D01*
X0260638Y0125659D01*
X0260750Y0125696D01*
X0260864Y0125729D01*
X0260979Y0125758D01*
X0261094Y0125784D01*
X0261211Y0125806D01*
X0261328Y0125823D01*
X0261445Y0125837D01*
X0261563Y0125847D01*
X0261682Y0125853D01*
X0261800Y0125855D01*
X0261918Y0125853D01*
X0262037Y0125847D01*
X0262155Y0125837D01*
X0262272Y0125823D01*
X0262389Y0125806D01*
X0262506Y0125784D01*
X0262621Y0125758D01*
X0262736Y0125729D01*
X0262850Y0125696D01*
X0262962Y0125659D01*
X0263073Y0125618D01*
X0263183Y0125574D01*
X0263291Y0125526D01*
X0263398Y0125474D01*
X0263503Y0125419D01*
X0263606Y0125360D01*
X0263706Y0125298D01*
X0263805Y0125233D01*
X0263902Y0125164D01*
X0263996Y0125093D01*
X0264087Y0125018D01*
X0264177Y0124940D01*
X0264263Y0124859D01*
X0264347Y0124775D01*
X0264428Y0124689D01*
X0264506Y0124599D01*
X0264581Y0124508D01*
X0264652Y0124414D01*
X0264721Y0124317D01*
X0264786Y0124218D01*
X0264848Y0124118D01*
X0264907Y0124015D01*
X0264962Y0123910D01*
X0265014Y0123803D01*
X0265062Y0123695D01*
X0265106Y0123585D01*
X0265147Y0123474D01*
X0265184Y0123362D01*
X0265217Y0123248D01*
X0265246Y0123133D01*
X0265272Y0123018D01*
X0265294Y0122901D01*
X0265311Y0122784D01*
X0265325Y0122667D01*
X0265335Y0122549D01*
X0265341Y0122430D01*
X0265343Y0122312D01*
X0265341Y0122194D01*
X0265335Y0122075D01*
X0265325Y0121957D01*
X0265311Y0121840D01*
X0265294Y0121723D01*
X0265272Y0121606D01*
X0265246Y0121491D01*
X0265217Y0121376D01*
X0265184Y0121262D01*
X0265147Y0121150D01*
X0265106Y0121039D01*
X0265062Y0120929D01*
X0265014Y0120821D01*
X0264962Y0120714D01*
X0264907Y0120609D01*
X0264848Y0120506D01*
X0264786Y0120406D01*
X0264721Y0120307D01*
X0264652Y0120210D01*
X0264581Y0120116D01*
X0264506Y0120025D01*
X0264428Y0119935D01*
X0264347Y0119849D01*
X0264263Y0119765D01*
X0264177Y0119684D01*
X0264087Y0119606D01*
X0263996Y0119531D01*
X0263902Y0119460D01*
X0263805Y0119391D01*
X0263706Y0119326D01*
X0263606Y0119264D01*
X0263503Y0119205D01*
X0263398Y0119150D01*
X0263291Y0119098D01*
X0263183Y0119050D01*
X0263073Y0119006D01*
X0262962Y0118965D01*
X0262850Y0118928D01*
X0262736Y0118895D01*
X0262621Y0118866D01*
X0262506Y0118840D01*
X0262389Y0118818D01*
X0262272Y0118801D01*
X0262155Y0118787D01*
X0262037Y0118777D01*
X0261918Y0118771D01*
X0261800Y0118769D01*
X0261682Y0118771D01*
X0261563Y0118777D01*
X0261445Y0118787D01*
X0261328Y0118801D01*
X0261211Y0118818D01*
X0261094Y0118840D01*
X0260979Y0118866D01*
X0260864Y0118895D01*
X0260750Y0118928D01*
X0260638Y0118965D01*
X0260527Y0119006D01*
X0260417Y0119050D01*
X0260309Y0119098D01*
X0260202Y0119150D01*
X0260097Y0119205D01*
X0259994Y0119264D01*
X0259894Y0119326D01*
X0259795Y0119391D01*
X0259698Y0119460D01*
X0259604Y0119531D01*
X0259513Y0119606D01*
X0259423Y0119684D01*
X0259337Y0119765D01*
X0259253Y0119849D01*
X0259172Y0119935D01*
X0259094Y0120025D01*
X0259019Y0120116D01*
X0258948Y0120210D01*
X0258879Y0120307D01*
X0258814Y0120406D01*
X0258752Y0120506D01*
X0258693Y0120609D01*
X0258638Y0120714D01*
X0258586Y0120821D01*
X0258538Y0120929D01*
X0258494Y0121039D01*
X0258453Y0121150D01*
X0258416Y0121262D01*
X0258383Y0121376D01*
X0258354Y0121491D01*
X0258328Y0121606D01*
X0258306Y0121723D01*
X0258289Y0121840D01*
X0258275Y0121957D01*
X0258265Y0122075D01*
X0258259Y0122194D01*
X0258257Y0122312D01*
X0256288Y0266800D02*
X0256290Y0266948D01*
X0256296Y0267096D01*
X0256306Y0267244D01*
X0256320Y0267391D01*
X0256338Y0267538D01*
X0256359Y0267684D01*
X0256385Y0267830D01*
X0256415Y0267975D01*
X0256448Y0268119D01*
X0256486Y0268262D01*
X0256527Y0268404D01*
X0256572Y0268545D01*
X0256620Y0268685D01*
X0256673Y0268824D01*
X0256729Y0268961D01*
X0256789Y0269096D01*
X0256852Y0269230D01*
X0256919Y0269362D01*
X0256990Y0269492D01*
X0257064Y0269620D01*
X0257141Y0269746D01*
X0257222Y0269870D01*
X0257306Y0269992D01*
X0257393Y0270111D01*
X0257484Y0270228D01*
X0257578Y0270343D01*
X0257674Y0270455D01*
X0257774Y0270565D01*
X0257876Y0270671D01*
X0257982Y0270775D01*
X0258090Y0270876D01*
X0258201Y0270974D01*
X0258314Y0271070D01*
X0258430Y0271162D01*
X0258548Y0271251D01*
X0258669Y0271336D01*
X0258792Y0271419D01*
X0258917Y0271498D01*
X0259044Y0271574D01*
X0259173Y0271646D01*
X0259304Y0271715D01*
X0259437Y0271780D01*
X0259572Y0271841D01*
X0259708Y0271899D01*
X0259845Y0271954D01*
X0259984Y0272004D01*
X0260125Y0272051D01*
X0260266Y0272094D01*
X0260409Y0272134D01*
X0260553Y0272169D01*
X0260697Y0272201D01*
X0260843Y0272228D01*
X0260989Y0272252D01*
X0261136Y0272272D01*
X0261283Y0272288D01*
X0261430Y0272300D01*
X0261578Y0272308D01*
X0261726Y0272312D01*
X0261874Y0272312D01*
X0262022Y0272308D01*
X0262170Y0272300D01*
X0262317Y0272288D01*
X0262464Y0272272D01*
X0262611Y0272252D01*
X0262757Y0272228D01*
X0262903Y0272201D01*
X0263047Y0272169D01*
X0263191Y0272134D01*
X0263334Y0272094D01*
X0263475Y0272051D01*
X0263616Y0272004D01*
X0263755Y0271954D01*
X0263892Y0271899D01*
X0264028Y0271841D01*
X0264163Y0271780D01*
X0264296Y0271715D01*
X0264427Y0271646D01*
X0264556Y0271574D01*
X0264683Y0271498D01*
X0264808Y0271419D01*
X0264931Y0271336D01*
X0265052Y0271251D01*
X0265170Y0271162D01*
X0265286Y0271070D01*
X0265399Y0270974D01*
X0265510Y0270876D01*
X0265618Y0270775D01*
X0265724Y0270671D01*
X0265826Y0270565D01*
X0265926Y0270455D01*
X0266022Y0270343D01*
X0266116Y0270228D01*
X0266207Y0270111D01*
X0266294Y0269992D01*
X0266378Y0269870D01*
X0266459Y0269746D01*
X0266536Y0269620D01*
X0266610Y0269492D01*
X0266681Y0269362D01*
X0266748Y0269230D01*
X0266811Y0269096D01*
X0266871Y0268961D01*
X0266927Y0268824D01*
X0266980Y0268685D01*
X0267028Y0268545D01*
X0267073Y0268404D01*
X0267114Y0268262D01*
X0267152Y0268119D01*
X0267185Y0267975D01*
X0267215Y0267830D01*
X0267241Y0267684D01*
X0267262Y0267538D01*
X0267280Y0267391D01*
X0267294Y0267244D01*
X0267304Y0267096D01*
X0267310Y0266948D01*
X0267312Y0266800D01*
X0267310Y0266652D01*
X0267304Y0266504D01*
X0267294Y0266356D01*
X0267280Y0266209D01*
X0267262Y0266062D01*
X0267241Y0265916D01*
X0267215Y0265770D01*
X0267185Y0265625D01*
X0267152Y0265481D01*
X0267114Y0265338D01*
X0267073Y0265196D01*
X0267028Y0265055D01*
X0266980Y0264915D01*
X0266927Y0264776D01*
X0266871Y0264639D01*
X0266811Y0264504D01*
X0266748Y0264370D01*
X0266681Y0264238D01*
X0266610Y0264108D01*
X0266536Y0263980D01*
X0266459Y0263854D01*
X0266378Y0263730D01*
X0266294Y0263608D01*
X0266207Y0263489D01*
X0266116Y0263372D01*
X0266022Y0263257D01*
X0265926Y0263145D01*
X0265826Y0263035D01*
X0265724Y0262929D01*
X0265618Y0262825D01*
X0265510Y0262724D01*
X0265399Y0262626D01*
X0265286Y0262530D01*
X0265170Y0262438D01*
X0265052Y0262349D01*
X0264931Y0262264D01*
X0264808Y0262181D01*
X0264683Y0262102D01*
X0264556Y0262026D01*
X0264427Y0261954D01*
X0264296Y0261885D01*
X0264163Y0261820D01*
X0264028Y0261759D01*
X0263892Y0261701D01*
X0263755Y0261646D01*
X0263616Y0261596D01*
X0263475Y0261549D01*
X0263334Y0261506D01*
X0263191Y0261466D01*
X0263047Y0261431D01*
X0262903Y0261399D01*
X0262757Y0261372D01*
X0262611Y0261348D01*
X0262464Y0261328D01*
X0262317Y0261312D01*
X0262170Y0261300D01*
X0262022Y0261292D01*
X0261874Y0261288D01*
X0261726Y0261288D01*
X0261578Y0261292D01*
X0261430Y0261300D01*
X0261283Y0261312D01*
X0261136Y0261328D01*
X0260989Y0261348D01*
X0260843Y0261372D01*
X0260697Y0261399D01*
X0260553Y0261431D01*
X0260409Y0261466D01*
X0260266Y0261506D01*
X0260125Y0261549D01*
X0259984Y0261596D01*
X0259845Y0261646D01*
X0259708Y0261701D01*
X0259572Y0261759D01*
X0259437Y0261820D01*
X0259304Y0261885D01*
X0259173Y0261954D01*
X0259044Y0262026D01*
X0258917Y0262102D01*
X0258792Y0262181D01*
X0258669Y0262264D01*
X0258548Y0262349D01*
X0258430Y0262438D01*
X0258314Y0262530D01*
X0258201Y0262626D01*
X0258090Y0262724D01*
X0257982Y0262825D01*
X0257876Y0262929D01*
X0257774Y0263035D01*
X0257674Y0263145D01*
X0257578Y0263257D01*
X0257484Y0263372D01*
X0257393Y0263489D01*
X0257306Y0263608D01*
X0257222Y0263730D01*
X0257141Y0263854D01*
X0257064Y0263980D01*
X0256990Y0264108D01*
X0256919Y0264238D01*
X0256852Y0264370D01*
X0256789Y0264504D01*
X0256729Y0264639D01*
X0256673Y0264776D01*
X0256620Y0264915D01*
X0256572Y0265055D01*
X0256527Y0265196D01*
X0256486Y0265338D01*
X0256448Y0265481D01*
X0256415Y0265625D01*
X0256385Y0265770D01*
X0256359Y0265916D01*
X0256338Y0266062D01*
X0256320Y0266209D01*
X0256306Y0266356D01*
X0256296Y0266504D01*
X0256290Y0266652D01*
X0256288Y0266800D01*
X0006288Y0266800D02*
X0006290Y0266948D01*
X0006296Y0267096D01*
X0006306Y0267244D01*
X0006320Y0267391D01*
X0006338Y0267538D01*
X0006359Y0267684D01*
X0006385Y0267830D01*
X0006415Y0267975D01*
X0006448Y0268119D01*
X0006486Y0268262D01*
X0006527Y0268404D01*
X0006572Y0268545D01*
X0006620Y0268685D01*
X0006673Y0268824D01*
X0006729Y0268961D01*
X0006789Y0269096D01*
X0006852Y0269230D01*
X0006919Y0269362D01*
X0006990Y0269492D01*
X0007064Y0269620D01*
X0007141Y0269746D01*
X0007222Y0269870D01*
X0007306Y0269992D01*
X0007393Y0270111D01*
X0007484Y0270228D01*
X0007578Y0270343D01*
X0007674Y0270455D01*
X0007774Y0270565D01*
X0007876Y0270671D01*
X0007982Y0270775D01*
X0008090Y0270876D01*
X0008201Y0270974D01*
X0008314Y0271070D01*
X0008430Y0271162D01*
X0008548Y0271251D01*
X0008669Y0271336D01*
X0008792Y0271419D01*
X0008917Y0271498D01*
X0009044Y0271574D01*
X0009173Y0271646D01*
X0009304Y0271715D01*
X0009437Y0271780D01*
X0009572Y0271841D01*
X0009708Y0271899D01*
X0009845Y0271954D01*
X0009984Y0272004D01*
X0010125Y0272051D01*
X0010266Y0272094D01*
X0010409Y0272134D01*
X0010553Y0272169D01*
X0010697Y0272201D01*
X0010843Y0272228D01*
X0010989Y0272252D01*
X0011136Y0272272D01*
X0011283Y0272288D01*
X0011430Y0272300D01*
X0011578Y0272308D01*
X0011726Y0272312D01*
X0011874Y0272312D01*
X0012022Y0272308D01*
X0012170Y0272300D01*
X0012317Y0272288D01*
X0012464Y0272272D01*
X0012611Y0272252D01*
X0012757Y0272228D01*
X0012903Y0272201D01*
X0013047Y0272169D01*
X0013191Y0272134D01*
X0013334Y0272094D01*
X0013475Y0272051D01*
X0013616Y0272004D01*
X0013755Y0271954D01*
X0013892Y0271899D01*
X0014028Y0271841D01*
X0014163Y0271780D01*
X0014296Y0271715D01*
X0014427Y0271646D01*
X0014556Y0271574D01*
X0014683Y0271498D01*
X0014808Y0271419D01*
X0014931Y0271336D01*
X0015052Y0271251D01*
X0015170Y0271162D01*
X0015286Y0271070D01*
X0015399Y0270974D01*
X0015510Y0270876D01*
X0015618Y0270775D01*
X0015724Y0270671D01*
X0015826Y0270565D01*
X0015926Y0270455D01*
X0016022Y0270343D01*
X0016116Y0270228D01*
X0016207Y0270111D01*
X0016294Y0269992D01*
X0016378Y0269870D01*
X0016459Y0269746D01*
X0016536Y0269620D01*
X0016610Y0269492D01*
X0016681Y0269362D01*
X0016748Y0269230D01*
X0016811Y0269096D01*
X0016871Y0268961D01*
X0016927Y0268824D01*
X0016980Y0268685D01*
X0017028Y0268545D01*
X0017073Y0268404D01*
X0017114Y0268262D01*
X0017152Y0268119D01*
X0017185Y0267975D01*
X0017215Y0267830D01*
X0017241Y0267684D01*
X0017262Y0267538D01*
X0017280Y0267391D01*
X0017294Y0267244D01*
X0017304Y0267096D01*
X0017310Y0266948D01*
X0017312Y0266800D01*
X0017310Y0266652D01*
X0017304Y0266504D01*
X0017294Y0266356D01*
X0017280Y0266209D01*
X0017262Y0266062D01*
X0017241Y0265916D01*
X0017215Y0265770D01*
X0017185Y0265625D01*
X0017152Y0265481D01*
X0017114Y0265338D01*
X0017073Y0265196D01*
X0017028Y0265055D01*
X0016980Y0264915D01*
X0016927Y0264776D01*
X0016871Y0264639D01*
X0016811Y0264504D01*
X0016748Y0264370D01*
X0016681Y0264238D01*
X0016610Y0264108D01*
X0016536Y0263980D01*
X0016459Y0263854D01*
X0016378Y0263730D01*
X0016294Y0263608D01*
X0016207Y0263489D01*
X0016116Y0263372D01*
X0016022Y0263257D01*
X0015926Y0263145D01*
X0015826Y0263035D01*
X0015724Y0262929D01*
X0015618Y0262825D01*
X0015510Y0262724D01*
X0015399Y0262626D01*
X0015286Y0262530D01*
X0015170Y0262438D01*
X0015052Y0262349D01*
X0014931Y0262264D01*
X0014808Y0262181D01*
X0014683Y0262102D01*
X0014556Y0262026D01*
X0014427Y0261954D01*
X0014296Y0261885D01*
X0014163Y0261820D01*
X0014028Y0261759D01*
X0013892Y0261701D01*
X0013755Y0261646D01*
X0013616Y0261596D01*
X0013475Y0261549D01*
X0013334Y0261506D01*
X0013191Y0261466D01*
X0013047Y0261431D01*
X0012903Y0261399D01*
X0012757Y0261372D01*
X0012611Y0261348D01*
X0012464Y0261328D01*
X0012317Y0261312D01*
X0012170Y0261300D01*
X0012022Y0261292D01*
X0011874Y0261288D01*
X0011726Y0261288D01*
X0011578Y0261292D01*
X0011430Y0261300D01*
X0011283Y0261312D01*
X0011136Y0261328D01*
X0010989Y0261348D01*
X0010843Y0261372D01*
X0010697Y0261399D01*
X0010553Y0261431D01*
X0010409Y0261466D01*
X0010266Y0261506D01*
X0010125Y0261549D01*
X0009984Y0261596D01*
X0009845Y0261646D01*
X0009708Y0261701D01*
X0009572Y0261759D01*
X0009437Y0261820D01*
X0009304Y0261885D01*
X0009173Y0261954D01*
X0009044Y0262026D01*
X0008917Y0262102D01*
X0008792Y0262181D01*
X0008669Y0262264D01*
X0008548Y0262349D01*
X0008430Y0262438D01*
X0008314Y0262530D01*
X0008201Y0262626D01*
X0008090Y0262724D01*
X0007982Y0262825D01*
X0007876Y0262929D01*
X0007774Y0263035D01*
X0007674Y0263145D01*
X0007578Y0263257D01*
X0007484Y0263372D01*
X0007393Y0263489D01*
X0007306Y0263608D01*
X0007222Y0263730D01*
X0007141Y0263854D01*
X0007064Y0263980D01*
X0006990Y0264108D01*
X0006919Y0264238D01*
X0006852Y0264370D01*
X0006789Y0264504D01*
X0006729Y0264639D01*
X0006673Y0264776D01*
X0006620Y0264915D01*
X0006572Y0265055D01*
X0006527Y0265196D01*
X0006486Y0265338D01*
X0006448Y0265481D01*
X0006415Y0265625D01*
X0006385Y0265770D01*
X0006359Y0265916D01*
X0006338Y0266062D01*
X0006320Y0266209D01*
X0006306Y0266356D01*
X0006296Y0266504D01*
X0006290Y0266652D01*
X0006288Y0266800D01*
M02*
