G75*
%MOIN*%
%OFA0B0*%
%FSLAX25Y25*%
%IPPOS*%
%LPD*%
%AMOC8*
5,1,8,0,0,1.08239X$1,22.5*
%
%ADD10C,0.00000*%
%ADD11C,0.06000*%
%ADD12R,0.05937X0.05937*%
%ADD13C,0.05937*%
%ADD14OC8,0.05200*%
%ADD15OC8,0.05150*%
%ADD16C,0.05150*%
%ADD17C,0.11850*%
%ADD18C,0.00600*%
%ADD19C,0.01600*%
%ADD20C,0.02400*%
D10*
X0001800Y0001800D02*
X0001800Y0276761D01*
X0270501Y0276761D01*
X0270501Y0001800D01*
X0001800Y0001800D01*
X0006288Y0011800D02*
X0006290Y0011948D01*
X0006296Y0012096D01*
X0006306Y0012244D01*
X0006320Y0012391D01*
X0006338Y0012538D01*
X0006359Y0012684D01*
X0006385Y0012830D01*
X0006415Y0012975D01*
X0006448Y0013119D01*
X0006486Y0013262D01*
X0006527Y0013404D01*
X0006572Y0013545D01*
X0006620Y0013685D01*
X0006673Y0013824D01*
X0006729Y0013961D01*
X0006789Y0014096D01*
X0006852Y0014230D01*
X0006919Y0014362D01*
X0006990Y0014492D01*
X0007064Y0014620D01*
X0007141Y0014746D01*
X0007222Y0014870D01*
X0007306Y0014992D01*
X0007393Y0015111D01*
X0007484Y0015228D01*
X0007578Y0015343D01*
X0007674Y0015455D01*
X0007774Y0015565D01*
X0007876Y0015671D01*
X0007982Y0015775D01*
X0008090Y0015876D01*
X0008201Y0015974D01*
X0008314Y0016070D01*
X0008430Y0016162D01*
X0008548Y0016251D01*
X0008669Y0016336D01*
X0008792Y0016419D01*
X0008917Y0016498D01*
X0009044Y0016574D01*
X0009173Y0016646D01*
X0009304Y0016715D01*
X0009437Y0016780D01*
X0009572Y0016841D01*
X0009708Y0016899D01*
X0009845Y0016954D01*
X0009984Y0017004D01*
X0010125Y0017051D01*
X0010266Y0017094D01*
X0010409Y0017134D01*
X0010553Y0017169D01*
X0010697Y0017201D01*
X0010843Y0017228D01*
X0010989Y0017252D01*
X0011136Y0017272D01*
X0011283Y0017288D01*
X0011430Y0017300D01*
X0011578Y0017308D01*
X0011726Y0017312D01*
X0011874Y0017312D01*
X0012022Y0017308D01*
X0012170Y0017300D01*
X0012317Y0017288D01*
X0012464Y0017272D01*
X0012611Y0017252D01*
X0012757Y0017228D01*
X0012903Y0017201D01*
X0013047Y0017169D01*
X0013191Y0017134D01*
X0013334Y0017094D01*
X0013475Y0017051D01*
X0013616Y0017004D01*
X0013755Y0016954D01*
X0013892Y0016899D01*
X0014028Y0016841D01*
X0014163Y0016780D01*
X0014296Y0016715D01*
X0014427Y0016646D01*
X0014556Y0016574D01*
X0014683Y0016498D01*
X0014808Y0016419D01*
X0014931Y0016336D01*
X0015052Y0016251D01*
X0015170Y0016162D01*
X0015286Y0016070D01*
X0015399Y0015974D01*
X0015510Y0015876D01*
X0015618Y0015775D01*
X0015724Y0015671D01*
X0015826Y0015565D01*
X0015926Y0015455D01*
X0016022Y0015343D01*
X0016116Y0015228D01*
X0016207Y0015111D01*
X0016294Y0014992D01*
X0016378Y0014870D01*
X0016459Y0014746D01*
X0016536Y0014620D01*
X0016610Y0014492D01*
X0016681Y0014362D01*
X0016748Y0014230D01*
X0016811Y0014096D01*
X0016871Y0013961D01*
X0016927Y0013824D01*
X0016980Y0013685D01*
X0017028Y0013545D01*
X0017073Y0013404D01*
X0017114Y0013262D01*
X0017152Y0013119D01*
X0017185Y0012975D01*
X0017215Y0012830D01*
X0017241Y0012684D01*
X0017262Y0012538D01*
X0017280Y0012391D01*
X0017294Y0012244D01*
X0017304Y0012096D01*
X0017310Y0011948D01*
X0017312Y0011800D01*
X0017310Y0011652D01*
X0017304Y0011504D01*
X0017294Y0011356D01*
X0017280Y0011209D01*
X0017262Y0011062D01*
X0017241Y0010916D01*
X0017215Y0010770D01*
X0017185Y0010625D01*
X0017152Y0010481D01*
X0017114Y0010338D01*
X0017073Y0010196D01*
X0017028Y0010055D01*
X0016980Y0009915D01*
X0016927Y0009776D01*
X0016871Y0009639D01*
X0016811Y0009504D01*
X0016748Y0009370D01*
X0016681Y0009238D01*
X0016610Y0009108D01*
X0016536Y0008980D01*
X0016459Y0008854D01*
X0016378Y0008730D01*
X0016294Y0008608D01*
X0016207Y0008489D01*
X0016116Y0008372D01*
X0016022Y0008257D01*
X0015926Y0008145D01*
X0015826Y0008035D01*
X0015724Y0007929D01*
X0015618Y0007825D01*
X0015510Y0007724D01*
X0015399Y0007626D01*
X0015286Y0007530D01*
X0015170Y0007438D01*
X0015052Y0007349D01*
X0014931Y0007264D01*
X0014808Y0007181D01*
X0014683Y0007102D01*
X0014556Y0007026D01*
X0014427Y0006954D01*
X0014296Y0006885D01*
X0014163Y0006820D01*
X0014028Y0006759D01*
X0013892Y0006701D01*
X0013755Y0006646D01*
X0013616Y0006596D01*
X0013475Y0006549D01*
X0013334Y0006506D01*
X0013191Y0006466D01*
X0013047Y0006431D01*
X0012903Y0006399D01*
X0012757Y0006372D01*
X0012611Y0006348D01*
X0012464Y0006328D01*
X0012317Y0006312D01*
X0012170Y0006300D01*
X0012022Y0006292D01*
X0011874Y0006288D01*
X0011726Y0006288D01*
X0011578Y0006292D01*
X0011430Y0006300D01*
X0011283Y0006312D01*
X0011136Y0006328D01*
X0010989Y0006348D01*
X0010843Y0006372D01*
X0010697Y0006399D01*
X0010553Y0006431D01*
X0010409Y0006466D01*
X0010266Y0006506D01*
X0010125Y0006549D01*
X0009984Y0006596D01*
X0009845Y0006646D01*
X0009708Y0006701D01*
X0009572Y0006759D01*
X0009437Y0006820D01*
X0009304Y0006885D01*
X0009173Y0006954D01*
X0009044Y0007026D01*
X0008917Y0007102D01*
X0008792Y0007181D01*
X0008669Y0007264D01*
X0008548Y0007349D01*
X0008430Y0007438D01*
X0008314Y0007530D01*
X0008201Y0007626D01*
X0008090Y0007724D01*
X0007982Y0007825D01*
X0007876Y0007929D01*
X0007774Y0008035D01*
X0007674Y0008145D01*
X0007578Y0008257D01*
X0007484Y0008372D01*
X0007393Y0008489D01*
X0007306Y0008608D01*
X0007222Y0008730D01*
X0007141Y0008854D01*
X0007064Y0008980D01*
X0006990Y0009108D01*
X0006919Y0009238D01*
X0006852Y0009370D01*
X0006789Y0009504D01*
X0006729Y0009639D01*
X0006673Y0009776D01*
X0006620Y0009915D01*
X0006572Y0010055D01*
X0006527Y0010196D01*
X0006486Y0010338D01*
X0006448Y0010481D01*
X0006415Y0010625D01*
X0006385Y0010770D01*
X0006359Y0010916D01*
X0006338Y0011062D01*
X0006320Y0011209D01*
X0006306Y0011356D01*
X0006296Y0011504D01*
X0006290Y0011652D01*
X0006288Y0011800D01*
X0256288Y0011800D02*
X0256290Y0011948D01*
X0256296Y0012096D01*
X0256306Y0012244D01*
X0256320Y0012391D01*
X0256338Y0012538D01*
X0256359Y0012684D01*
X0256385Y0012830D01*
X0256415Y0012975D01*
X0256448Y0013119D01*
X0256486Y0013262D01*
X0256527Y0013404D01*
X0256572Y0013545D01*
X0256620Y0013685D01*
X0256673Y0013824D01*
X0256729Y0013961D01*
X0256789Y0014096D01*
X0256852Y0014230D01*
X0256919Y0014362D01*
X0256990Y0014492D01*
X0257064Y0014620D01*
X0257141Y0014746D01*
X0257222Y0014870D01*
X0257306Y0014992D01*
X0257393Y0015111D01*
X0257484Y0015228D01*
X0257578Y0015343D01*
X0257674Y0015455D01*
X0257774Y0015565D01*
X0257876Y0015671D01*
X0257982Y0015775D01*
X0258090Y0015876D01*
X0258201Y0015974D01*
X0258314Y0016070D01*
X0258430Y0016162D01*
X0258548Y0016251D01*
X0258669Y0016336D01*
X0258792Y0016419D01*
X0258917Y0016498D01*
X0259044Y0016574D01*
X0259173Y0016646D01*
X0259304Y0016715D01*
X0259437Y0016780D01*
X0259572Y0016841D01*
X0259708Y0016899D01*
X0259845Y0016954D01*
X0259984Y0017004D01*
X0260125Y0017051D01*
X0260266Y0017094D01*
X0260409Y0017134D01*
X0260553Y0017169D01*
X0260697Y0017201D01*
X0260843Y0017228D01*
X0260989Y0017252D01*
X0261136Y0017272D01*
X0261283Y0017288D01*
X0261430Y0017300D01*
X0261578Y0017308D01*
X0261726Y0017312D01*
X0261874Y0017312D01*
X0262022Y0017308D01*
X0262170Y0017300D01*
X0262317Y0017288D01*
X0262464Y0017272D01*
X0262611Y0017252D01*
X0262757Y0017228D01*
X0262903Y0017201D01*
X0263047Y0017169D01*
X0263191Y0017134D01*
X0263334Y0017094D01*
X0263475Y0017051D01*
X0263616Y0017004D01*
X0263755Y0016954D01*
X0263892Y0016899D01*
X0264028Y0016841D01*
X0264163Y0016780D01*
X0264296Y0016715D01*
X0264427Y0016646D01*
X0264556Y0016574D01*
X0264683Y0016498D01*
X0264808Y0016419D01*
X0264931Y0016336D01*
X0265052Y0016251D01*
X0265170Y0016162D01*
X0265286Y0016070D01*
X0265399Y0015974D01*
X0265510Y0015876D01*
X0265618Y0015775D01*
X0265724Y0015671D01*
X0265826Y0015565D01*
X0265926Y0015455D01*
X0266022Y0015343D01*
X0266116Y0015228D01*
X0266207Y0015111D01*
X0266294Y0014992D01*
X0266378Y0014870D01*
X0266459Y0014746D01*
X0266536Y0014620D01*
X0266610Y0014492D01*
X0266681Y0014362D01*
X0266748Y0014230D01*
X0266811Y0014096D01*
X0266871Y0013961D01*
X0266927Y0013824D01*
X0266980Y0013685D01*
X0267028Y0013545D01*
X0267073Y0013404D01*
X0267114Y0013262D01*
X0267152Y0013119D01*
X0267185Y0012975D01*
X0267215Y0012830D01*
X0267241Y0012684D01*
X0267262Y0012538D01*
X0267280Y0012391D01*
X0267294Y0012244D01*
X0267304Y0012096D01*
X0267310Y0011948D01*
X0267312Y0011800D01*
X0267310Y0011652D01*
X0267304Y0011504D01*
X0267294Y0011356D01*
X0267280Y0011209D01*
X0267262Y0011062D01*
X0267241Y0010916D01*
X0267215Y0010770D01*
X0267185Y0010625D01*
X0267152Y0010481D01*
X0267114Y0010338D01*
X0267073Y0010196D01*
X0267028Y0010055D01*
X0266980Y0009915D01*
X0266927Y0009776D01*
X0266871Y0009639D01*
X0266811Y0009504D01*
X0266748Y0009370D01*
X0266681Y0009238D01*
X0266610Y0009108D01*
X0266536Y0008980D01*
X0266459Y0008854D01*
X0266378Y0008730D01*
X0266294Y0008608D01*
X0266207Y0008489D01*
X0266116Y0008372D01*
X0266022Y0008257D01*
X0265926Y0008145D01*
X0265826Y0008035D01*
X0265724Y0007929D01*
X0265618Y0007825D01*
X0265510Y0007724D01*
X0265399Y0007626D01*
X0265286Y0007530D01*
X0265170Y0007438D01*
X0265052Y0007349D01*
X0264931Y0007264D01*
X0264808Y0007181D01*
X0264683Y0007102D01*
X0264556Y0007026D01*
X0264427Y0006954D01*
X0264296Y0006885D01*
X0264163Y0006820D01*
X0264028Y0006759D01*
X0263892Y0006701D01*
X0263755Y0006646D01*
X0263616Y0006596D01*
X0263475Y0006549D01*
X0263334Y0006506D01*
X0263191Y0006466D01*
X0263047Y0006431D01*
X0262903Y0006399D01*
X0262757Y0006372D01*
X0262611Y0006348D01*
X0262464Y0006328D01*
X0262317Y0006312D01*
X0262170Y0006300D01*
X0262022Y0006292D01*
X0261874Y0006288D01*
X0261726Y0006288D01*
X0261578Y0006292D01*
X0261430Y0006300D01*
X0261283Y0006312D01*
X0261136Y0006328D01*
X0260989Y0006348D01*
X0260843Y0006372D01*
X0260697Y0006399D01*
X0260553Y0006431D01*
X0260409Y0006466D01*
X0260266Y0006506D01*
X0260125Y0006549D01*
X0259984Y0006596D01*
X0259845Y0006646D01*
X0259708Y0006701D01*
X0259572Y0006759D01*
X0259437Y0006820D01*
X0259304Y0006885D01*
X0259173Y0006954D01*
X0259044Y0007026D01*
X0258917Y0007102D01*
X0258792Y0007181D01*
X0258669Y0007264D01*
X0258548Y0007349D01*
X0258430Y0007438D01*
X0258314Y0007530D01*
X0258201Y0007626D01*
X0258090Y0007724D01*
X0257982Y0007825D01*
X0257876Y0007929D01*
X0257774Y0008035D01*
X0257674Y0008145D01*
X0257578Y0008257D01*
X0257484Y0008372D01*
X0257393Y0008489D01*
X0257306Y0008608D01*
X0257222Y0008730D01*
X0257141Y0008854D01*
X0257064Y0008980D01*
X0256990Y0009108D01*
X0256919Y0009238D01*
X0256852Y0009370D01*
X0256789Y0009504D01*
X0256729Y0009639D01*
X0256673Y0009776D01*
X0256620Y0009915D01*
X0256572Y0010055D01*
X0256527Y0010196D01*
X0256486Y0010338D01*
X0256448Y0010481D01*
X0256415Y0010625D01*
X0256385Y0010770D01*
X0256359Y0010916D01*
X0256338Y0011062D01*
X0256320Y0011209D01*
X0256306Y0011356D01*
X0256296Y0011504D01*
X0256290Y0011652D01*
X0256288Y0011800D01*
X0258257Y0011288D02*
X0258259Y0011406D01*
X0258265Y0011525D01*
X0258275Y0011643D01*
X0258289Y0011760D01*
X0258306Y0011877D01*
X0258328Y0011994D01*
X0258354Y0012109D01*
X0258383Y0012224D01*
X0258416Y0012338D01*
X0258453Y0012450D01*
X0258494Y0012561D01*
X0258538Y0012671D01*
X0258586Y0012779D01*
X0258638Y0012886D01*
X0258693Y0012991D01*
X0258752Y0013094D01*
X0258814Y0013194D01*
X0258879Y0013293D01*
X0258948Y0013390D01*
X0259019Y0013484D01*
X0259094Y0013575D01*
X0259172Y0013665D01*
X0259253Y0013751D01*
X0259337Y0013835D01*
X0259423Y0013916D01*
X0259513Y0013994D01*
X0259604Y0014069D01*
X0259698Y0014140D01*
X0259795Y0014209D01*
X0259894Y0014274D01*
X0259994Y0014336D01*
X0260097Y0014395D01*
X0260202Y0014450D01*
X0260309Y0014502D01*
X0260417Y0014550D01*
X0260527Y0014594D01*
X0260638Y0014635D01*
X0260750Y0014672D01*
X0260864Y0014705D01*
X0260979Y0014734D01*
X0261094Y0014760D01*
X0261211Y0014782D01*
X0261328Y0014799D01*
X0261445Y0014813D01*
X0261563Y0014823D01*
X0261682Y0014829D01*
X0261800Y0014831D01*
X0261918Y0014829D01*
X0262037Y0014823D01*
X0262155Y0014813D01*
X0262272Y0014799D01*
X0262389Y0014782D01*
X0262506Y0014760D01*
X0262621Y0014734D01*
X0262736Y0014705D01*
X0262850Y0014672D01*
X0262962Y0014635D01*
X0263073Y0014594D01*
X0263183Y0014550D01*
X0263291Y0014502D01*
X0263398Y0014450D01*
X0263503Y0014395D01*
X0263606Y0014336D01*
X0263706Y0014274D01*
X0263805Y0014209D01*
X0263902Y0014140D01*
X0263996Y0014069D01*
X0264087Y0013994D01*
X0264177Y0013916D01*
X0264263Y0013835D01*
X0264347Y0013751D01*
X0264428Y0013665D01*
X0264506Y0013575D01*
X0264581Y0013484D01*
X0264652Y0013390D01*
X0264721Y0013293D01*
X0264786Y0013194D01*
X0264848Y0013094D01*
X0264907Y0012991D01*
X0264962Y0012886D01*
X0265014Y0012779D01*
X0265062Y0012671D01*
X0265106Y0012561D01*
X0265147Y0012450D01*
X0265184Y0012338D01*
X0265217Y0012224D01*
X0265246Y0012109D01*
X0265272Y0011994D01*
X0265294Y0011877D01*
X0265311Y0011760D01*
X0265325Y0011643D01*
X0265335Y0011525D01*
X0265341Y0011406D01*
X0265343Y0011288D01*
X0265341Y0011170D01*
X0265335Y0011051D01*
X0265325Y0010933D01*
X0265311Y0010816D01*
X0265294Y0010699D01*
X0265272Y0010582D01*
X0265246Y0010467D01*
X0265217Y0010352D01*
X0265184Y0010238D01*
X0265147Y0010126D01*
X0265106Y0010015D01*
X0265062Y0009905D01*
X0265014Y0009797D01*
X0264962Y0009690D01*
X0264907Y0009585D01*
X0264848Y0009482D01*
X0264786Y0009382D01*
X0264721Y0009283D01*
X0264652Y0009186D01*
X0264581Y0009092D01*
X0264506Y0009001D01*
X0264428Y0008911D01*
X0264347Y0008825D01*
X0264263Y0008741D01*
X0264177Y0008660D01*
X0264087Y0008582D01*
X0263996Y0008507D01*
X0263902Y0008436D01*
X0263805Y0008367D01*
X0263706Y0008302D01*
X0263606Y0008240D01*
X0263503Y0008181D01*
X0263398Y0008126D01*
X0263291Y0008074D01*
X0263183Y0008026D01*
X0263073Y0007982D01*
X0262962Y0007941D01*
X0262850Y0007904D01*
X0262736Y0007871D01*
X0262621Y0007842D01*
X0262506Y0007816D01*
X0262389Y0007794D01*
X0262272Y0007777D01*
X0262155Y0007763D01*
X0262037Y0007753D01*
X0261918Y0007747D01*
X0261800Y0007745D01*
X0261682Y0007747D01*
X0261563Y0007753D01*
X0261445Y0007763D01*
X0261328Y0007777D01*
X0261211Y0007794D01*
X0261094Y0007816D01*
X0260979Y0007842D01*
X0260864Y0007871D01*
X0260750Y0007904D01*
X0260638Y0007941D01*
X0260527Y0007982D01*
X0260417Y0008026D01*
X0260309Y0008074D01*
X0260202Y0008126D01*
X0260097Y0008181D01*
X0259994Y0008240D01*
X0259894Y0008302D01*
X0259795Y0008367D01*
X0259698Y0008436D01*
X0259604Y0008507D01*
X0259513Y0008582D01*
X0259423Y0008660D01*
X0259337Y0008741D01*
X0259253Y0008825D01*
X0259172Y0008911D01*
X0259094Y0009001D01*
X0259019Y0009092D01*
X0258948Y0009186D01*
X0258879Y0009283D01*
X0258814Y0009382D01*
X0258752Y0009482D01*
X0258693Y0009585D01*
X0258638Y0009690D01*
X0258586Y0009797D01*
X0258538Y0009905D01*
X0258494Y0010015D01*
X0258453Y0010126D01*
X0258416Y0010238D01*
X0258383Y0010352D01*
X0258354Y0010467D01*
X0258328Y0010582D01*
X0258306Y0010699D01*
X0258289Y0010816D01*
X0258275Y0010933D01*
X0258265Y0011051D01*
X0258259Y0011170D01*
X0258257Y0011288D01*
X0258257Y0122312D02*
X0258259Y0122430D01*
X0258265Y0122549D01*
X0258275Y0122667D01*
X0258289Y0122784D01*
X0258306Y0122901D01*
X0258328Y0123018D01*
X0258354Y0123133D01*
X0258383Y0123248D01*
X0258416Y0123362D01*
X0258453Y0123474D01*
X0258494Y0123585D01*
X0258538Y0123695D01*
X0258586Y0123803D01*
X0258638Y0123910D01*
X0258693Y0124015D01*
X0258752Y0124118D01*
X0258814Y0124218D01*
X0258879Y0124317D01*
X0258948Y0124414D01*
X0259019Y0124508D01*
X0259094Y0124599D01*
X0259172Y0124689D01*
X0259253Y0124775D01*
X0259337Y0124859D01*
X0259423Y0124940D01*
X0259513Y0125018D01*
X0259604Y0125093D01*
X0259698Y0125164D01*
X0259795Y0125233D01*
X0259894Y0125298D01*
X0259994Y0125360D01*
X0260097Y0125419D01*
X0260202Y0125474D01*
X0260309Y0125526D01*
X0260417Y0125574D01*
X0260527Y0125618D01*
X0260638Y0125659D01*
X0260750Y0125696D01*
X0260864Y0125729D01*
X0260979Y0125758D01*
X0261094Y0125784D01*
X0261211Y0125806D01*
X0261328Y0125823D01*
X0261445Y0125837D01*
X0261563Y0125847D01*
X0261682Y0125853D01*
X0261800Y0125855D01*
X0261918Y0125853D01*
X0262037Y0125847D01*
X0262155Y0125837D01*
X0262272Y0125823D01*
X0262389Y0125806D01*
X0262506Y0125784D01*
X0262621Y0125758D01*
X0262736Y0125729D01*
X0262850Y0125696D01*
X0262962Y0125659D01*
X0263073Y0125618D01*
X0263183Y0125574D01*
X0263291Y0125526D01*
X0263398Y0125474D01*
X0263503Y0125419D01*
X0263606Y0125360D01*
X0263706Y0125298D01*
X0263805Y0125233D01*
X0263902Y0125164D01*
X0263996Y0125093D01*
X0264087Y0125018D01*
X0264177Y0124940D01*
X0264263Y0124859D01*
X0264347Y0124775D01*
X0264428Y0124689D01*
X0264506Y0124599D01*
X0264581Y0124508D01*
X0264652Y0124414D01*
X0264721Y0124317D01*
X0264786Y0124218D01*
X0264848Y0124118D01*
X0264907Y0124015D01*
X0264962Y0123910D01*
X0265014Y0123803D01*
X0265062Y0123695D01*
X0265106Y0123585D01*
X0265147Y0123474D01*
X0265184Y0123362D01*
X0265217Y0123248D01*
X0265246Y0123133D01*
X0265272Y0123018D01*
X0265294Y0122901D01*
X0265311Y0122784D01*
X0265325Y0122667D01*
X0265335Y0122549D01*
X0265341Y0122430D01*
X0265343Y0122312D01*
X0265341Y0122194D01*
X0265335Y0122075D01*
X0265325Y0121957D01*
X0265311Y0121840D01*
X0265294Y0121723D01*
X0265272Y0121606D01*
X0265246Y0121491D01*
X0265217Y0121376D01*
X0265184Y0121262D01*
X0265147Y0121150D01*
X0265106Y0121039D01*
X0265062Y0120929D01*
X0265014Y0120821D01*
X0264962Y0120714D01*
X0264907Y0120609D01*
X0264848Y0120506D01*
X0264786Y0120406D01*
X0264721Y0120307D01*
X0264652Y0120210D01*
X0264581Y0120116D01*
X0264506Y0120025D01*
X0264428Y0119935D01*
X0264347Y0119849D01*
X0264263Y0119765D01*
X0264177Y0119684D01*
X0264087Y0119606D01*
X0263996Y0119531D01*
X0263902Y0119460D01*
X0263805Y0119391D01*
X0263706Y0119326D01*
X0263606Y0119264D01*
X0263503Y0119205D01*
X0263398Y0119150D01*
X0263291Y0119098D01*
X0263183Y0119050D01*
X0263073Y0119006D01*
X0262962Y0118965D01*
X0262850Y0118928D01*
X0262736Y0118895D01*
X0262621Y0118866D01*
X0262506Y0118840D01*
X0262389Y0118818D01*
X0262272Y0118801D01*
X0262155Y0118787D01*
X0262037Y0118777D01*
X0261918Y0118771D01*
X0261800Y0118769D01*
X0261682Y0118771D01*
X0261563Y0118777D01*
X0261445Y0118787D01*
X0261328Y0118801D01*
X0261211Y0118818D01*
X0261094Y0118840D01*
X0260979Y0118866D01*
X0260864Y0118895D01*
X0260750Y0118928D01*
X0260638Y0118965D01*
X0260527Y0119006D01*
X0260417Y0119050D01*
X0260309Y0119098D01*
X0260202Y0119150D01*
X0260097Y0119205D01*
X0259994Y0119264D01*
X0259894Y0119326D01*
X0259795Y0119391D01*
X0259698Y0119460D01*
X0259604Y0119531D01*
X0259513Y0119606D01*
X0259423Y0119684D01*
X0259337Y0119765D01*
X0259253Y0119849D01*
X0259172Y0119935D01*
X0259094Y0120025D01*
X0259019Y0120116D01*
X0258948Y0120210D01*
X0258879Y0120307D01*
X0258814Y0120406D01*
X0258752Y0120506D01*
X0258693Y0120609D01*
X0258638Y0120714D01*
X0258586Y0120821D01*
X0258538Y0120929D01*
X0258494Y0121039D01*
X0258453Y0121150D01*
X0258416Y0121262D01*
X0258383Y0121376D01*
X0258354Y0121491D01*
X0258328Y0121606D01*
X0258306Y0121723D01*
X0258289Y0121840D01*
X0258275Y0121957D01*
X0258265Y0122075D01*
X0258259Y0122194D01*
X0258257Y0122312D01*
X0256288Y0266800D02*
X0256290Y0266948D01*
X0256296Y0267096D01*
X0256306Y0267244D01*
X0256320Y0267391D01*
X0256338Y0267538D01*
X0256359Y0267684D01*
X0256385Y0267830D01*
X0256415Y0267975D01*
X0256448Y0268119D01*
X0256486Y0268262D01*
X0256527Y0268404D01*
X0256572Y0268545D01*
X0256620Y0268685D01*
X0256673Y0268824D01*
X0256729Y0268961D01*
X0256789Y0269096D01*
X0256852Y0269230D01*
X0256919Y0269362D01*
X0256990Y0269492D01*
X0257064Y0269620D01*
X0257141Y0269746D01*
X0257222Y0269870D01*
X0257306Y0269992D01*
X0257393Y0270111D01*
X0257484Y0270228D01*
X0257578Y0270343D01*
X0257674Y0270455D01*
X0257774Y0270565D01*
X0257876Y0270671D01*
X0257982Y0270775D01*
X0258090Y0270876D01*
X0258201Y0270974D01*
X0258314Y0271070D01*
X0258430Y0271162D01*
X0258548Y0271251D01*
X0258669Y0271336D01*
X0258792Y0271419D01*
X0258917Y0271498D01*
X0259044Y0271574D01*
X0259173Y0271646D01*
X0259304Y0271715D01*
X0259437Y0271780D01*
X0259572Y0271841D01*
X0259708Y0271899D01*
X0259845Y0271954D01*
X0259984Y0272004D01*
X0260125Y0272051D01*
X0260266Y0272094D01*
X0260409Y0272134D01*
X0260553Y0272169D01*
X0260697Y0272201D01*
X0260843Y0272228D01*
X0260989Y0272252D01*
X0261136Y0272272D01*
X0261283Y0272288D01*
X0261430Y0272300D01*
X0261578Y0272308D01*
X0261726Y0272312D01*
X0261874Y0272312D01*
X0262022Y0272308D01*
X0262170Y0272300D01*
X0262317Y0272288D01*
X0262464Y0272272D01*
X0262611Y0272252D01*
X0262757Y0272228D01*
X0262903Y0272201D01*
X0263047Y0272169D01*
X0263191Y0272134D01*
X0263334Y0272094D01*
X0263475Y0272051D01*
X0263616Y0272004D01*
X0263755Y0271954D01*
X0263892Y0271899D01*
X0264028Y0271841D01*
X0264163Y0271780D01*
X0264296Y0271715D01*
X0264427Y0271646D01*
X0264556Y0271574D01*
X0264683Y0271498D01*
X0264808Y0271419D01*
X0264931Y0271336D01*
X0265052Y0271251D01*
X0265170Y0271162D01*
X0265286Y0271070D01*
X0265399Y0270974D01*
X0265510Y0270876D01*
X0265618Y0270775D01*
X0265724Y0270671D01*
X0265826Y0270565D01*
X0265926Y0270455D01*
X0266022Y0270343D01*
X0266116Y0270228D01*
X0266207Y0270111D01*
X0266294Y0269992D01*
X0266378Y0269870D01*
X0266459Y0269746D01*
X0266536Y0269620D01*
X0266610Y0269492D01*
X0266681Y0269362D01*
X0266748Y0269230D01*
X0266811Y0269096D01*
X0266871Y0268961D01*
X0266927Y0268824D01*
X0266980Y0268685D01*
X0267028Y0268545D01*
X0267073Y0268404D01*
X0267114Y0268262D01*
X0267152Y0268119D01*
X0267185Y0267975D01*
X0267215Y0267830D01*
X0267241Y0267684D01*
X0267262Y0267538D01*
X0267280Y0267391D01*
X0267294Y0267244D01*
X0267304Y0267096D01*
X0267310Y0266948D01*
X0267312Y0266800D01*
X0267310Y0266652D01*
X0267304Y0266504D01*
X0267294Y0266356D01*
X0267280Y0266209D01*
X0267262Y0266062D01*
X0267241Y0265916D01*
X0267215Y0265770D01*
X0267185Y0265625D01*
X0267152Y0265481D01*
X0267114Y0265338D01*
X0267073Y0265196D01*
X0267028Y0265055D01*
X0266980Y0264915D01*
X0266927Y0264776D01*
X0266871Y0264639D01*
X0266811Y0264504D01*
X0266748Y0264370D01*
X0266681Y0264238D01*
X0266610Y0264108D01*
X0266536Y0263980D01*
X0266459Y0263854D01*
X0266378Y0263730D01*
X0266294Y0263608D01*
X0266207Y0263489D01*
X0266116Y0263372D01*
X0266022Y0263257D01*
X0265926Y0263145D01*
X0265826Y0263035D01*
X0265724Y0262929D01*
X0265618Y0262825D01*
X0265510Y0262724D01*
X0265399Y0262626D01*
X0265286Y0262530D01*
X0265170Y0262438D01*
X0265052Y0262349D01*
X0264931Y0262264D01*
X0264808Y0262181D01*
X0264683Y0262102D01*
X0264556Y0262026D01*
X0264427Y0261954D01*
X0264296Y0261885D01*
X0264163Y0261820D01*
X0264028Y0261759D01*
X0263892Y0261701D01*
X0263755Y0261646D01*
X0263616Y0261596D01*
X0263475Y0261549D01*
X0263334Y0261506D01*
X0263191Y0261466D01*
X0263047Y0261431D01*
X0262903Y0261399D01*
X0262757Y0261372D01*
X0262611Y0261348D01*
X0262464Y0261328D01*
X0262317Y0261312D01*
X0262170Y0261300D01*
X0262022Y0261292D01*
X0261874Y0261288D01*
X0261726Y0261288D01*
X0261578Y0261292D01*
X0261430Y0261300D01*
X0261283Y0261312D01*
X0261136Y0261328D01*
X0260989Y0261348D01*
X0260843Y0261372D01*
X0260697Y0261399D01*
X0260553Y0261431D01*
X0260409Y0261466D01*
X0260266Y0261506D01*
X0260125Y0261549D01*
X0259984Y0261596D01*
X0259845Y0261646D01*
X0259708Y0261701D01*
X0259572Y0261759D01*
X0259437Y0261820D01*
X0259304Y0261885D01*
X0259173Y0261954D01*
X0259044Y0262026D01*
X0258917Y0262102D01*
X0258792Y0262181D01*
X0258669Y0262264D01*
X0258548Y0262349D01*
X0258430Y0262438D01*
X0258314Y0262530D01*
X0258201Y0262626D01*
X0258090Y0262724D01*
X0257982Y0262825D01*
X0257876Y0262929D01*
X0257774Y0263035D01*
X0257674Y0263145D01*
X0257578Y0263257D01*
X0257484Y0263372D01*
X0257393Y0263489D01*
X0257306Y0263608D01*
X0257222Y0263730D01*
X0257141Y0263854D01*
X0257064Y0263980D01*
X0256990Y0264108D01*
X0256919Y0264238D01*
X0256852Y0264370D01*
X0256789Y0264504D01*
X0256729Y0264639D01*
X0256673Y0264776D01*
X0256620Y0264915D01*
X0256572Y0265055D01*
X0256527Y0265196D01*
X0256486Y0265338D01*
X0256448Y0265481D01*
X0256415Y0265625D01*
X0256385Y0265770D01*
X0256359Y0265916D01*
X0256338Y0266062D01*
X0256320Y0266209D01*
X0256306Y0266356D01*
X0256296Y0266504D01*
X0256290Y0266652D01*
X0256288Y0266800D01*
X0006288Y0266800D02*
X0006290Y0266948D01*
X0006296Y0267096D01*
X0006306Y0267244D01*
X0006320Y0267391D01*
X0006338Y0267538D01*
X0006359Y0267684D01*
X0006385Y0267830D01*
X0006415Y0267975D01*
X0006448Y0268119D01*
X0006486Y0268262D01*
X0006527Y0268404D01*
X0006572Y0268545D01*
X0006620Y0268685D01*
X0006673Y0268824D01*
X0006729Y0268961D01*
X0006789Y0269096D01*
X0006852Y0269230D01*
X0006919Y0269362D01*
X0006990Y0269492D01*
X0007064Y0269620D01*
X0007141Y0269746D01*
X0007222Y0269870D01*
X0007306Y0269992D01*
X0007393Y0270111D01*
X0007484Y0270228D01*
X0007578Y0270343D01*
X0007674Y0270455D01*
X0007774Y0270565D01*
X0007876Y0270671D01*
X0007982Y0270775D01*
X0008090Y0270876D01*
X0008201Y0270974D01*
X0008314Y0271070D01*
X0008430Y0271162D01*
X0008548Y0271251D01*
X0008669Y0271336D01*
X0008792Y0271419D01*
X0008917Y0271498D01*
X0009044Y0271574D01*
X0009173Y0271646D01*
X0009304Y0271715D01*
X0009437Y0271780D01*
X0009572Y0271841D01*
X0009708Y0271899D01*
X0009845Y0271954D01*
X0009984Y0272004D01*
X0010125Y0272051D01*
X0010266Y0272094D01*
X0010409Y0272134D01*
X0010553Y0272169D01*
X0010697Y0272201D01*
X0010843Y0272228D01*
X0010989Y0272252D01*
X0011136Y0272272D01*
X0011283Y0272288D01*
X0011430Y0272300D01*
X0011578Y0272308D01*
X0011726Y0272312D01*
X0011874Y0272312D01*
X0012022Y0272308D01*
X0012170Y0272300D01*
X0012317Y0272288D01*
X0012464Y0272272D01*
X0012611Y0272252D01*
X0012757Y0272228D01*
X0012903Y0272201D01*
X0013047Y0272169D01*
X0013191Y0272134D01*
X0013334Y0272094D01*
X0013475Y0272051D01*
X0013616Y0272004D01*
X0013755Y0271954D01*
X0013892Y0271899D01*
X0014028Y0271841D01*
X0014163Y0271780D01*
X0014296Y0271715D01*
X0014427Y0271646D01*
X0014556Y0271574D01*
X0014683Y0271498D01*
X0014808Y0271419D01*
X0014931Y0271336D01*
X0015052Y0271251D01*
X0015170Y0271162D01*
X0015286Y0271070D01*
X0015399Y0270974D01*
X0015510Y0270876D01*
X0015618Y0270775D01*
X0015724Y0270671D01*
X0015826Y0270565D01*
X0015926Y0270455D01*
X0016022Y0270343D01*
X0016116Y0270228D01*
X0016207Y0270111D01*
X0016294Y0269992D01*
X0016378Y0269870D01*
X0016459Y0269746D01*
X0016536Y0269620D01*
X0016610Y0269492D01*
X0016681Y0269362D01*
X0016748Y0269230D01*
X0016811Y0269096D01*
X0016871Y0268961D01*
X0016927Y0268824D01*
X0016980Y0268685D01*
X0017028Y0268545D01*
X0017073Y0268404D01*
X0017114Y0268262D01*
X0017152Y0268119D01*
X0017185Y0267975D01*
X0017215Y0267830D01*
X0017241Y0267684D01*
X0017262Y0267538D01*
X0017280Y0267391D01*
X0017294Y0267244D01*
X0017304Y0267096D01*
X0017310Y0266948D01*
X0017312Y0266800D01*
X0017310Y0266652D01*
X0017304Y0266504D01*
X0017294Y0266356D01*
X0017280Y0266209D01*
X0017262Y0266062D01*
X0017241Y0265916D01*
X0017215Y0265770D01*
X0017185Y0265625D01*
X0017152Y0265481D01*
X0017114Y0265338D01*
X0017073Y0265196D01*
X0017028Y0265055D01*
X0016980Y0264915D01*
X0016927Y0264776D01*
X0016871Y0264639D01*
X0016811Y0264504D01*
X0016748Y0264370D01*
X0016681Y0264238D01*
X0016610Y0264108D01*
X0016536Y0263980D01*
X0016459Y0263854D01*
X0016378Y0263730D01*
X0016294Y0263608D01*
X0016207Y0263489D01*
X0016116Y0263372D01*
X0016022Y0263257D01*
X0015926Y0263145D01*
X0015826Y0263035D01*
X0015724Y0262929D01*
X0015618Y0262825D01*
X0015510Y0262724D01*
X0015399Y0262626D01*
X0015286Y0262530D01*
X0015170Y0262438D01*
X0015052Y0262349D01*
X0014931Y0262264D01*
X0014808Y0262181D01*
X0014683Y0262102D01*
X0014556Y0262026D01*
X0014427Y0261954D01*
X0014296Y0261885D01*
X0014163Y0261820D01*
X0014028Y0261759D01*
X0013892Y0261701D01*
X0013755Y0261646D01*
X0013616Y0261596D01*
X0013475Y0261549D01*
X0013334Y0261506D01*
X0013191Y0261466D01*
X0013047Y0261431D01*
X0012903Y0261399D01*
X0012757Y0261372D01*
X0012611Y0261348D01*
X0012464Y0261328D01*
X0012317Y0261312D01*
X0012170Y0261300D01*
X0012022Y0261292D01*
X0011874Y0261288D01*
X0011726Y0261288D01*
X0011578Y0261292D01*
X0011430Y0261300D01*
X0011283Y0261312D01*
X0011136Y0261328D01*
X0010989Y0261348D01*
X0010843Y0261372D01*
X0010697Y0261399D01*
X0010553Y0261431D01*
X0010409Y0261466D01*
X0010266Y0261506D01*
X0010125Y0261549D01*
X0009984Y0261596D01*
X0009845Y0261646D01*
X0009708Y0261701D01*
X0009572Y0261759D01*
X0009437Y0261820D01*
X0009304Y0261885D01*
X0009173Y0261954D01*
X0009044Y0262026D01*
X0008917Y0262102D01*
X0008792Y0262181D01*
X0008669Y0262264D01*
X0008548Y0262349D01*
X0008430Y0262438D01*
X0008314Y0262530D01*
X0008201Y0262626D01*
X0008090Y0262724D01*
X0007982Y0262825D01*
X0007876Y0262929D01*
X0007774Y0263035D01*
X0007674Y0263145D01*
X0007578Y0263257D01*
X0007484Y0263372D01*
X0007393Y0263489D01*
X0007306Y0263608D01*
X0007222Y0263730D01*
X0007141Y0263854D01*
X0007064Y0263980D01*
X0006990Y0264108D01*
X0006919Y0264238D01*
X0006852Y0264370D01*
X0006789Y0264504D01*
X0006729Y0264639D01*
X0006673Y0264776D01*
X0006620Y0264915D01*
X0006572Y0265055D01*
X0006527Y0265196D01*
X0006486Y0265338D01*
X0006448Y0265481D01*
X0006415Y0265625D01*
X0006385Y0265770D01*
X0006359Y0265916D01*
X0006338Y0266062D01*
X0006320Y0266209D01*
X0006306Y0266356D01*
X0006296Y0266504D01*
X0006290Y0266652D01*
X0006288Y0266800D01*
D11*
X0013800Y0216800D02*
X0019800Y0216800D01*
X0019800Y0206800D02*
X0013800Y0206800D01*
X0013800Y0196800D02*
X0019800Y0196800D01*
X0086800Y0253800D02*
X0086800Y0259800D01*
X0096800Y0259800D02*
X0096800Y0253800D01*
X0121800Y0253800D02*
X0121800Y0259800D01*
X0131800Y0259800D02*
X0131800Y0253800D01*
X0181800Y0174800D02*
X0181800Y0168800D01*
X0191800Y0168800D02*
X0191800Y0174800D01*
X0191800Y0099800D02*
X0191800Y0093800D01*
X0181800Y0093800D02*
X0181800Y0099800D01*
X0191800Y0019800D02*
X0191800Y0013800D01*
X0201800Y0013800D02*
X0201800Y0019800D01*
X0141800Y0019800D02*
X0141800Y0013800D01*
X0131800Y0013800D02*
X0131800Y0019800D01*
X0121800Y0019800D02*
X0121800Y0013800D01*
X0111800Y0013800D02*
X0111800Y0019800D01*
X0101800Y0019800D02*
X0101800Y0013800D01*
X0066800Y0013800D02*
X0066800Y0019800D01*
X0056800Y0019800D02*
X0056800Y0013800D01*
X0046800Y0013800D02*
X0046800Y0019800D01*
X0036800Y0019800D02*
X0036800Y0013800D01*
X0026800Y0013800D02*
X0026800Y0019800D01*
X0019800Y0066800D02*
X0013800Y0066800D01*
X0013800Y0076800D02*
X0019800Y0076800D01*
X0019800Y0086800D02*
X0013800Y0086800D01*
X0013800Y0096800D02*
X0019800Y0096800D01*
D12*
X0161800Y0256800D03*
X0221800Y0076800D03*
D13*
X0221800Y0066800D03*
X0221800Y0056800D03*
X0151800Y0111800D03*
X0141800Y0111800D03*
X0131800Y0111800D03*
X0121800Y0111800D03*
X0111800Y0111800D03*
X0101800Y0111800D03*
X0091800Y0111800D03*
X0081800Y0111800D03*
X0071800Y0111800D03*
X0061800Y0111800D03*
X0051800Y0111800D03*
X0041800Y0111800D03*
X0076800Y0161800D03*
X0086800Y0161800D03*
X0081800Y0171800D03*
X0071800Y0171800D03*
X0061800Y0171800D03*
X0051800Y0171800D03*
X0041800Y0171800D03*
X0091800Y0171800D03*
X0101800Y0171800D03*
X0111800Y0171800D03*
X0121800Y0171800D03*
X0131800Y0171800D03*
X0141800Y0171800D03*
X0151800Y0171800D03*
X0151800Y0161800D03*
X0151800Y0151800D03*
X0151800Y0141800D03*
X0161800Y0226800D03*
X0161800Y0236800D03*
X0171800Y0236800D03*
X0171800Y0226800D03*
X0171800Y0246800D03*
X0161800Y0246800D03*
X0171800Y0256800D03*
D14*
X0091800Y0216800D03*
X0091800Y0196800D03*
X0051800Y0196800D03*
X0051800Y0216800D03*
D15*
X0061800Y0256800D03*
D16*
X0051800Y0256800D03*
X0041800Y0256800D03*
X0031800Y0256800D03*
D17*
X0240875Y0177600D02*
X0252725Y0177600D01*
X0252725Y0161800D02*
X0240875Y0161800D01*
X0240875Y0146000D02*
X0252725Y0146000D01*
D18*
X0246800Y0146000D02*
X0235800Y0135000D01*
X0174600Y0135000D01*
X0162900Y0142200D02*
X0191700Y0113400D01*
X0191700Y0097200D01*
X0191800Y0096800D01*
X0192600Y0096300D01*
X0211500Y0077400D01*
X0221400Y0077400D01*
X0221800Y0076800D01*
X0181800Y0096800D02*
X0181800Y0036900D01*
X0122400Y0036900D01*
X0102600Y0017100D01*
X0101800Y0016800D01*
X0101700Y0017100D01*
X0076500Y0017100D01*
X0069300Y0024300D01*
X0034200Y0024300D01*
X0027000Y0017100D01*
X0026800Y0016800D01*
X0026100Y0017100D01*
X0009000Y0034200D01*
X0009000Y0089100D01*
X0016200Y0096300D01*
X0016800Y0096800D01*
X0017100Y0087300D02*
X0016800Y0086800D01*
X0017100Y0087300D02*
X0044100Y0087300D01*
X0068400Y0111600D01*
X0068400Y0154800D01*
X0052200Y0171000D01*
X0051800Y0171800D01*
X0051300Y0171900D01*
X0021600Y0201600D01*
X0031500Y0211500D01*
X0031500Y0256500D01*
X0031800Y0256800D01*
X0051800Y0256800D02*
X0052200Y0256500D01*
X0052200Y0216900D01*
X0051800Y0216800D01*
X0052200Y0216000D01*
X0056700Y0211500D01*
X0056700Y0170100D01*
X0101700Y0125100D01*
X0101700Y0112500D01*
X0101800Y0111800D01*
X0108000Y0111600D02*
X0073800Y0077400D01*
X0017100Y0077400D01*
X0016800Y0076800D01*
X0017100Y0067500D02*
X0016800Y0066800D01*
X0017100Y0067500D02*
X0074700Y0067500D01*
X0117000Y0109800D01*
X0117000Y0113400D01*
X0151200Y0147600D01*
X0151200Y0151200D01*
X0151800Y0151800D01*
X0152100Y0142200D02*
X0151800Y0141800D01*
X0152100Y0142200D02*
X0162900Y0142200D01*
X0191700Y0171000D01*
X0191800Y0171800D01*
X0191700Y0171900D01*
X0191700Y0234000D01*
X0173700Y0252000D01*
X0166500Y0252000D01*
X0162000Y0256500D01*
X0161800Y0256800D01*
X0161100Y0257400D01*
X0141300Y0257400D01*
X0134100Y0264600D01*
X0104400Y0264600D01*
X0097200Y0257400D01*
X0096800Y0256800D01*
X0087300Y0257400D02*
X0096300Y0266400D01*
X0169200Y0266400D01*
X0233100Y0202500D01*
X0233100Y0174600D01*
X0246600Y0161100D01*
X0246800Y0161800D01*
X0181800Y0171000D02*
X0181800Y0171800D01*
X0181800Y0171000D02*
X0177300Y0166500D01*
X0080100Y0166500D01*
X0075600Y0171000D01*
X0072000Y0171000D01*
X0071800Y0171800D01*
X0091800Y0216800D02*
X0091800Y0216900D01*
X0086400Y0222300D01*
X0087300Y0222300D01*
X0121800Y0256800D01*
X0087300Y0257400D02*
X0086800Y0256800D01*
X0062100Y0256500D02*
X0062100Y0246600D01*
X0086400Y0222300D01*
X0122400Y0198000D02*
X0161100Y0236700D01*
X0161800Y0236800D01*
X0166500Y0242100D02*
X0171000Y0246600D01*
X0171800Y0246800D01*
X0166500Y0242100D02*
X0166500Y0225000D01*
X0152100Y0210600D01*
X0152100Y0171900D01*
X0151800Y0171800D01*
X0132300Y0171900D02*
X0131800Y0171800D01*
X0132300Y0171900D02*
X0132300Y0198000D01*
X0161100Y0226800D01*
X0161800Y0226800D01*
X0122400Y0198000D02*
X0122400Y0171900D01*
X0121800Y0171800D01*
X0111800Y0111800D02*
X0111600Y0111600D01*
X0108000Y0111600D01*
X0071800Y0111800D02*
X0071100Y0111600D01*
X0068400Y0111600D01*
X0016800Y0196800D02*
X0021600Y0201600D01*
X0062100Y0256500D02*
X0061800Y0256800D01*
X0181800Y0036900D02*
X0201600Y0017100D01*
X0201800Y0016800D01*
X0141800Y0016800D02*
X0141300Y0017100D01*
X0134100Y0024300D01*
X0119700Y0024300D01*
X0112500Y0017100D01*
X0111800Y0016800D01*
X0111600Y0016200D01*
X0104400Y0009000D01*
X0044100Y0009000D01*
X0036900Y0016200D01*
X0036800Y0016800D01*
D19*
X0037000Y0017000D02*
X0041600Y0017000D01*
X0041600Y0020178D01*
X0041482Y0020924D01*
X0041248Y0021643D01*
X0041066Y0022000D01*
X0042299Y0022000D01*
X0041800Y0020795D01*
X0041800Y0012805D01*
X0042561Y0010968D01*
X0043968Y0009561D01*
X0045805Y0008800D01*
X0047795Y0008800D01*
X0049632Y0009561D01*
X0051039Y0010968D01*
X0051800Y0012805D01*
X0052561Y0010968D01*
X0053968Y0009561D01*
X0055805Y0008800D01*
X0057795Y0008800D01*
X0059632Y0009561D01*
X0061039Y0010968D01*
X0061800Y0012805D01*
X0062561Y0010968D01*
X0063968Y0009561D01*
X0065805Y0008800D01*
X0067795Y0008800D01*
X0069632Y0009561D01*
X0071039Y0010968D01*
X0071800Y0012805D01*
X0071800Y0018547D01*
X0075547Y0014800D01*
X0096800Y0014800D01*
X0096800Y0012805D01*
X0097561Y0010968D01*
X0098968Y0009561D01*
X0100805Y0008800D01*
X0102795Y0008800D01*
X0104632Y0009561D01*
X0106039Y0010968D01*
X0106800Y0012805D01*
X0106800Y0018047D01*
X0107000Y0018247D01*
X0107000Y0017000D01*
X0111600Y0017000D01*
X0111600Y0016600D01*
X0107000Y0016600D01*
X0107000Y0013422D01*
X0107118Y0012676D01*
X0107352Y0011957D01*
X0107695Y0011284D01*
X0108139Y0010673D01*
X0108673Y0010139D01*
X0109284Y0009695D01*
X0109957Y0009352D01*
X0110676Y0009118D01*
X0111422Y0009000D01*
X0111600Y0009000D01*
X0111600Y0016600D01*
X0112000Y0016600D01*
X0112000Y0017000D01*
X0116600Y0017000D01*
X0116600Y0020178D01*
X0116482Y0020924D01*
X0116248Y0021643D01*
X0115905Y0022316D01*
X0115461Y0022927D01*
X0114927Y0023461D01*
X0114316Y0023905D01*
X0113643Y0024248D01*
X0113158Y0024406D01*
X0123353Y0034600D01*
X0180847Y0034600D01*
X0190694Y0024754D01*
X0188968Y0024039D01*
X0187561Y0022632D01*
X0186800Y0020795D01*
X0186800Y0012805D01*
X0187561Y0010968D01*
X0188968Y0009561D01*
X0190805Y0008800D01*
X0192795Y0008800D01*
X0194632Y0009561D01*
X0196039Y0010968D01*
X0196800Y0012805D01*
X0197561Y0010968D01*
X0198968Y0009561D01*
X0200805Y0008800D01*
X0202795Y0008800D01*
X0204632Y0009561D01*
X0206039Y0010968D01*
X0206800Y0012805D01*
X0206800Y0020795D01*
X0206039Y0022632D01*
X0204632Y0024039D01*
X0202795Y0024800D01*
X0200805Y0024800D01*
X0198968Y0024039D01*
X0198441Y0023512D01*
X0184100Y0037853D01*
X0184100Y0089341D01*
X0184632Y0089561D01*
X0186039Y0090968D01*
X0186800Y0092805D01*
X0186800Y0100795D01*
X0186039Y0102632D01*
X0184632Y0104039D01*
X0182795Y0104800D01*
X0180805Y0104800D01*
X0178968Y0104039D01*
X0177561Y0102632D01*
X0176800Y0100795D01*
X0176800Y0092805D01*
X0177561Y0090968D01*
X0178968Y0089561D01*
X0179500Y0089341D01*
X0179500Y0039200D01*
X0121447Y0039200D01*
X0105459Y0023212D01*
X0104632Y0024039D01*
X0102795Y0024800D01*
X0100805Y0024800D01*
X0098968Y0024039D01*
X0097561Y0022632D01*
X0096800Y0020795D01*
X0096800Y0019400D01*
X0077453Y0019400D01*
X0071600Y0025253D01*
X0070253Y0026600D01*
X0033247Y0026600D01*
X0030159Y0023512D01*
X0029632Y0024039D01*
X0027795Y0024800D01*
X0025805Y0024800D01*
X0023968Y0024039D01*
X0023191Y0023262D01*
X0011300Y0035153D01*
X0011300Y0062424D01*
X0012805Y0061800D01*
X0020795Y0061800D01*
X0022632Y0062561D01*
X0024039Y0063968D01*
X0024549Y0065200D01*
X0075653Y0065200D01*
X0077000Y0066547D01*
X0118513Y0108060D01*
X0118986Y0107588D01*
X0120812Y0106831D01*
X0122788Y0106831D01*
X0124614Y0107588D01*
X0126012Y0108986D01*
X0126768Y0110812D01*
X0126768Y0112788D01*
X0126012Y0114614D01*
X0124614Y0116012D01*
X0123377Y0116525D01*
X0147244Y0140391D01*
X0147381Y0139970D01*
X0147722Y0139301D01*
X0148163Y0138694D01*
X0148694Y0138163D01*
X0149301Y0137722D01*
X0149970Y0137381D01*
X0150683Y0137149D01*
X0151425Y0137031D01*
X0151616Y0137031D01*
X0151616Y0141616D01*
X0151984Y0141616D01*
X0151984Y0137031D01*
X0152175Y0137031D01*
X0152917Y0137149D01*
X0153630Y0137381D01*
X0154299Y0137722D01*
X0154906Y0138163D01*
X0155437Y0138694D01*
X0155878Y0139301D01*
X0156219Y0139970D01*
X0156451Y0140683D01*
X0156568Y0141425D01*
X0156568Y0141616D01*
X0151984Y0141616D01*
X0151984Y0141984D01*
X0156568Y0141984D01*
X0156568Y0142175D01*
X0156451Y0142917D01*
X0156219Y0143630D01*
X0155878Y0144299D01*
X0155437Y0144906D01*
X0154906Y0145437D01*
X0154299Y0145878D01*
X0153630Y0146219D01*
X0153209Y0146356D01*
X0153500Y0146647D01*
X0153500Y0147126D01*
X0154614Y0147588D01*
X0156012Y0148986D01*
X0156768Y0150812D01*
X0156768Y0152788D01*
X0156012Y0154614D01*
X0154614Y0156012D01*
X0152788Y0156768D01*
X0150812Y0156768D01*
X0148986Y0156012D01*
X0147588Y0154614D01*
X0146831Y0152788D01*
X0146831Y0150812D01*
X0147588Y0148986D01*
X0148460Y0148113D01*
X0116047Y0115700D01*
X0115487Y0115140D01*
X0114614Y0116012D01*
X0112788Y0116768D01*
X0110812Y0116768D01*
X0108986Y0116012D01*
X0107588Y0114614D01*
X0107292Y0113900D01*
X0107047Y0113900D01*
X0106525Y0113377D01*
X0106012Y0114614D01*
X0104614Y0116012D01*
X0104000Y0116267D01*
X0104000Y0126053D01*
X0063094Y0166958D01*
X0064614Y0167588D01*
X0066012Y0168986D01*
X0066768Y0170812D01*
X0066768Y0172788D01*
X0066012Y0174614D01*
X0064614Y0176012D01*
X0062788Y0176768D01*
X0060812Y0176768D01*
X0059000Y0176018D01*
X0059000Y0212453D01*
X0056400Y0215053D01*
X0056400Y0218705D01*
X0054500Y0220605D01*
X0054500Y0253030D01*
X0055678Y0254209D01*
X0056375Y0255890D01*
X0056375Y0257710D01*
X0055678Y0259391D01*
X0054391Y0260678D01*
X0052710Y0261375D01*
X0050890Y0261375D01*
X0049209Y0260678D01*
X0047922Y0259391D01*
X0047225Y0257710D01*
X0047225Y0255890D01*
X0047922Y0254209D01*
X0049209Y0252922D01*
X0049900Y0252635D01*
X0049900Y0221400D01*
X0049895Y0221400D01*
X0047200Y0218705D01*
X0047200Y0214895D01*
X0049895Y0212200D01*
X0052747Y0212200D01*
X0054400Y0210547D01*
X0054400Y0200705D01*
X0053705Y0201400D01*
X0049895Y0201400D01*
X0047200Y0198705D01*
X0047200Y0194895D01*
X0049895Y0192200D01*
X0053705Y0192200D01*
X0054400Y0192895D01*
X0054400Y0175805D01*
X0054299Y0175878D01*
X0053630Y0176219D01*
X0052917Y0176451D01*
X0052175Y0176568D01*
X0051984Y0176568D01*
X0051984Y0171984D01*
X0051616Y0171984D01*
X0051616Y0171616D01*
X0051984Y0171616D01*
X0051984Y0167031D01*
X0052175Y0167031D01*
X0052917Y0167149D01*
X0053630Y0167381D01*
X0054299Y0167722D01*
X0054906Y0168163D01*
X0055145Y0168402D01*
X0055747Y0167800D01*
X0099400Y0124147D01*
X0099400Y0116184D01*
X0098986Y0116012D01*
X0097588Y0114614D01*
X0096831Y0112788D01*
X0096831Y0110812D01*
X0097588Y0108986D01*
X0098986Y0107588D01*
X0100223Y0107075D01*
X0072847Y0079700D01*
X0023971Y0079700D01*
X0022632Y0081039D01*
X0020795Y0081800D01*
X0012805Y0081800D01*
X0011300Y0081176D01*
X0011300Y0082687D01*
X0011957Y0082352D01*
X0012676Y0082118D01*
X0013422Y0082000D01*
X0016600Y0082000D01*
X0016600Y0086600D01*
X0017000Y0086600D01*
X0017000Y0087000D01*
X0016600Y0087000D01*
X0016600Y0091600D01*
X0014753Y0091600D01*
X0014953Y0091800D01*
X0020795Y0091800D01*
X0022632Y0092561D01*
X0024039Y0093968D01*
X0024800Y0095805D01*
X0024800Y0097795D01*
X0024039Y0099632D01*
X0022632Y0101039D01*
X0020795Y0101800D01*
X0012805Y0101800D01*
X0010968Y0101039D01*
X0009561Y0099632D01*
X0008800Y0097795D01*
X0008800Y0095805D01*
X0009561Y0093968D01*
X0010088Y0093441D01*
X0008047Y0091400D01*
X0006700Y0090053D01*
X0006700Y0033247D01*
X0021800Y0018147D01*
X0021800Y0012805D01*
X0022561Y0010968D01*
X0023968Y0009561D01*
X0025805Y0008800D01*
X0027795Y0008800D01*
X0029632Y0009561D01*
X0031039Y0010968D01*
X0031800Y0012805D01*
X0031800Y0018647D01*
X0032000Y0018847D01*
X0032000Y0017000D01*
X0036600Y0017000D01*
X0036600Y0016600D01*
X0037000Y0016600D01*
X0037000Y0017000D01*
X0037000Y0016600D02*
X0041600Y0016600D01*
X0041600Y0013422D01*
X0041482Y0012676D01*
X0041248Y0011957D01*
X0040905Y0011284D01*
X0040461Y0010673D01*
X0039927Y0010139D01*
X0039316Y0009695D01*
X0038643Y0009352D01*
X0037924Y0009118D01*
X0037178Y0009000D01*
X0037000Y0009000D01*
X0037000Y0016600D01*
X0036600Y0016600D02*
X0036600Y0009000D01*
X0036422Y0009000D01*
X0035676Y0009118D01*
X0034957Y0009352D01*
X0034284Y0009695D01*
X0033673Y0010139D01*
X0033139Y0010673D01*
X0032695Y0011284D01*
X0032352Y0011957D01*
X0032118Y0012676D01*
X0032000Y0013422D01*
X0032000Y0016600D01*
X0036600Y0016600D01*
X0036600Y0016187D02*
X0037000Y0016187D01*
X0037000Y0014588D02*
X0036600Y0014588D01*
X0036600Y0012990D02*
X0037000Y0012990D01*
X0037000Y0011391D02*
X0036600Y0011391D01*
X0036600Y0009793D02*
X0037000Y0009793D01*
X0039450Y0009793D02*
X0043736Y0009793D01*
X0042386Y0011391D02*
X0040960Y0011391D01*
X0041531Y0012990D02*
X0041800Y0012990D01*
X0041800Y0014588D02*
X0041600Y0014588D01*
X0041600Y0016187D02*
X0041800Y0016187D01*
X0041800Y0017785D02*
X0041600Y0017785D01*
X0041600Y0019384D02*
X0041800Y0019384D01*
X0041878Y0020982D02*
X0041463Y0020982D01*
X0051301Y0022000D02*
X0052299Y0022000D01*
X0051800Y0020795D01*
X0051800Y0012805D01*
X0051800Y0020795D01*
X0051301Y0022000D01*
X0051722Y0020982D02*
X0051878Y0020982D01*
X0051800Y0019384D02*
X0051800Y0019384D01*
X0051800Y0017785D02*
X0051800Y0017785D01*
X0051800Y0016187D02*
X0051800Y0016187D01*
X0051800Y0014588D02*
X0051800Y0014588D01*
X0051800Y0012990D02*
X0051800Y0012990D01*
X0051214Y0011391D02*
X0052386Y0011391D01*
X0053736Y0009793D02*
X0049864Y0009793D01*
X0059864Y0009793D02*
X0063736Y0009793D01*
X0062386Y0011391D02*
X0061214Y0011391D01*
X0061800Y0012805D02*
X0061800Y0020795D01*
X0061800Y0012805D01*
X0061800Y0012990D02*
X0061800Y0012990D01*
X0061800Y0014588D02*
X0061800Y0014588D01*
X0061800Y0016187D02*
X0061800Y0016187D01*
X0061800Y0017785D02*
X0061800Y0017785D01*
X0061800Y0019384D02*
X0061800Y0019384D01*
X0061800Y0020795D02*
X0062299Y0022000D01*
X0061301Y0022000D01*
X0061800Y0020795D01*
X0061722Y0020982D02*
X0061878Y0020982D01*
X0071075Y0025778D02*
X0108025Y0025778D01*
X0109624Y0027376D02*
X0019076Y0027376D01*
X0017478Y0028975D02*
X0111222Y0028975D01*
X0112821Y0030573D02*
X0015879Y0030573D01*
X0014281Y0032172D02*
X0114419Y0032172D01*
X0116018Y0033770D02*
X0012682Y0033770D01*
X0011300Y0035369D02*
X0117616Y0035369D01*
X0119215Y0036967D02*
X0011300Y0036967D01*
X0011300Y0038566D02*
X0120813Y0038566D01*
X0122523Y0033770D02*
X0181677Y0033770D01*
X0183276Y0032172D02*
X0120924Y0032172D01*
X0119326Y0030573D02*
X0184874Y0030573D01*
X0186473Y0028975D02*
X0117727Y0028975D01*
X0116129Y0027376D02*
X0188071Y0027376D01*
X0189670Y0025778D02*
X0114530Y0025778D01*
X0113778Y0024179D02*
X0119307Y0024179D01*
X0118968Y0024039D02*
X0117561Y0022632D01*
X0116800Y0020795D01*
X0116800Y0012805D01*
X0117561Y0010968D01*
X0118968Y0009561D01*
X0120805Y0008800D01*
X0122795Y0008800D01*
X0124632Y0009561D01*
X0126039Y0010968D01*
X0126800Y0012805D01*
X0127561Y0010968D01*
X0128968Y0009561D01*
X0130805Y0008800D01*
X0132795Y0008800D01*
X0134632Y0009561D01*
X0136039Y0010968D01*
X0136800Y0012805D01*
X0136800Y0020795D01*
X0136039Y0022632D01*
X0134632Y0024039D01*
X0132795Y0024800D01*
X0130805Y0024800D01*
X0128968Y0024039D01*
X0127561Y0022632D01*
X0126800Y0020795D01*
X0126800Y0012805D01*
X0126800Y0020795D01*
X0126039Y0022632D01*
X0124632Y0024039D01*
X0122795Y0024800D01*
X0120805Y0024800D01*
X0118968Y0024039D01*
X0117540Y0022581D02*
X0115713Y0022581D01*
X0116463Y0020982D02*
X0116878Y0020982D01*
X0116800Y0019384D02*
X0116600Y0019384D01*
X0116600Y0017785D02*
X0116800Y0017785D01*
X0116600Y0016600D02*
X0112000Y0016600D01*
X0112000Y0009000D01*
X0112178Y0009000D01*
X0112924Y0009118D01*
X0113643Y0009352D01*
X0114316Y0009695D01*
X0114927Y0010139D01*
X0115461Y0010673D01*
X0115905Y0011284D01*
X0116248Y0011957D01*
X0116482Y0012676D01*
X0116600Y0013422D01*
X0116600Y0016600D01*
X0116600Y0016187D02*
X0116800Y0016187D01*
X0116800Y0014588D02*
X0116600Y0014588D01*
X0116531Y0012990D02*
X0116800Y0012990D01*
X0117386Y0011391D02*
X0115960Y0011391D01*
X0114450Y0009793D02*
X0118736Y0009793D01*
X0124864Y0009793D02*
X0128736Y0009793D01*
X0127386Y0011391D02*
X0126214Y0011391D01*
X0126800Y0012990D02*
X0126800Y0012990D01*
X0126800Y0014588D02*
X0126800Y0014588D01*
X0126800Y0016187D02*
X0126800Y0016187D01*
X0126800Y0017785D02*
X0126800Y0017785D01*
X0126800Y0019384D02*
X0126800Y0019384D01*
X0126722Y0020982D02*
X0126878Y0020982D01*
X0127540Y0022581D02*
X0126060Y0022581D01*
X0124293Y0024179D02*
X0129307Y0024179D01*
X0134293Y0024179D02*
X0139822Y0024179D01*
X0139957Y0024248D02*
X0139284Y0023905D01*
X0138673Y0023461D01*
X0138139Y0022927D01*
X0137695Y0022316D01*
X0137352Y0021643D01*
X0137118Y0020924D01*
X0137000Y0020178D01*
X0137000Y0017000D01*
X0141600Y0017000D01*
X0141600Y0024600D01*
X0141422Y0024600D01*
X0140676Y0024482D01*
X0139957Y0024248D01*
X0141600Y0024179D02*
X0142000Y0024179D01*
X0142000Y0024600D02*
X0142000Y0017000D01*
X0141600Y0017000D01*
X0141600Y0016600D01*
X0137000Y0016600D01*
X0137000Y0013422D01*
X0137118Y0012676D01*
X0137352Y0011957D01*
X0137695Y0011284D01*
X0138139Y0010673D01*
X0138673Y0010139D01*
X0139284Y0009695D01*
X0139957Y0009352D01*
X0140676Y0009118D01*
X0141422Y0009000D01*
X0141600Y0009000D01*
X0141600Y0016600D01*
X0142000Y0016600D01*
X0142000Y0017000D01*
X0146600Y0017000D01*
X0146600Y0020178D01*
X0146482Y0020924D01*
X0146248Y0021643D01*
X0145905Y0022316D01*
X0145461Y0022927D01*
X0144927Y0023461D01*
X0144316Y0023905D01*
X0143643Y0024248D01*
X0142924Y0024482D01*
X0142178Y0024600D01*
X0142000Y0024600D01*
X0143778Y0024179D02*
X0189307Y0024179D01*
X0187540Y0022581D02*
X0145713Y0022581D01*
X0146463Y0020982D02*
X0186878Y0020982D01*
X0186800Y0019384D02*
X0146600Y0019384D01*
X0146600Y0017785D02*
X0186800Y0017785D01*
X0186800Y0016187D02*
X0146600Y0016187D01*
X0146600Y0016600D02*
X0142000Y0016600D01*
X0142000Y0009000D01*
X0142178Y0009000D01*
X0142924Y0009118D01*
X0143643Y0009352D01*
X0144316Y0009695D01*
X0144927Y0010139D01*
X0145461Y0010673D01*
X0145905Y0011284D01*
X0146248Y0011957D01*
X0146482Y0012676D01*
X0146600Y0013422D01*
X0146600Y0016600D01*
X0146600Y0014588D02*
X0186800Y0014588D01*
X0186800Y0012990D02*
X0146531Y0012990D01*
X0145960Y0011391D02*
X0187386Y0011391D01*
X0188736Y0009793D02*
X0144450Y0009793D01*
X0142000Y0009793D02*
X0141600Y0009793D01*
X0141600Y0011391D02*
X0142000Y0011391D01*
X0142000Y0012990D02*
X0141600Y0012990D01*
X0141600Y0014588D02*
X0142000Y0014588D01*
X0142000Y0016187D02*
X0141600Y0016187D01*
X0141600Y0017785D02*
X0142000Y0017785D01*
X0142000Y0019384D02*
X0141600Y0019384D01*
X0141600Y0020982D02*
X0142000Y0020982D01*
X0142000Y0022581D02*
X0141600Y0022581D01*
X0137887Y0022581D02*
X0136060Y0022581D01*
X0136722Y0020982D02*
X0137137Y0020982D01*
X0137000Y0019384D02*
X0136800Y0019384D01*
X0136800Y0017785D02*
X0137000Y0017785D01*
X0137000Y0016187D02*
X0136800Y0016187D01*
X0136800Y0014588D02*
X0137000Y0014588D01*
X0137069Y0012990D02*
X0136800Y0012990D01*
X0136214Y0011391D02*
X0137640Y0011391D01*
X0139150Y0009793D02*
X0134864Y0009793D01*
X0112000Y0009793D02*
X0111600Y0009793D01*
X0111600Y0011391D02*
X0112000Y0011391D01*
X0112000Y0012990D02*
X0111600Y0012990D01*
X0111600Y0014588D02*
X0112000Y0014588D01*
X0112000Y0016187D02*
X0111600Y0016187D01*
X0107000Y0016187D02*
X0106800Y0016187D01*
X0106800Y0017785D02*
X0107000Y0017785D01*
X0107000Y0014588D02*
X0106800Y0014588D01*
X0106800Y0012990D02*
X0107069Y0012990D01*
X0107640Y0011391D02*
X0106214Y0011391D01*
X0104864Y0009793D02*
X0109150Y0009793D01*
X0098736Y0009793D02*
X0069864Y0009793D01*
X0071214Y0011391D02*
X0097386Y0011391D01*
X0096800Y0012990D02*
X0071800Y0012990D01*
X0071800Y0014588D02*
X0096800Y0014588D01*
X0096878Y0020982D02*
X0075871Y0020982D01*
X0074272Y0022581D02*
X0097540Y0022581D01*
X0099307Y0024179D02*
X0072674Y0024179D01*
X0072562Y0017785D02*
X0071800Y0017785D01*
X0071800Y0016187D02*
X0074161Y0016187D01*
X0104293Y0024179D02*
X0106426Y0024179D01*
X0076193Y0065740D02*
X0179500Y0065740D01*
X0179500Y0064142D02*
X0024111Y0064142D01*
X0022589Y0062543D02*
X0179500Y0062543D01*
X0179500Y0060945D02*
X0011300Y0060945D01*
X0011300Y0059346D02*
X0179500Y0059346D01*
X0179500Y0057748D02*
X0011300Y0057748D01*
X0011300Y0056149D02*
X0179500Y0056149D01*
X0179500Y0054551D02*
X0011300Y0054551D01*
X0011300Y0052952D02*
X0179500Y0052952D01*
X0179500Y0051354D02*
X0011300Y0051354D01*
X0011300Y0049755D02*
X0179500Y0049755D01*
X0179500Y0048157D02*
X0011300Y0048157D01*
X0011300Y0046558D02*
X0179500Y0046558D01*
X0179500Y0044960D02*
X0011300Y0044960D01*
X0011300Y0043361D02*
X0179500Y0043361D01*
X0179500Y0041763D02*
X0011300Y0041763D01*
X0011300Y0040164D02*
X0179500Y0040164D01*
X0184100Y0040164D02*
X0268701Y0040164D01*
X0268701Y0038566D02*
X0184100Y0038566D01*
X0184985Y0036967D02*
X0268701Y0036967D01*
X0268701Y0035369D02*
X0186584Y0035369D01*
X0188182Y0033770D02*
X0268701Y0033770D01*
X0268701Y0032172D02*
X0189781Y0032172D01*
X0191379Y0030573D02*
X0268701Y0030573D01*
X0268701Y0028975D02*
X0192978Y0028975D01*
X0194576Y0027376D02*
X0268701Y0027376D01*
X0268701Y0025778D02*
X0196175Y0025778D01*
X0197774Y0024179D02*
X0199307Y0024179D01*
X0204293Y0024179D02*
X0268701Y0024179D01*
X0268701Y0022581D02*
X0206060Y0022581D01*
X0206722Y0020982D02*
X0268701Y0020982D01*
X0268701Y0019384D02*
X0206800Y0019384D01*
X0206800Y0017785D02*
X0257445Y0017785D01*
X0257658Y0017999D02*
X0255601Y0015942D01*
X0254488Y0013254D01*
X0254488Y0010346D01*
X0255601Y0007658D01*
X0257658Y0005601D01*
X0260346Y0004488D01*
X0263254Y0004488D01*
X0265942Y0005601D01*
X0267999Y0007658D01*
X0268701Y0009353D01*
X0268701Y0003600D01*
X0003600Y0003600D01*
X0003600Y0274961D01*
X0268701Y0274961D01*
X0268701Y0269247D01*
X0267999Y0270942D01*
X0265942Y0272999D01*
X0263254Y0274112D01*
X0260346Y0274112D01*
X0257658Y0272999D01*
X0255601Y0270942D01*
X0254488Y0268254D01*
X0254488Y0265346D01*
X0255601Y0262658D01*
X0257658Y0260601D01*
X0260346Y0259488D01*
X0263254Y0259488D01*
X0265942Y0260601D01*
X0267999Y0262658D01*
X0268701Y0264353D01*
X0268701Y0014247D01*
X0267999Y0015942D01*
X0265942Y0017999D01*
X0263254Y0019112D01*
X0260346Y0019112D01*
X0257658Y0017999D01*
X0255846Y0016187D02*
X0206800Y0016187D01*
X0206800Y0014588D02*
X0255041Y0014588D01*
X0254488Y0012990D02*
X0206800Y0012990D01*
X0206214Y0011391D02*
X0254488Y0011391D01*
X0254717Y0009793D02*
X0204864Y0009793D01*
X0198736Y0009793D02*
X0194864Y0009793D01*
X0196214Y0011391D02*
X0197386Y0011391D01*
X0196800Y0012805D02*
X0196800Y0018647D01*
X0196800Y0018647D01*
X0196800Y0012805D01*
X0196800Y0012990D02*
X0196800Y0012990D01*
X0196800Y0014588D02*
X0196800Y0014588D01*
X0196800Y0016187D02*
X0196800Y0016187D01*
X0196800Y0017785D02*
X0196800Y0017785D01*
X0184100Y0041763D02*
X0268701Y0041763D01*
X0268701Y0043361D02*
X0184100Y0043361D01*
X0184100Y0044960D02*
X0268701Y0044960D01*
X0268701Y0046558D02*
X0184100Y0046558D01*
X0184100Y0048157D02*
X0268701Y0048157D01*
X0268701Y0049755D02*
X0184100Y0049755D01*
X0184100Y0051354D02*
X0268701Y0051354D01*
X0268701Y0052952D02*
X0224979Y0052952D01*
X0224614Y0052588D02*
X0226012Y0053986D01*
X0226768Y0055812D01*
X0226768Y0057788D01*
X0226012Y0059614D01*
X0224614Y0061012D01*
X0222788Y0061768D01*
X0220812Y0061768D01*
X0218986Y0061012D01*
X0217588Y0059614D01*
X0216831Y0057788D01*
X0216831Y0055812D01*
X0217588Y0053986D01*
X0218986Y0052588D01*
X0220812Y0051831D01*
X0222788Y0051831D01*
X0224614Y0052588D01*
X0226246Y0054551D02*
X0268701Y0054551D01*
X0268701Y0056149D02*
X0226768Y0056149D01*
X0226768Y0057748D02*
X0268701Y0057748D01*
X0268701Y0059346D02*
X0226123Y0059346D01*
X0224682Y0060945D02*
X0268701Y0060945D01*
X0268701Y0062543D02*
X0224507Y0062543D01*
X0224614Y0062588D02*
X0226012Y0063986D01*
X0226768Y0065812D01*
X0226768Y0067788D01*
X0226012Y0069614D01*
X0224614Y0071012D01*
X0222788Y0071768D01*
X0220812Y0071768D01*
X0218986Y0071012D01*
X0217588Y0069614D01*
X0216831Y0067788D01*
X0216831Y0065812D01*
X0217588Y0063986D01*
X0218986Y0062588D01*
X0220812Y0061831D01*
X0222788Y0061831D01*
X0224614Y0062588D01*
X0226077Y0064142D02*
X0268701Y0064142D01*
X0268701Y0065740D02*
X0226739Y0065740D01*
X0226768Y0067339D02*
X0268701Y0067339D01*
X0268701Y0068937D02*
X0226292Y0068937D01*
X0225091Y0070536D02*
X0268701Y0070536D01*
X0268701Y0072134D02*
X0225390Y0072134D01*
X0225463Y0072154D02*
X0225874Y0072391D01*
X0226209Y0072726D01*
X0226446Y0073137D01*
X0226568Y0073595D01*
X0226568Y0076616D01*
X0221984Y0076616D01*
X0221984Y0072031D01*
X0225005Y0072031D01*
X0225463Y0072154D01*
X0226568Y0073733D02*
X0268701Y0073733D01*
X0268701Y0075332D02*
X0226568Y0075332D01*
X0226568Y0076984D02*
X0226568Y0080005D01*
X0226446Y0080463D01*
X0226209Y0080874D01*
X0225874Y0081209D01*
X0225463Y0081446D01*
X0225005Y0081568D01*
X0221984Y0081568D01*
X0221984Y0076984D01*
X0221616Y0076984D01*
X0221616Y0076616D01*
X0221984Y0076616D01*
X0221984Y0076984D01*
X0226568Y0076984D01*
X0226568Y0078529D02*
X0268701Y0078529D01*
X0268701Y0080127D02*
X0226536Y0080127D01*
X0221984Y0080127D02*
X0221616Y0080127D01*
X0221616Y0081568D02*
X0218595Y0081568D01*
X0218137Y0081446D01*
X0217726Y0081209D01*
X0217391Y0080874D01*
X0217154Y0080463D01*
X0217031Y0080005D01*
X0217031Y0076984D01*
X0221616Y0076984D01*
X0221616Y0081568D01*
X0221616Y0078529D02*
X0221984Y0078529D01*
X0221984Y0076930D02*
X0268701Y0076930D01*
X0268701Y0081726D02*
X0184100Y0081726D01*
X0184100Y0083324D02*
X0268701Y0083324D01*
X0268701Y0084923D02*
X0184100Y0084923D01*
X0184100Y0086521D02*
X0268701Y0086521D01*
X0268701Y0088120D02*
X0184100Y0088120D01*
X0184789Y0089718D02*
X0189252Y0089718D01*
X0189284Y0089695D02*
X0189957Y0089352D01*
X0190676Y0089118D01*
X0191422Y0089000D01*
X0191600Y0089000D01*
X0191600Y0096600D01*
X0187000Y0096600D01*
X0187000Y0093422D01*
X0187118Y0092676D01*
X0187352Y0091957D01*
X0187695Y0091284D01*
X0188139Y0090673D01*
X0188673Y0090139D01*
X0189284Y0089695D01*
X0187678Y0091317D02*
X0186183Y0091317D01*
X0186800Y0092915D02*
X0187080Y0092915D01*
X0187000Y0094514D02*
X0186800Y0094514D01*
X0186800Y0096112D02*
X0187000Y0096112D01*
X0187000Y0097000D02*
X0191600Y0097000D01*
X0191600Y0104600D01*
X0191422Y0104600D01*
X0190676Y0104482D01*
X0189957Y0104248D01*
X0189284Y0103905D01*
X0188673Y0103461D01*
X0188139Y0102927D01*
X0187695Y0102316D01*
X0187352Y0101643D01*
X0187118Y0100924D01*
X0187000Y0100178D01*
X0187000Y0097000D01*
X0187000Y0097711D02*
X0186800Y0097711D01*
X0186800Y0099309D02*
X0187000Y0099309D01*
X0187116Y0100908D02*
X0186753Y0100908D01*
X0186091Y0102506D02*
X0187833Y0102506D01*
X0189676Y0104105D02*
X0184473Y0104105D01*
X0179127Y0104105D02*
X0114557Y0104105D01*
X0112959Y0102506D02*
X0177509Y0102506D01*
X0176847Y0100908D02*
X0111360Y0100908D01*
X0109762Y0099309D02*
X0176800Y0099309D01*
X0176800Y0097711D02*
X0108163Y0097711D01*
X0106565Y0096112D02*
X0176800Y0096112D01*
X0176800Y0094514D02*
X0104966Y0094514D01*
X0103368Y0092915D02*
X0176800Y0092915D01*
X0177417Y0091317D02*
X0101769Y0091317D01*
X0100171Y0089718D02*
X0178811Y0089718D01*
X0179500Y0088120D02*
X0098572Y0088120D01*
X0096974Y0086521D02*
X0179500Y0086521D01*
X0179500Y0084923D02*
X0095375Y0084923D01*
X0093777Y0083324D02*
X0179500Y0083324D01*
X0179500Y0081726D02*
X0092178Y0081726D01*
X0090580Y0080127D02*
X0179500Y0080127D01*
X0179500Y0078529D02*
X0088981Y0078529D01*
X0087383Y0076930D02*
X0179500Y0076930D01*
X0179500Y0075332D02*
X0085784Y0075332D01*
X0084186Y0073733D02*
X0179500Y0073733D01*
X0179500Y0072134D02*
X0082587Y0072134D01*
X0080989Y0070536D02*
X0179500Y0070536D01*
X0179500Y0068937D02*
X0079390Y0068937D01*
X0077792Y0067339D02*
X0179500Y0067339D01*
X0184100Y0067339D02*
X0216831Y0067339D01*
X0216861Y0065740D02*
X0184100Y0065740D01*
X0184100Y0064142D02*
X0217523Y0064142D01*
X0219093Y0062543D02*
X0184100Y0062543D01*
X0184100Y0060945D02*
X0218918Y0060945D01*
X0217477Y0059346D02*
X0184100Y0059346D01*
X0184100Y0057748D02*
X0216831Y0057748D01*
X0216831Y0056149D02*
X0184100Y0056149D01*
X0184100Y0054551D02*
X0217354Y0054551D01*
X0218621Y0052952D02*
X0184100Y0052952D01*
X0184100Y0068937D02*
X0217308Y0068937D01*
X0218509Y0070536D02*
X0184100Y0070536D01*
X0184100Y0072134D02*
X0218210Y0072134D01*
X0218137Y0072154D02*
X0218595Y0072031D01*
X0221616Y0072031D01*
X0221616Y0076616D01*
X0217031Y0076616D01*
X0217031Y0073595D01*
X0217154Y0073137D01*
X0217391Y0072726D01*
X0217726Y0072391D01*
X0218137Y0072154D01*
X0217031Y0073733D02*
X0184100Y0073733D01*
X0184100Y0075332D02*
X0217031Y0075332D01*
X0217031Y0078529D02*
X0184100Y0078529D01*
X0184100Y0080127D02*
X0217064Y0080127D01*
X0221616Y0076930D02*
X0184100Y0076930D01*
X0192000Y0089000D02*
X0192178Y0089000D01*
X0192924Y0089118D01*
X0193643Y0089352D01*
X0194316Y0089695D01*
X0194927Y0090139D01*
X0195461Y0090673D01*
X0195905Y0091284D01*
X0196248Y0091957D01*
X0196482Y0092676D01*
X0196600Y0093422D01*
X0196600Y0096600D01*
X0192000Y0096600D01*
X0192000Y0097000D01*
X0191600Y0097000D01*
X0191600Y0096600D01*
X0192000Y0096600D01*
X0192000Y0089000D01*
X0192000Y0089718D02*
X0191600Y0089718D01*
X0191600Y0091317D02*
X0192000Y0091317D01*
X0192000Y0092915D02*
X0191600Y0092915D01*
X0191600Y0094514D02*
X0192000Y0094514D01*
X0192000Y0096112D02*
X0191600Y0096112D01*
X0192000Y0097000D02*
X0196600Y0097000D01*
X0196600Y0100178D01*
X0196482Y0100924D01*
X0196248Y0101643D01*
X0195905Y0102316D01*
X0195461Y0102927D01*
X0194927Y0103461D01*
X0194316Y0103905D01*
X0193643Y0104248D01*
X0192924Y0104482D01*
X0192178Y0104600D01*
X0192000Y0104600D01*
X0192000Y0097000D01*
X0192000Y0097711D02*
X0191600Y0097711D01*
X0191600Y0099309D02*
X0192000Y0099309D01*
X0192000Y0100908D02*
X0191600Y0100908D01*
X0191600Y0102506D02*
X0192000Y0102506D01*
X0192000Y0104105D02*
X0191600Y0104105D01*
X0193924Y0104105D02*
X0268701Y0104105D01*
X0268701Y0105703D02*
X0116156Y0105703D01*
X0117754Y0107302D02*
X0119676Y0107302D01*
X0123924Y0107302D02*
X0129676Y0107302D01*
X0128986Y0107588D02*
X0130812Y0106831D01*
X0132788Y0106831D01*
X0134614Y0107588D01*
X0136012Y0108986D01*
X0136768Y0110812D01*
X0136768Y0112788D01*
X0136012Y0114614D01*
X0134614Y0116012D01*
X0132788Y0116768D01*
X0130812Y0116768D01*
X0128986Y0116012D01*
X0127588Y0114614D01*
X0126831Y0112788D01*
X0126831Y0110812D01*
X0127588Y0108986D01*
X0128986Y0107588D01*
X0127673Y0108900D02*
X0125927Y0108900D01*
X0126639Y0110499D02*
X0126961Y0110499D01*
X0126831Y0112097D02*
X0126768Y0112097D01*
X0126393Y0113696D02*
X0127207Y0113696D01*
X0128268Y0115294D02*
X0125332Y0115294D01*
X0123745Y0116893D02*
X0268701Y0116893D01*
X0268701Y0118491D02*
X0265536Y0118491D01*
X0264827Y0117782D02*
X0266330Y0119285D01*
X0267143Y0121249D01*
X0267143Y0123375D01*
X0266330Y0125339D01*
X0264827Y0126842D01*
X0262863Y0127655D01*
X0260737Y0127655D01*
X0258773Y0126842D01*
X0257270Y0125339D01*
X0256457Y0123375D01*
X0256457Y0121249D01*
X0257270Y0119285D01*
X0258773Y0117782D01*
X0260737Y0116969D01*
X0262863Y0116969D01*
X0264827Y0117782D01*
X0266663Y0120090D02*
X0268701Y0120090D01*
X0268701Y0121688D02*
X0267143Y0121688D01*
X0267143Y0123287D02*
X0268701Y0123287D01*
X0268701Y0124885D02*
X0266518Y0124885D01*
X0265184Y0126484D02*
X0268701Y0126484D01*
X0268701Y0128082D02*
X0134935Y0128082D01*
X0133337Y0126484D02*
X0258416Y0126484D01*
X0257082Y0124885D02*
X0131738Y0124885D01*
X0130140Y0123287D02*
X0256457Y0123287D01*
X0256457Y0121688D02*
X0128541Y0121688D01*
X0126943Y0120090D02*
X0256937Y0120090D01*
X0258064Y0118491D02*
X0125344Y0118491D01*
X0122036Y0121688D02*
X0104000Y0121688D01*
X0104000Y0120090D02*
X0120437Y0120090D01*
X0118839Y0118491D02*
X0104000Y0118491D01*
X0104000Y0116893D02*
X0117240Y0116893D01*
X0115642Y0115294D02*
X0115332Y0115294D01*
X0108268Y0115294D02*
X0105332Y0115294D01*
X0106393Y0113696D02*
X0106843Y0113696D01*
X0099676Y0107302D02*
X0093924Y0107302D01*
X0094614Y0107588D02*
X0096012Y0108986D01*
X0096768Y0110812D01*
X0096768Y0112788D01*
X0096012Y0114614D01*
X0094614Y0116012D01*
X0092788Y0116768D01*
X0090812Y0116768D01*
X0088986Y0116012D01*
X0087588Y0114614D01*
X0086831Y0112788D01*
X0086831Y0110812D01*
X0087588Y0108986D01*
X0088986Y0107588D01*
X0090812Y0106831D01*
X0092788Y0106831D01*
X0094614Y0107588D01*
X0095927Y0108900D02*
X0097673Y0108900D01*
X0096961Y0110499D02*
X0096639Y0110499D01*
X0096768Y0112097D02*
X0096831Y0112097D01*
X0097207Y0113696D02*
X0096393Y0113696D01*
X0095332Y0115294D02*
X0098268Y0115294D01*
X0099400Y0116893D02*
X0003600Y0116893D01*
X0003600Y0118491D02*
X0099400Y0118491D01*
X0099400Y0120090D02*
X0003600Y0120090D01*
X0003600Y0121688D02*
X0099400Y0121688D01*
X0099400Y0123287D02*
X0003600Y0123287D01*
X0003600Y0124885D02*
X0098662Y0124885D01*
X0097063Y0126484D02*
X0003600Y0126484D01*
X0003600Y0128082D02*
X0095465Y0128082D01*
X0093866Y0129681D02*
X0003600Y0129681D01*
X0003600Y0131279D02*
X0092268Y0131279D01*
X0090669Y0132878D02*
X0003600Y0132878D01*
X0003600Y0134476D02*
X0089071Y0134476D01*
X0087472Y0136075D02*
X0003600Y0136075D01*
X0003600Y0137673D02*
X0085874Y0137673D01*
X0084275Y0139272D02*
X0003600Y0139272D01*
X0003600Y0140870D02*
X0082677Y0140870D01*
X0081078Y0142469D02*
X0003600Y0142469D01*
X0003600Y0144068D02*
X0079480Y0144068D01*
X0077881Y0145666D02*
X0003600Y0145666D01*
X0003600Y0147265D02*
X0076283Y0147265D01*
X0074684Y0148863D02*
X0003600Y0148863D01*
X0003600Y0150462D02*
X0073086Y0150462D01*
X0071487Y0152060D02*
X0003600Y0152060D01*
X0003600Y0153659D02*
X0069889Y0153659D01*
X0068290Y0155257D02*
X0003600Y0155257D01*
X0003600Y0156856D02*
X0066692Y0156856D01*
X0065093Y0158454D02*
X0003600Y0158454D01*
X0003600Y0160053D02*
X0063495Y0160053D01*
X0061896Y0161651D02*
X0003600Y0161651D01*
X0003600Y0163250D02*
X0060298Y0163250D01*
X0058699Y0164848D02*
X0003600Y0164848D01*
X0003600Y0166447D02*
X0057101Y0166447D01*
X0055502Y0168045D02*
X0054745Y0168045D01*
X0051984Y0168045D02*
X0051616Y0168045D01*
X0051616Y0167031D02*
X0051616Y0171616D01*
X0047031Y0171616D01*
X0047031Y0171425D01*
X0047149Y0170683D01*
X0047381Y0169970D01*
X0047722Y0169301D01*
X0048163Y0168694D01*
X0048694Y0168163D01*
X0049301Y0167722D01*
X0049970Y0167381D01*
X0050683Y0167149D01*
X0051425Y0167031D01*
X0051616Y0167031D01*
X0051616Y0169644D02*
X0051984Y0169644D01*
X0051984Y0171242D02*
X0051616Y0171242D01*
X0051616Y0171984D02*
X0047031Y0171984D01*
X0047031Y0172175D01*
X0047149Y0172917D01*
X0047381Y0173630D01*
X0047722Y0174299D01*
X0048163Y0174906D01*
X0048694Y0175437D01*
X0049301Y0175878D01*
X0049970Y0176219D01*
X0050683Y0176451D01*
X0051425Y0176568D01*
X0051616Y0176568D01*
X0051616Y0171984D01*
X0051616Y0172841D02*
X0051984Y0172841D01*
X0051984Y0174439D02*
X0051616Y0174439D01*
X0051616Y0176038D02*
X0051984Y0176038D01*
X0053986Y0176038D02*
X0054400Y0176038D01*
X0054400Y0177636D02*
X0003600Y0177636D01*
X0003600Y0176038D02*
X0039048Y0176038D01*
X0038986Y0176012D02*
X0037588Y0174614D01*
X0036831Y0172788D01*
X0036831Y0170812D01*
X0037588Y0168986D01*
X0038986Y0167588D01*
X0040812Y0166831D01*
X0042788Y0166831D01*
X0044614Y0167588D01*
X0046012Y0168986D01*
X0046768Y0170812D01*
X0046768Y0172788D01*
X0046012Y0174614D01*
X0044614Y0176012D01*
X0042788Y0176768D01*
X0040812Y0176768D01*
X0038986Y0176012D01*
X0037515Y0174439D02*
X0003600Y0174439D01*
X0003600Y0172841D02*
X0036853Y0172841D01*
X0036831Y0171242D02*
X0003600Y0171242D01*
X0003600Y0169644D02*
X0037315Y0169644D01*
X0038528Y0168045D02*
X0003600Y0168045D01*
X0003600Y0179235D02*
X0054400Y0179235D01*
X0054400Y0180833D02*
X0003600Y0180833D01*
X0003600Y0182432D02*
X0054400Y0182432D01*
X0054400Y0184030D02*
X0003600Y0184030D01*
X0003600Y0185629D02*
X0054400Y0185629D01*
X0054400Y0187227D02*
X0003600Y0187227D01*
X0003600Y0188826D02*
X0054400Y0188826D01*
X0054400Y0190424D02*
X0003600Y0190424D01*
X0003600Y0192023D02*
X0013278Y0192023D01*
X0013422Y0192000D02*
X0016600Y0192000D01*
X0016600Y0196600D01*
X0017000Y0196600D01*
X0017000Y0197000D01*
X0016600Y0197000D01*
X0016600Y0201600D01*
X0013422Y0201600D01*
X0012676Y0201482D01*
X0011957Y0201248D01*
X0011284Y0200905D01*
X0010673Y0200461D01*
X0010139Y0199927D01*
X0009695Y0199316D01*
X0009352Y0198643D01*
X0009118Y0197924D01*
X0009000Y0197178D01*
X0009000Y0197000D01*
X0016600Y0197000D01*
X0016600Y0196600D01*
X0009000Y0196600D01*
X0009000Y0196422D01*
X0009118Y0195676D01*
X0009352Y0194957D01*
X0009695Y0194284D01*
X0010139Y0193673D01*
X0010673Y0193139D01*
X0011284Y0192695D01*
X0011957Y0192352D01*
X0012676Y0192118D01*
X0013422Y0192000D01*
X0016600Y0192023D02*
X0017000Y0192023D01*
X0017000Y0192000D02*
X0020178Y0192000D01*
X0020924Y0192118D01*
X0021643Y0192352D01*
X0022316Y0192695D01*
X0022927Y0193139D01*
X0023461Y0193673D01*
X0023905Y0194284D01*
X0024248Y0194957D01*
X0024482Y0195676D01*
X0024600Y0196422D01*
X0024600Y0196600D01*
X0017000Y0196600D01*
X0017000Y0192000D01*
X0017000Y0193621D02*
X0016600Y0193621D01*
X0016600Y0195220D02*
X0017000Y0195220D01*
X0017000Y0196818D02*
X0047200Y0196818D01*
X0047200Y0195220D02*
X0024334Y0195220D01*
X0024600Y0197000D02*
X0024600Y0197178D01*
X0024482Y0197924D01*
X0024248Y0198643D01*
X0023905Y0199316D01*
X0023461Y0199927D01*
X0022927Y0200461D01*
X0022316Y0200905D01*
X0021643Y0201248D01*
X0020924Y0201482D01*
X0020178Y0201600D01*
X0017000Y0201600D01*
X0017000Y0197000D01*
X0024600Y0197000D01*
X0024322Y0198417D02*
X0047200Y0198417D01*
X0048510Y0200015D02*
X0023373Y0200015D01*
X0022632Y0202561D02*
X0020795Y0201800D01*
X0012805Y0201800D01*
X0010968Y0202561D01*
X0009561Y0203968D01*
X0008800Y0205805D01*
X0008800Y0207795D01*
X0009561Y0209632D01*
X0010968Y0211039D01*
X0012805Y0211800D01*
X0010968Y0212561D01*
X0009561Y0213968D01*
X0008800Y0215805D01*
X0008800Y0217795D01*
X0009561Y0219632D01*
X0010968Y0221039D01*
X0012805Y0221800D01*
X0020795Y0221800D01*
X0022632Y0221039D01*
X0024039Y0219632D01*
X0024800Y0217795D01*
X0024800Y0215805D01*
X0024039Y0213968D01*
X0022632Y0212561D01*
X0020795Y0211800D01*
X0012805Y0211800D01*
X0020795Y0211800D01*
X0022632Y0211039D01*
X0024039Y0209632D01*
X0024800Y0207795D01*
X0024800Y0205805D01*
X0024039Y0203968D01*
X0022632Y0202561D01*
X0023283Y0203212D02*
X0054400Y0203212D01*
X0054400Y0201614D02*
X0003600Y0201614D01*
X0003600Y0203212D02*
X0010316Y0203212D01*
X0009212Y0204811D02*
X0003600Y0204811D01*
X0003600Y0206409D02*
X0008800Y0206409D01*
X0008888Y0208008D02*
X0003600Y0208008D01*
X0003600Y0209606D02*
X0009551Y0209606D01*
X0011369Y0211205D02*
X0003600Y0211205D01*
X0003600Y0212803D02*
X0010725Y0212803D01*
X0009381Y0214402D02*
X0003600Y0214402D01*
X0003600Y0216001D02*
X0008800Y0216001D01*
X0008800Y0217599D02*
X0003600Y0217599D01*
X0003600Y0219198D02*
X0009381Y0219198D01*
X0010725Y0220796D02*
X0003600Y0220796D01*
X0003600Y0222395D02*
X0049900Y0222395D01*
X0049900Y0223993D02*
X0003600Y0223993D01*
X0003600Y0225592D02*
X0049900Y0225592D01*
X0049900Y0227190D02*
X0003600Y0227190D01*
X0003600Y0228789D02*
X0049900Y0228789D01*
X0049900Y0230387D02*
X0003600Y0230387D01*
X0003600Y0231986D02*
X0049900Y0231986D01*
X0049900Y0233584D02*
X0003600Y0233584D01*
X0003600Y0235183D02*
X0049900Y0235183D01*
X0049900Y0236781D02*
X0003600Y0236781D01*
X0003600Y0238380D02*
X0049900Y0238380D01*
X0049900Y0239978D02*
X0003600Y0239978D01*
X0003600Y0241577D02*
X0049900Y0241577D01*
X0049900Y0243175D02*
X0003600Y0243175D01*
X0003600Y0244774D02*
X0049900Y0244774D01*
X0049900Y0246372D02*
X0003600Y0246372D01*
X0003600Y0247971D02*
X0049900Y0247971D01*
X0049900Y0249569D02*
X0003600Y0249569D01*
X0003600Y0251168D02*
X0049900Y0251168D01*
X0049584Y0252766D02*
X0044016Y0252766D01*
X0044391Y0252922D02*
X0045678Y0254209D01*
X0046375Y0255890D01*
X0046375Y0257710D01*
X0045678Y0259391D01*
X0044391Y0260678D01*
X0042710Y0261375D01*
X0040890Y0261375D01*
X0039209Y0260678D01*
X0037922Y0259391D01*
X0037225Y0257710D01*
X0037225Y0255890D01*
X0037922Y0254209D01*
X0039209Y0252922D01*
X0040890Y0252225D01*
X0042710Y0252225D01*
X0044391Y0252922D01*
X0045743Y0254365D02*
X0047857Y0254365D01*
X0047225Y0255963D02*
X0046375Y0255963D01*
X0046375Y0257562D02*
X0047225Y0257562D01*
X0047826Y0259160D02*
X0045774Y0259160D01*
X0044197Y0260759D02*
X0049403Y0260759D01*
X0054197Y0260759D02*
X0059289Y0260759D01*
X0059905Y0261375D02*
X0057225Y0258695D01*
X0057225Y0254905D01*
X0059800Y0252330D01*
X0059800Y0245647D01*
X0084100Y0221347D01*
X0085447Y0220000D01*
X0087200Y0218247D01*
X0087200Y0214895D01*
X0089895Y0212200D01*
X0093705Y0212200D01*
X0096400Y0214895D01*
X0096400Y0218705D01*
X0093705Y0221400D01*
X0090553Y0221400D01*
X0090103Y0221850D01*
X0118391Y0250138D01*
X0118968Y0249561D01*
X0120805Y0248800D01*
X0122795Y0248800D01*
X0124632Y0249561D01*
X0126039Y0250968D01*
X0126800Y0252805D01*
X0127561Y0250968D01*
X0128968Y0249561D01*
X0130805Y0248800D01*
X0132795Y0248800D01*
X0134632Y0249561D01*
X0136039Y0250968D01*
X0136800Y0252805D01*
X0136800Y0260795D01*
X0136039Y0262632D01*
X0134632Y0264039D01*
X0134484Y0264100D01*
X0168247Y0264100D01*
X0170647Y0261700D01*
X0168986Y0261012D01*
X0167588Y0259614D01*
X0166831Y0257788D01*
X0166831Y0255812D01*
X0167588Y0253986D01*
X0168986Y0252588D01*
X0170812Y0251831D01*
X0172788Y0251831D01*
X0174614Y0252588D01*
X0176012Y0253986D01*
X0176700Y0255647D01*
X0230800Y0201547D01*
X0230800Y0173647D01*
X0236157Y0168290D01*
X0234157Y0166289D01*
X0232950Y0163376D01*
X0232950Y0160224D01*
X0234157Y0157311D01*
X0236386Y0155082D01*
X0239238Y0153900D01*
X0236386Y0152718D01*
X0234157Y0150489D01*
X0232950Y0147576D01*
X0232950Y0144424D01*
X0234157Y0141511D01*
X0236386Y0139282D01*
X0236699Y0139152D01*
X0234847Y0137300D01*
X0176825Y0137300D01*
X0176413Y0137713D01*
X0175237Y0138200D01*
X0173963Y0138200D01*
X0172787Y0137713D01*
X0171887Y0136813D01*
X0171400Y0135637D01*
X0171400Y0134363D01*
X0171887Y0133187D01*
X0172787Y0132287D01*
X0173963Y0131800D01*
X0175237Y0131800D01*
X0176413Y0132287D01*
X0176825Y0132700D01*
X0236753Y0132700D01*
X0238100Y0134047D01*
X0238100Y0134047D01*
X0242128Y0138075D01*
X0254301Y0138075D01*
X0257214Y0139282D01*
X0259443Y0141511D01*
X0260650Y0144424D01*
X0260650Y0147576D01*
X0259443Y0150489D01*
X0257214Y0152718D01*
X0254362Y0153900D01*
X0257214Y0155082D01*
X0259443Y0157311D01*
X0260650Y0160224D01*
X0260650Y0163376D01*
X0259443Y0166289D01*
X0257214Y0168518D01*
X0254362Y0169700D01*
X0257214Y0170882D01*
X0259443Y0173111D01*
X0260650Y0176024D01*
X0260650Y0179176D01*
X0259443Y0182089D01*
X0257214Y0184318D01*
X0254301Y0185525D01*
X0239299Y0185525D01*
X0236386Y0184318D01*
X0235400Y0183333D01*
X0235400Y0203453D01*
X0234053Y0204800D01*
X0170153Y0268700D01*
X0095347Y0268700D01*
X0094000Y0267353D01*
X0090159Y0263512D01*
X0089632Y0264039D01*
X0087795Y0264800D01*
X0085805Y0264800D01*
X0083968Y0264039D01*
X0082561Y0262632D01*
X0081800Y0260795D01*
X0081800Y0252805D01*
X0082561Y0250968D01*
X0083968Y0249561D01*
X0085805Y0248800D01*
X0087795Y0248800D01*
X0089632Y0249561D01*
X0091039Y0250968D01*
X0091800Y0252805D01*
X0091800Y0258647D01*
X0092000Y0258847D01*
X0092000Y0257000D01*
X0096600Y0257000D01*
X0096600Y0256600D01*
X0097000Y0256600D01*
X0097000Y0257000D01*
X0101600Y0257000D01*
X0101600Y0260178D01*
X0101482Y0260924D01*
X0101248Y0261643D01*
X0100905Y0262316D01*
X0100461Y0262927D01*
X0099927Y0263461D01*
X0099316Y0263905D01*
X0098934Y0264100D01*
X0119116Y0264100D01*
X0118968Y0264039D01*
X0117561Y0262632D01*
X0116800Y0260795D01*
X0116800Y0255053D01*
X0086850Y0225103D01*
X0064400Y0247553D01*
X0064400Y0252930D01*
X0066375Y0254905D01*
X0066375Y0258695D01*
X0063695Y0261375D01*
X0059905Y0261375D01*
X0057691Y0259160D02*
X0055774Y0259160D01*
X0056375Y0257562D02*
X0057225Y0257562D01*
X0057225Y0255963D02*
X0056375Y0255963D01*
X0055743Y0254365D02*
X0057765Y0254365D01*
X0059364Y0252766D02*
X0054500Y0252766D01*
X0054500Y0251168D02*
X0059800Y0251168D01*
X0059800Y0249569D02*
X0054500Y0249569D01*
X0054500Y0247971D02*
X0059800Y0247971D01*
X0059800Y0246372D02*
X0054500Y0246372D01*
X0054500Y0244774D02*
X0060674Y0244774D01*
X0062272Y0243175D02*
X0054500Y0243175D01*
X0054500Y0241577D02*
X0063871Y0241577D01*
X0065469Y0239978D02*
X0054500Y0239978D01*
X0054500Y0238380D02*
X0067068Y0238380D01*
X0068666Y0236781D02*
X0054500Y0236781D01*
X0054500Y0235183D02*
X0070265Y0235183D01*
X0071863Y0233584D02*
X0054500Y0233584D01*
X0054500Y0231986D02*
X0073462Y0231986D01*
X0075060Y0230387D02*
X0054500Y0230387D01*
X0054500Y0228789D02*
X0076659Y0228789D01*
X0078257Y0227190D02*
X0054500Y0227190D01*
X0054500Y0225592D02*
X0079856Y0225592D01*
X0081454Y0223993D02*
X0054500Y0223993D01*
X0054500Y0222395D02*
X0083053Y0222395D01*
X0084651Y0220796D02*
X0054500Y0220796D01*
X0055908Y0219198D02*
X0086250Y0219198D01*
X0087200Y0217599D02*
X0056400Y0217599D01*
X0056400Y0216001D02*
X0087200Y0216001D01*
X0087693Y0214402D02*
X0057051Y0214402D01*
X0058649Y0212803D02*
X0089291Y0212803D01*
X0094309Y0212803D02*
X0133951Y0212803D01*
X0132352Y0211205D02*
X0059000Y0211205D01*
X0059000Y0209606D02*
X0130754Y0209606D01*
X0129155Y0208008D02*
X0059000Y0208008D01*
X0059000Y0206409D02*
X0127557Y0206409D01*
X0125958Y0204811D02*
X0059000Y0204811D01*
X0059000Y0203212D02*
X0124360Y0203212D01*
X0122761Y0201614D02*
X0059000Y0201614D01*
X0059000Y0200015D02*
X0088510Y0200015D01*
X0087200Y0198705D02*
X0087200Y0194895D01*
X0089895Y0192200D01*
X0093705Y0192200D01*
X0096400Y0194895D01*
X0096400Y0198705D01*
X0093705Y0201400D01*
X0089895Y0201400D01*
X0087200Y0198705D01*
X0087200Y0198417D02*
X0059000Y0198417D01*
X0059000Y0196818D02*
X0087200Y0196818D01*
X0087200Y0195220D02*
X0059000Y0195220D01*
X0059000Y0193621D02*
X0088473Y0193621D01*
X0095127Y0193621D02*
X0120100Y0193621D01*
X0120100Y0192023D02*
X0059000Y0192023D01*
X0059000Y0190424D02*
X0120100Y0190424D01*
X0120100Y0188826D02*
X0059000Y0188826D01*
X0059000Y0187227D02*
X0120100Y0187227D01*
X0120100Y0185629D02*
X0059000Y0185629D01*
X0059000Y0184030D02*
X0120100Y0184030D01*
X0120100Y0182432D02*
X0059000Y0182432D01*
X0059000Y0180833D02*
X0120100Y0180833D01*
X0120100Y0179235D02*
X0059000Y0179235D01*
X0059000Y0177636D02*
X0120100Y0177636D01*
X0120100Y0176474D02*
X0118986Y0176012D01*
X0117588Y0174614D01*
X0116831Y0172788D01*
X0116831Y0170812D01*
X0117588Y0168986D01*
X0117773Y0168800D01*
X0115826Y0168800D01*
X0116012Y0168986D01*
X0116768Y0170812D01*
X0116768Y0172788D01*
X0116012Y0174614D01*
X0114614Y0176012D01*
X0112788Y0176768D01*
X0110812Y0176768D01*
X0108986Y0176012D01*
X0107588Y0174614D01*
X0106831Y0172788D01*
X0106831Y0170812D01*
X0107588Y0168986D01*
X0107773Y0168800D01*
X0105826Y0168800D01*
X0106012Y0168986D01*
X0106768Y0170812D01*
X0106768Y0172788D01*
X0106012Y0174614D01*
X0104614Y0176012D01*
X0102788Y0176768D01*
X0100812Y0176768D01*
X0098986Y0176012D01*
X0097588Y0174614D01*
X0096831Y0172788D01*
X0096831Y0170812D01*
X0097588Y0168986D01*
X0097773Y0168800D01*
X0095826Y0168800D01*
X0096012Y0168986D01*
X0096768Y0170812D01*
X0096768Y0172788D01*
X0096012Y0174614D01*
X0094614Y0176012D01*
X0092788Y0176768D01*
X0090812Y0176768D01*
X0088986Y0176012D01*
X0087588Y0174614D01*
X0086831Y0172788D01*
X0086831Y0170812D01*
X0087588Y0168986D01*
X0087773Y0168800D01*
X0085826Y0168800D01*
X0086012Y0168986D01*
X0086768Y0170812D01*
X0086768Y0172788D01*
X0086012Y0174614D01*
X0084614Y0176012D01*
X0082788Y0176768D01*
X0080812Y0176768D01*
X0078986Y0176012D01*
X0077588Y0174614D01*
X0076900Y0172953D01*
X0076559Y0173293D01*
X0076012Y0174614D01*
X0074614Y0176012D01*
X0072788Y0176768D01*
X0070812Y0176768D01*
X0068986Y0176012D01*
X0067588Y0174614D01*
X0066831Y0172788D01*
X0066831Y0170812D01*
X0067588Y0168986D01*
X0068986Y0167588D01*
X0070812Y0166831D01*
X0072788Y0166831D01*
X0074614Y0167588D01*
X0075187Y0168160D01*
X0076579Y0166768D01*
X0075812Y0166768D01*
X0073986Y0166012D01*
X0072588Y0164614D01*
X0071831Y0162788D01*
X0071831Y0160812D01*
X0072588Y0158986D01*
X0073986Y0157588D01*
X0075812Y0156831D01*
X0077788Y0156831D01*
X0079614Y0157588D01*
X0081012Y0158986D01*
X0081768Y0160812D01*
X0081768Y0162788D01*
X0081184Y0164200D01*
X0082416Y0164200D01*
X0081831Y0162788D01*
X0081831Y0160812D01*
X0082588Y0158986D01*
X0083986Y0157588D01*
X0085812Y0156831D01*
X0087788Y0156831D01*
X0089614Y0157588D01*
X0091012Y0158986D01*
X0091768Y0160812D01*
X0091768Y0162788D01*
X0091184Y0164200D01*
X0147416Y0164200D01*
X0146831Y0162788D01*
X0146831Y0160812D01*
X0147588Y0158986D01*
X0148986Y0157588D01*
X0150812Y0156831D01*
X0152788Y0156831D01*
X0154614Y0157588D01*
X0156012Y0158986D01*
X0156768Y0160812D01*
X0156768Y0162788D01*
X0156184Y0164200D01*
X0178253Y0164200D01*
X0178791Y0164738D01*
X0178968Y0164561D01*
X0180805Y0163800D01*
X0182795Y0163800D01*
X0184632Y0164561D01*
X0186039Y0165968D01*
X0186800Y0167805D01*
X0186800Y0175795D01*
X0186039Y0177632D01*
X0184632Y0179039D01*
X0182795Y0179800D01*
X0180805Y0179800D01*
X0178968Y0179039D01*
X0177561Y0177632D01*
X0176800Y0175795D01*
X0176800Y0169253D01*
X0176347Y0168800D01*
X0155826Y0168800D01*
X0156012Y0168986D01*
X0156768Y0170812D01*
X0156768Y0172788D01*
X0156012Y0174614D01*
X0154614Y0176012D01*
X0154400Y0176101D01*
X0154400Y0209647D01*
X0167453Y0222700D01*
X0168163Y0223410D01*
X0168986Y0222588D01*
X0170812Y0221831D01*
X0172788Y0221831D01*
X0174614Y0222588D01*
X0176012Y0223986D01*
X0176768Y0225812D01*
X0176768Y0227788D01*
X0176012Y0229614D01*
X0174614Y0231012D01*
X0172788Y0231768D01*
X0170812Y0231768D01*
X0168986Y0231012D01*
X0168800Y0230826D01*
X0168800Y0232773D01*
X0168986Y0232588D01*
X0170812Y0231831D01*
X0172788Y0231831D01*
X0174614Y0232588D01*
X0176012Y0233986D01*
X0176768Y0235812D01*
X0176768Y0237788D01*
X0176012Y0239614D01*
X0174614Y0241012D01*
X0172788Y0241768D01*
X0170812Y0241768D01*
X0168986Y0241012D01*
X0168800Y0240826D01*
X0168800Y0241147D01*
X0169873Y0242220D01*
X0170812Y0241831D01*
X0172788Y0241831D01*
X0174614Y0242588D01*
X0176012Y0243986D01*
X0176768Y0245812D01*
X0176768Y0247788D01*
X0176012Y0249614D01*
X0174614Y0251012D01*
X0172788Y0251768D01*
X0170812Y0251768D01*
X0168986Y0251012D01*
X0167588Y0249614D01*
X0166831Y0247788D01*
X0166831Y0245812D01*
X0166869Y0245722D01*
X0166634Y0245486D01*
X0166768Y0245812D01*
X0166768Y0247788D01*
X0166012Y0249614D01*
X0164614Y0251012D01*
X0162788Y0251768D01*
X0160812Y0251768D01*
X0158986Y0251012D01*
X0157588Y0249614D01*
X0156831Y0247788D01*
X0156831Y0245812D01*
X0157588Y0243986D01*
X0158986Y0242588D01*
X0160812Y0241831D01*
X0162788Y0241831D01*
X0164200Y0242416D01*
X0164200Y0241184D01*
X0162788Y0241768D01*
X0160812Y0241768D01*
X0158986Y0241012D01*
X0157588Y0239614D01*
X0156831Y0237788D01*
X0156831Y0235812D01*
X0156869Y0235722D01*
X0120100Y0198953D01*
X0120100Y0176474D01*
X0119048Y0176038D02*
X0114552Y0176038D01*
X0116085Y0174439D02*
X0117515Y0174439D01*
X0116853Y0172841D02*
X0116747Y0172841D01*
X0116768Y0171242D02*
X0116831Y0171242D01*
X0117315Y0169644D02*
X0116285Y0169644D01*
X0107315Y0169644D02*
X0106285Y0169644D01*
X0106768Y0171242D02*
X0106831Y0171242D01*
X0106853Y0172841D02*
X0106747Y0172841D01*
X0106085Y0174439D02*
X0107515Y0174439D01*
X0109048Y0176038D02*
X0104552Y0176038D01*
X0099048Y0176038D02*
X0094552Y0176038D01*
X0096085Y0174439D02*
X0097515Y0174439D01*
X0096853Y0172841D02*
X0096747Y0172841D01*
X0096768Y0171242D02*
X0096831Y0171242D01*
X0097315Y0169644D02*
X0096285Y0169644D01*
X0091577Y0163250D02*
X0147023Y0163250D01*
X0146831Y0161651D02*
X0091768Y0161651D01*
X0091454Y0160053D02*
X0147146Y0160053D01*
X0148119Y0158454D02*
X0090481Y0158454D01*
X0087846Y0156856D02*
X0150753Y0156856D01*
X0152846Y0156856D02*
X0234612Y0156856D01*
X0233683Y0158454D02*
X0155481Y0158454D01*
X0156454Y0160053D02*
X0233021Y0160053D01*
X0232950Y0161651D02*
X0156768Y0161651D01*
X0156577Y0163250D02*
X0232950Y0163250D01*
X0233560Y0164848D02*
X0194527Y0164848D01*
X0194316Y0164695D02*
X0194927Y0165139D01*
X0195461Y0165673D01*
X0195905Y0166284D01*
X0196248Y0166957D01*
X0196482Y0167676D01*
X0196600Y0168422D01*
X0196600Y0171600D01*
X0192000Y0171600D01*
X0192000Y0172000D01*
X0196600Y0172000D01*
X0196600Y0175178D01*
X0196482Y0175924D01*
X0196248Y0176643D01*
X0195905Y0177316D01*
X0195461Y0177927D01*
X0194927Y0178461D01*
X0194316Y0178905D01*
X0193643Y0179248D01*
X0192924Y0179482D01*
X0192178Y0179600D01*
X0192000Y0179600D01*
X0192000Y0172000D01*
X0191600Y0172000D01*
X0191600Y0179600D01*
X0191422Y0179600D01*
X0190676Y0179482D01*
X0189957Y0179248D01*
X0189284Y0178905D01*
X0188673Y0178461D01*
X0188139Y0177927D01*
X0187695Y0177316D01*
X0187352Y0176643D01*
X0187118Y0175924D01*
X0187000Y0175178D01*
X0187000Y0172000D01*
X0191600Y0172000D01*
X0191600Y0171600D01*
X0192000Y0171600D01*
X0192000Y0164000D01*
X0192178Y0164000D01*
X0192924Y0164118D01*
X0193643Y0164352D01*
X0194316Y0164695D01*
X0192000Y0164848D02*
X0191600Y0164848D01*
X0191600Y0164000D02*
X0191600Y0171600D01*
X0187000Y0171600D01*
X0187000Y0168422D01*
X0187118Y0167676D01*
X0187352Y0166957D01*
X0187695Y0166284D01*
X0188139Y0165673D01*
X0188673Y0165139D01*
X0189284Y0164695D01*
X0189957Y0164352D01*
X0190676Y0164118D01*
X0191422Y0164000D01*
X0191600Y0164000D01*
X0191600Y0166447D02*
X0192000Y0166447D01*
X0192000Y0168045D02*
X0191600Y0168045D01*
X0191600Y0169644D02*
X0192000Y0169644D01*
X0192000Y0171242D02*
X0191600Y0171242D01*
X0191600Y0172841D02*
X0192000Y0172841D01*
X0192000Y0174439D02*
X0191600Y0174439D01*
X0191600Y0176038D02*
X0192000Y0176038D01*
X0192000Y0177636D02*
X0191600Y0177636D01*
X0191600Y0179235D02*
X0192000Y0179235D01*
X0193669Y0179235D02*
X0230800Y0179235D01*
X0230800Y0180833D02*
X0154400Y0180833D01*
X0154400Y0179235D02*
X0179441Y0179235D01*
X0177565Y0177636D02*
X0154400Y0177636D01*
X0154552Y0176038D02*
X0176901Y0176038D01*
X0176800Y0174439D02*
X0156085Y0174439D01*
X0156747Y0172841D02*
X0176800Y0172841D01*
X0176800Y0171242D02*
X0156768Y0171242D01*
X0156285Y0169644D02*
X0176800Y0169644D01*
X0184919Y0164848D02*
X0189073Y0164848D01*
X0187612Y0166447D02*
X0186237Y0166447D01*
X0186800Y0168045D02*
X0187060Y0168045D01*
X0187000Y0169644D02*
X0186800Y0169644D01*
X0186800Y0171242D02*
X0187000Y0171242D01*
X0187000Y0172841D02*
X0186800Y0172841D01*
X0186800Y0174439D02*
X0187000Y0174439D01*
X0187155Y0176038D02*
X0186699Y0176038D01*
X0186035Y0177636D02*
X0187928Y0177636D01*
X0189931Y0179235D02*
X0184159Y0179235D01*
X0195672Y0177636D02*
X0230800Y0177636D01*
X0230800Y0176038D02*
X0196445Y0176038D01*
X0196600Y0174439D02*
X0230800Y0174439D01*
X0231607Y0172841D02*
X0196600Y0172841D01*
X0196600Y0171242D02*
X0233205Y0171242D01*
X0234804Y0169644D02*
X0196600Y0169644D01*
X0196540Y0168045D02*
X0235913Y0168045D01*
X0234314Y0166447D02*
X0195988Y0166447D01*
X0176452Y0137673D02*
X0235221Y0137673D01*
X0236409Y0139272D02*
X0155857Y0139272D01*
X0156481Y0140870D02*
X0234797Y0140870D01*
X0233760Y0142469D02*
X0156522Y0142469D01*
X0155996Y0144068D02*
X0233097Y0144068D01*
X0232950Y0145666D02*
X0154592Y0145666D01*
X0153834Y0147265D02*
X0232950Y0147265D01*
X0233483Y0148863D02*
X0155890Y0148863D01*
X0156623Y0150462D02*
X0234145Y0150462D01*
X0235727Y0152060D02*
X0156768Y0152060D01*
X0156408Y0153659D02*
X0238655Y0153659D01*
X0236210Y0155257D02*
X0155369Y0155257D01*
X0148231Y0155257D02*
X0074796Y0155257D01*
X0075753Y0156856D02*
X0073197Y0156856D01*
X0073119Y0158454D02*
X0071599Y0158454D01*
X0072146Y0160053D02*
X0070000Y0160053D01*
X0068402Y0161651D02*
X0071831Y0161651D01*
X0072023Y0163250D02*
X0066803Y0163250D01*
X0065205Y0164848D02*
X0072822Y0164848D01*
X0075035Y0166447D02*
X0063606Y0166447D01*
X0065072Y0168045D02*
X0068528Y0168045D01*
X0067315Y0169644D02*
X0066285Y0169644D01*
X0066768Y0171242D02*
X0066831Y0171242D01*
X0066853Y0172841D02*
X0066747Y0172841D01*
X0066085Y0174439D02*
X0067515Y0174439D01*
X0069048Y0176038D02*
X0064552Y0176038D01*
X0059048Y0176038D02*
X0059000Y0176038D01*
X0049614Y0176038D02*
X0044552Y0176038D01*
X0046085Y0174439D02*
X0047823Y0174439D01*
X0047137Y0172841D02*
X0046747Y0172841D01*
X0046768Y0171242D02*
X0047060Y0171242D01*
X0047547Y0169644D02*
X0046285Y0169644D01*
X0045072Y0168045D02*
X0048855Y0168045D01*
X0054400Y0192023D02*
X0020322Y0192023D01*
X0023410Y0193621D02*
X0048473Y0193621D01*
X0054400Y0204811D02*
X0024388Y0204811D01*
X0024800Y0206409D02*
X0054400Y0206409D01*
X0054400Y0208008D02*
X0024712Y0208008D01*
X0024049Y0209606D02*
X0054400Y0209606D01*
X0053742Y0211205D02*
X0022231Y0211205D01*
X0022875Y0212803D02*
X0049291Y0212803D01*
X0047693Y0214402D02*
X0024219Y0214402D01*
X0024800Y0216001D02*
X0047200Y0216001D01*
X0047200Y0217599D02*
X0024800Y0217599D01*
X0024219Y0219198D02*
X0047692Y0219198D01*
X0049291Y0220796D02*
X0022875Y0220796D01*
X0017000Y0200015D02*
X0016600Y0200015D01*
X0016600Y0198417D02*
X0017000Y0198417D01*
X0016600Y0196818D02*
X0003600Y0196818D01*
X0003600Y0195220D02*
X0009266Y0195220D01*
X0010190Y0193621D02*
X0003600Y0193621D01*
X0003600Y0198417D02*
X0009278Y0198417D01*
X0010227Y0200015D02*
X0003600Y0200015D01*
X0003600Y0252766D02*
X0030080Y0252766D01*
X0030121Y0252746D02*
X0030776Y0252533D01*
X0031456Y0252425D01*
X0031800Y0252425D01*
X0032144Y0252425D01*
X0032824Y0252533D01*
X0033479Y0252746D01*
X0034093Y0253058D01*
X0034650Y0253463D01*
X0035137Y0253950D01*
X0035542Y0254507D01*
X0035854Y0255121D01*
X0036067Y0255776D01*
X0036175Y0256456D01*
X0036175Y0256800D01*
X0036175Y0257144D01*
X0036067Y0257824D01*
X0035854Y0258479D01*
X0035542Y0259093D01*
X0035137Y0259650D01*
X0034650Y0260137D01*
X0034093Y0260542D01*
X0033479Y0260854D01*
X0032824Y0261067D01*
X0032144Y0261175D01*
X0031800Y0261175D01*
X0031800Y0256800D01*
X0036175Y0256800D01*
X0031800Y0256800D01*
X0031800Y0256800D01*
X0031800Y0256800D01*
X0031800Y0252425D01*
X0031800Y0256800D01*
X0031800Y0256800D01*
X0031800Y0256800D01*
X0027425Y0256800D01*
X0027425Y0257144D01*
X0027533Y0257824D01*
X0027746Y0258479D01*
X0028058Y0259093D01*
X0028463Y0259650D01*
X0028950Y0260137D01*
X0029507Y0260542D01*
X0030121Y0260854D01*
X0030776Y0261067D01*
X0031456Y0261175D01*
X0031800Y0261175D01*
X0031800Y0256800D01*
X0027425Y0256800D01*
X0027425Y0256456D01*
X0027533Y0255776D01*
X0027746Y0255121D01*
X0028058Y0254507D01*
X0028463Y0253950D01*
X0028950Y0253463D01*
X0029507Y0253058D01*
X0030121Y0252746D01*
X0031800Y0252766D02*
X0031800Y0252766D01*
X0031800Y0254365D02*
X0031800Y0254365D01*
X0031800Y0255963D02*
X0031800Y0255963D01*
X0031800Y0257562D02*
X0031800Y0257562D01*
X0031800Y0259160D02*
X0031800Y0259160D01*
X0031800Y0260759D02*
X0031800Y0260759D01*
X0033667Y0260759D02*
X0039403Y0260759D01*
X0037826Y0259160D02*
X0035493Y0259160D01*
X0036109Y0257562D02*
X0037225Y0257562D01*
X0037225Y0255963D02*
X0036097Y0255963D01*
X0035438Y0254365D02*
X0037857Y0254365D01*
X0039584Y0252766D02*
X0033520Y0252766D01*
X0028162Y0254365D02*
X0003600Y0254365D01*
X0003600Y0255963D02*
X0027503Y0255963D01*
X0027491Y0257562D02*
X0003600Y0257562D01*
X0003600Y0259160D02*
X0028107Y0259160D01*
X0029933Y0260759D02*
X0016099Y0260759D01*
X0015942Y0260601D02*
X0017999Y0262658D01*
X0019112Y0265346D01*
X0019112Y0268254D01*
X0017999Y0270942D01*
X0015942Y0272999D01*
X0013254Y0274112D01*
X0010346Y0274112D01*
X0007658Y0272999D01*
X0005601Y0270942D01*
X0004488Y0268254D01*
X0004488Y0265346D01*
X0005601Y0262658D01*
X0007658Y0260601D01*
X0010346Y0259488D01*
X0013254Y0259488D01*
X0015942Y0260601D01*
X0017698Y0262357D02*
X0082447Y0262357D01*
X0081800Y0260759D02*
X0064311Y0260759D01*
X0065909Y0259160D02*
X0081800Y0259160D01*
X0081800Y0257562D02*
X0066375Y0257562D01*
X0066375Y0255963D02*
X0081800Y0255963D01*
X0081800Y0254365D02*
X0065835Y0254365D01*
X0064400Y0252766D02*
X0081816Y0252766D01*
X0082478Y0251168D02*
X0064400Y0251168D01*
X0064400Y0249569D02*
X0083960Y0249569D01*
X0089640Y0249569D02*
X0094530Y0249569D01*
X0094284Y0249695D02*
X0094957Y0249352D01*
X0095676Y0249118D01*
X0096422Y0249000D01*
X0096600Y0249000D01*
X0096600Y0256600D01*
X0092000Y0256600D01*
X0092000Y0253422D01*
X0092118Y0252676D01*
X0092352Y0251957D01*
X0092695Y0251284D01*
X0093139Y0250673D01*
X0093673Y0250139D01*
X0094284Y0249695D01*
X0092779Y0251168D02*
X0091122Y0251168D01*
X0091784Y0252766D02*
X0092104Y0252766D01*
X0092000Y0254365D02*
X0091800Y0254365D01*
X0091800Y0255963D02*
X0092000Y0255963D01*
X0092000Y0257562D02*
X0091800Y0257562D01*
X0096600Y0255963D02*
X0097000Y0255963D01*
X0097000Y0256600D02*
X0097000Y0249000D01*
X0097178Y0249000D01*
X0097924Y0249118D01*
X0098643Y0249352D01*
X0099316Y0249695D01*
X0099927Y0250139D01*
X0100461Y0250673D01*
X0100905Y0251284D01*
X0101248Y0251957D01*
X0101482Y0252676D01*
X0101600Y0253422D01*
X0101600Y0256600D01*
X0097000Y0256600D01*
X0097000Y0254365D02*
X0096600Y0254365D01*
X0096600Y0252766D02*
X0097000Y0252766D01*
X0097000Y0251168D02*
X0096600Y0251168D01*
X0096600Y0249569D02*
X0097000Y0249569D01*
X0099070Y0249569D02*
X0111317Y0249569D01*
X0112915Y0251168D02*
X0100821Y0251168D01*
X0101496Y0252766D02*
X0114514Y0252766D01*
X0116112Y0254365D02*
X0101600Y0254365D01*
X0101600Y0255963D02*
X0116800Y0255963D01*
X0116800Y0257562D02*
X0101600Y0257562D01*
X0101600Y0259160D02*
X0116800Y0259160D01*
X0116800Y0260759D02*
X0101508Y0260759D01*
X0100875Y0262357D02*
X0117447Y0262357D01*
X0118885Y0263956D02*
X0099217Y0263956D01*
X0093800Y0267153D02*
X0019112Y0267153D01*
X0019112Y0265554D02*
X0092202Y0265554D01*
X0090603Y0263956D02*
X0089715Y0263956D01*
X0083885Y0263956D02*
X0018536Y0263956D01*
X0018906Y0268751D02*
X0254694Y0268751D01*
X0254488Y0267153D02*
X0171700Y0267153D01*
X0173298Y0265554D02*
X0254488Y0265554D01*
X0255064Y0263956D02*
X0174897Y0263956D01*
X0176495Y0262357D02*
X0255902Y0262357D01*
X0257501Y0260759D02*
X0178094Y0260759D01*
X0179692Y0259160D02*
X0268701Y0259160D01*
X0268701Y0257562D02*
X0181291Y0257562D01*
X0182889Y0255963D02*
X0268701Y0255963D01*
X0268701Y0254365D02*
X0184488Y0254365D01*
X0186086Y0252766D02*
X0268701Y0252766D01*
X0268701Y0251168D02*
X0187685Y0251168D01*
X0189283Y0249569D02*
X0268701Y0249569D01*
X0268701Y0247971D02*
X0190882Y0247971D01*
X0192480Y0246372D02*
X0268701Y0246372D01*
X0268701Y0244774D02*
X0194079Y0244774D01*
X0195677Y0243175D02*
X0268701Y0243175D01*
X0268701Y0241577D02*
X0197276Y0241577D01*
X0198874Y0239978D02*
X0268701Y0239978D01*
X0268701Y0238380D02*
X0200473Y0238380D01*
X0202072Y0236781D02*
X0268701Y0236781D01*
X0268701Y0235183D02*
X0203670Y0235183D01*
X0205269Y0233584D02*
X0268701Y0233584D01*
X0268701Y0231986D02*
X0206867Y0231986D01*
X0208466Y0230387D02*
X0268701Y0230387D01*
X0268701Y0228789D02*
X0210064Y0228789D01*
X0211663Y0227190D02*
X0268701Y0227190D01*
X0268701Y0225592D02*
X0213261Y0225592D01*
X0214860Y0223993D02*
X0268701Y0223993D01*
X0268701Y0222395D02*
X0216458Y0222395D01*
X0218057Y0220796D02*
X0268701Y0220796D01*
X0268701Y0219198D02*
X0219655Y0219198D01*
X0221254Y0217599D02*
X0268701Y0217599D01*
X0268701Y0216001D02*
X0222852Y0216001D01*
X0224451Y0214402D02*
X0268701Y0214402D01*
X0268701Y0212803D02*
X0226049Y0212803D01*
X0227648Y0211205D02*
X0268701Y0211205D01*
X0268701Y0209606D02*
X0229246Y0209606D01*
X0230845Y0208008D02*
X0268701Y0208008D01*
X0268701Y0206409D02*
X0232443Y0206409D01*
X0234042Y0204811D02*
X0268701Y0204811D01*
X0268701Y0203212D02*
X0235400Y0203212D01*
X0235400Y0201614D02*
X0268701Y0201614D01*
X0268701Y0200015D02*
X0235400Y0200015D01*
X0235400Y0198417D02*
X0268701Y0198417D01*
X0268701Y0196818D02*
X0235400Y0196818D01*
X0235400Y0195220D02*
X0268701Y0195220D01*
X0268701Y0193621D02*
X0235400Y0193621D01*
X0235400Y0192023D02*
X0268701Y0192023D01*
X0268701Y0190424D02*
X0235400Y0190424D01*
X0235400Y0188826D02*
X0268701Y0188826D01*
X0268701Y0187227D02*
X0235400Y0187227D01*
X0235400Y0185629D02*
X0268701Y0185629D01*
X0268701Y0184030D02*
X0257502Y0184030D01*
X0259101Y0182432D02*
X0268701Y0182432D01*
X0268701Y0180833D02*
X0259964Y0180833D01*
X0260626Y0179235D02*
X0268701Y0179235D01*
X0268701Y0177636D02*
X0260650Y0177636D01*
X0260650Y0176038D02*
X0268701Y0176038D01*
X0268701Y0174439D02*
X0259994Y0174439D01*
X0259173Y0172841D02*
X0268701Y0172841D01*
X0268701Y0171242D02*
X0257575Y0171242D01*
X0257687Y0168045D02*
X0268701Y0168045D01*
X0268701Y0166447D02*
X0259286Y0166447D01*
X0260040Y0164848D02*
X0268701Y0164848D01*
X0268701Y0163250D02*
X0260650Y0163250D01*
X0260650Y0161651D02*
X0268701Y0161651D01*
X0268701Y0160053D02*
X0260579Y0160053D01*
X0259917Y0158454D02*
X0268701Y0158454D01*
X0268701Y0156856D02*
X0258988Y0156856D01*
X0257390Y0155257D02*
X0268701Y0155257D01*
X0268701Y0153659D02*
X0254945Y0153659D01*
X0257873Y0152060D02*
X0268701Y0152060D01*
X0268701Y0150462D02*
X0259455Y0150462D01*
X0260117Y0148863D02*
X0268701Y0148863D01*
X0268701Y0147265D02*
X0260650Y0147265D01*
X0260650Y0145666D02*
X0268701Y0145666D01*
X0268701Y0144068D02*
X0260502Y0144068D01*
X0259840Y0142469D02*
X0268701Y0142469D01*
X0268701Y0140870D02*
X0258803Y0140870D01*
X0257191Y0139272D02*
X0268701Y0139272D01*
X0268701Y0137673D02*
X0241726Y0137673D01*
X0240128Y0136075D02*
X0268701Y0136075D01*
X0268701Y0134476D02*
X0238529Y0134476D01*
X0236931Y0132878D02*
X0268701Y0132878D01*
X0268701Y0131279D02*
X0138132Y0131279D01*
X0136534Y0129681D02*
X0268701Y0129681D01*
X0268701Y0115294D02*
X0155332Y0115294D01*
X0156012Y0114614D02*
X0154614Y0116012D01*
X0152788Y0116768D01*
X0150812Y0116768D01*
X0148986Y0116012D01*
X0147588Y0114614D01*
X0146831Y0112788D01*
X0146831Y0110812D01*
X0147588Y0108986D01*
X0148986Y0107588D01*
X0150812Y0106831D01*
X0152788Y0106831D01*
X0154614Y0107588D01*
X0156012Y0108986D01*
X0156768Y0110812D01*
X0156768Y0112788D01*
X0156012Y0114614D01*
X0156393Y0113696D02*
X0268701Y0113696D01*
X0268701Y0112097D02*
X0156768Y0112097D01*
X0156639Y0110499D02*
X0268701Y0110499D01*
X0268701Y0108900D02*
X0155927Y0108900D01*
X0153924Y0107302D02*
X0268701Y0107302D01*
X0268701Y0102506D02*
X0195767Y0102506D01*
X0196484Y0100908D02*
X0268701Y0100908D01*
X0268701Y0099309D02*
X0196600Y0099309D01*
X0196600Y0097711D02*
X0268701Y0097711D01*
X0268701Y0096112D02*
X0196600Y0096112D01*
X0196600Y0094514D02*
X0268701Y0094514D01*
X0268701Y0092915D02*
X0196520Y0092915D01*
X0195922Y0091317D02*
X0268701Y0091317D01*
X0268701Y0089718D02*
X0194348Y0089718D01*
X0221616Y0075332D02*
X0221984Y0075332D01*
X0221984Y0073733D02*
X0221616Y0073733D01*
X0221616Y0072134D02*
X0221984Y0072134D01*
X0266155Y0017785D02*
X0268701Y0017785D01*
X0268701Y0016187D02*
X0267754Y0016187D01*
X0268559Y0014588D02*
X0268701Y0014588D01*
X0268701Y0008194D02*
X0268221Y0008194D01*
X0268701Y0006596D02*
X0266936Y0006596D01*
X0268701Y0004997D02*
X0264483Y0004997D01*
X0259117Y0004997D02*
X0014483Y0004997D01*
X0013254Y0004488D02*
X0015942Y0005601D01*
X0017999Y0007658D01*
X0019112Y0010346D01*
X0019112Y0013254D01*
X0017999Y0015942D01*
X0015942Y0017999D01*
X0013254Y0019112D01*
X0010346Y0019112D01*
X0007658Y0017999D01*
X0005601Y0015942D01*
X0004488Y0013254D01*
X0004488Y0010346D01*
X0005601Y0007658D01*
X0007658Y0005601D01*
X0010346Y0004488D01*
X0013254Y0004488D01*
X0016936Y0006596D02*
X0256664Y0006596D01*
X0255379Y0008194D02*
X0018221Y0008194D01*
X0018883Y0009793D02*
X0023736Y0009793D01*
X0022386Y0011391D02*
X0019112Y0011391D01*
X0019112Y0012990D02*
X0021800Y0012990D01*
X0021800Y0014588D02*
X0018559Y0014588D01*
X0017754Y0016187D02*
X0021800Y0016187D01*
X0021800Y0017785D02*
X0016155Y0017785D01*
X0018965Y0020982D02*
X0003600Y0020982D01*
X0003600Y0019384D02*
X0020564Y0019384D01*
X0017367Y0022581D02*
X0003600Y0022581D01*
X0003600Y0024179D02*
X0015768Y0024179D01*
X0014170Y0025778D02*
X0003600Y0025778D01*
X0003600Y0027376D02*
X0012571Y0027376D01*
X0010973Y0028975D02*
X0003600Y0028975D01*
X0003600Y0030573D02*
X0009374Y0030573D01*
X0007776Y0032172D02*
X0003600Y0032172D01*
X0003600Y0033770D02*
X0006700Y0033770D01*
X0006700Y0035369D02*
X0003600Y0035369D01*
X0003600Y0036967D02*
X0006700Y0036967D01*
X0006700Y0038566D02*
X0003600Y0038566D01*
X0003600Y0040164D02*
X0006700Y0040164D01*
X0006700Y0041763D02*
X0003600Y0041763D01*
X0003600Y0043361D02*
X0006700Y0043361D01*
X0006700Y0044960D02*
X0003600Y0044960D01*
X0003600Y0046558D02*
X0006700Y0046558D01*
X0006700Y0048157D02*
X0003600Y0048157D01*
X0003600Y0049755D02*
X0006700Y0049755D01*
X0006700Y0051354D02*
X0003600Y0051354D01*
X0003600Y0052952D02*
X0006700Y0052952D01*
X0006700Y0054551D02*
X0003600Y0054551D01*
X0003600Y0056149D02*
X0006700Y0056149D01*
X0006700Y0057748D02*
X0003600Y0057748D01*
X0003600Y0059346D02*
X0006700Y0059346D01*
X0006700Y0060945D02*
X0003600Y0060945D01*
X0003600Y0062543D02*
X0006700Y0062543D01*
X0006700Y0064142D02*
X0003600Y0064142D01*
X0003600Y0065740D02*
X0006700Y0065740D01*
X0006700Y0067339D02*
X0003600Y0067339D01*
X0003600Y0068937D02*
X0006700Y0068937D01*
X0006700Y0070536D02*
X0003600Y0070536D01*
X0003600Y0072134D02*
X0006700Y0072134D01*
X0006700Y0073733D02*
X0003600Y0073733D01*
X0003600Y0075332D02*
X0006700Y0075332D01*
X0006700Y0076930D02*
X0003600Y0076930D01*
X0003600Y0078529D02*
X0006700Y0078529D01*
X0006700Y0080127D02*
X0003600Y0080127D01*
X0003600Y0081726D02*
X0006700Y0081726D01*
X0006700Y0083324D02*
X0003600Y0083324D01*
X0003600Y0084923D02*
X0006700Y0084923D01*
X0006700Y0086521D02*
X0003600Y0086521D01*
X0003600Y0088120D02*
X0006700Y0088120D01*
X0006700Y0089718D02*
X0003600Y0089718D01*
X0003600Y0091317D02*
X0007964Y0091317D01*
X0009562Y0092915D02*
X0003600Y0092915D01*
X0003600Y0094514D02*
X0009335Y0094514D01*
X0008800Y0096112D02*
X0003600Y0096112D01*
X0003600Y0097711D02*
X0008800Y0097711D01*
X0009427Y0099309D02*
X0003600Y0099309D01*
X0003600Y0100908D02*
X0010837Y0100908D01*
X0003600Y0102506D02*
X0095654Y0102506D01*
X0097252Y0104105D02*
X0003600Y0104105D01*
X0003600Y0105703D02*
X0098851Y0105703D01*
X0094055Y0100908D02*
X0022763Y0100908D01*
X0024173Y0099309D02*
X0092457Y0099309D01*
X0090858Y0097711D02*
X0024800Y0097711D01*
X0024800Y0096112D02*
X0089259Y0096112D01*
X0087661Y0094514D02*
X0024265Y0094514D01*
X0022986Y0092915D02*
X0086062Y0092915D01*
X0084464Y0091317D02*
X0021432Y0091317D01*
X0021643Y0091248D02*
X0020924Y0091482D01*
X0020178Y0091600D01*
X0017000Y0091600D01*
X0017000Y0087000D01*
X0024600Y0087000D01*
X0024600Y0087178D01*
X0024482Y0087924D01*
X0024248Y0088643D01*
X0023905Y0089316D01*
X0023461Y0089927D01*
X0022927Y0090461D01*
X0022316Y0090905D01*
X0021643Y0091248D01*
X0023613Y0089718D02*
X0082865Y0089718D01*
X0081267Y0088120D02*
X0024418Y0088120D01*
X0024600Y0086600D02*
X0017000Y0086600D01*
X0017000Y0082000D01*
X0020178Y0082000D01*
X0020924Y0082118D01*
X0021643Y0082352D01*
X0022316Y0082695D01*
X0022927Y0083139D01*
X0023461Y0083673D01*
X0023905Y0084284D01*
X0024248Y0084957D01*
X0024482Y0085676D01*
X0024600Y0086422D01*
X0024600Y0086600D01*
X0024600Y0086521D02*
X0079668Y0086521D01*
X0078070Y0084923D02*
X0024231Y0084923D01*
X0023112Y0083324D02*
X0076471Y0083324D01*
X0074873Y0081726D02*
X0020974Y0081726D01*
X0023544Y0080127D02*
X0073274Y0080127D01*
X0072175Y0107031D02*
X0072917Y0107149D01*
X0073630Y0107381D01*
X0074299Y0107722D01*
X0074906Y0108163D01*
X0075437Y0108694D01*
X0075878Y0109301D01*
X0076219Y0109970D01*
X0076451Y0110683D01*
X0076568Y0111425D01*
X0076568Y0111616D01*
X0071984Y0111616D01*
X0071984Y0107031D01*
X0072175Y0107031D01*
X0071984Y0107302D02*
X0071616Y0107302D01*
X0071616Y0107031D02*
X0071616Y0111616D01*
X0071984Y0111616D01*
X0071984Y0111984D01*
X0076568Y0111984D01*
X0076568Y0112175D01*
X0076451Y0112917D01*
X0076219Y0113630D01*
X0075878Y0114299D01*
X0075437Y0114906D01*
X0074906Y0115437D01*
X0074299Y0115878D01*
X0073630Y0116219D01*
X0072917Y0116451D01*
X0072175Y0116568D01*
X0071984Y0116568D01*
X0071984Y0111984D01*
X0071616Y0111984D01*
X0071616Y0111616D01*
X0067031Y0111616D01*
X0067031Y0111425D01*
X0067149Y0110683D01*
X0067381Y0109970D01*
X0067722Y0109301D01*
X0068163Y0108694D01*
X0068694Y0108163D01*
X0069301Y0107722D01*
X0069970Y0107381D01*
X0070683Y0107149D01*
X0071425Y0107031D01*
X0071616Y0107031D01*
X0070213Y0107302D02*
X0063924Y0107302D01*
X0064614Y0107588D02*
X0066012Y0108986D01*
X0066768Y0110812D01*
X0066768Y0112788D01*
X0066012Y0114614D01*
X0064614Y0116012D01*
X0062788Y0116768D01*
X0060812Y0116768D01*
X0058986Y0116012D01*
X0057588Y0114614D01*
X0056831Y0112788D01*
X0056831Y0110812D01*
X0057588Y0108986D01*
X0058986Y0107588D01*
X0060812Y0106831D01*
X0062788Y0106831D01*
X0064614Y0107588D01*
X0065927Y0108900D02*
X0068013Y0108900D01*
X0067209Y0110499D02*
X0066639Y0110499D01*
X0067031Y0111984D02*
X0071616Y0111984D01*
X0071616Y0116568D01*
X0071425Y0116568D01*
X0070683Y0116451D01*
X0069970Y0116219D01*
X0069301Y0115878D01*
X0068694Y0115437D01*
X0068163Y0114906D01*
X0067722Y0114299D01*
X0067381Y0113630D01*
X0067149Y0112917D01*
X0067031Y0112175D01*
X0067031Y0111984D01*
X0067031Y0112097D02*
X0066768Y0112097D01*
X0066393Y0113696D02*
X0067414Y0113696D01*
X0068551Y0115294D02*
X0065332Y0115294D01*
X0071616Y0115294D02*
X0071984Y0115294D01*
X0071984Y0113696D02*
X0071616Y0113696D01*
X0071616Y0112097D02*
X0071984Y0112097D01*
X0071984Y0110499D02*
X0071616Y0110499D01*
X0071616Y0108900D02*
X0071984Y0108900D01*
X0073387Y0107302D02*
X0079676Y0107302D01*
X0078986Y0107588D02*
X0080812Y0106831D01*
X0082788Y0106831D01*
X0084614Y0107588D01*
X0086012Y0108986D01*
X0086768Y0110812D01*
X0086768Y0112788D01*
X0086012Y0114614D01*
X0084614Y0116012D01*
X0082788Y0116768D01*
X0080812Y0116768D01*
X0078986Y0116012D01*
X0077588Y0114614D01*
X0076831Y0112788D01*
X0076831Y0110812D01*
X0077588Y0108986D01*
X0078986Y0107588D01*
X0077673Y0108900D02*
X0075587Y0108900D01*
X0076391Y0110499D02*
X0076961Y0110499D01*
X0076831Y0112097D02*
X0076568Y0112097D01*
X0076186Y0113696D02*
X0077207Y0113696D01*
X0078268Y0115294D02*
X0075049Y0115294D01*
X0085332Y0115294D02*
X0088268Y0115294D01*
X0087207Y0113696D02*
X0086393Y0113696D01*
X0086768Y0112097D02*
X0086831Y0112097D01*
X0086961Y0110499D02*
X0086639Y0110499D01*
X0085927Y0108900D02*
X0087673Y0108900D01*
X0089676Y0107302D02*
X0083924Y0107302D01*
X0059676Y0107302D02*
X0053924Y0107302D01*
X0054614Y0107588D02*
X0056012Y0108986D01*
X0056768Y0110812D01*
X0056768Y0112788D01*
X0056012Y0114614D01*
X0054614Y0116012D01*
X0052788Y0116768D01*
X0050812Y0116768D01*
X0048986Y0116012D01*
X0047588Y0114614D01*
X0046831Y0112788D01*
X0046831Y0110812D01*
X0047588Y0108986D01*
X0048986Y0107588D01*
X0050812Y0106831D01*
X0052788Y0106831D01*
X0054614Y0107588D01*
X0055927Y0108900D02*
X0057673Y0108900D01*
X0056961Y0110499D02*
X0056639Y0110499D01*
X0056768Y0112097D02*
X0056831Y0112097D01*
X0057207Y0113696D02*
X0056393Y0113696D01*
X0055332Y0115294D02*
X0058268Y0115294D01*
X0048268Y0115294D02*
X0045332Y0115294D01*
X0046012Y0114614D02*
X0044614Y0116012D01*
X0042788Y0116768D01*
X0040812Y0116768D01*
X0038986Y0116012D01*
X0037588Y0114614D01*
X0036831Y0112788D01*
X0036831Y0110812D01*
X0037588Y0108986D01*
X0038986Y0107588D01*
X0040812Y0106831D01*
X0042788Y0106831D01*
X0044614Y0107588D01*
X0046012Y0108986D01*
X0046768Y0110812D01*
X0046768Y0112788D01*
X0046012Y0114614D01*
X0046393Y0113696D02*
X0047207Y0113696D01*
X0046831Y0112097D02*
X0046768Y0112097D01*
X0046639Y0110499D02*
X0046961Y0110499D01*
X0047673Y0108900D02*
X0045927Y0108900D01*
X0043924Y0107302D02*
X0049676Y0107302D01*
X0039676Y0107302D02*
X0003600Y0107302D01*
X0003600Y0108900D02*
X0037673Y0108900D01*
X0036961Y0110499D02*
X0003600Y0110499D01*
X0003600Y0112097D02*
X0036831Y0112097D01*
X0037207Y0113696D02*
X0003600Y0113696D01*
X0003600Y0115294D02*
X0038268Y0115294D01*
X0017000Y0091317D02*
X0016600Y0091317D01*
X0016600Y0089718D02*
X0017000Y0089718D01*
X0017000Y0088120D02*
X0016600Y0088120D01*
X0016600Y0086521D02*
X0017000Y0086521D01*
X0017000Y0084923D02*
X0016600Y0084923D01*
X0016600Y0083324D02*
X0017000Y0083324D01*
X0012626Y0081726D02*
X0011300Y0081726D01*
X0020675Y0025778D02*
X0032425Y0025778D01*
X0030826Y0024179D02*
X0029293Y0024179D01*
X0024307Y0024179D02*
X0022274Y0024179D01*
X0031800Y0017785D02*
X0032000Y0017785D01*
X0032000Y0016187D02*
X0031800Y0016187D01*
X0031800Y0014588D02*
X0032000Y0014588D01*
X0032069Y0012990D02*
X0031800Y0012990D01*
X0031214Y0011391D02*
X0032640Y0011391D01*
X0034150Y0009793D02*
X0029864Y0009793D01*
X0009117Y0004997D02*
X0003600Y0004997D01*
X0003600Y0006596D02*
X0006664Y0006596D01*
X0005379Y0008194D02*
X0003600Y0008194D01*
X0003600Y0009793D02*
X0004717Y0009793D01*
X0004488Y0011391D02*
X0003600Y0011391D01*
X0003600Y0012990D02*
X0004488Y0012990D01*
X0005041Y0014588D02*
X0003600Y0014588D01*
X0003600Y0016187D02*
X0005846Y0016187D01*
X0007445Y0017785D02*
X0003600Y0017785D01*
X0104000Y0123287D02*
X0123634Y0123287D01*
X0125233Y0124885D02*
X0104000Y0124885D01*
X0103569Y0126484D02*
X0126831Y0126484D01*
X0128430Y0128082D02*
X0101970Y0128082D01*
X0100372Y0129681D02*
X0130028Y0129681D01*
X0131627Y0131279D02*
X0098773Y0131279D01*
X0097175Y0132878D02*
X0133225Y0132878D01*
X0134824Y0134476D02*
X0095576Y0134476D01*
X0093978Y0136075D02*
X0136422Y0136075D01*
X0138021Y0137673D02*
X0092379Y0137673D01*
X0090781Y0139272D02*
X0139619Y0139272D01*
X0141218Y0140870D02*
X0089182Y0140870D01*
X0087584Y0142469D02*
X0142816Y0142469D01*
X0144415Y0144068D02*
X0085985Y0144068D01*
X0084387Y0145666D02*
X0146013Y0145666D01*
X0147612Y0147265D02*
X0082788Y0147265D01*
X0081190Y0148863D02*
X0147710Y0148863D01*
X0146977Y0150462D02*
X0079591Y0150462D01*
X0077993Y0152060D02*
X0146831Y0152060D01*
X0147192Y0153659D02*
X0076394Y0153659D01*
X0077846Y0156856D02*
X0085753Y0156856D01*
X0083119Y0158454D02*
X0080481Y0158454D01*
X0081454Y0160053D02*
X0082146Y0160053D01*
X0081831Y0161651D02*
X0081768Y0161651D01*
X0081577Y0163250D02*
X0082023Y0163250D01*
X0086285Y0169644D02*
X0087315Y0169644D01*
X0086831Y0171242D02*
X0086768Y0171242D01*
X0086747Y0172841D02*
X0086853Y0172841D01*
X0087515Y0174439D02*
X0086085Y0174439D01*
X0084552Y0176038D02*
X0089048Y0176038D01*
X0079048Y0176038D02*
X0074552Y0176038D01*
X0076085Y0174439D02*
X0077515Y0174439D01*
X0075302Y0168045D02*
X0075072Y0168045D01*
X0096400Y0195220D02*
X0120100Y0195220D01*
X0120100Y0196818D02*
X0096400Y0196818D01*
X0096400Y0198417D02*
X0120100Y0198417D01*
X0121163Y0200015D02*
X0095090Y0200015D01*
X0095907Y0214402D02*
X0135549Y0214402D01*
X0137148Y0216001D02*
X0096400Y0216001D01*
X0096400Y0217599D02*
X0138746Y0217599D01*
X0140345Y0219198D02*
X0095908Y0219198D01*
X0094309Y0220796D02*
X0141943Y0220796D01*
X0143542Y0222395D02*
X0090647Y0222395D01*
X0092246Y0223993D02*
X0145140Y0223993D01*
X0146739Y0225592D02*
X0093844Y0225592D01*
X0095443Y0227190D02*
X0148337Y0227190D01*
X0149936Y0228789D02*
X0097041Y0228789D01*
X0098640Y0230387D02*
X0151534Y0230387D01*
X0153133Y0231986D02*
X0100238Y0231986D01*
X0101837Y0233584D02*
X0154731Y0233584D01*
X0156330Y0235183D02*
X0103435Y0235183D01*
X0105034Y0236781D02*
X0156831Y0236781D01*
X0157076Y0238380D02*
X0106632Y0238380D01*
X0108231Y0239978D02*
X0157952Y0239978D01*
X0160349Y0241577D02*
X0109829Y0241577D01*
X0111428Y0243175D02*
X0158398Y0243175D01*
X0157261Y0244774D02*
X0113026Y0244774D01*
X0114625Y0246372D02*
X0156831Y0246372D01*
X0156907Y0247971D02*
X0116223Y0247971D01*
X0117822Y0249569D02*
X0118960Y0249569D01*
X0124640Y0249569D02*
X0128960Y0249569D01*
X0127478Y0251168D02*
X0126122Y0251168D01*
X0126784Y0252766D02*
X0126816Y0252766D01*
X0126800Y0252805D02*
X0126800Y0260795D01*
X0127561Y0262632D01*
X0128968Y0264039D01*
X0129116Y0264100D01*
X0124484Y0264100D01*
X0124632Y0264039D01*
X0126039Y0262632D01*
X0126800Y0260795D01*
X0126800Y0252805D01*
X0126800Y0254365D02*
X0126800Y0254365D01*
X0126800Y0255963D02*
X0126800Y0255963D01*
X0126800Y0257562D02*
X0126800Y0257562D01*
X0126800Y0259160D02*
X0126800Y0259160D01*
X0126800Y0260759D02*
X0126800Y0260759D01*
X0126153Y0262357D02*
X0127447Y0262357D01*
X0128885Y0263956D02*
X0124715Y0263956D01*
X0134715Y0263956D02*
X0168391Y0263956D01*
X0169990Y0262357D02*
X0136153Y0262357D01*
X0136800Y0260759D02*
X0157325Y0260759D01*
X0157391Y0260874D02*
X0157154Y0260463D01*
X0157031Y0260005D01*
X0157031Y0256984D01*
X0161616Y0256984D01*
X0161616Y0256616D01*
X0161984Y0256616D01*
X0161984Y0252031D01*
X0165005Y0252031D01*
X0165463Y0252154D01*
X0165874Y0252391D01*
X0166209Y0252726D01*
X0166446Y0253137D01*
X0166568Y0253595D01*
X0166568Y0256616D01*
X0161984Y0256616D01*
X0161984Y0256984D01*
X0166568Y0256984D01*
X0166568Y0260005D01*
X0166446Y0260463D01*
X0166209Y0260874D01*
X0165874Y0261209D01*
X0165463Y0261446D01*
X0165005Y0261568D01*
X0161984Y0261568D01*
X0161984Y0256984D01*
X0161616Y0256984D01*
X0161616Y0261568D01*
X0158595Y0261568D01*
X0158137Y0261446D01*
X0157726Y0261209D01*
X0157391Y0260874D01*
X0157031Y0259160D02*
X0136800Y0259160D01*
X0136800Y0257562D02*
X0157031Y0257562D01*
X0157031Y0256616D02*
X0157031Y0253595D01*
X0157154Y0253137D01*
X0157391Y0252726D01*
X0157726Y0252391D01*
X0158137Y0252154D01*
X0158595Y0252031D01*
X0161616Y0252031D01*
X0161616Y0256616D01*
X0157031Y0256616D01*
X0157031Y0255963D02*
X0136800Y0255963D01*
X0136800Y0254365D02*
X0157031Y0254365D01*
X0157368Y0252766D02*
X0136784Y0252766D01*
X0136122Y0251168D02*
X0159361Y0251168D01*
X0157569Y0249569D02*
X0134640Y0249569D01*
X0109718Y0247971D02*
X0064400Y0247971D01*
X0065580Y0246372D02*
X0108120Y0246372D01*
X0106521Y0244774D02*
X0067179Y0244774D01*
X0068777Y0243175D02*
X0104923Y0243175D01*
X0103324Y0241577D02*
X0070376Y0241577D01*
X0071974Y0239978D02*
X0101726Y0239978D01*
X0100127Y0238380D02*
X0073573Y0238380D01*
X0075172Y0236781D02*
X0098528Y0236781D01*
X0096930Y0235183D02*
X0076770Y0235183D01*
X0078369Y0233584D02*
X0095331Y0233584D01*
X0093733Y0231986D02*
X0079967Y0231986D01*
X0081566Y0230387D02*
X0092134Y0230387D01*
X0090536Y0228789D02*
X0083164Y0228789D01*
X0084763Y0227190D02*
X0088937Y0227190D01*
X0087339Y0225592D02*
X0086361Y0225592D01*
X0154400Y0209606D02*
X0222741Y0209606D01*
X0224339Y0208008D02*
X0154400Y0208008D01*
X0154400Y0206409D02*
X0225938Y0206409D01*
X0227536Y0204811D02*
X0154400Y0204811D01*
X0154400Y0203212D02*
X0229135Y0203212D01*
X0230733Y0201614D02*
X0154400Y0201614D01*
X0154400Y0200015D02*
X0230800Y0200015D01*
X0230800Y0198417D02*
X0154400Y0198417D01*
X0154400Y0196818D02*
X0230800Y0196818D01*
X0230800Y0195220D02*
X0154400Y0195220D01*
X0154400Y0193621D02*
X0230800Y0193621D01*
X0230800Y0192023D02*
X0154400Y0192023D01*
X0154400Y0190424D02*
X0230800Y0190424D01*
X0230800Y0188826D02*
X0154400Y0188826D01*
X0154400Y0187227D02*
X0230800Y0187227D01*
X0230800Y0185629D02*
X0154400Y0185629D01*
X0154400Y0184030D02*
X0230800Y0184030D01*
X0230800Y0182432D02*
X0154400Y0182432D01*
X0155958Y0211205D02*
X0221142Y0211205D01*
X0219544Y0212803D02*
X0157556Y0212803D01*
X0159155Y0214402D02*
X0217945Y0214402D01*
X0216347Y0216001D02*
X0160753Y0216001D01*
X0162352Y0217599D02*
X0214748Y0217599D01*
X0213150Y0219198D02*
X0163950Y0219198D01*
X0165549Y0220796D02*
X0211551Y0220796D01*
X0209953Y0222395D02*
X0174148Y0222395D01*
X0176015Y0223993D02*
X0208354Y0223993D01*
X0206756Y0225592D02*
X0176677Y0225592D01*
X0176768Y0227190D02*
X0205157Y0227190D01*
X0203559Y0228789D02*
X0176354Y0228789D01*
X0175239Y0230387D02*
X0201960Y0230387D01*
X0200362Y0231986D02*
X0173160Y0231986D01*
X0170440Y0231986D02*
X0168800Y0231986D01*
X0175611Y0233584D02*
X0198763Y0233584D01*
X0197165Y0235183D02*
X0176508Y0235183D01*
X0176768Y0236781D02*
X0195566Y0236781D01*
X0193968Y0238380D02*
X0176524Y0238380D01*
X0175648Y0239978D02*
X0192369Y0239978D01*
X0190771Y0241577D02*
X0173251Y0241577D01*
X0175202Y0243175D02*
X0189172Y0243175D01*
X0187574Y0244774D02*
X0176339Y0244774D01*
X0176768Y0246372D02*
X0185975Y0246372D01*
X0184377Y0247971D02*
X0176693Y0247971D01*
X0176031Y0249569D02*
X0182778Y0249569D01*
X0181180Y0251168D02*
X0174239Y0251168D01*
X0174793Y0252766D02*
X0179581Y0252766D01*
X0177983Y0254365D02*
X0176169Y0254365D01*
X0169361Y0251168D02*
X0164239Y0251168D01*
X0166031Y0249569D02*
X0167569Y0249569D01*
X0166907Y0247971D02*
X0166693Y0247971D01*
X0166768Y0246372D02*
X0166831Y0246372D01*
X0169229Y0241577D02*
X0170349Y0241577D01*
X0164200Y0241577D02*
X0163251Y0241577D01*
X0161984Y0252766D02*
X0161616Y0252766D01*
X0161616Y0254365D02*
X0161984Y0254365D01*
X0161984Y0255963D02*
X0161616Y0255963D01*
X0161616Y0257562D02*
X0161984Y0257562D01*
X0161984Y0259160D02*
X0161616Y0259160D01*
X0161616Y0260759D02*
X0161984Y0260759D01*
X0166275Y0260759D02*
X0168732Y0260759D01*
X0167400Y0259160D02*
X0166568Y0259160D01*
X0166568Y0257562D02*
X0166831Y0257562D01*
X0166831Y0255963D02*
X0166568Y0255963D01*
X0166568Y0254365D02*
X0167431Y0254365D01*
X0166232Y0252766D02*
X0168807Y0252766D01*
X0169452Y0222395D02*
X0167147Y0222395D01*
X0235400Y0184030D02*
X0236098Y0184030D01*
X0254498Y0169644D02*
X0268701Y0169644D01*
X0172748Y0137673D02*
X0154205Y0137673D01*
X0151984Y0137673D02*
X0151616Y0137673D01*
X0151616Y0139272D02*
X0151984Y0139272D01*
X0151984Y0140870D02*
X0151616Y0140870D01*
X0149395Y0137673D02*
X0144526Y0137673D01*
X0142928Y0136075D02*
X0171582Y0136075D01*
X0171400Y0134476D02*
X0141329Y0134476D01*
X0139731Y0132878D02*
X0172197Y0132878D01*
X0147743Y0139272D02*
X0146125Y0139272D01*
X0142788Y0116768D02*
X0140812Y0116768D01*
X0138986Y0116012D01*
X0137588Y0114614D01*
X0136831Y0112788D01*
X0136831Y0110812D01*
X0137588Y0108986D01*
X0138986Y0107588D01*
X0140812Y0106831D01*
X0142788Y0106831D01*
X0144614Y0107588D01*
X0146012Y0108986D01*
X0146768Y0110812D01*
X0146768Y0112788D01*
X0146012Y0114614D01*
X0144614Y0116012D01*
X0142788Y0116768D01*
X0145332Y0115294D02*
X0148268Y0115294D01*
X0147207Y0113696D02*
X0146393Y0113696D01*
X0146768Y0112097D02*
X0146831Y0112097D01*
X0146961Y0110499D02*
X0146639Y0110499D01*
X0145927Y0108900D02*
X0147673Y0108900D01*
X0149676Y0107302D02*
X0143924Y0107302D01*
X0139676Y0107302D02*
X0133924Y0107302D01*
X0135927Y0108900D02*
X0137673Y0108900D01*
X0136961Y0110499D02*
X0136639Y0110499D01*
X0136768Y0112097D02*
X0136831Y0112097D01*
X0137207Y0113696D02*
X0136393Y0113696D01*
X0135332Y0115294D02*
X0138268Y0115294D01*
X0266099Y0260759D02*
X0268701Y0260759D01*
X0268701Y0262357D02*
X0267698Y0262357D01*
X0268536Y0263956D02*
X0268701Y0263956D01*
X0268701Y0270350D02*
X0268244Y0270350D01*
X0268701Y0271948D02*
X0266992Y0271948D01*
X0268701Y0273547D02*
X0264618Y0273547D01*
X0258982Y0273547D02*
X0014618Y0273547D01*
X0016992Y0271948D02*
X0256608Y0271948D01*
X0255356Y0270350D02*
X0018244Y0270350D01*
X0008982Y0273547D02*
X0003600Y0273547D01*
X0003600Y0271948D02*
X0006608Y0271948D01*
X0005356Y0270350D02*
X0003600Y0270350D01*
X0003600Y0268751D02*
X0004694Y0268751D01*
X0004488Y0267153D02*
X0003600Y0267153D01*
X0003600Y0265554D02*
X0004488Y0265554D01*
X0005064Y0263956D02*
X0003600Y0263956D01*
X0003600Y0262357D02*
X0005902Y0262357D01*
X0007501Y0260759D02*
X0003600Y0260759D01*
D20*
X0174600Y0135000D03*
M02*
